M48
;Layer_Color=9474304
;FILE_FORMAT=2:5
INCH,LZ
;TYPE=PLATED
T1F00S00C0.01181
T3F00S00C0.03543
T4F00S00C0.05118
T5F00S00C0.09843
T6F00S00C0.12598
;TYPE=NON_PLATED
T7F00S00C0.02559
T8F00S00C0.11811
T9F00S00C0.12598
%
T01
X0181102Y0011811
X021063Y0011811
X0226378Y0011811
X0239173Y0003937
X0239763Y0033464
X0235827Y0054724
X0232283
X022441Y0053543
X0184055Y0057087
X0180118
X0264764Y0028543
X0165354Y0011811
X0106299Y0009843
Y0021654
X0094488
X0082677
Y0009843
X0094488
Y0033465
X0106299
X0082677
X0061023Y0025197
X0061024Y001811
X0125Y0070571
X0141141Y007185
X0167323Y0066929
Y0080709
X0145078Y0099409
X0138189Y0117126
X0139173Y0122441
X0138189Y0139763
X0139173Y0145079
X0188976Y0121654
X0218307Y0116142
X0242913Y0111024
X0237795Y0100393
X0239173Y007874
Y0070866
X0252362Y0067323
Y008189
X0179331Y0080709
Y0066929
X0221654Y0142913
X0227165Y0150394
X0238221Y0151575
X0235236Y0166339
X0213221Y0163386
X0202658Y0188583
X0213878Y0200295
X0238221Y0230315
X0239173Y0247047
X0236221
X0232283Y024741
X0228937
X0212599Y0258267
X0168209Y0218799
X0108071Y0235236
X0098622
X0073228Y0234449
Y0239567
X0071259Y022933
X0056693Y0245275
X003876Y0239567
X0091339Y0255906
X0105118
T03
X018374Y003622
X019374
X020374
X021374
X022374
X023374
X0044882Y0018032
Y0008032
X0034882
Y0018032
X0119764Y0198031
X0129764Y0198031
Y0208032
X0119764
X0180118Y0133031
Y0123031
Y0113031
X0207362Y013189
X0217362
X0227362
X0237362
X0204882Y0248031
X0194882
Y0258032
X0204882
X0184882
Y0248031
X0174882
Y0258032
X0164882
Y0248031
X0154882Y0248031
Y0258032
X0129764Y0228031
X0119764
Y0218032
X0129764
X0039528Y0220472
X0029528
T04
X0035118Y0070866
X0055118
X0075118
X0103347Y011189
Y013189
Y013189
Y015189
X0075118Y0192913
X0055118
X0035118
T05
X003189Y0034449
X0019685Y0054134
T06
X0044094Y0054134
T07
X0250583Y0063425
Y0086181
T08
X0574803Y005315
Y021063
X0574803Y0326772
Y0484252
T09
X0252953Y0014764
X0016732Y0014764
X0252953Y0250984
X0016732Y0250984
M30
