G04*
G04 #@! TF.GenerationSoftware,Altium Limited,Altium Designer,21.7.0 (8)*
G04*
G04 Layer_Physical_Order=1*
G04 Layer_Color=32768*
%FSLAX25Y25*%
%MOIN*%
G70*
G04*
G04 #@! TF.SameCoordinates,1325804E-F4F0-4480-9AD4-437C1A0D12FC*
G04*
G04*
G04 #@! TF.FilePolarity,Positive*
G04*
G01*
G75*
%ADD10C,0.00591*%
%ADD11C,0.00984*%
%ADD12C,0.00787*%
%ADD13C,0.00394*%
%ADD14C,0.01575*%
%ADD16R,0.07874X0.07874*%
%ADD17R,0.04331X0.03937*%
%ADD18R,0.05906X0.03150*%
%ADD19O,0.02362X0.08661*%
%ADD20R,0.06299X0.07087*%
%ADD21R,0.03937X0.04331*%
%ADD22R,0.06102X0.02362*%
%ADD23R,0.07874X0.04724*%
%ADD24R,0.03347X0.03937*%
%ADD25R,0.03347X0.03937*%
%ADD26R,0.05118X0.05906*%
%ADD27R,0.03937X0.05118*%
%ADD28O,0.08661X0.02362*%
%ADD29R,0.03937X0.03347*%
%ADD30R,0.03937X0.03347*%
%ADD31R,0.05906X0.05118*%
%ADD32R,0.07874X0.05512*%
%ADD33R,0.03543X0.01575*%
%ADD34R,0.05118X0.03937*%
%ADD35R,0.02362X0.04528*%
%ADD36R,0.10236X0.06693*%
%ADD37R,0.09843X0.05906*%
%ADD38R,0.27559X0.27559*%
%ADD39R,0.04331X0.07677*%
G04:AMPARAMS|DCode=40|XSize=43.31mil|YSize=76.77mil|CornerRadius=10.83mil|HoleSize=0mil|Usage=FLASHONLY|Rotation=0.000|XOffset=0mil|YOffset=0mil|HoleType=Round|Shape=RoundedRectangle|*
%AMROUNDEDRECTD40*
21,1,0.04331,0.05512,0,0,0.0*
21,1,0.02165,0.07677,0,0,0.0*
1,1,0.02165,0.01083,-0.02756*
1,1,0.02165,-0.01083,-0.02756*
1,1,0.02165,-0.01083,0.02756*
1,1,0.02165,0.01083,0.02756*
%
%ADD40ROUNDEDRECTD40*%
%ADD41R,0.05709X0.01181*%
%ADD42R,0.02165X0.03150*%
%ADD43R,0.03543X0.07874*%
%ADD91C,0.01968*%
%ADD92C,0.00591*%
%ADD93C,0.03937*%
%ADD94C,0.01968*%
%ADD95R,0.01575X0.03937*%
%ADD96R,0.19685X0.19685*%
%ADD97C,0.05906*%
%ADD98R,0.05906X0.05906*%
%ADD99R,0.05906X0.05906*%
%ADD100C,0.06000*%
G04:AMPARAMS|DCode=101|XSize=60mil|YSize=60mil|CornerRadius=15mil|HoleSize=0mil|Usage=FLASHONLY|Rotation=270.000|XOffset=0mil|YOffset=0mil|HoleType=Round|Shape=RoundedRectangle|*
%AMROUNDEDRECTD101*
21,1,0.06000,0.03000,0,0,270.0*
21,1,0.03000,0.06000,0,0,270.0*
1,1,0.03000,-0.01500,-0.01500*
1,1,0.03000,-0.01500,0.01500*
1,1,0.03000,0.01500,0.01500*
1,1,0.03000,0.01500,-0.01500*
%
%ADD101ROUNDEDRECTD101*%
%ADD102C,0.15748*%
%ADD103C,0.19685*%
G04:AMPARAMS|DCode=104|XSize=78.74mil|YSize=78.74mil|CornerRadius=19.68mil|HoleSize=0mil|Usage=FLASHONLY|Rotation=180.000|XOffset=0mil|YOffset=0mil|HoleType=Round|Shape=RoundedRectangle|*
%AMROUNDEDRECTD104*
21,1,0.07874,0.03937,0,0,180.0*
21,1,0.03937,0.07874,0,0,180.0*
1,1,0.03937,-0.01968,0.01968*
1,1,0.03937,0.01968,0.01968*
1,1,0.03937,0.01968,-0.01968*
1,1,0.03937,-0.01968,-0.01968*
%
%ADD104ROUNDEDRECTD104*%
G04:AMPARAMS|DCode=105|XSize=78.74mil|YSize=78.74mil|CornerRadius=19.68mil|HoleSize=0mil|Usage=FLASHONLY|Rotation=270.000|XOffset=0mil|YOffset=0mil|HoleType=Round|Shape=RoundedRectangle|*
%AMROUNDEDRECTD105*
21,1,0.07874,0.03937,0,0,270.0*
21,1,0.03937,0.07874,0,0,270.0*
1,1,0.03937,-0.01968,-0.01968*
1,1,0.03937,-0.01968,0.01968*
1,1,0.03937,0.01968,0.01968*
1,1,0.03937,0.01968,-0.01968*
%
%ADD105ROUNDEDRECTD105*%
%ADD106R,0.07874X0.07874*%
%ADD107O,0.08268X0.03937*%
%ADD108O,0.06299X0.03937*%
%ADD109C,0.02559*%
%ADD110C,0.12598*%
%ADD111C,0.02756*%
G36*
X127835Y231968D02*
X127795Y231624D01*
X127890Y230939D01*
X128208Y230325D01*
X128711Y229851D01*
X129016Y229685D01*
X129387Y229759D01*
X130122Y229576D01*
X130709Y229095D01*
X131033Y228410D01*
X131033Y227653D01*
X130709Y226968D01*
X130122Y226487D01*
X129387Y226304D01*
X129016Y226378D01*
X128709Y226207D01*
X128201Y225724D01*
X127884Y225100D01*
X127792Y224405D01*
X127835Y224056D01*
X126555Y224056D01*
X123504Y224095D01*
X123077D01*
X122289Y224421D01*
X121685Y225025D01*
X121358Y225813D01*
Y226240D01*
Y228031D01*
Y229823D01*
Y230250D01*
X121685Y231038D01*
X122289Y231642D01*
X123077Y231968D01*
X126555D01*
X127835Y231968D01*
D02*
G37*
G36*
X135217Y231818D02*
X135930Y231523D01*
X136572Y231094D01*
X137118Y230548D01*
X137546Y229907D01*
X137842Y229194D01*
X137992Y228437D01*
Y228051D01*
Y227661D01*
X137840Y226897D01*
X137542Y226177D01*
X137109Y225529D01*
X136558Y224978D01*
X135910Y224545D01*
X135190Y224247D01*
X134425Y224095D01*
X131673D01*
X128626Y224095D01*
X128620Y224352D01*
X128766Y224844D01*
X129056Y225268D01*
X129463Y225582D01*
X129705Y225669D01*
X129705Y225669D01*
X130125Y225761D01*
X130882Y226161D01*
X131448Y226803D01*
X131751Y227603D01*
X131751Y228460D01*
X131448Y229260D01*
X130882Y229902D01*
X130125Y230302D01*
X129705Y230394D01*
X129705Y230394D01*
X129463Y230481D01*
X129056Y230795D01*
X128766Y231219D01*
X128620Y231712D01*
X128626Y231968D01*
X128626Y231968D01*
X131673Y231968D01*
X134461D01*
X135217Y231818D01*
D02*
G37*
G36*
X127835Y224056D02*
X127835D01*
D01*
X127835D01*
D02*
G37*
G36*
X57480Y224448D02*
X60531Y224410D01*
X60958D01*
X61747Y224083D01*
X62350Y223479D01*
X62677Y222691D01*
Y222264D01*
X62677D01*
X62677Y220472D01*
X62677Y218681D01*
X62677D01*
Y218254D01*
X62350Y217466D01*
X61747Y216862D01*
X60958Y216535D01*
X57480D01*
X57480Y216535D01*
Y216535D01*
X56201D01*
X56241Y216880D01*
X56145Y217565D01*
X55828Y218179D01*
X55324Y218653D01*
X55020Y218819D01*
X55020Y218819D01*
X54648Y218745D01*
X53913Y218928D01*
X53327Y219409D01*
X53003Y220094D01*
X53003Y220851D01*
X53327Y221536D01*
X53913Y222017D01*
X54648Y222200D01*
X55020Y222126D01*
Y222126D01*
X55327Y222297D01*
X55834Y222780D01*
X56151Y223404D01*
X56244Y224099D01*
X56201Y224448D01*
Y224448D01*
X57480Y224448D01*
D02*
G37*
G36*
X55410Y224409D02*
X55416Y224152D01*
X55270Y223660D01*
X54979Y223236D01*
X54572Y222922D01*
X54331Y222835D01*
X54331Y222835D01*
X53911Y222743D01*
X53154Y222343D01*
X52587Y221701D01*
X52284Y220901D01*
X52284Y220044D01*
X52587Y219244D01*
X53154Y218602D01*
X53911Y218202D01*
X54331Y218110D01*
X54331Y218110D01*
X54572Y218023D01*
X54979Y217709D01*
X55269Y217285D01*
X55416Y216792D01*
X55410Y216536D01*
X55410Y216536D01*
X52362Y216535D01*
X49634D01*
X48877Y216686D01*
X48164Y216981D01*
X47523Y217410D01*
X46977Y217956D01*
X46548Y218597D01*
X46253Y219310D01*
X46102Y220067D01*
Y220453D01*
Y220843D01*
X46254Y221607D01*
X46553Y222327D01*
X46986Y222975D01*
X47537Y223526D01*
X48185Y223959D01*
X48905Y224257D01*
X49669Y224410D01*
X52362D01*
X55410Y224409D01*
D02*
G37*
G36*
X127835Y221969D02*
X127795Y221624D01*
X127890Y220939D01*
X128208Y220325D01*
X128711Y219851D01*
X129016Y219685D01*
X129387Y219759D01*
X130122Y219576D01*
X130709Y219095D01*
X131033Y218410D01*
X131033Y217653D01*
X130709Y216968D01*
X130122Y216487D01*
X129387Y216304D01*
X129016Y216378D01*
X128709Y216207D01*
X128201Y215724D01*
X127884Y215100D01*
X127792Y214405D01*
X127835Y214056D01*
X126555Y214056D01*
X123504Y214094D01*
X123077D01*
X122289Y214421D01*
X121685Y215025D01*
X121358Y215813D01*
Y216240D01*
Y218032D01*
Y219823D01*
Y220250D01*
X121685Y221038D01*
X122289Y221642D01*
X123077Y221969D01*
X126555D01*
X127835Y221969D01*
D02*
G37*
G36*
X135217Y221818D02*
X135930Y221523D01*
X136572Y221094D01*
X137118Y220548D01*
X137546Y219907D01*
X137842Y219194D01*
X137992Y218437D01*
Y218051D01*
Y217661D01*
X137840Y216897D01*
X137542Y216177D01*
X137109Y215529D01*
X136558Y214978D01*
X135910Y214545D01*
X135190Y214247D01*
X134425Y214094D01*
X131673D01*
X128626Y214095D01*
X128620Y214352D01*
X128766Y214844D01*
X129056Y215268D01*
X129463Y215582D01*
X129705Y215669D01*
X129705Y215669D01*
X130125Y215761D01*
X130882Y216161D01*
X131448Y216803D01*
X131751Y217603D01*
X131751Y218460D01*
X131448Y219260D01*
X130882Y219902D01*
X130125Y220302D01*
X129705Y220394D01*
X129705Y220394D01*
X129463Y220481D01*
X129056Y220795D01*
X128766Y221219D01*
X128620Y221711D01*
X128626Y221968D01*
X128626Y221968D01*
X131673Y221969D01*
X134461D01*
X135217Y221818D01*
D02*
G37*
G36*
X127835Y214056D02*
X127835D01*
D01*
X127835D01*
D02*
G37*
G36*
X127835Y211968D02*
X127795Y211624D01*
X127890Y210939D01*
X128208Y210325D01*
X128711Y209851D01*
X129016Y209685D01*
X129387Y209759D01*
X130122Y209576D01*
X130709Y209095D01*
X131033Y208410D01*
X131033Y207653D01*
X130709Y206968D01*
X130122Y206487D01*
X129387Y206304D01*
X129016Y206378D01*
X128709Y206207D01*
X128201Y205724D01*
X127884Y205100D01*
X127792Y204405D01*
X127835Y204056D01*
X126555Y204056D01*
X123504Y204095D01*
X123077D01*
X122289Y204421D01*
X121685Y205025D01*
X121358Y205813D01*
Y206240D01*
Y208032D01*
Y209823D01*
Y210250D01*
X121685Y211038D01*
X122289Y211642D01*
X123077Y211968D01*
X126555D01*
X127835Y211968D01*
D02*
G37*
G36*
X135217Y211818D02*
X135930Y211523D01*
X136572Y211094D01*
X137118Y210548D01*
X137546Y209907D01*
X137842Y209194D01*
X137992Y208437D01*
Y208051D01*
Y207662D01*
X137840Y206897D01*
X137542Y206177D01*
X137109Y205529D01*
X136558Y204978D01*
X135910Y204545D01*
X135190Y204247D01*
X134425Y204095D01*
X131673D01*
X128626Y204095D01*
X128620Y204351D01*
X128766Y204844D01*
X129056Y205268D01*
X129463Y205582D01*
X129705Y205669D01*
X129705Y205669D01*
X130125Y205761D01*
X130882Y206161D01*
X131448Y206803D01*
X131751Y207603D01*
X131751Y208459D01*
X131448Y209260D01*
X130882Y209902D01*
X130125Y210302D01*
X129705Y210394D01*
X129705Y210394D01*
X129463Y210481D01*
X129056Y210795D01*
X128766Y211219D01*
X128620Y211712D01*
X128626Y211968D01*
X128626Y211968D01*
X131673Y211968D01*
X134461D01*
X135217Y211818D01*
D02*
G37*
G36*
X127835Y204056D02*
X127835D01*
D01*
X127835D01*
D02*
G37*
G36*
X127835Y201969D02*
X127795Y201624D01*
X127890Y200939D01*
X128208Y200325D01*
X128711Y199851D01*
X129016Y199685D01*
X129387Y199759D01*
X130122Y199576D01*
X130709Y199095D01*
X131033Y198410D01*
X131033Y197653D01*
X130709Y196968D01*
X130122Y196487D01*
X129387Y196304D01*
X129016Y196378D01*
X128709Y196207D01*
X128201Y195724D01*
X127884Y195100D01*
X127792Y194405D01*
X127835Y194056D01*
X126555Y194056D01*
X123504Y194095D01*
X123077D01*
X122289Y194421D01*
X121685Y195025D01*
X121358Y195813D01*
Y196240D01*
Y198031D01*
Y199823D01*
Y200250D01*
X121685Y201038D01*
X122289Y201642D01*
X123077Y201969D01*
X126555D01*
X127835Y201969D01*
D02*
G37*
G36*
X135217Y201818D02*
X135930Y201523D01*
X136572Y201094D01*
X137118Y200548D01*
X137546Y199907D01*
X137842Y199194D01*
X137992Y198437D01*
Y198051D01*
Y197661D01*
X137840Y196897D01*
X137542Y196177D01*
X137109Y195529D01*
X136558Y194978D01*
X135910Y194545D01*
X135190Y194246D01*
X134425Y194095D01*
X133642D01*
Y194095D01*
X131673D01*
X128626Y194095D01*
X128620Y194351D01*
X128766Y194844D01*
X129056Y195268D01*
X129463Y195582D01*
X129705Y195669D01*
X129705Y195669D01*
X130125Y195761D01*
X130882Y196161D01*
X131448Y196803D01*
X131751Y197603D01*
X131751Y198459D01*
X131448Y199260D01*
X130882Y199902D01*
X130125Y200302D01*
X129705Y200394D01*
X129705Y200394D01*
X129463Y200481D01*
X129056Y200795D01*
X128766Y201219D01*
X128620Y201712D01*
X128626Y201968D01*
X128626Y201968D01*
X131673Y201969D01*
X133642D01*
Y201969D01*
X134461D01*
X135217Y201818D01*
D02*
G37*
G36*
X127835Y194056D02*
X127835D01*
D01*
X127835D01*
D02*
G37*
G36*
X251706Y93401D02*
X252259Y92847D01*
X252559Y92124D01*
Y91732D01*
Y91341D01*
X252259Y90617D01*
X251706Y90064D01*
X250982Y89764D01*
X250590D01*
X249409Y89764D01*
X249102Y89733D01*
X248534Y89498D01*
X248100Y89064D01*
X247865Y88496D01*
X247835Y88189D01*
Y86221D01*
X241929D01*
Y87930D01*
Y88460D01*
X242136Y89499D01*
X242541Y90477D01*
X243129Y91358D01*
X243504Y91732D01*
X243504D01*
X244916Y93144D01*
X245048Y93276D01*
X245359Y93484D01*
X245705Y93628D01*
X246073Y93701D01*
X250982D01*
X251706Y93401D01*
D02*
G37*
G36*
X249803Y83943D02*
Y83071D01*
X239567D01*
Y85433D01*
X248622D01*
X249803Y83943D01*
D02*
G37*
G36*
X249699Y65533D02*
X248622Y64173D01*
X240354D01*
X239961Y64567D01*
Y66142D01*
X240354Y66535D01*
X249699D01*
Y65533D01*
D02*
G37*
G36*
X247835Y61417D02*
X247865Y61110D01*
X248100Y60542D01*
X248534Y60108D01*
X249102Y59873D01*
X249409Y59842D01*
X250590D01*
Y59842D01*
X250982D01*
X251706Y59543D01*
X252259Y58989D01*
X252559Y58266D01*
Y57874D01*
Y57482D01*
X252259Y56759D01*
X251706Y56205D01*
X250982Y55905D01*
X246073D01*
X245705Y55979D01*
X245359Y56122D01*
X245048Y56330D01*
X244916Y56462D01*
X243504Y57874D01*
X243504Y57874D01*
X243129Y58249D01*
X242541Y59129D01*
X242136Y60108D01*
X241929Y61146D01*
Y61676D01*
Y63386D01*
X247835D01*
Y61417D01*
D02*
G37*
G36*
X895101Y-155808D02*
X894814D01*
Y-156094D01*
X894528D01*
Y-156380D01*
Y-156667D01*
X894242D01*
Y-156953D01*
X893955D01*
Y-157239D01*
X893669D01*
Y-157526D01*
Y-157812D01*
X893383D01*
Y-158098D01*
X893096D01*
Y-158385D01*
X892810D01*
Y-158671D01*
X892524D01*
Y-158957D01*
Y-159244D01*
X892237D01*
Y-159530D01*
X891951D01*
Y-159816D01*
X891665D01*
Y-160102D01*
Y-160389D01*
X891378D01*
Y-160675D01*
X891092D01*
Y-160961D01*
X890806D01*
Y-161248D01*
X890520D01*
Y-161534D01*
Y-161820D01*
X890233D01*
Y-162107D01*
X889947D01*
Y-162393D01*
X889661D01*
Y-162679D01*
Y-162966D01*
X889374D01*
Y-163252D01*
X889088D01*
Y-163538D01*
X888802D01*
Y-163824D01*
Y-164111D01*
X888515D01*
Y-164397D01*
X888229D01*
Y-164683D01*
X887943D01*
Y-164970D01*
X887656D01*
Y-165256D01*
Y-165542D01*
X887370D01*
Y-165829D01*
X887084D01*
Y-166115D01*
X886798D01*
Y-166401D01*
Y-166688D01*
X886511D01*
Y-166974D01*
X886225D01*
Y-167260D01*
X885939D01*
Y-167547D01*
Y-167833D01*
X885652D01*
Y-168119D01*
X885366D01*
Y-168405D01*
X885080D01*
Y-168692D01*
X884793D01*
Y-168978D01*
Y-169264D01*
X884507D01*
Y-169551D01*
X884221D01*
Y-169837D01*
X883934D01*
Y-170123D01*
Y-170410D01*
X883648D01*
Y-170696D01*
X883362D01*
Y-170982D01*
X883076D01*
Y-171269D01*
Y-171555D01*
X882789D01*
Y-171841D01*
X882503D01*
Y-172127D01*
X882216D01*
Y-172414D01*
X881930D01*
Y-172700D01*
Y-172986D01*
X881644D01*
Y-173273D01*
X881358D01*
Y-173559D01*
X881071D01*
Y-173845D01*
Y-174132D01*
X880785D01*
Y-174418D01*
X880499D01*
Y-174704D01*
X880212D01*
Y-174991D01*
X879926D01*
Y-175277D01*
Y-175563D01*
X880212D01*
Y-175850D01*
Y-176136D01*
X880499D01*
Y-176422D01*
Y-176709D01*
X880785D01*
Y-176995D01*
X881071D01*
Y-177281D01*
Y-177568D01*
X881358D01*
Y-177854D01*
Y-178140D01*
X881644D01*
Y-178426D01*
Y-178713D01*
X881930D01*
Y-178999D01*
Y-179285D01*
X882216D01*
Y-179572D01*
Y-179858D01*
X882503D01*
Y-180144D01*
Y-180431D01*
X882789D01*
Y-180717D01*
Y-181003D01*
X883076D01*
Y-181290D01*
Y-181576D01*
X883362D01*
Y-181862D01*
X883648D01*
Y-182149D01*
Y-182435D01*
X883934D01*
Y-182721D01*
Y-183007D01*
X884221D01*
Y-183294D01*
Y-183580D01*
X884507D01*
Y-183866D01*
Y-184153D01*
X884793D01*
Y-184439D01*
Y-184725D01*
X885080D01*
Y-185012D01*
Y-185298D01*
X885366D01*
Y-185584D01*
Y-185871D01*
X885652D01*
Y-186157D01*
X885939D01*
Y-186443D01*
Y-186730D01*
X886225D01*
Y-187016D01*
Y-187302D01*
X886511D01*
Y-187588D01*
Y-187875D01*
X886798D01*
Y-188161D01*
Y-188447D01*
X887084D01*
Y-188734D01*
Y-189020D01*
X887370D01*
Y-189306D01*
Y-189593D01*
X887656D01*
Y-189879D01*
Y-190165D01*
X887943D01*
Y-190452D01*
X888229D01*
Y-190738D01*
Y-191024D01*
X888515D01*
Y-191311D01*
Y-191597D01*
X888802D01*
Y-191883D01*
X873627D01*
Y-191597D01*
X873341D01*
Y-191311D01*
Y-191024D01*
Y-190738D01*
X873055D01*
Y-190452D01*
Y-190165D01*
Y-189879D01*
X872768D01*
Y-189593D01*
Y-189306D01*
X872482D01*
Y-189020D01*
Y-188734D01*
Y-188447D01*
X872196D01*
Y-188161D01*
Y-187875D01*
Y-187588D01*
X871909D01*
Y-187302D01*
Y-187016D01*
X871623D01*
Y-186730D01*
Y-186443D01*
Y-186157D01*
X871337D01*
Y-185871D01*
Y-185584D01*
Y-185298D01*
X871050D01*
Y-185012D01*
Y-184725D01*
Y-184439D01*
X870764D01*
Y-184153D01*
X870191D01*
Y-184439D01*
Y-184725D01*
X869905D01*
Y-185012D01*
X869619D01*
Y-185298D01*
Y-185584D01*
X869332D01*
Y-185871D01*
X869046D01*
Y-186157D01*
Y-186443D01*
X868760D01*
Y-186730D01*
X868474D01*
Y-187016D01*
Y-187302D01*
X868187D01*
Y-187588D01*
X867901D01*
Y-187875D01*
X867615D01*
Y-188161D01*
Y-188447D01*
X867328D01*
Y-188734D01*
X867042D01*
Y-189020D01*
Y-189306D01*
X866756D01*
Y-189593D01*
X866469D01*
Y-189879D01*
Y-190165D01*
X866183D01*
Y-190452D01*
X865897D01*
Y-190738D01*
Y-191024D01*
X865610D01*
Y-191311D01*
X865324D01*
Y-191597D01*
Y-191883D01*
X849290D01*
Y-191597D01*
X849577D01*
Y-191311D01*
X849863D01*
Y-191024D01*
X850150D01*
Y-190738D01*
X850436D01*
Y-190452D01*
Y-190165D01*
X850722D01*
Y-189879D01*
X851008D01*
Y-189593D01*
X851295D01*
Y-189306D01*
X851581D01*
Y-189020D01*
Y-188734D01*
X851867D01*
Y-188447D01*
X852154D01*
Y-188161D01*
X852440D01*
Y-187875D01*
Y-187588D01*
X852726D01*
Y-187302D01*
X853013D01*
Y-187016D01*
X853299D01*
Y-186730D01*
X853585D01*
Y-186443D01*
Y-186157D01*
X853872D01*
Y-185871D01*
X854158D01*
Y-185584D01*
X854444D01*
Y-185298D01*
X854731D01*
Y-185012D01*
Y-184725D01*
X855017D01*
Y-184439D01*
X855303D01*
Y-184153D01*
X855589D01*
Y-183866D01*
Y-183580D01*
X855876D01*
Y-183294D01*
X856162D01*
Y-183007D01*
X856448D01*
Y-182721D01*
X856735D01*
Y-182435D01*
Y-182149D01*
X857021D01*
Y-181862D01*
X857307D01*
Y-181576D01*
X857594D01*
Y-181290D01*
Y-181003D01*
X857880D01*
Y-180717D01*
X858166D01*
Y-180431D01*
X858453D01*
Y-180144D01*
X858739D01*
Y-179858D01*
Y-179572D01*
X859025D01*
Y-179285D01*
X859311D01*
Y-178999D01*
X859598D01*
Y-178713D01*
Y-178426D01*
X859884D01*
Y-178140D01*
X860170D01*
Y-177854D01*
X860457D01*
Y-177568D01*
X860743D01*
Y-177281D01*
Y-176995D01*
X861029D01*
Y-176709D01*
X861316D01*
Y-176422D01*
X861602D01*
Y-176136D01*
X861888D01*
Y-175850D01*
Y-175563D01*
X862175D01*
Y-175277D01*
X862461D01*
Y-174991D01*
X862747D01*
Y-174704D01*
Y-174418D01*
X863034D01*
Y-174132D01*
X863320D01*
Y-173845D01*
X863606D01*
Y-173559D01*
X863892D01*
Y-173273D01*
Y-172986D01*
X864179D01*
Y-172700D01*
Y-172414D01*
Y-172127D01*
X863892D01*
Y-171841D01*
X863606D01*
Y-171555D01*
Y-171269D01*
X863320D01*
Y-170982D01*
Y-170696D01*
X863034D01*
Y-170410D01*
Y-170123D01*
X862747D01*
Y-169837D01*
Y-169551D01*
X862461D01*
Y-169264D01*
Y-168978D01*
X862175D01*
Y-168692D01*
Y-168405D01*
X861888D01*
Y-168119D01*
X861602D01*
Y-167833D01*
Y-167547D01*
X861316D01*
Y-167260D01*
Y-166974D01*
X861029D01*
Y-166688D01*
Y-166401D01*
X860743D01*
Y-166115D01*
Y-165829D01*
X860457D01*
Y-165542D01*
Y-165256D01*
X860170D01*
Y-164970D01*
Y-164683D01*
X859884D01*
Y-164397D01*
X859598D01*
Y-164111D01*
Y-163824D01*
X859311D01*
Y-163538D01*
Y-163252D01*
X859025D01*
Y-162966D01*
Y-162679D01*
X858739D01*
Y-162393D01*
Y-162107D01*
X858453D01*
Y-161820D01*
Y-161534D01*
X858166D01*
Y-161248D01*
Y-160961D01*
X857880D01*
Y-160675D01*
Y-160389D01*
X857594D01*
Y-160102D01*
X857307D01*
Y-159816D01*
Y-159530D01*
X857021D01*
Y-159244D01*
Y-158957D01*
X856735D01*
Y-158671D01*
Y-158385D01*
X856448D01*
Y-158098D01*
Y-157812D01*
X856162D01*
Y-157526D01*
Y-157239D01*
X855876D01*
Y-156953D01*
Y-156667D01*
X855589D01*
Y-156380D01*
X855303D01*
Y-156094D01*
Y-155808D01*
X855017D01*
Y-155521D01*
X870764D01*
Y-155808D01*
X871050D01*
Y-156094D01*
Y-156380D01*
Y-156667D01*
X871337D01*
Y-156953D01*
Y-157239D01*
Y-157526D01*
X871623D01*
Y-157812D01*
Y-158098D01*
Y-158385D01*
X871909D01*
Y-158671D01*
Y-158957D01*
Y-159244D01*
X872196D01*
Y-159530D01*
Y-159816D01*
Y-160102D01*
X872482D01*
Y-160389D01*
Y-160675D01*
Y-160961D01*
X872768D01*
Y-161248D01*
Y-161534D01*
Y-161820D01*
X873055D01*
Y-162107D01*
Y-162393D01*
Y-162679D01*
X873341D01*
Y-162966D01*
Y-163252D01*
Y-163538D01*
Y-163824D01*
X873913D01*
Y-163538D01*
X874200D01*
Y-163252D01*
X874486D01*
Y-162966D01*
Y-162679D01*
X874772D01*
Y-162393D01*
X875059D01*
Y-162107D01*
Y-161820D01*
X875345D01*
Y-161534D01*
X875631D01*
Y-161248D01*
Y-160961D01*
X875918D01*
Y-160675D01*
X876204D01*
Y-160389D01*
Y-160102D01*
X876490D01*
Y-159816D01*
X876777D01*
Y-159530D01*
Y-159244D01*
X877063D01*
Y-158957D01*
X877349D01*
Y-158671D01*
Y-158385D01*
X877635D01*
Y-158098D01*
X877922D01*
Y-157812D01*
Y-157526D01*
X878208D01*
Y-157239D01*
X878494D01*
Y-156953D01*
Y-156667D01*
X878781D01*
Y-156380D01*
X879067D01*
Y-156094D01*
Y-155808D01*
X879353D01*
Y-155521D01*
X895101D01*
Y-155808D01*
D02*
G37*
G36*
X761965Y-141778D02*
X763683D01*
Y-142065D01*
X764542D01*
Y-142351D01*
X765401D01*
Y-142637D01*
X766260D01*
Y-142924D01*
X766832D01*
Y-143210D01*
X767119D01*
Y-143496D01*
X767691D01*
Y-143783D01*
X767978D01*
Y-144069D01*
X768550D01*
Y-144355D01*
X768837D01*
Y-144641D01*
X769123D01*
Y-144928D01*
X769409D01*
Y-145214D01*
X769696D01*
Y-145501D01*
X769982D01*
Y-145787D01*
X770268D01*
Y-146073D01*
Y-146359D01*
X770554D01*
Y-146646D01*
X770841D01*
Y-146932D01*
Y-147218D01*
X771127D01*
Y-147505D01*
X771414D01*
Y-147791D01*
Y-148077D01*
X771700D01*
Y-148364D01*
Y-148650D01*
Y-148936D01*
X771986D01*
Y-149223D01*
Y-149509D01*
Y-149795D01*
X772272D01*
Y-150082D01*
Y-150368D01*
Y-150654D01*
Y-150940D01*
X772559D01*
Y-151227D01*
Y-151513D01*
Y-151799D01*
Y-152086D01*
Y-152372D01*
X772845D01*
Y-152658D01*
Y-152945D01*
Y-153231D01*
Y-153517D01*
Y-153804D01*
Y-154090D01*
Y-154376D01*
Y-154663D01*
Y-154949D01*
Y-155235D01*
Y-155521D01*
Y-155808D01*
Y-156094D01*
Y-156380D01*
Y-156667D01*
Y-156953D01*
Y-157239D01*
Y-157526D01*
Y-157812D01*
Y-158098D01*
X772559D01*
Y-158385D01*
Y-158671D01*
Y-158957D01*
Y-159244D01*
Y-159530D01*
Y-159816D01*
Y-160102D01*
X772272D01*
Y-160389D01*
Y-160675D01*
Y-160961D01*
Y-161248D01*
Y-161534D01*
X771986D01*
Y-161820D01*
Y-162107D01*
Y-162393D01*
Y-162679D01*
Y-162966D01*
X771700D01*
Y-163252D01*
Y-163538D01*
Y-163824D01*
X771414D01*
Y-164111D01*
Y-164397D01*
Y-164683D01*
Y-164970D01*
X771127D01*
Y-165256D01*
Y-165542D01*
Y-165829D01*
X770841D01*
Y-166115D01*
Y-166401D01*
X770554D01*
Y-166688D01*
Y-166974D01*
Y-167260D01*
X770268D01*
Y-167547D01*
Y-167833D01*
X769982D01*
Y-168119D01*
Y-168405D01*
X769696D01*
Y-168692D01*
Y-168978D01*
X769409D01*
Y-169264D01*
X769123D01*
Y-169551D01*
Y-169837D01*
X768837D01*
Y-170123D01*
X768550D01*
Y-170410D01*
X768264D01*
Y-170696D01*
Y-170982D01*
X767978D01*
Y-171269D01*
X767691D01*
Y-171555D01*
X767405D01*
Y-171841D01*
X767119D01*
Y-172127D01*
X766832D01*
Y-172414D01*
X766260D01*
Y-172700D01*
X765974D01*
Y-172986D01*
X765401D01*
Y-173273D01*
X765115D01*
Y-173559D01*
X764542D01*
Y-173845D01*
X763683D01*
Y-174132D01*
X762824D01*
Y-174418D01*
X761965D01*
Y-174704D01*
X760247D01*
Y-174991D01*
X755094D01*
Y-174704D01*
X752517D01*
Y-174418D01*
X750513D01*
Y-174132D01*
X749081D01*
Y-173845D01*
X747649D01*
Y-173559D01*
X746218D01*
Y-173845D01*
Y-174132D01*
Y-174418D01*
Y-174704D01*
Y-174991D01*
Y-175277D01*
Y-175563D01*
X745932D01*
Y-175850D01*
Y-176136D01*
Y-176422D01*
Y-176709D01*
Y-176995D01*
Y-177281D01*
X745645D01*
Y-177568D01*
Y-177854D01*
Y-178140D01*
Y-178426D01*
Y-178713D01*
Y-178999D01*
X745359D01*
Y-179285D01*
Y-179572D01*
Y-179858D01*
Y-180144D01*
Y-180431D01*
Y-180717D01*
Y-181003D01*
X745073D01*
Y-181290D01*
Y-181576D01*
Y-181862D01*
Y-182149D01*
Y-182435D01*
Y-182721D01*
X744786D01*
Y-183007D01*
Y-183294D01*
Y-183580D01*
Y-183866D01*
Y-184153D01*
Y-184439D01*
X744500D01*
Y-184725D01*
Y-185012D01*
Y-185298D01*
Y-185584D01*
Y-185871D01*
Y-186157D01*
Y-186443D01*
X744214D01*
Y-186730D01*
Y-187016D01*
Y-187302D01*
Y-187588D01*
Y-187875D01*
Y-188161D01*
X743927D01*
Y-188447D01*
Y-188734D01*
Y-189020D01*
Y-189306D01*
Y-189593D01*
Y-189879D01*
X743641D01*
Y-190165D01*
Y-190452D01*
Y-190738D01*
Y-191024D01*
Y-191311D01*
Y-191597D01*
Y-191883D01*
X730184D01*
Y-191597D01*
X730471D01*
Y-191311D01*
Y-191024D01*
Y-190738D01*
Y-190452D01*
Y-190165D01*
X730757D01*
Y-189879D01*
Y-189593D01*
Y-189306D01*
Y-189020D01*
Y-188734D01*
Y-188447D01*
Y-188161D01*
X731043D01*
Y-187875D01*
Y-187588D01*
Y-187302D01*
Y-187016D01*
Y-186730D01*
Y-186443D01*
X731330D01*
Y-186157D01*
Y-185871D01*
Y-185584D01*
Y-185298D01*
Y-185012D01*
Y-184725D01*
X731616D01*
Y-184439D01*
Y-184153D01*
Y-183866D01*
Y-183580D01*
Y-183294D01*
Y-183007D01*
Y-182721D01*
X731902D01*
Y-182435D01*
Y-182149D01*
Y-181862D01*
Y-181576D01*
Y-181290D01*
Y-181003D01*
X732189D01*
Y-180717D01*
Y-180431D01*
Y-180144D01*
Y-179858D01*
Y-179572D01*
Y-179285D01*
X732475D01*
Y-178999D01*
Y-178713D01*
Y-178426D01*
Y-178140D01*
Y-177854D01*
Y-177568D01*
X732761D01*
Y-177281D01*
Y-176995D01*
Y-176709D01*
Y-176422D01*
Y-176136D01*
Y-175850D01*
Y-175563D01*
X733047D01*
Y-175277D01*
Y-174991D01*
Y-174704D01*
Y-174418D01*
Y-174132D01*
Y-173845D01*
X733334D01*
Y-173559D01*
Y-173273D01*
Y-172986D01*
Y-172700D01*
Y-172414D01*
Y-172127D01*
X733620D01*
Y-171841D01*
Y-171555D01*
Y-171269D01*
Y-170982D01*
Y-170696D01*
Y-170410D01*
X733907D01*
Y-170123D01*
Y-169837D01*
Y-169551D01*
Y-169264D01*
Y-168978D01*
Y-168692D01*
Y-168405D01*
X734193D01*
Y-168119D01*
Y-167833D01*
Y-167547D01*
Y-167260D01*
Y-166974D01*
Y-166688D01*
X734479D01*
Y-166401D01*
Y-166115D01*
Y-165829D01*
Y-165542D01*
Y-165256D01*
Y-164970D01*
X734765D01*
Y-164683D01*
Y-164397D01*
Y-164111D01*
Y-163824D01*
Y-163538D01*
Y-163252D01*
Y-162966D01*
X735052D01*
Y-162679D01*
Y-162393D01*
Y-162107D01*
Y-161820D01*
Y-161534D01*
Y-161248D01*
X735338D01*
Y-160961D01*
Y-160675D01*
Y-160389D01*
Y-160102D01*
Y-159816D01*
Y-159530D01*
X735624D01*
Y-159244D01*
Y-158957D01*
Y-158671D01*
Y-158385D01*
Y-158098D01*
Y-157812D01*
X735911D01*
Y-157526D01*
Y-157239D01*
Y-156953D01*
Y-156667D01*
Y-156380D01*
Y-156094D01*
Y-155808D01*
X736197D01*
Y-155521D01*
Y-155235D01*
Y-154949D01*
Y-154663D01*
Y-154376D01*
Y-154090D01*
X736483D01*
Y-153804D01*
Y-153517D01*
Y-153231D01*
Y-152945D01*
Y-152658D01*
Y-152372D01*
X736770D01*
Y-152086D01*
Y-151799D01*
Y-151513D01*
Y-151227D01*
Y-150940D01*
Y-150654D01*
Y-150368D01*
X737056D01*
Y-150082D01*
Y-149795D01*
Y-149509D01*
Y-149223D01*
Y-148936D01*
Y-148650D01*
X737342D01*
Y-148364D01*
Y-148077D01*
Y-147791D01*
Y-147505D01*
Y-147218D01*
Y-146932D01*
X737629D01*
Y-146646D01*
Y-146359D01*
Y-146073D01*
Y-145787D01*
Y-145501D01*
Y-145214D01*
Y-144928D01*
X737915D01*
Y-144641D01*
Y-144355D01*
Y-144069D01*
Y-143783D01*
Y-143496D01*
Y-143210D01*
X738201D01*
Y-142924D01*
Y-142637D01*
Y-142351D01*
Y-142065D01*
Y-141778D01*
Y-141492D01*
X761965D01*
Y-141778D01*
D02*
G37*
G36*
X851008Y-155808D02*
Y-156094D01*
Y-156380D01*
Y-156667D01*
Y-156953D01*
Y-157239D01*
Y-157526D01*
Y-157812D01*
Y-158098D01*
Y-158385D01*
Y-158671D01*
Y-158957D01*
Y-159244D01*
Y-159530D01*
Y-159816D01*
Y-160102D01*
Y-160389D01*
Y-160675D01*
Y-160961D01*
Y-161248D01*
Y-161534D01*
X850722D01*
Y-161820D01*
Y-162107D01*
Y-162393D01*
Y-162679D01*
Y-162966D01*
X850436D01*
Y-163252D01*
Y-163538D01*
Y-163824D01*
Y-164111D01*
X850150D01*
Y-164397D01*
Y-164683D01*
Y-164970D01*
Y-165256D01*
X849863D01*
Y-165542D01*
Y-165829D01*
Y-166115D01*
X849577D01*
Y-166401D01*
Y-166688D01*
Y-166974D01*
X849290D01*
Y-167260D01*
Y-167547D01*
Y-167833D01*
X849004D01*
Y-168119D01*
Y-168405D01*
Y-168692D01*
X848718D01*
Y-168978D01*
Y-169264D01*
X848432D01*
Y-169551D01*
Y-169837D01*
X848145D01*
Y-170123D01*
Y-170410D01*
Y-170696D01*
X847859D01*
Y-170982D01*
Y-171269D01*
X847573D01*
Y-171555D01*
Y-171841D01*
Y-172127D01*
X847286D01*
Y-172414D01*
Y-172700D01*
X847000D01*
Y-172986D01*
Y-173273D01*
Y-173559D01*
X846714D01*
Y-173845D01*
Y-174132D01*
X846427D01*
Y-174418D01*
Y-174704D01*
Y-174991D01*
X846141D01*
Y-175277D01*
Y-175563D01*
X845855D01*
Y-175850D01*
Y-176136D01*
Y-176422D01*
X845568D01*
Y-176709D01*
Y-176995D01*
X845282D01*
Y-177281D01*
Y-177568D01*
Y-177854D01*
X844996D01*
Y-178140D01*
Y-178426D01*
X844709D01*
Y-178713D01*
Y-178999D01*
Y-179285D01*
X844423D01*
Y-179572D01*
Y-179858D01*
X844137D01*
Y-180144D01*
Y-180431D01*
Y-180717D01*
X843851D01*
Y-181003D01*
Y-181290D01*
X843564D01*
Y-181576D01*
Y-181862D01*
Y-182149D01*
X843278D01*
Y-182435D01*
Y-182721D01*
X842992D01*
Y-183007D01*
Y-183294D01*
Y-183580D01*
X842705D01*
Y-183866D01*
Y-184153D01*
X842419D01*
Y-184439D01*
Y-184725D01*
Y-185012D01*
X842133D01*
Y-185298D01*
Y-185584D01*
X841846D01*
Y-185871D01*
Y-186157D01*
Y-186443D01*
X841560D01*
Y-186730D01*
Y-187016D01*
X841274D01*
Y-187302D01*
Y-187588D01*
Y-187875D01*
X840987D01*
Y-188161D01*
Y-188447D01*
X840701D01*
Y-188734D01*
Y-189020D01*
Y-189306D01*
X840415D01*
Y-189593D01*
Y-189879D01*
X840129D01*
Y-190165D01*
Y-190452D01*
Y-190738D01*
X839842D01*
Y-191024D01*
Y-191311D01*
X839556D01*
Y-191597D01*
Y-191883D01*
Y-192169D01*
X839270D01*
Y-192456D01*
Y-192742D01*
X838983D01*
Y-193028D01*
Y-193315D01*
X838697D01*
Y-193601D01*
Y-193887D01*
X838411D01*
Y-194174D01*
Y-194460D01*
Y-194746D01*
X838124D01*
Y-195033D01*
X837838D01*
Y-195319D01*
Y-195605D01*
Y-195891D01*
X837552D01*
Y-196178D01*
X837265D01*
Y-196464D01*
Y-196750D01*
X836979D01*
Y-197037D01*
Y-197323D01*
X836693D01*
Y-197609D01*
Y-197896D01*
X836407D01*
Y-198182D01*
Y-198468D01*
X836120D01*
Y-198755D01*
X835834D01*
Y-199041D01*
Y-199327D01*
X835548D01*
Y-199614D01*
Y-199900D01*
X835261D01*
Y-200186D01*
X834975D01*
Y-200472D01*
X834689D01*
Y-200759D01*
Y-201045D01*
X834402D01*
Y-201331D01*
X834116D01*
Y-201618D01*
Y-201904D01*
X833830D01*
Y-202190D01*
X833543D01*
Y-202477D01*
X833257D01*
Y-202763D01*
Y-203049D01*
X832971D01*
Y-203336D01*
X832684D01*
Y-203622D01*
X832398D01*
Y-203908D01*
X832112D01*
Y-204195D01*
X831826D01*
Y-204481D01*
Y-204767D01*
X831539D01*
Y-205053D01*
X831253D01*
Y-205340D01*
X830966D01*
Y-205626D01*
X830680D01*
Y-205912D01*
X830394D01*
Y-206199D01*
X830108D01*
Y-206485D01*
X829821D01*
Y-206771D01*
X829249D01*
Y-207058D01*
X828962D01*
Y-207344D01*
X828676D01*
Y-207630D01*
X828390D01*
Y-207917D01*
X828103D01*
Y-208203D01*
X827531D01*
Y-208489D01*
X827244D01*
Y-208776D01*
X826672D01*
Y-209062D01*
X826385D01*
Y-209348D01*
X825813D01*
Y-209634D01*
X825527D01*
Y-209921D01*
X824954D01*
Y-210207D01*
X824381D01*
Y-210493D01*
X823809D01*
Y-210780D01*
X823236D01*
Y-211066D01*
X822663D01*
Y-211352D01*
X821805D01*
Y-211639D01*
X821232D01*
Y-211925D01*
X820373D01*
Y-212211D01*
X819228D01*
Y-212498D01*
X818082D01*
Y-212784D01*
X816365D01*
Y-213070D01*
X814360D01*
Y-213357D01*
X814074D01*
Y-213070D01*
Y-212784D01*
Y-212498D01*
Y-212211D01*
Y-211925D01*
Y-211639D01*
Y-211352D01*
Y-211066D01*
Y-210780D01*
Y-210493D01*
Y-210207D01*
Y-209921D01*
Y-209634D01*
Y-209348D01*
Y-209062D01*
Y-208776D01*
Y-208489D01*
Y-208203D01*
Y-207917D01*
Y-207630D01*
Y-207344D01*
Y-207058D01*
Y-206771D01*
Y-206485D01*
Y-206199D01*
Y-205912D01*
Y-205626D01*
Y-205340D01*
Y-205053D01*
Y-204767D01*
Y-204481D01*
Y-204195D01*
Y-203908D01*
X814647D01*
Y-203622D01*
X815219D01*
Y-203336D01*
X815792D01*
Y-203049D01*
X816365D01*
Y-202763D01*
X816937D01*
Y-202477D01*
X817510D01*
Y-202190D01*
X817796D01*
Y-201904D01*
X818369D01*
Y-201618D01*
X818655D01*
Y-201331D01*
X819228D01*
Y-201045D01*
X819514D01*
Y-200759D01*
X819800D01*
Y-200472D01*
X820373D01*
Y-200186D01*
X820659D01*
Y-199900D01*
X820946D01*
Y-199614D01*
X821232D01*
Y-199327D01*
X821518D01*
Y-199041D01*
X821805D01*
Y-198755D01*
X822091D01*
Y-198468D01*
X822377D01*
Y-198182D01*
X822663D01*
Y-197896D01*
X822950D01*
Y-197609D01*
X823236D01*
Y-197323D01*
X823522D01*
Y-197037D01*
Y-196750D01*
X823809D01*
Y-196464D01*
X824095D01*
Y-196178D01*
X824381D01*
Y-195891D01*
Y-195605D01*
X824668D01*
Y-195319D01*
X824954D01*
Y-195033D01*
Y-194746D01*
X825240D01*
Y-194460D01*
Y-194174D01*
X825527D01*
Y-193887D01*
X825813D01*
Y-193601D01*
Y-193315D01*
X826099D01*
Y-193028D01*
Y-192742D01*
X826385D01*
Y-192456D01*
Y-192169D01*
X824668D01*
Y-191883D01*
X822663D01*
Y-191597D01*
X821518D01*
Y-191311D01*
X820946D01*
Y-191024D01*
X820087D01*
Y-190738D01*
X819514D01*
Y-190452D01*
X819228D01*
Y-190165D01*
X818655D01*
Y-189879D01*
X818369D01*
Y-189593D01*
X818082D01*
Y-189306D01*
X817796D01*
Y-189020D01*
X817510D01*
Y-188734D01*
X817223D01*
Y-188447D01*
Y-188161D01*
X816937D01*
Y-187875D01*
X816651D01*
Y-187588D01*
Y-187302D01*
X816365D01*
Y-187016D01*
Y-186730D01*
X816078D01*
Y-186443D01*
Y-186157D01*
X815792D01*
Y-185871D01*
Y-185584D01*
Y-185298D01*
X815506D01*
Y-185012D01*
Y-184725D01*
Y-184439D01*
Y-184153D01*
X815219D01*
Y-183866D01*
Y-183580D01*
Y-183294D01*
Y-183007D01*
Y-182721D01*
Y-182435D01*
Y-182149D01*
X814933D01*
Y-181862D01*
Y-181576D01*
Y-181290D01*
Y-181003D01*
Y-180717D01*
Y-180431D01*
Y-180144D01*
Y-179858D01*
Y-179572D01*
Y-179285D01*
Y-178999D01*
Y-178713D01*
Y-178426D01*
Y-178140D01*
Y-177854D01*
X814647D01*
Y-177568D01*
Y-177281D01*
Y-176995D01*
Y-176709D01*
Y-176422D01*
Y-176136D01*
Y-175850D01*
Y-175563D01*
Y-175277D01*
Y-174991D01*
Y-174704D01*
Y-174418D01*
Y-174132D01*
Y-173845D01*
Y-173559D01*
X814360D01*
Y-173273D01*
Y-172986D01*
Y-172700D01*
Y-172414D01*
Y-172127D01*
Y-171841D01*
Y-171555D01*
Y-171269D01*
Y-170982D01*
Y-170696D01*
Y-170410D01*
Y-170123D01*
Y-169837D01*
Y-169551D01*
Y-169264D01*
Y-168978D01*
X814074D01*
Y-168692D01*
Y-168405D01*
Y-168119D01*
Y-167833D01*
Y-167547D01*
Y-167260D01*
Y-166974D01*
Y-166688D01*
Y-166401D01*
Y-166115D01*
Y-165829D01*
Y-165542D01*
Y-165256D01*
Y-164970D01*
Y-164683D01*
Y-164397D01*
X813788D01*
Y-164111D01*
Y-163824D01*
Y-163538D01*
Y-163252D01*
Y-162966D01*
Y-162679D01*
Y-162393D01*
Y-162107D01*
Y-161820D01*
Y-161534D01*
Y-161248D01*
Y-160961D01*
Y-160675D01*
Y-160389D01*
X813501D01*
Y-160102D01*
Y-159816D01*
Y-159530D01*
Y-159244D01*
Y-158957D01*
Y-158671D01*
Y-158385D01*
Y-158098D01*
Y-157812D01*
Y-157526D01*
Y-157239D01*
Y-156953D01*
Y-156667D01*
Y-156380D01*
Y-156094D01*
Y-155808D01*
X813215D01*
Y-155521D01*
X826958D01*
Y-155808D01*
Y-156094D01*
Y-156380D01*
Y-156667D01*
Y-156953D01*
Y-157239D01*
Y-157526D01*
Y-157812D01*
Y-158098D01*
Y-158385D01*
Y-158671D01*
Y-158957D01*
Y-159244D01*
Y-159530D01*
X827244D01*
Y-159816D01*
Y-160102D01*
Y-160389D01*
Y-160675D01*
Y-160961D01*
Y-161248D01*
Y-161534D01*
Y-161820D01*
Y-162107D01*
Y-162393D01*
Y-162679D01*
Y-162966D01*
Y-163252D01*
Y-163538D01*
Y-163824D01*
Y-164111D01*
Y-164397D01*
Y-164683D01*
Y-164970D01*
Y-165256D01*
Y-165542D01*
Y-165829D01*
Y-166115D01*
Y-166401D01*
Y-166688D01*
Y-166974D01*
Y-167260D01*
Y-167547D01*
Y-167833D01*
Y-168119D01*
Y-168405D01*
Y-168692D01*
Y-168978D01*
Y-169264D01*
Y-169551D01*
Y-169837D01*
Y-170123D01*
Y-170410D01*
Y-170696D01*
Y-170982D01*
Y-171269D01*
X827531D01*
Y-171555D01*
X827244D01*
Y-171841D01*
Y-172127D01*
X827531D01*
Y-172414D01*
Y-172700D01*
Y-172986D01*
Y-173273D01*
Y-173559D01*
Y-173845D01*
Y-174132D01*
Y-174418D01*
Y-174704D01*
Y-174991D01*
Y-175277D01*
Y-175563D01*
Y-175850D01*
Y-176136D01*
Y-176422D01*
Y-176709D01*
Y-176995D01*
Y-177281D01*
Y-177568D01*
Y-177854D01*
Y-178140D01*
Y-178426D01*
Y-178713D01*
Y-178999D01*
Y-179285D01*
Y-179572D01*
X827817D01*
Y-179858D01*
Y-180144D01*
Y-180431D01*
X828103D01*
Y-180717D01*
X828390D01*
Y-181003D01*
X828676D01*
Y-181290D01*
X829535D01*
Y-181576D01*
X830394D01*
Y-181290D01*
X830680D01*
Y-181003D01*
Y-180717D01*
Y-180431D01*
X830966D01*
Y-180144D01*
Y-179858D01*
X831253D01*
Y-179572D01*
Y-179285D01*
Y-178999D01*
X831539D01*
Y-178713D01*
Y-178426D01*
Y-178140D01*
X831826D01*
Y-177854D01*
Y-177568D01*
Y-177281D01*
X832112D01*
Y-176995D01*
Y-176709D01*
Y-176422D01*
X832398D01*
Y-176136D01*
Y-175850D01*
X832684D01*
Y-175563D01*
Y-175277D01*
Y-174991D01*
X832971D01*
Y-174704D01*
Y-174418D01*
Y-174132D01*
X833257D01*
Y-173845D01*
Y-173559D01*
Y-173273D01*
X833543D01*
Y-172986D01*
Y-172700D01*
X833830D01*
Y-172414D01*
Y-172127D01*
Y-171841D01*
X834116D01*
Y-171555D01*
Y-171269D01*
Y-170982D01*
X834402D01*
Y-170696D01*
Y-170410D01*
Y-170123D01*
X834689D01*
Y-169837D01*
Y-169551D01*
X834975D01*
Y-169264D01*
Y-168978D01*
Y-168692D01*
X835261D01*
Y-168405D01*
Y-168119D01*
Y-167833D01*
X835548D01*
Y-167547D01*
Y-167260D01*
Y-166974D01*
X835834D01*
Y-166688D01*
Y-166401D01*
X836120D01*
Y-166115D01*
Y-165829D01*
Y-165542D01*
X836407D01*
Y-165256D01*
Y-164970D01*
Y-164683D01*
X836693D01*
Y-164397D01*
Y-164111D01*
Y-163824D01*
X836979D01*
Y-163538D01*
Y-163252D01*
Y-162966D01*
Y-162679D01*
X837265D01*
Y-162393D01*
Y-162107D01*
Y-161820D01*
Y-161534D01*
X837552D01*
Y-161248D01*
Y-160961D01*
Y-160675D01*
Y-160389D01*
Y-160102D01*
X837838D01*
Y-159816D01*
Y-159530D01*
Y-159244D01*
Y-158957D01*
Y-158671D01*
Y-158385D01*
X838124D01*
Y-158098D01*
Y-157812D01*
Y-157526D01*
Y-157239D01*
Y-156953D01*
Y-156667D01*
Y-156380D01*
Y-156094D01*
Y-155808D01*
Y-155521D01*
X851008D01*
Y-155808D01*
D02*
G37*
G36*
X793173Y-138343D02*
Y-138629D01*
X792887D01*
Y-138915D01*
Y-139202D01*
Y-139488D01*
Y-139774D01*
Y-140060D01*
Y-140347D01*
X792601D01*
Y-140633D01*
Y-140919D01*
Y-141206D01*
Y-141492D01*
Y-141778D01*
Y-142065D01*
X792314D01*
Y-142351D01*
Y-142637D01*
Y-142924D01*
Y-143210D01*
Y-143496D01*
Y-143783D01*
Y-144069D01*
X792028D01*
Y-144355D01*
Y-144641D01*
Y-144928D01*
Y-145214D01*
Y-145501D01*
Y-145787D01*
X791742D01*
Y-146073D01*
Y-146359D01*
Y-146646D01*
Y-146932D01*
Y-147218D01*
Y-147505D01*
X791455D01*
Y-147791D01*
Y-148077D01*
Y-148364D01*
Y-148650D01*
Y-148936D01*
Y-149223D01*
Y-149509D01*
X791169D01*
Y-149795D01*
Y-150082D01*
Y-150368D01*
Y-150654D01*
Y-150940D01*
Y-151227D01*
X790883D01*
Y-151513D01*
Y-151799D01*
Y-152086D01*
Y-152372D01*
Y-152658D01*
Y-152945D01*
X790596D01*
Y-153231D01*
Y-153517D01*
Y-153804D01*
Y-154090D01*
Y-154376D01*
Y-154663D01*
X790310D01*
Y-154949D01*
Y-155235D01*
Y-155521D01*
Y-155808D01*
Y-156094D01*
Y-156380D01*
Y-156667D01*
X790024D01*
Y-156953D01*
Y-157239D01*
Y-157526D01*
Y-157812D01*
Y-158098D01*
Y-158385D01*
X789738D01*
Y-158671D01*
Y-158957D01*
X790310D01*
Y-158671D01*
X790596D01*
Y-158385D01*
X790883D01*
Y-158098D01*
X791455D01*
Y-157812D01*
X791742D01*
Y-157526D01*
X792028D01*
Y-157239D01*
X792601D01*
Y-156953D01*
X793173D01*
Y-156667D01*
X793460D01*
Y-156380D01*
X794032D01*
Y-156094D01*
X794891D01*
Y-155808D01*
X795464D01*
Y-155521D01*
X796323D01*
Y-155235D01*
X797754D01*
Y-154949D01*
X804053D01*
Y-155235D01*
X805198D01*
Y-155521D01*
X806057D01*
Y-155808D01*
X806630D01*
Y-156094D01*
X806916D01*
Y-156380D01*
X807489D01*
Y-156667D01*
X807775D01*
Y-156953D01*
X808062D01*
Y-157239D01*
X808348D01*
Y-157526D01*
X808634D01*
Y-157812D01*
Y-158098D01*
X808920D01*
Y-158385D01*
Y-158671D01*
X809207D01*
Y-158957D01*
Y-159244D01*
Y-159530D01*
X809493D01*
Y-159816D01*
Y-160102D01*
Y-160389D01*
Y-160675D01*
X809779D01*
Y-160961D01*
Y-161248D01*
Y-161534D01*
Y-161820D01*
Y-162107D01*
Y-162393D01*
Y-162679D01*
Y-162966D01*
Y-163252D01*
Y-163538D01*
Y-163824D01*
Y-164111D01*
Y-164397D01*
Y-164683D01*
Y-164970D01*
Y-165256D01*
Y-165542D01*
Y-165829D01*
X809493D01*
Y-166115D01*
Y-166401D01*
Y-166688D01*
Y-166974D01*
Y-167260D01*
Y-167547D01*
Y-167833D01*
X809207D01*
Y-168119D01*
Y-168405D01*
Y-168692D01*
Y-168978D01*
Y-169264D01*
Y-169551D01*
Y-169837D01*
X808920D01*
Y-170123D01*
Y-170410D01*
Y-170696D01*
Y-170982D01*
Y-171269D01*
Y-171555D01*
X808634D01*
Y-171841D01*
Y-172127D01*
Y-172414D01*
Y-172700D01*
Y-172986D01*
Y-173273D01*
X808348D01*
Y-173559D01*
Y-173845D01*
Y-174132D01*
Y-174418D01*
Y-174704D01*
Y-174991D01*
X808062D01*
Y-175277D01*
Y-175563D01*
Y-175850D01*
Y-176136D01*
Y-176422D01*
Y-176709D01*
Y-176995D01*
X807775D01*
Y-177281D01*
Y-177568D01*
Y-177854D01*
Y-178140D01*
Y-178426D01*
Y-178713D01*
X807489D01*
Y-178999D01*
Y-179285D01*
Y-179572D01*
Y-179858D01*
Y-180144D01*
Y-180431D01*
X807203D01*
Y-180717D01*
Y-181003D01*
Y-181290D01*
Y-181576D01*
Y-181862D01*
Y-182149D01*
Y-182435D01*
X806916D01*
Y-182721D01*
Y-183007D01*
Y-183294D01*
Y-183580D01*
Y-183866D01*
Y-184153D01*
X806630D01*
Y-184439D01*
Y-184725D01*
Y-185012D01*
Y-185298D01*
Y-185584D01*
Y-185871D01*
X806344D01*
Y-186157D01*
Y-186443D01*
Y-186730D01*
Y-187016D01*
Y-187302D01*
Y-187588D01*
X806057D01*
Y-187875D01*
Y-188161D01*
Y-188447D01*
Y-188734D01*
Y-189020D01*
Y-189306D01*
Y-189593D01*
X805771D01*
Y-189879D01*
Y-190165D01*
Y-190452D01*
Y-190738D01*
Y-191024D01*
Y-191311D01*
X805485D01*
Y-191597D01*
Y-191883D01*
X792314D01*
Y-191597D01*
Y-191311D01*
X792601D01*
Y-191024D01*
Y-190738D01*
Y-190452D01*
Y-190165D01*
Y-189879D01*
Y-189593D01*
X792887D01*
Y-189306D01*
Y-189020D01*
Y-188734D01*
Y-188447D01*
Y-188161D01*
Y-187875D01*
Y-187588D01*
X793173D01*
Y-187302D01*
Y-187016D01*
Y-186730D01*
Y-186443D01*
Y-186157D01*
Y-185871D01*
X793460D01*
Y-185584D01*
Y-185298D01*
Y-185012D01*
Y-184725D01*
Y-184439D01*
Y-184153D01*
X793746D01*
Y-183866D01*
Y-183580D01*
Y-183294D01*
Y-183007D01*
Y-182721D01*
Y-182435D01*
Y-182149D01*
X794032D01*
Y-181862D01*
Y-181576D01*
Y-181290D01*
Y-181003D01*
Y-180717D01*
Y-180431D01*
X794318D01*
Y-180144D01*
Y-179858D01*
Y-179572D01*
Y-179285D01*
Y-178999D01*
Y-178713D01*
Y-178426D01*
X794605D01*
Y-178140D01*
Y-177854D01*
Y-177568D01*
Y-177281D01*
Y-176995D01*
Y-176709D01*
X794891D01*
Y-176422D01*
Y-176136D01*
Y-175850D01*
Y-175563D01*
Y-175277D01*
Y-174991D01*
X795177D01*
Y-174704D01*
Y-174418D01*
Y-174132D01*
Y-173845D01*
Y-173559D01*
Y-173273D01*
X795464D01*
Y-172986D01*
Y-172700D01*
Y-172414D01*
Y-172127D01*
Y-171841D01*
Y-171555D01*
Y-171269D01*
X795750D01*
Y-170982D01*
Y-170696D01*
Y-170410D01*
Y-170123D01*
Y-169837D01*
Y-169551D01*
X796036D01*
Y-169264D01*
Y-168978D01*
Y-168692D01*
Y-168405D01*
Y-168119D01*
Y-167833D01*
Y-167547D01*
X796323D01*
Y-167260D01*
Y-166974D01*
Y-166688D01*
Y-166401D01*
Y-166115D01*
Y-165829D01*
X796036D01*
Y-165542D01*
Y-165256D01*
X795750D01*
Y-164970D01*
X795464D01*
Y-164683D01*
X794891D01*
Y-164397D01*
X793173D01*
Y-164683D01*
X791742D01*
Y-164970D01*
X790883D01*
Y-165256D01*
X790310D01*
Y-165542D01*
X790024D01*
Y-165829D01*
X789451D01*
Y-166115D01*
X789165D01*
Y-166401D01*
X788878D01*
Y-166688D01*
Y-166974D01*
X788592D01*
Y-167260D01*
Y-167547D01*
Y-167833D01*
X788306D01*
Y-168119D01*
Y-168405D01*
Y-168692D01*
Y-168978D01*
Y-169264D01*
Y-169551D01*
X788020D01*
Y-169837D01*
Y-170123D01*
Y-170410D01*
Y-170696D01*
Y-170982D01*
Y-171269D01*
Y-171555D01*
X787733D01*
Y-171841D01*
Y-172127D01*
Y-172414D01*
Y-172700D01*
Y-172986D01*
Y-173273D01*
X787447D01*
Y-173559D01*
Y-173845D01*
Y-174132D01*
Y-174418D01*
Y-174704D01*
Y-174991D01*
X787161D01*
Y-175277D01*
Y-175563D01*
Y-175850D01*
Y-176136D01*
Y-176422D01*
Y-176709D01*
X786874D01*
Y-176995D01*
Y-177281D01*
Y-177568D01*
Y-177854D01*
Y-178140D01*
Y-178426D01*
Y-178713D01*
X786588D01*
Y-178999D01*
Y-179285D01*
Y-179572D01*
Y-179858D01*
Y-180144D01*
Y-180431D01*
X786302D01*
Y-180717D01*
Y-181003D01*
Y-181290D01*
Y-181576D01*
Y-181862D01*
Y-182149D01*
X786015D01*
Y-182435D01*
Y-182721D01*
Y-183007D01*
Y-183294D01*
Y-183580D01*
Y-183866D01*
Y-184153D01*
X785729D01*
Y-184439D01*
Y-184725D01*
Y-185012D01*
Y-185298D01*
Y-185584D01*
Y-185871D01*
X785443D01*
Y-186157D01*
Y-186443D01*
Y-186730D01*
Y-187016D01*
Y-187302D01*
Y-187588D01*
X785156D01*
Y-187875D01*
Y-188161D01*
Y-188447D01*
Y-188734D01*
Y-189020D01*
Y-189306D01*
X784870D01*
Y-189593D01*
Y-189879D01*
Y-190165D01*
Y-190452D01*
Y-190738D01*
Y-191024D01*
Y-191311D01*
X784584D01*
Y-191597D01*
Y-191883D01*
X771414D01*
Y-191597D01*
Y-191311D01*
X771700D01*
Y-191024D01*
Y-190738D01*
Y-190452D01*
Y-190165D01*
Y-189879D01*
Y-189593D01*
Y-189306D01*
X771986D01*
Y-189020D01*
Y-188734D01*
Y-188447D01*
Y-188161D01*
Y-187875D01*
Y-187588D01*
X772272D01*
Y-187302D01*
Y-187016D01*
Y-186730D01*
Y-186443D01*
Y-186157D01*
Y-185871D01*
X772559D01*
Y-185584D01*
Y-185298D01*
Y-185012D01*
Y-184725D01*
Y-184439D01*
Y-184153D01*
Y-183866D01*
X772845D01*
Y-183580D01*
Y-183294D01*
Y-183007D01*
Y-182721D01*
Y-182435D01*
Y-182149D01*
X773131D01*
Y-181862D01*
Y-181576D01*
Y-181290D01*
Y-181003D01*
Y-180717D01*
Y-180431D01*
X773418D01*
Y-180144D01*
Y-179858D01*
Y-179572D01*
Y-179285D01*
Y-178999D01*
Y-178713D01*
X773704D01*
Y-178426D01*
Y-178140D01*
Y-177854D01*
Y-177568D01*
Y-177281D01*
Y-176995D01*
Y-176709D01*
X773990D01*
Y-176422D01*
Y-176136D01*
Y-175850D01*
Y-175563D01*
Y-175277D01*
Y-174991D01*
X774277D01*
Y-174704D01*
Y-174418D01*
Y-174132D01*
Y-173845D01*
Y-173559D01*
Y-173273D01*
X774563D01*
Y-172986D01*
Y-172700D01*
Y-172414D01*
Y-172127D01*
Y-171841D01*
Y-171555D01*
Y-171269D01*
X774849D01*
Y-170982D01*
Y-170696D01*
Y-170410D01*
Y-170123D01*
Y-169837D01*
Y-169551D01*
X775136D01*
Y-169264D01*
Y-168978D01*
Y-168692D01*
Y-168405D01*
Y-168119D01*
Y-167833D01*
X775422D01*
Y-167547D01*
Y-167260D01*
Y-166974D01*
Y-166688D01*
Y-166401D01*
Y-166115D01*
X775708D01*
Y-165829D01*
Y-165542D01*
Y-165256D01*
Y-164970D01*
Y-164683D01*
Y-164397D01*
Y-164111D01*
X775994D01*
Y-163824D01*
Y-163538D01*
Y-163252D01*
Y-162966D01*
Y-162679D01*
Y-162393D01*
X776281D01*
Y-162107D01*
Y-161820D01*
Y-161534D01*
Y-161248D01*
Y-160961D01*
Y-160675D01*
X776567D01*
Y-160389D01*
Y-160102D01*
Y-159816D01*
Y-159530D01*
Y-159244D01*
Y-158957D01*
X776853D01*
Y-158671D01*
Y-158385D01*
Y-158098D01*
Y-157812D01*
Y-157526D01*
Y-157239D01*
Y-156953D01*
X777140D01*
Y-156667D01*
Y-156380D01*
Y-156094D01*
Y-155808D01*
Y-155521D01*
Y-155235D01*
X777426D01*
Y-154949D01*
Y-154663D01*
Y-154376D01*
Y-154090D01*
Y-153804D01*
Y-153517D01*
X777712D01*
Y-153231D01*
Y-152945D01*
Y-152658D01*
Y-152372D01*
Y-152086D01*
Y-151799D01*
Y-151513D01*
X777999D01*
Y-151227D01*
Y-150940D01*
Y-150654D01*
Y-150368D01*
Y-150082D01*
Y-149795D01*
X778285D01*
Y-149509D01*
Y-149223D01*
Y-148936D01*
Y-148650D01*
Y-148364D01*
Y-148077D01*
X778571D01*
Y-147791D01*
Y-147505D01*
Y-147218D01*
Y-146932D01*
Y-146646D01*
Y-146359D01*
X778858D01*
Y-146073D01*
Y-145787D01*
Y-145501D01*
Y-145214D01*
Y-144928D01*
Y-144641D01*
Y-144355D01*
X779144D01*
Y-144069D01*
Y-143783D01*
Y-143496D01*
Y-143210D01*
Y-142924D01*
Y-142637D01*
X779430D01*
Y-142351D01*
Y-142065D01*
Y-141778D01*
Y-141492D01*
Y-141206D01*
Y-140919D01*
X779716D01*
Y-140633D01*
Y-140347D01*
Y-140060D01*
Y-139774D01*
Y-139488D01*
Y-139202D01*
Y-138915D01*
X780003D01*
Y-138629D01*
Y-138343D01*
Y-138056D01*
X793173D01*
Y-138343D01*
D02*
G37*
%LPC*%
G36*
X757670Y-152658D02*
X749654D01*
Y-152945D01*
Y-153231D01*
Y-153517D01*
Y-153804D01*
Y-154090D01*
X749367D01*
Y-154376D01*
Y-154663D01*
Y-154949D01*
Y-155235D01*
Y-155521D01*
Y-155808D01*
X749081D01*
Y-156094D01*
Y-156380D01*
Y-156667D01*
Y-156953D01*
Y-157239D01*
Y-157526D01*
X748795D01*
Y-157812D01*
Y-158098D01*
Y-158385D01*
Y-158671D01*
Y-158957D01*
Y-159244D01*
X748508D01*
Y-159530D01*
Y-159816D01*
Y-160102D01*
Y-160389D01*
Y-160675D01*
Y-160961D01*
Y-161248D01*
X748222D01*
Y-161534D01*
Y-161820D01*
Y-162107D01*
Y-162393D01*
Y-162679D01*
Y-162966D01*
X747936D01*
Y-163252D01*
Y-163538D01*
Y-163824D01*
X755094D01*
Y-163538D01*
X756239D01*
Y-163252D01*
X756812D01*
Y-162966D01*
X757098D01*
Y-162679D01*
X757384D01*
Y-162393D01*
X757670D01*
Y-162107D01*
X757957D01*
Y-161820D01*
Y-161534D01*
X758243D01*
Y-161248D01*
Y-160961D01*
X758529D01*
Y-160675D01*
Y-160389D01*
X758816D01*
Y-160102D01*
Y-159816D01*
Y-159530D01*
Y-159244D01*
X759102D01*
Y-158957D01*
Y-158671D01*
Y-158385D01*
Y-158098D01*
Y-157812D01*
X759388D01*
Y-157526D01*
Y-157239D01*
Y-156953D01*
Y-156667D01*
Y-156380D01*
Y-156094D01*
Y-155808D01*
Y-155521D01*
Y-155235D01*
Y-154949D01*
Y-154663D01*
X759102D01*
Y-154376D01*
Y-154090D01*
X758816D01*
Y-153804D01*
Y-153517D01*
X758529D01*
Y-153231D01*
X758243D01*
Y-152945D01*
X757670D01*
Y-152658D01*
D02*
G37*
%LPD*%
D10*
X244301Y65354D02*
G03*
X244892Y65945I0J591D01*
G01*
X236221Y68539D02*
G03*
X234681Y70079I-1540J0D01*
G01*
X236221Y66929D02*
G03*
X237795Y65354I1575J0D01*
G01*
X231299Y71063D02*
G03*
X232283Y70079I984J0D01*
G01*
X117224Y198914D02*
G03*
X123784Y192354I6560J0D01*
G01*
X129528Y188977D02*
G03*
X128544Y189961I-984J0D01*
G01*
X117126Y187008D02*
G03*
X121063Y183071I3937J0D01*
G01*
X105315Y187147D02*
G03*
X126123Y166339I20808J0D01*
G01*
X197283Y174764D02*
G03*
X212871Y168307I15588J15588D01*
G01*
X198353Y177631D02*
G03*
X213734Y171260I15381J15381D01*
G01*
X199247Y180674D02*
G03*
X214847Y174213I15600J15600D01*
G01*
X232283Y165008D02*
G03*
X223078Y174213I-9205J0D01*
G01*
X223220Y163686D02*
G03*
X215647Y171260I-7574J0D01*
G01*
X218220Y165638D02*
G03*
X215551Y168307I-2669J0D01*
G01*
X190497Y189425D02*
G03*
X183425Y192354I-7071J-7071D01*
G01*
X193874Y182110D02*
G03*
X186803Y185039I-7071J-7071D01*
G01*
X192890Y179158D02*
G03*
X185819Y182087I-7071J-7071D01*
G01*
X137229Y187968D02*
G03*
X144300Y185039I7071J7071D01*
G01*
X203221Y162402D02*
G03*
X202157Y164969I-3631J0D01*
G01*
X190921Y176205D02*
G03*
X183850Y179134I-7071J-7071D01*
G01*
X198221Y162402D02*
G03*
X196405Y166784I-6197J0D01*
G01*
X189937Y173252D02*
G03*
X182866Y176181I-7071J-7071D01*
G01*
X108268Y186908D02*
G03*
X122932Y172244I14664J0D01*
G01*
X144300Y170276D02*
G03*
X137229Y167347I0J-10000D01*
G01*
X177215Y120029D02*
G03*
X176009Y120529I-1206J-1206D01*
G01*
X169545D02*
G03*
X167323Y118307I0J-2222D01*
G01*
X177601Y119643D02*
G03*
X181303Y118110I3703J3704D01*
G01*
X217315Y144685D02*
G03*
X224409Y147638I0J10000D01*
G01*
X229528Y154816D02*
G03*
X228221Y156772I-5571J-2307D01*
G01*
X228937Y140748D02*
G03*
X229528Y142174I-1427J1426D01*
G01*
X103923Y59463D02*
G03*
X107283Y58071I3360J3360D01*
G01*
X115167Y56234D02*
G03*
X113189Y51458I4776J-4776D01*
G01*
X227425Y121827D02*
G03*
X234496Y118898I7071J7071D01*
G01*
X234469Y124783D02*
G03*
X239173Y122835I4705J4705D01*
G01*
X186762Y78789D02*
G03*
X185433Y75582I3208J-3208D01*
G01*
Y64182D02*
G03*
X186762Y60974I4537J0D01*
G01*
X186000Y93480D02*
G03*
X182283Y84508I8972J-8972D01*
G01*
X180142Y67740D02*
G03*
X182283Y72910I-5170J5170D01*
G01*
X252756Y79134D02*
G03*
X254724Y81102I0J1969D01*
G01*
X249674Y80247D02*
G03*
X252362Y79134I2688J2688D01*
G01*
X249606Y80315D02*
G03*
X246280Y81693I-3327J-3327D01*
G01*
X254724Y92666D02*
G03*
X251624Y99126I-8279J-0D01*
G01*
X249789Y69882D02*
G03*
X257678Y77770I0J7888D01*
G01*
X218299Y147638D02*
G03*
X223220Y152559I0J4921D01*
G01*
X205369Y147638D02*
G03*
X199803Y142072I0J-5566D01*
G01*
X205709Y150591D02*
G03*
X196850Y141732I0J-8858D01*
G01*
X216516Y150591D02*
G03*
X218220Y152295I0J1704D01*
G01*
X206693Y144685D02*
G03*
X202756Y140748I0J-3937D01*
G01*
X199827Y107307D02*
G03*
X202756Y114378I-7071J7071D01*
G01*
X235236Y171055D02*
G03*
X232307Y178126I-10000J0D01*
G01*
X175551Y85984D02*
G03*
X173228Y80376I5608J-5608D01*
G01*
X193634Y107835D02*
G03*
X196850Y115601I-7766J7766D01*
G01*
X195967Y106400D02*
G03*
X199803Y115662I-9262J9262D01*
G01*
X173205Y87406D02*
G03*
X170276Y80335I7071J-7071D01*
G01*
X216572Y50673D02*
G03*
X214470Y48571I0J-2102D01*
G01*
X192352Y75315D02*
G03*
X191204Y78087I-3921J0D01*
G01*
X193708Y72040D02*
G03*
X193709Y72039I3278J3275D01*
G01*
X192352Y75315D02*
G03*
X193708Y72040I4634J0D01*
G01*
X178552Y76463D02*
G03*
X176181Y70982I5150J-5481D01*
G01*
X185690Y113031D02*
G03*
X193898Y121239I0J8207D01*
G01*
X188922Y118110D02*
G03*
X191929Y121117I0J3007D01*
G01*
X192276Y7874D02*
G03*
X198819Y14417I0J6543D01*
G01*
X167323Y19624D02*
G03*
X179073Y7874I11750J0D01*
G01*
X226870Y243004D02*
G03*
X226378Y246102I-10000J0D01*
G01*
D02*
G03*
X223941Y250075I-9508J-3098D01*
G01*
X226870Y227670D02*
G03*
X227362Y225597I4611J0D01*
G01*
X228221Y186355D02*
G03*
X231149Y179284I10000J0D01*
G01*
X227362Y225597D02*
G03*
X228221Y224410I4118J2073D01*
G01*
X210811Y28528D02*
G03*
X213740Y35599I-7071J7071D01*
G01*
X204724Y23622D02*
G03*
X202946Y22885I0J-2516D01*
G01*
X200509Y20448D02*
G03*
X198819Y16368I4080J-4080D01*
G01*
X191929Y139016D02*
G03*
X181929Y149016I-10000J0D01*
G01*
X176181Y39831D02*
G03*
X179791Y36220I3610J0D01*
G01*
X214018Y41339D02*
G03*
X217914Y45234I0J3896D01*
G01*
X213000Y41339D02*
G03*
X205929Y38410I0J-10000D01*
G01*
X193740Y36220D02*
G03*
X196456Y42778I-6558J6558D01*
G01*
X199779Y32260D02*
G03*
X196850Y25189I7071J-7071D01*
G01*
X190945Y15748D02*
G03*
X196850Y21654I0J5906D01*
G01*
X189961Y18701D02*
G03*
X193898Y22638I0J3937D01*
G01*
X173228Y26575D02*
G03*
X181102Y18701I7874J0D01*
G01*
X170276Y26732D02*
G03*
X181260Y15748I10984J0D01*
G01*
X212543Y43307D02*
G03*
X214470Y45234I0J1927D01*
G01*
X220891Y44267D02*
G03*
X227962Y41338I7071J7071D01*
G01*
X197464Y46236D02*
G03*
X204535Y43307I7071J7071D01*
G01*
X123130Y234252D02*
G03*
X117224Y228346I0J-5906D01*
G01*
X150433Y234252D02*
G03*
X159449Y243268I0J9016D01*
G01*
X137598Y147638D02*
G03*
X139764Y149803I0J2165D01*
G01*
X138779Y125000D02*
G03*
X142717Y128937I0J3937D01*
G01*
X148622Y164370D02*
G03*
X142717Y158465I0J-5906D01*
G01*
X168220Y161957D02*
G03*
X165807Y164370I-2413J0D01*
G01*
X148622Y167323D02*
G03*
X139764Y158465I0J-8858D01*
G01*
X178220Y163315D02*
G03*
X174213Y167323I-4008J-0D01*
G01*
X58445Y246654D02*
G03*
X65386Y239712I6941J0D01*
G01*
X105315Y230315D02*
G03*
X95918Y239712I-9397J0D01*
G01*
X87008Y254922D02*
G03*
X87721Y254626I713J713D01*
G01*
X70280Y258858D02*
G03*
X68445Y257023I0J-1836D01*
G01*
X67913Y261811D02*
G03*
X63445Y257343I0J-4468D01*
G01*
X114173Y187008D02*
G03*
X122047Y179134I7874J0D01*
G01*
X114173Y245905D02*
G03*
X98268Y261811I-15905J0D01*
G01*
X111221Y187008D02*
G03*
X122047Y176181I10827J0D01*
G01*
X111221Y245905D02*
G03*
X98268Y258858I-12953J0D01*
G01*
X188221Y165126D02*
G03*
X180118Y173228I-8102J0D01*
G01*
X108268Y244626D02*
G03*
X98268Y254626I-10000J0D01*
G01*
X183221Y165205D02*
G03*
X178150Y170276I-5071J0D01*
G01*
X159449Y249322D02*
G03*
X156520Y256394I-10000J0D01*
G01*
X148670Y207677D02*
G03*
X141599Y204748I0J-10000D01*
G01*
X213221Y207677D02*
G03*
X223220Y217677I0J10000D01*
G01*
X209646Y210630D02*
G03*
X218220Y219205I0J8575D01*
G01*
X207677Y213583D02*
G03*
X213221Y219126I0J5543D01*
G01*
X205709Y216535D02*
G03*
X208221Y219047I0J2512D01*
G01*
X207799Y230587D02*
G03*
X207213Y231370I-3019J-1650D01*
G01*
X208221Y228937D02*
G03*
X207799Y230587I-3441J0D01*
G01*
X204882Y248031D02*
G03*
X201959Y240976I7055J-7055D01*
G01*
X199803Y249705D02*
G03*
X197395Y255518I-8222J0D01*
G01*
X199114Y243307D02*
G03*
X198221Y241150I2158J-2158D01*
G01*
X199114Y243307D02*
G03*
X199803Y244970I-1663J1663D01*
G01*
X194045Y233415D02*
G03*
X194882Y235435I-2020J2020D01*
G01*
X194045Y233415D02*
G03*
X193220Y231424I1991J-1991D01*
G01*
X184005Y235186D02*
G03*
X183221Y233291I1898J-1895D01*
G01*
X184006Y235187D02*
G03*
X184882Y237302I-2115J2115D01*
G01*
X184006Y235187D02*
G03*
X184005Y235186I1896J-1896D01*
G01*
X189124Y238337D02*
G03*
X189961Y240356I-2020J2020D01*
G01*
X189124Y238337D02*
G03*
X188221Y236155I2181J-2181D01*
G01*
X189961Y248811D02*
G03*
X187032Y255882I-10000J0D01*
G01*
X180118Y248653D02*
G03*
X177189Y255724I-10000J0D01*
G01*
X179280Y238336D02*
G03*
X178220Y235775I2562J-2561D01*
G01*
X179281Y238337D02*
G03*
X180118Y240356I-2020J2020D01*
G01*
X173967Y234990D02*
G03*
X173228Y233208I1782J-1782D01*
G01*
X173967Y234990D02*
G03*
X174882Y237200I-2210J2210D01*
G01*
X166157Y238992D02*
G03*
X163228Y231921I7071J-7071D01*
G01*
X167347Y240181D02*
G03*
X170276Y247252I-7071J7071D01*
G01*
Y248496D02*
G03*
X167347Y255567I-10000J0D01*
G01*
X141155Y210630D02*
G03*
X134882Y208032I0J-8872D01*
G01*
X143471Y213583D02*
G03*
X143473Y213583I2J10000D01*
G01*
X136402Y216512D02*
G03*
X143471Y213583I7071J7071D01*
G01*
X150515Y216535D02*
G03*
X150520Y216535I5J10000D01*
G01*
X143449Y219464D02*
G03*
X150515Y216535I7071J7071D01*
G01*
X237795Y65354D02*
X244301D01*
X236221Y66929D02*
Y68539D01*
X231299Y71063D02*
Y73032D01*
X232283Y70079D02*
X234681D01*
X123784Y192354D02*
X183425D01*
X117224Y198914D02*
Y228346D01*
X121063Y189961D02*
X128544D01*
X108268D02*
Y244626D01*
Y186908D02*
Y189961D01*
X105315Y187147D02*
Y230315D01*
X121063Y183071D02*
X129528D01*
X192890Y179158D02*
X197284Y174764D01*
X212871Y168307D02*
X215551D01*
X213734Y171260D02*
X215647D01*
X193874Y182110D02*
X198353Y177631D01*
X214847Y174213D02*
X223078D01*
X190497Y189425D02*
X199247Y180674D01*
X232283Y158417D02*
Y165008D01*
X223220Y157480D02*
Y163686D01*
X218220Y157480D02*
Y165638D01*
X144300Y185039D02*
X186803D01*
X137205Y182087D02*
X185819D01*
X136221Y188977D02*
X137229Y187968D01*
X136221Y183071D02*
X137205Y182087D01*
X203221Y157480D02*
Y162402D01*
X190921Y176205D02*
X202157Y164969D01*
X122047Y179134D02*
X180118Y179134D01*
X183850D01*
X198221Y157480D02*
Y162402D01*
X189937Y173252D02*
X196405Y166784D01*
X176181Y176181D02*
X182866D01*
X122047Y176181D02*
X176181Y176181D01*
X122932Y172244D02*
X129528D01*
X126123Y166339D02*
X129528D01*
X136628Y173228D02*
X180118D01*
X136221Y172244D02*
X136628Y173228D01*
X144300Y170276D02*
X178150D01*
X136221Y166339D02*
X137229Y167347D01*
X180118Y113031D02*
X185690D01*
X177215Y120029D02*
X177601Y119643D01*
X169545Y120529D02*
X176009D01*
X167323Y80709D02*
Y118307D01*
X181303Y118110D02*
X188922D01*
X215945Y140748D02*
X217362Y139331D01*
X224409Y147638D02*
X227165Y150394D01*
X206693Y144685D02*
X217315D01*
X229528Y142174D02*
Y154816D01*
X228221Y156772D02*
Y157480D01*
X227362Y139173D02*
X228937Y140748D01*
X107283Y58071D02*
X117005D01*
X101575Y61811D02*
X103923Y59463D01*
X117005Y58071D02*
X118898D01*
X113189Y45866D02*
Y51458D01*
X115167Y56234D02*
X117005Y58071D01*
X217362Y131890D02*
X227425Y121827D01*
X234496Y118898D02*
X247933D01*
X239173Y122835D02*
X247933D01*
X227362Y131890D02*
X234469Y124783D01*
X185433Y64182D02*
Y75582D01*
X182283Y72910D02*
Y84508D01*
X254724Y81102D02*
Y92666D01*
X249606Y80315D02*
X249674Y80247D01*
X252362Y79134D02*
X252756D01*
X244892Y81693D02*
X246280D01*
X251378Y99212D02*
X251624Y99126D01*
X257678Y77770D02*
Y99213D01*
X244892Y69882D02*
X249789D01*
X235236Y166339D02*
Y171055D01*
X205369Y147638D02*
X218299D01*
X205709Y150591D02*
X216516D01*
X202756Y114378D02*
Y140748D01*
X186000Y93480D02*
X199827Y107307D01*
X179331Y66929D02*
X180142Y67740D01*
X232283Y158417D02*
X233221Y157480D01*
X231149Y179284D02*
X232307Y178126D01*
X175551Y85984D02*
X195967Y106400D01*
X173228Y26575D02*
Y80376D01*
X173205Y87406D02*
X193634Y107835D01*
X196850Y115601D02*
Y141732D01*
X199803Y115662D02*
Y142072D01*
X170276Y26732D02*
Y80335D01*
X216572Y50673D02*
X243095D01*
X243095Y50673D02*
X243701Y49212D01*
X243095Y50673D02*
X243095Y50673D01*
X214470Y45234D02*
Y48571D01*
X193709Y72039D02*
X195413Y70335D01*
X188484Y80512D02*
X188779D01*
X191204Y78087D01*
X186762Y78789D02*
X188484Y80512D01*
X186762Y60974D02*
X188484Y59252D01*
X176181Y39831D02*
Y70982D01*
X178552Y76463D02*
X179331Y76772D01*
X193898Y121239D02*
Y156803D01*
X191929Y121117D02*
Y139016D01*
X218220Y152295D02*
Y157480D01*
X223220Y152559D02*
Y157480D01*
X167323Y19624D02*
Y66929D01*
X179073Y7874D02*
X192276D01*
X198819Y14417D02*
Y16368D01*
X226870Y227670D02*
Y243004D01*
X222441Y251574D02*
X223941Y250075D01*
X228221Y186355D02*
Y224410D01*
X205906Y23622D02*
X210811Y28528D01*
X204724Y23622D02*
X205906D01*
X200509Y20448D02*
X202946Y22885D01*
X179791Y36220D02*
X183740D01*
X173228Y149016D02*
X181929D01*
X213000Y41339D02*
X214018D01*
X199779Y32260D02*
X203740Y36220D01*
X205929Y38410D01*
X193740Y36220D02*
X193898Y36063D01*
X196456Y42778D02*
Y47244D01*
X213740Y35599D02*
Y36220D01*
X196850Y21654D02*
Y25189D01*
X181260Y15748D02*
X190945D01*
X181102Y18701D02*
X189961D01*
X193898Y22638D02*
Y36063D01*
X183740Y26083D02*
Y36220D01*
X193220Y157480D02*
X193898Y156803D01*
X204535Y43307D02*
X212543D01*
X217914Y45234D02*
Y47244D01*
X220891Y44267D01*
X227962Y41338D02*
X243701D01*
X196456Y47244D02*
X197464Y46236D01*
X123130Y234252D02*
X150433D01*
X135236Y147638D02*
X137598D01*
X139764Y149803D02*
Y158465D01*
X135236Y125000D02*
X138779D01*
X142717Y128937D02*
Y158465D01*
X148622Y164370D02*
X165807D01*
X168220Y157480D02*
Y161957D01*
X148622Y167323D02*
X174213D01*
X178220Y157480D02*
Y163315D01*
X58445Y246654D02*
Y252559D01*
X65386Y239712D02*
X95918D01*
X87721Y254626D02*
X98268D01*
X83661Y251969D02*
X87008Y254922D01*
X80315Y249016D02*
X83661Y251969D01*
X70280Y258858D02*
X98268D01*
X68445Y252559D02*
Y257023D01*
X67913Y261811D02*
X98268D01*
X63445Y252559D02*
Y257343D01*
X114173Y187008D02*
Y245905D01*
X111221Y187008D02*
Y245905D01*
X188221Y157480D02*
Y165126D01*
X183221Y157480D02*
Y165205D01*
X159449Y243268D02*
Y249322D01*
X154882Y258032D02*
X156520Y256394D01*
X134882Y198031D02*
X141599Y204748D01*
X148670Y207677D02*
X213221D01*
X223220Y217677D02*
Y224410D01*
X159547Y210630D02*
X209646Y210630D01*
X218220Y224410D02*
Y232173D01*
Y219205D02*
Y224410D01*
X148031Y213583D02*
X207677Y213583D01*
X213221Y224410D02*
Y231268D01*
Y219126D02*
Y224410D01*
X157874Y216535D02*
X205709Y216535D01*
X208221Y224410D02*
Y228937D01*
Y219047D02*
Y224410D01*
X205709Y232874D02*
X207213Y231370D01*
X201959Y225671D02*
Y240976D01*
X194882Y258032D02*
X197395Y255518D01*
X199803Y244970D02*
Y249705D01*
X198221Y224410D02*
Y241150D01*
X193220Y224410D02*
Y231424D01*
X194882Y235435D02*
Y248031D01*
X184882Y237302D02*
Y248031D01*
X183221Y224410D02*
Y233291D01*
X188221Y224410D02*
Y236155D01*
X189961Y240356D02*
Y248811D01*
X184882Y258032D02*
X187032Y255882D01*
X174882Y258032D02*
X177189Y255724D01*
X180118Y240356D02*
Y248653D01*
X179280Y238336D02*
X179281Y238337D01*
X178220Y224410D02*
Y235775D01*
X174882Y237200D02*
Y248031D01*
X173228Y224417D02*
Y233208D01*
X163228Y224410D02*
Y231921D01*
X166157Y238992D02*
X167347Y240181D01*
X170276Y247252D02*
Y248496D01*
X164882Y258032D02*
X167347Y255567D01*
X141155Y210630D02*
X159547D01*
X143473Y213583D02*
X148031D01*
X134882Y218032D02*
X136402Y216512D01*
X150520Y216535D02*
X157874D01*
X134882Y228031D02*
X143449Y219464D01*
X211614Y232874D02*
X213221Y231268D01*
X217520Y232874D02*
X218220Y232173D01*
X223220Y224410D02*
Y232669D01*
X223426Y232874D01*
X173221Y149024D02*
Y157480D01*
Y149024D02*
X173228Y149016D01*
X163228Y149173D02*
Y157480D01*
Y149173D02*
X163385Y149016D01*
X217362Y131890D02*
Y139331D01*
X227362Y131890D02*
Y139173D01*
X188484Y59252D02*
X188779D01*
X195413Y70335D02*
X198228D01*
X188779Y66732D02*
Y73032D01*
X188779Y66732D02*
X188779Y66732D01*
X189075Y66732D02*
X190472Y65335D01*
X198228D01*
X188779Y66732D02*
X189075D01*
X183740Y26083D02*
X186201Y23622D01*
X187008D01*
X250393Y41338D02*
X256693D01*
X256693Y41339D01*
X100984Y62402D02*
X101575Y61811D01*
X100394Y62992D02*
X100984Y62402D01*
X100394Y62992D02*
Y70571D01*
X94488Y62402D02*
X100984D01*
X87008Y243110D02*
X87008Y243111D01*
Y249016D01*
X73819Y254922D02*
X80315D01*
X73445Y254547D02*
X73819Y254922D01*
X73445Y252559D02*
Y254547D01*
X216536Y251574D02*
X222441D01*
X173221Y224410D02*
X173228Y224417D01*
X201959Y225671D02*
X203221Y224410D01*
X269685Y6890D02*
X309055D01*
Y258858D01*
X269685D02*
X309055D01*
D11*
X264370Y93212D02*
G03*
X264951Y91811I1982J0D01*
G01*
X233366Y86910D02*
G03*
X231299Y84842I0J-2067D01*
G01*
X212598Y133260D02*
G03*
X209669Y140331I-10000J0D01*
G01*
X188984Y136476D02*
G03*
X183160Y142323I-5824J23D01*
G01*
X221172Y142913D02*
G03*
X215945Y140748I0J-7392D01*
G01*
X228937Y250171D02*
G03*
X227805Y252903I-3863J-0D01*
G01*
X141535Y85827D02*
G03*
X139764Y87598I-1772J0D01*
G01*
X135827D02*
G03*
X134055Y85827I0J-1772D01*
G01*
X137795Y82973D02*
G03*
X140510Y76419I9269J0D01*
G01*
X241549Y71850D02*
G03*
X239173Y70866I0J-3360D01*
G01*
X235974Y80065D02*
G03*
X239173Y78740I3199J3199D01*
G01*
Y78740D02*
G03*
X239591Y77732I1426J0D01*
G01*
X240551Y76772D02*
G03*
X242927Y75787I2376J2376D01*
G01*
X234274Y80632D02*
G03*
X235039Y82480I-1848J1848D01*
G01*
D02*
G03*
X235699Y80340I3802J0D01*
G01*
X248796Y73819D02*
G03*
X249789Y74812I0J993D01*
G01*
Y76772D02*
G03*
X248805Y77756I-984J0D01*
G01*
X239305Y75512D02*
G03*
X243393Y73819I4087J4087D01*
G01*
X149606Y10450D02*
G03*
X158088Y1969I8481J0D01*
G01*
X147638Y100189D02*
G03*
X144709Y107260I-10000J0D01*
G01*
X254961Y1969D02*
G03*
X264961Y11969I0J10000D01*
G01*
X137638Y64961D02*
G03*
X147638Y74961I0J10000D01*
G01*
X130905Y64961D02*
G03*
X126969Y61024I0J-3937D01*
G01*
X123031Y51181D02*
G03*
X126969Y55118I0J3937D01*
G01*
X149606Y29370D02*
G03*
X139606Y39370I-10000J0D01*
G01*
X121063Y51181D02*
G03*
X117126Y47244I0J-3937D01*
G01*
X118975Y41458D02*
G03*
X124016Y39370I5041J5041D01*
G01*
X117126Y44699D02*
G03*
X118110Y42323I3360J0D01*
G01*
X253360Y123608D02*
G03*
X250000Y126969I-3360J0D01*
G01*
X239354Y129897D02*
G03*
X246426Y126969I7071J7071D01*
G01*
X249016Y102362D02*
G03*
X253360Y106707I0J4345D01*
G01*
X222441Y258267D02*
G03*
X222093Y259107I-1188J0D01*
G01*
X219783Y261417D02*
G03*
X217645Y262303I-2139J-2139D01*
G01*
X209669Y113213D02*
G03*
X212598Y120284I-7071J7071D01*
G01*
X213607Y105291D02*
G03*
X220678Y102362I7071J7071D01*
G01*
X213296Y262303D02*
G03*
X206225Y259374I0J-10000D01*
G01*
X210630Y248400D02*
G03*
X207884Y255030I-9376J0D01*
G01*
X152141Y144464D02*
G03*
X149213Y137393I7071J-7071D01*
G01*
X146284Y111244D02*
G03*
X149213Y118315I-7071J7071D01*
G01*
X186631Y90174D02*
G03*
X183702Y83103I7071J-7071D01*
G01*
X195886Y55335D02*
G03*
X192520Y51968I0J-3366D01*
G01*
X191267Y48943D02*
G03*
X192520Y51968I-3025J3025D01*
G01*
X187796Y45472D02*
G03*
X188583Y46259I0J787D01*
G01*
X134449Y99409D02*
G03*
X134055Y98459I950J-950D01*
G01*
X180315Y59842D02*
G03*
X183702Y63230I0J3387D01*
G01*
X179528Y59842D02*
G03*
X177559Y57874I0J-1969D01*
G01*
Y51181D02*
G03*
X178533Y48829I3327J0D01*
G01*
X126575Y140747D02*
G03*
X126608Y140492I984J0D01*
G01*
X126575Y118110D02*
G03*
X127559Y117126I984J0D01*
G01*
X224410Y53543D02*
G03*
X220085Y55335I-4325J-4325D01*
G01*
X234055Y60039D02*
G03*
X233383Y59761I0J-950D01*
G01*
X234727D02*
G03*
X234055Y60039I-672J-672D01*
G01*
X236014Y75384D02*
G03*
X235039Y73032I2352J-2352D01*
G01*
X236419Y75789D02*
G03*
X236417Y75787I945J-948D01*
G01*
X237364Y76179D02*
G03*
X236419Y75789I0J-1338D01*
G01*
X239305Y75512D02*
G03*
X237694Y76179I-1612J-1612D01*
G01*
X233757Y75396D02*
G03*
X230199Y76870I-3559J-3559D01*
G01*
X233708Y80066D02*
G03*
X233711Y80069I-3443J3448D01*
G01*
X230265Y78642D02*
G03*
X233708Y80066I0J4873D01*
G01*
X235039Y73032D02*
G03*
X234274Y74880I-2614J0D01*
G01*
X223398Y76870D02*
G03*
X221260Y75984I0J-3024D01*
G01*
X219692Y75335D02*
G03*
X221260Y75984I0J2218D01*
G01*
X221213Y79528D02*
G03*
X219265Y80335I-1949J-1949D01*
G01*
X221213Y79528D02*
G03*
X223352Y78642I2139J2139D01*
G01*
X212549Y59006D02*
G03*
X211221Y55799I3207J-3207D01*
G01*
X207606Y58964D02*
G03*
X204724Y52008I6956J-6956D01*
G01*
X68445Y229784D02*
G03*
X70866Y227362I2421J0D01*
G01*
X75235Y225553D02*
G03*
X70866Y227362I-4369J-4369D01*
G01*
X77386Y199118D02*
G03*
X80315Y206189I-7071J7071D01*
G01*
X59182Y227362D02*
G03*
X63445Y231625I0J4263D01*
G01*
X51181Y227362D02*
G03*
X49213Y225394I0J-1969D01*
G01*
Y206898D02*
G03*
X52141Y199827I10000J0D01*
G01*
X127559Y132874D02*
G03*
X127088Y132679I0J-665D01*
G01*
X126575Y150197D02*
G03*
X130607Y151867I-0J5703D01*
G01*
X126575Y127559D02*
G03*
X130607Y129229I0J5703D01*
G01*
X134252Y139763D02*
G03*
X135236Y140748I0J985D01*
G01*
X131890Y146653D02*
G03*
X133465Y145079I1575J0D01*
G01*
X133465Y150197D02*
G03*
X131890Y148622I0J-1575D01*
G01*
X134252Y117126D02*
G03*
X135236Y118110I0J985D01*
G01*
X131890Y124016D02*
G03*
X133465Y122441I1575J0D01*
G01*
X133465Y127559D02*
G03*
X131890Y125984I0J-1575D01*
G01*
X237598Y234252D02*
G03*
X237992Y235203I-951J951D01*
G01*
X237900Y242415D02*
G03*
X236221Y243110I-1680J-1681D01*
G01*
X237901Y242414D02*
G03*
X237900Y242415I-1680J-1680D01*
G01*
X237565Y242553D02*
G03*
X236221Y243110I-1344J-1344D01*
G01*
X238221Y232749D02*
G03*
X237598Y234252I-2125J0D01*
G01*
X244892Y65945D02*
X245377Y65692D01*
X246257Y65231D02*
X246775Y64960D01*
X245377Y65692D02*
X246257Y65231D01*
X168220Y218811D02*
Y224410D01*
X168209Y218799D02*
X168220Y218811D01*
X181890Y52952D02*
Y52953D01*
Y52952D02*
X188583D01*
X120079Y70571D02*
X125000D01*
X173228Y123031D02*
X180118D01*
X246063Y107874D02*
Y111024D01*
X247933D01*
X246063Y91811D02*
Y99212D01*
Y91811D02*
X248494D01*
X244685Y99212D02*
X246063D01*
X264370Y93212D02*
Y99213D01*
X245229Y84737D02*
X248031Y83858D01*
X244892Y84842D02*
X245229Y84737D01*
X233366Y86910D02*
X244892D01*
X231299Y84842D02*
X231299D01*
X231299Y82480D02*
Y84842D01*
X188976Y132284D02*
X188978Y133031D01*
X149213Y128032D02*
X175118D01*
X149213D02*
Y137393D01*
Y118315D02*
Y128032D01*
X188978Y133031D02*
X188984Y136476D01*
X175118Y128032D02*
X180118Y133031D01*
X221172Y142913D02*
X221654D01*
X237362Y131890D02*
X239354Y129897D01*
X237246Y132006D02*
Y140748D01*
X232283Y242126D02*
Y247410D01*
X228937D02*
Y250171D01*
Y242126D02*
Y247410D01*
Y242126D02*
X230512D01*
X222441Y258267D02*
X227805Y252903D01*
X230512Y242126D02*
X232283D01*
X230512D02*
X230905Y241733D01*
X141535Y82973D02*
Y85827D01*
X135827Y87598D02*
X139764D01*
X134055Y82973D02*
Y85827D01*
X140510Y76419D02*
X141141Y75787D01*
X239591Y77732D02*
X240551Y76772D01*
X241549Y71850D02*
X244892D01*
X240551Y76772D02*
X240551D01*
X235699Y80340D02*
X235974Y80065D01*
X235699Y80340D02*
X235699Y80340D01*
X244892Y73819D02*
X248796D01*
X249789Y74812D02*
Y76772D01*
X244892Y77756D02*
X248805D01*
X243393Y73819D02*
X244892D01*
X158088Y1969D02*
X254961D01*
X149606Y10450D02*
Y29370D01*
X143504Y108465D02*
X144709Y107260D01*
X143504Y108465D02*
X146284Y111244D01*
X134449Y99409D02*
X143504Y108465D01*
X130905Y64961D02*
X137638D01*
X126969Y55118D02*
Y61024D01*
X121063Y51181D02*
X123031D01*
X117126Y44699D02*
Y47244D01*
X124016Y39370D02*
X139606D01*
X118110Y42323D02*
X118975Y41458D01*
X147638Y74961D02*
Y100189D01*
X264961Y11969D02*
Y33465D01*
X253360Y114961D02*
Y123608D01*
X246426Y126969D02*
X250000D01*
X220678Y102362D02*
X249016D01*
X219783Y261417D02*
X222093Y259107D01*
X213296Y262303D02*
X217645D01*
X210630Y239567D02*
Y248400D01*
X209252Y140748D02*
X209669Y140331D01*
X212598Y120284D02*
Y133260D01*
X211614Y239567D02*
X217520D01*
X210630D02*
X211614D01*
X205709D02*
X210630D01*
X204882Y258032D02*
X206225Y259374D01*
X183160Y142323D02*
X183160D01*
X173228D02*
X183160D01*
X152141Y144464D02*
X156496Y148819D01*
X207677Y111221D02*
X213607Y105291D01*
X207677Y111221D02*
X209669Y113213D01*
X195886Y55335D02*
X198228D01*
X186631Y90174D02*
X207677Y111221D01*
X188583Y46259D02*
X191267Y48943D01*
X181890Y45472D02*
X187796D01*
X134055Y92224D02*
Y98459D01*
X183702Y63230D02*
Y83103D01*
X179528Y59842D02*
X180315D01*
X178533Y48829D02*
X181890Y45472D01*
X177559Y51181D02*
Y57874D01*
X126575Y140747D02*
Y145079D01*
X126575Y118110D02*
Y122441D01*
X253360Y106707D02*
Y114961D01*
X247933D02*
X253360D01*
X235630Y140748D02*
X237246D01*
Y132006D02*
X237362Y131890D01*
X180118Y133031D02*
X188666D01*
X188666Y133031D02*
X188976Y132284D01*
X188666Y133031D02*
X188666Y133031D01*
X156496Y140551D02*
X157283Y141339D01*
X162598D01*
X163385Y142126D01*
X217126Y55335D02*
X220085D01*
X159449Y11811D02*
X165354D01*
X226378D02*
X232283D01*
X204724D02*
X210630D01*
X181102D02*
X187008D01*
X181102Y11811D02*
X181102Y11811D01*
X213976Y65335D02*
X217126D01*
X207606Y58964D02*
X213976Y65335D01*
X234727Y59761D02*
X235827Y58661D01*
X232283D02*
X233383Y59761D01*
X235827Y54724D02*
Y58661D01*
X232283Y54724D02*
Y58661D01*
X237364Y76179D02*
X237694D01*
X236014Y75384D02*
X236417Y75787D01*
X233757Y75396D02*
X234274Y74880D01*
X223398Y76870D02*
X230199D01*
X233711Y80069D02*
X234274Y80632D01*
X223352Y78642D02*
X230265D01*
X217126Y75335D02*
X219692D01*
X217126Y80335D02*
X219265D01*
X242927Y75787D02*
X244892D01*
X212549Y59006D02*
X213878Y60335D01*
X211221Y47244D02*
Y55799D01*
X204724Y48720D02*
Y52008D01*
X213221Y157480D02*
Y163386D01*
X68445Y229784D02*
Y233661D01*
X75235Y225553D02*
X80315Y220472D01*
X75118Y196850D02*
X77386Y199118D01*
X80315Y206189D02*
Y220472D01*
X69291D02*
Y220472D01*
X59213D02*
X69291D01*
X51181Y227362D02*
X59182D01*
X63445Y231625D02*
Y233661D01*
X49213Y206898D02*
Y220472D01*
Y225394D01*
X52141Y199827D02*
X55118Y196850D01*
X179331Y76772D02*
Y80709D01*
X141141Y99409D02*
X145078D01*
X134252Y117126D02*
X138189D01*
X134252Y139763D02*
X138189D01*
X57087Y18110D02*
X61024D01*
X57086Y25197D02*
X61023D01*
X141141Y71850D02*
Y75787D01*
X184055Y53150D02*
Y57087D01*
X180118Y53150D02*
Y57087D01*
X179331Y62992D02*
Y66929D01*
X239763Y33464D02*
X243701D01*
X188976Y121654D02*
Y125591D01*
X241141Y107874D02*
X246063D01*
X106299Y111890D02*
X127088Y132679D01*
X106299Y151890D02*
X107244Y154528D01*
X126575D02*
X127559Y155511D01*
X107244Y154528D02*
X126575D01*
X130607Y151867D02*
X134252Y155511D01*
X130607Y129229D02*
X134252Y132874D01*
X133465Y145079D02*
X135236D01*
Y140748D02*
Y145079D01*
X131890Y146653D02*
Y148622D01*
X133465Y150197D02*
X135236D01*
X133465Y122441D02*
X135236D01*
Y118110D02*
Y122441D01*
X131890Y124016D02*
Y125984D01*
X133465Y127559D02*
X135236D01*
Y122441D02*
X139173D01*
X135236Y145079D02*
X139173D01*
X58445Y233661D02*
Y239567D01*
X87008Y231299D02*
X90945D01*
X76378Y243110D02*
X80315D01*
X237565Y242553D02*
X237992Y242126D01*
X237901Y242414D02*
X238189Y242126D01*
X237900Y242415D02*
X237901Y242414D01*
X237992Y235203D02*
Y242126D01*
X236221Y243110D02*
Y247047D01*
X238189Y242126D02*
X239173Y243110D01*
X238221Y230315D02*
Y232749D01*
X238221Y151575D02*
Y157480D01*
X238221Y224410D02*
Y230315D01*
X239173Y243110D02*
Y247047D01*
X212599Y258267D02*
X216536D01*
X230905Y234252D02*
X232283Y232873D01*
Y225346D02*
Y232873D01*
Y225346D02*
X233221Y224410D01*
X204882Y258032D02*
X207884Y255030D01*
X210630Y239567D02*
X210630Y239567D01*
X163385Y142126D02*
Y142323D01*
X241535Y114961D02*
X247933D01*
X241141Y114567D02*
X241535Y114961D01*
X203248Y47244D02*
X204724Y48720D01*
X203149Y47244D02*
X203248D01*
X213878Y60335D02*
X217126D01*
X264961Y33465D02*
Y41339D01*
Y49213D01*
X256693Y49212D02*
X256693Y49213D01*
X250393Y49212D02*
X256693D01*
X250393Y33464D02*
X256693D01*
X256693Y33465D01*
X109055Y69390D02*
X110236Y70571D01*
X109055Y61811D02*
Y69390D01*
X238221Y224410D02*
X238221D01*
X238221Y157480D02*
Y224410D01*
X230905Y234252D02*
Y241733D01*
X217520Y239567D02*
X223426D01*
X1072449Y-202012D02*
Y-194141D01*
X1076384D01*
X1077696Y-195452D01*
Y-198076D01*
X1076384Y-199388D01*
X1072449D01*
X1075072D02*
X1077696Y-202012D01*
X1084256D02*
X1081632D01*
X1080320Y-200700D01*
Y-198076D01*
X1081632Y-196764D01*
X1084256D01*
X1085568Y-198076D01*
Y-199388D01*
X1080320D01*
X1088192Y-196764D02*
X1090815Y-202012D01*
X1093439Y-196764D01*
X718118Y-233511D02*
Y-241382D01*
X722053D01*
X723365Y-240070D01*
Y-234823D01*
X722053Y-233511D01*
X718118D01*
X729925Y-241382D02*
X727301D01*
X725989Y-240070D01*
Y-237446D01*
X727301Y-236134D01*
X729925D01*
X731237Y-237446D01*
Y-238758D01*
X725989D01*
X733861Y-241382D02*
X737796D01*
X739108Y-240070D01*
X737796Y-238758D01*
X735173D01*
X733861Y-237446D01*
X735173Y-236134D01*
X739108D01*
X744356Y-244006D02*
X745668D01*
X746980Y-242694D01*
Y-236134D01*
X743044D01*
X741732Y-237446D01*
Y-240070D01*
X743044Y-241382D01*
X746980D01*
X749604D02*
X752227D01*
X750916D01*
Y-236134D01*
X749604D01*
X756163Y-241382D02*
Y-236134D01*
X760099D01*
X761411Y-237446D01*
Y-241382D01*
X767971D02*
X765347D01*
X764035Y-240070D01*
Y-237446D01*
X765347Y-236134D01*
X767971D01*
X769282Y-237446D01*
Y-238758D01*
X764035D01*
X771906Y-236134D02*
Y-241382D01*
Y-238758D01*
X773218Y-237446D01*
X774530Y-236134D01*
X775842D01*
X914968Y-115400D02*
Y-123272D01*
X918904D01*
X920216Y-121960D01*
Y-116712D01*
X918904Y-115400D01*
X914968D01*
X924152Y-123272D02*
X926775D01*
X928087Y-121960D01*
Y-119336D01*
X926775Y-118024D01*
X924152D01*
X922840Y-119336D01*
Y-121960D01*
X924152Y-123272D01*
X935959Y-118024D02*
X932023D01*
X930711Y-119336D01*
Y-121960D01*
X932023Y-123272D01*
X935959D01*
X938583Y-118024D02*
Y-121960D01*
X939894Y-123272D01*
X943830D01*
Y-118024D01*
X946454Y-123272D02*
Y-118024D01*
X947766D01*
X949078Y-119336D01*
Y-123272D01*
Y-119336D01*
X950390Y-118024D01*
X951702Y-119336D01*
Y-123272D01*
X958261D02*
X955637D01*
X954326Y-121960D01*
Y-119336D01*
X955637Y-118024D01*
X958261D01*
X959573Y-119336D01*
Y-120648D01*
X954326D01*
X962197Y-123272D02*
Y-118024D01*
X966133D01*
X967445Y-119336D01*
Y-123272D01*
X971381Y-116712D02*
Y-118024D01*
X970068D01*
X972692D01*
X971381D01*
Y-121960D01*
X972692Y-123272D01*
X914968Y-154770D02*
Y-162642D01*
X920216D01*
X924152Y-157394D02*
X926775D01*
X928087Y-158706D01*
Y-162642D01*
X924152D01*
X922840Y-161330D01*
X924152Y-160018D01*
X928087D01*
X930711Y-157394D02*
Y-161330D01*
X932023Y-162642D01*
X935959D01*
Y-163954D01*
X934647Y-165266D01*
X933335D01*
X935959Y-162642D02*
Y-157394D01*
X942518Y-162642D02*
X939894D01*
X938583Y-161330D01*
Y-158706D01*
X939894Y-157394D01*
X942518D01*
X943830Y-158706D01*
Y-160018D01*
X938583D01*
X946454Y-157394D02*
Y-162642D01*
Y-160018D01*
X947766Y-158706D01*
X949078Y-157394D01*
X950390D01*
X962197Y-162642D02*
Y-154770D01*
X967445Y-162642D01*
Y-154770D01*
X971381Y-157394D02*
X974004D01*
X975316Y-158706D01*
Y-162642D01*
X971381D01*
X970068Y-161330D01*
X971381Y-160018D01*
X975316D01*
X977940Y-162642D02*
Y-157394D01*
X979252D01*
X980564Y-158706D01*
Y-162642D01*
Y-158706D01*
X981876Y-157394D01*
X983188Y-158706D01*
Y-162642D01*
X989747D02*
X987123D01*
X985812Y-161330D01*
Y-158706D01*
X987123Y-157394D01*
X989747D01*
X991059Y-158706D01*
Y-160018D01*
X985812D01*
X914968Y-194141D02*
Y-202012D01*
X918904D01*
X920216Y-200700D01*
Y-195452D01*
X918904Y-194141D01*
X914968D01*
X924152Y-196764D02*
X926775D01*
X928087Y-198076D01*
Y-202012D01*
X924152D01*
X922840Y-200700D01*
X924152Y-199388D01*
X928087D01*
X932023Y-195452D02*
Y-196764D01*
X930711D01*
X933335D01*
X932023D01*
Y-200700D01*
X933335Y-202012D01*
X941206D02*
X938583D01*
X937271Y-200700D01*
Y-198076D01*
X938583Y-196764D01*
X941206D01*
X942518Y-198076D01*
Y-199388D01*
X937271D01*
X914968Y-233511D02*
Y-241382D01*
X918904D01*
X920216Y-240070D01*
Y-234823D01*
X918904Y-233511D01*
X914968D01*
X924152Y-241382D02*
X926775D01*
X928087Y-240070D01*
Y-237446D01*
X926775Y-236134D01*
X924152D01*
X922840Y-237446D01*
Y-240070D01*
X924152Y-241382D01*
X935959Y-236134D02*
X932023D01*
X930711Y-237446D01*
Y-240070D01*
X932023Y-241382D01*
X935959D01*
X938583Y-236134D02*
Y-240070D01*
X939894Y-241382D01*
X943830D01*
Y-236134D01*
X946454Y-241382D02*
Y-236134D01*
X947766D01*
X949078Y-237446D01*
Y-241382D01*
Y-237446D01*
X950390Y-236134D01*
X951702Y-237446D01*
Y-241382D01*
X958261D02*
X955637D01*
X954326Y-240070D01*
Y-237446D01*
X955637Y-236134D01*
X958261D01*
X959573Y-237446D01*
Y-238758D01*
X954326D01*
X962197Y-241382D02*
Y-236134D01*
X966133D01*
X967445Y-237446D01*
Y-241382D01*
X971381Y-234823D02*
Y-236134D01*
X970068D01*
X972692D01*
X971381D01*
Y-240070D01*
X972692Y-241382D01*
D12*
X176454Y116695D02*
G03*
X173228Y118032I-3226J-3226D01*
G01*
X176454Y116695D02*
X180118Y113031D01*
X1068511Y-229571D02*
Y-190201D01*
X911031Y-150831D02*
X1186622D01*
X911031Y-190201D02*
X1186622D01*
X714181Y-229571D02*
X1186622D01*
X714181Y-111461D02*
X1186622D01*
X714181Y-268941D02*
Y-111461D01*
X911031Y-268941D02*
Y-111461D01*
X-466922Y900350D02*
X1186622D01*
Y-268941D02*
Y900350D01*
X-466922Y-268941D02*
Y900350D01*
Y-268941D02*
X1186622D01*
X924809Y-255164D02*
X920874D01*
Y-258115D01*
X922842D01*
X920874D01*
Y-261067D01*
X926777Y-257131D02*
Y-261067D01*
Y-259099D01*
X927761Y-258115D01*
X928745Y-257131D01*
X929729D01*
X932681Y-261067D02*
X934649D01*
X933665D01*
Y-257131D01*
X932681D01*
X937601Y-256147D02*
X938585Y-255164D01*
X940552D01*
X941536Y-256147D01*
Y-257131D01*
X940552Y-258115D01*
X939568D01*
X940552D01*
X941536Y-259099D01*
Y-260083D01*
X940552Y-261067D01*
X938585D01*
X937601Y-260083D01*
X943504Y-255164D02*
Y-261067D01*
X946456D01*
X947440Y-260083D01*
Y-256147D01*
X946456Y-255164D01*
X943504D01*
X949408Y-262051D02*
X953343D01*
X955311Y-255164D02*
X957279D01*
X956295D01*
Y-261067D01*
X955311D01*
X957279D01*
X960231D02*
Y-255164D01*
X963183D01*
X964167Y-256147D01*
Y-258115D01*
X963183Y-259099D01*
X960231D01*
X962199D02*
X964167Y-261067D01*
X966135D02*
Y-257131D01*
X968102Y-255164D01*
X970070Y-257131D01*
Y-261067D01*
Y-258115D01*
X966135D01*
X972038Y-262051D02*
X975974D01*
X977942Y-256147D02*
X978926Y-255164D01*
X980894D01*
X981878Y-256147D01*
Y-260083D01*
X980894Y-261067D01*
X978926D01*
X977942Y-260083D01*
Y-256147D01*
X983845D02*
X984829Y-255164D01*
X986797D01*
X987781Y-256147D01*
Y-260083D01*
X986797Y-261067D01*
X984829D01*
X983845Y-260083D01*
Y-256147D01*
X989749Y-261067D02*
Y-260083D01*
X990733D01*
Y-261067D01*
X989749D01*
X994669D02*
Y-255164D01*
X997620D01*
X998604Y-256147D01*
Y-258115D01*
X997620Y-259099D01*
X994669D01*
X1004508Y-257131D02*
X1001556D01*
X1000572Y-258115D01*
Y-260083D01*
X1001556Y-261067D01*
X1004508D01*
X1006476Y-255164D02*
Y-261067D01*
X1009428D01*
X1010412Y-260083D01*
Y-259099D01*
Y-258115D01*
X1009428Y-257131D01*
X1006476D01*
X1012379Y-255164D02*
Y-261067D01*
X1015331D01*
X1016315Y-260083D01*
Y-256147D01*
X1015331Y-255164D01*
X1012379D01*
X1019267Y-261067D02*
X1021235D01*
X1022219Y-260083D01*
Y-258115D01*
X1021235Y-257131D01*
X1019267D01*
X1018283Y-258115D01*
Y-260083D01*
X1019267Y-261067D01*
X1028122Y-257131D02*
X1025171D01*
X1024187Y-258115D01*
Y-260083D01*
X1025171Y-261067D01*
X1028122D01*
D13*
X82677Y176102D02*
G03*
X77677Y181102I-5000J0D01*
G01*
Y82677D02*
G03*
X82677Y87677I0J5000D01*
G01*
X122047Y250984D02*
G03*
X147638Y250984I12795J0D01*
G01*
X147638Y14764D02*
G03*
X122047Y14764I-12795J0D01*
G01*
X-0Y181102D02*
Y258858D01*
X-0Y6890D02*
Y82677D01*
X-0Y181102D02*
X77677Y181102D01*
X82677Y87677D02*
Y176102D01*
X-0Y82677D02*
X77677Y82677D01*
X147638Y250984D02*
Y265748D01*
X122047Y250984D02*
Y265748D01*
X6890Y265748D02*
X122047D01*
X147638Y265748D02*
X262795Y265748D01*
X147638Y-0D02*
X262795Y-0D01*
X6890D02*
X122047D01*
Y-0D02*
Y14764D01*
X147638Y-0D02*
Y14764D01*
X269685Y258858D02*
X269685D01*
X262795Y265748D02*
X269685Y258858D01*
X262795Y0D02*
X269685Y6890D01*
X0Y6890D02*
X6890Y0D01*
X0Y258858D02*
X6890Y265748D01*
D14*
X246257Y65231D02*
X252362Y67323D01*
X932685Y-168552D02*
X941868D01*
X937276D01*
Y-182327D01*
X948756D02*
X953347D01*
X955643Y-180031D01*
Y-175439D01*
X953347Y-173144D01*
X948756D01*
X946460Y-175439D01*
Y-180031D01*
X948756Y-182327D01*
X960235Y-186919D02*
Y-173144D01*
X967122D01*
X969418Y-175439D01*
Y-180031D01*
X967122Y-182327D01*
X960235D01*
X987785Y-168552D02*
Y-182327D01*
X996968D01*
X1003856Y-173144D02*
X1008448D01*
X1010744Y-175439D01*
Y-182327D01*
X1003856D01*
X1001560Y-180031D01*
X1003856Y-177735D01*
X1010744D01*
X1015335Y-173144D02*
Y-180031D01*
X1017631Y-182327D01*
X1024519D01*
Y-184623D01*
X1022223Y-186919D01*
X1019927D01*
X1024519Y-182327D02*
Y-173144D01*
X1035998Y-182327D02*
X1031406D01*
X1029110Y-180031D01*
Y-175439D01*
X1031406Y-173144D01*
X1035998D01*
X1038294Y-175439D01*
Y-177735D01*
X1029110D01*
X1042885Y-173144D02*
Y-182327D01*
Y-177735D01*
X1045181Y-175439D01*
X1047477Y-173144D01*
X1049773D01*
X735834Y-247293D02*
Y-263036D01*
X741082Y-257788D01*
X746330Y-263036D01*
Y-247293D01*
X751577Y-263036D02*
X756825D01*
X754201D01*
Y-252540D01*
X751577D01*
X764696Y-263036D02*
Y-252540D01*
X767320D01*
X769944Y-255164D01*
Y-263036D01*
Y-255164D01*
X772568Y-252540D01*
X775192Y-255164D01*
Y-263036D01*
X780439Y-247293D02*
Y-257788D01*
X785687Y-263036D01*
X790935Y-257788D01*
Y-247293D01*
X806678Y-249917D02*
X804054Y-247293D01*
X798806D01*
X796182Y-249917D01*
Y-260412D01*
X798806Y-263036D01*
X804054D01*
X806678Y-260412D01*
Y-255164D01*
X801430D01*
X1090165Y-210546D02*
X1092789Y-207923D01*
X1098036D01*
X1100660Y-210546D01*
Y-221042D01*
X1098036Y-223665D01*
X1092789D01*
X1090165Y-221042D01*
Y-210546D01*
X1105908D02*
X1108532Y-207923D01*
X1113779D01*
X1116403Y-210546D01*
Y-221042D01*
X1113779Y-223665D01*
X1108532D01*
X1105908Y-221042D01*
Y-210546D01*
X935963Y-223665D02*
X926779D01*
X935963Y-214482D01*
Y-212186D01*
X933667Y-209890D01*
X929075D01*
X926779Y-212186D01*
X940554D02*
X942850Y-209890D01*
X947442D01*
X949738Y-212186D01*
Y-221370D01*
X947442Y-223665D01*
X942850D01*
X940554Y-221370D01*
Y-212186D01*
X954329Y-223665D02*
X963513Y-214482D01*
X968104Y-212186D02*
X970400Y-209890D01*
X974992D01*
X977288Y-212186D01*
Y-221370D01*
X974992Y-223665D01*
X970400D01*
X968104Y-221370D01*
Y-212186D01*
X981880Y-221370D02*
X984175Y-223665D01*
X988767D01*
X991063Y-221370D01*
Y-212186D01*
X988767Y-209890D01*
X984175D01*
X981880Y-212186D01*
Y-214482D01*
X984175Y-216778D01*
X991063D01*
X995655Y-223665D02*
X1004838Y-214482D01*
X1018613Y-223665D02*
X1009430D01*
X1018613Y-214482D01*
Y-212186D01*
X1016317Y-209890D01*
X1011726D01*
X1009430Y-212186D01*
X1023205D02*
X1025501Y-209890D01*
X1030092D01*
X1032388Y-212186D01*
Y-221370D01*
X1030092Y-223665D01*
X1025501D01*
X1023205Y-221370D01*
Y-212186D01*
X1046163Y-223665D02*
X1036980D01*
X1046163Y-214482D01*
Y-212186D01*
X1043867Y-209890D01*
X1039276D01*
X1036980Y-212186D01*
X1050755Y-223665D02*
X1055347D01*
X1053051D01*
Y-209890D01*
X1050755Y-212186D01*
X929270Y-132331D02*
X920874D01*
Y-138628D01*
X925072D01*
X920874D01*
Y-144925D01*
X933468Y-136529D02*
Y-144925D01*
Y-140727D01*
X935567Y-138628D01*
X937666Y-136529D01*
X939765D01*
X946062Y-144925D02*
X950261D01*
X948162D01*
Y-136529D01*
X946062D01*
X956558Y-134430D02*
X958657Y-132331D01*
X962855D01*
X964954Y-134430D01*
Y-136529D01*
X962855Y-138628D01*
X960756D01*
X962855D01*
X964954Y-140727D01*
Y-142826D01*
X962855Y-144925D01*
X958657D01*
X956558Y-142826D01*
X969152Y-132331D02*
Y-144925D01*
X975449D01*
X977548Y-142826D01*
Y-134430D01*
X975449Y-132331D01*
X969152D01*
X994341D02*
X998539D01*
X996440D01*
Y-144925D01*
X994341D01*
X998539D01*
X1004836Y-136529D02*
Y-144925D01*
Y-140727D01*
X1006935Y-138628D01*
X1009034Y-136529D01*
X1011133D01*
X1019530D02*
X1023728D01*
X1025827Y-138628D01*
Y-144925D01*
X1019530D01*
X1017430Y-142826D01*
X1019530Y-140727D01*
X1025827D01*
X1051015Y-144925D02*
X1042619D01*
X1051015Y-136529D01*
Y-134430D01*
X1048916Y-132331D01*
X1044718D01*
X1042619Y-134430D01*
X1055214D02*
X1057313Y-132331D01*
X1061511D01*
X1063610Y-134430D01*
Y-142826D01*
X1061511Y-144925D01*
X1057313D01*
X1055214Y-142826D01*
Y-134430D01*
X1076204Y-144925D02*
X1067808D01*
X1076204Y-136529D01*
Y-134430D01*
X1074105Y-132331D01*
X1069907D01*
X1067808Y-134430D01*
X1080402D02*
X1082501Y-132331D01*
X1086699D01*
X1088799Y-134430D01*
Y-142826D01*
X1086699Y-144925D01*
X1082501D01*
X1080402Y-142826D01*
Y-134430D01*
D16*
X55118Y66929D02*
D03*
X75118D02*
D03*
X35118Y196850D02*
D03*
D17*
X136221Y188977D02*
D03*
X129528D02*
D03*
X136221Y183071D02*
D03*
X129528Y183071D02*
D03*
X136221Y172244D02*
D03*
X129528D02*
D03*
X136221Y166339D02*
D03*
X129528Y166339D02*
D03*
X257678Y99213D02*
D03*
X264370Y99213D02*
D03*
X80315Y254922D02*
D03*
X87008Y254922D02*
D03*
X80315Y249016D02*
D03*
X87008Y249016D02*
D03*
X87008Y243110D02*
D03*
X80315Y243110D02*
D03*
X80315Y231299D02*
D03*
X87008Y231299D02*
D03*
X215945Y140748D02*
D03*
X209252Y140748D02*
D03*
X228937Y140748D02*
D03*
X235630Y140748D02*
D03*
X196456Y47244D02*
D03*
X203149D02*
D03*
X217914Y47244D02*
D03*
X211221Y47244D02*
D03*
X243701Y49212D02*
D03*
X250393D02*
D03*
X243701Y33464D02*
D03*
X250393Y33464D02*
D03*
X243701Y41338D02*
D03*
X250393D02*
D03*
X134252Y155511D02*
D03*
X127559D02*
D03*
Y139763D02*
D03*
X134252Y139763D02*
D03*
X134252Y132874D02*
D03*
X127559D02*
D03*
X127559Y117126D02*
D03*
X134252Y117126D02*
D03*
X134449Y99409D02*
D03*
X141141D02*
D03*
X134449Y75787D02*
D03*
X141141D02*
D03*
X107087Y40748D02*
D03*
X100394Y40748D02*
D03*
X225984Y66929D02*
D03*
X232677D02*
D03*
X244685Y99212D02*
D03*
X251378D02*
D03*
X230905Y234252D02*
D03*
X237598D02*
D03*
D18*
X173228Y128032D02*
D03*
Y123031D02*
D03*
Y118032D02*
D03*
D19*
X73445Y252559D02*
D03*
X68445D02*
D03*
X63445D02*
D03*
X58445D02*
D03*
X73445Y233661D02*
D03*
X68445D02*
D03*
X63445D02*
D03*
X58445D02*
D03*
D20*
X69291Y220472D02*
D03*
X80315D02*
D03*
D21*
X241141Y114567D02*
D03*
X241141Y107874D02*
D03*
X188583Y46259D02*
D03*
X188583Y52952D02*
D03*
X211614Y239567D02*
D03*
X211614Y232874D02*
D03*
X223426Y239567D02*
D03*
X223426Y232874D02*
D03*
X217520Y239567D02*
D03*
Y232874D02*
D03*
X205709Y239567D02*
D03*
X205709Y232874D02*
D03*
X173228Y142323D02*
D03*
Y149016D02*
D03*
X163385Y142323D02*
D03*
X163385Y149016D02*
D03*
X188976Y132284D02*
D03*
X188976Y125591D02*
D03*
X94488Y62402D02*
D03*
X94488Y55709D02*
D03*
X57087Y11417D02*
D03*
Y18110D02*
D03*
X57086Y31890D02*
D03*
Y25197D02*
D03*
X222441Y258267D02*
D03*
Y251574D02*
D03*
X216536D02*
D03*
X216536Y258267D02*
D03*
D22*
X247933Y118898D02*
D03*
Y111024D02*
D03*
Y114961D02*
D03*
Y122835D02*
D03*
D23*
X262795Y105905D02*
D03*
X262795Y127953D02*
D03*
D24*
X120669Y45866D02*
D03*
X116929Y36417D02*
D03*
X105315Y52362D02*
D03*
X109055Y61811D02*
D03*
D25*
X113189Y45866D02*
D03*
X101575Y61811D02*
D03*
D26*
X230512Y242126D02*
D03*
X237992Y242126D02*
D03*
X226575Y60039D02*
D03*
X234055D02*
D03*
D27*
X264961Y49213D02*
D03*
X256693D02*
D03*
Y33465D02*
D03*
X264961D02*
D03*
X256693Y41339D02*
D03*
X264961D02*
D03*
D28*
X198228Y60335D02*
D03*
Y55335D02*
D03*
Y65335D02*
D03*
X198228Y70335D02*
D03*
X198228Y75335D02*
D03*
Y80335D02*
D03*
X198228Y90335D02*
D03*
X198228Y85335D02*
D03*
X217126Y90335D02*
D03*
Y75335D02*
D03*
Y80335D02*
D03*
Y85335D02*
D03*
Y70335D02*
D03*
Y65335D02*
D03*
Y60335D02*
D03*
X217126Y55335D02*
D03*
D29*
X179331Y76772D02*
D03*
X188779Y73032D02*
D03*
X179331Y62992D02*
D03*
X188779Y59252D02*
D03*
D30*
X188779Y80512D02*
D03*
Y66732D02*
D03*
D31*
X181890Y45472D02*
D03*
Y52953D02*
D03*
D32*
X204724Y23622D02*
D03*
X232283D02*
D03*
X204724Y11811D02*
D03*
X232283D02*
D03*
X159449Y23622D02*
D03*
X187008D02*
D03*
X159449Y11811D02*
D03*
X187008D02*
D03*
D33*
X135236Y145079D02*
D03*
X135236Y147638D02*
D03*
X135236Y150197D02*
D03*
X126575D02*
D03*
Y145079D02*
D03*
X135236Y122441D02*
D03*
X135236Y125000D02*
D03*
X135236Y127559D02*
D03*
X126575D02*
D03*
Y122441D02*
D03*
D34*
X156496Y140551D02*
D03*
X156496Y148819D02*
D03*
D35*
X134055Y92224D02*
D03*
X141535Y92224D02*
D03*
Y82973D02*
D03*
X137795D02*
D03*
X134055D02*
D03*
D36*
X118898Y58071D02*
D03*
X135039D02*
D03*
X60827Y43307D02*
D03*
X76968D02*
D03*
D37*
X67323Y30709D02*
D03*
Y12598D02*
D03*
D38*
X94488Y21654D02*
D03*
D39*
X100394Y92815D02*
D03*
X120079D02*
D03*
X110236D02*
D03*
Y70571D02*
D03*
X120079D02*
D03*
D40*
X100394D02*
D03*
D41*
X244892Y61516D02*
D03*
X244892Y62697D02*
D03*
X244892Y86910D02*
D03*
X244892Y88091D02*
D03*
X244892Y84842D02*
D03*
X244892Y83661D02*
D03*
Y81693D02*
D03*
X244892Y79724D02*
D03*
Y77756D02*
D03*
Y75787D02*
D03*
Y73819D02*
D03*
Y71850D02*
D03*
Y69882D02*
D03*
Y67913D02*
D03*
Y65945D02*
D03*
X244892Y64764D02*
D03*
D42*
X235039Y73032D02*
D03*
X231299D02*
D03*
X227559D02*
D03*
Y82480D02*
D03*
X231299D02*
D03*
X235039D02*
D03*
D43*
X148228Y157480D02*
D03*
X153228Y157480D02*
D03*
X158228D02*
D03*
X163228D02*
D03*
X168220Y157480D02*
D03*
X238221Y157480D02*
D03*
X233221D02*
D03*
X228221D02*
D03*
X223220D02*
D03*
X218220Y157480D02*
D03*
X213221Y157480D02*
D03*
X208221D02*
D03*
X203221D02*
D03*
X198221D02*
D03*
X193220Y157480D02*
D03*
X188221Y157480D02*
D03*
X183221D02*
D03*
X178220D02*
D03*
X173221D02*
D03*
X168220Y224410D02*
D03*
X163228D02*
D03*
X158228D02*
D03*
X153228D02*
D03*
X148228D02*
D03*
X173221D02*
D03*
X178220D02*
D03*
X183221D02*
D03*
X188221Y224410D02*
D03*
X193220Y224410D02*
D03*
X198221D02*
D03*
X203221D02*
D03*
X208221D02*
D03*
X213221Y224410D02*
D03*
X218220Y224410D02*
D03*
X223220D02*
D03*
X228221D02*
D03*
X233221D02*
D03*
X238221Y224410D02*
D03*
D91*
X260827Y52819D02*
G03*
X259201Y56744I-5550J0D01*
G01*
X255906Y61984D02*
G03*
X257281Y58664I4695J0D01*
G01*
X256336Y25197D02*
G03*
X260827Y29688I0J4491D01*
G01*
X255906Y61984D02*
G03*
X254636Y65049I-4335J0D01*
G01*
X135039Y58071D02*
G03*
X134843Y57874I0J-197D01*
G01*
X251181Y25197D02*
G03*
X241732Y15748I0J-9449D01*
G01*
X151969Y48071D02*
G03*
X141969Y58071I-10000J0D01*
G01*
X232677Y4331D02*
G03*
X241732Y13386I0J9055D01*
G01*
X151969Y11024D02*
G03*
X158661Y4331I6693J0D01*
G01*
X130512Y45866D02*
G03*
X134843Y50197I0J4331D01*
G01*
X67323Y30709D02*
G03*
X70347Y31961I0J4277D01*
G01*
X71850Y33465D02*
G03*
X72835Y35841I-2376J2376D01*
G01*
X90945Y211342D02*
G03*
X84350Y227263I-22516J-0D01*
G01*
X126608Y140492D02*
G03*
X124317Y141106I-2291J-3970D01*
G01*
X127558Y139764D02*
G03*
X126608Y140492I-3241J-3242D01*
G01*
X90945Y151106D02*
G03*
X100945Y141106I10000J0D01*
G01*
X111015Y104724D02*
G03*
X118086Y107653I0J10000D01*
G01*
X127559Y93611D02*
G03*
X130488Y86540I10000J0D01*
G01*
X105674Y122047D02*
G03*
X112745Y124976I0J10000D01*
G01*
X102362Y122047D02*
G03*
X96850Y116535I0J-5512D01*
G01*
Y109843D02*
G03*
X101969Y104724I5118J0D01*
G01*
X225507Y67406D02*
G03*
X218436Y70335I-7071J-7071D01*
G01*
X225984Y61466D02*
G03*
X226575Y60039I2017J0D01*
G01*
X252362Y67323D02*
X254636Y65049D01*
X257281Y58664D02*
X259201Y56744D01*
X260827Y29688D02*
Y52819D01*
X251181Y25197D02*
X256336D01*
X241732Y13386D02*
Y15748D01*
X135039Y58071D02*
X141969D01*
X151969Y11024D02*
Y48071D01*
X158661Y4331D02*
X232677D01*
X134843Y50197D02*
Y57874D01*
X120669Y45866D02*
X130512D01*
X248031Y83858D02*
Y83943D01*
X252362Y81890D01*
X57086Y31890D02*
X67323D01*
Y30709D02*
Y31890D01*
X72835Y41790D02*
X75118Y44074D01*
X74783Y41122D02*
X76968Y43307D01*
X70347Y31961D02*
X71850Y33465D01*
X72835Y35841D02*
Y41790D01*
X75118Y44074D02*
Y66929D01*
Y44074D02*
X76968Y43307D01*
X130488Y86540D02*
X134055Y82973D01*
X90945Y151106D02*
Y211342D01*
X84350Y227263D02*
X84350Y227263D01*
X80315Y231299D02*
X84350Y227263D01*
X127532Y139764D02*
X127558D01*
X127559Y139763D01*
X100945Y141106D02*
X124317D01*
X112745Y124976D02*
X127532Y139764D01*
X118086Y107653D02*
X127559Y117126D01*
Y93611D02*
Y117126D01*
X102362Y122047D02*
X105674D01*
X101969Y104724D02*
X111015D01*
X73445Y231299D02*
X80315D01*
X96850Y109843D02*
Y116535D01*
X232677Y60610D02*
X234055Y60039D01*
X232677Y60610D02*
Y66929D01*
X225507Y67406D02*
X225984Y66929D01*
Y61466D02*
Y66929D01*
X217126Y70335D02*
X218436D01*
X73445Y231299D02*
Y233661D01*
X134055Y76968D02*
Y82973D01*
Y76180D02*
X134449Y75787D01*
D92*
X136628Y173228D02*
D03*
X228937Y140748D02*
D03*
D93*
X124409Y77953D02*
G03*
X129638Y75787I5228J5228D01*
G01*
X124409Y77953D02*
G03*
X120607Y79528I-3802J-3802D01*
G01*
X96063D02*
G03*
X88189Y71653I0J-7874D01*
G01*
X104897Y52780D02*
G03*
X97826Y55709I-7071J-7071D01*
G01*
X103543Y46457D02*
G03*
X105315Y50734I-4277J4277D01*
G01*
X102204Y45117D02*
G03*
X100394Y40748I4369J-4369D01*
G01*
X88189Y60236D02*
G03*
X92716Y55709I4527J0D01*
G01*
X115527Y37819D02*
G03*
X108456Y40748I-7071J-7071D01*
G01*
X107087Y4331D02*
G03*
X116929Y14173I0J9843D01*
G01*
X72662Y7260D02*
G03*
X79733Y4331I7071J7071D01*
G01*
X51575Y13780D02*
G03*
X53937Y11417I2362J0D01*
G01*
X50412Y47816D02*
G03*
X60063Y44773I7749J7749D01*
G01*
X60827Y43307D02*
G03*
X59147Y42611I0J-2376D01*
G01*
X52756Y36220D02*
G03*
X51575Y33369I2851J-2851D01*
G01*
X129638Y75787D02*
X134449D01*
X96063Y79528D02*
X120607D01*
X104897Y52780D02*
X105315Y52362D01*
X102204Y45117D02*
X103543Y46457D01*
X88189Y60236D02*
Y71653D01*
X94488Y55709D02*
X97826D01*
X92716D02*
X94488D01*
X105315Y50734D02*
Y52362D01*
X115527Y37819D02*
X116929Y36417D01*
X107087Y40748D02*
X108456D01*
X79733Y4331D02*
X107087D01*
X116929Y14173D02*
Y36417D01*
X67323Y12598D02*
X72662Y7260D01*
X66331Y11607D02*
X67323Y12598D01*
X57277Y11607D02*
X66331D01*
X53937Y11417D02*
X57087D01*
X60063Y44773D02*
X60827Y43307D01*
X51575Y13780D02*
Y33369D01*
X52756Y36220D02*
X59147Y42611D01*
X44094Y54134D02*
X50412Y47816D01*
X35118Y66929D02*
X44094Y54134D01*
D94*
X128917Y198031D02*
D03*
Y218032D02*
D03*
X55118Y220472D02*
D03*
X128917Y228031D02*
D03*
Y208032D02*
D03*
D95*
X132854Y198031D02*
D03*
Y218032D02*
D03*
X51181Y220472D02*
D03*
X132854Y228031D02*
D03*
Y208032D02*
D03*
D96*
X208699Y194882D02*
D03*
D97*
X134882Y198031D02*
D03*
X124882Y198031D02*
D03*
X134882Y228031D02*
D03*
X124882Y218032D02*
D03*
X134882D02*
D03*
X124882Y208032D02*
D03*
X134882D02*
D03*
X49213Y220472D02*
D03*
X237362Y131890D02*
D03*
X227362D02*
D03*
X217362D02*
D03*
X223740Y36220D02*
D03*
X213740D02*
D03*
X203740D02*
D03*
X193740D02*
D03*
X183740D02*
D03*
X44882Y8032D02*
D03*
X34882Y18032D02*
D03*
Y8032D02*
D03*
X204882Y248031D02*
D03*
X194882Y258032D02*
D03*
Y248031D02*
D03*
X184882Y258032D02*
D03*
Y248031D02*
D03*
X164882D02*
D03*
Y258032D02*
D03*
X174882Y248031D02*
D03*
Y258032D02*
D03*
X154882Y248031D02*
D03*
Y258032D02*
D03*
D98*
X124882Y228031D02*
D03*
D99*
X59213Y220472D02*
D03*
X207362Y131890D02*
D03*
X233740Y36220D02*
D03*
X44882Y18032D02*
D03*
X204882Y258032D02*
D03*
D100*
X180118Y133031D02*
D03*
Y123031D02*
D03*
D101*
Y113031D02*
D03*
D102*
X19685Y54134D02*
D03*
X31890Y34449D02*
D03*
D103*
X44094Y54134D02*
D03*
D104*
X35118Y66929D02*
D03*
D03*
X55118D02*
D03*
X75118Y196850D02*
D03*
X55118D02*
D03*
D105*
X106299Y111890D02*
D03*
Y131890D02*
D03*
Y111890D02*
D03*
D106*
Y151890D02*
D03*
Y131890D02*
D03*
D107*
X248494Y91811D02*
D03*
Y57795D02*
D03*
D108*
X264951Y91811D02*
D03*
Y57795D02*
D03*
D109*
X250583Y86181D02*
D03*
Y63425D02*
D03*
D110*
X252953Y250984D02*
D03*
X16732Y250984D02*
D03*
X16732Y14764D02*
D03*
X252953Y14764D02*
D03*
D111*
X202658Y188583D02*
D03*
X213878Y200295D02*
D03*
X168209Y218799D02*
D03*
X125000Y70571D02*
D03*
X121063Y189961D02*
D03*
X108268D02*
D03*
X117126Y187008D02*
D03*
X105315Y187147D02*
D03*
X221654Y142913D02*
D03*
X227165Y150394D02*
D03*
X232283Y247410D02*
D03*
X228937D02*
D03*
X94488Y21654D02*
D03*
X106299D02*
D03*
X82677D02*
D03*
X94488Y9843D02*
D03*
Y33465D02*
D03*
X106299D02*
D03*
Y9843D02*
D03*
X82677D02*
D03*
Y33465D02*
D03*
X239173Y78740D02*
D03*
Y70866D02*
D03*
X224410Y53543D02*
D03*
X165354Y11811D02*
D03*
X226378Y11811D02*
D03*
X210630Y11811D02*
D03*
X181102Y11811D02*
D03*
X235827Y54724D02*
D03*
X232283D02*
D03*
X252362Y67323D02*
D03*
Y81890D02*
D03*
X235236Y166339D02*
D03*
X213221Y163386D02*
D03*
X167323Y80709D02*
D03*
Y66929D02*
D03*
X179331Y80709D02*
D03*
X145078Y99409D02*
D03*
X138189Y117126D02*
D03*
X138189Y139763D02*
D03*
X61024Y18110D02*
D03*
X61023Y25197D02*
D03*
X141141Y71850D02*
D03*
X184055Y57087D02*
D03*
X180118D02*
D03*
X179331Y66929D02*
D03*
X239763Y33464D02*
D03*
X188976Y121654D02*
D03*
X246063Y107874D02*
D03*
X139173Y122441D02*
D03*
X139173Y145079D02*
D03*
X58445Y239567D02*
D03*
X90945Y231299D02*
D03*
X76378Y243110D02*
D03*
X238221Y151575D02*
D03*
X238221Y230315D02*
D03*
X239173Y247047D02*
D03*
X236221D02*
D03*
X212599Y258267D02*
D03*
M02*
