G04*
G04 #@! TF.GenerationSoftware,Altium Limited,Altium Designer,24.4.0 (9)*
G04*
G04 Layer_Color=8421504*
%FSLAX25Y25*%
%MOIN*%
G70*
G04*
G04 #@! TF.SameCoordinates,65D136BF-7807-4BE3-8BD7-7ED8223B60D1*
G04*
G04*
G04 #@! TF.FilePolarity,Positive*
G04*
G01*
G75*
%ADD15C,0.00394*%
%ADD18R,0.07874X0.07874*%
%ADD19R,0.12205X0.03937*%
%ADD20R,0.04803X0.04921*%
%ADD21R,0.04331X0.03937*%
%ADD22R,0.03543X0.01575*%
%ADD23R,0.05709X0.01181*%
%ADD24R,0.05906X0.05118*%
%ADD25R,0.03937X0.04331*%
%ADD26O,0.08661X0.02362*%
%ADD27R,0.03937X0.05118*%
%ADD28R,0.05118X0.05906*%
%ADD29R,0.03937X0.03347*%
%ADD30R,0.03937X0.03347*%
%ADD31O,0.02362X0.08661*%
%ADD32R,0.05906X0.03150*%
%ADD33R,0.07874X0.05512*%
%ADD34R,0.04528X0.02362*%
%ADD35R,0.05118X0.03937*%
%ADD36R,0.06299X0.07087*%
%ADD37R,0.03543X0.07874*%
G36*
X15748Y428D02*
Y5960D01*
X15747D01*
X15010Y6075D01*
X13577Y6487D01*
X12234Y7133D01*
X11018Y7995D01*
X9963Y9050D01*
X9101Y10266D01*
X8455Y11609D01*
X8043Y13042D01*
X7929Y13780D01*
D01*
Y13780D01*
X2396D01*
X2396Y13780D01*
X2455Y12922D01*
X2776Y11234D01*
X3296Y9595D01*
X4008Y8031D01*
X4902Y6562D01*
X5963Y5211D01*
X7179Y3995D01*
X8531Y2933D01*
X9999Y2040D01*
X11564Y1328D01*
X13202Y808D01*
X14891Y487D01*
X15748Y428D01*
X15748Y428D01*
D02*
G37*
G36*
X2397Y15748D02*
X7929D01*
Y15749D01*
X8043Y16486D01*
X8455Y17919D01*
X9101Y19262D01*
X9964Y20479D01*
X11018Y21533D01*
X12234Y22395D01*
X13578Y23041D01*
X15011Y23453D01*
X15748Y23567D01*
Y23567D01*
X15748D01*
Y29100D01*
X15748D01*
X14891Y29041D01*
X13202Y28720D01*
X11564Y28200D01*
X9999Y27488D01*
X8531Y26594D01*
X7179Y25533D01*
X5964Y24317D01*
X4902Y22965D01*
X4009Y21497D01*
X3297Y19932D01*
X2777Y18294D01*
X2455Y16605D01*
X2397Y15748D01*
X2397D01*
D02*
G37*
G36*
X31068Y13780D02*
X25536D01*
X25536Y13779D01*
X25422Y13042D01*
X25010Y11609D01*
X24363Y10265D01*
X23501Y9049D01*
X22446Y7995D01*
X21230Y7132D01*
X19887Y6486D01*
X18454Y6074D01*
X17716Y5960D01*
X17716D01*
X17717D01*
Y427D01*
X17717Y427D01*
X18574Y486D01*
X20263Y808D01*
X21901Y1328D01*
X23465Y2040D01*
X24934Y2933D01*
X26285Y3995D01*
X27501Y5210D01*
X28563Y6562D01*
X29456Y8031D01*
X30168Y9595D01*
X30688Y11233D01*
X31009Y12922D01*
X31068Y13780D01*
Y13780D01*
D02*
G37*
G36*
X17717Y29100D02*
Y23567D01*
X17717Y23567D01*
X18454Y23453D01*
X19887Y23041D01*
X21231Y22395D01*
X22447Y21532D01*
X23501Y20478D01*
X24364Y19262D01*
X25010Y17918D01*
X25422Y16485D01*
X25536Y15748D01*
X25536Y15748D01*
Y15748D01*
X31069D01*
Y15748D01*
X31010Y16605D01*
X30688Y18294D01*
X30168Y19932D01*
X29456Y21497D01*
X28563Y22965D01*
X27501Y24317D01*
X26286Y25532D01*
X24934Y26594D01*
X23465Y27487D01*
X21901Y28199D01*
X20263Y28719D01*
X18574Y29041D01*
X17717Y29100D01*
D01*
D02*
G37*
G36*
X15748Y236649D02*
Y242181D01*
X15747D01*
X15010Y242295D01*
X13577Y242707D01*
X12234Y243353D01*
X11018Y244216D01*
X9963Y245270D01*
X9101Y246486D01*
X8455Y247830D01*
X8043Y249263D01*
X7929Y250000D01*
D01*
Y250000D01*
X2396D01*
X2396Y250000D01*
X2455Y249143D01*
X2776Y247454D01*
X3296Y245816D01*
X4008Y244251D01*
X4902Y242783D01*
X5963Y241431D01*
X7179Y240216D01*
X8531Y239154D01*
X9999Y238261D01*
X11564Y237549D01*
X13202Y237029D01*
X14891Y236707D01*
X15748Y236649D01*
X15748Y236649D01*
D02*
G37*
G36*
X2397Y251969D02*
X7929D01*
Y251969D01*
X8043Y252706D01*
X8455Y254139D01*
X9101Y255483D01*
X9964Y256699D01*
X11018Y257753D01*
X12234Y258615D01*
X13578Y259262D01*
X15011Y259674D01*
X15748Y259788D01*
Y259788D01*
X15748D01*
Y265321D01*
X15748D01*
X14891Y265262D01*
X13202Y264940D01*
X11564Y264420D01*
X9999Y263708D01*
X8531Y262815D01*
X7179Y261753D01*
X5964Y260538D01*
X4902Y259186D01*
X4009Y257717D01*
X3297Y256153D01*
X2777Y254515D01*
X2455Y252826D01*
X2397Y251969D01*
X2397D01*
D02*
G37*
G36*
X31068Y250000D02*
X25536D01*
X25536Y249999D01*
X25422Y249262D01*
X25010Y247829D01*
X24363Y246486D01*
X23501Y245269D01*
X22446Y244215D01*
X21230Y243353D01*
X19887Y242707D01*
X18454Y242295D01*
X17716Y242181D01*
X17716D01*
X17717D01*
Y236648D01*
X17717Y236648D01*
X18574Y236707D01*
X20263Y237028D01*
X21901Y237548D01*
X23465Y238260D01*
X24934Y239154D01*
X26285Y240215D01*
X27501Y241431D01*
X28563Y242782D01*
X29456Y244251D01*
X30168Y245816D01*
X30688Y247454D01*
X31009Y249143D01*
X31068Y250000D01*
Y250000D01*
D02*
G37*
G36*
X17717Y265320D02*
Y259788D01*
X17717Y259788D01*
X18454Y259674D01*
X19887Y259261D01*
X21231Y258615D01*
X22447Y257753D01*
X23501Y256698D01*
X24364Y255482D01*
X25010Y254139D01*
X25422Y252706D01*
X25536Y251968D01*
X25536Y251968D01*
Y251969D01*
X31069D01*
Y251968D01*
X31010Y252826D01*
X30688Y254514D01*
X30168Y256153D01*
X29456Y257717D01*
X28563Y259186D01*
X27501Y260537D01*
X26286Y261753D01*
X24934Y262815D01*
X23465Y263708D01*
X21901Y264420D01*
X20263Y264940D01*
X18574Y265261D01*
X17717Y265320D01*
D01*
D02*
G37*
D15*
X82677Y176102D02*
G03*
X77677Y181102I-5000J0D01*
G01*
Y82677D02*
G03*
X82677Y87677I0J5000D01*
G01*
X147638Y14764D02*
G03*
X122047Y14764I-12795J0D01*
G01*
X122047Y250984D02*
G03*
X147638Y250984I12795J0D01*
G01*
X-0Y6890D02*
Y82677D01*
X-0Y181102D02*
Y258858D01*
X0Y6890D02*
X6890Y0D01*
X0Y258858D02*
X6890Y265748D01*
X-0Y82677D02*
X77677Y82677D01*
X-0Y181102D02*
X77677Y181102D01*
X6890Y-0D02*
X122047D01*
X6890Y265748D02*
X122047D01*
X82677Y87677D02*
Y176102D01*
X122047Y-0D02*
Y14764D01*
X122047Y250984D02*
Y265748D01*
X147638Y-0D02*
Y14764D01*
X147638Y250984D02*
Y265748D01*
X147638Y-0D02*
X262795Y-0D01*
X147638Y265748D02*
X262795Y265748D01*
X262795Y265748D02*
X269685Y258858D01*
X262795Y0D02*
X269685Y6890D01*
X269685Y258858D01*
X269685D02*
X269685D01*
D18*
X203974Y199607D02*
D03*
X203974Y190155D02*
D03*
X213421Y190157D02*
D03*
X213424Y199605D02*
D03*
D19*
X135433Y208032D02*
D03*
Y218032D02*
D03*
X114173Y208032D02*
D03*
Y218032D02*
D03*
X135433Y228031D02*
D03*
X114173D02*
D03*
X135433Y198031D02*
D03*
X114173D02*
D03*
D03*
X135433D02*
D03*
D20*
X113189Y19783D02*
D03*
Y31398D02*
D03*
X9843Y62894D02*
D03*
Y51279D02*
D03*
D21*
X134252Y77756D02*
D03*
X127559Y77756D02*
D03*
X134252Y140748D02*
D03*
X127559Y140748D02*
D03*
X134252Y109252D02*
D03*
X127559Y109252D02*
D03*
X134252Y125000D02*
D03*
X127559Y125000D02*
D03*
Y93504D02*
D03*
X134252D02*
D03*
X134252Y156496D02*
D03*
X127559D02*
D03*
X134252Y172244D02*
D03*
X127559Y172244D02*
D03*
X134252Y62008D02*
D03*
X127559D02*
D03*
X251378Y99409D02*
D03*
X244685Y99409D02*
D03*
X257481Y99410D02*
D03*
X264174Y99410D02*
D03*
X250393Y40354D02*
D03*
X243701Y40354D02*
D03*
X225984Y69882D02*
D03*
X232677Y69882D02*
D03*
X67323Y255906D02*
D03*
X60630Y250591D02*
D03*
X60630Y245275D02*
D03*
X60630Y229330D02*
D03*
X67322Y229330D02*
D03*
X243701Y33464D02*
D03*
X100787Y35433D02*
D03*
X250393Y47244D02*
D03*
X237598Y234252D02*
D03*
X60630Y255906D02*
D03*
X67323Y250591D02*
D03*
X67322Y245275D02*
D03*
X215945Y45276D02*
D03*
X209252D02*
D03*
X250393Y33464D02*
D03*
X195472Y45275D02*
D03*
X202165D02*
D03*
X94094Y35433D02*
D03*
X243701Y47244D02*
D03*
X230905Y234252D02*
D03*
D22*
X127559Y146063D02*
D03*
Y151181D02*
D03*
X136221D02*
D03*
X136221Y148622D02*
D03*
Y146063D02*
D03*
X127559Y130315D02*
D03*
Y135433D02*
D03*
X136221D02*
D03*
Y132874D02*
D03*
Y130315D02*
D03*
X127559Y114567D02*
D03*
Y119685D02*
D03*
X136221D02*
D03*
X136221Y117126D02*
D03*
X136221Y114567D02*
D03*
X127559Y98819D02*
D03*
X127559Y103937D02*
D03*
X136221D02*
D03*
Y101378D02*
D03*
X136221Y98819D02*
D03*
X127559Y88189D02*
D03*
Y83071D02*
D03*
X136221Y88189D02*
D03*
Y83071D02*
D03*
X136221Y85630D02*
D03*
X136221Y177559D02*
D03*
Y182677D02*
D03*
X127559D02*
D03*
Y177559D02*
D03*
X136221Y180118D02*
D03*
Y161811D02*
D03*
X136221Y166929D02*
D03*
X127559D02*
D03*
X127559Y161811D02*
D03*
X136221Y164370D02*
D03*
X127559Y72441D02*
D03*
Y67323D02*
D03*
X136221Y72441D02*
D03*
Y67323D02*
D03*
X136221Y69882D02*
D03*
X69291Y237008D02*
D03*
X60630Y234449D02*
D03*
X69291Y239567D02*
D03*
Y234449D02*
D03*
X60630Y239567D02*
D03*
D23*
X245876Y67913D02*
D03*
Y79724D02*
D03*
X245876Y81693D02*
D03*
X245876Y69882D02*
D03*
X245876Y62697D02*
D03*
Y65945D02*
D03*
Y71850D02*
D03*
Y77756D02*
D03*
Y83661D02*
D03*
Y86910D02*
D03*
Y88090D02*
D03*
Y84842D02*
D03*
Y75787D02*
D03*
Y73819D02*
D03*
Y64764D02*
D03*
Y61516D02*
D03*
D24*
X84646Y20472D02*
D03*
Y12992D02*
D03*
Y35236D02*
D03*
Y27756D02*
D03*
X35433Y26772D02*
D03*
Y34252D02*
D03*
X182087Y52953D02*
D03*
Y45472D02*
D03*
D25*
X122048Y151968D02*
D03*
X122048Y145275D02*
D03*
X122048Y136220D02*
D03*
X122048Y129527D02*
D03*
Y120472D02*
D03*
Y113779D02*
D03*
X122048Y104724D02*
D03*
X122048Y98031D02*
D03*
X205709Y239567D02*
D03*
X205709Y232874D02*
D03*
X211614Y239567D02*
D03*
X211614Y232874D02*
D03*
X217520Y239567D02*
D03*
Y232874D02*
D03*
X223426Y239567D02*
D03*
X223426Y232874D02*
D03*
X81889Y233662D02*
D03*
X122048Y176771D02*
D03*
X188976Y125591D02*
D03*
X146653Y45867D02*
D03*
X123031Y52559D02*
D03*
Y45867D02*
D03*
X188977Y53543D02*
D03*
X216536Y258267D02*
D03*
X122048Y161023D02*
D03*
X81889Y240355D02*
D03*
X122048Y167716D02*
D03*
Y183464D02*
D03*
X122048Y88976D02*
D03*
Y82283D02*
D03*
X175197Y142323D02*
D03*
Y149016D02*
D03*
X161417Y142323D02*
D03*
X161417Y149016D02*
D03*
X188976Y132284D02*
D03*
X122048Y73228D02*
D03*
X122048Y66535D02*
D03*
X146653Y52559D02*
D03*
X188977Y46850D02*
D03*
X222441Y258267D02*
D03*
Y251574D02*
D03*
X216536D02*
D03*
D26*
X198228Y60335D02*
D03*
Y55335D02*
D03*
Y65335D02*
D03*
Y70335D02*
D03*
Y75335D02*
D03*
Y80335D02*
D03*
Y90335D02*
D03*
Y85335D02*
D03*
X217126Y90335D02*
D03*
Y75335D02*
D03*
Y80335D02*
D03*
Y85335D02*
D03*
Y70335D02*
D03*
Y65335D02*
D03*
Y60335D02*
D03*
X217126Y55335D02*
D03*
D27*
X256693Y47244D02*
D03*
X264961D02*
D03*
Y40354D02*
D03*
X256693D02*
D03*
Y33465D02*
D03*
X264961D02*
D03*
D28*
X234055Y62992D02*
D03*
X226575D02*
D03*
X237992Y242126D02*
D03*
X230512Y242126D02*
D03*
D29*
X188779Y73032D02*
D03*
X179331Y76772D02*
D03*
X188779Y59252D02*
D03*
X179331Y62992D02*
D03*
X102165Y21850D02*
D03*
X92716Y25591D02*
D03*
D30*
X188779Y80512D02*
D03*
Y66732D02*
D03*
X102165Y29331D02*
D03*
D31*
X48760Y252559D02*
D03*
X43760D02*
D03*
X53760Y233661D02*
D03*
X38760D02*
D03*
X53760Y252559D02*
D03*
X38760D02*
D03*
X48760Y233661D02*
D03*
X43760D02*
D03*
D32*
X173228Y118032D02*
D03*
Y123031D02*
D03*
Y128032D02*
D03*
D33*
X204724Y11811D02*
D03*
X232283D02*
D03*
X159449D02*
D03*
X187008D02*
D03*
X204724Y23622D02*
D03*
X232283D02*
D03*
X159449D02*
D03*
X187008D02*
D03*
D34*
X130217Y45472D02*
D03*
Y49213D02*
D03*
Y52953D02*
D03*
X139469D02*
D03*
X139469Y45472D02*
D03*
D35*
X168307Y148819D02*
D03*
Y140551D02*
D03*
D36*
X49606Y220472D02*
D03*
X60630D02*
D03*
D37*
X148228Y157480D02*
D03*
X153228Y157480D02*
D03*
X158228D02*
D03*
X163228D02*
D03*
X168220Y157480D02*
D03*
X238221Y157480D02*
D03*
X233221D02*
D03*
X228221D02*
D03*
X223220D02*
D03*
X218220Y157480D02*
D03*
X213221Y157480D02*
D03*
X208221D02*
D03*
X203221D02*
D03*
X198221D02*
D03*
X193220Y157480D02*
D03*
X188221Y157480D02*
D03*
X183221D02*
D03*
X178220D02*
D03*
X173221D02*
D03*
X168220Y224410D02*
D03*
X163228D02*
D03*
X158228D02*
D03*
X153228D02*
D03*
X148228D02*
D03*
X173221D02*
D03*
X178220D02*
D03*
X183221D02*
D03*
X188221Y224410D02*
D03*
X193220Y224410D02*
D03*
X198221D02*
D03*
X203221D02*
D03*
X208221D02*
D03*
X213221Y224410D02*
D03*
X218220Y224410D02*
D03*
X223220D02*
D03*
X228221D02*
D03*
X233221D02*
D03*
X238221Y224410D02*
D03*
M02*
