G04*
G04 #@! TF.GenerationSoftware,Altium Limited,Altium Designer,24.4.0 (9)*
G04*
G04 Layer_Color=417716*
%FSLAX25Y25*%
%MOIN*%
G70*
G04*
G04 #@! TF.SameCoordinates,65D136BF-7807-4BE3-8BD7-7ED8223B60D1*
G04*
G04*
G04 #@! TF.FilePolarity,Positive*
G04*
G01*
G75*
%ADD10C,0.00591*%
%ADD12C,0.01968*%
%ADD14C,0.00984*%
%ADD15C,0.00394*%
%ADD16C,0.00600*%
%ADD104C,0.01000*%
D10*
X547244Y6890D02*
X586614Y46260D01*
Y219488D01*
X547244Y258858D02*
X586614Y219488D01*
X547244Y280512D02*
X586614Y319882D01*
Y493110D01*
X547244Y532480D02*
X586614Y493110D01*
D12*
X104331Y409444D02*
Y393701D01*
X112202D01*
X114826Y396325D01*
Y406820D01*
X112202Y409444D01*
X104331D01*
X130569D02*
X120074D01*
Y393701D01*
X130569D01*
X120074Y401572D02*
X125321D01*
X146312Y406820D02*
X143688Y409444D01*
X138440D01*
X135817Y406820D01*
Y404196D01*
X138440Y401572D01*
X143688D01*
X146312Y398949D01*
Y396325D01*
X143688Y393701D01*
X138440D01*
X135817Y396325D01*
X151559Y409444D02*
X156807D01*
X154183D01*
Y393701D01*
X151559D01*
X156807D01*
X175174Y406820D02*
X172550Y409444D01*
X167303D01*
X164679Y406820D01*
Y396325D01*
X167303Y393701D01*
X172550D01*
X175174Y396325D01*
Y401572D01*
X169926D01*
X180422Y393701D02*
Y409444D01*
X190917Y393701D01*
Y409444D01*
X211908Y393701D02*
Y404196D01*
X217155Y409444D01*
X222403Y404196D01*
Y393701D01*
Y401572D01*
X211908D01*
X381890Y409444D02*
Y393701D01*
X389761D01*
X392385Y396325D01*
Y406820D01*
X389761Y409444D01*
X381890D01*
X408128D02*
X397633D01*
Y393701D01*
X408128D01*
X397633Y401572D02*
X402880D01*
X423871Y406820D02*
X421247Y409444D01*
X416000D01*
X413376Y406820D01*
Y404196D01*
X416000Y401572D01*
X421247D01*
X423871Y398949D01*
Y396325D01*
X421247Y393701D01*
X416000D01*
X413376Y396325D01*
X429119Y409444D02*
X434366D01*
X431742D01*
Y393701D01*
X429119D01*
X434366D01*
X452733Y406820D02*
X450109Y409444D01*
X444862D01*
X442238Y406820D01*
Y396325D01*
X444862Y393701D01*
X450109D01*
X452733Y396325D01*
Y401572D01*
X447485D01*
X457981Y393701D02*
Y409444D01*
X468476Y393701D01*
Y409444D01*
X489467Y393701D02*
Y404196D01*
X494714Y409444D01*
X499962Y404196D01*
Y393701D01*
Y401572D01*
X489467D01*
X381890Y135822D02*
Y120079D01*
X389761D01*
X392385Y122703D01*
Y133198D01*
X389761Y135822D01*
X381890D01*
X408128D02*
X397633D01*
Y120079D01*
X408128D01*
X397633Y127950D02*
X402880D01*
X423871Y133198D02*
X421247Y135822D01*
X416000D01*
X413376Y133198D01*
Y130574D01*
X416000Y127950D01*
X421247D01*
X423871Y125326D01*
Y122703D01*
X421247Y120079D01*
X416000D01*
X413376Y122703D01*
X429119Y135822D02*
X434366D01*
X431742D01*
Y120079D01*
X429119D01*
X434366D01*
X452733Y133198D02*
X450109Y135822D01*
X444862D01*
X442238Y133198D01*
Y122703D01*
X444862Y120079D01*
X450109D01*
X452733Y122703D01*
Y127950D01*
X447485D01*
X457981Y120079D02*
Y135822D01*
X468476Y120079D01*
Y135822D01*
X489467Y120079D02*
Y130574D01*
X494714Y135822D01*
X499962Y130574D01*
Y120079D01*
Y127950D01*
X489467D01*
X104331Y135822D02*
Y120079D01*
X112202D01*
X114826Y122703D01*
Y133198D01*
X112202Y135822D01*
X104331D01*
X130569D02*
X120074D01*
Y120079D01*
X130569D01*
X120074Y127950D02*
X125321D01*
X146312Y133198D02*
X143688Y135822D01*
X138440D01*
X135817Y133198D01*
Y130574D01*
X138440Y127950D01*
X143688D01*
X146312Y125326D01*
Y122703D01*
X143688Y120079D01*
X138440D01*
X135817Y122703D01*
X151559Y135822D02*
X156807D01*
X154183D01*
Y120079D01*
X151559D01*
X156807D01*
X175174Y133198D02*
X172550Y135822D01*
X167303D01*
X164679Y133198D01*
Y122703D01*
X167303Y120079D01*
X172550D01*
X175174Y122703D01*
Y127950D01*
X169926D01*
X180422Y120079D02*
Y135822D01*
X190917Y120079D01*
Y135822D01*
X211908Y120079D02*
Y130574D01*
X217155Y135822D01*
X222403Y130574D01*
Y120079D01*
Y127950D01*
X211908D01*
D14*
X547244Y537402D02*
X551181Y541339D01*
X547244Y557087D02*
X547244Y537402D01*
X543307Y541339D02*
X547244Y537402D01*
X273622Y537402D02*
X277559Y541339D01*
X269685D02*
X273622Y537402D01*
X273622Y557087D02*
X273622Y537402D01*
X-51181Y273622D02*
X-47244Y269685D01*
X-51181Y265748D02*
X-47244Y269685D01*
X-66929Y269685D02*
X-47244Y269685D01*
D15*
X122047Y524606D02*
G03*
X147638Y524606I12795J0D01*
G01*
X147638Y288386D02*
G03*
X122047Y288386I-12795J0D01*
G01*
X77677Y356299D02*
G03*
X82677Y361299I0J5000D01*
G01*
Y449724D02*
G03*
X77677Y454724I-5000J0D01*
G01*
X355236Y356299D02*
G03*
X360236Y361299I0J5000D01*
G01*
X360236Y176102D02*
G03*
X355236Y181102I-5000J0D01*
G01*
X425197Y288386D02*
G03*
X399606Y288386I-12795J0D01*
G01*
X399606Y524606D02*
G03*
X425197Y524606I12795J0D01*
G01*
X399606Y250984D02*
G03*
X425197Y250984I12795J0D01*
G01*
X360236Y449724D02*
G03*
X355236Y454724I-5000J0D01*
G01*
X425197Y14764D02*
G03*
X399606Y14764I-12795J0D01*
G01*
X355236Y82677D02*
G03*
X360236Y87677I0J5000D01*
G01*
X122047Y273622D02*
Y288386D01*
X6890Y539370D02*
X122047D01*
X6890Y273622D02*
X122047D01*
X0Y532480D02*
X6890Y539370D01*
X147638Y524606D02*
Y539370D01*
X0Y454724D02*
Y532480D01*
X122047Y524606D02*
Y539370D01*
X82677Y361299D02*
Y449724D01*
X-0Y454724D02*
X77677Y454724D01*
X-0Y356299D02*
X77677Y356299D01*
X0Y280512D02*
X6890Y273622D01*
X-0Y280512D02*
Y356299D01*
X147638Y273622D02*
X262795Y273622D01*
X269685Y532480D02*
X269685D01*
X269685Y280512D02*
X269685Y532480D01*
X262795Y273622D02*
X269685Y280512D01*
X147638Y539370D02*
X262795Y539370D01*
X147638Y273622D02*
Y288386D01*
X262795Y539370D02*
X269685Y532480D01*
X277559Y280512D02*
Y356299D01*
X277559Y454724D02*
Y532480D01*
X277559Y280512D02*
X284449Y273622D01*
X277559Y532480D02*
X284449Y539370D01*
X277559Y356299D02*
X355236Y356299D01*
X277559Y454724D02*
X355236Y454724D01*
X284449Y539370D02*
X399606D01*
X360236Y361299D02*
Y449724D01*
X277559Y181102D02*
X355236Y181102D01*
X277559Y258858D02*
X284449Y265748D01*
X277559Y181102D02*
Y258858D01*
X399606Y273622D02*
Y288386D01*
X425197Y273622D02*
Y288386D01*
X284449Y273622D02*
X399606D01*
X425197Y273622D02*
X540354Y273622D01*
X425197Y265748D02*
X540354Y265748D01*
X425197Y250984D02*
Y265748D01*
X399606Y250984D02*
Y265748D01*
X284449Y265748D02*
X399606D01*
X540354Y265748D02*
X547244Y258858D01*
X399606Y524606D02*
Y539370D01*
X425197Y524606D02*
Y539370D01*
Y539370D02*
X540354Y539370D01*
X540354Y539370D02*
X547244Y532480D01*
X540354Y273622D02*
X547244Y280512D01*
X547244Y532480D01*
X547244Y258858D02*
X547244D01*
X547244Y6890D02*
X547244Y258858D01*
Y532480D02*
X547244D01*
X540354Y-0D02*
X547244Y6890D01*
X425197Y-0D02*
X540354Y-0D01*
X425197Y-0D02*
Y14764D01*
X399606Y-0D02*
Y14764D01*
X284449Y-0D02*
X399606D01*
X277559Y6890D02*
X284449Y-0D01*
X277559Y82677D02*
X355236Y82677D01*
X277559Y6890D02*
Y82677D01*
X360236Y87677D02*
Y176102D01*
X82677Y176102D02*
G03*
X77677Y181102I-5000J0D01*
G01*
Y82677D02*
G03*
X82677Y87677I0J5000D01*
G01*
X147638Y14764D02*
G03*
X122047Y14764I-12795J0D01*
G01*
X122047Y250984D02*
G03*
X147638Y250984I12795J0D01*
G01*
X-0Y6890D02*
Y82677D01*
X-0Y181102D02*
Y258858D01*
X0Y6890D02*
X6890Y0D01*
X0Y258858D02*
X6890Y265748D01*
X-0Y82677D02*
X77677Y82677D01*
X-0Y181102D02*
X77677Y181102D01*
X6890Y-0D02*
X122047D01*
X6890Y265748D02*
X122047D01*
X82677Y87677D02*
Y176102D01*
X122047Y-0D02*
Y14764D01*
X122047Y250984D02*
Y265748D01*
X147638Y-0D02*
Y14764D01*
X147638Y250984D02*
Y265748D01*
X147638Y-0D02*
X262795Y-0D01*
X147638Y265748D02*
X262795Y265748D01*
X262795Y265748D02*
X269685Y258858D01*
X262795Y0D02*
X269685Y6890D01*
X269685Y258858D01*
X269685D02*
X269685D01*
D16*
X-27974Y394899D02*
X-26974Y392900D01*
X-24975Y390901D01*
X-22976D01*
X-21976Y391900D01*
Y393900D01*
X-22976Y394899D01*
X-23975D01*
X-24975Y393900D01*
Y390901D01*
X-27974Y396899D02*
Y400897D01*
X-26974D01*
X-22976Y396899D01*
X-21976D01*
X-20976Y403896D02*
X-21976Y404896D01*
X-22976D01*
Y403896D01*
X-21976D01*
Y404896D01*
X-20976Y403896D01*
X-19977Y402897D01*
X-27974Y412893D02*
Y408895D01*
X-24975D01*
X-25975Y410894D01*
Y411894D01*
X-24975Y412893D01*
X-22976D01*
X-21976Y411894D01*
Y409895D01*
X-22976Y408895D01*
X-26974Y414893D02*
X-27974Y415893D01*
Y417892D01*
X-26974Y418892D01*
X-22976D01*
X-21976Y417892D01*
Y415893D01*
X-22976Y414893D01*
X-26974D01*
X-35772Y261087D02*
Y257089D01*
X-39771Y261087D01*
X-40771D01*
X-41770Y260088D01*
Y258088D01*
X-40771Y257089D01*
X-34773Y264086D02*
X-35772Y265086D01*
X-36772D01*
Y264086D01*
X-35772D01*
Y265086D01*
X-34773Y264086D01*
X-33773Y263087D01*
X-40771Y269085D02*
X-41770Y270084D01*
Y272084D01*
X-40771Y273083D01*
X-36772D01*
X-35772Y272084D01*
Y270084D01*
X-36772Y269085D01*
X-40771D01*
Y275083D02*
X-41770Y276082D01*
Y278082D01*
X-40771Y279082D01*
X-36772D01*
X-35772Y278082D01*
Y276082D01*
X-36772Y275083D01*
X-40771D01*
X400805Y-20254D02*
X398805Y-21254D01*
X396806Y-23253D01*
Y-25253D01*
X397806Y-26252D01*
X399805D01*
X400805Y-25253D01*
Y-24253D01*
X399805Y-23253D01*
X396806D01*
X402804Y-21254D02*
X403804Y-20254D01*
X405803D01*
X406803Y-21254D01*
Y-22254D01*
X405803Y-23253D01*
X406803Y-24253D01*
Y-25253D01*
X405803Y-26252D01*
X403804D01*
X402804Y-25253D01*
Y-24253D01*
X403804Y-23253D01*
X402804Y-22254D01*
Y-21254D01*
X403804Y-23253D02*
X405803D01*
X409802Y-27252D02*
X410802Y-26252D01*
Y-25253D01*
X409802D01*
Y-26252D01*
X410802D01*
X409802Y-27252D01*
X408802Y-28252D01*
X418799Y-20254D02*
X414800D01*
Y-23253D01*
X416800Y-22254D01*
X417799D01*
X418799Y-23253D01*
Y-25253D01*
X417799Y-26252D01*
X415800D01*
X414800Y-25253D01*
X420798Y-21254D02*
X421798Y-20254D01*
X423797D01*
X424797Y-21254D01*
Y-25253D01*
X423797Y-26252D01*
X421798D01*
X420798Y-25253D01*
Y-21254D01*
X551781Y-36771D02*
X553781D01*
X552781D01*
Y-30773D01*
X551781Y-31772D01*
X556779D02*
X557779Y-30773D01*
X559778D01*
X560778Y-31772D01*
Y-35771D01*
X559778Y-36771D01*
X557779D01*
X556779Y-35771D01*
Y-31772D01*
X563777Y-37770D02*
X564777Y-36771D01*
Y-35771D01*
X563777D01*
Y-36771D01*
X564777D01*
X563777Y-37770D01*
X562778Y-38770D01*
X568776Y-31772D02*
X569775Y-30773D01*
X571775D01*
X572774Y-31772D01*
Y-35771D01*
X571775Y-36771D01*
X569775D01*
X568776Y-35771D01*
Y-31772D01*
X574774D02*
X575773Y-30773D01*
X577773D01*
X578772Y-31772D01*
Y-35771D01*
X577773Y-36771D01*
X575773D01*
X574774Y-35771D01*
Y-31772D01*
X266410Y-34802D02*
X262411D01*
X266410Y-30803D01*
Y-29804D01*
X265410Y-28804D01*
X263411D01*
X262411Y-29804D01*
X269409Y-35802D02*
X270408Y-34802D01*
Y-33803D01*
X269409D01*
Y-34802D01*
X270408D01*
X269409Y-35802D01*
X268409Y-36802D01*
X274407Y-29804D02*
X275407Y-28804D01*
X277406D01*
X278406Y-29804D01*
Y-33803D01*
X277406Y-34802D01*
X275407D01*
X274407Y-33803D01*
Y-29804D01*
X280405D02*
X281405Y-28804D01*
X283404D01*
X284404Y-29804D01*
Y-33803D01*
X283404Y-34802D01*
X281405D01*
X280405Y-33803D01*
Y-29804D01*
D104*
X-27575Y273622D02*
X-5118D01*
X-27575Y539370D02*
X-5118D01*
X-26575Y273622D02*
Y389301D01*
Y420492D02*
Y539370D01*
Y273622D02*
X-24575Y279622D01*
X-28575D02*
X-26575Y273622D01*
X-28575Y533370D02*
X-26575Y539370D01*
X-24575Y533370D01*
X-27575Y265748D02*
X-5118D01*
X-27575Y273622D02*
X-5118D01*
X-26575D02*
Y283622D01*
Y255748D02*
Y265748D01*
Y273622D02*
X-24575Y279622D01*
X-28575D02*
X-26575Y273622D01*
X-28575Y259748D02*
X-26575Y265748D01*
X-24575Y259748D01*
X547244Y-22654D02*
Y-9154D01*
X277559Y-22654D02*
Y-9055D01*
X426397Y-21654D02*
X547244D01*
X277559D02*
X395206D01*
X541244Y-19654D02*
X547244Y-21654D01*
X541244Y-23654D02*
X547244Y-21654D01*
X277559D02*
X283559Y-23654D01*
X277559Y-21654D02*
X283559Y-19654D01*
X586614Y-22654D02*
Y6890D01*
X547244Y-22654D02*
Y-9154D01*
X566929Y-21654D02*
X586614D01*
X547244D02*
X566929D01*
X580614Y-19654D02*
X586614Y-21654D01*
X580614Y-23654D02*
X586614Y-21654D01*
X547244D02*
X553244Y-23654D01*
X547244Y-21654D02*
X553244Y-19654D01*
X269685Y-22654D02*
Y-9055D01*
X277559Y-22654D02*
Y-9055D01*
X269685Y-21654D02*
X273622D01*
X277559D01*
X269685D02*
X275685Y-23653D01*
X269685Y-21654D02*
X275685Y-19654D01*
X271559D02*
X277559Y-21654D01*
X271559Y-23653D02*
X277559Y-21654D01*
X549305Y591535D02*
X545306D01*
X543307Y589536D01*
X545306Y587537D01*
X549305D01*
X546306Y585537D02*
Y581539D01*
X548306Y575541D02*
X549305Y576540D01*
Y578540D01*
X548306Y579539D01*
X544307D01*
X543307Y578540D01*
Y576540D01*
X544307Y575541D01*
X549305Y573541D02*
X544307D01*
X543307Y572542D01*
Y570542D01*
X544307Y569543D01*
X549305D01*
Y567543D02*
Y563545D01*
Y565544D01*
X543307D01*
X275652Y640733D02*
Y638733D01*
X274653Y637734D01*
X271654D01*
Y640733D01*
X272653Y641732D01*
X273653Y640733D01*
Y637734D01*
X277652Y631736D02*
X271654D01*
Y634734D01*
X272653Y635734D01*
X274653D01*
X275652Y634734D01*
Y631736D01*
X277652Y625737D02*
X271654D01*
Y628736D01*
X272653Y629736D01*
X274653D01*
X275652Y628736D01*
Y625737D01*
X271654Y617740D02*
X275652D01*
Y616740D01*
X274653Y615741D01*
X271654D01*
X274653D01*
X275652Y614741D01*
X274653Y613741D01*
X271654D01*
Y610742D02*
Y608743D01*
X272653Y607743D01*
X274653D01*
X275652Y608743D01*
Y610742D01*
X274653Y611742D01*
X272653D01*
X271654Y610742D01*
X275652Y605744D02*
X272653D01*
X271654Y604744D01*
Y601745D01*
X275652D01*
X271654Y599746D02*
Y596747D01*
X272653Y595747D01*
X273653Y596747D01*
Y598746D01*
X274653Y599746D01*
X275652Y598746D01*
Y595747D01*
X271654Y590749D02*
Y592748D01*
X272653Y593748D01*
X274653D01*
X275652Y592748D01*
Y590749D01*
X274653Y589749D01*
X273653D01*
Y593748D01*
X277652Y587750D02*
X271654D01*
Y584751D01*
X272653Y583751D01*
X273653D01*
X274653D01*
X275652Y584751D01*
Y587750D01*
X271654Y581752D02*
Y579752D01*
Y580752D01*
X275652D01*
Y581752D01*
X276652Y575754D02*
X275652D01*
Y576753D01*
Y574754D01*
Y575754D01*
X272653D01*
X271654Y574754D01*
Y568756D02*
Y570755D01*
X272653Y571755D01*
X274653D01*
X275652Y570755D01*
Y568756D01*
X274653Y567756D01*
X273653D01*
Y571755D01*
X271654Y565757D02*
Y562758D01*
X272653Y561758D01*
X273653Y562758D01*
Y564757D01*
X274653Y565757D01*
X275652Y564757D01*
Y561758D01*
X-150575Y271715D02*
X-148576D01*
X-147576Y270715D01*
Y267717D01*
X-150575D01*
X-151575Y268716D01*
X-150575Y269716D01*
X-147576D01*
X-141578Y273714D02*
Y267717D01*
X-144577D01*
X-145577Y268716D01*
Y270715D01*
X-144577Y271715D01*
X-141578D01*
X-135580Y273714D02*
Y267717D01*
X-138579D01*
X-139579Y268716D01*
Y270715D01*
X-138579Y271715D01*
X-135580D01*
X-127583Y267717D02*
Y271715D01*
X-126583D01*
X-125583Y270715D01*
Y267717D01*
Y270715D01*
X-124583Y271715D01*
X-123584Y270715D01*
Y267717D01*
X-120585D02*
X-118585D01*
X-117586Y268716D01*
Y270715D01*
X-118585Y271715D01*
X-120585D01*
X-121584Y270715D01*
Y268716D01*
X-120585Y267717D01*
X-115586Y271715D02*
Y268716D01*
X-114587Y267717D01*
X-111588D01*
Y271715D01*
X-109588Y267717D02*
X-106589D01*
X-105590Y268716D01*
X-106589Y269716D01*
X-108589D01*
X-109588Y270715D01*
X-108589Y271715D01*
X-105590D01*
X-100591Y267717D02*
X-102591D01*
X-103590Y268716D01*
Y270715D01*
X-102591Y271715D01*
X-100591D01*
X-99592Y270715D01*
Y269716D01*
X-103590D01*
X-97592Y273714D02*
Y267717D01*
X-94593D01*
X-93594Y268716D01*
Y269716D01*
Y270715D01*
X-94593Y271715D01*
X-97592D01*
X-91594Y267717D02*
X-89595D01*
X-90595D01*
Y271715D01*
X-91594D01*
X-85596Y272715D02*
Y271715D01*
X-86596D01*
X-84597D01*
X-85596D01*
Y268716D01*
X-84597Y267717D01*
X-78598D02*
X-80598D01*
X-81597Y268716D01*
Y270715D01*
X-80598Y271715D01*
X-78598D01*
X-77599Y270715D01*
Y269716D01*
X-81597D01*
X-75599Y267717D02*
X-72600D01*
X-71601Y268716D01*
X-72600Y269716D01*
X-74600D01*
X-75599Y270715D01*
X-74600Y271715D01*
X-71601D01*
M02*
