G04*
G04 #@! TF.GenerationSoftware,Altium Limited,Altium Designer,24.4.0 (9)*
G04*
G04 Layer_Color=8388736*
%FSLAX25Y25*%
%MOIN*%
G70*
G04*
G04 #@! TF.SameCoordinates,65D136BF-7807-4BE3-8BD7-7ED8223B60D1*
G04*
G04*
G04 #@! TF.FilePolarity,Negative*
G04*
G01*
G75*
%ADD15C,0.00394*%
%ADD38R,0.07480X0.08661*%
%ADD39R,0.12598X0.04331*%
%ADD40R,0.05197X0.05315*%
%ADD41C,0.03492*%
%ADD42R,0.04724X0.04331*%
%ADD43R,0.03937X0.01968*%
%ADD44R,0.06102X0.01575*%
%ADD45R,0.06299X0.05512*%
%ADD46R,0.04331X0.04724*%
%ADD47O,0.09055X0.02756*%
%ADD48R,0.04331X0.05512*%
%ADD49R,0.05512X0.06299*%
%ADD50R,0.04331X0.03740*%
%ADD51R,0.04331X0.03740*%
%ADD52C,0.02362*%
%ADD53R,0.01968X0.04331*%
%ADD54O,0.02756X0.09055*%
%ADD55R,0.06299X0.03543*%
%ADD56R,0.08268X0.05906*%
%ADD57R,0.04921X0.02756*%
%ADD58R,0.05512X0.04331*%
%ADD59R,0.06693X0.07480*%
%ADD60R,0.03937X0.08268*%
%ADD61R,0.20079X0.20079*%
%ADD62C,0.10150*%
%ADD63C,0.04702*%
%ADD64C,0.02953*%
%ADD65O,0.08661X0.04331*%
%ADD66O,0.06693X0.04331*%
%ADD67R,0.07480X0.07480*%
%ADD68C,0.07480*%
%ADD69C,0.29528*%
%ADD70R,0.07480X0.07480*%
%ADD71R,0.06299X0.06299*%
%ADD72C,0.06299*%
%ADD73R,0.08268X0.08268*%
G04:AMPARAMS|DCode=74|XSize=82.68mil|YSize=82.68mil|CornerRadius=21.65mil|HoleSize=0mil|Usage=FLASHONLY|Rotation=180.000|XOffset=0mil|YOffset=0mil|HoleType=Round|Shape=RoundedRectangle|*
%AMROUNDEDRECTD74*
21,1,0.08268,0.03937,0,0,180.0*
21,1,0.03937,0.08268,0,0,180.0*
1,1,0.04331,-0.01968,0.01968*
1,1,0.04331,0.01968,0.01968*
1,1,0.04331,0.01968,-0.01968*
1,1,0.04331,-0.01968,-0.01968*
%
%ADD74ROUNDEDRECTD74*%
%ADD75R,0.06299X0.06299*%
G04:AMPARAMS|DCode=76|XSize=63.94mil|YSize=63.94mil|CornerRadius=16.97mil|HoleSize=0mil|Usage=FLASHONLY|Rotation=270.000|XOffset=0mil|YOffset=0mil|HoleType=Round|Shape=RoundedRectangle|*
%AMROUNDEDRECTD76*
21,1,0.06394,0.03000,0,0,270.0*
21,1,0.03000,0.06394,0,0,270.0*
1,1,0.03394,-0.01500,-0.01500*
1,1,0.03394,-0.01500,0.01500*
1,1,0.03394,0.01500,0.01500*
1,1,0.03394,0.01500,-0.01500*
%
%ADD76ROUNDEDRECTD76*%
%ADD77C,0.06394*%
%ADD78C,0.24410*%
G36*
X122716Y231968D02*
X122677Y231624D01*
X122772Y230939D01*
X123090Y230325D01*
X123593Y229851D01*
X123898Y229685D01*
X124269Y229759D01*
X125004Y229576D01*
X125590Y229095D01*
X125915Y228410D01*
X125915Y227653D01*
X125590Y226968D01*
X125004Y226487D01*
X124269Y226304D01*
X123898Y226378D01*
X123590Y226207D01*
X123083Y225724D01*
X122766Y225100D01*
X122674Y224405D01*
X122717Y224056D01*
X121437Y224056D01*
Y231968D01*
X122716Y231968D01*
D02*
G37*
G36*
X128524Y224095D02*
X126555D01*
X123507Y224095D01*
X123501Y224352D01*
X123648Y224844D01*
X123938Y225268D01*
X124345Y225582D01*
X124587Y225669D01*
X124587Y225669D01*
X125006Y225761D01*
X125764Y226161D01*
X126330Y226803D01*
X126633Y227603D01*
X126633Y228460D01*
X126330Y229260D01*
X125764Y229902D01*
X125007Y230302D01*
X124587Y230394D01*
X124587Y230394D01*
X124345Y230481D01*
X123938Y230795D01*
X123648Y231219D01*
X123502Y231712D01*
X123507Y231968D01*
X123507Y231968D01*
X126555Y231968D01*
X128524D01*
Y224095D01*
D02*
G37*
G36*
X122717Y224056D02*
X122717D01*
D01*
X122717D01*
D02*
G37*
G36*
X37795Y224448D02*
X37795Y216535D01*
X36516D01*
X36556Y216880D01*
X36460Y217565D01*
X36143Y218179D01*
X35639Y218653D01*
X35335Y218819D01*
X35335Y218819D01*
X34963Y218745D01*
X34228Y218928D01*
X33642Y219409D01*
X33318Y220094D01*
X33318Y220851D01*
X33642Y221536D01*
X34228Y222017D01*
X34963Y222200D01*
X35335Y222126D01*
Y222126D01*
X35642Y222297D01*
X36149Y222780D01*
X36467Y223404D01*
X36559Y224099D01*
X36516Y224448D01*
Y224448D01*
X37795Y224448D01*
D02*
G37*
G36*
X35725Y224409D02*
X35731Y224152D01*
X35585Y223660D01*
X35294Y223236D01*
X34887Y222922D01*
X34646Y222835D01*
X34646Y222835D01*
X34226Y222743D01*
X33469Y222343D01*
X32902Y221701D01*
X32599Y220901D01*
X32599Y220044D01*
X32902Y219244D01*
X33469Y218602D01*
X34226Y218202D01*
X34646Y218110D01*
X34646Y218110D01*
X34887Y218023D01*
X35294Y217709D01*
X35584Y217285D01*
X35731Y216792D01*
X35725Y216536D01*
X35725Y216536D01*
X32677Y216535D01*
X30709D01*
Y224410D01*
X32677D01*
X35725Y224409D01*
D02*
G37*
G36*
X122716Y221969D02*
X122677Y221624D01*
X122772Y220939D01*
X123090Y220325D01*
X123593Y219851D01*
X123898Y219685D01*
X124269Y219759D01*
X125004Y219576D01*
X125590Y219095D01*
X125915Y218410D01*
X125915Y217653D01*
X125590Y216968D01*
X125004Y216487D01*
X124269Y216304D01*
X123898Y216378D01*
X123590Y216207D01*
X123083Y215724D01*
X122766Y215100D01*
X122674Y214405D01*
X122717Y214056D01*
X121437Y214056D01*
Y221969D01*
X122716Y221969D01*
D02*
G37*
G36*
X128524Y214094D02*
X126555D01*
X123507Y214095D01*
X123501Y214352D01*
X123648Y214844D01*
X123938Y215268D01*
X124345Y215582D01*
X124587Y215669D01*
X124587Y215669D01*
X125006Y215761D01*
X125764Y216161D01*
X126330Y216803D01*
X126633Y217603D01*
X126633Y218460D01*
X126330Y219260D01*
X125764Y219902D01*
X125007Y220302D01*
X124587Y220394D01*
X124587Y220394D01*
X124345Y220481D01*
X123938Y220795D01*
X123648Y221219D01*
X123502Y221711D01*
X123507Y221968D01*
X123507Y221968D01*
X126555Y221969D01*
X128524D01*
Y214094D01*
D02*
G37*
G36*
X122717Y214056D02*
X122717D01*
D01*
X122717D01*
D02*
G37*
G36*
X122716Y211968D02*
X122677Y211624D01*
X122772Y210939D01*
X123090Y210325D01*
X123593Y209851D01*
X123898Y209685D01*
X124269Y209759D01*
X125004Y209576D01*
X125590Y209095D01*
X125915Y208410D01*
X125915Y207653D01*
X125590Y206968D01*
X125004Y206487D01*
X124269Y206304D01*
X123898Y206378D01*
X123590Y206207D01*
X123083Y205724D01*
X122766Y205100D01*
X122674Y204405D01*
X122717Y204056D01*
X121437Y204056D01*
Y211968D01*
X122716Y211968D01*
D02*
G37*
G36*
X128524Y204095D02*
X126555D01*
X123507Y204095D01*
X123501Y204351D01*
X123648Y204844D01*
X123938Y205268D01*
X124345Y205582D01*
X124587Y205669D01*
X124587Y205669D01*
X125006Y205761D01*
X125764Y206161D01*
X126330Y206803D01*
X126633Y207603D01*
X126633Y208459D01*
X126330Y209260D01*
X125764Y209902D01*
X125007Y210302D01*
X124587Y210394D01*
X124587Y210394D01*
X124345Y210481D01*
X123938Y210795D01*
X123648Y211219D01*
X123502Y211712D01*
X123507Y211968D01*
X123507Y211968D01*
X126555Y211968D01*
X128524D01*
Y204095D01*
D02*
G37*
G36*
X122717Y204056D02*
X122717D01*
D01*
X122717D01*
D02*
G37*
G36*
X122716Y201969D02*
X122677Y201624D01*
X122772Y200939D01*
X123090Y200325D01*
X123593Y199851D01*
X123898Y199685D01*
X124269Y199759D01*
X125004Y199576D01*
X125590Y199095D01*
X125915Y198410D01*
X125915Y197653D01*
X125590Y196968D01*
X125004Y196487D01*
X124269Y196304D01*
X123898Y196378D01*
X123590Y196207D01*
X123083Y195724D01*
X122766Y195100D01*
X122674Y194405D01*
X122717Y194056D01*
X121437Y194056D01*
Y201969D01*
X122716Y201969D01*
D02*
G37*
G36*
X128524Y194095D02*
X126555D01*
X123507Y194095D01*
X123501Y194351D01*
X123648Y194844D01*
X123938Y195268D01*
X124345Y195582D01*
X124587Y195669D01*
X124587Y195669D01*
X125006Y195761D01*
X125764Y196161D01*
X126330Y196803D01*
X126633Y197603D01*
X126633Y198459D01*
X126330Y199260D01*
X125764Y199902D01*
X125007Y200302D01*
X124587Y200394D01*
X124587Y200394D01*
X124345Y200481D01*
X123938Y200795D01*
X123648Y201219D01*
X123502Y201712D01*
X123507Y201968D01*
X123507Y201968D01*
X126555Y201969D01*
X128524D01*
Y194095D01*
D02*
G37*
G36*
X122717Y194056D02*
X122717D01*
D01*
X122717D01*
D02*
G37*
D15*
X82677Y176102D02*
G03*
X77677Y181102I-5000J0D01*
G01*
Y82677D02*
G03*
X82677Y87677I0J5000D01*
G01*
X147638Y14764D02*
G03*
X122047Y14764I-12795J0D01*
G01*
X122047Y250984D02*
G03*
X147638Y250984I12795J0D01*
G01*
X-0Y6890D02*
Y82677D01*
X-0Y181102D02*
Y258858D01*
X0Y6890D02*
X6890Y0D01*
X0Y258858D02*
X6890Y265748D01*
X-0Y82677D02*
X77677Y82677D01*
X-0Y181102D02*
X77677Y181102D01*
X6890Y-0D02*
X122047D01*
X6890Y265748D02*
X122047D01*
X82677Y87677D02*
Y176102D01*
X122047Y-0D02*
Y14764D01*
X122047Y250984D02*
Y265748D01*
X147638Y-0D02*
Y14764D01*
X147638Y250984D02*
Y265748D01*
X147638Y-0D02*
X262795Y-0D01*
X147638Y265748D02*
X262795Y265748D01*
X262795Y265748D02*
X269685Y258858D01*
X262795Y0D02*
X269685Y6890D01*
X269685Y258858D01*
X269685D02*
X269685D01*
D38*
X124980Y228031D02*
D03*
X124980Y218032D02*
D03*
X124980Y208032D02*
D03*
X124980Y198029D02*
D03*
X34252Y220474D02*
D03*
D39*
X135433Y208032D02*
D03*
Y218032D02*
D03*
X114173Y208032D02*
D03*
Y218032D02*
D03*
X135433Y228031D02*
D03*
X114173D02*
D03*
X135433Y198031D02*
D03*
X114173D02*
D03*
D03*
X135433D02*
D03*
D40*
X113189Y19783D02*
D03*
Y31398D02*
D03*
X9843Y62894D02*
D03*
Y51279D02*
D03*
D41*
X229410Y117578D02*
D03*
X224410D02*
D03*
X219409D02*
D03*
Y122578D02*
D03*
X224410D02*
D03*
X229410D02*
D03*
D42*
X134252Y77756D02*
D03*
X127559Y77756D02*
D03*
X134252Y140748D02*
D03*
X127559Y140748D02*
D03*
X134252Y109252D02*
D03*
X127559Y109252D02*
D03*
X134252Y125000D02*
D03*
X127559Y125000D02*
D03*
Y93504D02*
D03*
X134252D02*
D03*
X134252Y156496D02*
D03*
X127559D02*
D03*
X134252Y172244D02*
D03*
X127559Y172244D02*
D03*
X134252Y62008D02*
D03*
X127559D02*
D03*
X251378Y99409D02*
D03*
X244685Y99409D02*
D03*
X257481Y99410D02*
D03*
X264174Y99410D02*
D03*
X250393Y40354D02*
D03*
X243701Y40354D02*
D03*
X225984Y69882D02*
D03*
X232677Y69882D02*
D03*
X67323Y255906D02*
D03*
X60630Y250591D02*
D03*
X60630Y245275D02*
D03*
X60630Y229330D02*
D03*
X67322Y229330D02*
D03*
X243701Y33464D02*
D03*
X100787Y35433D02*
D03*
X250393Y47244D02*
D03*
X237598Y234252D02*
D03*
X60630Y255906D02*
D03*
X67323Y250591D02*
D03*
X67322Y245275D02*
D03*
X215945Y45276D02*
D03*
X209252D02*
D03*
X250393Y33464D02*
D03*
X195472Y45275D02*
D03*
X202165D02*
D03*
X94094Y35433D02*
D03*
X243701Y47244D02*
D03*
X230905Y234252D02*
D03*
D43*
X127559Y146063D02*
D03*
Y151181D02*
D03*
X136221D02*
D03*
X136221Y148622D02*
D03*
Y146063D02*
D03*
X127559Y130315D02*
D03*
Y135433D02*
D03*
X136221D02*
D03*
Y132874D02*
D03*
Y130315D02*
D03*
X127559Y114567D02*
D03*
Y119685D02*
D03*
X136221D02*
D03*
X136221Y117126D02*
D03*
X136221Y114567D02*
D03*
X127559Y98819D02*
D03*
X127559Y103937D02*
D03*
X136221D02*
D03*
Y101378D02*
D03*
X136221Y98819D02*
D03*
X127559Y88189D02*
D03*
Y83071D02*
D03*
X136221Y88189D02*
D03*
Y83071D02*
D03*
X136221Y85630D02*
D03*
X136221Y177559D02*
D03*
Y182677D02*
D03*
X127559D02*
D03*
Y177559D02*
D03*
X136221Y180118D02*
D03*
Y161811D02*
D03*
X136221Y166929D02*
D03*
X127559D02*
D03*
X127559Y161811D02*
D03*
X136221Y164370D02*
D03*
X127559Y72441D02*
D03*
Y67323D02*
D03*
X136221Y72441D02*
D03*
Y67323D02*
D03*
X136221Y69882D02*
D03*
X69291Y237008D02*
D03*
X60630Y234449D02*
D03*
X69291Y239567D02*
D03*
Y234449D02*
D03*
X60630Y239567D02*
D03*
D44*
X245876Y67913D02*
D03*
Y79724D02*
D03*
X245876Y81693D02*
D03*
X245876Y69882D02*
D03*
X245876Y62697D02*
D03*
Y65945D02*
D03*
Y71850D02*
D03*
Y77756D02*
D03*
Y83661D02*
D03*
Y86910D02*
D03*
Y88090D02*
D03*
Y84842D02*
D03*
Y75787D02*
D03*
Y73819D02*
D03*
Y64764D02*
D03*
Y61516D02*
D03*
D45*
X84646Y20472D02*
D03*
Y12992D02*
D03*
Y35236D02*
D03*
Y27756D02*
D03*
X35433Y26772D02*
D03*
Y34252D02*
D03*
X182087Y52953D02*
D03*
Y45472D02*
D03*
D46*
X122048Y151968D02*
D03*
X122048Y145275D02*
D03*
X122048Y136220D02*
D03*
X122048Y129527D02*
D03*
Y120472D02*
D03*
Y113779D02*
D03*
X122048Y104724D02*
D03*
X122048Y98031D02*
D03*
X205709Y239567D02*
D03*
X205709Y232874D02*
D03*
X211614Y239567D02*
D03*
X211614Y232874D02*
D03*
X217520Y239567D02*
D03*
Y232874D02*
D03*
X223426Y239567D02*
D03*
X223426Y232874D02*
D03*
X81889Y233662D02*
D03*
X122048Y176771D02*
D03*
X188976Y125591D02*
D03*
X146653Y45867D02*
D03*
X123031Y52559D02*
D03*
Y45867D02*
D03*
X188977Y53543D02*
D03*
X216536Y258267D02*
D03*
X122048Y161023D02*
D03*
X81889Y240355D02*
D03*
X122048Y167716D02*
D03*
Y183464D02*
D03*
X122048Y88976D02*
D03*
Y82283D02*
D03*
X175197Y142323D02*
D03*
Y149016D02*
D03*
X161417Y142323D02*
D03*
X161417Y149016D02*
D03*
X188976Y132284D02*
D03*
X122048Y73228D02*
D03*
X122048Y66535D02*
D03*
X146653Y52559D02*
D03*
X188977Y46850D02*
D03*
X222441Y258267D02*
D03*
Y251574D02*
D03*
X216536D02*
D03*
D47*
X198228Y60335D02*
D03*
Y55335D02*
D03*
Y65335D02*
D03*
Y70335D02*
D03*
Y75335D02*
D03*
Y80335D02*
D03*
Y90335D02*
D03*
Y85335D02*
D03*
X217126Y90335D02*
D03*
Y75335D02*
D03*
Y80335D02*
D03*
Y85335D02*
D03*
Y70335D02*
D03*
Y65335D02*
D03*
Y60335D02*
D03*
X217126Y55335D02*
D03*
D48*
X256693Y47244D02*
D03*
X264961D02*
D03*
Y40354D02*
D03*
X256693D02*
D03*
Y33465D02*
D03*
X264961D02*
D03*
D49*
X234055Y62992D02*
D03*
X226575D02*
D03*
X237992Y242126D02*
D03*
X230512Y242126D02*
D03*
D50*
X188779Y73032D02*
D03*
X179331Y76772D02*
D03*
X188779Y59252D02*
D03*
X179331Y62992D02*
D03*
X102165Y21850D02*
D03*
X92716Y25591D02*
D03*
D51*
X188779Y80512D02*
D03*
Y66732D02*
D03*
X102165Y29331D02*
D03*
D52*
X123799Y228031D02*
D03*
Y218032D02*
D03*
Y208032D02*
D03*
Y198031D02*
D03*
X35433Y220472D02*
D03*
D53*
X127736Y228031D02*
D03*
Y218032D02*
D03*
Y208032D02*
D03*
Y198031D02*
D03*
X31496Y220472D02*
D03*
D54*
X48760Y252559D02*
D03*
X43760D02*
D03*
X53760Y233661D02*
D03*
X38760D02*
D03*
X53760Y252559D02*
D03*
X38760D02*
D03*
X48760Y233661D02*
D03*
X43760D02*
D03*
D55*
X173228Y118032D02*
D03*
Y123031D02*
D03*
Y128032D02*
D03*
D56*
X204724Y11811D02*
D03*
X232283D02*
D03*
X159449D02*
D03*
X187008D02*
D03*
X204724Y23622D02*
D03*
X232283D02*
D03*
X159449D02*
D03*
X187008D02*
D03*
D57*
X130217Y45472D02*
D03*
Y49213D02*
D03*
Y52953D02*
D03*
X139469D02*
D03*
X139469Y45472D02*
D03*
D58*
X168307Y148819D02*
D03*
Y140551D02*
D03*
D59*
X49606Y220472D02*
D03*
X60630D02*
D03*
D60*
X148228Y157480D02*
D03*
X153228Y157480D02*
D03*
X158228D02*
D03*
X163228D02*
D03*
X168220Y157480D02*
D03*
X238221Y157480D02*
D03*
X233221D02*
D03*
X228221D02*
D03*
X223220D02*
D03*
X218220Y157480D02*
D03*
X213221Y157480D02*
D03*
X208221D02*
D03*
X203221D02*
D03*
X198221D02*
D03*
X193220Y157480D02*
D03*
X188221Y157480D02*
D03*
X183221D02*
D03*
X178220D02*
D03*
X173221D02*
D03*
X168220Y224410D02*
D03*
X163228D02*
D03*
X158228D02*
D03*
X153228D02*
D03*
X148228D02*
D03*
X173221D02*
D03*
X178220D02*
D03*
X183221D02*
D03*
X188221Y224410D02*
D03*
X193220Y224410D02*
D03*
X198221D02*
D03*
X203221D02*
D03*
X208221D02*
D03*
X213221Y224410D02*
D03*
X218220Y224410D02*
D03*
X223220D02*
D03*
X228221D02*
D03*
X233221D02*
D03*
X238221Y224410D02*
D03*
D61*
X208699Y194882D02*
D03*
D62*
X234409Y110076D02*
D03*
X221909D02*
D03*
X234409Y130079D02*
D03*
X221909D02*
D03*
D63*
X214409Y116077D02*
D03*
Y124077D02*
D03*
X234409Y120078D02*
D03*
D64*
X251567Y63425D02*
D03*
Y86181D02*
D03*
D65*
X249478Y91811D02*
D03*
Y57795D02*
D03*
D66*
X265935Y91811D02*
D03*
Y57795D02*
D03*
D67*
X104331Y178150D02*
D03*
Y136811D02*
D03*
Y150591D02*
D03*
Y109252D02*
D03*
D68*
Y164370D02*
D03*
Y123031D02*
D03*
Y136811D02*
D03*
Y123031D02*
D03*
X40354Y192913D02*
D03*
X54134D02*
D03*
X104331Y95473D02*
D03*
Y81693D02*
D03*
X50039Y30512D02*
D03*
X60039D02*
D03*
X70039D02*
D03*
D69*
X16732Y14764D02*
D03*
X16732Y250984D02*
D03*
D70*
X26575Y192913D02*
D03*
D71*
X119764Y228031D02*
D03*
D72*
X129764D02*
D03*
X119764Y218032D02*
D03*
X129764D02*
D03*
X119764Y208032D02*
D03*
X129764D02*
D03*
X119764Y198031D02*
D03*
X129764Y198031D02*
D03*
X204882Y248031D02*
D03*
X194882Y258032D02*
D03*
Y248031D02*
D03*
X184882D02*
D03*
X184882Y258032D02*
D03*
X29528Y220472D02*
D03*
X223740Y36220D02*
D03*
X213740D02*
D03*
X203740D02*
D03*
X193740D02*
D03*
X183740D02*
D03*
D73*
X71181Y55118D02*
D03*
X51181D02*
D03*
D74*
D03*
X31181D02*
D03*
D03*
D75*
X204882Y258032D02*
D03*
X233740Y36220D02*
D03*
X39528Y220472D02*
D03*
D76*
X180118Y113031D02*
D03*
D77*
Y133031D02*
D03*
Y123031D02*
D03*
D78*
X252953Y250984D02*
D03*
X252953Y14764D02*
D03*
M02*
