G04*
G04 #@! TF.GenerationSoftware,Altium Limited,Altium Designer,24.4.0 (9)*
G04*
G04 Layer_Physical_Order=2*
G04 Layer_Color=3381759*
%FSLAX25Y25*%
%MOIN*%
G70*
G04*
G04 #@! TF.SameCoordinates,65D136BF-7807-4BE3-8BD7-7ED8223B60D1*
G04*
G04*
G04 #@! TF.FilePolarity,Positive*
G04*
G01*
G75*
%ADD10C,0.00591*%
%ADD12C,0.01968*%
%ADD14C,0.00984*%
%ADD15C,0.00394*%
%ADD18R,0.07874X0.07874*%
%ADD85C,0.09350*%
%ADD86C,0.03902*%
%ADD87C,0.02559*%
%ADD88O,0.08268X0.03937*%
%ADD89O,0.06299X0.03937*%
%ADD90R,0.07087X0.07087*%
%ADD91C,0.07087*%
%ADD93R,0.07087X0.07087*%
%ADD94R,0.05906X0.05906*%
%ADD95C,0.05906*%
G04:AMPARAMS|DCode=96|XSize=78.74mil|YSize=78.74mil|CornerRadius=19.68mil|HoleSize=0mil|Usage=FLASHONLY|Rotation=180.000|XOffset=0mil|YOffset=0mil|HoleType=Round|Shape=RoundedRectangle|*
%AMROUNDEDRECTD96*
21,1,0.07874,0.03937,0,0,180.0*
21,1,0.03937,0.07874,0,0,180.0*
1,1,0.03937,-0.01968,0.01968*
1,1,0.03937,0.01968,0.01968*
1,1,0.03937,0.01968,-0.01968*
1,1,0.03937,-0.01968,-0.01968*
%
%ADD96ROUNDEDRECTD96*%
%ADD97R,0.05906X0.05906*%
G04:AMPARAMS|DCode=98|XSize=60mil|YSize=60mil|CornerRadius=15mil|HoleSize=0mil|Usage=FLASHONLY|Rotation=270.000|XOffset=0mil|YOffset=0mil|HoleType=Round|Shape=RoundedRectangle|*
%AMROUNDEDRECTD98*
21,1,0.06000,0.03000,0,0,270.0*
21,1,0.03000,0.06000,0,0,270.0*
1,1,0.03000,-0.01500,-0.01500*
1,1,0.03000,-0.01500,0.01500*
1,1,0.03000,0.01500,0.01500*
1,1,0.03000,0.01500,-0.01500*
%
%ADD98ROUNDEDRECTD98*%
%ADD99C,0.06000*%
%ADD100C,0.12598*%
%ADD101C,0.02756*%
G36*
X242078Y263741D02*
Y258683D01*
X241070Y257039D01*
X240269Y255105D01*
X239781Y253070D01*
X239616Y250984D01*
X239781Y248898D01*
X240269Y246863D01*
X241070Y244930D01*
X242078Y243285D01*
Y227134D01*
X242007Y227087D01*
X241790Y226762D01*
X241713Y226378D01*
Y155512D01*
X241790Y155128D01*
X242007Y154802D01*
X242078Y154755D01*
Y143701D01*
Y140511D01*
X242103Y140451D01*
X242090Y140386D01*
X242474Y138454D01*
X242511Y138400D01*
Y138335D01*
X243264Y136515D01*
X243311Y136468D01*
X243323Y136404D01*
X244418Y134766D01*
X244472Y134730D01*
X244497Y134669D01*
X245890Y133277D01*
X245951Y133252D01*
X245987Y133197D01*
X247625Y132103D01*
X247689Y132090D01*
X247735Y132044D01*
X249555Y131290D01*
X249621D01*
X249675Y131253D01*
X251607Y130869D01*
X251671Y130882D01*
X251732Y130857D01*
X267678D01*
Y95298D01*
X267116Y94805D01*
X266435D01*
Y91811D01*
Y88817D01*
X266694D01*
X267678Y88065D01*
Y61282D01*
X267116Y60789D01*
X266435D01*
Y57795D01*
Y54801D01*
X266694D01*
X267678Y54050D01*
Y7721D01*
X261964Y2007D01*
X259419D01*
X259263Y2338D01*
X259187Y2991D01*
X260792Y3974D01*
X262383Y5333D01*
X263742Y6925D01*
X264836Y8709D01*
X265636Y10643D01*
X266125Y12677D01*
X266289Y14764D01*
X266125Y16850D01*
X265636Y18885D01*
X264836Y20818D01*
X263742Y22603D01*
X262383Y24194D01*
X260792Y25553D01*
X259007Y26647D01*
X257074Y27447D01*
X255039Y27936D01*
X252953Y28100D01*
X250867Y27936D01*
X248832Y27447D01*
X246898Y26647D01*
X245114Y25553D01*
X243523Y24194D01*
X242163Y22603D01*
X241070Y20818D01*
X240269Y18885D01*
X239781Y16850D01*
X239616Y14764D01*
X239781Y12677D01*
X240269Y10643D01*
X241070Y8709D01*
X242163Y6925D01*
X243523Y5333D01*
X245114Y3974D01*
X246718Y2991D01*
X246642Y2338D01*
X246486Y2007D01*
X149645Y2007D01*
Y14764D01*
X149637Y14803D01*
X149643Y14842D01*
X149604Y15846D01*
X149576Y15962D01*
X149581Y16082D01*
X149267Y18065D01*
X149212Y18214D01*
X149193Y18371D01*
X148573Y20280D01*
X148495Y20419D01*
X148452Y20571D01*
X147541Y22360D01*
X147442Y22485D01*
X147376Y22629D01*
X146196Y24253D01*
X146079Y24361D01*
X145991Y24493D01*
X144572Y25912D01*
X144440Y26001D01*
X144332Y26117D01*
X142708Y27297D01*
X142564Y27364D01*
X142439Y27462D01*
X140650Y28373D01*
X140498Y28416D01*
X140359Y28494D01*
X138450Y29114D01*
X138292Y29133D01*
X138144Y29188D01*
X136160Y29502D01*
X136002Y29496D01*
X135846Y29527D01*
X133839D01*
X133683Y29496D01*
X133525Y29502D01*
X131542Y29188D01*
X131393Y29133D01*
X131235Y29114D01*
X129326Y28494D01*
X129187Y28416D01*
X129035Y28373D01*
X127246Y27462D01*
X127121Y27364D01*
X126977Y27297D01*
X125353Y26117D01*
X125245Y26001D01*
X125113Y25912D01*
X123694Y24493D01*
X123606Y24361D01*
X123489Y24253D01*
X122309Y22629D01*
X122243Y22485D01*
X122144Y22360D01*
X121233Y20571D01*
X121190Y20419D01*
X121112Y20280D01*
X120492Y18371D01*
X120473Y18214D01*
X120419Y18065D01*
X120104Y16082D01*
X120109Y15962D01*
X120081Y15846D01*
X120042Y14842D01*
X120048Y14803D01*
X120040Y14764D01*
Y2007D01*
X7721Y2007D01*
X2007Y7721D01*
X2007Y80670D01*
X77677Y80670D01*
X77726Y80680D01*
X77776Y80673D01*
X78266Y80697D01*
X78410Y80733D01*
X78559D01*
X79520Y80924D01*
X79703Y81000D01*
X79897Y81038D01*
X80802Y81413D01*
X80967Y81523D01*
X81149Y81599D01*
X81964Y82143D01*
X82104Y82283D01*
X82268Y82393D01*
X82961Y83086D01*
X83071Y83250D01*
X83211Y83390D01*
X83755Y84205D01*
X83831Y84388D01*
X83941Y84552D01*
X84316Y85458D01*
X84355Y85652D01*
X84430Y85834D01*
X84622Y86796D01*
Y86944D01*
X84658Y87089D01*
X84682Y87579D01*
X84674Y87628D01*
X84684Y87677D01*
X84684Y176102D01*
X84674Y176151D01*
X84682Y176201D01*
X84658Y176691D01*
X84622Y176835D01*
Y176984D01*
X84430Y177945D01*
X84355Y178128D01*
X84316Y178322D01*
X83941Y179227D01*
X83831Y179392D01*
X83755Y179574D01*
X83211Y180389D01*
X83071Y180529D01*
X82961Y180693D01*
X82268Y181387D01*
X82104Y181496D01*
X81964Y181636D01*
X81149Y182181D01*
X80967Y182256D01*
X80802Y182366D01*
X79897Y182741D01*
X79703Y182780D01*
X79520Y182855D01*
X78559Y183047D01*
X78410D01*
X78266Y183083D01*
X77776Y183107D01*
X77726Y183100D01*
X77677Y183109D01*
X2007D01*
X2007Y258027D01*
X7721Y263741D01*
X120040D01*
Y250984D01*
X120048Y250945D01*
X120042Y250905D01*
X120081Y249902D01*
X120109Y249786D01*
X120104Y249666D01*
X120419Y247683D01*
X120473Y247534D01*
X120492Y247377D01*
X121112Y245467D01*
X121190Y245329D01*
X121233Y245177D01*
X122144Y243388D01*
X122243Y243263D01*
X122309Y243119D01*
X123489Y241495D01*
X123606Y241387D01*
X123694Y241255D01*
X125113Y239836D01*
X125245Y239747D01*
X125353Y239631D01*
X126977Y238451D01*
X127121Y238384D01*
X127246Y238286D01*
X129035Y237375D01*
X129187Y237332D01*
X129326Y237254D01*
X131235Y236634D01*
X131393Y236615D01*
X131542Y236560D01*
X133525Y236246D01*
X133683Y236252D01*
X133839Y236221D01*
X135846D01*
X136002Y236252D01*
X136160Y236246D01*
X138144Y236560D01*
X138292Y236615D01*
X138450Y236634D01*
X140359Y237254D01*
X140498Y237332D01*
X140650Y237375D01*
X142439Y238286D01*
X142564Y238384D01*
X142708Y238451D01*
X144332Y239631D01*
X144440Y239747D01*
X144572Y239836D01*
X145991Y241255D01*
X146079Y241387D01*
X146196Y241495D01*
X147376Y243119D01*
X147442Y243263D01*
X147541Y243388D01*
X148452Y245177D01*
X148495Y245329D01*
X148573Y245467D01*
X149193Y247377D01*
X149212Y247534D01*
X149267Y247683D01*
X149581Y249666D01*
X149576Y249786D01*
X149604Y249902D01*
X149643Y250905D01*
X149637Y250945D01*
X149645Y250984D01*
Y263741D01*
X242078Y263741D01*
D02*
G37*
%LPC*%
G36*
X105588Y258268D02*
X104648D01*
X103780Y257908D01*
X103115Y257244D01*
X103102Y257210D01*
X93355D01*
X93341Y257244D01*
X92677Y257908D01*
X91808Y258268D01*
X90869D01*
X90000Y257908D01*
X89336Y257244D01*
X88976Y256375D01*
Y255436D01*
X89336Y254567D01*
X90000Y253903D01*
X90869Y253543D01*
X91808D01*
X92677Y253903D01*
X93341Y254567D01*
X93355Y254601D01*
X103102D01*
X103115Y254567D01*
X103780Y253903D01*
X104648Y253543D01*
X105588D01*
X106456Y253903D01*
X107121Y254567D01*
X107480Y255436D01*
Y256375D01*
X107121Y257244D01*
X106456Y257908D01*
X105588Y258268D01*
D02*
G37*
G36*
X208819Y261968D02*
X200945D01*
Y254095D01*
X208819D01*
Y261968D01*
D02*
G37*
G36*
X195400D02*
X194364D01*
X193362Y261700D01*
X192464Y261182D01*
X191732Y260449D01*
X191213Y259551D01*
X190945Y258550D01*
Y257513D01*
X191213Y256512D01*
X191732Y255614D01*
X192464Y254881D01*
X193362Y254363D01*
X194364Y254095D01*
X195400D01*
X196402Y254363D01*
X197299Y254881D01*
X198032Y255614D01*
X198551Y256512D01*
X198819Y257513D01*
Y258550D01*
X198551Y259551D01*
X198032Y260449D01*
X197299Y261182D01*
X196402Y261700D01*
X195400Y261968D01*
D02*
G37*
G36*
X185400D02*
X184364D01*
X183362Y261700D01*
X182465Y261182D01*
X181731Y260449D01*
X181213Y259551D01*
X180945Y258550D01*
Y257513D01*
X181213Y256512D01*
X181731Y255614D01*
X182465Y254881D01*
X183362Y254363D01*
X184364Y254095D01*
X185400D01*
X186401Y254363D01*
X187299Y254881D01*
X188032Y255614D01*
X188551Y256512D01*
X188819Y257513D01*
Y258550D01*
X188551Y259551D01*
X188032Y260449D01*
X187299Y261182D01*
X186401Y261700D01*
X185400Y261968D01*
D02*
G37*
G36*
X185402Y251984D02*
X185382D01*
Y248531D01*
X188835D01*
Y248552D01*
X188565Y249557D01*
X188045Y250459D01*
X187309Y251195D01*
X186408Y251715D01*
X185402Y251984D01*
D02*
G37*
G36*
X184382D02*
X184362D01*
X183356Y251715D01*
X182455Y251195D01*
X181719Y250459D01*
X181199Y249557D01*
X180929Y248552D01*
Y248531D01*
X184382D01*
Y251984D01*
D02*
G37*
G36*
X188835Y247531D02*
X185382D01*
Y244079D01*
X185402D01*
X186408Y244348D01*
X187309Y244868D01*
X188045Y245604D01*
X188565Y246506D01*
X188835Y247511D01*
Y247531D01*
D02*
G37*
G36*
X184382D02*
X180929D01*
Y247511D01*
X181199Y246506D01*
X181719Y245604D01*
X182455Y244868D01*
X183356Y244348D01*
X184362Y244079D01*
X184382D01*
Y247531D01*
D02*
G37*
G36*
X17684Y260646D02*
X17232D01*
Y251484D01*
X26394D01*
Y250984D01*
Y250484D01*
X17232D01*
Y241323D01*
X16232D01*
Y250484D01*
X7071D01*
Y250984D01*
Y251484D01*
X16232D01*
Y260646D01*
X15781D01*
X13914Y260274D01*
X12156Y259546D01*
X10573Y258489D01*
X9228Y257143D01*
X8170Y255561D01*
X7442Y253802D01*
X7071Y251936D01*
Y250033D01*
X7442Y248166D01*
X8170Y246408D01*
X9228Y244825D01*
X10573Y243480D01*
X12156Y242422D01*
X13914Y241694D01*
X15781Y241323D01*
X17684D01*
X19550Y241694D01*
X21309Y242422D01*
X22891Y243480D01*
X24237Y244825D01*
X25294Y246408D01*
X26022Y248166D01*
X26394Y250033D01*
Y251936D01*
X26022Y253802D01*
X25294Y255561D01*
X24237Y257143D01*
X22891Y258489D01*
X21309Y259546D01*
X19550Y260274D01*
X17684Y260646D01*
D02*
G37*
G36*
X108541Y237598D02*
X107601D01*
X106733Y237239D01*
X106068Y236574D01*
X106054Y236541D01*
X100638D01*
X100625Y236574D01*
X99960Y237239D01*
X99092Y237598D01*
X98152D01*
X97284Y237239D01*
X96619Y236574D01*
X96260Y235706D01*
Y234766D01*
X96619Y233898D01*
X97284Y233234D01*
X98152Y232874D01*
X99092D01*
X99960Y233234D01*
X100625Y233898D01*
X100638Y233932D01*
X106054D01*
X106068Y233898D01*
X106733Y233234D01*
X107601Y232874D01*
X108541D01*
X109409Y233234D01*
X110073Y233898D01*
X110433Y234766D01*
Y235706D01*
X110073Y236574D01*
X109409Y237239D01*
X108541Y237598D01*
D02*
G37*
G36*
X123716Y231984D02*
X120264D01*
Y228532D01*
X123716D01*
Y231984D01*
D02*
G37*
G36*
X119264D02*
X115811D01*
Y228532D01*
X119264D01*
Y231984D01*
D02*
G37*
G36*
X130282Y231968D02*
X129245D01*
X128244Y231700D01*
X127346Y231182D01*
X126613Y230449D01*
X126095Y229551D01*
X125827Y228550D01*
Y227513D01*
X126095Y226512D01*
X126613Y225614D01*
X127346Y224881D01*
X128244Y224363D01*
X129245Y224095D01*
X130282D01*
X131283Y224363D01*
X132181Y224881D01*
X132914Y225614D01*
X133432Y226512D01*
X133701Y227513D01*
Y228550D01*
X133432Y229551D01*
X132914Y230449D01*
X132181Y231182D01*
X131283Y231700D01*
X130282Y231968D01*
D02*
G37*
G36*
X123716Y227532D02*
X120264D01*
Y224079D01*
X123716D01*
Y227532D01*
D02*
G37*
G36*
X119264D02*
X115811D01*
Y224079D01*
X119264D01*
Y227532D01*
D02*
G37*
G36*
X205400Y251969D02*
X204364D01*
X203362Y251700D01*
X202465Y251182D01*
X201731Y250449D01*
X201213Y249551D01*
X200945Y248550D01*
Y247513D01*
X201213Y246512D01*
X201731Y245614D01*
X202465Y244881D01*
X203362Y244363D01*
X204364Y244094D01*
X205400D01*
X206401Y244363D01*
X206594Y244474D01*
X220846Y230222D01*
X221542Y229526D01*
X221542Y229526D01*
X222154Y228795D01*
X222435Y228453D01*
X223094Y227220D01*
X223500Y225883D01*
X223633Y224524D01*
X223627Y224493D01*
Y221371D01*
X222643Y221176D01*
X222522Y221467D01*
X221595Y222981D01*
X220441Y224331D01*
X220434Y224324D01*
X198439Y246319D01*
X198551Y246512D01*
X198819Y247513D01*
Y248550D01*
X198551Y249551D01*
X198032Y250449D01*
X197299Y251182D01*
X196402Y251700D01*
X195400Y251969D01*
X194364D01*
X193362Y251700D01*
X192464Y251182D01*
X191732Y250449D01*
X191213Y249551D01*
X190945Y248550D01*
Y247513D01*
X191213Y246512D01*
X191732Y245614D01*
X192464Y244881D01*
X193362Y244363D01*
X194364Y244094D01*
X195400D01*
X196402Y244363D01*
X196594Y244474D01*
X218589Y222479D01*
X218638Y222446D01*
X219685Y221171D01*
X220490Y219664D01*
X220986Y218030D01*
X221148Y216388D01*
X221136Y216330D01*
Y205757D01*
X221103Y205743D01*
X220438Y205078D01*
X220079Y204210D01*
Y203270D01*
X220438Y202402D01*
X220997Y201843D01*
X221056Y201279D01*
X220997Y200716D01*
X220438Y200157D01*
X220079Y199289D01*
Y198349D01*
X220438Y197481D01*
X221103Y196816D01*
X221971Y196457D01*
X222911D01*
X223779Y196816D01*
X224444Y197481D01*
X224803Y198349D01*
Y199289D01*
X224754Y199407D01*
X225036Y199750D01*
X225699Y200992D01*
X226108Y202339D01*
X226246Y203740D01*
X226236D01*
Y224493D01*
X226258D01*
X226071Y226395D01*
X225516Y228224D01*
X224615Y229909D01*
X224011Y230645D01*
X224011Y230645D01*
X223403Y231387D01*
X223387Y231371D01*
X208439Y246319D01*
X208551Y246512D01*
X208819Y247513D01*
Y248550D01*
X208551Y249551D01*
X208032Y250449D01*
X207299Y251182D01*
X206401Y251700D01*
X205400Y251969D01*
D02*
G37*
G36*
X203678Y221161D02*
X202739D01*
X201871Y220802D01*
X201206Y220137D01*
X200211D01*
X199547Y220802D01*
X198679Y221161D01*
X197739D01*
X196871Y220802D01*
X196206Y220137D01*
X195211D01*
X194547Y220802D01*
X193678Y221161D01*
X192739D01*
X191871Y220802D01*
X191206Y220137D01*
X191155Y220013D01*
X190660Y219974D01*
X188933Y219560D01*
X187293Y218880D01*
X186555Y218428D01*
X185571Y218980D01*
Y219269D01*
X185211Y220137D01*
X184547Y220802D01*
X183678Y221161D01*
X182739D01*
X181871Y220802D01*
X181206Y220137D01*
X180211D01*
X179547Y220802D01*
X178679Y221161D01*
X177739D01*
X176871Y220802D01*
X176206Y220137D01*
X175211D01*
X174547Y220802D01*
X173679Y221161D01*
X172739D01*
X171871Y220802D01*
X171206Y220137D01*
X170846Y219269D01*
Y218329D01*
X171206Y217461D01*
X171871Y216797D01*
X171904Y216783D01*
Y193939D01*
X171859Y193920D01*
X171194Y193255D01*
X170835Y192387D01*
Y191447D01*
X171194Y190579D01*
X171859Y189915D01*
X172727Y189555D01*
X173667D01*
X174535Y189915D01*
X175199Y190579D01*
X175559Y191447D01*
Y191598D01*
X175628Y192396D01*
X176468Y192508D01*
X176577D01*
X176845Y192619D01*
X177591Y192252D01*
X177830Y191966D01*
X177679Y190435D01*
X177183Y188800D01*
X176378Y187294D01*
X175331Y186018D01*
X175282Y185986D01*
X140267Y150970D01*
X140234Y150984D01*
X139294D01*
X138426Y150625D01*
X137761Y149960D01*
X137402Y149092D01*
Y148152D01*
X137761Y147284D01*
X138426Y146619D01*
X139294Y146260D01*
X140234D01*
X141102Y146619D01*
X141174Y146691D01*
X142008Y146134D01*
X141956Y146008D01*
X141541Y144281D01*
X141402Y142511D01*
X141412D01*
Y139969D01*
X141423Y139912D01*
X141262Y138269D01*
X140766Y136635D01*
X140018Y135236D01*
X139294D01*
X138426Y134877D01*
X137761Y134212D01*
X137402Y133344D01*
Y132404D01*
X137761Y131536D01*
X138426Y130871D01*
X139294Y130512D01*
X140234D01*
X141102Y130871D01*
X141766Y131536D01*
X142126Y132404D01*
Y133344D01*
X142029Y133578D01*
X142798Y134832D01*
X143477Y136473D01*
X143892Y138199D01*
X144031Y139969D01*
X144021D01*
Y142511D01*
X144010Y142569D01*
X144172Y144211D01*
X144667Y145845D01*
X145472Y147352D01*
X146519Y148628D01*
X146568Y148660D01*
X180080Y182172D01*
X180080Y182172D01*
X180087Y182165D01*
X181240Y183515D01*
X182168Y185029D01*
X182847Y186669D01*
X183262Y188396D01*
X183401Y190166D01*
X183391D01*
Y197831D01*
X184376Y198489D01*
X184558Y198413D01*
X184709D01*
X185512Y198307D01*
X185618Y197504D01*
Y197353D01*
X185978Y196485D01*
X186642Y195820D01*
X187510Y195461D01*
X188450D01*
X189318Y195820D01*
X189983Y196485D01*
X190342Y197353D01*
Y198293D01*
X189983Y199161D01*
X189318Y199825D01*
X189297Y199834D01*
Y205738D01*
X189288Y205784D01*
X189436Y207291D01*
X189889Y208784D01*
X190624Y210159D01*
X191585Y211330D01*
X191623Y211356D01*
X191627Y211361D01*
X192275Y211858D01*
X193035Y212173D01*
X193844Y212279D01*
X193851Y212278D01*
X196605D01*
Y212263D01*
X197813Y212422D01*
X198939Y212889D01*
X199906Y213631D01*
X199896Y213641D01*
X202705Y216451D01*
X202739Y216437D01*
X203678D01*
X204547Y216797D01*
X205211Y217461D01*
X205571Y218329D01*
Y219269D01*
X205211Y220137D01*
X204547Y220802D01*
X203678Y221161D01*
D02*
G37*
G36*
X120284Y221984D02*
X120264D01*
Y218532D01*
X123716D01*
Y218552D01*
X123447Y219557D01*
X122927Y220459D01*
X122191Y221195D01*
X121290Y221715D01*
X120284Y221984D01*
D02*
G37*
G36*
X119264D02*
X119243D01*
X118238Y221715D01*
X117337Y221195D01*
X116601Y220459D01*
X116080Y219557D01*
X115811Y218552D01*
Y218532D01*
X119264D01*
Y221984D01*
D02*
G37*
G36*
X43465Y224410D02*
X35591D01*
Y216535D01*
X43465D01*
Y224410D01*
D02*
G37*
G36*
X30046D02*
X29009D01*
X28008Y224141D01*
X27110Y223623D01*
X26377Y222890D01*
X25859Y221992D01*
X25591Y220991D01*
Y219954D01*
X25859Y218953D01*
X26377Y218055D01*
X27110Y217322D01*
X28008Y216804D01*
X29009Y216535D01*
X30046D01*
X31047Y216804D01*
X31945Y217322D01*
X32678Y218055D01*
X33196Y218953D01*
X33465Y219954D01*
Y220991D01*
X33196Y221992D01*
X32678Y222890D01*
X31945Y223623D01*
X31047Y224141D01*
X30046Y224410D01*
D02*
G37*
G36*
X130282Y221969D02*
X129245D01*
X128244Y221700D01*
X127346Y221182D01*
X126613Y220449D01*
X126095Y219551D01*
X125827Y218550D01*
Y217513D01*
X126095Y216512D01*
X126613Y215614D01*
X127346Y214881D01*
X128244Y214363D01*
X129245Y214094D01*
X130282D01*
X131283Y214363D01*
X132181Y214881D01*
X132914Y215614D01*
X133432Y216512D01*
X133701Y217513D01*
Y218550D01*
X133432Y219551D01*
X132914Y220449D01*
X132181Y221182D01*
X131283Y221700D01*
X130282Y221969D01*
D02*
G37*
G36*
X123716Y217532D02*
X120264D01*
Y214079D01*
X120284D01*
X121290Y214348D01*
X122191Y214868D01*
X122927Y215604D01*
X123447Y216506D01*
X123716Y217511D01*
Y217532D01*
D02*
G37*
G36*
X119264D02*
X115811D01*
Y217511D01*
X116080Y216506D01*
X116601Y215604D01*
X117337Y214868D01*
X118238Y214348D01*
X119243Y214079D01*
X119264D01*
Y217532D01*
D02*
G37*
G36*
X120284Y211984D02*
X120264D01*
Y208532D01*
X123716D01*
Y208552D01*
X123447Y209557D01*
X122927Y210459D01*
X122191Y211194D01*
X121290Y211715D01*
X120284Y211984D01*
D02*
G37*
G36*
X119264D02*
X119243D01*
X118238Y211715D01*
X117337Y211194D01*
X116601Y210459D01*
X116080Y209557D01*
X115811Y208552D01*
Y208532D01*
X119264D01*
Y211984D01*
D02*
G37*
G36*
X130282Y211968D02*
X129245D01*
X128244Y211700D01*
X127346Y211182D01*
X126613Y210449D01*
X126095Y209551D01*
X125827Y208550D01*
Y207513D01*
X126095Y206512D01*
X126613Y205614D01*
X127346Y204881D01*
X128244Y204363D01*
X129245Y204095D01*
X130282D01*
X131283Y204363D01*
X132181Y204881D01*
X132914Y205614D01*
X133432Y206512D01*
X133701Y207513D01*
Y208550D01*
X133432Y209551D01*
X132914Y210449D01*
X132181Y211182D01*
X131283Y211700D01*
X130282Y211968D01*
D02*
G37*
G36*
X123716Y207532D02*
X120264D01*
Y204079D01*
X120284D01*
X121290Y204348D01*
X122191Y204869D01*
X122927Y205605D01*
X123447Y206506D01*
X123716Y207511D01*
Y207532D01*
D02*
G37*
G36*
X119264D02*
X115811D01*
Y207511D01*
X116080Y206506D01*
X116601Y205605D01*
X117337Y204869D01*
X118238Y204348D01*
X119243Y204079D01*
X119264D01*
Y207532D01*
D02*
G37*
G36*
X120284Y201984D02*
X120264D01*
Y198531D01*
X123716D01*
Y198552D01*
X123447Y199557D01*
X122927Y200459D01*
X122191Y201195D01*
X121290Y201715D01*
X120284Y201984D01*
D02*
G37*
G36*
X119264D02*
X119243D01*
X118238Y201715D01*
X117337Y201195D01*
X116601Y200459D01*
X116080Y199557D01*
X115811Y198552D01*
Y198531D01*
X119264D01*
Y201984D01*
D02*
G37*
G36*
X130282Y201969D02*
X129245D01*
X128244Y201700D01*
X127346Y201182D01*
X126613Y200449D01*
X126095Y199551D01*
X125827Y198550D01*
Y197513D01*
X126095Y196512D01*
X126613Y195614D01*
X127346Y194881D01*
X128244Y194363D01*
X129245Y194095D01*
X130282D01*
X131283Y194363D01*
X132181Y194881D01*
X132914Y195614D01*
X133432Y196512D01*
X133701Y197513D01*
Y198550D01*
X133432Y199551D01*
X132914Y200449D01*
X132181Y201182D01*
X131283Y201700D01*
X130282Y201969D01*
D02*
G37*
G36*
X123716Y197531D02*
X120264D01*
Y194079D01*
X120284D01*
X121290Y194348D01*
X122191Y194869D01*
X122927Y195604D01*
X123447Y196506D01*
X123716Y197511D01*
Y197531D01*
D02*
G37*
G36*
X119264D02*
X115811D01*
Y197511D01*
X116080Y196506D01*
X116601Y195604D01*
X117337Y194869D01*
X118238Y194348D01*
X119243Y194079D01*
X119264D01*
Y197531D01*
D02*
G37*
G36*
X31118Y197457D02*
X27075D01*
Y193413D01*
X31118D01*
Y197457D01*
D02*
G37*
G36*
X26075D02*
X22031D01*
Y193413D01*
X26075D01*
Y197457D01*
D02*
G37*
G36*
X54730Y197441D02*
X53538D01*
X52386Y197132D01*
X51354Y196536D01*
X50511Y195693D01*
X49915Y194661D01*
X49606Y193509D01*
Y192317D01*
X49915Y191166D01*
X50511Y190133D01*
X51354Y189290D01*
X52386Y188694D01*
X53538Y188386D01*
X54730D01*
X55881Y188694D01*
X56914Y189290D01*
X57757Y190133D01*
X58353Y191166D01*
X58661Y192317D01*
Y193509D01*
X58353Y194661D01*
X57757Y195693D01*
X56914Y196536D01*
X55881Y197132D01*
X54730Y197441D01*
D02*
G37*
G36*
X40950D02*
X39758D01*
X38607Y197132D01*
X37574Y196536D01*
X36731Y195693D01*
X36135Y194661D01*
X35827Y193509D01*
Y192317D01*
X36135Y191166D01*
X36731Y190133D01*
X37574Y189290D01*
X38607Y188694D01*
X39758Y188386D01*
X40950D01*
X42102Y188694D01*
X43134Y189290D01*
X43977Y190133D01*
X44573Y191166D01*
X44882Y192317D01*
Y193509D01*
X44573Y194661D01*
X43977Y195693D01*
X43134Y196536D01*
X42102Y197132D01*
X40950Y197441D01*
D02*
G37*
G36*
X31118Y192413D02*
X27075D01*
Y188370D01*
X31118D01*
Y192413D01*
D02*
G37*
G36*
X26075D02*
X22031D01*
Y188370D01*
X26075D01*
Y192413D01*
D02*
G37*
G36*
X232611Y249852D02*
X228609D01*
X228492Y249803D01*
X228365D01*
X227702Y249529D01*
X227612Y249439D01*
X227495Y249390D01*
X226988Y248883D01*
X226939Y248766D01*
X226849Y248676D01*
X226575Y248013D01*
Y247886D01*
X226526Y247769D01*
Y246996D01*
X226551Y246936D01*
X226538Y246871D01*
X226700Y246059D01*
X226736Y246005D01*
Y245940D01*
X227053Y245175D01*
X227099Y245128D01*
X227112Y245064D01*
X227572Y244376D01*
X227626Y244340D01*
X227652Y244279D01*
X227944Y243986D01*
X227944Y243986D01*
X228277Y243654D01*
X228501Y243407D01*
X228603Y243253D01*
Y198955D01*
X228626Y198838D01*
X228460Y196722D01*
X227937Y194544D01*
X227080Y192474D01*
X225909Y190565D01*
X224531Y188951D01*
X224432Y188884D01*
X181628Y146080D01*
X181621Y146070D01*
X180405Y144647D01*
X179421Y143041D01*
X178700Y141300D01*
X178260Y139468D01*
X178114Y137603D01*
X178111Y137590D01*
Y136473D01*
X177672Y136220D01*
X176930Y135478D01*
X176405Y134569D01*
X176134Y133556D01*
Y132507D01*
X176405Y131494D01*
X176930Y130585D01*
X177672Y129843D01*
X178580Y129319D01*
X179594Y129047D01*
X180643D01*
X181656Y129319D01*
X182564Y129843D01*
X183306Y130585D01*
X183831Y131494D01*
X184102Y132507D01*
Y133556D01*
X183831Y134569D01*
X183306Y135478D01*
X182564Y136220D01*
X182125Y136473D01*
Y137590D01*
X182107Y137682D01*
X182252Y139155D01*
X182709Y140659D01*
X183450Y142046D01*
X184389Y143190D01*
X184466Y143242D01*
X227270Y186046D01*
X227270Y186046D01*
X228845Y187841D01*
X230172Y189827D01*
X231228Y191969D01*
X231996Y194230D01*
X232462Y196572D01*
X232618Y198955D01*
X232617D01*
Y243253D01*
X232720Y243407D01*
X232943Y243654D01*
X233569Y244279D01*
X233594Y244340D01*
X233648Y244376D01*
X234108Y245064D01*
X234121Y245128D01*
X234167Y245175D01*
X234484Y245940D01*
Y246005D01*
X234521Y246059D01*
X234682Y246871D01*
X234669Y246936D01*
X234694Y246996D01*
Y247769D01*
X234646Y247886D01*
Y248013D01*
X234371Y248676D01*
X234281Y248766D01*
X234233Y248883D01*
X233726Y249390D01*
X233608Y249439D01*
X233518Y249529D01*
X232856Y249803D01*
X232729D01*
X232611Y249852D01*
D02*
G37*
G36*
X108858Y182677D02*
X99803D01*
Y173622D01*
X108858D01*
Y182677D01*
D02*
G37*
G36*
X104927Y168898D02*
X103735D01*
X102583Y168589D01*
X101551Y167993D01*
X100708Y167150D01*
X100112Y166118D01*
X99803Y164966D01*
Y163774D01*
X100112Y162622D01*
X100708Y161590D01*
X101551Y160747D01*
X102583Y160151D01*
X103735Y159843D01*
X104927D01*
X106078Y160151D01*
X107111Y160747D01*
X107954Y161590D01*
X108550Y162622D01*
X108858Y163774D01*
Y164966D01*
X108550Y166118D01*
X107954Y167150D01*
X107111Y167993D01*
X106078Y168589D01*
X104927Y168898D01*
D02*
G37*
G36*
X235706Y168701D02*
X234766D01*
X233898Y168341D01*
X233234Y167677D01*
X232874Y166808D01*
Y165869D01*
X233234Y165000D01*
X233898Y164336D01*
X233932Y164322D01*
Y162607D01*
X233943Y162550D01*
X233781Y160907D01*
X233285Y159273D01*
X232480Y157766D01*
X231433Y156491D01*
X231385Y156458D01*
X227669Y152742D01*
X227635Y152756D01*
X226695D01*
X225827Y152396D01*
X225163Y151732D01*
X224803Y150864D01*
Y149924D01*
X225163Y149056D01*
X225827Y148391D01*
X226695Y148031D01*
X227635D01*
X228503Y148391D01*
X229168Y149056D01*
X229527Y149924D01*
Y150864D01*
X229514Y150897D01*
X233230Y154613D01*
X233230Y154613D01*
X233237Y154606D01*
X234390Y155956D01*
X235317Y157470D01*
X235997Y159110D01*
X236411Y160837D01*
X236551Y162607D01*
X236541D01*
Y164322D01*
X236574Y164336D01*
X237239Y165000D01*
X237598Y165869D01*
Y166808D01*
X237239Y167677D01*
X236574Y168341D01*
X235706Y168701D01*
D02*
G37*
G36*
X108858Y155118D02*
X99803D01*
Y146063D01*
X108858D01*
Y155118D01*
D02*
G37*
G36*
X206178Y143110D02*
X205239D01*
X204371Y142751D01*
X203706Y142086D01*
X203692Y142053D01*
X192961D01*
X192947Y142086D01*
X192283Y142751D01*
X191415Y143110D01*
X190475D01*
X189607Y142751D01*
X188942Y142086D01*
X188583Y141218D01*
Y140278D01*
X188942Y139410D01*
X189607Y138745D01*
X190475Y138386D01*
X191415D01*
X192283Y138745D01*
X192947Y139410D01*
X192961Y139444D01*
X203692D01*
X203706Y139410D01*
X204371Y138745D01*
X205239Y138386D01*
X206178D01*
X207047Y138745D01*
X207711Y139410D01*
X208071Y140278D01*
Y141218D01*
X207711Y142086D01*
X207047Y142751D01*
X206178Y143110D01*
D02*
G37*
G36*
X108858Y141339D02*
X99803D01*
Y137407D01*
Y132283D01*
X108858D01*
Y141339D01*
D02*
G37*
G36*
X237715Y139421D02*
X231104D01*
X230643Y139330D01*
X230252Y139068D01*
X229991Y138678D01*
X229899Y138217D01*
Y133858D01*
X229991Y133397D01*
X230252Y133007D01*
X230576Y132790D01*
X230053Y131883D01*
X229734Y130694D01*
Y129463D01*
X230053Y128274D01*
X230668Y127208D01*
X231539Y126338D01*
X232605Y125722D01*
X233794Y125403D01*
X235025D01*
X236214Y125722D01*
X237280Y126338D01*
X238151Y127208D01*
X238766Y128274D01*
X239085Y129463D01*
Y130694D01*
X238766Y131883D01*
X238243Y132790D01*
X238567Y133007D01*
X238828Y133397D01*
X238920Y133858D01*
Y138217D01*
X238828Y138678D01*
X238567Y139068D01*
X238176Y139330D01*
X237715Y139421D01*
D02*
G37*
G36*
X214053Y152953D02*
X213113D01*
X212245Y152593D01*
X211580Y151929D01*
X211221Y151060D01*
Y150121D01*
X211580Y149252D01*
X212245Y148588D01*
X212278Y148574D01*
Y143749D01*
X212245Y143735D01*
X211580Y143070D01*
X211221Y142202D01*
Y141262D01*
X211580Y140394D01*
X212245Y139730D01*
X213113Y139370D01*
X214053D01*
X214921Y139730D01*
X215480Y140289D01*
X216043Y140347D01*
X216607Y140289D01*
X217126Y139769D01*
X217168Y139723D01*
X217491Y138678D01*
X217399Y138217D01*
Y133858D01*
X217491Y133397D01*
X217752Y133007D01*
X218076Y132790D01*
X217553Y131883D01*
X217234Y130694D01*
Y129463D01*
X217553Y128274D01*
X218168Y127208D01*
X219039Y126338D01*
X220105Y125722D01*
X221294Y125403D01*
X222525D01*
X223714Y125722D01*
X224780Y126338D01*
X225651Y127208D01*
X226266Y128274D01*
X226585Y129463D01*
Y130694D01*
X226266Y131883D01*
X225743Y132790D01*
X226067Y133007D01*
X226328Y133397D01*
X226420Y133858D01*
Y138217D01*
X226328Y138678D01*
X226067Y139068D01*
X225676Y139330D01*
X225215Y139421D01*
X220925D01*
X220507Y140394D01*
X220866Y141262D01*
Y142202D01*
X220507Y143070D01*
X219842Y143735D01*
X219809Y143749D01*
Y145621D01*
X219842Y145635D01*
X220507Y146300D01*
X220866Y147168D01*
Y148108D01*
X220507Y148976D01*
X219842Y149640D01*
X218974Y150000D01*
X218034D01*
X217166Y149640D01*
X216501Y148976D01*
X215651Y149412D01*
X215945Y150121D01*
X215945Y151060D01*
X215585Y151929D01*
X214921Y152593D01*
X214053Y152953D01*
D02*
G37*
G36*
X180645Y127032D02*
X180618D01*
Y123531D01*
X184118D01*
Y123558D01*
X183845Y124575D01*
X183319Y125488D01*
X182574Y126232D01*
X181662Y126759D01*
X180645Y127032D01*
D02*
G37*
G36*
X179618D02*
X179592D01*
X178574Y126759D01*
X177662Y126232D01*
X176917Y125488D01*
X176391Y124575D01*
X176118Y123558D01*
Y123531D01*
X179618D01*
Y127032D01*
D02*
G37*
G36*
X214797Y126028D02*
X214021D01*
X213304Y125731D01*
X212756Y125182D01*
X212459Y124466D01*
Y123689D01*
X212756Y122973D01*
X213304Y122424D01*
X214021Y122127D01*
X214797D01*
X215514Y122424D01*
X216063Y122973D01*
X216360Y123689D01*
Y124466D01*
X216063Y125182D01*
X215514Y125731D01*
X214797Y126028D01*
D02*
G37*
G36*
X184118Y122531D02*
X180618D01*
Y119032D01*
X180645D01*
X181662Y119304D01*
X182574Y119831D01*
X183319Y120575D01*
X183845Y121488D01*
X184118Y122505D01*
Y122531D01*
D02*
G37*
G36*
X179618D02*
X176118D01*
Y122505D01*
X176391Y121488D01*
X176917Y120575D01*
X177662Y119831D01*
X178574Y119304D01*
X179592Y119032D01*
X179618D01*
Y122531D01*
D02*
G37*
G36*
X104927Y127559D02*
X103735D01*
X102583Y127251D01*
X101551Y126654D01*
X100708Y125812D01*
X100112Y124779D01*
X99803Y123628D01*
Y122435D01*
X100112Y121284D01*
X100708Y120252D01*
X101551Y119409D01*
X102583Y118813D01*
X103735Y118504D01*
X104927D01*
X106078Y118813D01*
X107111Y119409D01*
X107954Y120252D01*
X108550Y121284D01*
X108858Y122435D01*
Y123628D01*
X108550Y124779D01*
X107954Y125812D01*
X107111Y126654D01*
X106078Y127251D01*
X104927Y127559D01*
D02*
G37*
G36*
X234798Y122028D02*
X234021D01*
X233304Y121731D01*
X232756Y121183D01*
X232459Y120466D01*
Y119690D01*
X232756Y118973D01*
X233304Y118424D01*
X234021Y118127D01*
X234798D01*
X235514Y118424D01*
X236063Y118973D01*
X236360Y119690D01*
Y120466D01*
X236063Y121183D01*
X235514Y121731D01*
X234798Y122028D01*
D02*
G37*
G36*
X214797Y118028D02*
X214021D01*
X213304Y117731D01*
X212756Y117183D01*
X212459Y116465D01*
Y115690D01*
X212756Y114972D01*
X213304Y114424D01*
X214021Y114127D01*
X214797D01*
X215514Y114424D01*
X216063Y114972D01*
X216360Y115690D01*
Y116465D01*
X216063Y117183D01*
X215514Y117731D01*
X214797Y118028D01*
D02*
G37*
G36*
X181618Y117064D02*
X178618D01*
X177649Y116872D01*
X176827Y116323D01*
X176278Y115501D01*
X176085Y114532D01*
Y111531D01*
X176278Y110562D01*
X176827Y109740D01*
X177649Y109191D01*
X178618Y108999D01*
X181618D01*
X182587Y109191D01*
X183409Y109740D01*
X183958Y110562D01*
X184151Y111531D01*
Y114532D01*
X183958Y115501D01*
X183409Y116323D01*
X182587Y116872D01*
X181618Y117064D01*
D02*
G37*
G36*
X108858Y113779D02*
X99803D01*
Y104724D01*
X108858D01*
Y113779D01*
D02*
G37*
G36*
X235025Y114751D02*
X233794D01*
X232605Y114433D01*
X231539Y113817D01*
X230668Y112947D01*
X230053Y111881D01*
X229734Y110692D01*
Y109461D01*
X230053Y108272D01*
X230576Y107365D01*
X230252Y107148D01*
X229991Y106758D01*
X229899Y106297D01*
Y101938D01*
X229991Y101477D01*
X230252Y101086D01*
X230643Y100825D01*
X231104Y100734D01*
X237715D01*
X238176Y100825D01*
X238567Y101086D01*
X238828Y101477D01*
X238920Y101938D01*
Y106297D01*
X238828Y106758D01*
X238567Y107148D01*
X238243Y107365D01*
X238766Y108272D01*
X239085Y109461D01*
Y110692D01*
X238766Y111881D01*
X238151Y112947D01*
X237280Y113817D01*
X236214Y114433D01*
X235025Y114751D01*
D02*
G37*
G36*
X222525D02*
X221294D01*
X220105Y114433D01*
X219039Y113817D01*
X218168Y112947D01*
X217553Y111881D01*
X217234Y110692D01*
Y109461D01*
X217553Y108272D01*
X218076Y107365D01*
X217752Y107148D01*
X217491Y106758D01*
X217399Y106297D01*
Y101938D01*
X217491Y101477D01*
X217752Y101086D01*
X218143Y100825D01*
X218604Y100734D01*
X225215D01*
X225676Y100825D01*
X226067Y101086D01*
X226328Y101477D01*
X226420Y101938D01*
Y106297D01*
X226328Y106758D01*
X226067Y107148D01*
X225743Y107365D01*
X226266Y108272D01*
X226585Y109461D01*
Y110692D01*
X226266Y111881D01*
X225651Y112947D01*
X224780Y113817D01*
X223714Y114433D01*
X222525Y114751D01*
D02*
G37*
G36*
X251644Y94805D02*
X249978D01*
Y92311D01*
X254572D01*
X254536Y92586D01*
X254237Y93308D01*
X253761Y93928D01*
X253141Y94404D01*
X252419Y94703D01*
X251644Y94805D01*
D02*
G37*
G36*
X248978D02*
X247313D01*
X246538Y94703D01*
X245816Y94404D01*
X245196Y93928D01*
X244720Y93308D01*
X244421Y92586D01*
X244385Y92311D01*
X248978D01*
Y94805D01*
D02*
G37*
G36*
X265435D02*
X264754D01*
X263979Y94703D01*
X263257Y94404D01*
X262637Y93928D01*
X262161Y93308D01*
X261862Y92586D01*
X261826Y92311D01*
X265435D01*
Y94805D01*
D02*
G37*
G36*
X104927Y100000D02*
X103735D01*
X102583Y99691D01*
X101551Y99095D01*
X100708Y98252D01*
X100112Y97220D01*
X99803Y96069D01*
Y94876D01*
X100112Y93725D01*
X100708Y92693D01*
X101551Y91849D01*
X102583Y91253D01*
X103735Y90945D01*
X104927D01*
X106078Y91253D01*
X107111Y91849D01*
X107954Y92693D01*
X108550Y93725D01*
X108858Y94876D01*
Y96069D01*
X108550Y97220D01*
X107954Y98252D01*
X107111Y99095D01*
X106078Y99691D01*
X104927Y100000D01*
D02*
G37*
G36*
X265435Y91311D02*
X261826D01*
X261862Y91036D01*
X262161Y90314D01*
X262637Y89694D01*
X263257Y89218D01*
X263979Y88919D01*
X264754Y88817D01*
X265435D01*
Y91311D01*
D02*
G37*
G36*
X254572Y91311D02*
X249978D01*
Y88817D01*
X251644D01*
X252419Y88919D01*
X253141Y89218D01*
X253761Y89694D01*
X254237Y90314D01*
X254536Y91036D01*
X254572Y91311D01*
D02*
G37*
G36*
X248978D02*
X244385D01*
X244421Y91036D01*
X244720Y90314D01*
X245196Y89694D01*
X245816Y89218D01*
X246538Y88919D01*
X247313Y88817D01*
X248978D01*
Y91311D01*
D02*
G37*
G36*
X87073Y98941D02*
X86620Y98758D01*
Y98758D01*
X86620Y98758D01*
X86563Y98623D01*
X86563Y98623D01*
X86429Y98307D01*
X86429Y98307D01*
X86428Y98227D01*
X86358Y90254D01*
X86358Y90254D01*
X86358Y90254D01*
X86438Y90058D01*
X86542Y89801D01*
X86542Y89801D01*
X86542Y89801D01*
X86542Y89800D01*
X86603Y89769D01*
X86621Y89725D01*
X86625Y89713D01*
X86692Y89492D01*
X86589Y88757D01*
X86542Y88634D01*
X86532Y88629D01*
X86532Y88629D01*
X86531Y88629D01*
X86340Y88179D01*
X86340Y88179D01*
X86340Y88179D01*
X86340Y88179D01*
X86339Y88099D01*
X86334Y87432D01*
X86430Y87193D01*
X86517Y86978D01*
X86517Y86978D01*
X86517Y86978D01*
X86520Y86977D01*
X86576Y86951D01*
X86599Y86894D01*
X86604Y86877D01*
X86598Y85918D01*
X86593Y85897D01*
X86590Y85889D01*
X86590Y85888D01*
X86559Y85827D01*
X86507Y85806D01*
X86507Y85806D01*
X86507D01*
X86316Y85356D01*
X86316Y85356D01*
X86309Y84609D01*
X86309Y84609D01*
Y84609D01*
X86309Y84609D01*
X86492Y84155D01*
X86492Y84155D01*
Y84155D01*
X86503Y84151D01*
X86639Y83615D01*
X86646Y83315D01*
X86566Y83067D01*
X86566Y83065D01*
X86537Y83011D01*
X86482Y82984D01*
X86482Y82984D01*
X86482D01*
X86291Y82533D01*
X86291Y82533D01*
X86073Y57544D01*
X86073Y57544D01*
X86073Y57544D01*
X86256Y57090D01*
X86256Y57090D01*
X86256Y57090D01*
X86259Y57089D01*
X86259D01*
X86308Y57068D01*
X86338Y57007D01*
X86339Y57007D01*
X86664Y56868D01*
X86664Y56868D01*
X86674Y56864D01*
X86789Y56815D01*
X86789Y56816D01*
X86838Y56815D01*
X87037Y56730D01*
X87037Y56730D01*
X87120Y56730D01*
X87120Y56730D01*
X87574Y56913D01*
X87574Y56913D01*
X87574Y56913D01*
X87669Y57137D01*
X87765Y57363D01*
X87765Y57363D01*
X87765Y57373D01*
X87839Y65880D01*
X87924Y66080D01*
X87925Y66163D01*
X87925Y66163D01*
X87925Y66163D01*
X87874Y66288D01*
X87927Y66412D01*
X87927Y66412D01*
X87927Y66412D01*
X87928Y66495D01*
X87877Y66620D01*
X87930Y66744D01*
X87931Y66827D01*
X87880Y66952D01*
X87933Y67076D01*
X87933Y67159D01*
X87933Y67159D01*
X87933Y67159D01*
X87883Y67284D01*
X87936Y67408D01*
X87936Y67491D01*
X87886Y67616D01*
X87938Y67740D01*
X87939Y67823D01*
X87889Y67948D01*
X87941Y68072D01*
X87941Y68072D01*
X87941Y68072D01*
X87942Y68155D01*
X87892Y68280D01*
X87944Y68404D01*
X87945Y68487D01*
X87894Y68612D01*
X87947Y68736D01*
X87947Y68736D01*
X87947Y68737D01*
X87948Y68820D01*
X87897Y68944D01*
X87950Y69068D01*
X87950Y69068D01*
X87950Y69069D01*
X87951Y69152D01*
X87900Y69276D01*
X87953Y69400D01*
Y69401D01*
X87953Y69401D01*
X87953Y69401D01*
X87954Y69483D01*
X87954Y69483D01*
X87954Y69484D01*
X87937Y69525D01*
X87954Y69567D01*
X87955Y69650D01*
X87938Y69691D01*
X87956Y69733D01*
X87957Y69816D01*
X87957Y69816D01*
X87957Y69816D01*
X87940Y69857D01*
X87957Y69899D01*
X87958Y69982D01*
X87941Y70023D01*
X87959Y70065D01*
X87959Y70148D01*
X87943Y70189D01*
X87960Y70231D01*
X87960Y70231D01*
X87960Y70231D01*
X87961Y70314D01*
X87944Y70355D01*
X87962Y70397D01*
X87962Y70397D01*
X87962Y70397D01*
X87962Y70480D01*
X87946Y70521D01*
X87963Y70563D01*
X87964Y70646D01*
X87964Y70646D01*
X87964Y70646D01*
X87947Y70688D01*
X87965Y70729D01*
X87965Y70812D01*
X87949Y70854D01*
X87966Y70895D01*
X87967Y70978D01*
X87950Y71020D01*
X87967Y71061D01*
X87968Y71144D01*
X87951Y71186D01*
X87969Y71227D01*
X87969Y71227D01*
X87969Y71227D01*
X87970Y71310D01*
X87953Y71352D01*
X87970Y71393D01*
X87971Y71476D01*
X87971Y71476D01*
X87971Y71476D01*
X87954Y71518D01*
X87972Y71559D01*
X87972Y71559D01*
X87972Y71559D01*
X87973Y71642D01*
X87956Y71684D01*
X87973Y71725D01*
X87973Y71725D01*
X87973Y71725D01*
X87974Y71808D01*
X87957Y71850D01*
X87975Y71891D01*
X87976Y71974D01*
X87959Y72016D01*
X87976Y72057D01*
X87977Y72140D01*
X87977Y72140D01*
X87977Y72140D01*
X87960Y72182D01*
X87978Y72223D01*
X87978Y72306D01*
X87962Y72348D01*
X87979Y72389D01*
X87980Y72472D01*
X87980Y72472D01*
X87980Y72472D01*
X87963Y72514D01*
X87981Y72555D01*
X87981Y72638D01*
X87981Y72638D01*
X87981Y72638D01*
X87964Y72680D01*
X87982Y72721D01*
X87983Y72804D01*
X87966Y72846D01*
X87983Y72887D01*
X87984Y72970D01*
X87984Y72970D01*
X87984Y72970D01*
X87967Y73012D01*
X87985Y73053D01*
X87986Y73136D01*
X87986Y73137D01*
X87986Y73137D01*
X87969Y73178D01*
X87986Y73219D01*
X87986Y73220D01*
X87986Y73220D01*
X87987Y73303D01*
X87970Y73344D01*
X87988Y73386D01*
X87989Y73469D01*
X87989Y73469D01*
X87989Y73469D01*
X87972Y73510D01*
X87989Y73551D01*
X87989Y73551D01*
X87989Y73552D01*
X87990Y73635D01*
X87973Y73676D01*
X87991Y73718D01*
X87991Y73718D01*
X87991Y73718D01*
X87991Y73801D01*
X87975Y73842D01*
X87992Y73884D01*
X87992Y73884D01*
X87992Y73884D01*
X87993Y73967D01*
X87993Y73967D01*
X87993Y73967D01*
X87976Y74008D01*
X87994Y74050D01*
X87994Y74050D01*
X87994Y74050D01*
X87994Y74133D01*
X87977Y74174D01*
X87995Y74216D01*
X87996Y74299D01*
X87979Y74340D01*
X87997Y74382D01*
X87997Y74382D01*
X87997Y74382D01*
X87997Y74465D01*
X87997Y74465D01*
X87997Y74465D01*
X87980Y74506D01*
X87998Y74548D01*
X87999Y74631D01*
X87982Y74673D01*
X87999Y74714D01*
X87999Y74714D01*
X87999Y74714D01*
X88000Y74797D01*
X87983Y74839D01*
X88001Y74880D01*
X88001Y74880D01*
X88001Y74880D01*
X88002Y74963D01*
X87985Y75005D01*
X88002Y75046D01*
X88003Y75129D01*
X87986Y75171D01*
X88004Y75212D01*
X88004Y75212D01*
X88004Y75212D01*
X88004Y75295D01*
X87988Y75337D01*
X88005Y75378D01*
Y75378D01*
X88005Y75378D01*
X88005Y75378D01*
X88006Y75461D01*
X88006Y75461D01*
X88006Y75461D01*
X87989Y75503D01*
X88007Y75544D01*
X88007Y75627D01*
X87990Y75669D01*
X88008Y75710D01*
X88008Y75710D01*
X88008Y75710D01*
X88009Y75793D01*
X87992Y75835D01*
X88010Y75876D01*
X88010Y75959D01*
X87993Y76001D01*
X88011Y76042D01*
X88012Y76125D01*
X87995Y76167D01*
X88012Y76208D01*
X88012Y76208D01*
X88012Y76208D01*
X88013Y76291D01*
X87996Y76333D01*
X88014Y76374D01*
X88015Y76457D01*
X88015Y76457D01*
X88015Y76457D01*
X87998Y76499D01*
X88015Y76540D01*
Y76540D01*
X88015Y76540D01*
X88015Y76540D01*
X88016Y76623D01*
X88016Y76623D01*
X88016Y76623D01*
X87999Y76665D01*
X88017Y76706D01*
X88017Y76789D01*
X88001Y76831D01*
X88018Y76872D01*
X88019Y76955D01*
X88002Y76997D01*
X88020Y77038D01*
X88020Y77121D01*
X88020Y77122D01*
X88020Y77122D01*
X88004Y77163D01*
X88021Y77204D01*
X88021Y77205D01*
X88021Y77205D01*
X88022Y77288D01*
X88005Y77329D01*
X88023Y77371D01*
X88023Y77371D01*
X88023Y77371D01*
X88023Y77454D01*
X88007Y77495D01*
X88024Y77536D01*
Y77536D01*
X88024Y77536D01*
X88024Y77536D01*
X88025Y77619D01*
X88025Y77619D01*
X88025Y77619D01*
X88008Y77661D01*
X88025Y77703D01*
X88025Y77703D01*
X88025Y77703D01*
X88026Y77786D01*
X88009Y77827D01*
X88027Y77869D01*
X88028Y77952D01*
X88011Y77993D01*
X88028Y78035D01*
X88029Y78118D01*
X88012Y78159D01*
X88030Y78201D01*
X88031Y78284D01*
X88030Y78284D01*
X88030Y78284D01*
X88014Y78325D01*
X88031Y78367D01*
X88031Y78367D01*
X88031Y78367D01*
X88032Y78450D01*
X88015Y78491D01*
X88033Y78533D01*
X88033Y78616D01*
X88033Y78616D01*
X88033Y78616D01*
X88017Y78658D01*
X88034Y78699D01*
X88035Y78782D01*
X88018Y78824D01*
X88036Y78865D01*
X88036Y78865D01*
X88036Y78865D01*
X88036Y78948D01*
X88020Y78990D01*
X88037Y79031D01*
X88038Y79114D01*
X88021Y79156D01*
X88038Y79197D01*
X88039Y79280D01*
X88039Y79280D01*
X88039Y79280D01*
X88022Y79322D01*
X88040Y79363D01*
Y79363D01*
X88040Y79363D01*
X88040Y79363D01*
X88041Y79446D01*
X88041Y79446D01*
X88041Y79446D01*
X88024Y79488D01*
X88041Y79529D01*
X88042Y79612D01*
X88025Y79654D01*
X88043Y79695D01*
X88044Y79778D01*
X88027Y79820D01*
X88044Y79861D01*
X88045Y79944D01*
X88045Y79944D01*
X88045Y79944D01*
X88028Y79986D01*
X88046Y80027D01*
X88046Y80110D01*
X88046Y80110D01*
X88046Y80110D01*
X88030Y80152D01*
X88047Y80193D01*
X88047Y80230D01*
X88051Y80325D01*
X88072Y80490D01*
X88131Y80618D01*
X88155Y80660D01*
X88246Y80773D01*
X88795Y81265D01*
X88881Y81312D01*
X89030Y81372D01*
X89079Y81372D01*
X89079Y81372D01*
X89162Y81371D01*
X89162Y81371D01*
X89162Y81371D01*
X89245Y81370D01*
X89287Y81387D01*
X89328Y81369D01*
X89328Y81369D01*
X89328Y81369D01*
X89411Y81369D01*
X89612Y81450D01*
X89661Y81450D01*
X89702Y81466D01*
X89744Y81449D01*
X89744Y81449D01*
X89744Y81449D01*
X89827Y81448D01*
X89868Y81465D01*
X89910Y81447D01*
X89993Y81447D01*
X90034Y81463D01*
X90076Y81446D01*
X90159Y81445D01*
X90159Y81445D01*
X90159Y81445D01*
X90360Y81526D01*
X90408Y81526D01*
X90450Y81543D01*
X90491Y81525D01*
X90575Y81525D01*
X90776Y81606D01*
X90907Y81605D01*
X90908Y81605D01*
X90908Y81605D01*
X90991Y81604D01*
X91032Y81621D01*
X91073Y81603D01*
X91156Y81603D01*
X91198Y81619D01*
X91240Y81602D01*
X91322Y81601D01*
X91322Y81601D01*
X91323Y81601D01*
X91364Y81618D01*
X91405Y81600D01*
X91406Y81600D01*
X91406Y81600D01*
X91489Y81600D01*
X91489Y81600D01*
X91489Y81600D01*
X91690Y81681D01*
X91738Y81681D01*
X91780Y81697D01*
X91821Y81680D01*
X91821Y81680D01*
X91821Y81680D01*
X91904Y81679D01*
X92106Y81760D01*
X92154Y81760D01*
X92320Y81758D01*
X92362Y81775D01*
X92403Y81758D01*
X92403D01*
X92403Y81758D01*
X92403Y81758D01*
X92486Y81757D01*
X92486Y81757D01*
X92487Y81757D01*
X92528Y81774D01*
X92569Y81756D01*
X92569Y81756D01*
X92569Y81756D01*
X92652Y81756D01*
X92853Y81837D01*
X92985Y81836D01*
X92985Y81836D01*
X92985Y81836D01*
X93068Y81835D01*
X93110Y81852D01*
X93151Y81834D01*
X93151Y81834D01*
X93151Y81834D01*
X93234Y81833D01*
X93435Y81915D01*
X93484Y81914D01*
X93526Y81931D01*
X93567Y81914D01*
X93567Y81914D01*
X93567Y81914D01*
X93650Y81913D01*
X93692Y81930D01*
X93733Y81912D01*
X93816Y81911D01*
X93858Y81928D01*
X93899Y81911D01*
X93899Y81911D01*
X93899Y81911D01*
X93982Y81910D01*
X94183Y81991D01*
X94232Y81991D01*
X94232Y81991D01*
X94232Y81991D01*
X94274Y82008D01*
X94315Y81990D01*
X94315Y81990D01*
X94315Y81990D01*
X94398Y81989D01*
X94398Y81989D01*
X94398Y81989D01*
X94599Y82071D01*
X94814Y82069D01*
X94855Y82086D01*
X94897Y82068D01*
X94980Y82067D01*
X95021Y82084D01*
X95063Y82067D01*
X95063Y82067D01*
X95063Y82067D01*
X95146Y82066D01*
X95146Y82066D01*
X95146Y82066D01*
X95347Y82147D01*
X95562Y82145D01*
X95763Y82227D01*
X95811Y82226D01*
X95811Y82226D01*
X95811Y82226D01*
X95894Y82225D01*
X95895Y82225D01*
X95895Y82225D01*
X95977Y82225D01*
X96144Y82223D01*
X96185Y82240D01*
X96227Y82222D01*
X96310Y82222D01*
X96351Y82239D01*
X96393Y82221D01*
X96393Y82221D01*
X96393Y82221D01*
X96476Y82220D01*
X96677Y82302D01*
X96891Y82300D01*
X96891Y82300D01*
X96891Y82300D01*
X97093Y82381D01*
X97141Y82381D01*
X97141Y82381D01*
X97141Y82381D01*
X97224Y82380D01*
X97224Y82380D01*
X97224Y82380D01*
X97307Y82379D01*
X97307Y82379D01*
X97307Y82379D01*
X97360Y82391D01*
X97390Y82378D01*
X97390Y82378D01*
X97473Y82378D01*
X97515Y82394D01*
X97556Y82377D01*
X97556Y82377D01*
X97639Y82376D01*
X97639Y82376D01*
X97640Y82376D01*
X98093Y82560D01*
X98093Y82560D01*
X98093Y82560D01*
X98117Y82616D01*
X98176Y82641D01*
X98177Y82642D01*
X98177Y82642D01*
X98177Y82642D01*
X98206Y82694D01*
X98260Y82724D01*
X98260Y82724D01*
X98260Y82724D01*
X98261Y82726D01*
X98261D01*
X98280Y82767D01*
X98344Y82806D01*
X98369Y82865D01*
X98428Y82889D01*
X98428Y82889D01*
X98428Y82889D01*
X98428Y82889D01*
X98531Y83131D01*
X98541Y83154D01*
X98541Y83154D01*
X98619Y83339D01*
X98619Y83339D01*
X98619Y83339D01*
X98619Y83339D01*
X98620Y83422D01*
X98620Y83422D01*
X98608Y83464D01*
X98621Y83505D01*
X98620Y83505D01*
X98621Y83505D01*
X98621Y83505D01*
X98621Y83588D01*
X98621Y83588D01*
X98526Y83824D01*
X98438Y84041D01*
X98438Y84042D01*
X98438Y84042D01*
X98438Y84042D01*
X98386Y84064D01*
X98356Y84125D01*
X98356Y84126D01*
X98356Y84126D01*
X98346Y84130D01*
X98274Y84292D01*
X98274Y84292D01*
X98274Y84292D01*
X98163Y84339D01*
X98110Y84487D01*
X98118Y85382D01*
X98118Y85382D01*
X98142Y85441D01*
X98201Y85464D01*
X98201Y85465D01*
X98201Y85465D01*
X98237Y85527D01*
X98285Y85547D01*
X98308Y85592D01*
X98369Y85629D01*
X98369Y85629D01*
X98369Y85629D01*
X98369Y85629D01*
X98370Y85632D01*
X98395Y85688D01*
X98453Y85711D01*
X98453Y85711D01*
X98453Y85711D01*
X98545Y85930D01*
X98644Y86162D01*
X98644Y86162D01*
X98644Y86245D01*
X98645Y86245D01*
X98628Y86286D01*
X98645Y86328D01*
X98645Y86328D01*
X98646Y86411D01*
X98646Y86411D01*
X98463Y86864D01*
X98463Y86864D01*
X98406Y86888D01*
X98380Y86948D01*
X98323Y86980D01*
X98298Y87032D01*
X98247Y87058D01*
X98216Y87115D01*
X98216Y87116D01*
X98216Y87116D01*
X98216Y87116D01*
X98154Y87147D01*
X98154Y87148D01*
X98134Y87228D01*
X98141Y88087D01*
X98198Y88241D01*
X98308Y88286D01*
D01*
X98309Y88287D01*
X98309Y88287D01*
X98309Y88287D01*
X98383Y88448D01*
X98393Y88452D01*
X98393Y88452D01*
X98393Y88452D01*
X98420Y88511D01*
X98477Y88534D01*
X98477Y88534D01*
X98477Y88534D01*
X98478Y88535D01*
X98572Y88758D01*
X98668Y88984D01*
X98668Y88985D01*
X98669Y89067D01*
X98669Y89067D01*
X98655Y89103D01*
X98670Y89150D01*
X98670Y89150D01*
X98670Y89151D01*
X98670Y89151D01*
X98670Y89151D01*
X98671Y89233D01*
X98671Y89234D01*
X98671Y89234D01*
X98671Y89234D01*
X98591Y89431D01*
X98591Y89431D01*
X98586Y89442D01*
X98487Y89687D01*
Y89687D01*
X98487Y89687D01*
X98487Y89687D01*
X98487Y89687D01*
X98423Y89728D01*
X98405Y89771D01*
X98348Y89804D01*
X98323Y89855D01*
X98272Y89881D01*
X98240Y89938D01*
X98240Y89938D01*
X98240Y89938D01*
X97790Y90130D01*
X97790Y90130D01*
X97790Y90130D01*
X97741Y90130D01*
X97542Y90215D01*
X97459Y90215D01*
X97459Y90215D01*
X97423Y90201D01*
X97376Y90216D01*
X97376Y90216D01*
X97376Y90216D01*
X97293Y90217D01*
X97251Y90200D01*
X97210Y90218D01*
X97161Y90218D01*
X96961Y90303D01*
X96961Y90303D01*
X96961Y90303D01*
X96878Y90303D01*
X96837Y90287D01*
X96795Y90304D01*
X96795Y90304D01*
X96795Y90304D01*
X96712Y90305D01*
X96581Y90306D01*
X96381Y90391D01*
X96381Y90391D01*
X96381Y90391D01*
X96298Y90392D01*
X96256Y90375D01*
X96215Y90392D01*
X96132Y90393D01*
X96090Y90376D01*
X96049Y90394D01*
X95966Y90395D01*
X95883Y90395D01*
X95883Y90395D01*
X95834Y90396D01*
X95634Y90480D01*
X95634Y90480D01*
X95634Y90480D01*
X95551Y90481D01*
X95510Y90464D01*
X95468Y90482D01*
X95468Y90482D01*
X95468Y90482D01*
X95420Y90482D01*
X95220Y90567D01*
X95137Y90568D01*
X95095Y90551D01*
X95054Y90569D01*
X95054D01*
X95054Y90569D01*
X95054Y90569D01*
X94971Y90569D01*
X94971Y90569D01*
X94971Y90569D01*
X94929Y90552D01*
X94888Y90570D01*
X94888Y90570D01*
X94888Y90570D01*
X94805Y90571D01*
X94763Y90554D01*
X94722Y90571D01*
X94673Y90572D01*
X94473Y90657D01*
X94390Y90657D01*
X94349Y90640D01*
X94308Y90658D01*
X94142Y90659D01*
X94141Y90659D01*
X94141Y90659D01*
X94093Y90660D01*
X93893Y90745D01*
X93810Y90745D01*
X93769Y90729D01*
X93727Y90746D01*
X93644Y90747D01*
X93644Y90747D01*
X93644Y90747D01*
X93602Y90730D01*
X93561Y90748D01*
X93478Y90748D01*
X93478Y90748D01*
X93478Y90748D01*
X93395Y90749D01*
X93346Y90750D01*
X93147Y90834D01*
X93147D01*
X93147Y90834D01*
X93147Y90834D01*
X93064Y90835D01*
X93064Y90835D01*
X93064Y90835D01*
X92981Y90836D01*
X92815Y90837D01*
X92815Y90837D01*
X92814Y90837D01*
X92766Y90838D01*
X92566Y90922D01*
X92483Y90923D01*
X92442Y90906D01*
X92400Y90924D01*
X92400D01*
X92400Y90924D01*
X92400Y90924D01*
X92317Y90925D01*
X92317Y90925D01*
X92317Y90925D01*
X92276Y90908D01*
X92234Y90925D01*
X92019Y90927D01*
X91820Y91012D01*
X91605Y91014D01*
X91405Y91098D01*
X91405Y91098D01*
X91405Y91098D01*
X91322Y91099D01*
X91281Y91082D01*
X91239Y91100D01*
X91156Y91101D01*
X91156Y91101D01*
X91156Y91101D01*
X91115Y91084D01*
X91073Y91101D01*
X90990Y91102D01*
X90990Y91102D01*
X90990Y91102D01*
X90907Y91103D01*
X90907Y91103D01*
X90859Y91103D01*
X90659Y91188D01*
X90576Y91189D01*
X90534Y91172D01*
X90493Y91189D01*
X90444Y91190D01*
X90245Y91275D01*
X90244D01*
X90244Y91275D01*
X90244Y91275D01*
X90162Y91275D01*
X90120Y91259D01*
X90079Y91276D01*
X90079Y91276D01*
X90079Y91276D01*
X89995Y91277D01*
X89954Y91260D01*
X89912Y91278D01*
X89912Y91278D01*
X89912Y91278D01*
X89829Y91278D01*
X89788Y91262D01*
X89746Y91279D01*
X89532Y91281D01*
X89332Y91366D01*
X89166Y91367D01*
X89166Y91367D01*
X89166Y91367D01*
X89117Y91368D01*
X89041Y91400D01*
X88895Y91468D01*
X88563Y91697D01*
X88254Y92095D01*
X88208Y92183D01*
X88153Y92368D01*
X88154Y92397D01*
X88137Y92439D01*
X88154Y92480D01*
X88154Y92480D01*
X88154Y92480D01*
X88155Y92563D01*
X88138Y92605D01*
X88156Y92646D01*
Y92646D01*
X88156Y92646D01*
X88156Y92646D01*
X88157Y92729D01*
X88157Y92729D01*
X88157Y92729D01*
X88140Y92771D01*
X88157Y92812D01*
X88157Y92812D01*
X88157Y92812D01*
X88158Y92895D01*
X88141Y92937D01*
X88159Y92978D01*
X88160Y93061D01*
X88143Y93103D01*
X88160Y93144D01*
X88161Y93227D01*
X88144Y93269D01*
X88162Y93310D01*
X88162Y93310D01*
X88162Y93310D01*
X88162Y93394D01*
X88146Y93435D01*
X88163Y93476D01*
X88164Y93559D01*
X88147Y93601D01*
X88165Y93642D01*
X88165Y93726D01*
X88148Y93767D01*
X88166Y93809D01*
X88167Y93892D01*
X88150Y93933D01*
X88168Y93975D01*
X88168Y94058D01*
X88168Y94058D01*
X88168Y94058D01*
X88151Y94099D01*
X88169Y94141D01*
X88169Y94141D01*
X88169Y94141D01*
X88170Y94224D01*
X88153Y94265D01*
X88170Y94307D01*
X88170Y94307D01*
X88170Y94307D01*
X88171Y94390D01*
X88154Y94432D01*
X88172Y94473D01*
X88173Y94556D01*
X88173Y94556D01*
X88173Y94556D01*
X88156Y94597D01*
X88173Y94639D01*
Y94639D01*
X88173Y94639D01*
X88173Y94639D01*
X88174Y94722D01*
X88174Y94722D01*
X88174Y94722D01*
X88124Y94847D01*
X88176Y94971D01*
X88177Y95054D01*
X88126Y95179D01*
X88179Y95303D01*
X88180Y95386D01*
X88099Y95587D01*
X88122Y98248D01*
X88122Y98285D01*
Y98285D01*
X88122Y98292D01*
X88122Y98292D01*
X88017Y98552D01*
X88017Y98552D01*
X87939Y98746D01*
X87939Y98746D01*
X87939Y98746D01*
X87939Y98746D01*
X87617Y98883D01*
X87531Y98919D01*
X87489Y98937D01*
X87489Y98937D01*
X87489Y98937D01*
X87488Y98937D01*
X87406Y98938D01*
X87406Y98938D01*
X87406Y98938D01*
X87405Y98938D01*
X87353Y98926D01*
X87322Y98939D01*
X87322Y98939D01*
X87240Y98939D01*
X87239Y98940D01*
X87239Y98939D01*
X87239Y98939D01*
X87203Y98929D01*
X87156Y98940D01*
X87156Y98940D01*
X87156Y98940D01*
X87156Y98940D01*
X87073Y98941D01*
X87073Y98941D01*
D02*
G37*
G36*
X179801Y83071D02*
X178861D01*
X177993Y82711D01*
X177328Y82047D01*
X177314Y82013D01*
X169339D01*
X169325Y82047D01*
X168661Y82711D01*
X167793Y83071D01*
X166853D01*
X165985Y82711D01*
X165320Y82047D01*
X164961Y81178D01*
Y80239D01*
X165320Y79371D01*
X165985Y78706D01*
X166853Y78347D01*
X167793D01*
X168661Y78706D01*
X169325Y79371D01*
X169339Y79404D01*
X177314D01*
X177328Y79371D01*
X177993Y78706D01*
X178861Y78347D01*
X179801D01*
X180669Y78706D01*
X181333Y79371D01*
X181693Y80239D01*
Y81178D01*
X181333Y82047D01*
X180669Y82711D01*
X179801Y83071D01*
D02*
G37*
G36*
X104927Y86221D02*
X103735D01*
X102583Y85912D01*
X101551Y85316D01*
X100708Y84473D01*
X100112Y83441D01*
X99803Y82289D01*
Y81097D01*
X100112Y79945D01*
X100708Y78913D01*
X101551Y78070D01*
X102583Y77474D01*
X103735Y77165D01*
X104927D01*
X106078Y77474D01*
X107111Y78070D01*
X107954Y78913D01*
X108550Y79945D01*
X108858Y81097D01*
Y82289D01*
X108550Y83441D01*
X107954Y84473D01*
X107111Y85316D01*
X106078Y85912D01*
X104927Y86221D01*
D02*
G37*
G36*
X239643Y81102D02*
X238703D01*
X237835Y80743D01*
X237171Y80078D01*
X236811Y79210D01*
Y78270D01*
X237171Y77402D01*
X237668Y76905D01*
Y72702D01*
X237171Y72204D01*
X236811Y71336D01*
Y70396D01*
X237171Y69528D01*
X237835Y68864D01*
X238703Y68504D01*
X239643D01*
X240511Y68864D01*
X241176Y69528D01*
X241535Y70396D01*
Y71336D01*
X241176Y72204D01*
X240679Y72702D01*
Y76905D01*
X241176Y77402D01*
X241535Y78270D01*
Y79210D01*
X241176Y80078D01*
X240511Y80743D01*
X239643Y81102D01*
D02*
G37*
G36*
X179801Y69291D02*
X178861D01*
X177993Y68932D01*
X177328Y68267D01*
X177314Y68234D01*
X169339D01*
X169325Y68267D01*
X168661Y68932D01*
X167793Y69291D01*
X166853D01*
X165985Y68932D01*
X165320Y68267D01*
X164961Y67399D01*
Y66459D01*
X165320Y65591D01*
X165985Y64926D01*
X166853Y64567D01*
X167793D01*
X168661Y64926D01*
X169325Y65591D01*
X169339Y65624D01*
X177314D01*
X177328Y65591D01*
X177993Y64927D01*
X178861Y64567D01*
X179801D01*
X180669Y64927D01*
X181333Y65591D01*
X181693Y66459D01*
Y67399D01*
X181333Y68267D01*
X180669Y68932D01*
X179801Y69291D01*
D02*
G37*
G36*
X251821Y87461D02*
X251312D01*
X250842Y87266D01*
X250482Y86906D01*
X250287Y86436D01*
Y85927D01*
X250482Y85456D01*
X250842Y85096D01*
X251100Y84989D01*
X251229Y84214D01*
X251198Y83965D01*
X251024Y83892D01*
X250360Y83228D01*
X250000Y82360D01*
Y81420D01*
X250355Y80563D01*
Y68650D01*
X250000Y67793D01*
Y66853D01*
X250360Y65985D01*
X250791Y65554D01*
X250831Y64735D01*
X250715Y64383D01*
X250482Y64150D01*
X250287Y63680D01*
Y63171D01*
X250482Y62700D01*
X250842Y62340D01*
X251312Y62146D01*
X251821D01*
X252292Y62340D01*
X252652Y62700D01*
X252847Y63171D01*
Y63680D01*
X252724Y63976D01*
X252768Y64384D01*
X253116Y65078D01*
X253700Y65320D01*
X254365Y65985D01*
X254724Y66853D01*
Y67793D01*
X254369Y68650D01*
Y80563D01*
X254724Y81420D01*
Y82360D01*
X254365Y83228D01*
X253700Y83892D01*
X252832Y84252D01*
X252733D01*
X252565Y84575D01*
X252432Y85236D01*
X252652Y85456D01*
X252847Y85927D01*
Y86436D01*
X252652Y86906D01*
X252292Y87266D01*
X251821Y87461D01*
D02*
G37*
G36*
X251644Y60789D02*
X249978D01*
Y58295D01*
X254572D01*
X254536Y58570D01*
X254237Y59292D01*
X253761Y59912D01*
X253141Y60388D01*
X252419Y60687D01*
X251644Y60789D01*
D02*
G37*
G36*
X248978D02*
X247313D01*
X246538Y60687D01*
X245816Y60388D01*
X245196Y59912D01*
X244720Y59292D01*
X244421Y58570D01*
X244385Y58295D01*
X248978D01*
Y60789D01*
D02*
G37*
G36*
X265435D02*
X264754D01*
X263979Y60687D01*
X263257Y60388D01*
X262637Y59912D01*
X262161Y59292D01*
X261862Y58570D01*
X261826Y58295D01*
X265435D01*
Y60789D01*
D02*
G37*
G36*
X53150Y60081D02*
X51681D01*
Y55618D01*
X56144D01*
Y57087D01*
X56118Y57281D01*
Y60055D01*
X53344D01*
X53150Y60081D01*
D02*
G37*
G36*
X50681D02*
X49213D01*
X49018Y60055D01*
X46244D01*
Y57281D01*
X46218Y57087D01*
Y55618D01*
X50681D01*
Y60081D01*
D02*
G37*
G36*
X265435Y57295D02*
X261826D01*
X261862Y57020D01*
X262161Y56298D01*
X262637Y55678D01*
X263257Y55202D01*
X263979Y54903D01*
X264754Y54801D01*
X265435D01*
Y57295D01*
D02*
G37*
G36*
X254572Y57295D02*
X249978D01*
Y54801D01*
X251644D01*
X252419Y54903D01*
X253141Y55202D01*
X253761Y55678D01*
X254237Y56298D01*
X254536Y57020D01*
X254572Y57295D01*
D02*
G37*
G36*
X248978D02*
X244385D01*
X244421Y57020D01*
X244720Y56298D01*
X245196Y55678D01*
X245816Y55202D01*
X246538Y54903D01*
X247313Y54801D01*
X248978D01*
Y57295D01*
D02*
G37*
G36*
X76102Y60039D02*
X66260D01*
Y50197D01*
X76102D01*
Y60039D01*
D02*
G37*
G36*
X33150Y60065D02*
X29213D01*
X28442Y59963D01*
X27724Y59666D01*
X27107Y59193D01*
X26633Y58576D01*
X26336Y57857D01*
X26234Y57087D01*
Y53150D01*
X26336Y52379D01*
X26633Y51661D01*
X27107Y51044D01*
X27724Y50570D01*
X28442Y50273D01*
X29213Y50171D01*
X33150D01*
X33920Y50273D01*
X34639Y50570D01*
X35256Y51044D01*
X35729Y51661D01*
X36026Y52379D01*
X36128Y53150D01*
Y57087D01*
X36026Y57857D01*
X35729Y58576D01*
X35256Y59193D01*
X34639Y59666D01*
X33920Y59963D01*
X33150Y60065D01*
D02*
G37*
G36*
X56144Y54618D02*
X51681D01*
Y50156D01*
X53150D01*
X53344Y50181D01*
X56118D01*
Y52955D01*
X56144Y53150D01*
Y54618D01*
D02*
G37*
G36*
X50681D02*
X46218D01*
Y53150D01*
X46244Y52955D01*
Y50181D01*
X49018D01*
X49213Y50156D01*
X50681D01*
Y54618D01*
D02*
G37*
G36*
X179604Y43701D02*
X178664D01*
X177807Y43346D01*
X165697D01*
X164840Y43701D01*
X163900D01*
X163032Y43341D01*
X162367Y42677D01*
X162008Y41808D01*
Y40869D01*
X162367Y40001D01*
X163032Y39336D01*
X163900Y38976D01*
X164840D01*
X165697Y39331D01*
X177807D01*
X178664Y38976D01*
X179604D01*
X179663Y39001D01*
X180348Y38219D01*
X180071Y37740D01*
X179803Y36739D01*
Y35702D01*
X180071Y34701D01*
X180590Y33803D01*
X181323Y33070D01*
X182220Y32552D01*
X183222Y32283D01*
X184258D01*
X185260Y32552D01*
X186158Y33070D01*
X186890Y33803D01*
X187409Y34701D01*
X187677Y35702D01*
Y36739D01*
X187409Y37740D01*
X186890Y38638D01*
X186158Y39371D01*
X185260Y39889D01*
X184258Y40157D01*
X183222D01*
X182220Y39889D01*
X182135Y39840D01*
X181354Y40525D01*
X181496Y40869D01*
Y41808D01*
X181136Y42677D01*
X180472Y43341D01*
X179604Y43701D01*
D02*
G37*
G36*
X237693Y40173D02*
X234240D01*
Y36720D01*
X237693D01*
Y40173D01*
D02*
G37*
G36*
X233240D02*
X229787D01*
Y36720D01*
X233240D01*
Y40173D01*
D02*
G37*
G36*
X224258Y40157D02*
X223222D01*
X222220Y39889D01*
X221323Y39371D01*
X220590Y38638D01*
X220072Y37740D01*
X219803Y36739D01*
Y35702D01*
X220072Y34701D01*
X220590Y33803D01*
X221323Y33070D01*
X222220Y32552D01*
X223222Y32283D01*
X224258D01*
X225260Y32552D01*
X226157Y33070D01*
X226890Y33803D01*
X227409Y34701D01*
X227677Y35702D01*
Y36739D01*
X227409Y37740D01*
X226890Y38638D01*
X226157Y39371D01*
X225260Y39889D01*
X224258Y40157D01*
D02*
G37*
G36*
X214259D02*
X213222D01*
X212221Y39889D01*
X211323Y39371D01*
X210590Y38638D01*
X210071Y37740D01*
X209803Y36739D01*
Y35702D01*
X210071Y34701D01*
X210590Y33803D01*
X211323Y33070D01*
X212221Y32552D01*
X213222Y32283D01*
X214259D01*
X215260Y32552D01*
X216158Y33070D01*
X216891Y33803D01*
X217409Y34701D01*
X217677Y35702D01*
Y36739D01*
X217409Y37740D01*
X216891Y38638D01*
X216158Y39371D01*
X215260Y39889D01*
X214259Y40157D01*
D02*
G37*
G36*
X204258D02*
X203222D01*
X202221Y39889D01*
X201323Y39371D01*
X200590Y38638D01*
X200072Y37740D01*
X199803Y36739D01*
Y35702D01*
X200072Y34701D01*
X200590Y33803D01*
X201323Y33070D01*
X202221Y32552D01*
X203222Y32283D01*
X204258D01*
X205260Y32552D01*
X206157Y33070D01*
X206891Y33803D01*
X207409Y34701D01*
X207677Y35702D01*
Y36739D01*
X207409Y37740D01*
X206891Y38638D01*
X206157Y39371D01*
X205260Y39889D01*
X204258Y40157D01*
D02*
G37*
G36*
X194258D02*
X193222D01*
X192220Y39889D01*
X191323Y39371D01*
X190590Y38638D01*
X190071Y37740D01*
X189803Y36739D01*
Y35702D01*
X190071Y34701D01*
X190590Y33803D01*
X191323Y33070D01*
X192220Y32552D01*
X193222Y32283D01*
X194258D01*
X195260Y32552D01*
X196158Y33070D01*
X196890Y33803D01*
X197409Y34701D01*
X197677Y35702D01*
Y36739D01*
X197409Y37740D01*
X196890Y38638D01*
X196158Y39371D01*
X195260Y39889D01*
X194258Y40157D01*
D02*
G37*
G36*
X237693Y35721D02*
X234240D01*
Y32268D01*
X237693D01*
Y35721D01*
D02*
G37*
G36*
X233240D02*
X229787D01*
Y32268D01*
X233240D01*
Y35721D01*
D02*
G37*
G36*
X59539Y35055D02*
X59441D01*
X58286Y34745D01*
X57250Y34147D01*
X56404Y33301D01*
X55806Y32265D01*
X55496Y31110D01*
X54567Y31108D01*
X54258Y32259D01*
X53662Y33292D01*
X52819Y34135D01*
X51787Y34731D01*
X50635Y35039D01*
X49443D01*
X48292Y34731D01*
X47259Y34135D01*
X46416Y33292D01*
X45820Y32259D01*
X45512Y31108D01*
Y29916D01*
X45820Y28764D01*
X46416Y27732D01*
X47259Y26889D01*
X48292Y26293D01*
X49443Y25984D01*
X50635D01*
X51787Y26293D01*
X52819Y26889D01*
X53662Y27732D01*
X54258Y28764D01*
X54567Y29916D01*
X55496Y29914D01*
X55806Y28758D01*
X56404Y27722D01*
X57250Y26876D01*
X58286Y26278D01*
X59441Y25969D01*
X59539D01*
Y30512D01*
Y35055D01*
D02*
G37*
G36*
X60637D02*
X60539D01*
Y30512D01*
Y25969D01*
X60637D01*
X61793Y26278D01*
X62829Y26876D01*
X63675Y27722D01*
X64273Y28758D01*
X64583Y29914D01*
X65512Y29916D01*
X65820Y28764D01*
X66416Y27732D01*
X67259Y26889D01*
X68292Y26293D01*
X69443Y25984D01*
X70635D01*
X71787Y26293D01*
X72819Y26889D01*
X73662Y27732D01*
X74258Y28764D01*
X74567Y29916D01*
Y31108D01*
X74258Y32259D01*
X73662Y33292D01*
X72819Y34135D01*
X71787Y34731D01*
X70635Y35039D01*
X69443D01*
X68292Y34731D01*
X67259Y34135D01*
X66416Y33292D01*
X65820Y32259D01*
X65512Y31108D01*
X64583Y31110D01*
X64273Y32265D01*
X63675Y33301D01*
X62829Y34147D01*
X61793Y34745D01*
X60637Y35055D01*
D02*
G37*
G36*
X108717Y24054D02*
X108551Y23987D01*
X108511Y23987D01*
X108443Y23988D01*
X108443Y23988D01*
X108375Y23989D01*
X108340Y23975D01*
X108306Y23989D01*
X108306D01*
X108306Y23989D01*
X108306Y23989D01*
X108238Y23990D01*
X108238Y23990D01*
X108237Y23990D01*
X108071Y23923D01*
X108032Y23923D01*
X108032Y23923D01*
X108031Y23923D01*
X107997Y23909D01*
X107963Y23924D01*
X107894Y23924D01*
X107860Y23910D01*
X107826Y23925D01*
X107826Y23925D01*
X107826Y23925D01*
X107757Y23925D01*
X107757Y23925D01*
X107757Y23925D01*
X107591Y23858D01*
X107551Y23859D01*
X107386Y23792D01*
X107345Y23792D01*
X107311Y23778D01*
X107277Y23793D01*
X107208Y23793D01*
X107043Y23726D01*
X107003Y23727D01*
X107002Y23727D01*
X107002Y23727D01*
X106836Y23660D01*
X106796Y23660D01*
X106762Y23646D01*
X106728Y23661D01*
X106728Y23660D01*
X106728Y23661D01*
X106659Y23661D01*
X106659Y23661D01*
X106659Y23661D01*
X106293Y23527D01*
X106247Y23528D01*
X106247Y23528D01*
X106247Y23528D01*
X105794Y23345D01*
X105794Y23344D01*
X105793Y23344D01*
X105786Y23326D01*
X105766Y23326D01*
X105600Y23259D01*
X105560Y23260D01*
X105330Y23167D01*
X105107Y23077D01*
X105106Y23076D01*
X105106Y23076D01*
X105094Y23048D01*
X104831Y22942D01*
X104831Y22942D01*
X104831Y22942D01*
X104819Y22914D01*
X104785Y22900D01*
X104556Y22807D01*
X104556Y22807D01*
X104556Y22807D01*
X104544Y22779D01*
X104281Y22673D01*
X104261Y22625D01*
X104212Y22605D01*
X104212Y22605D01*
X104212Y22605D01*
X104192Y22557D01*
X104143Y22537D01*
X104143Y22537D01*
X104143Y22537D01*
X104137Y22523D01*
X104006Y22470D01*
X104006Y22470D01*
X104005Y22470D01*
X103999Y22456D01*
X103868Y22402D01*
X103868Y22402D01*
X103868Y22402D01*
X103847Y22354D01*
X103799Y22335D01*
X103799Y22334D01*
X103799Y22334D01*
X103787Y22306D01*
X103524Y22200D01*
X103524Y22200D01*
X103524Y22200D01*
X103503Y22152D01*
X103455Y22132D01*
X103455Y22132D01*
X103454Y22132D01*
X103434Y22084D01*
X103386Y22064D01*
X103386Y22064D01*
X103385Y22064D01*
X103365Y22016D01*
X103316Y21996D01*
X103316Y21996D01*
X103316Y21996D01*
X103296Y21948D01*
X103248Y21929D01*
X103247Y21928D01*
X103247Y21928D01*
X103227Y21880D01*
X103178Y21861D01*
X103178Y21861D01*
X103178Y21861D01*
X103172Y21847D01*
X103041Y21793D01*
X103041Y21793D01*
X103041Y21793D01*
X103035Y21779D01*
X102903Y21726D01*
X102883Y21678D01*
X102834Y21658D01*
X102834Y21658D01*
X102834Y21658D01*
X102814Y21610D01*
X102765Y21590D01*
X102765Y21590D01*
X102765Y21590D01*
X102744Y21542D01*
X102696Y21522D01*
X102696Y21522D01*
X102696Y21522D01*
X102675Y21474D01*
X102627Y21455D01*
X102627Y21454D01*
X102627Y21454D01*
X102606Y21406D01*
X102558Y21387D01*
X102537Y21338D01*
X102489Y21319D01*
X102489Y21319D01*
X102489Y21319D01*
X102468Y21270D01*
X102420Y21251D01*
X102420Y21251D01*
X102419Y21251D01*
X102399Y21203D01*
X102351Y21183D01*
X102351Y21183D01*
X102350Y21183D01*
X102330Y21135D01*
X102281Y21115D01*
X102281Y21115D01*
X102281Y21115D01*
X102261Y21067D01*
X102212Y21047D01*
X102192Y20999D01*
X102143Y20979D01*
X102143Y20979D01*
X102143Y20979D01*
X102123Y20931D01*
X102075Y20912D01*
X102075Y20912D01*
X102074Y20911D01*
X102054Y20863D01*
X102005Y20844D01*
X102005Y20844D01*
X101985Y20795D01*
X101936Y20776D01*
X101895Y20679D01*
X101798Y20640D01*
X101798Y20640D01*
X101798Y20640D01*
X101698Y20404D01*
X101687Y20379D01*
X101659Y20367D01*
X101638Y20319D01*
X101590Y20300D01*
X101590Y20299D01*
X101589Y20299D01*
X101569Y20251D01*
X101521Y20232D01*
X101521Y20231D01*
X101520Y20231D01*
X101500Y20183D01*
X101451Y20164D01*
X101396Y20033D01*
X101382Y20027D01*
X101382Y20027D01*
X101382Y20027D01*
X101326Y19896D01*
X101312Y19891D01*
X101312Y19891D01*
X101312Y19891D01*
X101292Y19842D01*
X101243Y19823D01*
X101243Y19823D01*
X101243Y19823D01*
X101222Y19775D01*
X101174Y19755D01*
X101174Y19755D01*
X101174Y19755D01*
X101153Y19707D01*
X101105Y19687D01*
X101105Y19687D01*
X101105Y19687D01*
X101008Y19458D01*
X100994Y19426D01*
X100965Y19414D01*
X100965Y19414D01*
X100965Y19414D01*
X100869Y19187D01*
X100855Y19153D01*
X100826Y19142D01*
X100826Y19142D01*
X100826Y19142D01*
X100715Y18881D01*
X100687Y18869D01*
X100687Y18869D01*
X100687Y18869D01*
X100576Y18608D01*
X100547Y18596D01*
X100547Y18596D01*
X100547Y18596D01*
X100444Y18354D01*
X100356Y18146D01*
X100356Y18106D01*
X100286Y17941D01*
X100286Y17901D01*
X100216Y17736D01*
X100216Y17736D01*
X100216Y17736D01*
X100215Y17696D01*
X100145Y17531D01*
X100145Y17491D01*
X100075Y17326D01*
X100075Y17287D01*
X100005Y17122D01*
X100005Y17122D01*
X100005Y17122D01*
X100004Y17082D01*
X99935Y16917D01*
Y16917D01*
X99935Y16917D01*
X99935Y16917D01*
X99934Y16849D01*
X99948Y16814D01*
X99933Y16780D01*
X99933Y16740D01*
X99863Y16575D01*
X99863Y16575D01*
X99863Y16575D01*
X99862Y16507D01*
X99876Y16472D01*
X99862Y16438D01*
X99862Y16438D01*
X99862Y16438D01*
X99862Y16398D01*
X99792Y16233D01*
X99791Y16165D01*
X99805Y16131D01*
X99791Y16096D01*
X99791Y16096D01*
X99791Y16096D01*
X99784Y15371D01*
X99714Y15207D01*
X99714Y15207D01*
X99714Y15207D01*
X99714Y15138D01*
X99728Y15104D01*
X99713Y15069D01*
X99713Y15001D01*
X99726Y14967D01*
X99712Y14933D01*
Y14933D01*
X99712Y14933D01*
X99712Y14933D01*
X99711Y14864D01*
X99711Y14864D01*
X99711Y14864D01*
X99778Y14698D01*
X99774Y14247D01*
X99788Y14213D01*
X99774Y14179D01*
Y14179D01*
X99774Y14179D01*
X99774Y14179D01*
X99773Y14110D01*
X99840Y13945D01*
X99840Y13904D01*
X99907Y13738D01*
X99905Y13562D01*
X99905Y13561D01*
X99905Y13561D01*
X100001Y13325D01*
X100089Y13108D01*
X100091Y13090D01*
X100191Y12399D01*
X100166Y12053D01*
X100166Y12053D01*
X100166Y12053D01*
X100166Y12053D01*
X100166Y12053D01*
X100166Y12052D01*
X100165Y11915D01*
X100165Y11915D01*
X100348Y11462D01*
X100348D01*
X100366Y11434D01*
X100457Y11209D01*
X100549Y10981D01*
X100549Y10981D01*
X100549Y10981D01*
X100598Y10960D01*
X100617Y10912D01*
X100617Y10912D01*
X100617Y10912D01*
X100631Y10906D01*
X100684Y10774D01*
X100685Y10774D01*
X100685Y10774D01*
X100699Y10768D01*
X100752Y10637D01*
X100752Y10637D01*
X100752Y10637D01*
X100780Y10625D01*
X100800Y10576D01*
X100886Y10362D01*
X100886Y10362D01*
X100886Y10361D01*
X100935Y10341D01*
X100954Y10292D01*
X101003Y10272D01*
X101022Y10223D01*
X101022Y10223D01*
X101022Y10223D01*
X101050Y10211D01*
X101070Y10163D01*
X101157Y9948D01*
X101157Y9948D01*
X101157Y9948D01*
X101253Y9907D01*
X101293Y9810D01*
X101293Y9810D01*
X101293Y9810D01*
X101341Y9789D01*
X101360Y9741D01*
X101360Y9741D01*
X101360Y9741D01*
X101409Y9720D01*
X101428Y9672D01*
X101428Y9672D01*
X101428Y9672D01*
X101477Y9651D01*
X101496Y9603D01*
X101496Y9603D01*
X101496Y9603D01*
X101544Y9582D01*
X101564Y9534D01*
X101564Y9534D01*
X101564Y9533D01*
X101612Y9513D01*
X101632Y9465D01*
X101632Y9465D01*
X101632Y9465D01*
X101680Y9444D01*
X101700Y9396D01*
X101748Y9375D01*
X101768Y9327D01*
X101768Y9327D01*
X101768Y9326D01*
X101816Y9306D01*
X101836Y9257D01*
X101836Y9257D01*
X101836Y9257D01*
X101884Y9237D01*
X101903Y9188D01*
X101904Y9188D01*
X101904Y9188D01*
X101952Y9168D01*
X101971Y9119D01*
X101971Y9119D01*
X101971Y9119D01*
X102020Y9099D01*
X102039Y9050D01*
X102039Y9050D01*
X102039Y9050D01*
X102087Y9030D01*
X102107Y8981D01*
X102107Y8981D01*
X102107Y8981D01*
X102204Y8940D01*
X102243Y8843D01*
X102243Y8843D01*
X102243Y8843D01*
X102448Y8756D01*
X102504Y8732D01*
X102515Y8704D01*
X102516Y8704D01*
X102516Y8703D01*
X102564Y8683D01*
X102583Y8635D01*
X102583Y8635D01*
X102583Y8635D01*
X102632Y8614D01*
X102651Y8565D01*
X102652Y8565D01*
X102652Y8565D01*
X102782Y8510D01*
X102787Y8496D01*
X102788Y8496D01*
X102788Y8496D01*
X102919Y8440D01*
X102924Y8426D01*
X102972Y8406D01*
X102992Y8357D01*
X102992Y8357D01*
X102992Y8357D01*
X103040Y8337D01*
X103060Y8288D01*
X103060Y8288D01*
X103060Y8288D01*
X103321Y8177D01*
X103332Y8149D01*
X103332Y8149D01*
X103332Y8149D01*
X103557Y8053D01*
X103594Y8038D01*
X103605Y8009D01*
X103605Y8009D01*
X103605Y8009D01*
X103609Y8008D01*
X103836Y7911D01*
X103867Y7898D01*
X103878Y7870D01*
X103878Y7870D01*
X104328Y7679D01*
X104397Y7678D01*
X104397Y7678D01*
X104403Y7681D01*
X104507Y7636D01*
X104738Y7538D01*
X104807Y7538D01*
X104812Y7540D01*
X104929Y7491D01*
X105148Y7398D01*
X105148D01*
X105148Y7398D01*
X105148Y7398D01*
X105216Y7397D01*
X105216Y7397D01*
X105216Y7397D01*
X105251Y7411D01*
X105285Y7396D01*
X105285Y7396D01*
X105285Y7396D01*
X105325Y7396D01*
X105489Y7326D01*
X105490D01*
X105490Y7326D01*
X105490Y7326D01*
X105530Y7326D01*
X105694Y7256D01*
X105763Y7255D01*
X105797Y7269D01*
X105831Y7255D01*
X105900Y7254D01*
X105900Y7254D01*
X105968Y7254D01*
X105968Y7254D01*
X105968Y7254D01*
X106008Y7253D01*
X106173Y7183D01*
X106173D01*
X106173Y7183D01*
X106173Y7183D01*
X106241Y7183D01*
X106242Y7183D01*
X106242Y7183D01*
X106310Y7182D01*
X106310Y7182D01*
X106350Y7182D01*
X106515Y7112D01*
X106583Y7111D01*
X106618Y7125D01*
X106652Y7111D01*
X106652Y7111D01*
X106652Y7111D01*
X106720Y7110D01*
X106755Y7124D01*
X106789Y7109D01*
X106789D01*
X106789Y7109D01*
X106789Y7109D01*
X106857Y7109D01*
X106857Y7109D01*
X106857Y7109D01*
X106892Y7123D01*
X106926Y7108D01*
X106926Y7108D01*
X106926Y7108D01*
X107131Y7106D01*
X107166Y7120D01*
X107200Y7106D01*
X107200Y7106D01*
X107200Y7106D01*
X107337Y7105D01*
X107337Y7105D01*
X107405Y7104D01*
X107405Y7104D01*
X107405Y7104D01*
X107440Y7118D01*
X107474Y7103D01*
X107542Y7103D01*
X107577Y7117D01*
X107611Y7102D01*
X107679Y7102D01*
X107679Y7102D01*
X107679Y7102D01*
X107845Y7169D01*
X107885Y7168D01*
X107885Y7168D01*
X107885Y7168D01*
X108022Y7167D01*
X108056Y7181D01*
X108091Y7166D01*
X108159Y7166D01*
X108325Y7233D01*
X108365Y7233D01*
X108531Y7300D01*
X108571Y7299D01*
X108571Y7299D01*
X108571Y7299D01*
X108737Y7366D01*
X108777Y7366D01*
X108777Y7366D01*
X108777Y7366D01*
X108960Y7433D01*
X108983Y7433D01*
X109149Y7500D01*
X109189Y7499D01*
X109189Y7499D01*
X109189Y7499D01*
X109189D01*
X109296Y7542D01*
X109643Y7682D01*
X110080Y7560D01*
X110080Y7560D01*
X110080Y7560D01*
X110080Y7560D01*
X110080Y7560D01*
X110149Y7559D01*
X110149Y7559D01*
X110149Y7559D01*
X110149Y7559D01*
X110217Y7559D01*
X110383Y7626D01*
X110423Y7626D01*
X110692Y7734D01*
X110876Y7809D01*
X110877Y7809D01*
X110877Y7809D01*
X110877Y7809D01*
X110889Y7837D01*
X110954Y7863D01*
X111152Y7943D01*
X111152Y7943D01*
X111152Y7943D01*
X111164Y7972D01*
X111201Y7987D01*
X111427Y8078D01*
X111427Y8078D01*
X111427Y8078D01*
X111439Y8106D01*
X111702Y8213D01*
X111702Y8213D01*
X111702Y8213D01*
X111714Y8241D01*
X111769Y8263D01*
X111977Y8347D01*
X111977Y8347D01*
X111977Y8347D01*
X111998Y8395D01*
X112046Y8415D01*
X112046Y8415D01*
X112046Y8415D01*
X112058Y8443D01*
X112084Y8454D01*
X112321Y8550D01*
X112321Y8550D01*
X112321Y8550D01*
X112342Y8598D01*
X112390Y8617D01*
X112390Y8617D01*
X112390Y8617D01*
X112396Y8631D01*
X112528Y8685D01*
X112528Y8685D01*
X112528Y8685D01*
X112534Y8699D01*
X112665Y8752D01*
X112665Y8752D01*
X112665Y8752D01*
X112686Y8800D01*
X112734Y8820D01*
X112734Y8820D01*
X112734Y8820D01*
X112755Y8868D01*
X112804Y8888D01*
X112824Y8936D01*
X112873Y8956D01*
X112885Y8984D01*
X112943Y9007D01*
X113148Y9090D01*
X113148Y9090D01*
X113148Y9090D01*
X113168Y9138D01*
X113217Y9158D01*
X113217Y9158D01*
X113217Y9158D01*
X113237Y9206D01*
X113286Y9226D01*
X113286Y9226D01*
X113286Y9226D01*
X113306Y9274D01*
X113355Y9294D01*
X113355Y9294D01*
X113355Y9294D01*
X113376Y9342D01*
X113424Y9362D01*
X113445Y9410D01*
X113493Y9430D01*
X113493Y9430D01*
X113494Y9430D01*
X113499Y9444D01*
X113631Y9497D01*
X113631Y9497D01*
X113631Y9497D01*
X113637Y9511D01*
X113768Y9564D01*
X113768Y9564D01*
X113768Y9564D01*
X113809Y9661D01*
X113907Y9700D01*
X113907Y9700D01*
X113907Y9700D01*
X113947Y9796D01*
X114044Y9836D01*
X114045Y9836D01*
X114045Y9836D01*
X114086Y9932D01*
X114183Y9971D01*
X114183Y9972D01*
X114183Y9972D01*
X114224Y10068D01*
X114321Y10107D01*
X114321Y10107D01*
X114321Y10107D01*
X114362Y10204D01*
X114459Y10243D01*
X114459Y10243D01*
X114459Y10243D01*
X114535Y10422D01*
X114597Y10447D01*
X114598Y10447D01*
X114598Y10447D01*
X114653Y10578D01*
X114667Y10584D01*
X114667Y10584D01*
X114668Y10584D01*
X114688Y10632D01*
X114736Y10651D01*
X114736Y10651D01*
X114737Y10651D01*
X114757Y10700D01*
X114806Y10719D01*
X114806Y10719D01*
X114806Y10719D01*
X114826Y10768D01*
X114875Y10787D01*
X114895Y10835D01*
X114944Y10855D01*
X114964Y10903D01*
X115013Y10923D01*
X115013Y10923D01*
X115013Y10923D01*
X115105Y11139D01*
X115124Y11184D01*
X115152Y11196D01*
X115152Y11196D01*
X115152Y11196D01*
X115173Y11244D01*
X115221Y11264D01*
X115221Y11264D01*
X115222Y11264D01*
X115242Y11312D01*
X115290Y11332D01*
X115290Y11332D01*
X115290Y11332D01*
X115390Y11565D01*
X115401Y11593D01*
X115430Y11604D01*
X115430Y11604D01*
X115430Y11604D01*
X115450Y11653D01*
X115499Y11672D01*
X115499Y11672D01*
X115499Y11672D01*
X115636Y11944D01*
X115638Y11945D01*
X115638Y11945D01*
X115638Y11945D01*
X115663Y11995D01*
X115707Y12012D01*
X115707Y12013D01*
X115707Y12013D01*
X115898Y12463D01*
X115917Y12490D01*
X115917D01*
X116012Y12715D01*
X116127Y12968D01*
X116217Y13182D01*
X116318Y13418D01*
X116318Y13458D01*
X116388Y13623D01*
X116388Y13623D01*
X116388Y13623D01*
X116388Y13663D01*
X116458Y13828D01*
Y13828D01*
X116458Y13828D01*
X116458Y13828D01*
X116459Y13896D01*
X116459Y13896D01*
X116459Y13896D01*
X116445Y13931D01*
X116459Y13965D01*
X116460Y14005D01*
X116530Y14170D01*
X116530Y14210D01*
X116600Y14374D01*
Y14375D01*
X116600Y14375D01*
X116600Y14375D01*
X116601Y14443D01*
X116601Y14443D01*
X116601Y14443D01*
X116587Y14477D01*
X116601Y14511D01*
X116603Y14688D01*
X116673Y14853D01*
X116673Y14922D01*
X116673Y14922D01*
X116673Y14922D01*
X116697Y15565D01*
X116888Y16016D01*
X116888Y16016D01*
X116898Y17180D01*
X116885Y17214D01*
X116899Y17248D01*
X116899Y17248D01*
X116899Y17248D01*
X116900Y17317D01*
X116900Y17317D01*
X116900Y17317D01*
X116886Y17351D01*
X116900Y17385D01*
Y17385D01*
X116900Y17385D01*
X116900Y17385D01*
X116901Y17454D01*
X116887Y17488D01*
X116901Y17522D01*
X116901Y17522D01*
X116901Y17522D01*
X116902Y17591D01*
X116835Y17756D01*
X116835Y17797D01*
X116835Y17797D01*
X116835Y17797D01*
X116821Y17831D01*
X116836Y17865D01*
X116836Y17934D01*
X116769Y18100D01*
X116772Y18414D01*
X116758Y18448D01*
X116773Y18482D01*
X116773Y18550D01*
X116773Y18550D01*
X116773Y18550D01*
X116706Y18717D01*
X116707Y18757D01*
X116640Y18923D01*
X116640Y18963D01*
X116640Y18963D01*
X116640Y18963D01*
X116626Y18997D01*
X116641Y19031D01*
X116641Y19031D01*
X116641Y19031D01*
X116641Y19099D01*
X116641Y19100D01*
X116641Y19100D01*
X116558Y19306D01*
X116505Y19437D01*
X116507Y19443D01*
Y19443D01*
X116507Y19443D01*
X116507Y19443D01*
X116508Y19511D01*
X116325Y19965D01*
X116306Y19973D01*
X116306Y19993D01*
X116187Y20288D01*
X116123Y20446D01*
X116123Y20446D01*
X116123Y20446D01*
X116095Y20458D01*
X115989Y20721D01*
X115989Y20721D01*
X115989Y20722D01*
X115940Y20742D01*
X115921Y20790D01*
X115921Y20790D01*
X115921Y20790D01*
X115893Y20802D01*
X115875Y20847D01*
X115786Y21066D01*
X115786Y21066D01*
X115786Y21066D01*
X115758Y21078D01*
X115652Y21341D01*
X115652Y21341D01*
X115652Y21341D01*
X115603Y21361D01*
X115584Y21410D01*
X115584Y21410D01*
X115584Y21410D01*
X115536Y21430D01*
X115516Y21479D01*
X115516Y21479D01*
X115516Y21479D01*
X115468Y21499D01*
X115448Y21548D01*
X115448Y21548D01*
X115448Y21548D01*
X115400Y21569D01*
X115380Y21617D01*
X115380Y21617D01*
X115380Y21617D01*
X115332Y21637D01*
X115312Y21686D01*
X115312Y21686D01*
X115312Y21686D01*
X115264Y21707D01*
X115244Y21755D01*
X115244Y21755D01*
X115244Y21755D01*
X115196Y21776D01*
X115177Y21824D01*
X115176Y21824D01*
X115176Y21824D01*
X115128Y21845D01*
X115109Y21893D01*
X115109Y21893D01*
X115109Y21893D01*
X115060Y21914D01*
X115041Y21963D01*
X115041Y21963D01*
X115041Y21963D01*
X114992Y21983D01*
X114973Y22031D01*
X114973Y22031D01*
X114973Y22032D01*
X114925Y22052D01*
X114905Y22100D01*
X114905Y22100D01*
X114905Y22101D01*
X114857Y22121D01*
X114837Y22170D01*
X114837Y22170D01*
X114837Y22170D01*
X114789Y22190D01*
X114769Y22239D01*
X114721Y22259D01*
X114701Y22308D01*
X114701Y22308D01*
X114701Y22308D01*
X114653Y22328D01*
X114634Y22377D01*
X114634Y22377D01*
X114634Y22377D01*
X114585Y22397D01*
X114566Y22446D01*
X114566Y22446D01*
X114566Y22446D01*
X114435Y22501D01*
X114429Y22515D01*
X114429Y22515D01*
X114429Y22516D01*
X114298Y22571D01*
X114293Y22585D01*
X114245Y22606D01*
X114225Y22654D01*
X114225Y22654D01*
X114225Y22654D01*
X114177Y22675D01*
X114157Y22724D01*
X114157Y22724D01*
X114157Y22724D01*
X114026Y22779D01*
X114021Y22793D01*
X114021Y22793D01*
X114021Y22793D01*
X113890Y22849D01*
X113884Y22863D01*
X113884Y22863D01*
X113884Y22863D01*
X113834Y22888D01*
X113816Y22932D01*
X113816Y22932D01*
X113816Y22932D01*
X113768Y22954D01*
X113749Y23001D01*
X113749Y23001D01*
X113749Y23001D01*
X113748Y23001D01*
X113507Y23104D01*
X113299Y23192D01*
X113269Y23192D01*
X113099Y23260D01*
X113094Y23262D01*
X113093D01*
X113093Y23262D01*
X113066Y23281D01*
X112879Y23361D01*
X112616Y23472D01*
X112616Y23472D01*
X112616Y23472D01*
X112576Y23472D01*
X112411Y23542D01*
X112411Y23542D01*
X112411Y23542D01*
X112371Y23543D01*
X112206Y23613D01*
X112206Y23613D01*
X112206Y23613D01*
X112166Y23613D01*
X112001Y23683D01*
X111961Y23683D01*
X111797Y23753D01*
X111797Y23753D01*
X111796Y23753D01*
X111728Y23754D01*
X111728Y23754D01*
X111728Y23754D01*
X111694Y23740D01*
X111660Y23754D01*
X111660D01*
X111660Y23754D01*
X111659Y23754D01*
X111591Y23755D01*
X111591Y23755D01*
X111591Y23755D01*
X111523Y23756D01*
X111522Y23755D01*
X111522Y23756D01*
X111454Y23756D01*
X111420Y23742D01*
X111386Y23757D01*
X111386Y23757D01*
X111386D01*
X111386Y23757D01*
X111386Y23757D01*
X111317Y23757D01*
X111317Y23757D01*
X111317Y23757D01*
X111283Y23744D01*
X111249Y23758D01*
X111249Y23758D01*
X111249Y23758D01*
X111249Y23758D01*
X111180Y23759D01*
X110195Y23854D01*
X110195Y23854D01*
X110195Y23854D01*
X110195Y23854D01*
X109912Y23974D01*
X109745Y24045D01*
X109744D01*
X109744Y24045D01*
X109744Y24045D01*
X109676Y24046D01*
X109676Y24046D01*
X109676Y24046D01*
X109676Y24046D01*
X109607Y24046D01*
X109607Y24046D01*
X109607Y24046D01*
X109471Y24047D01*
X109471Y24047D01*
X109471Y24047D01*
X109470Y24047D01*
X109402Y24048D01*
X109402Y24048D01*
X109402Y24048D01*
X109334Y24049D01*
X109334Y24049D01*
X109334Y24049D01*
X109334Y24049D01*
X109265Y24049D01*
X109231Y24035D01*
X109197Y24050D01*
X109196D01*
X109196Y24050D01*
X109196Y24050D01*
X109128Y24050D01*
X109094Y24036D01*
X109060Y24051D01*
X109060Y24051D01*
X109060Y24051D01*
X108991Y24052D01*
X108957Y24038D01*
X108923Y24052D01*
X108854Y24053D01*
X108820Y24039D01*
X108786Y24053D01*
X108786Y24053D01*
X108786Y24053D01*
X108717Y24054D01*
D02*
G37*
G36*
X17585Y23425D02*
X15879D01*
X14206Y23092D01*
X12630Y22439D01*
X11211Y21492D01*
X10005Y20285D01*
X9057Y18867D01*
X8404Y17290D01*
X8071Y15617D01*
Y13911D01*
X8404Y12237D01*
X9057Y10661D01*
X10005Y9243D01*
X11211Y8036D01*
X12630Y7088D01*
X14206Y6435D01*
X15879Y6102D01*
X17585D01*
X19259Y6435D01*
X20835Y7088D01*
X22254Y8036D01*
X23460Y9243D01*
X24408Y10661D01*
X25061Y12237D01*
X25394Y13911D01*
Y15617D01*
X25061Y17290D01*
X24408Y18867D01*
X23460Y20285D01*
X22254Y21492D01*
X20835Y22439D01*
X19259Y23092D01*
X17585Y23425D01*
D02*
G37*
%LPD*%
G36*
X233274Y248938D02*
X233781Y248431D01*
X234055Y247769D01*
Y247410D01*
Y246996D01*
X233894Y246184D01*
X233577Y245419D01*
X233117Y244731D01*
X232824Y244438D01*
X232480Y244094D01*
X232215Y243801D01*
X231775Y243144D01*
X231473Y242414D01*
X231319Y241638D01*
X231299Y241243D01*
Y240158D01*
X229921D01*
Y241243D01*
X229902Y241638D01*
X229748Y242414D01*
X229445Y243144D01*
X229006Y243801D01*
X228740Y244094D01*
X228396Y244438D01*
Y244438D01*
X228104Y244731D01*
X227644Y245419D01*
X227327Y246184D01*
X227165Y246996D01*
Y247410D01*
Y247769D01*
X227440Y248431D01*
X227947Y248938D01*
X228609Y249213D01*
X232611D01*
X233274Y248938D01*
D02*
G37*
G36*
X87151Y98301D02*
X87150Y98218D01*
X87233Y98217D01*
X87234Y98300D01*
X87317Y98299D01*
X87316Y98216D01*
X87399Y98216D01*
X87400Y98299D01*
X87483Y98298D01*
X87458Y95392D01*
X87541Y95392D01*
X87540Y95309D01*
X87457Y95309D01*
X87455Y95060D01*
X87538Y95060D01*
X87537Y94977D01*
X87454Y94977D01*
X87452Y94728D01*
X87535Y94727D01*
X87534Y94644D01*
X87451Y94645D01*
X87450Y94562D01*
X87533Y94561D01*
X87533Y94478D01*
X87450Y94479D01*
X87449Y94396D01*
X87532Y94395D01*
X87531Y94312D01*
X87448Y94313D01*
X87447Y94230D01*
X87530Y94229D01*
X87530Y94146D01*
X87447Y94147D01*
X87446Y94064D01*
X87529Y94063D01*
X87528Y93980D01*
X87445Y93981D01*
X87445Y93898D01*
X87528Y93897D01*
X87527Y93814D01*
X87444Y93815D01*
X87443Y93732D01*
X87526Y93731D01*
X87525Y93648D01*
X87442Y93649D01*
X87442Y93566D01*
X87525Y93565D01*
X87524Y93482D01*
X87441Y93483D01*
X87440Y93400D01*
X87523Y93399D01*
X87523Y93316D01*
X87440Y93317D01*
X87439Y93234D01*
X87522Y93233D01*
X87521Y93150D01*
X87438Y93151D01*
X87437Y93068D01*
X87520Y93067D01*
X87520Y92984D01*
X87437Y92985D01*
X87436Y92902D01*
X87519Y92901D01*
X87518Y92818D01*
X87435Y92819D01*
X87434Y92736D01*
X87517Y92735D01*
X87517Y92652D01*
X87434Y92653D01*
X87433Y92570D01*
X87516Y92569D01*
X87515Y92486D01*
X87432Y92487D01*
X87432Y92404D01*
X87515Y92403D01*
X87514Y92320D01*
X87431Y92321D01*
X87430Y92238D01*
X87513Y92237D01*
X87512Y92154D01*
X87429Y92155D01*
X87429Y92071D01*
X87512Y92071D01*
X87511Y91988D01*
X87428Y91988D01*
X87427Y91905D01*
X87510Y91905D01*
X87509Y91822D01*
X87426Y91822D01*
X87426Y91739D01*
X87509Y91739D01*
X87508Y91656D01*
X87425Y91656D01*
X87424Y91573D01*
X87507Y91573D01*
X87507Y91490D01*
X87423Y91490D01*
X87423Y91407D01*
X87506Y91407D01*
X87504Y91158D01*
X87421Y91158D01*
X87420Y91075D01*
X87503Y91075D01*
X87502Y90991D01*
X87585Y90991D01*
X87585Y90908D01*
X87668Y90907D01*
X87751Y90906D01*
X87834Y90906D01*
X87917Y90905D01*
X88000Y90904D01*
X88083Y90903D01*
X88082Y90820D01*
X88165Y90820D01*
X88248Y90819D01*
X88331Y90818D01*
X88414Y90817D01*
X88413Y90734D01*
X88496Y90734D01*
X88497Y90817D01*
X88580Y90816D01*
X88579Y90733D01*
X88662Y90732D01*
X88663Y90815D01*
X88746Y90815D01*
X88745Y90732D01*
X88828Y90731D01*
X88829Y90814D01*
X88912Y90813D01*
X88911Y90730D01*
X88994Y90729D01*
X89077Y90729D01*
X89160Y90728D01*
X89244Y90727D01*
X89327Y90727D01*
X89326Y90644D01*
X89409Y90643D01*
X89492Y90642D01*
X89575Y90641D01*
X89658Y90641D01*
X89741Y90640D01*
X89740Y90557D01*
X89823Y90556D01*
X89824Y90639D01*
X89907Y90638D01*
X89906Y90555D01*
X89989Y90555D01*
X89990Y90638D01*
X90073Y90637D01*
X90072Y90554D01*
X90155Y90553D01*
X90156Y90636D01*
X90239Y90636D01*
X90238Y90553D01*
X90321Y90552D01*
X90404Y90551D01*
X90487Y90550D01*
X90487Y90467D01*
X90570Y90467D01*
X90570Y90550D01*
X90653Y90549D01*
X90653Y90466D01*
X90736Y90465D01*
X90819Y90464D01*
X90902Y90464D01*
X90985Y90463D01*
X91068Y90462D01*
X91067Y90379D01*
X91150Y90378D01*
X91151Y90461D01*
X91234Y90461D01*
X91233Y90378D01*
X91316Y90377D01*
X91317Y90460D01*
X91400Y90459D01*
X91399Y90376D01*
X91482Y90376D01*
X91565Y90375D01*
X91648Y90374D01*
X91731Y90373D01*
X91814Y90373D01*
X91813Y90290D01*
X91896Y90289D01*
X91979Y90288D01*
X92062Y90288D01*
X92146Y90287D01*
X92229Y90286D01*
X92228Y90203D01*
X92311Y90202D01*
X92312Y90285D01*
X92395Y90285D01*
X92394Y90202D01*
X92477Y90201D01*
X92478Y90284D01*
X92561Y90283D01*
X92560Y90200D01*
X92643Y90199D01*
X92726Y90199D01*
X92809Y90198D01*
X92892Y90197D01*
X92975Y90197D01*
X93058Y90196D01*
X93141Y90195D01*
X93140Y90112D01*
X93223Y90111D01*
X93306Y90111D01*
X93389Y90110D01*
X93472Y90109D01*
X93555Y90108D01*
X93555Y90025D01*
X93638Y90025D01*
X93638Y90108D01*
X93721Y90107D01*
X93721Y90024D01*
X93804Y90023D01*
X93805Y90106D01*
X93888Y90105D01*
X93887Y90022D01*
X93970Y90022D01*
X94053Y90021D01*
X94136Y90020D01*
X94219Y90020D01*
X94302Y90019D01*
X94301Y89936D01*
X94384Y89935D01*
X94385Y90018D01*
X94468Y90017D01*
X94467Y89934D01*
X94550Y89934D01*
X94633Y89933D01*
X94716Y89932D01*
X94716Y89849D01*
X94799Y89849D01*
X94799Y89931D01*
X94882Y89931D01*
X94882Y89848D01*
X94965Y89847D01*
X94965Y89930D01*
X95048Y89929D01*
X95048Y89846D01*
X95131Y89846D01*
X95131Y89929D01*
X95214Y89928D01*
X95214Y89845D01*
X95297Y89844D01*
X95380Y89843D01*
X95463Y89843D01*
X95462Y89760D01*
X95545Y89759D01*
X95546Y89842D01*
X95629Y89841D01*
X95628Y89758D01*
X95711Y89758D01*
X95794Y89757D01*
X95877Y89756D01*
X95960Y89755D01*
X96043Y89755D01*
X96043Y89672D01*
X96126Y89671D01*
X96126Y89754D01*
X96209Y89753D01*
X96209Y89670D01*
X96292Y89669D01*
X96292Y89752D01*
X96375Y89752D01*
X96374Y89669D01*
X96458Y89668D01*
X96541Y89667D01*
X96624Y89666D01*
X96707Y89666D01*
X96790Y89665D01*
X96789Y89582D01*
X96872Y89581D01*
X96873Y89664D01*
X96956Y89664D01*
X96955Y89581D01*
X97038Y89580D01*
X97121Y89579D01*
X97204Y89578D01*
X97203Y89495D01*
X97286Y89495D01*
X97287Y89578D01*
X97370Y89577D01*
X97369Y89494D01*
X97452Y89493D01*
X97453Y89576D01*
X97536Y89575D01*
X97535Y89492D01*
X97618Y89492D01*
X97701Y89491D01*
X97785Y89490D01*
X97784Y89407D01*
X97867Y89407D01*
X97866Y89324D01*
X97949Y89323D01*
X97948Y89240D01*
X98031Y89239D01*
X98031Y89156D01*
X97948Y89157D01*
X97947Y89074D01*
X98030Y89073D01*
X98029Y88990D01*
X97946Y88991D01*
X97945Y88908D01*
X97862Y88908D01*
X97861Y88742D01*
X97778Y88743D01*
X97695Y88744D01*
X97694Y88661D01*
X97611Y88662D01*
X97528Y88662D01*
X97445Y88663D01*
X97444Y88580D01*
X97361Y88581D01*
X97278Y88581D01*
X97195Y88582D01*
X97112Y88583D01*
X97029Y88584D01*
X97029Y88501D01*
X96946Y88501D01*
X96946Y88584D01*
X96863Y88585D01*
X96863Y88502D01*
X96780Y88503D01*
X96780Y88586D01*
X96697Y88586D01*
X96697Y88503D01*
X96614Y88504D01*
X96530Y88505D01*
X96447Y88506D01*
X96364Y88506D01*
X96281Y88507D01*
X96281Y88424D01*
X96198Y88425D01*
X96198Y88508D01*
X96115Y88509D01*
X96115Y88425D01*
X96032Y88426D01*
X95949Y88427D01*
X95865Y88428D01*
X95865Y88345D01*
X95782Y88345D01*
X95783Y88428D01*
X95700Y88429D01*
X95699Y88346D01*
X95616Y88347D01*
X95617Y88430D01*
X95534Y88431D01*
X95533Y88348D01*
X95450Y88348D01*
X95451Y88431D01*
X95367Y88432D01*
X95367Y88349D01*
X95284Y88350D01*
X95201Y88350D01*
X95118Y88351D01*
X95117Y88268D01*
X95034Y88269D01*
X94951Y88270D01*
X94868Y88270D01*
X94785Y88271D01*
X94702Y88272D01*
X94701Y88189D01*
X94618Y88190D01*
X94619Y88273D01*
X94536Y88273D01*
X94535Y88190D01*
X94452Y88191D01*
X94453Y88274D01*
X94370Y88275D01*
X94369Y88192D01*
X94286Y88192D01*
X94287Y88275D01*
X94204Y88276D01*
X94203Y88193D01*
X94120Y88194D01*
X94037Y88195D01*
X93954Y88195D01*
X93953Y88112D01*
X93870Y88113D01*
X93871Y88196D01*
X93788Y88197D01*
X93787Y88114D01*
X93704Y88114D01*
X93621Y88115D01*
X93538Y88116D01*
X93455Y88117D01*
X93372Y88117D01*
X93371Y88034D01*
X93288Y88035D01*
X93289Y88118D01*
X93206Y88119D01*
X93205Y88036D01*
X93122Y88037D01*
X93123Y88120D01*
X93040Y88120D01*
X93039Y88037D01*
X92956Y88038D01*
X92873Y88039D01*
X92790Y88039D01*
X92707Y88040D01*
X92624Y88041D01*
X92623Y87958D01*
X92540Y87959D01*
X92457Y87959D01*
X92374Y87960D01*
X92291Y87961D01*
X92208Y87962D01*
X92208Y87878D01*
X92124Y87879D01*
X92125Y87962D01*
X92042Y87963D01*
X92041Y87880D01*
X91958Y87881D01*
X91959Y87964D01*
X91876Y87964D01*
X91875Y87881D01*
X91793Y87882D01*
X91710Y87883D01*
X91626Y87884D01*
X91543Y87884D01*
X91460Y87885D01*
X91460Y87802D01*
X91377Y87803D01*
X91294Y87803D01*
X91211Y87804D01*
X91128Y87805D01*
X91045Y87806D01*
X91044Y87723D01*
X91127Y87722D01*
X91126Y87639D01*
X91209Y87638D01*
X91292Y87637D01*
X91375Y87637D01*
X91458Y87636D01*
X91541Y87635D01*
X91540Y87552D01*
X91624Y87551D01*
X91624Y87634D01*
X91707Y87634D01*
X91707Y87551D01*
X91790Y87550D01*
X91790Y87633D01*
X91873Y87632D01*
X91873Y87549D01*
X91956Y87549D01*
X92039Y87548D01*
X92122Y87547D01*
X92121Y87464D01*
X92204Y87463D01*
X92205Y87546D01*
X92288Y87546D01*
X92287Y87463D01*
X92370Y87462D01*
X92453Y87461D01*
X92536Y87460D01*
X92619Y87460D01*
X92702Y87459D01*
X92701Y87376D01*
X92784Y87375D01*
X92785Y87458D01*
X92868Y87458D01*
X92867Y87375D01*
X92950Y87374D01*
X92951Y87457D01*
X93034Y87456D01*
X93033Y87373D01*
X93116Y87372D01*
X93199Y87372D01*
X93283Y87371D01*
X93366Y87370D01*
X93449Y87369D01*
X93448Y87286D01*
X93531Y87286D01*
X93614Y87285D01*
X93697Y87284D01*
X93780Y87283D01*
X93863Y87283D01*
X93862Y87200D01*
X93945Y87199D01*
X93946Y87282D01*
X94029Y87281D01*
X94028Y87198D01*
X94111Y87198D01*
X94112Y87281D01*
X94195Y87280D01*
X94194Y87197D01*
X94277Y87196D01*
X94360Y87195D01*
X94443Y87195D01*
X94526Y87194D01*
X94609Y87193D01*
X94692Y87193D01*
X94692Y87110D01*
X94775Y87109D01*
X94858Y87108D01*
X94941Y87107D01*
X95024Y87107D01*
X95023Y87024D01*
X95106Y87023D01*
X95107Y87106D01*
X95190Y87105D01*
X95189Y87022D01*
X95272Y87021D01*
X95273Y87104D01*
X95356Y87104D01*
X95355Y87021D01*
X95438Y87020D01*
X95521Y87019D01*
X95604Y87019D01*
X95687Y87018D01*
X95770Y87017D01*
X95853Y87016D01*
X95936Y87016D01*
X95935Y86933D01*
X96019Y86932D01*
X96102Y86931D01*
X96185Y86930D01*
X96268Y86930D01*
X96351Y86929D01*
X96350Y86846D01*
X96433Y86845D01*
X96434Y86928D01*
X96517Y86927D01*
X96516Y86844D01*
X96599Y86844D01*
X96600Y86927D01*
X96683Y86926D01*
X96682Y86843D01*
X96765Y86842D01*
X96848Y86842D01*
X96931Y86841D01*
X97014Y86840D01*
X97097Y86839D01*
X97096Y86756D01*
X97179Y86756D01*
X97180Y86839D01*
X97263Y86838D01*
X97262Y86755D01*
X97345Y86754D01*
X97428Y86753D01*
X97512Y86753D01*
X97511Y86670D01*
X97594Y86669D01*
X97594Y86752D01*
X97677Y86751D01*
X97677Y86668D01*
X97760Y86668D01*
X97759Y86585D01*
X97842Y86584D01*
X97841Y86501D01*
X97924Y86500D01*
X97924Y86417D01*
X98007Y86416D01*
X98006Y86333D01*
X97923Y86334D01*
X97922Y86251D01*
X98005Y86250D01*
X98005Y86167D01*
X97922Y86168D01*
X97921Y86085D01*
X97838Y86086D01*
X97837Y86003D01*
X97754Y86003D01*
X97753Y85920D01*
X97670Y85921D01*
X97670Y85838D01*
X97587Y85839D01*
X97504Y85840D01*
X97421Y85840D01*
X97338Y85841D01*
X97254Y85842D01*
X97254Y85759D01*
X97171Y85760D01*
X97171Y85843D01*
X97088Y85843D01*
X97088Y85760D01*
X97005Y85761D01*
X96922Y85762D01*
X96839Y85762D01*
X96756Y85763D01*
X96673Y85764D01*
X96672Y85681D01*
X96589Y85681D01*
X96590Y85764D01*
X96507Y85765D01*
X96506Y85682D01*
X96423Y85683D01*
X96424Y85766D01*
X96341Y85767D01*
X96340Y85684D01*
X96257Y85684D01*
X96174Y85685D01*
X96091Y85686D01*
X96090Y85603D01*
X96007Y85604D01*
X96008Y85687D01*
X95925Y85687D01*
X95924Y85604D01*
X95841Y85605D01*
X95758Y85606D01*
X95675Y85606D01*
X95592Y85607D01*
X95509Y85608D01*
X95508Y85525D01*
X95425Y85526D01*
X95426Y85609D01*
X95343Y85609D01*
X95342Y85526D01*
X95259Y85527D01*
X95260Y85610D01*
X95177Y85611D01*
X95176Y85528D01*
X95093Y85528D01*
X95010Y85529D01*
X94927Y85530D01*
X94926Y85447D01*
X94843Y85448D01*
X94844Y85531D01*
X94761Y85531D01*
X94760Y85448D01*
X94677Y85449D01*
X94594Y85450D01*
X94511Y85451D01*
X94428Y85451D01*
X94345Y85452D01*
X94344Y85369D01*
X94261Y85370D01*
X94262Y85453D01*
X94179Y85453D01*
X94178Y85370D01*
X94095Y85371D01*
X94096Y85454D01*
X94013Y85455D01*
X94012Y85372D01*
X93929Y85373D01*
X93846Y85373D01*
X93763Y85374D01*
X93680Y85375D01*
X93597Y85375D01*
X93597Y85293D01*
X93514Y85293D01*
X93430Y85294D01*
X93347Y85295D01*
X93264Y85295D01*
X93181Y85296D01*
X93181Y85213D01*
X93098Y85214D01*
X93098Y85297D01*
X93015Y85298D01*
X93015Y85215D01*
X92932Y85215D01*
X92932Y85298D01*
X92849Y85299D01*
X92849Y85216D01*
X92765Y85217D01*
X92766Y85300D01*
X92683Y85300D01*
X92682Y85217D01*
X92599Y85218D01*
X92516Y85219D01*
X92434Y85220D01*
X92350Y85220D01*
X92267Y85221D01*
X92267Y85138D01*
X92184Y85139D01*
X92101Y85140D01*
X92018Y85140D01*
X92017Y85057D01*
X91934Y85058D01*
X91935Y85141D01*
X91852Y85142D01*
X91851Y85059D01*
X91768Y85059D01*
X91769Y85142D01*
X91685Y85143D01*
X91685Y85060D01*
X91602Y85061D01*
X91602Y85144D01*
X91519Y85145D01*
X91519Y85062D01*
X91436Y85062D01*
X91353Y85063D01*
X91270Y85064D01*
X91187Y85064D01*
X91104Y85065D01*
X91103Y84982D01*
X91020Y84983D01*
X90937Y84984D01*
X90854Y84984D01*
X90853Y84901D01*
X90936Y84901D01*
X91019Y84900D01*
X91102Y84899D01*
X91185Y84898D01*
X91268Y84898D01*
X91268Y84815D01*
X91351Y84814D01*
X91434Y84813D01*
X91517Y84812D01*
X91600Y84812D01*
X91683Y84811D01*
X91682Y84728D01*
X91765Y84727D01*
X91766Y84810D01*
X91849Y84810D01*
X91848Y84727D01*
X91931Y84726D01*
X91932Y84809D01*
X92015Y84808D01*
X92014Y84725D01*
X92097Y84724D01*
X92180Y84724D01*
X92263Y84723D01*
X92346Y84722D01*
X92429Y84721D01*
X92428Y84639D01*
X92511Y84638D01*
X92512Y84721D01*
X92595Y84720D01*
X92594Y84637D01*
X92677Y84636D01*
X92760Y84636D01*
X92844Y84635D01*
X92843Y84552D01*
X92926Y84551D01*
X92927Y84634D01*
X93010Y84633D01*
X93009Y84550D01*
X93092Y84550D01*
X93093Y84633D01*
X93176Y84632D01*
X93175Y84549D01*
X93258Y84548D01*
X93259Y84631D01*
X93342Y84631D01*
X93341Y84548D01*
X93424Y84547D01*
X93507Y84546D01*
X93590Y84545D01*
X93673Y84545D01*
X93756Y84544D01*
X93755Y84461D01*
X93838Y84460D01*
X93839Y84543D01*
X93922Y84542D01*
X93921Y84459D01*
X94004Y84459D01*
X94087Y84458D01*
X94170Y84457D01*
X94170Y84374D01*
X94253Y84373D01*
X94253Y84456D01*
X94336Y84456D01*
X94336Y84373D01*
X94419Y84372D01*
X94419Y84455D01*
X94503Y84454D01*
X94502Y84371D01*
X94585Y84371D01*
X94586Y84454D01*
X94669Y84453D01*
X94668Y84370D01*
X94751Y84369D01*
X94834Y84368D01*
X94917Y84368D01*
X94916Y84285D01*
X94999Y84284D01*
X95000Y84367D01*
X95083Y84366D01*
X95082Y84283D01*
X95165Y84282D01*
X95248Y84282D01*
X95331Y84281D01*
X95331Y84198D01*
X95414Y84197D01*
X95414Y84280D01*
X95497Y84280D01*
X95496Y84197D01*
X95579Y84196D01*
X95580Y84279D01*
X95663Y84278D01*
X95663Y84195D01*
X95746Y84194D01*
X95746Y84277D01*
X95829Y84277D01*
X95829Y84194D01*
X95912Y84193D01*
X95995Y84192D01*
X96078Y84192D01*
X96077Y84109D01*
X96160Y84108D01*
X96161Y84191D01*
X96244Y84190D01*
X96243Y84107D01*
X96326Y84106D01*
X96409Y84106D01*
X96492Y84105D01*
X96575Y84104D01*
X96658Y84103D01*
X96657Y84020D01*
X96740Y84020D01*
X96741Y84103D01*
X96824Y84102D01*
X96823Y84019D01*
X96906Y84018D01*
X96907Y84101D01*
X96990Y84101D01*
X96989Y84017D01*
X97072Y84017D01*
X97155Y84016D01*
X97238Y84015D01*
X97321Y84015D01*
X97404Y84014D01*
X97404Y83931D01*
X97487Y83930D01*
X97570Y83929D01*
X97653Y83929D01*
X97652Y83846D01*
X97735Y83845D01*
X97818Y83844D01*
X97817Y83678D01*
X97900Y83677D01*
X97899Y83594D01*
X97982Y83594D01*
X97981Y83511D01*
X97898Y83511D01*
X97898Y83428D01*
X97981Y83428D01*
X97980Y83345D01*
X97897Y83345D01*
X97896Y83262D01*
X97813Y83263D01*
X97812Y83180D01*
X97729Y83181D01*
X97729Y83098D01*
X97646Y83098D01*
X97645Y83015D01*
X97562Y83016D01*
X97563Y83099D01*
X97480Y83100D01*
X97479Y83017D01*
X97396Y83018D01*
X97397Y83101D01*
X97313Y83101D01*
X97313Y83018D01*
X97230Y83019D01*
X97147Y83020D01*
X97064Y83021D01*
X96981Y83021D01*
X96898Y83022D01*
X96897Y82939D01*
X96814Y82940D01*
X96731Y82940D01*
X96648Y82941D01*
X96565Y82942D01*
X96482Y82942D01*
X96481Y82859D01*
X96398Y82860D01*
X96399Y82943D01*
X96316Y82944D01*
X96315Y82861D01*
X96232Y82862D01*
X96233Y82945D01*
X96150Y82945D01*
X96149Y82862D01*
X96066Y82863D01*
X95983Y82864D01*
X95900Y82865D01*
X95817Y82865D01*
X95734Y82866D01*
X95651Y82867D01*
X95568Y82867D01*
X95567Y82784D01*
X95484Y82785D01*
X95401Y82786D01*
X95318Y82787D01*
X95235Y82787D01*
X95152Y82788D01*
X95151Y82705D01*
X95068Y82706D01*
X95069Y82789D01*
X94986Y82789D01*
X94985Y82706D01*
X94902Y82707D01*
X94903Y82790D01*
X94820Y82791D01*
X94819Y82708D01*
X94736Y82709D01*
X94653Y82709D01*
X94570Y82710D01*
X94487Y82711D01*
X94404Y82712D01*
X94403Y82629D01*
X94320Y82629D01*
X94321Y82712D01*
X94238Y82713D01*
X94238Y82630D01*
X94154Y82631D01*
X94071Y82631D01*
X93988Y82632D01*
X93988Y82549D01*
X93905Y82550D01*
X93905Y82633D01*
X93822Y82634D01*
X93822Y82551D01*
X93739Y82551D01*
X93739Y82634D01*
X93656Y82635D01*
X93656Y82552D01*
X93573Y82553D01*
X93573Y82636D01*
X93490Y82636D01*
X93489Y82553D01*
X93406Y82554D01*
X93323Y82555D01*
X93240Y82556D01*
X93240Y82473D01*
X93157Y82473D01*
X93157Y82556D01*
X93074Y82557D01*
X93074Y82474D01*
X92991Y82475D01*
X92908Y82476D01*
X92825Y82476D01*
X92742Y82477D01*
X92659Y82478D01*
X92658Y82395D01*
X92575Y82395D01*
X92576Y82478D01*
X92493Y82479D01*
X92492Y82396D01*
X92409Y82397D01*
X92409Y82480D01*
X92326Y82481D01*
X92326Y82398D01*
X92243Y82398D01*
X92160Y82399D01*
X92077Y82400D01*
X91994Y82401D01*
X91911Y82401D01*
X91910Y82318D01*
X91827Y82319D01*
X91828Y82402D01*
X91745Y82403D01*
X91744Y82320D01*
X91661Y82320D01*
X91578Y82321D01*
X91495Y82322D01*
X91494Y82239D01*
X91411Y82240D01*
X91412Y82323D01*
X91329Y82323D01*
X91328Y82240D01*
X91245Y82241D01*
X91246Y82324D01*
X91163Y82325D01*
X91162Y82242D01*
X91079Y82242D01*
X91080Y82326D01*
X90997Y82326D01*
X90996Y82243D01*
X90913Y82244D01*
X90830Y82245D01*
X90747Y82245D01*
X90664Y82246D01*
X90581Y82247D01*
X90580Y82164D01*
X90497Y82165D01*
X90498Y82248D01*
X90415Y82248D01*
X90414Y82165D01*
X90331Y82166D01*
X90248Y82167D01*
X90165Y82167D01*
X90164Y82084D01*
X90081Y82085D01*
X90082Y82168D01*
X89999Y82169D01*
X89998Y82086D01*
X89915Y82086D01*
X89916Y82170D01*
X89833Y82170D01*
X89832Y82087D01*
X89749Y82088D01*
X89750Y82171D01*
X89667Y82172D01*
X89666Y82089D01*
X89583Y82089D01*
X89500Y82090D01*
X89417Y82091D01*
X89416Y82008D01*
X89333Y82009D01*
X89334Y82092D01*
X89251Y82092D01*
X89250Y82009D01*
X89167Y82010D01*
X89084Y82011D01*
X89001Y82011D01*
X88918Y82012D01*
X88835Y82013D01*
X88835Y81930D01*
X88752Y81931D01*
X88752Y82014D01*
X88669Y82014D01*
X88669Y81931D01*
X88586Y81932D01*
X88586Y82015D01*
X88503Y82016D01*
X88503Y81933D01*
X88420Y81934D01*
X88336Y81934D01*
X88253Y81935D01*
X88253Y81852D01*
X88170Y81853D01*
X88170Y81936D01*
X88087Y81936D01*
X88087Y81853D01*
X88004Y81854D01*
X87921Y81855D01*
X87838Y81856D01*
X87755Y81856D01*
X87672Y81857D01*
X87671Y81774D01*
X87588Y81775D01*
X87589Y81858D01*
X87506Y81858D01*
X87505Y81775D01*
X87422Y81776D01*
X87423Y81859D01*
X87340Y81860D01*
X87339Y81777D01*
X87422Y81776D01*
X87420Y81527D01*
X87337Y81528D01*
X87336Y81445D01*
X87419Y81444D01*
X87417Y81195D01*
X87334Y81196D01*
X87333Y81113D01*
X87416Y81112D01*
X87414Y80863D01*
X87331Y80864D01*
X87330Y80781D01*
X87413Y80780D01*
X87411Y80531D01*
X87328Y80532D01*
X87327Y80449D01*
X87410Y80448D01*
X87408Y80199D01*
X87325Y80199D01*
X87324Y80116D01*
X87407Y80116D01*
X87407Y80033D01*
X87323Y80033D01*
X87323Y79950D01*
X87406Y79950D01*
X87405Y79867D01*
X87322Y79867D01*
X87321Y79784D01*
X87404Y79784D01*
X87404Y79701D01*
X87321Y79701D01*
X87320Y79618D01*
X87403Y79618D01*
X87402Y79535D01*
X87319Y79535D01*
X87318Y79452D01*
X87401Y79452D01*
X87401Y79369D01*
X87318Y79369D01*
X87317Y79286D01*
X87400Y79286D01*
X87399Y79203D01*
X87316Y79203D01*
X87316Y79120D01*
X87399Y79119D01*
X87398Y79036D01*
X87315Y79037D01*
X87314Y78954D01*
X87397Y78953D01*
X87396Y78870D01*
X87313Y78871D01*
X87313Y78788D01*
X87396Y78787D01*
X87395Y78704D01*
X87312Y78705D01*
X87311Y78622D01*
X87394Y78621D01*
X87393Y78538D01*
X87310Y78539D01*
X87310Y78456D01*
X87393Y78455D01*
X87392Y78372D01*
X87309Y78373D01*
X87308Y78290D01*
X87391Y78289D01*
X87391Y78206D01*
X87308Y78207D01*
X87307Y78124D01*
X87390Y78123D01*
X87389Y78040D01*
X87306Y78041D01*
X87305Y77958D01*
X87388Y77957D01*
X87388Y77874D01*
X87305Y77875D01*
X87304Y77792D01*
X87387Y77791D01*
X87386Y77708D01*
X87303Y77709D01*
X87303Y77626D01*
X87386Y77625D01*
X87385Y77542D01*
X87302Y77543D01*
X87301Y77460D01*
X87384Y77459D01*
X87383Y77376D01*
X87300Y77377D01*
X87300Y77294D01*
X87383Y77293D01*
X87382Y77210D01*
X87299Y77211D01*
X87298Y77128D01*
X87381Y77127D01*
X87380Y77044D01*
X87297Y77045D01*
X87297Y76962D01*
X87380Y76961D01*
X87379Y76878D01*
X87296Y76879D01*
X87295Y76796D01*
X87378Y76795D01*
X87378Y76712D01*
X87295Y76713D01*
X87294Y76630D01*
X87377Y76629D01*
X87376Y76546D01*
X87293Y76547D01*
X87292Y76464D01*
X87375Y76463D01*
X87375Y76380D01*
X87292Y76381D01*
X87291Y76298D01*
X87374Y76297D01*
X87373Y76214D01*
X87290Y76214D01*
X87290Y76131D01*
X87372Y76131D01*
X87372Y76048D01*
X87289Y76048D01*
X87288Y75965D01*
X87371Y75965D01*
X87370Y75882D01*
X87287Y75883D01*
X87287Y75799D01*
X87370Y75799D01*
X87369Y75716D01*
X87286Y75716D01*
X87285Y75633D01*
X87368Y75633D01*
X87367Y75550D01*
X87284Y75550D01*
X87284Y75467D01*
X87367Y75467D01*
X87366Y75384D01*
X87283Y75384D01*
X87282Y75301D01*
X87365Y75301D01*
X87365Y75218D01*
X87282Y75218D01*
X87281Y75135D01*
X87364Y75135D01*
X87363Y75051D01*
X87280Y75052D01*
X87279Y74969D01*
X87362Y74968D01*
X87362Y74885D01*
X87279Y74886D01*
X87278Y74803D01*
X87361Y74803D01*
X87360Y74719D01*
X87277Y74720D01*
X87276Y74637D01*
X87359Y74636D01*
X87359Y74553D01*
X87276Y74554D01*
X87275Y74471D01*
X87358Y74470D01*
X87357Y74387D01*
X87274Y74388D01*
X87274Y74305D01*
X87357Y74304D01*
X87356Y74221D01*
X87273Y74222D01*
X87272Y74139D01*
X87355Y74138D01*
X87354Y74055D01*
X87271Y74056D01*
X87271Y73973D01*
X87354Y73972D01*
X87353Y73889D01*
X87270Y73890D01*
X87269Y73807D01*
X87352Y73806D01*
X87352Y73723D01*
X87269Y73724D01*
X87268Y73641D01*
X87351Y73640D01*
X87350Y73557D01*
X87267Y73558D01*
X87266Y73475D01*
X87349Y73474D01*
X87349Y73391D01*
X87266Y73392D01*
X87265Y73309D01*
X87348Y73308D01*
X87347Y73225D01*
X87264Y73226D01*
X87263Y73143D01*
X87346Y73142D01*
X87346Y73059D01*
X87263Y73060D01*
X87262Y72977D01*
X87345Y72976D01*
X87344Y72893D01*
X87261Y72894D01*
X87261Y72811D01*
X87344Y72810D01*
X87343Y72727D01*
X87260Y72728D01*
X87259Y72645D01*
X87342Y72644D01*
X87341Y72561D01*
X87258Y72562D01*
X87258Y72479D01*
X87341Y72478D01*
X87340Y72395D01*
X87257Y72396D01*
X87256Y72313D01*
X87339Y72312D01*
X87339Y72229D01*
X87255Y72230D01*
X87255Y72146D01*
X87338Y72146D01*
X87337Y72063D01*
X87254Y72063D01*
X87253Y71981D01*
X87336Y71980D01*
X87336Y71897D01*
X87252Y71898D01*
X87252Y71814D01*
X87335Y71814D01*
X87334Y71731D01*
X87251Y71731D01*
X87250Y71648D01*
X87333Y71648D01*
X87333Y71565D01*
X87250Y71565D01*
X87249Y71482D01*
X87332Y71482D01*
X87331Y71399D01*
X87248Y71399D01*
X87248Y71316D01*
X87331Y71316D01*
X87330Y71233D01*
X87247Y71233D01*
X87246Y71150D01*
X87329Y71149D01*
X87328Y71066D01*
X87245Y71067D01*
X87245Y70984D01*
X87328Y70983D01*
X87327Y70900D01*
X87244Y70901D01*
X87243Y70818D01*
X87326Y70818D01*
X87325Y70735D01*
X87242Y70735D01*
X87242Y70652D01*
X87325Y70651D01*
X87324Y70568D01*
X87241Y70569D01*
X87240Y70486D01*
X87323Y70485D01*
X87322Y70402D01*
X87239Y70403D01*
X87239Y70320D01*
X87322Y70319D01*
X87321Y70236D01*
X87238Y70237D01*
X87237Y70154D01*
X87320Y70153D01*
X87320Y70070D01*
X87237Y70071D01*
X87236Y69988D01*
X87319Y69987D01*
X87318Y69904D01*
X87235Y69905D01*
X87234Y69822D01*
X87317Y69821D01*
X87317Y69738D01*
X87234Y69739D01*
X87233Y69656D01*
X87316Y69655D01*
X87315Y69572D01*
X87232Y69573D01*
X87231Y69490D01*
X87315Y69489D01*
X87314Y69406D01*
X87231Y69407D01*
X87229Y69158D01*
X87312Y69157D01*
X87311Y69074D01*
X87228Y69075D01*
X87226Y68826D01*
X87309Y68825D01*
X87308Y68742D01*
X87225Y68743D01*
X87223Y68494D01*
X87306Y68493D01*
X87305Y68410D01*
X87222Y68411D01*
X87220Y68161D01*
X87303Y68161D01*
X87302Y68078D01*
X87219Y68079D01*
X87217Y67829D01*
X87300Y67829D01*
X87299Y67746D01*
X87216Y67746D01*
X87214Y67497D01*
X87297Y67497D01*
X87296Y67414D01*
X87213Y67414D01*
X87211Y67165D01*
X87294Y67165D01*
X87293Y67081D01*
X87211Y67082D01*
X87208Y66833D01*
X87291Y66833D01*
X87291Y66749D01*
X87208Y66750D01*
X87205Y66501D01*
X87288Y66500D01*
X87288Y66417D01*
X87205Y66418D01*
X87203Y66169D01*
X87286Y66168D01*
X87285Y66085D01*
X87202Y66086D01*
X87126Y57369D01*
X87043Y57370D01*
X87043Y57453D01*
X86960Y57453D01*
X86961Y57536D01*
X86878Y57537D01*
X86877Y57454D01*
X86794Y57455D01*
X86795Y57538D01*
X86712Y57538D01*
X86930Y82528D01*
X87013Y82527D01*
X87014Y82610D01*
X87097Y82609D01*
X87098Y82692D01*
X87181Y82692D01*
X87180Y82609D01*
X87263Y82608D01*
X87264Y82691D01*
X87347Y82690D01*
X87346Y82607D01*
X87429Y82606D01*
X87430Y82689D01*
X87513Y82689D01*
X87596Y82688D01*
X87679Y82687D01*
X87762Y82687D01*
X87845Y82686D01*
X87846Y82769D01*
X87929Y82768D01*
X88012Y82767D01*
X88095Y82767D01*
X88178Y82766D01*
X88261Y82765D01*
X88261Y82848D01*
X88344Y82847D01*
X88344Y82765D01*
X88427Y82764D01*
X88427Y82847D01*
X88511Y82846D01*
X88510Y82763D01*
X88593Y82762D01*
X88594Y82845D01*
X88677Y82845D01*
X88676Y82762D01*
X88759Y82761D01*
X88759Y82844D01*
X88842Y82843D01*
X88926Y82842D01*
X89009Y82842D01*
X89092Y82841D01*
X89175Y82840D01*
X89175Y82923D01*
X89258Y82923D01*
X89341Y82922D01*
X89424Y82921D01*
X89425Y83004D01*
X89508Y83003D01*
X89507Y82920D01*
X89591Y82920D01*
X89591Y83003D01*
X89674Y83002D01*
X89674Y82919D01*
X89757Y82918D01*
X89757Y83001D01*
X89840Y83000D01*
X89840Y82917D01*
X89922Y82917D01*
X89923Y83000D01*
X90006Y82999D01*
X90089Y82998D01*
X90172Y82998D01*
X90173Y83081D01*
X90256Y83080D01*
X90255Y82997D01*
X90338Y82996D01*
X90339Y83079D01*
X90422Y83078D01*
X90505Y83078D01*
X90588Y83077D01*
X90589Y83160D01*
X90672Y83159D01*
X90671Y83076D01*
X90754Y83075D01*
X90755Y83159D01*
X90838Y83158D01*
X90837Y83075D01*
X90920Y83074D01*
X90921Y83157D01*
X91004Y83156D01*
X91003Y83073D01*
X91086Y83073D01*
X91087Y83156D01*
X91170Y83155D01*
X91253Y83154D01*
X91336Y83153D01*
X91419Y83153D01*
X91502Y83152D01*
X91503Y83235D01*
X91586Y83234D01*
X91669Y83234D01*
X91752Y83233D01*
X91835Y83232D01*
X91918Y83231D01*
X91919Y83315D01*
X92002Y83314D01*
X92001Y83231D01*
X92084Y83230D01*
X92085Y83313D01*
X92168Y83312D01*
X92167Y83229D01*
X92250Y83228D01*
X92251Y83312D01*
X92334Y83311D01*
X92417Y83310D01*
X92500Y83309D01*
X92583Y83309D01*
X92666Y83308D01*
X92667Y83391D01*
X92750Y83390D01*
X92749Y83307D01*
X92832Y83306D01*
X92833Y83390D01*
X92916Y83389D01*
X92999Y83388D01*
X93082Y83387D01*
X93165Y83387D01*
X93248Y83386D01*
X93248Y83469D01*
X93331Y83468D01*
X93331Y83385D01*
X93414Y83385D01*
X93414Y83468D01*
X93498Y83467D01*
X93581Y83466D01*
X93664Y83465D01*
X93747Y83465D01*
X93830Y83464D01*
X93830Y83547D01*
X93747Y83548D01*
X93748Y83631D01*
X93665Y83631D01*
X93664Y83548D01*
X93581Y83549D01*
X93582Y83632D01*
X93499Y83633D01*
X93416Y83634D01*
X93333Y83634D01*
X93250Y83635D01*
X93167Y83636D01*
X93168Y83719D01*
X93085Y83719D01*
X93002Y83720D01*
X92918Y83721D01*
X92835Y83722D01*
X92752Y83722D01*
X92753Y83805D01*
X92670Y83806D01*
X92669Y83723D01*
X92586Y83724D01*
X92587Y83807D01*
X92504Y83807D01*
X92503Y83724D01*
X92420Y83725D01*
X92421Y83808D01*
X92338Y83809D01*
X92337Y83726D01*
X92254Y83727D01*
X92255Y83810D01*
X92172Y83810D01*
X92089Y83811D01*
X92006Y83812D01*
X92007Y83895D01*
X91924Y83896D01*
X91923Y83813D01*
X91840Y83813D01*
X91841Y83896D01*
X91758Y83897D01*
X91675Y83898D01*
X91592Y83899D01*
X91592Y83982D01*
X91509Y83982D01*
X91509Y83899D01*
X91426Y83900D01*
X91426Y83983D01*
X91343Y83984D01*
X91343Y83901D01*
X91260Y83901D01*
X91260Y83984D01*
X91177Y83985D01*
X91176Y83902D01*
X91093Y83903D01*
X91094Y83986D01*
X91011Y83987D01*
X90928Y83987D01*
X90845Y83988D01*
X90846Y84071D01*
X90763Y84072D01*
X90762Y83989D01*
X90679Y83990D01*
X90680Y84073D01*
X90597Y84073D01*
X90514Y84074D01*
X90431Y84075D01*
X90431Y84158D01*
X90349Y84158D01*
X90348Y84075D01*
X90265Y84076D01*
X90266Y84159D01*
X90183Y84160D01*
X90182Y84077D01*
X90099Y84078D01*
X90100Y84161D01*
X90016Y84161D01*
X90016Y84078D01*
X89933Y84079D01*
X89933Y84162D01*
X89850Y84163D01*
X89767Y84163D01*
X89684Y84164D01*
X89601Y84165D01*
X89518Y84166D01*
X89519Y84249D01*
X89436Y84249D01*
X89353Y84250D01*
X89270Y84251D01*
X89187Y84252D01*
X89104Y84252D01*
X89105Y84335D01*
X89022Y84336D01*
X89021Y84253D01*
X88938Y84254D01*
X88939Y84337D01*
X88856Y84338D01*
X88855Y84254D01*
X88772Y84255D01*
X88773Y84338D01*
X88690Y84339D01*
X88607Y84340D01*
X88524Y84340D01*
X88441Y84341D01*
X88358Y84342D01*
X88358Y84425D01*
X88275Y84426D01*
X88192Y84426D01*
X88109Y84427D01*
X88026Y84428D01*
X87943Y84429D01*
X87860Y84429D01*
X87777Y84430D01*
X87778Y84513D01*
X87695Y84514D01*
X87694Y84431D01*
X87611Y84431D01*
X87612Y84514D01*
X87529Y84515D01*
X87446Y84516D01*
X87363Y84517D01*
X87280Y84517D01*
X87197Y84518D01*
X87197Y84601D01*
X87114Y84602D01*
X87031Y84602D01*
X86948Y84603D01*
X86955Y85351D01*
X87038Y85350D01*
X87038Y85433D01*
X87122Y85432D01*
X87205Y85431D01*
X87288Y85431D01*
X87288Y85514D01*
X87371Y85513D01*
X87371Y85430D01*
X87454Y85429D01*
X87454Y85512D01*
X87537Y85511D01*
X87537Y85428D01*
X87620Y85428D01*
X87620Y85511D01*
X87703Y85510D01*
X87703Y85427D01*
X87786Y85426D01*
X87787Y85509D01*
X87870Y85509D01*
X87953Y85508D01*
X88036Y85507D01*
X88119Y85506D01*
X88202Y85506D01*
X88202Y85589D01*
X88285Y85588D01*
X88368Y85587D01*
X88451Y85587D01*
X88534Y85586D01*
X88617Y85585D01*
X88618Y85668D01*
X88701Y85667D01*
X88700Y85584D01*
X88784Y85584D01*
X88784Y85667D01*
X88867Y85666D01*
X88866Y85583D01*
X88950Y85582D01*
X88950Y85665D01*
X89033Y85664D01*
X89116Y85664D01*
X89199Y85663D01*
X89282Y85662D01*
X89365Y85662D01*
X89366Y85745D01*
X89449Y85744D01*
X89532Y85743D01*
X89615Y85742D01*
X89698Y85742D01*
X89781Y85741D01*
X89782Y85824D01*
X89865Y85823D01*
X89864Y85740D01*
X89947Y85739D01*
X89948Y85822D01*
X90031Y85822D01*
X90030Y85739D01*
X90113Y85738D01*
X90114Y85821D01*
X90197Y85820D01*
X90280Y85820D01*
X90363Y85819D01*
X90446Y85818D01*
X90529Y85817D01*
X90530Y85900D01*
X90613Y85900D01*
X90696Y85899D01*
X90779Y85898D01*
X90862Y85898D01*
X90945Y85897D01*
X90946Y85980D01*
X91029Y85979D01*
X91028Y85896D01*
X91111Y85895D01*
X91112Y85978D01*
X91195Y85978D01*
X91194Y85895D01*
X91277Y85894D01*
X91278Y85977D01*
X91361Y85976D01*
X91444Y85975D01*
X91527Y85975D01*
X91610Y85974D01*
X91693Y85973D01*
X91694Y86056D01*
X91777Y86056D01*
X91776Y85973D01*
X91859Y85972D01*
X91860Y86055D01*
X91943Y86054D01*
X92026Y86053D01*
X92109Y86053D01*
X92192Y86052D01*
X92275Y86051D01*
X92275Y86134D01*
X92358Y86134D01*
X92358Y86050D01*
X92441Y86050D01*
X92441Y86133D01*
X92524Y86132D01*
X92524Y86049D01*
X92607Y86048D01*
X92607Y86131D01*
X92690Y86131D01*
X92773Y86130D01*
X92857Y86129D01*
X92857Y86212D01*
X92940Y86212D01*
X92940Y86128D01*
X93023Y86128D01*
X93023Y86211D01*
X93106Y86210D01*
X93106Y86127D01*
X93189Y86126D01*
X93189Y86209D01*
X93272Y86209D01*
X93355Y86208D01*
X93438Y86207D01*
X93439Y86290D01*
X93522Y86290D01*
X93521Y86206D01*
X93604Y86206D01*
X93605Y86289D01*
X93688Y86288D01*
X93687Y86205D01*
X93770Y86204D01*
X93771Y86287D01*
X93854Y86286D01*
X93937Y86286D01*
X94020Y86285D01*
X94021Y86368D01*
X93938Y86369D01*
X93855Y86370D01*
X93772Y86370D01*
X93773Y86453D01*
X93690Y86454D01*
X93689Y86371D01*
X93606Y86372D01*
X93607Y86455D01*
X93524Y86456D01*
X93523Y86373D01*
X93440Y86373D01*
X93441Y86456D01*
X93357Y86457D01*
X93357Y86374D01*
X93274Y86375D01*
X93274Y86458D01*
X93191Y86458D01*
X93108Y86459D01*
X93025Y86460D01*
X92942Y86461D01*
X92859Y86461D01*
X92860Y86544D01*
X92777Y86545D01*
X92694Y86546D01*
X92611Y86546D01*
X92528Y86547D01*
X92445Y86548D01*
X92446Y86631D01*
X92363Y86632D01*
X92362Y86549D01*
X92279Y86549D01*
X92280Y86632D01*
X92197Y86633D01*
X92196Y86550D01*
X92113Y86551D01*
X92114Y86634D01*
X92031Y86635D01*
X91948Y86635D01*
X91865Y86636D01*
X91782Y86637D01*
X91699Y86638D01*
X91699Y86721D01*
X91616Y86721D01*
X91533Y86722D01*
X91450Y86723D01*
X91367Y86723D01*
X91284Y86724D01*
X91285Y86807D01*
X91202Y86808D01*
X91201Y86725D01*
X91118Y86726D01*
X91119Y86809D01*
X91036Y86809D01*
X91035Y86726D01*
X90952Y86727D01*
X90953Y86810D01*
X90870Y86811D01*
X90787Y86812D01*
X90704Y86812D01*
X90621Y86813D01*
X90538Y86814D01*
X90539Y86897D01*
X90455Y86897D01*
X90372Y86898D01*
X90289Y86899D01*
X90206Y86900D01*
X90123Y86900D01*
X90124Y86983D01*
X90041Y86984D01*
X90040Y86901D01*
X89957Y86902D01*
X89958Y86985D01*
X89875Y86985D01*
X89874Y86902D01*
X89791Y86903D01*
X89792Y86986D01*
X89709Y86987D01*
X89708Y86904D01*
X89625Y86905D01*
X89626Y86988D01*
X89543Y86988D01*
X89460Y86989D01*
X89377Y86990D01*
X89378Y87073D01*
X89295Y87074D01*
X89294Y86991D01*
X89211Y86991D01*
X89212Y87074D01*
X89129Y87075D01*
X89046Y87076D01*
X88963Y87076D01*
X88880Y87077D01*
X88797Y87078D01*
X88797Y87161D01*
X88714Y87162D01*
X88714Y87079D01*
X88630Y87079D01*
X88631Y87162D01*
X88548Y87163D01*
X88547Y87080D01*
X88464Y87081D01*
X88465Y87164D01*
X88382Y87165D01*
X88299Y87165D01*
X88216Y87166D01*
X88217Y87249D01*
X88134Y87250D01*
X88133Y87167D01*
X88050Y87168D01*
X88051Y87251D01*
X87968Y87251D01*
X87967Y87168D01*
X87884Y87169D01*
X87885Y87252D01*
X87802Y87253D01*
X87719Y87253D01*
X87636Y87254D01*
X87636Y87337D01*
X87553Y87338D01*
X87553Y87255D01*
X87470Y87256D01*
X87470Y87339D01*
X87387Y87339D01*
X87387Y87256D01*
X87304Y87257D01*
X87304Y87340D01*
X87221Y87341D01*
X87138Y87341D01*
X87055Y87342D01*
X87056Y87425D01*
X86973Y87426D01*
X86979Y88173D01*
X87063Y88172D01*
X87062Y88089D01*
X87145Y88089D01*
X87146Y88172D01*
X87229Y88171D01*
X87229Y88254D01*
X87312Y88253D01*
X87395Y88253D01*
X87478Y88252D01*
X87561Y88251D01*
X87644Y88250D01*
X87645Y88333D01*
X87728Y88333D01*
X87727Y88250D01*
X87810Y88249D01*
X87811Y88332D01*
X87894Y88331D01*
X87893Y88248D01*
X87976Y88248D01*
X87977Y88331D01*
X88060Y88330D01*
X88143Y88329D01*
X88226Y88328D01*
X88309Y88328D01*
X88392Y88327D01*
X88393Y88410D01*
X88476Y88409D01*
X88475Y88326D01*
X88558Y88325D01*
X88559Y88408D01*
X88642Y88408D01*
X88725Y88407D01*
X88808Y88406D01*
X88891Y88406D01*
X88974Y88405D01*
X88975Y88488D01*
X89058Y88487D01*
X89057Y88404D01*
X89140Y88403D01*
X89141Y88486D01*
X89224Y88486D01*
X89307Y88485D01*
X89390Y88484D01*
X89473Y88484D01*
X89556Y88483D01*
X89557Y88566D01*
X89640Y88565D01*
X89639Y88482D01*
X89722Y88481D01*
X89723Y88564D01*
X89806Y88564D01*
X89889Y88563D01*
X89972Y88562D01*
X90055Y88561D01*
X90138Y88561D01*
X90139Y88644D01*
X90222Y88643D01*
X90221Y88560D01*
X90304Y88559D01*
X90305Y88642D01*
X90388Y88642D01*
X90387Y88559D01*
X90470Y88558D01*
X90471Y88641D01*
X90554Y88640D01*
X90637Y88639D01*
X90720Y88639D01*
X90803Y88638D01*
X90886Y88637D01*
X90886Y88720D01*
X90970Y88719D01*
X91053Y88719D01*
X91136Y88718D01*
X91219Y88717D01*
X91302Y88717D01*
X91302Y88800D01*
X91385Y88799D01*
X91385Y88716D01*
X91468Y88715D01*
X91468Y88798D01*
X91551Y88797D01*
X91551Y88714D01*
X91634Y88714D01*
X91634Y88797D01*
X91717Y88796D01*
X91717Y88713D01*
X91800Y88712D01*
X91800Y88795D01*
X91883Y88795D01*
X91966Y88794D01*
X92049Y88793D01*
X92050Y88876D01*
X92133Y88875D01*
X92133Y88792D01*
X92216Y88792D01*
X92216Y88875D01*
X92299Y88874D01*
X92382Y88873D01*
X92465Y88872D01*
X92466Y88955D01*
X92549Y88955D01*
X92548Y88872D01*
X92631Y88871D01*
X92632Y88954D01*
X92715Y88953D01*
X92714Y88870D01*
X92797Y88870D01*
X92798Y88953D01*
X92881Y88952D01*
X92880Y88869D01*
X92963Y88868D01*
X92964Y88951D01*
X93047Y88951D01*
X93130Y88950D01*
X93213Y88949D01*
X93296Y88948D01*
X93379Y88948D01*
X93380Y89031D01*
X93463Y89030D01*
X93546Y89029D01*
X93629Y89028D01*
X93630Y89111D01*
X93713Y89111D01*
X93712Y89028D01*
X93795Y89027D01*
X93796Y89110D01*
X93879Y89109D01*
X93878Y89026D01*
X93961Y89025D01*
X93962Y89109D01*
X93879Y89109D01*
X93880Y89192D01*
X93797Y89193D01*
X93713Y89194D01*
X93630Y89194D01*
X93547Y89195D01*
X93464Y89196D01*
X93465Y89279D01*
X93382Y89280D01*
X93381Y89197D01*
X93298Y89197D01*
X93299Y89280D01*
X93216Y89281D01*
X93215Y89198D01*
X93132Y89199D01*
X93133Y89282D01*
X93050Y89283D01*
X92967Y89283D01*
X92884Y89284D01*
X92801Y89285D01*
X92718Y89285D01*
X92719Y89368D01*
X92636Y89369D01*
X92553Y89370D01*
X92470Y89371D01*
X92387Y89371D01*
X92304Y89372D01*
X92221Y89373D01*
X92138Y89373D01*
X92138Y89457D01*
X92055Y89457D01*
X92055Y89374D01*
X91972Y89375D01*
X91972Y89458D01*
X91889Y89459D01*
X91806Y89460D01*
X91723Y89460D01*
X91640Y89461D01*
X91557Y89462D01*
X91558Y89545D01*
X91475Y89545D01*
X91474Y89462D01*
X91391Y89463D01*
X91392Y89546D01*
X91309Y89547D01*
X91226Y89547D01*
X91143Y89548D01*
X91060Y89549D01*
X90977Y89550D01*
X90978Y89633D01*
X90895Y89634D01*
X90894Y89551D01*
X90811Y89551D01*
X90811Y89634D01*
X90728Y89635D01*
X90728Y89552D01*
X90645Y89553D01*
X90645Y89636D01*
X90562Y89636D01*
X90479Y89637D01*
X90396Y89638D01*
X90313Y89639D01*
X90230Y89639D01*
X90231Y89722D01*
X90148Y89723D01*
X90065Y89724D01*
X89982Y89724D01*
X89899Y89725D01*
X89816Y89726D01*
X89817Y89809D01*
X89734Y89810D01*
X89733Y89727D01*
X89650Y89727D01*
X89651Y89810D01*
X89568Y89811D01*
X89567Y89728D01*
X89484Y89729D01*
X89485Y89812D01*
X89402Y89812D01*
X89401Y89729D01*
X89318Y89730D01*
X89319Y89813D01*
X89236Y89814D01*
X89152Y89815D01*
X89069Y89815D01*
X89070Y89899D01*
X88987Y89899D01*
X88986Y89816D01*
X88903Y89817D01*
X88904Y89900D01*
X88821Y89901D01*
X88738Y89901D01*
X88655Y89902D01*
X88656Y89985D01*
X88573Y89986D01*
X88572Y89903D01*
X88489Y89903D01*
X88490Y89986D01*
X88407Y89987D01*
X88406Y89904D01*
X88323Y89905D01*
X88324Y89988D01*
X88241Y89989D01*
X88240Y89906D01*
X88157Y89906D01*
X88158Y89990D01*
X88075Y89990D01*
X87992Y89991D01*
X87909Y89992D01*
X87826Y89992D01*
X87743Y89993D01*
X87743Y90076D01*
X87660Y90077D01*
X87577Y90078D01*
X87494Y90078D01*
X87495Y90161D01*
X87412Y90162D01*
X87411Y90079D01*
X87328Y90080D01*
X87329Y90163D01*
X87246Y90163D01*
X87245Y90080D01*
X87162Y90081D01*
X87163Y90164D01*
X87080Y90165D01*
X87081Y90248D01*
X86997Y90249D01*
X87068Y98302D01*
X87151Y98301D01*
D02*
G37*
%LPC*%
G36*
X94045Y89108D02*
X94044Y89025D01*
X94127Y89024D01*
X94128Y89107D01*
X94045Y89108D01*
D02*
G37*
G36*
X90712Y87809D02*
X90712Y87725D01*
X90795Y87725D01*
X90795Y87808D01*
X90712Y87809D01*
D02*
G37*
G36*
X90878Y87807D02*
X90878Y87724D01*
X90961Y87723D01*
X90960Y87640D01*
X91043Y87639D01*
X91044Y87723D01*
X90961Y87723D01*
X90961Y87806D01*
X90878Y87807D01*
D02*
G37*
G36*
X90688Y84986D02*
X90687Y84903D01*
X90770Y84902D01*
X90771Y84985D01*
X90688Y84986D01*
D02*
G37*
G36*
X93831Y83630D02*
X93830Y83547D01*
X93913Y83546D01*
X93913Y83463D01*
X93996Y83462D01*
X93996Y83545D01*
X93913Y83546D01*
X93914Y83629D01*
X93831Y83630D01*
D02*
G37*
%LPD*%
G36*
X108780Y23414D02*
X108780Y23346D01*
X108848Y23345D01*
X108849Y23414D01*
X108917Y23413D01*
X108917Y23345D01*
X108985Y23344D01*
X108986Y23412D01*
X109054Y23412D01*
X109054Y23343D01*
X109122Y23343D01*
X109123Y23411D01*
X109191Y23411D01*
X109190Y23342D01*
X109259Y23342D01*
X109260Y23410D01*
X109328Y23410D01*
X109397Y23409D01*
X109465Y23408D01*
X109534Y23408D01*
X109602Y23407D01*
X109670Y23406D01*
X109739Y23406D01*
X109738Y23337D01*
X109670Y23338D01*
X109669Y23269D01*
X109601Y23270D01*
X109600Y23202D01*
X109532Y23202D01*
X109463Y23203D01*
X109463Y23134D01*
X109394Y23135D01*
X109326Y23135D01*
X109325Y23067D01*
X109257Y23068D01*
X109256Y22999D01*
X109187Y23000D01*
X109187Y22931D01*
X109118Y22932D01*
X109118Y22863D01*
X109049Y22864D01*
X109049Y22795D01*
X108980Y22796D01*
X108980Y22728D01*
X108911Y22728D01*
X108911Y22660D01*
X108842Y22660D01*
X108842Y22592D01*
X108773Y22592D01*
X108771Y22387D01*
X108703Y22388D01*
X108634Y22388D01*
X108633Y22251D01*
X108565Y22252D01*
X108564Y22183D01*
X108495Y22184D01*
X108494Y22047D01*
X108426Y22048D01*
X108425Y21911D01*
X108356Y21911D01*
X108356Y21843D01*
X108287Y21843D01*
X108286Y21706D01*
X108217Y21707D01*
X108216Y21570D01*
X108148Y21571D01*
X108147Y21502D01*
X108079Y21503D01*
X108077Y21297D01*
X108008Y21298D01*
X108008Y21229D01*
X107939Y21230D01*
X107938Y21025D01*
X107869Y21025D01*
X107867Y20820D01*
X107799Y20820D01*
X107797Y20615D01*
X107729Y20616D01*
X107728Y20547D01*
X107659Y20548D01*
X107659Y20479D01*
X107727Y20479D01*
X107727Y20410D01*
X107658Y20411D01*
X107657Y20205D01*
X107588Y20206D01*
X107587Y20137D01*
X107519Y20138D01*
X107516Y19796D01*
X107448Y19796D01*
X107447Y19728D01*
X107378Y19728D01*
X107378Y19660D01*
X107446Y19659D01*
X107446Y19591D01*
X107377Y19591D01*
X107375Y19386D01*
X107307Y19387D01*
X107305Y19181D01*
X107237Y19182D01*
X107234Y18839D01*
X107165Y18840D01*
X107163Y18634D01*
X107095Y18635D01*
X107092Y18293D01*
X107023Y18293D01*
X107022Y18088D01*
X106953Y18088D01*
X106953Y18020D01*
X107021Y18019D01*
X107020Y17951D01*
X106952Y17951D01*
X106949Y17609D01*
X106880Y17610D01*
X106880Y17541D01*
X106948Y17540D01*
X106948Y17472D01*
X106879Y17473D01*
X106878Y17267D01*
X106809Y17268D01*
X106808Y17199D01*
X106877Y17199D01*
X106876Y17130D01*
X106808Y17131D01*
X106806Y16925D01*
X106738Y16926D01*
X106737Y16858D01*
X106805Y16857D01*
X106805Y16789D01*
X106736Y16789D01*
X106736Y16721D01*
X106804Y16720D01*
X106804Y16651D01*
X106735Y16652D01*
X106735Y16584D01*
X106666Y16584D01*
X106666Y16516D01*
X106734Y16515D01*
X106733Y16447D01*
X106665Y16447D01*
X106659Y15831D01*
X106591Y15832D01*
X106590Y15763D01*
X106659Y15763D01*
X106658Y15694D01*
X106590Y15695D01*
X106588Y15489D01*
X106520Y15490D01*
X106519Y15421D01*
X106588Y15421D01*
X106587Y15352D01*
X106518Y15353D01*
X106518Y15284D01*
X106586Y15284D01*
X106586Y15215D01*
X106517Y15216D01*
X106514Y14873D01*
X106446Y14874D01*
X106445Y14806D01*
X106514Y14805D01*
X106513Y14737D01*
X106445Y14737D01*
X106443Y14532D01*
X106374Y14532D01*
X106374Y14464D01*
X106442Y14463D01*
X106441Y14395D01*
X106373Y14395D01*
X106372Y14327D01*
X106441Y14326D01*
X106440Y14258D01*
X106372Y14258D01*
X106368Y13779D01*
X106299Y13780D01*
X106299Y13711D01*
X106367Y13711D01*
X106367Y13642D01*
X106298Y13643D01*
X106296Y13437D01*
X106228Y13438D01*
X106227Y13369D01*
X106296Y13369D01*
X106295Y13300D01*
X106227Y13301D01*
X106226Y13232D01*
X106294Y13232D01*
X106294Y13163D01*
X106225Y13164D01*
X106225Y13095D01*
X106293Y13095D01*
X106293Y13026D01*
X106224Y13027D01*
X106222Y12821D01*
X106291Y12821D01*
X106290Y12752D01*
X106222Y12753D01*
X106218Y12274D01*
X106286Y12273D01*
X106285Y12205D01*
X106217Y12205D01*
X106216Y12137D01*
X106285Y12136D01*
X106284Y12068D01*
X106216Y12068D01*
X106215Y12000D01*
X106284Y11999D01*
X106282Y11794D01*
X106350Y11793D01*
X106347Y11451D01*
X106416Y11450D01*
X106415Y11382D01*
X106484Y11381D01*
X106482Y11176D01*
X106550Y11175D01*
X106550Y11106D01*
X106618Y11106D01*
X106617Y10969D01*
X106685Y10968D01*
X106754Y10968D01*
X106753Y10831D01*
X106821Y10830D01*
X106890Y10830D01*
X106889Y10761D01*
X106958Y10761D01*
X106957Y10692D01*
X107026Y10691D01*
X107025Y10623D01*
X107093Y10622D01*
X107162Y10622D01*
X107230Y10621D01*
X107230Y10553D01*
X107298Y10552D01*
X107298Y10484D01*
X107229Y10484D01*
X107230Y10553D01*
X107161Y10553D01*
X107161Y10485D01*
X107092Y10485D01*
X107093Y10554D01*
X107024Y10554D01*
X107024Y10486D01*
X106955Y10487D01*
X106956Y10555D01*
X106887Y10556D01*
X106887Y10487D01*
X106818Y10488D01*
X106819Y10556D01*
X106751Y10557D01*
X106682Y10557D01*
X106614Y10558D01*
X106545Y10559D01*
X106476Y10559D01*
X106408Y10560D01*
X106340Y10560D01*
X106271Y10561D01*
X106203Y10562D01*
X106203Y10630D01*
X106135Y10631D01*
X106066Y10631D01*
X105998Y10632D01*
X105929Y10633D01*
X105861Y10633D01*
X105792Y10634D01*
X105724Y10634D01*
X105725Y10703D01*
X105656Y10703D01*
X105655Y10635D01*
X105587Y10635D01*
X105587Y10704D01*
X105519Y10705D01*
X105518Y10636D01*
X105450Y10637D01*
X105450Y10705D01*
X105382Y10706D01*
X105314Y10706D01*
X105245Y10707D01*
X105177Y10707D01*
X105108Y10708D01*
X105109Y10777D01*
X105040Y10777D01*
X104972Y10778D01*
X104903Y10778D01*
X104835Y10779D01*
X104766Y10780D01*
X104767Y10848D01*
X104699Y10849D01*
X104698Y10780D01*
X104629Y10781D01*
X104630Y10849D01*
X104561Y10850D01*
X104493Y10851D01*
X104425Y10851D01*
X104425Y10920D01*
X104357Y10920D01*
X104288Y10921D01*
X104220Y10921D01*
X104220Y10990D01*
X104152Y10990D01*
X104151Y10922D01*
X104083Y10922D01*
X104083Y10991D01*
X104015Y10992D01*
X103946Y10992D01*
X103878Y10993D01*
X103878Y11061D01*
X103810Y11062D01*
X103742Y11062D01*
X103673Y11063D01*
X103674Y11132D01*
X103605Y11132D01*
X103605Y11064D01*
X103536Y11064D01*
X103537Y11133D01*
X103468Y11133D01*
X103469Y11202D01*
X103400Y11202D01*
X103332Y11203D01*
X103263Y11204D01*
X103264Y11272D01*
X103196Y11273D01*
X103127Y11273D01*
X103059Y11274D01*
X103059Y11342D01*
X102991Y11343D01*
X102991Y11411D01*
X102923Y11412D01*
X102922Y11344D01*
X102854Y11344D01*
X102854Y11413D01*
X102786Y11413D01*
X102786Y11482D01*
X102718Y11482D01*
X102719Y11551D01*
X102650Y11551D01*
X102649Y11483D01*
X102581Y11484D01*
X102582Y11552D01*
X102513Y11553D01*
X102514Y11621D01*
X102445Y11622D01*
X102377Y11622D01*
X102308Y11623D01*
X102309Y11691D01*
X102240Y11692D01*
X102241Y11760D01*
X102173Y11761D01*
X102173Y11829D01*
X102105Y11830D01*
X102036Y11831D01*
X102037Y11899D01*
X101968Y11900D01*
X101900Y11900D01*
X101900Y11969D01*
X101832Y11970D01*
X101832Y12038D01*
X101764Y12038D01*
X101765Y12107D01*
X101696Y12108D01*
X101628Y12108D01*
X101629Y12245D01*
X101560Y12246D01*
X101492Y12246D01*
X101493Y12315D01*
X101424Y12315D01*
X101356Y12316D01*
X101357Y12453D01*
X101288Y12454D01*
X101220Y12454D01*
X101221Y12591D01*
X101153Y12592D01*
X101084Y12592D01*
X101086Y12798D01*
X101017Y12798D01*
X101018Y12867D01*
X100949Y12867D01*
X100950Y12936D01*
X100882Y12936D01*
X100882Y13005D01*
X100814Y13006D01*
X100815Y13211D01*
X100747Y13212D01*
X100748Y13280D01*
X100679Y13281D01*
X100681Y13486D01*
X100612Y13487D01*
X100613Y13555D01*
X100545Y13556D01*
X100548Y13898D01*
X100479Y13899D01*
X100481Y14104D01*
X100412Y14105D01*
X100413Y14173D01*
X100481Y14173D01*
X100482Y14241D01*
X100414Y14242D01*
X100419Y14858D01*
X100350Y14859D01*
X100351Y14927D01*
X100419Y14927D01*
X100420Y14995D01*
X100352Y14996D01*
X100352Y15064D01*
X100421Y15064D01*
X100421Y15132D01*
X100353Y15133D01*
X100353Y15201D01*
X100422Y15201D01*
X100430Y16091D01*
X100498Y16090D01*
X100499Y16159D01*
X100430Y16159D01*
X100431Y16228D01*
X100499Y16227D01*
X100501Y16433D01*
X100570Y16432D01*
X100570Y16500D01*
X100502Y16501D01*
X100502Y16569D01*
X100571Y16569D01*
X100573Y16774D01*
X100641Y16774D01*
X100642Y16842D01*
X100573Y16843D01*
X100574Y16911D01*
X100642Y16911D01*
X100643Y16979D01*
X100711Y16979D01*
X100712Y17047D01*
X100644Y17048D01*
X100644Y17116D01*
X100713Y17116D01*
X100714Y17321D01*
X100783Y17320D01*
X100785Y17526D01*
X100853Y17525D01*
X100855Y17731D01*
X100923Y17730D01*
X100925Y17935D01*
X100994Y17935D01*
X100995Y18140D01*
X101064Y18140D01*
X101065Y18208D01*
X101133Y18208D01*
X101135Y18413D01*
X101203Y18413D01*
X101204Y18481D01*
X101272Y18480D01*
X101274Y18686D01*
X101343Y18685D01*
X101343Y18754D01*
X101412Y18753D01*
X101414Y18959D01*
X101482Y18958D01*
X101483Y19026D01*
X101551Y19026D01*
X101553Y19231D01*
X101621Y19231D01*
X101622Y19299D01*
X101690Y19299D01*
X101691Y19367D01*
X101760Y19366D01*
X101760Y19435D01*
X101829Y19434D01*
X101830Y19571D01*
X101898Y19571D01*
X101899Y19708D01*
X101968Y19707D01*
X101969Y19775D01*
X102037Y19775D01*
X102038Y19843D01*
X102106Y19843D01*
X102107Y19911D01*
X102175Y19911D01*
X102176Y19979D01*
X102244Y19978D01*
X102246Y20184D01*
X102314Y20183D01*
X102314Y20115D01*
X102382Y20114D01*
X102384Y20320D01*
X102453Y20319D01*
X102453Y20388D01*
X102522Y20387D01*
X102522Y20456D01*
X102591Y20455D01*
X102591Y20523D01*
X102660Y20523D01*
X102660Y20591D01*
X102729Y20591D01*
X102729Y20659D01*
X102798Y20659D01*
X102799Y20727D01*
X102867Y20726D01*
X102868Y20795D01*
X102936Y20794D01*
X102937Y20863D01*
X103005Y20862D01*
X103006Y20931D01*
X103074Y20930D01*
X103075Y20999D01*
X103143Y20998D01*
X103144Y21067D01*
X103212Y21066D01*
X103213Y21134D01*
X103281Y21134D01*
X103282Y21202D01*
X103351Y21202D01*
X103351Y21270D01*
X103420Y21270D01*
X103419Y21201D01*
X103488Y21200D01*
X103489Y21337D01*
X103557Y21337D01*
X103626Y21336D01*
X103626Y21405D01*
X103695Y21404D01*
X103695Y21473D01*
X103764Y21472D01*
X103764Y21540D01*
X103833Y21540D01*
X103834Y21608D01*
X103902Y21608D01*
X103903Y21676D01*
X103971Y21676D01*
X103972Y21744D01*
X104040Y21744D01*
X104109Y21743D01*
X104177Y21742D01*
X104178Y21811D01*
X104246Y21810D01*
X104247Y21879D01*
X104315Y21878D01*
X104316Y21947D01*
X104384Y21946D01*
X104453Y21945D01*
X104454Y22014D01*
X104522Y22013D01*
X104590Y22013D01*
X104591Y22081D01*
X104659Y22081D01*
X104660Y22149D01*
X104729Y22148D01*
X104729Y22217D01*
X104798Y22216D01*
X104797Y22148D01*
X104866Y22147D01*
X104866Y22216D01*
X104935Y22215D01*
X104935Y22284D01*
X105004Y22283D01*
X105004Y22351D01*
X105073Y22351D01*
X105072Y22282D01*
X105141Y22282D01*
X105141Y22350D01*
X105210Y22350D01*
X105210Y22418D01*
X105279Y22418D01*
X105279Y22486D01*
X105348Y22485D01*
X105416Y22485D01*
X105485Y22484D01*
X105485Y22553D01*
X105554Y22552D01*
X105554Y22621D01*
X105623Y22620D01*
X105622Y22551D01*
X105691Y22551D01*
X105692Y22619D01*
X105760Y22619D01*
X105761Y22687D01*
X105829Y22687D01*
X105897Y22686D01*
X105966Y22685D01*
X105967Y22754D01*
X106035Y22753D01*
X106104Y22753D01*
X106172Y22752D01*
X106173Y22821D01*
X106241Y22820D01*
X106242Y22888D01*
X106310Y22888D01*
X106310Y22819D01*
X106378Y22819D01*
X106379Y22887D01*
X106447Y22887D01*
X106516Y22886D01*
X106584Y22885D01*
X106585Y22954D01*
X106653Y22953D01*
X106654Y23022D01*
X106722Y23021D01*
X106722Y22953D01*
X106790Y22952D01*
X106791Y23021D01*
X106859Y23020D01*
X106928Y23020D01*
X106996Y23019D01*
X106997Y23087D01*
X107065Y23087D01*
X107134Y23086D01*
X107202Y23086D01*
X107203Y23154D01*
X107271Y23153D01*
X107271Y23085D01*
X107339Y23084D01*
X107340Y23153D01*
X107408Y23152D01*
X107477Y23152D01*
X107545Y23151D01*
X107546Y23220D01*
X107614Y23219D01*
X107683Y23218D01*
X107751Y23218D01*
X107752Y23286D01*
X107820Y23286D01*
X107820Y23217D01*
X107888Y23217D01*
X107889Y23285D01*
X107957Y23284D01*
X107957Y23216D01*
X108025Y23215D01*
X108026Y23284D01*
X108094Y23283D01*
X108163Y23283D01*
X108231Y23282D01*
X108232Y23350D01*
X108300Y23350D01*
X108300Y23281D01*
X108368Y23281D01*
X108369Y23349D01*
X108437Y23349D01*
X108506Y23348D01*
X108574Y23347D01*
X108643Y23347D01*
X108711Y23346D01*
X108712Y23415D01*
X108780Y23414D01*
D02*
G37*
G36*
X111243Y23119D02*
X111242Y23050D01*
X111311Y23050D01*
X111312Y23118D01*
X111380Y23118D01*
X111380Y23049D01*
X111448Y23049D01*
X111449Y23117D01*
X111517Y23116D01*
X111585Y23116D01*
X111654Y23115D01*
X111653Y23047D01*
X111722Y23046D01*
X111723Y23115D01*
X111791Y23114D01*
X111790Y23045D01*
X111859Y23045D01*
X111927Y23044D01*
X111996Y23044D01*
X111995Y22975D01*
X112064Y22975D01*
X112063Y22906D01*
X112132Y22906D01*
X112132Y22974D01*
X112201Y22974D01*
X112200Y22905D01*
X112268Y22904D01*
X112337Y22904D01*
X112406Y22903D01*
X112405Y22835D01*
X112473Y22834D01*
X112473Y22766D01*
X112541Y22765D01*
X112542Y22833D01*
X112610Y22833D01*
X112610Y22764D01*
X112678Y22764D01*
X112747Y22763D01*
X112746Y22695D01*
X112814Y22694D01*
X112883Y22694D01*
X112882Y22625D01*
X112951Y22625D01*
X113019Y22624D01*
X113088Y22623D01*
X113087Y22555D01*
X113156Y22554D01*
X113155Y22486D01*
X113224Y22485D01*
X113224Y22554D01*
X113293Y22553D01*
X113292Y22485D01*
X113361Y22484D01*
X113360Y22415D01*
X113428Y22415D01*
X113428Y22346D01*
X113496Y22346D01*
X113565Y22345D01*
X113564Y22277D01*
X113633Y22276D01*
X113701Y22275D01*
X113701Y22207D01*
X113769Y22206D01*
X113768Y22138D01*
X113837Y22137D01*
X113836Y22069D01*
X113905Y22068D01*
X113973Y22068D01*
X113973Y21999D01*
X114041Y21999D01*
X114110Y21998D01*
X114109Y21929D01*
X114178Y21929D01*
X114177Y21860D01*
X114245Y21860D01*
X114245Y21791D01*
X114313Y21791D01*
X114313Y21722D01*
X114381Y21722D01*
X114381Y21653D01*
X114449Y21653D01*
X114448Y21584D01*
X114517Y21584D01*
X114516Y21515D01*
X114585Y21515D01*
X114584Y21446D01*
X114653Y21445D01*
X114652Y21377D01*
X114721Y21376D01*
X114720Y21308D01*
X114788Y21307D01*
X114788Y21239D01*
X114856Y21238D01*
X114856Y21170D01*
X114924Y21169D01*
X114924Y21101D01*
X114992Y21100D01*
X114992Y21032D01*
X115060Y21031D01*
X115059Y20963D01*
X115128Y20962D01*
X115127Y20893D01*
X115196Y20893D01*
X115194Y20687D01*
X115262Y20687D01*
X115262Y20618D01*
X115330Y20618D01*
X115329Y20412D01*
X115397Y20412D01*
X115396Y20343D01*
X115465Y20343D01*
X115464Y20274D01*
X115533Y20274D01*
X115531Y20068D01*
X115600Y20067D01*
X115599Y19999D01*
X115667Y19998D01*
X115666Y19793D01*
X115734Y19792D01*
X115732Y19587D01*
X115801Y19586D01*
X115800Y19518D01*
X115869Y19517D01*
X115868Y19449D01*
X115800Y19449D01*
X115799Y19381D01*
X115867Y19380D01*
X115866Y19175D01*
X115934Y19174D01*
X115934Y19106D01*
X116002Y19105D01*
X116001Y19037D01*
X115933Y19037D01*
X115932Y18969D01*
X116001Y18968D01*
X115999Y18763D01*
X116068Y18762D01*
X116067Y18694D01*
X115998Y18694D01*
X115998Y18626D01*
X116066Y18625D01*
X116066Y18557D01*
X116134Y18556D01*
X116134Y18488D01*
X116065Y18488D01*
X116065Y18420D01*
X116133Y18419D01*
X116129Y17940D01*
X116197Y17939D01*
X116197Y17871D01*
X116128Y17871D01*
X116128Y17803D01*
X116196Y17802D01*
X116194Y17597D01*
X116263Y17596D01*
X116262Y17528D01*
X116194Y17528D01*
X116193Y17460D01*
X116262Y17459D01*
X116261Y17391D01*
X116192Y17391D01*
X116192Y17323D01*
X116260Y17322D01*
X116260Y17254D01*
X116191Y17254D01*
X116191Y17186D01*
X116259Y17185D01*
X116249Y16021D01*
X116181Y16022D01*
X116182Y16227D01*
X116114Y16228D01*
X116114Y16296D01*
X116183Y16296D01*
X116183Y16364D01*
X116115Y16365D01*
X116116Y16433D01*
X116047Y16434D01*
X116048Y16502D01*
X115979Y16503D01*
X115980Y16571D01*
X115911Y16572D01*
X115913Y16709D01*
X115844Y16710D01*
X115776Y16710D01*
X115776Y16779D01*
X115708Y16779D01*
X115708Y16848D01*
X115640Y16848D01*
X115640Y16917D01*
X115572Y16917D01*
X115573Y16986D01*
X115504Y16986D01*
X115505Y17055D01*
X115436Y17056D01*
X115436Y16987D01*
X115367Y16988D01*
X115368Y17056D01*
X115299Y17057D01*
X115300Y17125D01*
X115231Y17126D01*
X115232Y17194D01*
X115164Y17195D01*
X115095Y17196D01*
X115026Y17196D01*
X115027Y17265D01*
X114959Y17265D01*
X114890Y17266D01*
X114822Y17266D01*
X114822Y17335D01*
X114754Y17335D01*
X114753Y17267D01*
X114685Y17268D01*
X114685Y17336D01*
X114617Y17337D01*
X114548Y17337D01*
X114480Y17338D01*
X114480Y17406D01*
X114412Y17407D01*
X114344Y17408D01*
X114275Y17408D01*
X114276Y17477D01*
X114207Y17477D01*
X114207Y17409D01*
X114138Y17409D01*
X114139Y17478D01*
X114070Y17478D01*
X114070Y17410D01*
X114001Y17411D01*
X114002Y17479D01*
X113933Y17480D01*
X113865Y17480D01*
X113796Y17481D01*
X113728Y17481D01*
X113659Y17482D01*
X113591Y17483D01*
X113522Y17483D01*
X113523Y17552D01*
X113454Y17552D01*
X113454Y17484D01*
X113385Y17484D01*
X113386Y17553D01*
X113318Y17553D01*
X113317Y17485D01*
X113249Y17486D01*
X113249Y17554D01*
X113181Y17555D01*
X113180Y17486D01*
X113111Y17487D01*
X113112Y17555D01*
X113044Y17556D01*
X113043Y17487D01*
X112975Y17488D01*
X112975Y17556D01*
X112907Y17557D01*
X112906Y17489D01*
X112838Y17489D01*
X112838Y17558D01*
X112770Y17558D01*
X112769Y17490D01*
X112701Y17490D01*
X112701Y17559D01*
X112633Y17559D01*
X112632Y17491D01*
X112564Y17492D01*
X112495Y17492D01*
X112427Y17493D01*
X112358Y17493D01*
X112290Y17494D01*
X112221Y17495D01*
X112153Y17495D01*
X112084Y17496D01*
X112016Y17496D01*
X112015Y17428D01*
X111947Y17428D01*
X111947Y17497D01*
X111879Y17497D01*
X111878Y17429D01*
X111810Y17430D01*
X111810Y17498D01*
X111742Y17499D01*
X111741Y17430D01*
X111673Y17431D01*
X111673Y17499D01*
X111605Y17500D01*
X111604Y17431D01*
X111536Y17432D01*
X111467Y17433D01*
X111399Y17433D01*
X111330Y17434D01*
X111262Y17434D01*
X111261Y17366D01*
X111193Y17367D01*
X111194Y17435D01*
X111125Y17436D01*
X111124Y17367D01*
X111056Y17368D01*
X110987Y17368D01*
X110919Y17369D01*
X110851Y17369D01*
X110782Y17370D01*
X110781Y17302D01*
X110713Y17302D01*
X110714Y17371D01*
X110645Y17371D01*
X110644Y17303D01*
X110576Y17303D01*
X110508Y17304D01*
X110439Y17305D01*
X110371Y17305D01*
X110302Y17306D01*
X110301Y17237D01*
X110233Y17238D01*
X110164Y17239D01*
X110096Y17239D01*
X110095Y17171D01*
X110027Y17171D01*
X110028Y17240D01*
X109959Y17240D01*
X109959Y17172D01*
X109890Y17172D01*
X109891Y17241D01*
X109822Y17242D01*
X109821Y17173D01*
X109753Y17174D01*
X109685Y17174D01*
X109616Y17175D01*
X109616Y17106D01*
X109547Y17107D01*
X109478Y17108D01*
X109410Y17108D01*
X109409Y17040D01*
X109341Y17040D01*
X109342Y17109D01*
X109273Y17109D01*
X109273Y17041D01*
X109204Y17041D01*
X109205Y17110D01*
X109136Y17110D01*
X109135Y17042D01*
X109067Y17043D01*
X108999Y17043D01*
X108930Y17044D01*
X108930Y16975D01*
X108861Y16976D01*
X108792Y16977D01*
X108724Y16977D01*
X108723Y16909D01*
X108655Y16909D01*
X108656Y16978D01*
X108587Y16978D01*
X108587Y16910D01*
X108518Y16910D01*
X108449Y16911D01*
X108381Y16912D01*
X108382Y16980D01*
X108450Y16980D01*
X108451Y17048D01*
X108382Y17049D01*
X108383Y17117D01*
X108451Y17117D01*
X108453Y17322D01*
X108522Y17321D01*
X108522Y17390D01*
X108454Y17391D01*
X108454Y17459D01*
X108523Y17458D01*
X108526Y17801D01*
X108594Y17800D01*
X108595Y17869D01*
X108526Y17869D01*
X108527Y17938D01*
X108596Y17937D01*
X108596Y18006D01*
X108665Y18005D01*
X108665Y18073D01*
X108597Y18074D01*
X108597Y18143D01*
X108666Y18142D01*
X108669Y18484D01*
X108737Y18484D01*
X108739Y18689D01*
X108808Y18689D01*
X108810Y19031D01*
X108879Y19030D01*
X108881Y19236D01*
X108949Y19235D01*
X108952Y19578D01*
X109021Y19577D01*
X109021Y19646D01*
X109090Y19645D01*
X109090Y19713D01*
X109022Y19714D01*
X109022Y19782D01*
X109091Y19782D01*
X109093Y19987D01*
X109161Y19987D01*
X109162Y20055D01*
X109230Y20054D01*
X109231Y20123D01*
X109162Y20124D01*
X109163Y20192D01*
X109231Y20191D01*
X109233Y20397D01*
X109302Y20396D01*
X109304Y20602D01*
X109372Y20601D01*
X109374Y20807D01*
X109442Y20806D01*
X109443Y20875D01*
X109511Y20874D01*
X109512Y20942D01*
X109443Y20943D01*
X109444Y21012D01*
X109513Y21011D01*
X109514Y21216D01*
X109583Y21216D01*
X109583Y21284D01*
X109652Y21284D01*
X109654Y21489D01*
X109722Y21488D01*
X109723Y21557D01*
X109791Y21556D01*
X109793Y21762D01*
X109862Y21761D01*
X109862Y21830D01*
X109931Y21829D01*
X109932Y22035D01*
X110001Y22034D01*
X110002Y22102D01*
X110070Y22102D01*
X110071Y22170D01*
X110139Y22170D01*
X110140Y22238D01*
X110208Y22238D01*
X110210Y22443D01*
X110278Y22442D01*
X110279Y22511D01*
X110347Y22510D01*
X110348Y22579D01*
X110417Y22578D01*
X110417Y22647D01*
X110486Y22646D01*
X110486Y22715D01*
X110555Y22714D01*
X110555Y22782D01*
X110624Y22782D01*
X110624Y22850D01*
X110693Y22850D01*
X110694Y22918D01*
X110762Y22918D01*
X110830Y22917D01*
X110899Y22916D01*
X110899Y22985D01*
X110968Y22984D01*
X110969Y23053D01*
X111037Y23052D01*
X111106Y23052D01*
X111174Y23051D01*
X111175Y23119D01*
X111243Y23119D01*
D02*
G37*
G36*
X113787Y16385D02*
X113855Y16385D01*
X113924Y16384D01*
X113992Y16383D01*
X114061Y16383D01*
X114060Y16314D01*
X114128Y16314D01*
X114129Y16382D01*
X114198Y16382D01*
X114197Y16313D01*
X114266Y16312D01*
X114266Y16381D01*
X114335Y16380D01*
X114334Y16312D01*
X114402Y16311D01*
X114471Y16311D01*
X114539Y16310D01*
X114539Y16242D01*
X114607Y16241D01*
X114676Y16240D01*
X114744Y16240D01*
X114744Y16171D01*
X114812Y16171D01*
X114813Y16239D01*
X114881Y16239D01*
X114881Y16170D01*
X114949Y16170D01*
X115018Y16169D01*
X115017Y16100D01*
X115085Y16100D01*
X115154Y16099D01*
X115153Y16031D01*
X115222Y16030D01*
X115290Y16029D01*
X115359Y16029D01*
X115358Y15960D01*
X115427Y15960D01*
X115426Y15891D01*
X115495Y15891D01*
X115563Y15890D01*
X115562Y15753D01*
X115630Y15753D01*
X115699Y15752D01*
X115698Y15615D01*
X115766Y15615D01*
X115835Y15614D01*
X115833Y15477D01*
X115902Y15476D01*
X115901Y15408D01*
X115970Y15407D01*
X115967Y15065D01*
X116035Y15064D01*
X116035Y14996D01*
X115966Y14996D01*
X115965Y14928D01*
X116034Y14927D01*
X116033Y14859D01*
X115965Y14859D01*
X115962Y14517D01*
X115893Y14518D01*
X115893Y14449D01*
X115961Y14448D01*
X115961Y14380D01*
X115892Y14381D01*
X115891Y14175D01*
X115822Y14176D01*
X115820Y13970D01*
X115752Y13971D01*
X115751Y13903D01*
X115820Y13902D01*
X115819Y13833D01*
X115751Y13834D01*
X115750Y13766D01*
X115682Y13766D01*
X115681Y13698D01*
X115749Y13697D01*
X115749Y13629D01*
X115680Y13629D01*
X115679Y13424D01*
X115610Y13424D01*
X115609Y13356D01*
X115541Y13356D01*
X115539Y13151D01*
X115471Y13152D01*
X115469Y12946D01*
X115400Y12947D01*
X115400Y12878D01*
X115331Y12879D01*
X115330Y12674D01*
X115261Y12674D01*
X115259Y12469D01*
X115191Y12469D01*
X115190Y12401D01*
X115122Y12401D01*
X115121Y12333D01*
X115053Y12333D01*
X115051Y12128D01*
X114982Y12129D01*
X114982Y12060D01*
X114913Y12061D01*
X114913Y11992D01*
X114844Y11993D01*
X114842Y11787D01*
X114774Y11788D01*
X114773Y11720D01*
X114705Y11720D01*
X114704Y11652D01*
X114636Y11652D01*
X114635Y11584D01*
X114567Y11584D01*
X114565Y11379D01*
X114496Y11379D01*
X114496Y11311D01*
X114427Y11312D01*
X114427Y11243D01*
X114358Y11244D01*
X114358Y11175D01*
X114289Y11176D01*
X114289Y11107D01*
X114220Y11108D01*
X114219Y11039D01*
X114151Y11040D01*
X114150Y10903D01*
X114081Y10904D01*
X114013Y10904D01*
X114011Y10699D01*
X113943Y10700D01*
X113874Y10700D01*
X113873Y10563D01*
X113804Y10564D01*
X113736Y10564D01*
X113735Y10427D01*
X113666Y10428D01*
X113598Y10429D01*
X113597Y10292D01*
X113528Y10292D01*
X113460Y10293D01*
X113459Y10156D01*
X113390Y10157D01*
X113321Y10157D01*
X113320Y10020D01*
X113252Y10021D01*
X113252Y10089D01*
X113184Y10090D01*
X113183Y9953D01*
X113114Y9953D01*
X113046Y9954D01*
X113045Y9886D01*
X112977Y9886D01*
X112976Y9818D01*
X112908Y9818D01*
X112907Y9750D01*
X112839Y9750D01*
X112838Y9682D01*
X112769Y9683D01*
X112769Y9614D01*
X112700Y9615D01*
X112700Y9546D01*
X112631Y9547D01*
X112563Y9547D01*
X112494Y9548D01*
X112494Y9479D01*
X112425Y9480D01*
X112425Y9411D01*
X112356Y9412D01*
X112356Y9344D01*
X112287Y9344D01*
X112286Y9276D01*
X112218Y9276D01*
X112217Y9208D01*
X112149Y9208D01*
X112081Y9209D01*
X112080Y9141D01*
X112011Y9141D01*
X111943Y9142D01*
X111942Y9073D01*
X111874Y9074D01*
X111873Y9005D01*
X111805Y9006D01*
X111736Y9007D01*
X111668Y9007D01*
X111667Y8939D01*
X111599Y8939D01*
X111598Y8871D01*
X111530Y8872D01*
X111529Y8803D01*
X111461Y8804D01*
X111392Y8804D01*
X111324Y8805D01*
X111323Y8736D01*
X111255Y8737D01*
X111254Y8668D01*
X111186Y8669D01*
X111117Y8670D01*
X111048Y8670D01*
X111048Y8602D01*
X110979Y8602D01*
X110979Y8534D01*
X110910Y8535D01*
X110842Y8535D01*
X110773Y8536D01*
X110773Y8467D01*
X110704Y8468D01*
X110704Y8399D01*
X110635Y8400D01*
X110567Y8400D01*
X110498Y8401D01*
X110498Y8333D01*
X110429Y8333D01*
X110429Y8265D01*
X110360Y8265D01*
X110361Y8334D01*
X110292Y8334D01*
X110293Y8403D01*
X110361Y8402D01*
X110362Y8471D01*
X110430Y8470D01*
X110431Y8539D01*
X110500Y8538D01*
X110500Y8607D01*
X110569Y8606D01*
X110569Y8674D01*
X110638Y8674D01*
X110638Y8742D01*
X110707Y8742D01*
X110775Y8741D01*
X110776Y8810D01*
X110844Y8809D01*
X110845Y8878D01*
X110913Y8877D01*
X110914Y8945D01*
X110982Y8945D01*
X111051Y8944D01*
X111052Y9081D01*
X111121Y9081D01*
X111189Y9080D01*
X111190Y9217D01*
X111259Y9216D01*
X111327Y9216D01*
X111328Y9284D01*
X111396Y9284D01*
X111397Y9352D01*
X111465Y9351D01*
X111467Y9488D01*
X111535Y9488D01*
X111603Y9487D01*
X111605Y9624D01*
X111673Y9624D01*
X111674Y9692D01*
X111742Y9691D01*
X111743Y9828D01*
X111812Y9828D01*
X111813Y9896D01*
X111881Y9896D01*
X111882Y9964D01*
X111950Y9964D01*
X111951Y10032D01*
X112019Y10031D01*
X112020Y10100D01*
X112088Y10099D01*
X112089Y10168D01*
X112157Y10167D01*
X112159Y10373D01*
X112228Y10372D01*
X112228Y10441D01*
X112297Y10440D01*
X112297Y10508D01*
X112366Y10508D01*
X112366Y10576D01*
X112435Y10576D01*
X112437Y10781D01*
X112505Y10780D01*
X112506Y10849D01*
X112574Y10848D01*
X112575Y10917D01*
X112643Y10916D01*
X112644Y10985D01*
X112712Y10984D01*
X112714Y11190D01*
X112783Y11189D01*
X112783Y11258D01*
X112852Y11257D01*
X112854Y11462D01*
X112922Y11462D01*
X112923Y11530D01*
X112991Y11530D01*
X112993Y11735D01*
X113061Y11734D01*
X113062Y11803D01*
X113130Y11802D01*
X113131Y11871D01*
X113063Y11871D01*
X113063Y11940D01*
X113132Y11939D01*
X113132Y12008D01*
X113201Y12007D01*
X113201Y12076D01*
X113270Y12075D01*
X113270Y12144D01*
X113202Y12144D01*
X113202Y12213D01*
X113271Y12212D01*
X113273Y12417D01*
X113341Y12417D01*
X113342Y12485D01*
X113410Y12485D01*
X113412Y12690D01*
X113480Y12690D01*
X113482Y12895D01*
X113551Y12894D01*
X113553Y13100D01*
X113621Y13099D01*
X113623Y13305D01*
X113691Y13304D01*
X113693Y13510D01*
X113762Y13509D01*
X113763Y13714D01*
X113832Y13714D01*
X113834Y13919D01*
X113902Y13919D01*
X113903Y13987D01*
X113834Y13988D01*
X113835Y14056D01*
X113903Y14056D01*
X113904Y14124D01*
X113972Y14123D01*
X113973Y14192D01*
X113905Y14193D01*
X113905Y14261D01*
X113974Y14261D01*
X113977Y14603D01*
X114045Y14602D01*
X114046Y14671D01*
X113977Y14671D01*
X113978Y14740D01*
X114046Y14739D01*
X114047Y14808D01*
X114115Y14807D01*
X114116Y14876D01*
X114048Y14876D01*
X114048Y14945D01*
X114117Y14944D01*
X114117Y15012D01*
X114049Y15013D01*
X114049Y15082D01*
X114118Y15081D01*
X114118Y15149D01*
X114050Y15150D01*
X114050Y15219D01*
X114119Y15218D01*
X114120Y15286D01*
X114051Y15287D01*
X114052Y15356D01*
X114120Y15355D01*
X114121Y15423D01*
X114052Y15424D01*
X114053Y15493D01*
X114121Y15492D01*
X114122Y15560D01*
X114053Y15561D01*
X114054Y15629D01*
X114123Y15629D01*
X114123Y15697D01*
X114055Y15698D01*
X114055Y15766D01*
X113987Y15767D01*
X113987Y15835D01*
X114056Y15835D01*
X114057Y15903D01*
X113988Y15904D01*
X113990Y16109D01*
X113921Y16110D01*
X113922Y16179D01*
X113853Y16179D01*
X113854Y16248D01*
X113786Y16248D01*
X113786Y16317D01*
X113718Y16317D01*
X113718Y16386D01*
X113787Y16385D01*
D02*
G37*
G36*
X100874Y12046D02*
X100873Y11909D01*
X100941Y11909D01*
X101010Y11908D01*
X101009Y11840D01*
X101077Y11839D01*
X101146Y11839D01*
X101145Y11770D01*
X101214Y11769D01*
X101213Y11701D01*
X101282Y11700D01*
X101281Y11632D01*
X101350Y11631D01*
X101349Y11563D01*
X101417Y11562D01*
X101417Y11494D01*
X101485Y11493D01*
X101486Y11562D01*
X101554Y11561D01*
X101554Y11492D01*
X101622Y11492D01*
X101622Y11423D01*
X101690Y11423D01*
X101690Y11354D01*
X101758Y11354D01*
X101757Y11285D01*
X101826Y11285D01*
X101894Y11284D01*
X101963Y11283D01*
X101962Y11215D01*
X102031Y11214D01*
X102030Y11146D01*
X102099Y11145D01*
X102098Y11077D01*
X102166Y11076D01*
X102167Y11145D01*
X102236Y11144D01*
X102235Y11076D01*
X102304Y11075D01*
X102303Y11007D01*
X102371Y11006D01*
X102371Y10938D01*
X102439Y10937D01*
X102508Y10936D01*
X102507Y10868D01*
X102576Y10867D01*
X102644Y10867D01*
X102644Y10798D01*
X102712Y10797D01*
X102780Y10797D01*
X102849Y10796D01*
X102848Y10728D01*
X102917Y10727D01*
X102916Y10659D01*
X102985Y10658D01*
X102985Y10727D01*
X103054Y10726D01*
X103053Y10658D01*
X103122Y10657D01*
X103121Y10588D01*
X103190Y10588D01*
X103258Y10587D01*
X103326Y10587D01*
X103326Y10518D01*
X103394Y10518D01*
X103463Y10517D01*
X103462Y10449D01*
X103531Y10448D01*
X103599Y10447D01*
X103599Y10379D01*
X103667Y10378D01*
X103668Y10447D01*
X103736Y10446D01*
X103736Y10378D01*
X103804Y10377D01*
X103803Y10309D01*
X103872Y10308D01*
X103940Y10307D01*
X104009Y10307D01*
X104008Y10238D01*
X104077Y10238D01*
X104077Y10306D01*
X104146Y10306D01*
X104145Y10237D01*
X104214Y10237D01*
X104213Y10168D01*
X104282Y10167D01*
X104350Y10167D01*
X104419Y10166D01*
X104418Y10098D01*
X104487Y10097D01*
X104487Y10166D01*
X104555Y10165D01*
X104555Y10097D01*
X104623Y10096D01*
X104692Y10095D01*
X104760Y10095D01*
X104760Y10026D01*
X104828Y10026D01*
X104829Y10094D01*
X104897Y10094D01*
X104897Y10025D01*
X104965Y10024D01*
X104965Y9956D01*
X105033Y9956D01*
X105034Y10024D01*
X105102Y10023D01*
X105102Y9955D01*
X105170Y9954D01*
X105171Y10023D01*
X105239Y10022D01*
X105239Y9954D01*
X105307Y9953D01*
X105376Y9952D01*
X105444Y9952D01*
X105512Y9951D01*
X105581Y9951D01*
X105580Y9882D01*
X105649Y9882D01*
X105717Y9881D01*
X105786Y9880D01*
X105854Y9880D01*
X105923Y9879D01*
X105922Y9811D01*
X105991Y9810D01*
X105991Y9879D01*
X106060Y9878D01*
X106059Y9809D01*
X106128Y9809D01*
X106128Y9877D01*
X106197Y9877D01*
X106196Y9808D01*
X106264Y9808D01*
X106265Y9876D01*
X106334Y9876D01*
X106333Y9807D01*
X106402Y9806D01*
X106402Y9875D01*
X106471Y9874D01*
X106470Y9806D01*
X106538Y9805D01*
X106607Y9805D01*
X106675Y9804D01*
X106676Y9873D01*
X106745Y9872D01*
X106744Y9804D01*
X106812Y9803D01*
X106881Y9802D01*
X106949Y9802D01*
X107018Y9801D01*
X107086Y9801D01*
X107155Y9800D01*
X107223Y9799D01*
X107224Y9868D01*
X107292Y9867D01*
X107292Y9799D01*
X107360Y9798D01*
X107361Y9867D01*
X107429Y9866D01*
X107429Y9798D01*
X107497Y9797D01*
X107498Y9866D01*
X107566Y9865D01*
X107566Y9796D01*
X107634Y9796D01*
X107635Y9864D01*
X107703Y9864D01*
X107703Y9795D01*
X107771Y9795D01*
X107772Y9863D01*
X107840Y9862D01*
X107840Y9794D01*
X107908Y9793D01*
X107909Y9862D01*
X107977Y9861D01*
X108046Y9861D01*
X108114Y9860D01*
X108183Y9860D01*
X108251Y9859D01*
X108252Y9927D01*
X108320Y9927D01*
X108389Y9926D01*
X108457Y9926D01*
X108458Y9994D01*
X108526Y9994D01*
X108526Y9925D01*
X108594Y9924D01*
X108595Y9993D01*
X108663Y9992D01*
X108662Y9924D01*
X108731Y9923D01*
X108732Y9992D01*
X108800Y9991D01*
X108800Y9922D01*
X108868Y9922D01*
X108869Y9990D01*
X108937Y9990D01*
X108938Y10058D01*
X109006Y10058D01*
X109075Y10057D01*
X109143Y10057D01*
X109144Y10125D01*
X109212Y10124D01*
X109212Y10056D01*
X109280Y10055D01*
X109281Y10124D01*
X109349Y10123D01*
X109418Y10123D01*
X109486Y10122D01*
X109487Y10191D01*
X109555Y10190D01*
X109624Y10189D01*
X109692Y10189D01*
X109693Y10257D01*
X109761Y10257D01*
X109760Y10188D01*
X109829Y10187D01*
X109830Y10256D01*
X109898Y10255D01*
X109967Y10255D01*
X110035Y10254D01*
X110036Y10323D01*
X110104Y10322D01*
X110105Y10391D01*
X110173Y10390D01*
X110173Y10322D01*
X110241Y10321D01*
X110242Y10389D01*
X110310Y10389D01*
X110311Y10457D01*
X110379Y10457D01*
X110448Y10456D01*
X110516Y10456D01*
X110517Y10524D01*
X110585Y10523D01*
X110654Y10523D01*
X110722Y10522D01*
X110723Y10591D01*
X110791Y10590D01*
X110792Y10659D01*
X110860Y10658D01*
X110860Y10589D01*
X110928Y10589D01*
X110929Y10657D01*
X110997Y10657D01*
X110998Y10725D01*
X111066Y10725D01*
X111135Y10724D01*
X111203Y10723D01*
X111204Y10792D01*
X111273Y10791D01*
X111273Y10860D01*
X111342Y10859D01*
X111342Y10928D01*
X111411Y10927D01*
X111410Y10859D01*
X111478Y10858D01*
X111479Y10926D01*
X111548Y10926D01*
X111548Y10994D01*
X111617Y10994D01*
X111685Y10993D01*
X111754Y10993D01*
X111754Y11061D01*
X111823Y11060D01*
X111823Y11129D01*
X111892Y11128D01*
X111892Y11197D01*
X111961Y11196D01*
X111960Y11128D01*
X112029Y11127D01*
X112029Y11196D01*
X112098Y11195D01*
X112096Y10990D01*
X112028Y10990D01*
X112027Y10922D01*
X111959Y10922D01*
X111958Y10854D01*
X111889Y10854D01*
X111888Y10649D01*
X111819Y10650D01*
X111819Y10581D01*
X111750Y10582D01*
X111749Y10513D01*
X111681Y10514D01*
X111679Y10308D01*
X111611Y10309D01*
X111610Y10240D01*
X111542Y10241D01*
X111541Y10173D01*
X111473Y10173D01*
X111472Y10105D01*
X111403Y10105D01*
X111403Y10037D01*
X111334Y10037D01*
X111334Y9969D01*
X111265Y9969D01*
X111264Y9764D01*
X111195Y9765D01*
X111194Y9696D01*
X111126Y9697D01*
X111125Y9628D01*
X111057Y9629D01*
X111056Y9561D01*
X110988Y9561D01*
X110987Y9493D01*
X110919Y9493D01*
X110918Y9425D01*
X110850Y9425D01*
X110849Y9357D01*
X110781Y9357D01*
X110780Y9289D01*
X110712Y9290D01*
X110711Y9221D01*
X110643Y9222D01*
X110642Y9153D01*
X110573Y9154D01*
X110573Y9085D01*
X110504Y9086D01*
X110504Y9017D01*
X110435Y9018D01*
X110435Y8950D01*
X110366Y8950D01*
X110365Y8882D01*
X110297Y8882D01*
X110296Y8814D01*
X110228Y8814D01*
X110229Y8883D01*
X110160Y8884D01*
X110159Y8747D01*
X110090Y8747D01*
X110022Y8748D01*
X110021Y8679D01*
X109953Y8680D01*
X109952Y8611D01*
X109884Y8612D01*
X109883Y8543D01*
X109815Y8544D01*
X109814Y8476D01*
X109746Y8476D01*
X109745Y8408D01*
X109677Y8408D01*
X109677Y8477D01*
X109609Y8477D01*
X109608Y8409D01*
X109540Y8409D01*
X109539Y8341D01*
X109470Y8342D01*
X109470Y8273D01*
X109401Y8274D01*
X109402Y8342D01*
X109334Y8343D01*
X109333Y8274D01*
X109265Y8275D01*
X109264Y8206D01*
X109195Y8207D01*
X109195Y8139D01*
X109126Y8139D01*
X109058Y8140D01*
X108989Y8140D01*
X108989Y8072D01*
X108920Y8072D01*
X108852Y8073D01*
X108783Y8074D01*
X108783Y8005D01*
X108714Y8006D01*
X108646Y8006D01*
X108577Y8007D01*
X108577Y7938D01*
X108508Y7939D01*
X108440Y7940D01*
X108371Y7940D01*
X108371Y7872D01*
X108302Y7872D01*
X108234Y7873D01*
X108165Y7874D01*
X108165Y7805D01*
X108096Y7806D01*
X108097Y7874D01*
X108028Y7875D01*
X108028Y7806D01*
X107959Y7807D01*
X107891Y7807D01*
X107822Y7808D01*
X107754Y7809D01*
X107685Y7809D01*
X107685Y7741D01*
X107616Y7741D01*
X107617Y7810D01*
X107548Y7811D01*
X107548Y7742D01*
X107479Y7743D01*
X107480Y7811D01*
X107411Y7812D01*
X107411Y7743D01*
X107342Y7744D01*
X107274Y7744D01*
X107205Y7745D01*
X107206Y7813D01*
X107137Y7814D01*
X107137Y7746D01*
X107068Y7746D01*
X107000Y7747D01*
X106931Y7747D01*
X106932Y7816D01*
X106863Y7817D01*
X106863Y7748D01*
X106794Y7749D01*
X106795Y7817D01*
X106727Y7818D01*
X106726Y7749D01*
X106658Y7750D01*
X106658Y7818D01*
X106590Y7819D01*
X106589Y7750D01*
X106520Y7751D01*
X106521Y7819D01*
X106453Y7820D01*
X106384Y7821D01*
X106316Y7821D01*
X106247Y7822D01*
X106179Y7823D01*
X106179Y7891D01*
X106111Y7891D01*
X106042Y7892D01*
X105974Y7893D01*
X105905Y7893D01*
X105837Y7894D01*
X105838Y7962D01*
X105769Y7963D01*
X105768Y7895D01*
X105700Y7895D01*
X105701Y7964D01*
X105632Y7964D01*
X105564Y7965D01*
X105495Y7965D01*
X105496Y8034D01*
X105427Y8034D01*
X105359Y8035D01*
X105290Y8036D01*
X105291Y8104D01*
X105222Y8105D01*
X105222Y8036D01*
X105153Y8037D01*
X105154Y8105D01*
X105085Y8106D01*
X105017Y8106D01*
X105018Y8175D01*
X104949Y8176D01*
X104881Y8176D01*
X104881Y8245D01*
X104813Y8245D01*
X104812Y8177D01*
X104744Y8177D01*
X104744Y8246D01*
X104676Y8246D01*
X104607Y8247D01*
X104608Y8315D01*
X104539Y8316D01*
X104471Y8317D01*
X104472Y8385D01*
X104403Y8386D01*
X104402Y8317D01*
X104334Y8318D01*
X104334Y8386D01*
X104266Y8387D01*
X104267Y8456D01*
X104198Y8456D01*
X104199Y8525D01*
X104130Y8525D01*
X104130Y8457D01*
X104061Y8457D01*
X104062Y8526D01*
X103993Y8526D01*
X103994Y8595D01*
X103925Y8595D01*
X103926Y8664D01*
X103858Y8664D01*
X103857Y8596D01*
X103788Y8597D01*
X103789Y8665D01*
X103721Y8666D01*
X103721Y8734D01*
X103653Y8735D01*
X103653Y8803D01*
X103585Y8804D01*
X103584Y8735D01*
X103516Y8736D01*
X103516Y8804D01*
X103448Y8805D01*
X103448Y8874D01*
X103380Y8874D01*
X103381Y8943D01*
X103312Y8943D01*
X103244Y8944D01*
X103244Y9012D01*
X103176Y9013D01*
X103107Y9014D01*
X103108Y9082D01*
X103039Y9083D01*
X103040Y9151D01*
X102971Y9152D01*
X102972Y9220D01*
X102904Y9221D01*
X102904Y9289D01*
X102836Y9290D01*
X102836Y9358D01*
X102768Y9359D01*
X102767Y9290D01*
X102699Y9291D01*
X102700Y9428D01*
X102631Y9428D01*
X102563Y9429D01*
X102564Y9498D01*
X102495Y9498D01*
X102496Y9567D01*
X102427Y9567D01*
X102428Y9636D01*
X102359Y9636D01*
X102360Y9705D01*
X102292Y9705D01*
X102292Y9774D01*
X102224Y9775D01*
X102224Y9843D01*
X102156Y9844D01*
X102156Y9912D01*
X102088Y9913D01*
X102088Y9981D01*
X102020Y9982D01*
X102021Y10050D01*
X101952Y10051D01*
X101953Y10119D01*
X101884Y10120D01*
X101885Y10188D01*
X101816Y10189D01*
X101817Y10257D01*
X101749Y10258D01*
X101750Y10395D01*
X101681Y10396D01*
X101613Y10396D01*
X101614Y10602D01*
X101546Y10602D01*
X101547Y10671D01*
X101478Y10671D01*
X101479Y10740D01*
X101410Y10740D01*
X101411Y10809D01*
X101342Y10809D01*
X101344Y11015D01*
X101276Y11016D01*
X101276Y11084D01*
X101208Y11085D01*
X101209Y11221D01*
X101140Y11222D01*
X101142Y11359D01*
X101073Y11360D01*
X101074Y11428D01*
X101005Y11429D01*
X101006Y11497D01*
X101074Y11497D01*
X101075Y11565D01*
X101007Y11566D01*
X101007Y11634D01*
X100939Y11635D01*
X100940Y11840D01*
X100872Y11841D01*
X100873Y11909D01*
X100804Y11910D01*
X100805Y12047D01*
X100874Y12046D01*
D02*
G37*
G36*
X110155Y8336D02*
X110155Y8267D01*
X110223Y8266D01*
X110223Y8198D01*
X110154Y8199D01*
X110086Y8199D01*
X110087Y8336D01*
X110155Y8336D01*
D02*
G37*
D10*
X223213Y199591D02*
G03*
X224932Y203740I-4149J4149D01*
G01*
Y224493D02*
G03*
X222465Y230449I-8423J0D01*
G01*
X139788Y132898D02*
G03*
X142717Y139969I-7071J7071D01*
G01*
X145645Y149583D02*
G03*
X142717Y142511I7071J-7071D01*
G01*
X179158Y183095D02*
G03*
X182087Y190166I-7071J7071D01*
G01*
X176205Y185063D02*
G03*
X179134Y192134I-7071J7071D01*
G01*
X196605Y213583D02*
G03*
X198973Y214564I0J3350D01*
G01*
X193851Y213583D02*
G03*
X190701Y212278I0J-4454D01*
G01*
D02*
G03*
X187992Y205738I6540J-6540D01*
G01*
X178127Y218716D02*
G03*
X176119Y213755I5126J-4961D01*
G01*
X192429Y218799D02*
G03*
X185359Y215870I0J-10000D01*
G01*
X185015Y215527D02*
G03*
X182087Y208456I7071J-7071D01*
G01*
X182063Y217653D02*
G03*
X179134Y210582I7071J-7071D01*
G01*
X191929Y215551D02*
G03*
X197104Y217695I0J7319D01*
G01*
X191929Y215551D02*
G03*
X188643Y214190I0J-4648D01*
G01*
X187968Y213515D02*
G03*
X185039Y206444I7071J-7071D01*
G01*
X178209Y218799D02*
G03*
X178127Y218716I5044J-5044D01*
G01*
X232307Y155536D02*
G03*
X235236Y162607I-7071J7071D01*
G01*
X222441Y216330D02*
G03*
X219512Y223401I-10000J0D01*
G01*
X222441Y198819D02*
X223213Y199591D01*
X224932Y224493D02*
Y224493D01*
Y203740D02*
Y224493D01*
X139764Y132874D02*
X139788Y132898D01*
X142717Y139969D02*
Y142511D01*
X145645Y149583D02*
X179158Y183095D01*
X182087Y190166D02*
Y208456D01*
X139764Y148622D02*
X176205Y185063D01*
X179134Y192134D02*
Y210582D01*
X193851Y213583D02*
X196605D01*
X187992Y197823D02*
Y205738D01*
X173209Y191917D02*
Y218799D01*
X176119Y194870D02*
Y213755D01*
X192429Y218799D02*
X193209D01*
X185015Y215527D02*
X185359Y215870D01*
X182063Y217653D02*
X183209Y218799D01*
X197104Y217695D02*
X198209Y218799D01*
X187968Y213515D02*
X188643Y214190D01*
X185039Y200787D02*
Y206444D01*
X198973Y214564D02*
X203209Y218799D01*
X173209D02*
X173228D01*
X190945Y140748D02*
X190945Y140748D01*
X205709D01*
X213583Y141732D02*
Y150591D01*
X218504Y141732D02*
Y147638D01*
X227165Y150394D02*
X232307Y155536D01*
X204882Y248031D02*
X222465Y230449D01*
X194882Y248031D02*
X219512Y223401D01*
X222441Y203740D02*
Y216330D01*
X91339Y255906D02*
X105118D01*
X98622Y235236D02*
X108071D01*
X235236Y162607D02*
Y166339D01*
X179331Y66929D02*
Y66929D01*
X167323Y66929D02*
X179331D01*
Y80709D02*
Y80709D01*
X167323Y80709D02*
X179331D01*
D12*
X225851Y187465D02*
G03*
X230610Y198955I-11490J11490D01*
G01*
X183047Y144661D02*
G03*
X180118Y137590I7071J-7071D01*
G01*
X164370Y41339D02*
X179134D01*
X230610Y198955D02*
Y247410D01*
X183047Y144661D02*
X225851Y187465D01*
X180118Y133031D02*
Y137590D01*
X230610Y247410D02*
X232283D01*
X228937D02*
X230610D01*
X252362Y67323D02*
Y81890D01*
D14*
X239173Y70866D02*
Y78740D01*
D15*
X82677Y176102D02*
G03*
X77677Y181102I-5000J0D01*
G01*
Y82677D02*
G03*
X82677Y87677I0J5000D01*
G01*
X147638Y14764D02*
G03*
X122047Y14764I-12795J0D01*
G01*
X122047Y250984D02*
G03*
X147638Y250984I12795J0D01*
G01*
X-0Y6890D02*
Y82677D01*
X-0Y181102D02*
Y258858D01*
X0Y6890D02*
X6890Y0D01*
X0Y258858D02*
X6890Y265748D01*
X-0Y82677D02*
X77677Y82677D01*
X-0Y181102D02*
X77677Y181102D01*
X6890Y-0D02*
X122047D01*
X6890Y265748D02*
X122047D01*
X82677Y87677D02*
Y176102D01*
X122047Y-0D02*
Y14764D01*
X122047Y250984D02*
Y265748D01*
X147638Y-0D02*
Y14764D01*
X147638Y250984D02*
Y265748D01*
X147638Y-0D02*
X262795Y-0D01*
X147638Y265748D02*
X262795Y265748D01*
X262795Y265748D02*
X269685Y258858D01*
X262795Y0D02*
X269685Y6890D01*
X269685Y258858D01*
X269685D02*
X269685D01*
D18*
X71181Y55118D02*
D03*
X51181D02*
D03*
D85*
X234409Y110076D02*
D03*
X221909D02*
D03*
X234409Y130079D02*
D03*
X221909D02*
D03*
D86*
X214409Y116077D02*
D03*
Y124077D02*
D03*
X234409Y120078D02*
D03*
D87*
X251567Y63425D02*
D03*
Y86181D02*
D03*
D88*
X249478Y91811D02*
D03*
Y57795D02*
D03*
D89*
X265935Y91811D02*
D03*
Y57795D02*
D03*
D90*
X104331Y178150D02*
D03*
Y136811D02*
D03*
Y150591D02*
D03*
Y109252D02*
D03*
D91*
Y164370D02*
D03*
Y123031D02*
D03*
Y136811D02*
D03*
Y123031D02*
D03*
X40354Y192913D02*
D03*
X54134D02*
D03*
X104331Y95473D02*
D03*
Y81693D02*
D03*
X50039Y30512D02*
D03*
X60039D02*
D03*
X70039D02*
D03*
D93*
X26575Y192913D02*
D03*
D94*
X119764Y228031D02*
D03*
D95*
X129764D02*
D03*
X119764Y218032D02*
D03*
X129764D02*
D03*
X119764Y208032D02*
D03*
X129764D02*
D03*
X119764Y198031D02*
D03*
X129764Y198031D02*
D03*
X204882Y248031D02*
D03*
X194882Y258032D02*
D03*
Y248031D02*
D03*
X184882D02*
D03*
X184882Y258032D02*
D03*
X29528Y220472D02*
D03*
X223740Y36220D02*
D03*
X213740D02*
D03*
X203740D02*
D03*
X193740D02*
D03*
X183740D02*
D03*
D96*
X51181Y55118D02*
D03*
X31181D02*
D03*
D03*
D97*
X204882Y258032D02*
D03*
X233740Y36220D02*
D03*
X39528Y220472D02*
D03*
D98*
X180118Y113031D02*
D03*
D99*
Y133031D02*
D03*
Y123031D02*
D03*
D100*
X252953Y250984D02*
D03*
X252953Y14764D02*
D03*
D101*
X222441Y198819D02*
D03*
X187980Y197823D02*
D03*
X176108Y194870D02*
D03*
X173197Y191917D02*
D03*
X185028Y200776D02*
D03*
X139764Y132874D02*
D03*
X139764Y148622D02*
D03*
X179134Y41339D02*
D03*
X164370D02*
D03*
X205709Y140748D02*
D03*
X190945Y140748D02*
D03*
X224410Y55335D02*
D03*
X213583Y150591D02*
D03*
Y141732D02*
D03*
X218504Y147638D02*
D03*
Y141732D02*
D03*
X228257Y104546D02*
D03*
X222441Y203740D02*
D03*
X137795Y172244D02*
D03*
X137795Y156496D02*
D03*
X137795Y140748D02*
D03*
X137795Y125000D02*
D03*
X137795Y109252D02*
D03*
Y93504D02*
D03*
X137795Y62008D02*
D03*
Y77756D02*
D03*
X203209Y218799D02*
D03*
X198209D02*
D03*
X193209D02*
D03*
X183209D02*
D03*
X178209D02*
D03*
X173209D02*
D03*
X105118Y255906D02*
D03*
X91339D02*
D03*
X239173Y78740D02*
D03*
Y70866D02*
D03*
X73228Y239567D02*
D03*
Y234449D02*
D03*
X202658Y188583D02*
D03*
X213878Y200295D02*
D03*
X168209Y218799D02*
D03*
X165354Y11811D02*
D03*
X226378Y11811D02*
D03*
X210630Y11811D02*
D03*
X181102Y11811D02*
D03*
X235827Y57677D02*
D03*
X232283D02*
D03*
X146653Y41930D02*
D03*
X119094Y45867D02*
D03*
X184055Y58071D02*
D03*
X180118D02*
D03*
X239763Y33464D02*
D03*
X188976Y121654D02*
D03*
X38760Y239567D02*
D03*
X71259Y229330D02*
D03*
X56693Y245275D02*
D03*
X238221Y151575D02*
D03*
X238221Y230315D02*
D03*
X239173Y247047D02*
D03*
X236221D02*
D03*
X212599Y258267D02*
D03*
X98622Y235236D02*
D03*
X108071D02*
D03*
X227165Y150394D02*
D03*
X232283Y247410D02*
D03*
X228937D02*
D03*
X252362Y67323D02*
D03*
Y81890D02*
D03*
X235236Y166339D02*
D03*
X167323Y80709D02*
D03*
Y66929D02*
D03*
X179331Y80709D02*
D03*
Y66929D02*
D03*
M02*
