M48
;Layer_Color=9474304
;FILE_FORMAT=2:5
INCH,LZ
;TYPE=PLATED
T01F00S00C0.01181
T03F00S00C0.03543
T04F00S00C0.03937
T05F00S00C0.04724
T06F00S00C0.05118
;TYPE=NON_PLATED
T07F00S00C0.02559
T08F00S00C0.03902
T09F00S00C0.09350
T10F00S00C0.12598
T11F00S00C0.17323
%
T01
X0181102Y0011811
X021063Y0011811
X0226378Y0011811
X0239763Y0033464
X0235827Y0057677
X0232283
X022441Y0055335
X0184055Y0058071
X0180118
X0179134Y0041339
X016437
X0146653Y004193
X0119094Y0045867
X0165354Y0011811
X0167323Y0066929
Y0080709
X0137795Y0077756
Y0062008
X0137795Y0093504
Y0109252
X0137795Y0125
X0139764Y0132874
X0137795Y0140748
X0139764Y0148622
X0137795Y0156496
X0137795Y0172244
X0173197Y0191917
X0176108Y019487
X0185028Y0200776
X018798Y0197823
X0202658Y0188583
X0213878Y0200295
X0222441Y0198819
Y020374
X0235236Y0166339
X0238221Y0151575
X0227165Y0150394
X0218504Y0147638
Y0141732
X0213583
X0205709Y0140748
X0190945Y0140748
X0188976Y0121654
X0179331Y0080709
Y0066929
X0239173Y0070866
Y007874
X0252362Y008189
Y0067323
X0228257Y0104546
X0213583Y0150591
X0203209Y0218799
X0198209
X0193209
X0183209
X0178209
X0238221Y0230315
X0239173Y0247047
X0236221
X0232283Y024741
X0228937
X0212599Y0258267
X0173209Y0218799
X0168209
X0108071Y0235236
X0098622
X0073228Y0234449
Y0239567
X0071259Y022933
X0056693Y0245275
X003876Y0239567
X0091339Y0255906
X0105118
T03
X018374Y003622
X019374
X020374
X021374
X022374
X023374
X0129764Y0198031
Y0208032
X0119764
Y0198031
X0180118Y0133031
Y0123031
Y0113031
X0184882Y0248031
X0194882
X0204882
Y0258032
X0194882
X0184882
X0129764Y0228031
X0119764
Y0218032
X0129764
X0039528Y0220472
X0029528
T04
X0050039Y0030512
X0060039
X0070039
T05
X0104331Y0081693
Y0095473
Y0109252
Y0123031
Y0136811
Y0150591
Y016437
Y017815
X0054134Y0192913
X0040354
X0026575
T06
X0031181Y0055118
X0051181
X0071181
T07
X0251567Y0063425
Y0086181
T08
X0214409Y0116077
Y0124077
X0234409Y0120078
T09
X0221909Y0110076
X0234409
Y0130079
X0221909
T10
X0252953Y0014764
X0252953Y0250984
T11
X0016732Y0014764
X0016732Y0250984
M30
