G04*
G04 #@! TF.GenerationSoftware,Altium Limited,Altium Designer,22.5.1 (42)*
G04*
G04 Layer_Color=128*
%FSLAX25Y25*%
%MOIN*%
G70*
G04*
G04 #@! TF.SameCoordinates,ACCA8245-98DC-43B2-872A-CA0FD1B1C5C3*
G04*
G04*
G04 #@! TF.FilePolarity,Positive*
G04*
G01*
G75*
%ADD10C,0.00394*%
%ADD13C,0.01575*%
%ADD14C,0.00984*%
%ADD15C,0.01000*%
%ADD16C,0.00600*%
%ADD17C,0.00787*%
%ADD18C,0.00200*%
G36*
X761965Y-141778D02*
X763683D01*
Y-142065D01*
X764542D01*
Y-142351D01*
X765401D01*
Y-142637D01*
X766260D01*
Y-142924D01*
X766832D01*
Y-143210D01*
X767119D01*
Y-143496D01*
X767691D01*
Y-143783D01*
X767978D01*
Y-144069D01*
X768550D01*
Y-144355D01*
X768837D01*
Y-144641D01*
X769123D01*
Y-144928D01*
X769409D01*
Y-145214D01*
X769696D01*
Y-145501D01*
X769982D01*
Y-145787D01*
X770268D01*
Y-146073D01*
Y-146359D01*
X770554D01*
Y-146646D01*
X770841D01*
Y-146932D01*
Y-147218D01*
X771127D01*
Y-147505D01*
X771414D01*
Y-147791D01*
Y-148077D01*
X771700D01*
Y-148364D01*
Y-148650D01*
Y-148936D01*
X771986D01*
Y-149223D01*
Y-149509D01*
Y-149795D01*
X772272D01*
Y-150082D01*
Y-150368D01*
Y-150654D01*
Y-150940D01*
X772559D01*
Y-151227D01*
Y-151513D01*
Y-151799D01*
Y-152086D01*
Y-152372D01*
X772845D01*
Y-152658D01*
Y-152945D01*
Y-153231D01*
Y-153517D01*
Y-153804D01*
Y-154090D01*
Y-154376D01*
Y-154663D01*
Y-154949D01*
Y-155235D01*
Y-155521D01*
Y-155808D01*
Y-156094D01*
Y-156380D01*
Y-156667D01*
Y-156953D01*
Y-157239D01*
Y-157526D01*
Y-157812D01*
Y-158098D01*
X772559D01*
Y-158385D01*
Y-158671D01*
Y-158957D01*
Y-159244D01*
Y-159530D01*
Y-159816D01*
Y-160102D01*
X772272D01*
Y-160389D01*
Y-160675D01*
Y-160961D01*
Y-161248D01*
Y-161534D01*
X771986D01*
Y-161820D01*
Y-162107D01*
Y-162393D01*
Y-162679D01*
Y-162966D01*
X771700D01*
Y-163252D01*
Y-163538D01*
Y-163824D01*
X771414D01*
Y-164111D01*
Y-164397D01*
Y-164683D01*
Y-164970D01*
X771127D01*
Y-165256D01*
Y-165542D01*
Y-165829D01*
X770841D01*
Y-166115D01*
Y-166401D01*
X770554D01*
Y-166688D01*
Y-166974D01*
Y-167260D01*
X770268D01*
Y-167547D01*
Y-167833D01*
X769982D01*
Y-168119D01*
Y-168405D01*
X769696D01*
Y-168692D01*
Y-168978D01*
X769409D01*
Y-169264D01*
X769123D01*
Y-169551D01*
Y-169837D01*
X768837D01*
Y-170123D01*
X768550D01*
Y-170410D01*
X768264D01*
Y-170696D01*
Y-170982D01*
X767978D01*
Y-171269D01*
X767691D01*
Y-171555D01*
X767405D01*
Y-171841D01*
X767119D01*
Y-172127D01*
X766832D01*
Y-172414D01*
X766260D01*
Y-172700D01*
X765974D01*
Y-172986D01*
X765401D01*
Y-173273D01*
X765115D01*
Y-173559D01*
X764542D01*
Y-173845D01*
X763683D01*
Y-174132D01*
X762824D01*
Y-174418D01*
X761965D01*
Y-174704D01*
X760247D01*
Y-174991D01*
X755094D01*
Y-174704D01*
X752517D01*
Y-174418D01*
X750513D01*
Y-174132D01*
X749081D01*
Y-173845D01*
X747649D01*
Y-173559D01*
X746218D01*
Y-173845D01*
Y-174132D01*
Y-174418D01*
Y-174704D01*
Y-174991D01*
Y-175277D01*
Y-175563D01*
X745932D01*
Y-175850D01*
Y-176136D01*
Y-176422D01*
Y-176709D01*
Y-176995D01*
Y-177281D01*
X745645D01*
Y-177568D01*
Y-177854D01*
Y-178140D01*
Y-178426D01*
Y-178713D01*
Y-178999D01*
X745359D01*
Y-179285D01*
Y-179572D01*
Y-179858D01*
Y-180144D01*
Y-180431D01*
Y-180717D01*
Y-181003D01*
X745073D01*
Y-181290D01*
Y-181576D01*
Y-181862D01*
Y-182149D01*
Y-182435D01*
Y-182721D01*
X744786D01*
Y-183007D01*
Y-183294D01*
Y-183580D01*
Y-183866D01*
Y-184153D01*
Y-184439D01*
X744500D01*
Y-184725D01*
Y-185012D01*
Y-185298D01*
Y-185584D01*
Y-185871D01*
Y-186157D01*
Y-186443D01*
X744214D01*
Y-186730D01*
Y-187016D01*
Y-187302D01*
Y-187588D01*
Y-187875D01*
Y-188161D01*
X743927D01*
Y-188447D01*
Y-188734D01*
Y-189020D01*
Y-189306D01*
Y-189593D01*
Y-189879D01*
X743641D01*
Y-190165D01*
Y-190452D01*
Y-190738D01*
Y-191024D01*
Y-191311D01*
Y-191597D01*
Y-191883D01*
X730184D01*
Y-191597D01*
X730471D01*
Y-191311D01*
Y-191024D01*
Y-190738D01*
Y-190452D01*
Y-190165D01*
X730757D01*
Y-189879D01*
Y-189593D01*
Y-189306D01*
Y-189020D01*
Y-188734D01*
Y-188447D01*
Y-188161D01*
X731043D01*
Y-187875D01*
Y-187588D01*
Y-187302D01*
Y-187016D01*
Y-186730D01*
Y-186443D01*
X731330D01*
Y-186157D01*
Y-185871D01*
Y-185584D01*
Y-185298D01*
Y-185012D01*
Y-184725D01*
X731616D01*
Y-184439D01*
Y-184153D01*
Y-183866D01*
Y-183580D01*
Y-183294D01*
Y-183007D01*
Y-182721D01*
X731902D01*
Y-182435D01*
Y-182149D01*
Y-181862D01*
Y-181576D01*
Y-181290D01*
Y-181003D01*
X732189D01*
Y-180717D01*
Y-180431D01*
Y-180144D01*
Y-179858D01*
Y-179572D01*
Y-179285D01*
X732475D01*
Y-178999D01*
Y-178713D01*
Y-178426D01*
Y-178140D01*
Y-177854D01*
Y-177568D01*
X732761D01*
Y-177281D01*
Y-176995D01*
Y-176709D01*
Y-176422D01*
Y-176136D01*
Y-175850D01*
Y-175563D01*
X733047D01*
Y-175277D01*
Y-174991D01*
Y-174704D01*
Y-174418D01*
Y-174132D01*
Y-173845D01*
X733334D01*
Y-173559D01*
Y-173273D01*
Y-172986D01*
Y-172700D01*
Y-172414D01*
Y-172127D01*
X733620D01*
Y-171841D01*
Y-171555D01*
Y-171269D01*
Y-170982D01*
Y-170696D01*
Y-170410D01*
X733907D01*
Y-170123D01*
Y-169837D01*
Y-169551D01*
Y-169264D01*
Y-168978D01*
Y-168692D01*
Y-168405D01*
X734193D01*
Y-168119D01*
Y-167833D01*
Y-167547D01*
Y-167260D01*
Y-166974D01*
Y-166688D01*
X734479D01*
Y-166401D01*
Y-166115D01*
Y-165829D01*
Y-165542D01*
Y-165256D01*
Y-164970D01*
X734765D01*
Y-164683D01*
Y-164397D01*
Y-164111D01*
Y-163824D01*
Y-163538D01*
Y-163252D01*
Y-162966D01*
X735052D01*
Y-162679D01*
Y-162393D01*
Y-162107D01*
Y-161820D01*
Y-161534D01*
Y-161248D01*
X735338D01*
Y-160961D01*
Y-160675D01*
Y-160389D01*
Y-160102D01*
Y-159816D01*
Y-159530D01*
X735624D01*
Y-159244D01*
Y-158957D01*
Y-158671D01*
Y-158385D01*
Y-158098D01*
Y-157812D01*
X735911D01*
Y-157526D01*
Y-157239D01*
Y-156953D01*
Y-156667D01*
Y-156380D01*
Y-156094D01*
Y-155808D01*
X736197D01*
Y-155521D01*
Y-155235D01*
Y-154949D01*
Y-154663D01*
Y-154376D01*
Y-154090D01*
X736483D01*
Y-153804D01*
Y-153517D01*
Y-153231D01*
Y-152945D01*
Y-152658D01*
Y-152372D01*
X736770D01*
Y-152086D01*
Y-151799D01*
Y-151513D01*
Y-151227D01*
Y-150940D01*
Y-150654D01*
Y-150368D01*
X737056D01*
Y-150082D01*
Y-149795D01*
Y-149509D01*
Y-149223D01*
Y-148936D01*
Y-148650D01*
X737342D01*
Y-148364D01*
Y-148077D01*
Y-147791D01*
Y-147505D01*
Y-147218D01*
Y-146932D01*
X737629D01*
Y-146646D01*
Y-146359D01*
Y-146073D01*
Y-145787D01*
Y-145501D01*
Y-145214D01*
Y-144928D01*
X737915D01*
Y-144641D01*
Y-144355D01*
Y-144069D01*
Y-143783D01*
Y-143496D01*
Y-143210D01*
X738201D01*
Y-142924D01*
Y-142637D01*
Y-142351D01*
Y-142065D01*
Y-141778D01*
Y-141492D01*
X761965D01*
Y-141778D01*
D02*
G37*
G36*
X793173Y-138343D02*
Y-138629D01*
X792887D01*
Y-138915D01*
Y-139202D01*
Y-139488D01*
Y-139774D01*
Y-140060D01*
Y-140347D01*
X792601D01*
Y-140633D01*
Y-140919D01*
Y-141206D01*
Y-141492D01*
Y-141778D01*
Y-142065D01*
X792314D01*
Y-142351D01*
Y-142637D01*
Y-142924D01*
Y-143210D01*
Y-143496D01*
Y-143783D01*
Y-144069D01*
X792028D01*
Y-144355D01*
Y-144641D01*
Y-144928D01*
Y-145214D01*
Y-145501D01*
Y-145787D01*
X791742D01*
Y-146073D01*
Y-146359D01*
Y-146646D01*
Y-146932D01*
Y-147218D01*
Y-147505D01*
X791455D01*
Y-147791D01*
Y-148077D01*
Y-148364D01*
Y-148650D01*
Y-148936D01*
Y-149223D01*
Y-149509D01*
X791169D01*
Y-149795D01*
Y-150082D01*
Y-150368D01*
Y-150654D01*
Y-150940D01*
Y-151227D01*
X790883D01*
Y-151513D01*
Y-151799D01*
Y-152086D01*
Y-152372D01*
Y-152658D01*
Y-152945D01*
X790596D01*
Y-153231D01*
Y-153517D01*
Y-153804D01*
Y-154090D01*
Y-154376D01*
Y-154663D01*
X790310D01*
Y-154949D01*
Y-155235D01*
Y-155521D01*
Y-155808D01*
Y-156094D01*
Y-156380D01*
Y-156667D01*
X790024D01*
Y-156953D01*
Y-157239D01*
Y-157526D01*
Y-157812D01*
Y-158098D01*
Y-158385D01*
X789738D01*
Y-158671D01*
Y-158957D01*
X790310D01*
Y-158671D01*
X790596D01*
Y-158385D01*
X790883D01*
Y-158098D01*
X791455D01*
Y-157812D01*
X791742D01*
Y-157526D01*
X792028D01*
Y-157239D01*
X792601D01*
Y-156953D01*
X793173D01*
Y-156667D01*
X793460D01*
Y-156380D01*
X794032D01*
Y-156094D01*
X794891D01*
Y-155808D01*
X795464D01*
Y-155521D01*
X796323D01*
Y-155235D01*
X797754D01*
Y-154949D01*
X804053D01*
Y-155235D01*
X805198D01*
Y-155521D01*
X806057D01*
Y-155808D01*
X806630D01*
Y-156094D01*
X806916D01*
Y-156380D01*
X807489D01*
Y-156667D01*
X807775D01*
Y-156953D01*
X808062D01*
Y-157239D01*
X808348D01*
Y-157526D01*
X808634D01*
Y-157812D01*
Y-158098D01*
X808920D01*
Y-158385D01*
Y-158671D01*
X809207D01*
Y-158957D01*
Y-159244D01*
Y-159530D01*
X809493D01*
Y-159816D01*
Y-160102D01*
Y-160389D01*
Y-160675D01*
X809779D01*
Y-160961D01*
Y-161248D01*
Y-161534D01*
Y-161820D01*
Y-162107D01*
Y-162393D01*
Y-162679D01*
Y-162966D01*
Y-163252D01*
Y-163538D01*
Y-163824D01*
Y-164111D01*
Y-164397D01*
Y-164683D01*
Y-164970D01*
Y-165256D01*
Y-165542D01*
Y-165829D01*
X809493D01*
Y-166115D01*
Y-166401D01*
Y-166688D01*
Y-166974D01*
Y-167260D01*
Y-167547D01*
Y-167833D01*
X809207D01*
Y-168119D01*
Y-168405D01*
Y-168692D01*
Y-168978D01*
Y-169264D01*
Y-169551D01*
Y-169837D01*
X808920D01*
Y-170123D01*
Y-170410D01*
Y-170696D01*
Y-170982D01*
Y-171269D01*
Y-171555D01*
X808634D01*
Y-171841D01*
Y-172127D01*
Y-172414D01*
Y-172700D01*
Y-172986D01*
Y-173273D01*
X808348D01*
Y-173559D01*
Y-173845D01*
Y-174132D01*
Y-174418D01*
Y-174704D01*
Y-174991D01*
X808062D01*
Y-175277D01*
Y-175563D01*
Y-175850D01*
Y-176136D01*
Y-176422D01*
Y-176709D01*
Y-176995D01*
X807775D01*
Y-177281D01*
Y-177568D01*
Y-177854D01*
Y-178140D01*
Y-178426D01*
Y-178713D01*
X807489D01*
Y-178999D01*
Y-179285D01*
Y-179572D01*
Y-179858D01*
Y-180144D01*
Y-180431D01*
X807203D01*
Y-180717D01*
Y-181003D01*
Y-181290D01*
Y-181576D01*
Y-181862D01*
Y-182149D01*
Y-182435D01*
X806916D01*
Y-182721D01*
Y-183007D01*
Y-183294D01*
Y-183580D01*
Y-183866D01*
Y-184153D01*
X806630D01*
Y-184439D01*
Y-184725D01*
Y-185012D01*
Y-185298D01*
Y-185584D01*
Y-185871D01*
X806344D01*
Y-186157D01*
Y-186443D01*
Y-186730D01*
Y-187016D01*
Y-187302D01*
Y-187588D01*
X806057D01*
Y-187875D01*
Y-188161D01*
Y-188447D01*
Y-188734D01*
Y-189020D01*
Y-189306D01*
Y-189593D01*
X805771D01*
Y-189879D01*
Y-190165D01*
Y-190452D01*
Y-190738D01*
Y-191024D01*
Y-191311D01*
X805485D01*
Y-191597D01*
Y-191883D01*
X792314D01*
Y-191597D01*
Y-191311D01*
X792601D01*
Y-191024D01*
Y-190738D01*
Y-190452D01*
Y-190165D01*
Y-189879D01*
Y-189593D01*
X792887D01*
Y-189306D01*
Y-189020D01*
Y-188734D01*
Y-188447D01*
Y-188161D01*
Y-187875D01*
Y-187588D01*
X793173D01*
Y-187302D01*
Y-187016D01*
Y-186730D01*
Y-186443D01*
Y-186157D01*
Y-185871D01*
X793460D01*
Y-185584D01*
Y-185298D01*
Y-185012D01*
Y-184725D01*
Y-184439D01*
Y-184153D01*
X793746D01*
Y-183866D01*
Y-183580D01*
Y-183294D01*
Y-183007D01*
Y-182721D01*
Y-182435D01*
Y-182149D01*
X794032D01*
Y-181862D01*
Y-181576D01*
Y-181290D01*
Y-181003D01*
Y-180717D01*
Y-180431D01*
X794318D01*
Y-180144D01*
Y-179858D01*
Y-179572D01*
Y-179285D01*
Y-178999D01*
Y-178713D01*
Y-178426D01*
X794605D01*
Y-178140D01*
Y-177854D01*
Y-177568D01*
Y-177281D01*
Y-176995D01*
Y-176709D01*
X794891D01*
Y-176422D01*
Y-176136D01*
Y-175850D01*
Y-175563D01*
Y-175277D01*
Y-174991D01*
X795177D01*
Y-174704D01*
Y-174418D01*
Y-174132D01*
Y-173845D01*
Y-173559D01*
Y-173273D01*
X795464D01*
Y-172986D01*
Y-172700D01*
Y-172414D01*
Y-172127D01*
Y-171841D01*
Y-171555D01*
Y-171269D01*
X795750D01*
Y-170982D01*
Y-170696D01*
Y-170410D01*
Y-170123D01*
Y-169837D01*
Y-169551D01*
X796036D01*
Y-169264D01*
Y-168978D01*
Y-168692D01*
Y-168405D01*
Y-168119D01*
Y-167833D01*
Y-167547D01*
X796323D01*
Y-167260D01*
Y-166974D01*
Y-166688D01*
Y-166401D01*
Y-166115D01*
Y-165829D01*
X796036D01*
Y-165542D01*
Y-165256D01*
X795750D01*
Y-164970D01*
X795464D01*
Y-164683D01*
X794891D01*
Y-164397D01*
X793173D01*
Y-164683D01*
X791742D01*
Y-164970D01*
X790883D01*
Y-165256D01*
X790310D01*
Y-165542D01*
X790024D01*
Y-165829D01*
X789451D01*
Y-166115D01*
X789165D01*
Y-166401D01*
X788878D01*
Y-166688D01*
Y-166974D01*
X788592D01*
Y-167260D01*
Y-167547D01*
Y-167833D01*
X788306D01*
Y-168119D01*
Y-168405D01*
Y-168692D01*
Y-168978D01*
Y-169264D01*
Y-169551D01*
X788020D01*
Y-169837D01*
Y-170123D01*
Y-170410D01*
Y-170696D01*
Y-170982D01*
Y-171269D01*
Y-171555D01*
X787733D01*
Y-171841D01*
Y-172127D01*
Y-172414D01*
Y-172700D01*
Y-172986D01*
Y-173273D01*
X787447D01*
Y-173559D01*
Y-173845D01*
Y-174132D01*
Y-174418D01*
Y-174704D01*
Y-174991D01*
X787161D01*
Y-175277D01*
Y-175563D01*
Y-175850D01*
Y-176136D01*
Y-176422D01*
Y-176709D01*
X786874D01*
Y-176995D01*
Y-177281D01*
Y-177568D01*
Y-177854D01*
Y-178140D01*
Y-178426D01*
Y-178713D01*
X786588D01*
Y-178999D01*
Y-179285D01*
Y-179572D01*
Y-179858D01*
Y-180144D01*
Y-180431D01*
X786302D01*
Y-180717D01*
Y-181003D01*
Y-181290D01*
Y-181576D01*
Y-181862D01*
Y-182149D01*
X786015D01*
Y-182435D01*
Y-182721D01*
Y-183007D01*
Y-183294D01*
Y-183580D01*
Y-183866D01*
Y-184153D01*
X785729D01*
Y-184439D01*
Y-184725D01*
Y-185012D01*
Y-185298D01*
Y-185584D01*
Y-185871D01*
X785443D01*
Y-186157D01*
Y-186443D01*
Y-186730D01*
Y-187016D01*
Y-187302D01*
Y-187588D01*
X785156D01*
Y-187875D01*
Y-188161D01*
Y-188447D01*
Y-188734D01*
Y-189020D01*
Y-189306D01*
X784870D01*
Y-189593D01*
Y-189879D01*
Y-190165D01*
Y-190452D01*
Y-190738D01*
Y-191024D01*
Y-191311D01*
X784584D01*
Y-191597D01*
Y-191883D01*
X771414D01*
Y-191597D01*
Y-191311D01*
X771700D01*
Y-191024D01*
Y-190738D01*
Y-190452D01*
Y-190165D01*
Y-189879D01*
Y-189593D01*
Y-189306D01*
X771986D01*
Y-189020D01*
Y-188734D01*
Y-188447D01*
Y-188161D01*
Y-187875D01*
Y-187588D01*
X772272D01*
Y-187302D01*
Y-187016D01*
Y-186730D01*
Y-186443D01*
Y-186157D01*
Y-185871D01*
X772559D01*
Y-185584D01*
Y-185298D01*
Y-185012D01*
Y-184725D01*
Y-184439D01*
Y-184153D01*
Y-183866D01*
X772845D01*
Y-183580D01*
Y-183294D01*
Y-183007D01*
Y-182721D01*
Y-182435D01*
Y-182149D01*
X773131D01*
Y-181862D01*
Y-181576D01*
Y-181290D01*
Y-181003D01*
Y-180717D01*
Y-180431D01*
X773418D01*
Y-180144D01*
Y-179858D01*
Y-179572D01*
Y-179285D01*
Y-178999D01*
Y-178713D01*
X773704D01*
Y-178426D01*
Y-178140D01*
Y-177854D01*
Y-177568D01*
Y-177281D01*
Y-176995D01*
Y-176709D01*
X773990D01*
Y-176422D01*
Y-176136D01*
Y-175850D01*
Y-175563D01*
Y-175277D01*
Y-174991D01*
X774277D01*
Y-174704D01*
Y-174418D01*
Y-174132D01*
Y-173845D01*
Y-173559D01*
Y-173273D01*
X774563D01*
Y-172986D01*
Y-172700D01*
Y-172414D01*
Y-172127D01*
Y-171841D01*
Y-171555D01*
Y-171269D01*
X774849D01*
Y-170982D01*
Y-170696D01*
Y-170410D01*
Y-170123D01*
Y-169837D01*
Y-169551D01*
X775136D01*
Y-169264D01*
Y-168978D01*
Y-168692D01*
Y-168405D01*
Y-168119D01*
Y-167833D01*
X775422D01*
Y-167547D01*
Y-167260D01*
Y-166974D01*
Y-166688D01*
Y-166401D01*
Y-166115D01*
X775708D01*
Y-165829D01*
Y-165542D01*
Y-165256D01*
Y-164970D01*
Y-164683D01*
Y-164397D01*
Y-164111D01*
X775994D01*
Y-163824D01*
Y-163538D01*
Y-163252D01*
Y-162966D01*
Y-162679D01*
Y-162393D01*
X776281D01*
Y-162107D01*
Y-161820D01*
Y-161534D01*
Y-161248D01*
Y-160961D01*
Y-160675D01*
X776567D01*
Y-160389D01*
Y-160102D01*
Y-159816D01*
Y-159530D01*
Y-159244D01*
Y-158957D01*
X776853D01*
Y-158671D01*
Y-158385D01*
Y-158098D01*
Y-157812D01*
Y-157526D01*
Y-157239D01*
Y-156953D01*
X777140D01*
Y-156667D01*
Y-156380D01*
Y-156094D01*
Y-155808D01*
Y-155521D01*
Y-155235D01*
X777426D01*
Y-154949D01*
Y-154663D01*
Y-154376D01*
Y-154090D01*
Y-153804D01*
Y-153517D01*
X777712D01*
Y-153231D01*
Y-152945D01*
Y-152658D01*
Y-152372D01*
Y-152086D01*
Y-151799D01*
Y-151513D01*
X777999D01*
Y-151227D01*
Y-150940D01*
Y-150654D01*
Y-150368D01*
Y-150082D01*
Y-149795D01*
X778285D01*
Y-149509D01*
Y-149223D01*
Y-148936D01*
Y-148650D01*
Y-148364D01*
Y-148077D01*
X778571D01*
Y-147791D01*
Y-147505D01*
Y-147218D01*
Y-146932D01*
Y-146646D01*
Y-146359D01*
X778858D01*
Y-146073D01*
Y-145787D01*
Y-145501D01*
Y-145214D01*
Y-144928D01*
Y-144641D01*
Y-144355D01*
X779144D01*
Y-144069D01*
Y-143783D01*
Y-143496D01*
Y-143210D01*
Y-142924D01*
Y-142637D01*
X779430D01*
Y-142351D01*
Y-142065D01*
Y-141778D01*
Y-141492D01*
Y-141206D01*
Y-140919D01*
X779716D01*
Y-140633D01*
Y-140347D01*
Y-140060D01*
Y-139774D01*
Y-139488D01*
Y-139202D01*
Y-138915D01*
X780003D01*
Y-138629D01*
Y-138343D01*
Y-138056D01*
X793173D01*
Y-138343D01*
D02*
G37*
G36*
X895101Y-155808D02*
X894814D01*
Y-156094D01*
X894528D01*
Y-156380D01*
Y-156667D01*
X894242D01*
Y-156953D01*
X893955D01*
Y-157239D01*
X893669D01*
Y-157526D01*
Y-157812D01*
X893383D01*
Y-158098D01*
X893096D01*
Y-158385D01*
X892810D01*
Y-158671D01*
X892524D01*
Y-158957D01*
Y-159244D01*
X892237D01*
Y-159530D01*
X891951D01*
Y-159816D01*
X891665D01*
Y-160102D01*
Y-160389D01*
X891378D01*
Y-160675D01*
X891092D01*
Y-160961D01*
X890806D01*
Y-161248D01*
X890520D01*
Y-161534D01*
Y-161820D01*
X890233D01*
Y-162107D01*
X889947D01*
Y-162393D01*
X889661D01*
Y-162679D01*
Y-162966D01*
X889374D01*
Y-163252D01*
X889088D01*
Y-163538D01*
X888802D01*
Y-163824D01*
Y-164111D01*
X888515D01*
Y-164397D01*
X888229D01*
Y-164683D01*
X887943D01*
Y-164970D01*
X887656D01*
Y-165256D01*
Y-165542D01*
X887370D01*
Y-165829D01*
X887084D01*
Y-166115D01*
X886798D01*
Y-166401D01*
Y-166688D01*
X886511D01*
Y-166974D01*
X886225D01*
Y-167260D01*
X885939D01*
Y-167547D01*
Y-167833D01*
X885652D01*
Y-168119D01*
X885366D01*
Y-168405D01*
X885080D01*
Y-168692D01*
X884793D01*
Y-168978D01*
Y-169264D01*
X884507D01*
Y-169551D01*
X884221D01*
Y-169837D01*
X883934D01*
Y-170123D01*
Y-170410D01*
X883648D01*
Y-170696D01*
X883362D01*
Y-170982D01*
X883076D01*
Y-171269D01*
Y-171555D01*
X882789D01*
Y-171841D01*
X882503D01*
Y-172127D01*
X882216D01*
Y-172414D01*
X881930D01*
Y-172700D01*
Y-172986D01*
X881644D01*
Y-173273D01*
X881358D01*
Y-173559D01*
X881071D01*
Y-173845D01*
Y-174132D01*
X880785D01*
Y-174418D01*
X880499D01*
Y-174704D01*
X880212D01*
Y-174991D01*
X879926D01*
Y-175277D01*
Y-175563D01*
X880212D01*
Y-175850D01*
Y-176136D01*
X880499D01*
Y-176422D01*
Y-176709D01*
X880785D01*
Y-176995D01*
X881071D01*
Y-177281D01*
Y-177568D01*
X881358D01*
Y-177854D01*
Y-178140D01*
X881644D01*
Y-178426D01*
Y-178713D01*
X881930D01*
Y-178999D01*
Y-179285D01*
X882216D01*
Y-179572D01*
Y-179858D01*
X882503D01*
Y-180144D01*
Y-180431D01*
X882789D01*
Y-180717D01*
Y-181003D01*
X883076D01*
Y-181290D01*
Y-181576D01*
X883362D01*
Y-181862D01*
X883648D01*
Y-182149D01*
Y-182435D01*
X883934D01*
Y-182721D01*
Y-183007D01*
X884221D01*
Y-183294D01*
Y-183580D01*
X884507D01*
Y-183866D01*
Y-184153D01*
X884793D01*
Y-184439D01*
Y-184725D01*
X885080D01*
Y-185012D01*
Y-185298D01*
X885366D01*
Y-185584D01*
Y-185871D01*
X885652D01*
Y-186157D01*
X885939D01*
Y-186443D01*
Y-186730D01*
X886225D01*
Y-187016D01*
Y-187302D01*
X886511D01*
Y-187588D01*
Y-187875D01*
X886798D01*
Y-188161D01*
Y-188447D01*
X887084D01*
Y-188734D01*
Y-189020D01*
X887370D01*
Y-189306D01*
Y-189593D01*
X887656D01*
Y-189879D01*
Y-190165D01*
X887943D01*
Y-190452D01*
X888229D01*
Y-190738D01*
Y-191024D01*
X888515D01*
Y-191311D01*
Y-191597D01*
X888802D01*
Y-191883D01*
X873627D01*
Y-191597D01*
X873341D01*
Y-191311D01*
Y-191024D01*
Y-190738D01*
X873055D01*
Y-190452D01*
Y-190165D01*
Y-189879D01*
X872768D01*
Y-189593D01*
Y-189306D01*
X872482D01*
Y-189020D01*
Y-188734D01*
Y-188447D01*
X872196D01*
Y-188161D01*
Y-187875D01*
Y-187588D01*
X871909D01*
Y-187302D01*
Y-187016D01*
X871623D01*
Y-186730D01*
Y-186443D01*
Y-186157D01*
X871337D01*
Y-185871D01*
Y-185584D01*
Y-185298D01*
X871050D01*
Y-185012D01*
Y-184725D01*
Y-184439D01*
X870764D01*
Y-184153D01*
X870191D01*
Y-184439D01*
Y-184725D01*
X869905D01*
Y-185012D01*
X869619D01*
Y-185298D01*
Y-185584D01*
X869332D01*
Y-185871D01*
X869046D01*
Y-186157D01*
Y-186443D01*
X868760D01*
Y-186730D01*
X868474D01*
Y-187016D01*
Y-187302D01*
X868187D01*
Y-187588D01*
X867901D01*
Y-187875D01*
X867615D01*
Y-188161D01*
Y-188447D01*
X867328D01*
Y-188734D01*
X867042D01*
Y-189020D01*
Y-189306D01*
X866756D01*
Y-189593D01*
X866469D01*
Y-189879D01*
Y-190165D01*
X866183D01*
Y-190452D01*
X865897D01*
Y-190738D01*
Y-191024D01*
X865610D01*
Y-191311D01*
X865324D01*
Y-191597D01*
Y-191883D01*
X849290D01*
Y-191597D01*
X849577D01*
Y-191311D01*
X849863D01*
Y-191024D01*
X850150D01*
Y-190738D01*
X850436D01*
Y-190452D01*
Y-190165D01*
X850722D01*
Y-189879D01*
X851008D01*
Y-189593D01*
X851295D01*
Y-189306D01*
X851581D01*
Y-189020D01*
Y-188734D01*
X851867D01*
Y-188447D01*
X852154D01*
Y-188161D01*
X852440D01*
Y-187875D01*
Y-187588D01*
X852726D01*
Y-187302D01*
X853013D01*
Y-187016D01*
X853299D01*
Y-186730D01*
X853585D01*
Y-186443D01*
Y-186157D01*
X853872D01*
Y-185871D01*
X854158D01*
Y-185584D01*
X854444D01*
Y-185298D01*
X854731D01*
Y-185012D01*
Y-184725D01*
X855017D01*
Y-184439D01*
X855303D01*
Y-184153D01*
X855589D01*
Y-183866D01*
Y-183580D01*
X855876D01*
Y-183294D01*
X856162D01*
Y-183007D01*
X856448D01*
Y-182721D01*
X856735D01*
Y-182435D01*
Y-182149D01*
X857021D01*
Y-181862D01*
X857307D01*
Y-181576D01*
X857594D01*
Y-181290D01*
Y-181003D01*
X857880D01*
Y-180717D01*
X858166D01*
Y-180431D01*
X858453D01*
Y-180144D01*
X858739D01*
Y-179858D01*
Y-179572D01*
X859025D01*
Y-179285D01*
X859311D01*
Y-178999D01*
X859598D01*
Y-178713D01*
Y-178426D01*
X859884D01*
Y-178140D01*
X860170D01*
Y-177854D01*
X860457D01*
Y-177568D01*
X860743D01*
Y-177281D01*
Y-176995D01*
X861029D01*
Y-176709D01*
X861316D01*
Y-176422D01*
X861602D01*
Y-176136D01*
X861888D01*
Y-175850D01*
Y-175563D01*
X862175D01*
Y-175277D01*
X862461D01*
Y-174991D01*
X862747D01*
Y-174704D01*
Y-174418D01*
X863034D01*
Y-174132D01*
X863320D01*
Y-173845D01*
X863606D01*
Y-173559D01*
X863892D01*
Y-173273D01*
Y-172986D01*
X864179D01*
Y-172700D01*
Y-172414D01*
Y-172127D01*
X863892D01*
Y-171841D01*
X863606D01*
Y-171555D01*
Y-171269D01*
X863320D01*
Y-170982D01*
Y-170696D01*
X863034D01*
Y-170410D01*
Y-170123D01*
X862747D01*
Y-169837D01*
Y-169551D01*
X862461D01*
Y-169264D01*
Y-168978D01*
X862175D01*
Y-168692D01*
Y-168405D01*
X861888D01*
Y-168119D01*
X861602D01*
Y-167833D01*
Y-167547D01*
X861316D01*
Y-167260D01*
Y-166974D01*
X861029D01*
Y-166688D01*
Y-166401D01*
X860743D01*
Y-166115D01*
Y-165829D01*
X860457D01*
Y-165542D01*
Y-165256D01*
X860170D01*
Y-164970D01*
Y-164683D01*
X859884D01*
Y-164397D01*
X859598D01*
Y-164111D01*
Y-163824D01*
X859311D01*
Y-163538D01*
Y-163252D01*
X859025D01*
Y-162966D01*
Y-162679D01*
X858739D01*
Y-162393D01*
Y-162107D01*
X858453D01*
Y-161820D01*
Y-161534D01*
X858166D01*
Y-161248D01*
Y-160961D01*
X857880D01*
Y-160675D01*
Y-160389D01*
X857594D01*
Y-160102D01*
X857307D01*
Y-159816D01*
Y-159530D01*
X857021D01*
Y-159244D01*
Y-158957D01*
X856735D01*
Y-158671D01*
Y-158385D01*
X856448D01*
Y-158098D01*
Y-157812D01*
X856162D01*
Y-157526D01*
Y-157239D01*
X855876D01*
Y-156953D01*
Y-156667D01*
X855589D01*
Y-156380D01*
X855303D01*
Y-156094D01*
Y-155808D01*
X855017D01*
Y-155521D01*
X870764D01*
Y-155808D01*
X871050D01*
Y-156094D01*
Y-156380D01*
Y-156667D01*
X871337D01*
Y-156953D01*
Y-157239D01*
Y-157526D01*
X871623D01*
Y-157812D01*
Y-158098D01*
Y-158385D01*
X871909D01*
Y-158671D01*
Y-158957D01*
Y-159244D01*
X872196D01*
Y-159530D01*
Y-159816D01*
Y-160102D01*
X872482D01*
Y-160389D01*
Y-160675D01*
Y-160961D01*
X872768D01*
Y-161248D01*
Y-161534D01*
Y-161820D01*
X873055D01*
Y-162107D01*
Y-162393D01*
Y-162679D01*
X873341D01*
Y-162966D01*
Y-163252D01*
Y-163538D01*
Y-163824D01*
X873913D01*
Y-163538D01*
X874200D01*
Y-163252D01*
X874486D01*
Y-162966D01*
Y-162679D01*
X874772D01*
Y-162393D01*
X875059D01*
Y-162107D01*
Y-161820D01*
X875345D01*
Y-161534D01*
X875631D01*
Y-161248D01*
Y-160961D01*
X875918D01*
Y-160675D01*
X876204D01*
Y-160389D01*
Y-160102D01*
X876490D01*
Y-159816D01*
X876777D01*
Y-159530D01*
Y-159244D01*
X877063D01*
Y-158957D01*
X877349D01*
Y-158671D01*
Y-158385D01*
X877635D01*
Y-158098D01*
X877922D01*
Y-157812D01*
Y-157526D01*
X878208D01*
Y-157239D01*
X878494D01*
Y-156953D01*
Y-156667D01*
X878781D01*
Y-156380D01*
X879067D01*
Y-156094D01*
Y-155808D01*
X879353D01*
Y-155521D01*
X895101D01*
Y-155808D01*
D02*
G37*
G36*
X851008D02*
Y-156094D01*
Y-156380D01*
Y-156667D01*
Y-156953D01*
Y-157239D01*
Y-157526D01*
Y-157812D01*
Y-158098D01*
Y-158385D01*
Y-158671D01*
Y-158957D01*
Y-159244D01*
Y-159530D01*
Y-159816D01*
Y-160102D01*
Y-160389D01*
Y-160675D01*
Y-160961D01*
Y-161248D01*
Y-161534D01*
X850722D01*
Y-161820D01*
Y-162107D01*
Y-162393D01*
Y-162679D01*
Y-162966D01*
X850436D01*
Y-163252D01*
Y-163538D01*
Y-163824D01*
Y-164111D01*
X850150D01*
Y-164397D01*
Y-164683D01*
Y-164970D01*
Y-165256D01*
X849863D01*
Y-165542D01*
Y-165829D01*
Y-166115D01*
X849577D01*
Y-166401D01*
Y-166688D01*
Y-166974D01*
X849290D01*
Y-167260D01*
Y-167547D01*
Y-167833D01*
X849004D01*
Y-168119D01*
Y-168405D01*
Y-168692D01*
X848718D01*
Y-168978D01*
Y-169264D01*
X848432D01*
Y-169551D01*
Y-169837D01*
X848145D01*
Y-170123D01*
Y-170410D01*
Y-170696D01*
X847859D01*
Y-170982D01*
Y-171269D01*
X847573D01*
Y-171555D01*
Y-171841D01*
Y-172127D01*
X847286D01*
Y-172414D01*
Y-172700D01*
X847000D01*
Y-172986D01*
Y-173273D01*
Y-173559D01*
X846714D01*
Y-173845D01*
Y-174132D01*
X846427D01*
Y-174418D01*
Y-174704D01*
Y-174991D01*
X846141D01*
Y-175277D01*
Y-175563D01*
X845855D01*
Y-175850D01*
Y-176136D01*
Y-176422D01*
X845568D01*
Y-176709D01*
Y-176995D01*
X845282D01*
Y-177281D01*
Y-177568D01*
Y-177854D01*
X844996D01*
Y-178140D01*
Y-178426D01*
X844709D01*
Y-178713D01*
Y-178999D01*
Y-179285D01*
X844423D01*
Y-179572D01*
Y-179858D01*
X844137D01*
Y-180144D01*
Y-180431D01*
Y-180717D01*
X843851D01*
Y-181003D01*
Y-181290D01*
X843564D01*
Y-181576D01*
Y-181862D01*
Y-182149D01*
X843278D01*
Y-182435D01*
Y-182721D01*
X842992D01*
Y-183007D01*
Y-183294D01*
Y-183580D01*
X842705D01*
Y-183866D01*
Y-184153D01*
X842419D01*
Y-184439D01*
Y-184725D01*
Y-185012D01*
X842133D01*
Y-185298D01*
Y-185584D01*
X841846D01*
Y-185871D01*
Y-186157D01*
Y-186443D01*
X841560D01*
Y-186730D01*
Y-187016D01*
X841274D01*
Y-187302D01*
Y-187588D01*
Y-187875D01*
X840987D01*
Y-188161D01*
Y-188447D01*
X840701D01*
Y-188734D01*
Y-189020D01*
Y-189306D01*
X840415D01*
Y-189593D01*
Y-189879D01*
X840129D01*
Y-190165D01*
Y-190452D01*
Y-190738D01*
X839842D01*
Y-191024D01*
Y-191311D01*
X839556D01*
Y-191597D01*
Y-191883D01*
Y-192169D01*
X839270D01*
Y-192456D01*
Y-192742D01*
X838983D01*
Y-193028D01*
Y-193315D01*
X838697D01*
Y-193601D01*
Y-193887D01*
X838411D01*
Y-194174D01*
Y-194460D01*
Y-194746D01*
X838124D01*
Y-195033D01*
X837838D01*
Y-195319D01*
Y-195605D01*
Y-195891D01*
X837552D01*
Y-196178D01*
X837265D01*
Y-196464D01*
Y-196750D01*
X836979D01*
Y-197037D01*
Y-197323D01*
X836693D01*
Y-197609D01*
Y-197896D01*
X836407D01*
Y-198182D01*
Y-198468D01*
X836120D01*
Y-198755D01*
X835834D01*
Y-199041D01*
Y-199327D01*
X835548D01*
Y-199614D01*
Y-199900D01*
X835261D01*
Y-200186D01*
X834975D01*
Y-200472D01*
X834689D01*
Y-200759D01*
Y-201045D01*
X834402D01*
Y-201331D01*
X834116D01*
Y-201618D01*
Y-201904D01*
X833830D01*
Y-202190D01*
X833543D01*
Y-202477D01*
X833257D01*
Y-202763D01*
Y-203049D01*
X832971D01*
Y-203336D01*
X832684D01*
Y-203622D01*
X832398D01*
Y-203908D01*
X832112D01*
Y-204195D01*
X831826D01*
Y-204481D01*
Y-204767D01*
X831539D01*
Y-205053D01*
X831253D01*
Y-205340D01*
X830966D01*
Y-205626D01*
X830680D01*
Y-205912D01*
X830394D01*
Y-206199D01*
X830108D01*
Y-206485D01*
X829821D01*
Y-206771D01*
X829249D01*
Y-207058D01*
X828962D01*
Y-207344D01*
X828676D01*
Y-207630D01*
X828390D01*
Y-207917D01*
X828103D01*
Y-208203D01*
X827531D01*
Y-208489D01*
X827244D01*
Y-208776D01*
X826672D01*
Y-209062D01*
X826385D01*
Y-209348D01*
X825813D01*
Y-209634D01*
X825527D01*
Y-209921D01*
X824954D01*
Y-210207D01*
X824381D01*
Y-210493D01*
X823809D01*
Y-210780D01*
X823236D01*
Y-211066D01*
X822663D01*
Y-211352D01*
X821805D01*
Y-211639D01*
X821232D01*
Y-211925D01*
X820373D01*
Y-212211D01*
X819228D01*
Y-212498D01*
X818082D01*
Y-212784D01*
X816365D01*
Y-213070D01*
X814360D01*
Y-213357D01*
X814074D01*
Y-213070D01*
Y-212784D01*
Y-212498D01*
Y-212211D01*
Y-211925D01*
Y-211639D01*
Y-211352D01*
Y-211066D01*
Y-210780D01*
Y-210493D01*
Y-210207D01*
Y-209921D01*
Y-209634D01*
Y-209348D01*
Y-209062D01*
Y-208776D01*
Y-208489D01*
Y-208203D01*
Y-207917D01*
Y-207630D01*
Y-207344D01*
Y-207058D01*
Y-206771D01*
Y-206485D01*
Y-206199D01*
Y-205912D01*
Y-205626D01*
Y-205340D01*
Y-205053D01*
Y-204767D01*
Y-204481D01*
Y-204195D01*
Y-203908D01*
X814647D01*
Y-203622D01*
X815219D01*
Y-203336D01*
X815792D01*
Y-203049D01*
X816365D01*
Y-202763D01*
X816937D01*
Y-202477D01*
X817510D01*
Y-202190D01*
X817796D01*
Y-201904D01*
X818369D01*
Y-201618D01*
X818655D01*
Y-201331D01*
X819228D01*
Y-201045D01*
X819514D01*
Y-200759D01*
X819800D01*
Y-200472D01*
X820373D01*
Y-200186D01*
X820659D01*
Y-199900D01*
X820946D01*
Y-199614D01*
X821232D01*
Y-199327D01*
X821518D01*
Y-199041D01*
X821805D01*
Y-198755D01*
X822091D01*
Y-198468D01*
X822377D01*
Y-198182D01*
X822663D01*
Y-197896D01*
X822950D01*
Y-197609D01*
X823236D01*
Y-197323D01*
X823522D01*
Y-197037D01*
Y-196750D01*
X823809D01*
Y-196464D01*
X824095D01*
Y-196178D01*
X824381D01*
Y-195891D01*
Y-195605D01*
X824668D01*
Y-195319D01*
X824954D01*
Y-195033D01*
Y-194746D01*
X825240D01*
Y-194460D01*
Y-194174D01*
X825527D01*
Y-193887D01*
X825813D01*
Y-193601D01*
Y-193315D01*
X826099D01*
Y-193028D01*
Y-192742D01*
X826385D01*
Y-192456D01*
Y-192169D01*
X824668D01*
Y-191883D01*
X822663D01*
Y-191597D01*
X821518D01*
Y-191311D01*
X820946D01*
Y-191024D01*
X820087D01*
Y-190738D01*
X819514D01*
Y-190452D01*
X819228D01*
Y-190165D01*
X818655D01*
Y-189879D01*
X818369D01*
Y-189593D01*
X818082D01*
Y-189306D01*
X817796D01*
Y-189020D01*
X817510D01*
Y-188734D01*
X817223D01*
Y-188447D01*
Y-188161D01*
X816937D01*
Y-187875D01*
X816651D01*
Y-187588D01*
Y-187302D01*
X816365D01*
Y-187016D01*
Y-186730D01*
X816078D01*
Y-186443D01*
Y-186157D01*
X815792D01*
Y-185871D01*
Y-185584D01*
Y-185298D01*
X815506D01*
Y-185012D01*
Y-184725D01*
Y-184439D01*
Y-184153D01*
X815219D01*
Y-183866D01*
Y-183580D01*
Y-183294D01*
Y-183007D01*
Y-182721D01*
Y-182435D01*
Y-182149D01*
X814933D01*
Y-181862D01*
Y-181576D01*
Y-181290D01*
Y-181003D01*
Y-180717D01*
Y-180431D01*
Y-180144D01*
Y-179858D01*
Y-179572D01*
Y-179285D01*
Y-178999D01*
Y-178713D01*
Y-178426D01*
Y-178140D01*
Y-177854D01*
X814647D01*
Y-177568D01*
Y-177281D01*
Y-176995D01*
Y-176709D01*
Y-176422D01*
Y-176136D01*
Y-175850D01*
Y-175563D01*
Y-175277D01*
Y-174991D01*
Y-174704D01*
Y-174418D01*
Y-174132D01*
Y-173845D01*
Y-173559D01*
X814360D01*
Y-173273D01*
Y-172986D01*
Y-172700D01*
Y-172414D01*
Y-172127D01*
Y-171841D01*
Y-171555D01*
Y-171269D01*
Y-170982D01*
Y-170696D01*
Y-170410D01*
Y-170123D01*
Y-169837D01*
Y-169551D01*
Y-169264D01*
Y-168978D01*
X814074D01*
Y-168692D01*
Y-168405D01*
Y-168119D01*
Y-167833D01*
Y-167547D01*
Y-167260D01*
Y-166974D01*
Y-166688D01*
Y-166401D01*
Y-166115D01*
Y-165829D01*
Y-165542D01*
Y-165256D01*
Y-164970D01*
Y-164683D01*
Y-164397D01*
X813788D01*
Y-164111D01*
Y-163824D01*
Y-163538D01*
Y-163252D01*
Y-162966D01*
Y-162679D01*
Y-162393D01*
Y-162107D01*
Y-161820D01*
Y-161534D01*
Y-161248D01*
Y-160961D01*
Y-160675D01*
Y-160389D01*
X813501D01*
Y-160102D01*
Y-159816D01*
Y-159530D01*
Y-159244D01*
Y-158957D01*
Y-158671D01*
Y-158385D01*
Y-158098D01*
Y-157812D01*
Y-157526D01*
Y-157239D01*
Y-156953D01*
Y-156667D01*
Y-156380D01*
Y-156094D01*
Y-155808D01*
X813215D01*
Y-155521D01*
X826958D01*
Y-155808D01*
Y-156094D01*
Y-156380D01*
Y-156667D01*
Y-156953D01*
Y-157239D01*
Y-157526D01*
Y-157812D01*
Y-158098D01*
Y-158385D01*
Y-158671D01*
Y-158957D01*
Y-159244D01*
Y-159530D01*
X827244D01*
Y-159816D01*
Y-160102D01*
Y-160389D01*
Y-160675D01*
Y-160961D01*
Y-161248D01*
Y-161534D01*
Y-161820D01*
Y-162107D01*
Y-162393D01*
Y-162679D01*
Y-162966D01*
Y-163252D01*
Y-163538D01*
Y-163824D01*
Y-164111D01*
Y-164397D01*
Y-164683D01*
Y-164970D01*
Y-165256D01*
Y-165542D01*
Y-165829D01*
Y-166115D01*
Y-166401D01*
Y-166688D01*
Y-166974D01*
Y-167260D01*
Y-167547D01*
Y-167833D01*
Y-168119D01*
Y-168405D01*
Y-168692D01*
Y-168978D01*
Y-169264D01*
Y-169551D01*
Y-169837D01*
Y-170123D01*
Y-170410D01*
Y-170696D01*
Y-170982D01*
Y-171269D01*
X827531D01*
Y-171555D01*
X827244D01*
Y-171841D01*
Y-172127D01*
X827531D01*
Y-172414D01*
Y-172700D01*
Y-172986D01*
Y-173273D01*
Y-173559D01*
Y-173845D01*
Y-174132D01*
Y-174418D01*
Y-174704D01*
Y-174991D01*
Y-175277D01*
Y-175563D01*
Y-175850D01*
Y-176136D01*
Y-176422D01*
Y-176709D01*
Y-176995D01*
Y-177281D01*
Y-177568D01*
Y-177854D01*
Y-178140D01*
Y-178426D01*
Y-178713D01*
Y-178999D01*
Y-179285D01*
Y-179572D01*
X827817D01*
Y-179858D01*
Y-180144D01*
Y-180431D01*
X828103D01*
Y-180717D01*
X828390D01*
Y-181003D01*
X828676D01*
Y-181290D01*
X829535D01*
Y-181576D01*
X830394D01*
Y-181290D01*
X830680D01*
Y-181003D01*
Y-180717D01*
Y-180431D01*
X830966D01*
Y-180144D01*
Y-179858D01*
X831253D01*
Y-179572D01*
Y-179285D01*
Y-178999D01*
X831539D01*
Y-178713D01*
Y-178426D01*
Y-178140D01*
X831826D01*
Y-177854D01*
Y-177568D01*
Y-177281D01*
X832112D01*
Y-176995D01*
Y-176709D01*
Y-176422D01*
X832398D01*
Y-176136D01*
Y-175850D01*
X832684D01*
Y-175563D01*
Y-175277D01*
Y-174991D01*
X832971D01*
Y-174704D01*
Y-174418D01*
Y-174132D01*
X833257D01*
Y-173845D01*
Y-173559D01*
Y-173273D01*
X833543D01*
Y-172986D01*
Y-172700D01*
X833830D01*
Y-172414D01*
Y-172127D01*
Y-171841D01*
X834116D01*
Y-171555D01*
Y-171269D01*
Y-170982D01*
X834402D01*
Y-170696D01*
Y-170410D01*
Y-170123D01*
X834689D01*
Y-169837D01*
Y-169551D01*
X834975D01*
Y-169264D01*
Y-168978D01*
Y-168692D01*
X835261D01*
Y-168405D01*
Y-168119D01*
Y-167833D01*
X835548D01*
Y-167547D01*
Y-167260D01*
Y-166974D01*
X835834D01*
Y-166688D01*
Y-166401D01*
X836120D01*
Y-166115D01*
Y-165829D01*
Y-165542D01*
X836407D01*
Y-165256D01*
Y-164970D01*
Y-164683D01*
X836693D01*
Y-164397D01*
Y-164111D01*
Y-163824D01*
X836979D01*
Y-163538D01*
Y-163252D01*
Y-162966D01*
Y-162679D01*
X837265D01*
Y-162393D01*
Y-162107D01*
Y-161820D01*
Y-161534D01*
X837552D01*
Y-161248D01*
Y-160961D01*
Y-160675D01*
Y-160389D01*
Y-160102D01*
X837838D01*
Y-159816D01*
Y-159530D01*
Y-159244D01*
Y-158957D01*
Y-158671D01*
Y-158385D01*
X838124D01*
Y-158098D01*
Y-157812D01*
Y-157526D01*
Y-157239D01*
Y-156953D01*
Y-156667D01*
Y-156380D01*
Y-156094D01*
Y-155808D01*
Y-155521D01*
X851008D01*
Y-155808D01*
D02*
G37*
%LPC*%
G36*
X757670Y-152658D02*
X749654D01*
Y-152945D01*
Y-153231D01*
Y-153517D01*
Y-153804D01*
Y-154090D01*
X749367D01*
Y-154376D01*
Y-154663D01*
Y-154949D01*
Y-155235D01*
Y-155521D01*
Y-155808D01*
X749081D01*
Y-156094D01*
Y-156380D01*
Y-156667D01*
Y-156953D01*
Y-157239D01*
Y-157526D01*
X748795D01*
Y-157812D01*
Y-158098D01*
Y-158385D01*
Y-158671D01*
Y-158957D01*
Y-159244D01*
X748508D01*
Y-159530D01*
Y-159816D01*
Y-160102D01*
Y-160389D01*
Y-160675D01*
Y-160961D01*
Y-161248D01*
X748222D01*
Y-161534D01*
Y-161820D01*
Y-162107D01*
Y-162393D01*
Y-162679D01*
Y-162966D01*
X747936D01*
Y-163252D01*
Y-163538D01*
Y-163824D01*
X755094D01*
Y-163538D01*
X756239D01*
Y-163252D01*
X756812D01*
Y-162966D01*
X757098D01*
Y-162679D01*
X757384D01*
Y-162393D01*
X757670D01*
Y-162107D01*
X757957D01*
Y-161820D01*
Y-161534D01*
X758243D01*
Y-161248D01*
Y-160961D01*
X758529D01*
Y-160675D01*
Y-160389D01*
X758816D01*
Y-160102D01*
Y-159816D01*
Y-159530D01*
Y-159244D01*
X759102D01*
Y-158957D01*
Y-158671D01*
Y-158385D01*
Y-158098D01*
Y-157812D01*
X759388D01*
Y-157526D01*
Y-157239D01*
Y-156953D01*
Y-156667D01*
Y-156380D01*
Y-156094D01*
Y-155808D01*
Y-155521D01*
Y-155235D01*
Y-154949D01*
Y-154663D01*
X759102D01*
Y-154376D01*
Y-154090D01*
X758816D01*
Y-153804D01*
Y-153517D01*
X758529D01*
Y-153231D01*
X758243D01*
Y-152945D01*
X757670D01*
Y-152658D01*
D02*
G37*
%LPD*%
D10*
X82677Y176102D02*
G03*
X77677Y181102I-5000J0D01*
G01*
Y82677D02*
G03*
X82677Y87677I0J5000D01*
G01*
X147638Y14764D02*
G03*
X122047Y14764I-12795J0D01*
G01*
X122047Y250984D02*
G03*
X147638Y250984I12795J0D01*
G01*
X-0Y6890D02*
Y82677D01*
X-0Y181102D02*
Y258858D01*
X0Y6890D02*
X6890Y0D01*
X0Y258858D02*
X6890Y265748D01*
X-0Y82677D02*
X77677Y82677D01*
X-0Y181102D02*
X77677Y181102D01*
X6890Y-0D02*
X122047D01*
X6890Y265748D02*
X122047D01*
X82677Y87677D02*
Y176102D01*
X122047Y-0D02*
Y14764D01*
X122047Y250984D02*
Y265748D01*
X147638Y-0D02*
Y14764D01*
X147638Y250984D02*
Y265748D01*
X147638Y-0D02*
X262795Y-0D01*
X147638Y265748D02*
X262795Y265748D01*
X262795Y265748D02*
X269685Y258858D01*
X262795Y0D02*
X269685Y6890D01*
X269685Y258858D01*
X269685D02*
X269685D01*
D13*
X1028482Y-168552D02*
X1019299D01*
Y-175439D01*
X1023891D01*
X1019299D01*
Y-182327D01*
X1035370Y-173143D02*
X1039962D01*
X1042257Y-175439D01*
Y-182327D01*
X1035370D01*
X1033074Y-180031D01*
X1035370Y-177735D01*
X1042257D01*
X1046849Y-168552D02*
Y-182327D01*
X1053737D01*
X1056032Y-180031D01*
Y-177735D01*
Y-175439D01*
X1053737Y-173143D01*
X1046849D01*
X1060624D02*
Y-182327D01*
Y-177735D01*
X1062920Y-175439D01*
X1065216Y-173143D01*
X1067512D01*
X1074399Y-182327D02*
X1078991D01*
X1076695D01*
Y-173143D01*
X1074399D01*
X1095062D02*
X1088174D01*
X1085878Y-175439D01*
Y-180031D01*
X1088174Y-182327D01*
X1095062D01*
X1101949Y-173143D02*
X1106541D01*
X1108837Y-175439D01*
Y-182327D01*
X1101949D01*
X1099654Y-180031D01*
X1101949Y-177735D01*
X1108837D01*
X1115724Y-170848D02*
Y-173143D01*
X1113429D01*
X1118020D01*
X1115724D01*
Y-180031D01*
X1118020Y-182327D01*
X1124908D02*
X1129500D01*
X1127204D01*
Y-173143D01*
X1124908D01*
X1138683Y-182327D02*
X1143275D01*
X1145570Y-180031D01*
Y-175439D01*
X1143275Y-173143D01*
X1138683D01*
X1136387Y-175439D01*
Y-180031D01*
X1138683Y-182327D01*
X1150162D02*
Y-173143D01*
X1157050D01*
X1159346Y-175439D01*
Y-182327D01*
X735834Y-247293D02*
Y-263036D01*
X741082Y-257788D01*
X746330Y-263036D01*
Y-247293D01*
X751577Y-263036D02*
X756825D01*
X754201D01*
Y-252540D01*
X751577D01*
X764696Y-263036D02*
Y-252540D01*
X767320D01*
X769944Y-255164D01*
Y-263036D01*
Y-255164D01*
X772568Y-252540D01*
X775192Y-255164D01*
Y-263036D01*
X780439Y-247293D02*
Y-257788D01*
X785687Y-263036D01*
X790935Y-257788D01*
Y-247293D01*
X806678Y-249917D02*
X804054Y-247293D01*
X798806D01*
X796182Y-249917D01*
Y-260412D01*
X798806Y-263036D01*
X804054D01*
X806678Y-260412D01*
Y-255164D01*
X801430D01*
X1090165Y-210546D02*
X1092789Y-207923D01*
X1098036D01*
X1100660Y-210546D01*
Y-221042D01*
X1098036Y-223665D01*
X1092789D01*
X1090165Y-221042D01*
Y-210546D01*
X1105908Y-223665D02*
X1111156D01*
X1108532D01*
Y-207923D01*
X1105908Y-210546D01*
X926779Y-212186D02*
X929075Y-209890D01*
X933667D01*
X935963Y-212186D01*
Y-221370D01*
X933667Y-223665D01*
X929075D01*
X926779Y-221370D01*
Y-212186D01*
X940554Y-223665D02*
X945146D01*
X942850D01*
Y-209890D01*
X940554Y-212186D01*
X952034Y-223665D02*
X961217Y-214482D01*
X965809Y-212186D02*
X968104Y-209890D01*
X972696D01*
X974992Y-212186D01*
Y-221370D01*
X972696Y-223665D01*
X968104D01*
X965809Y-221370D01*
Y-212186D01*
X988767Y-209890D02*
X984175Y-212186D01*
X979584Y-216778D01*
Y-221370D01*
X981880Y-223665D01*
X986471D01*
X988767Y-221370D01*
Y-219074D01*
X986471Y-216778D01*
X979584D01*
X993359Y-223665D02*
X1002542Y-214482D01*
X1016317Y-223665D02*
X1007134D01*
X1016317Y-214482D01*
Y-212186D01*
X1014021Y-209890D01*
X1009430D01*
X1007134Y-212186D01*
X1020909D02*
X1023205Y-209890D01*
X1027796D01*
X1030092Y-212186D01*
Y-221370D01*
X1027796Y-223665D01*
X1023205D01*
X1020909Y-221370D01*
Y-212186D01*
X1043867Y-223665D02*
X1034684D01*
X1043867Y-214482D01*
Y-212186D01*
X1041572Y-209890D01*
X1036980D01*
X1034684Y-212186D01*
X1057642Y-223665D02*
X1048459D01*
X1057642Y-214482D01*
Y-212186D01*
X1055347Y-209890D01*
X1050755D01*
X1048459Y-212186D01*
X929270Y-132331D02*
X920874D01*
Y-138628D01*
X925072D01*
X920874D01*
Y-144925D01*
X933468Y-136529D02*
Y-144925D01*
Y-140727D01*
X935567Y-138628D01*
X937666Y-136529D01*
X939765D01*
X946062Y-144925D02*
X950261D01*
X948162D01*
Y-136529D01*
X946062D01*
X956558Y-134430D02*
X958657Y-132331D01*
X962855D01*
X964954Y-134430D01*
Y-136529D01*
X962855Y-138628D01*
X960756D01*
X962855D01*
X964954Y-140727D01*
Y-142826D01*
X962855Y-144925D01*
X958657D01*
X956558Y-142826D01*
X969152Y-132331D02*
Y-144925D01*
X975449D01*
X977548Y-142826D01*
Y-134430D01*
X975449Y-132331D01*
X969152D01*
X994341D02*
X998539D01*
X996440D01*
Y-144925D01*
X994341D01*
X998539D01*
X1004836Y-136529D02*
Y-144925D01*
Y-140727D01*
X1006935Y-138628D01*
X1009034Y-136529D01*
X1011133D01*
X1019530D02*
X1023728D01*
X1025827Y-138628D01*
Y-144925D01*
X1019530D01*
X1017430Y-142826D01*
X1019530Y-140727D01*
X1025827D01*
X1051015Y-144925D02*
X1042619D01*
X1051015Y-136529D01*
Y-134430D01*
X1048916Y-132331D01*
X1044718D01*
X1042619Y-134430D01*
X1055214D02*
X1057313Y-132331D01*
X1061511D01*
X1063610Y-134430D01*
Y-142826D01*
X1061511Y-144925D01*
X1057313D01*
X1055214Y-142826D01*
Y-134430D01*
X1076204Y-144925D02*
X1067808D01*
X1076204Y-136529D01*
Y-134430D01*
X1074105Y-132331D01*
X1069907D01*
X1067808Y-134430D01*
X1088799Y-144925D02*
X1080402D01*
X1088799Y-136529D01*
Y-134430D01*
X1086699Y-132331D01*
X1082501D01*
X1080402Y-134430D01*
X932685Y-168552D02*
Y-182327D01*
X939572D01*
X941868Y-180031D01*
Y-170848D01*
X939572Y-168552D01*
X932685D01*
X946460Y-173144D02*
Y-182327D01*
Y-177735D01*
X948756Y-175439D01*
X951052Y-173144D01*
X953347D01*
X960235Y-182327D02*
X964827D01*
X962531D01*
Y-173144D01*
X960235D01*
X971714Y-182327D02*
X976306D01*
X974010D01*
Y-168552D01*
X971714D01*
X983193Y-182327D02*
X987785D01*
X985489D01*
Y-168552D01*
X983193D01*
X1017631Y-170848D02*
X1015335Y-168552D01*
X1010744D01*
X1008448Y-170848D01*
Y-180031D01*
X1010744Y-182327D01*
X1015335D01*
X1017631Y-180031D01*
Y-175439D01*
X1013039D01*
X1022223Y-173144D02*
Y-180031D01*
X1024519Y-182327D01*
X1031406D01*
Y-173144D01*
X1035998Y-182327D02*
X1040590D01*
X1038294D01*
Y-173144D01*
X1035998D01*
X1056660Y-168552D02*
Y-182327D01*
X1049773D01*
X1047477Y-180031D01*
Y-175439D01*
X1049773Y-173144D01*
X1056660D01*
X1068140Y-182327D02*
X1063548D01*
X1061252Y-180031D01*
Y-175439D01*
X1063548Y-173144D01*
X1068140D01*
X1070436Y-175439D01*
Y-177735D01*
X1061252D01*
D14*
X-51181Y273622D02*
X-47244Y269685D01*
X-51181Y265748D02*
X-47244Y269685D01*
X-66929Y269685D02*
X-47244Y269685D01*
X273622Y557087D02*
X273622Y537402D01*
X269685Y541339D02*
X273622Y537402D01*
X277559Y541339D01*
X547244Y537402D02*
X551181Y541339D01*
X543307D02*
X547244Y537402D01*
X547244Y557087D02*
X547244Y537402D01*
X-232283Y-92520D02*
X-230316D01*
X-231299D01*
Y-86616D01*
X-232283Y-87600D01*
X-227364Y-92520D02*
Y-91536D01*
X-226380D01*
Y-92520D01*
X-227364D01*
X-218508Y-86616D02*
X-220476Y-87600D01*
X-222444Y-89568D01*
Y-91536D01*
X-221460Y-92520D01*
X-219492D01*
X-218508Y-91536D01*
Y-90552D01*
X-219492Y-89568D01*
X-222444D01*
X-216541Y-92520D02*
Y-88584D01*
X-215557D01*
X-214573Y-89568D01*
Y-92520D01*
Y-89568D01*
X-213589Y-88584D01*
X-212605Y-89568D01*
Y-92520D01*
X-210637D02*
Y-88584D01*
X-209653D01*
X-208669Y-89568D01*
Y-92520D01*
Y-89568D01*
X-207685Y-88584D01*
X-206701Y-89568D01*
Y-92520D01*
X-198830Y-86616D02*
X-194894D01*
X-196862D01*
Y-92520D01*
X-192926Y-86616D02*
Y-92520D01*
Y-89568D01*
X-191942Y-88584D01*
X-189974D01*
X-188990Y-89568D01*
Y-92520D01*
X-187022D02*
X-185055D01*
X-186039D01*
Y-88584D01*
X-187022D01*
X-178167D02*
X-181119D01*
X-182103Y-89568D01*
Y-91536D01*
X-181119Y-92520D01*
X-178167D01*
X-176199D02*
Y-86616D01*
Y-90552D02*
X-173248Y-88584D01*
X-176199Y-90552D02*
X-173248Y-92520D01*
X-170296D02*
Y-88584D01*
X-167344D01*
X-166360Y-89568D01*
Y-92520D01*
X-161440D02*
X-163408D01*
X-164392Y-91536D01*
Y-89568D01*
X-163408Y-88584D01*
X-161440D01*
X-160456Y-89568D01*
Y-90552D01*
X-164392D01*
X-158489Y-92520D02*
X-155537D01*
X-154553Y-91536D01*
X-155537Y-90552D01*
X-157504D01*
X-158489Y-89568D01*
X-157504Y-88584D01*
X-154553D01*
X-152585Y-92520D02*
X-149633D01*
X-148649Y-91536D01*
X-149633Y-90552D01*
X-151601D01*
X-152585Y-89568D01*
X-151601Y-88584D01*
X-148649D01*
X1072449Y-202012D02*
Y-194141D01*
X1076384D01*
X1077696Y-195452D01*
Y-198076D01*
X1076384Y-199388D01*
X1072449D01*
X1075072D02*
X1077696Y-202012D01*
X1084256D02*
X1081632D01*
X1080320Y-200700D01*
Y-198076D01*
X1081632Y-196764D01*
X1084256D01*
X1085568Y-198076D01*
Y-199388D01*
X1080320D01*
X1088192Y-196764D02*
X1090815Y-202012D01*
X1093439Y-196764D01*
X718118Y-233511D02*
Y-241382D01*
X722053D01*
X723365Y-240070D01*
Y-234823D01*
X722053Y-233511D01*
X718118D01*
X729925Y-241382D02*
X727301D01*
X725989Y-240070D01*
Y-237446D01*
X727301Y-236134D01*
X729925D01*
X731237Y-237446D01*
Y-238758D01*
X725989D01*
X733861Y-241382D02*
X737796D01*
X739108Y-240070D01*
X737796Y-238758D01*
X735173D01*
X733861Y-237446D01*
X735173Y-236134D01*
X739108D01*
X744356Y-244006D02*
X745668D01*
X746980Y-242694D01*
Y-236134D01*
X743044D01*
X741732Y-237446D01*
Y-240070D01*
X743044Y-241382D01*
X746980D01*
X749604D02*
X752227D01*
X750916D01*
Y-236134D01*
X749604D01*
X756163Y-241382D02*
Y-236134D01*
X760099D01*
X761411Y-237446D01*
Y-241382D01*
X767971D02*
X765347D01*
X764035Y-240070D01*
Y-237446D01*
X765347Y-236134D01*
X767971D01*
X769282Y-237446D01*
Y-238758D01*
X764035D01*
X771906Y-236134D02*
Y-241382D01*
Y-238758D01*
X773218Y-237446D01*
X774530Y-236134D01*
X775842D01*
X914968Y-115400D02*
Y-123272D01*
X918904D01*
X920216Y-121960D01*
Y-116712D01*
X918904Y-115400D01*
X914968D01*
X924152Y-123272D02*
X926775D01*
X928087Y-121960D01*
Y-119336D01*
X926775Y-118024D01*
X924152D01*
X922840Y-119336D01*
Y-121960D01*
X924152Y-123272D01*
X935959Y-118024D02*
X932023D01*
X930711Y-119336D01*
Y-121960D01*
X932023Y-123272D01*
X935959D01*
X938583Y-118024D02*
Y-121960D01*
X939894Y-123272D01*
X943830D01*
Y-118024D01*
X946454Y-123272D02*
Y-118024D01*
X947766D01*
X949078Y-119336D01*
Y-123272D01*
Y-119336D01*
X950390Y-118024D01*
X951702Y-119336D01*
Y-123272D01*
X958261D02*
X955637D01*
X954326Y-121960D01*
Y-119336D01*
X955637Y-118024D01*
X958261D01*
X959573Y-119336D01*
Y-120648D01*
X954326D01*
X962197Y-123272D02*
Y-118024D01*
X966133D01*
X967445Y-119336D01*
Y-123272D01*
X971381Y-116712D02*
Y-118024D01*
X970068D01*
X972692D01*
X971381D01*
Y-121960D01*
X972692Y-123272D01*
X914968Y-154770D02*
Y-162642D01*
X920216D01*
X924152Y-157394D02*
X926775D01*
X928087Y-158706D01*
Y-162642D01*
X924152D01*
X922840Y-161330D01*
X924152Y-160018D01*
X928087D01*
X930711Y-157394D02*
Y-161330D01*
X932023Y-162642D01*
X935959D01*
Y-163954D01*
X934647Y-165266D01*
X933335D01*
X935959Y-162642D02*
Y-157394D01*
X942518Y-162642D02*
X939894D01*
X938583Y-161330D01*
Y-158706D01*
X939894Y-157394D01*
X942518D01*
X943830Y-158706D01*
Y-160018D01*
X938583D01*
X946454Y-157394D02*
Y-162642D01*
Y-160018D01*
X947766Y-158706D01*
X949078Y-157394D01*
X950390D01*
X962197Y-162642D02*
Y-154770D01*
X967445Y-162642D01*
Y-154770D01*
X971381Y-157394D02*
X974004D01*
X975316Y-158706D01*
Y-162642D01*
X971381D01*
X970068Y-161330D01*
X971381Y-160018D01*
X975316D01*
X977940Y-162642D02*
Y-157394D01*
X979252D01*
X980564Y-158706D01*
Y-162642D01*
Y-158706D01*
X981876Y-157394D01*
X983188Y-158706D01*
Y-162642D01*
X989747D02*
X987123D01*
X985812Y-161330D01*
Y-158706D01*
X987123Y-157394D01*
X989747D01*
X991059Y-158706D01*
Y-160018D01*
X985812D01*
X914968Y-194141D02*
Y-202012D01*
X918904D01*
X920216Y-200700D01*
Y-195452D01*
X918904Y-194141D01*
X914968D01*
X924152Y-196764D02*
X926775D01*
X928087Y-198076D01*
Y-202012D01*
X924152D01*
X922840Y-200700D01*
X924152Y-199388D01*
X928087D01*
X932023Y-195452D02*
Y-196764D01*
X930711D01*
X933335D01*
X932023D01*
Y-200700D01*
X933335Y-202012D01*
X941206D02*
X938583D01*
X937271Y-200700D01*
Y-198076D01*
X938583Y-196764D01*
X941206D01*
X942518Y-198076D01*
Y-199388D01*
X937271D01*
X914968Y-233511D02*
Y-241382D01*
X918904D01*
X920216Y-240070D01*
Y-234823D01*
X918904Y-233511D01*
X914968D01*
X924152Y-241382D02*
X926775D01*
X928087Y-240070D01*
Y-237446D01*
X926775Y-236134D01*
X924152D01*
X922840Y-237446D01*
Y-240070D01*
X924152Y-241382D01*
X935959Y-236134D02*
X932023D01*
X930711Y-237446D01*
Y-240070D01*
X932023Y-241382D01*
X935959D01*
X938583Y-236134D02*
Y-240070D01*
X939894Y-241382D01*
X943830D01*
Y-236134D01*
X946454Y-241382D02*
Y-236134D01*
X947766D01*
X949078Y-237446D01*
Y-241382D01*
Y-237446D01*
X950390Y-236134D01*
X951702Y-237446D01*
Y-241382D01*
X958261D02*
X955637D01*
X954326Y-240070D01*
Y-237446D01*
X955637Y-236134D01*
X958261D01*
X959573Y-237446D01*
Y-238758D01*
X954326D01*
X962197Y-241382D02*
Y-236134D01*
X966133D01*
X967445Y-237446D01*
Y-241382D01*
X971381Y-234823D02*
Y-236134D01*
X970068D01*
X972692D01*
X971381D01*
Y-240070D01*
X972692Y-241382D01*
D15*
X-26575Y539370D02*
X-24575Y533370D01*
X-28575D02*
X-26575Y539370D01*
X-28575Y279622D02*
X-26575Y273622D01*
X-24575Y279622D01*
X-26575Y420492D02*
Y539370D01*
Y273622D02*
Y389301D01*
X-27575Y539370D02*
X-5118D01*
X-27575Y273622D02*
X-5118D01*
X-26575Y265748D02*
X-24575Y259748D01*
X-28575D02*
X-26575Y265748D01*
X-28575Y279622D02*
X-26575Y273622D01*
X-24575Y279622D01*
X-26575Y255748D02*
Y265748D01*
Y273622D02*
Y283622D01*
X-27575Y273622D02*
X-5118D01*
X-27575Y265748D02*
X-5118D01*
X547244Y-21654D02*
X553244Y-19654D01*
X547244Y-21654D02*
X553244Y-23654D01*
X580614D02*
X586614Y-21654D01*
X580614Y-19654D02*
X586614Y-21654D01*
X547244D02*
X566929D01*
X586614D01*
X547244Y-22654D02*
Y-9154D01*
X586614Y-22654D02*
Y6890D01*
X277559Y-21654D02*
X283559Y-19654D01*
X277559Y-21654D02*
X283559Y-23654D01*
X541244D02*
X547244Y-21654D01*
X541244Y-19654D02*
X547244Y-21654D01*
X277559D02*
X395206D01*
X426397D02*
X547244D01*
X277559Y-22654D02*
Y-9055D01*
X547244Y-22654D02*
Y-9154D01*
X271559Y-23653D02*
X277559Y-21654D01*
X271559Y-19654D02*
X277559Y-21654D01*
X269685D02*
X275685Y-19654D01*
X269685Y-21654D02*
X275685Y-23653D01*
X273622Y-21654D02*
X277559D01*
X269685D02*
X273622D01*
X277559Y-22654D02*
Y-9055D01*
X269685Y-22654D02*
Y-9055D01*
X-0Y-21654D02*
X6000Y-19654D01*
X-0Y-21654D02*
X6000Y-23653D01*
X263685D02*
X269685Y-21654D01*
X263685Y-19654D02*
X269685Y-21654D01*
X-0D02*
X117647D01*
X148838D02*
X269685D01*
X-0Y-22654D02*
Y-9055D01*
X269685Y-22654D02*
Y-9055D01*
X-26575Y265748D02*
X-24575Y259748D01*
X-28575D02*
X-26575Y265748D01*
X-28575Y6000D02*
X-26575Y-0D01*
X-24575Y6000D01*
X-26575Y146870D02*
Y265748D01*
Y-0D02*
Y115679D01*
X-27575Y265748D02*
X-5118D01*
X-27575Y-0D02*
X-5118D01*
X-150575Y271715D02*
X-148576D01*
X-147576Y270715D01*
Y267717D01*
X-150575D01*
X-151575Y268716D01*
X-150575Y269716D01*
X-147576D01*
X-141578Y273714D02*
Y267717D01*
X-144577D01*
X-145577Y268716D01*
Y270715D01*
X-144577Y271715D01*
X-141578D01*
X-135580Y273714D02*
Y267717D01*
X-138579D01*
X-139579Y268716D01*
Y270715D01*
X-138579Y271715D01*
X-135580D01*
X-127583Y267717D02*
Y271715D01*
X-126583D01*
X-125583Y270715D01*
Y267717D01*
Y270715D01*
X-124583Y271715D01*
X-123584Y270715D01*
Y267717D01*
X-120585D02*
X-118585D01*
X-117586Y268716D01*
Y270715D01*
X-118585Y271715D01*
X-120585D01*
X-121584Y270715D01*
Y268716D01*
X-120585Y267717D01*
X-115586Y271715D02*
Y268716D01*
X-114587Y267717D01*
X-111588D01*
Y271715D01*
X-109588Y267717D02*
X-106589D01*
X-105590Y268716D01*
X-106589Y269716D01*
X-108589D01*
X-109588Y270715D01*
X-108589Y271715D01*
X-105590D01*
X-100591Y267717D02*
X-102591D01*
X-103590Y268716D01*
Y270715D01*
X-102591Y271715D01*
X-100591D01*
X-99592Y270715D01*
Y269716D01*
X-103590D01*
X-97592Y273714D02*
Y267717D01*
X-94593D01*
X-93594Y268716D01*
Y269716D01*
Y270715D01*
X-94593Y271715D01*
X-97592D01*
X-91594Y267717D02*
X-89595D01*
X-90595D01*
Y271715D01*
X-91594D01*
X-85596Y272715D02*
Y271715D01*
X-86596D01*
X-84597D01*
X-85596D01*
Y268716D01*
X-84597Y267717D01*
X-78598D02*
X-80598D01*
X-81597Y268716D01*
Y270715D01*
X-80598Y271715D01*
X-78598D01*
X-77599Y270715D01*
Y269716D01*
X-81597D01*
X-75599Y267717D02*
X-72600D01*
X-71601Y268716D01*
X-72600Y269716D01*
X-74600D01*
X-75599Y270715D01*
X-74600Y271715D01*
X-71601D01*
X275652Y640733D02*
Y638733D01*
X274653Y637734D01*
X271654D01*
Y640733D01*
X272653Y641732D01*
X273653Y640733D01*
Y637734D01*
X277652Y631736D02*
X271654D01*
Y634734D01*
X272653Y635734D01*
X274653D01*
X275652Y634734D01*
Y631736D01*
X277652Y625737D02*
X271654D01*
Y628736D01*
X272653Y629736D01*
X274653D01*
X275652Y628736D01*
Y625737D01*
X271654Y617740D02*
X275652D01*
Y616740D01*
X274653Y615741D01*
X271654D01*
X274653D01*
X275652Y614741D01*
X274653Y613741D01*
X271654D01*
Y610742D02*
Y608743D01*
X272653Y607743D01*
X274653D01*
X275652Y608743D01*
Y610742D01*
X274653Y611742D01*
X272653D01*
X271654Y610742D01*
X275652Y605744D02*
X272653D01*
X271654Y604744D01*
Y601745D01*
X275652D01*
X271654Y599746D02*
Y596747D01*
X272653Y595747D01*
X273653Y596747D01*
Y598746D01*
X274653Y599746D01*
X275652Y598746D01*
Y595747D01*
X271654Y590749D02*
Y592748D01*
X272653Y593748D01*
X274653D01*
X275652Y592748D01*
Y590749D01*
X274653Y589749D01*
X273653D01*
Y593748D01*
X277652Y587750D02*
X271654D01*
Y584751D01*
X272653Y583751D01*
X273653D01*
X274653D01*
X275652Y584751D01*
Y587750D01*
X271654Y581752D02*
Y579752D01*
Y580752D01*
X275652D01*
Y581752D01*
X276652Y575754D02*
X275652D01*
Y576753D01*
Y574754D01*
Y575754D01*
X272653D01*
X271654Y574754D01*
Y568756D02*
Y570755D01*
X272653Y571755D01*
X274653D01*
X275652Y570755D01*
Y568756D01*
X274653Y567756D01*
X273653D01*
Y571755D01*
X271654Y565757D02*
Y562758D01*
X272653Y561758D01*
X273653Y562758D01*
Y564757D01*
X274653Y565757D01*
X275652Y564757D01*
Y561758D01*
X549305Y591535D02*
X545306D01*
X543307Y589536D01*
X545306Y587537D01*
X549305D01*
X546306Y585537D02*
Y581539D01*
X548306Y575541D02*
X549305Y576540D01*
Y578540D01*
X548306Y579539D01*
X544307D01*
X543307Y578540D01*
Y576540D01*
X544307Y575541D01*
X549305Y573541D02*
X544307D01*
X543307Y572542D01*
Y570542D01*
X544307Y569543D01*
X549305D01*
Y567543D02*
Y563545D01*
Y565544D01*
X543307D01*
D16*
X-27974Y394899D02*
X-26974Y392900D01*
X-24975Y390901D01*
X-22976D01*
X-21976Y391900D01*
Y393900D01*
X-22976Y394899D01*
X-23975D01*
X-24975Y393900D01*
Y390901D01*
X-27974Y396899D02*
Y400897D01*
X-26974D01*
X-22976Y396899D01*
X-21976D01*
X-20976Y403896D02*
X-21976Y404896D01*
X-22976D01*
Y403896D01*
X-21976D01*
Y404896D01*
X-20976Y403896D01*
X-19977Y402897D01*
X-27974Y412893D02*
Y408895D01*
X-24975D01*
X-25975Y410894D01*
Y411894D01*
X-24975Y412893D01*
X-22976D01*
X-21976Y411894D01*
Y409895D01*
X-22976Y408895D01*
X-26974Y414893D02*
X-27974Y415893D01*
Y417892D01*
X-26974Y418892D01*
X-22976D01*
X-21976Y417892D01*
Y415893D01*
X-22976Y414893D01*
X-26974D01*
X-35772Y261087D02*
Y257089D01*
X-39771Y261087D01*
X-40771D01*
X-41770Y260088D01*
Y258088D01*
X-40771Y257089D01*
X-34773Y264086D02*
X-35772Y265086D01*
X-36772D01*
Y264086D01*
X-35772D01*
Y265086D01*
X-34773Y264086D01*
X-33773Y263087D01*
X-40771Y269085D02*
X-41770Y270084D01*
Y272084D01*
X-40771Y273083D01*
X-36772D01*
X-35772Y272084D01*
Y270084D01*
X-36772Y269085D01*
X-40771D01*
Y275083D02*
X-41770Y276082D01*
Y278082D01*
X-40771Y279082D01*
X-36772D01*
X-35772Y278082D01*
Y276082D01*
X-36772Y275083D01*
X-40771D01*
X551781Y-36771D02*
X553781D01*
X552781D01*
Y-30773D01*
X551781Y-31772D01*
X556779D02*
X557779Y-30773D01*
X559778D01*
X560778Y-31772D01*
Y-35771D01*
X559778Y-36771D01*
X557779D01*
X556779Y-35771D01*
Y-31772D01*
X563777Y-37770D02*
X564777Y-36771D01*
Y-35771D01*
X563777D01*
Y-36771D01*
X564777D01*
X563777Y-37770D01*
X562778Y-38770D01*
X568776Y-31772D02*
X569775Y-30773D01*
X571775D01*
X572774Y-31772D01*
Y-35771D01*
X571775Y-36771D01*
X569775D01*
X568776Y-35771D01*
Y-31772D01*
X574774D02*
X575773Y-30773D01*
X577773D01*
X578772Y-31772D01*
Y-35771D01*
X577773Y-36771D01*
X575773D01*
X574774Y-35771D01*
Y-31772D01*
X400805Y-20254D02*
X398805Y-21254D01*
X396806Y-23253D01*
Y-25253D01*
X397806Y-26252D01*
X399805D01*
X400805Y-25253D01*
Y-24253D01*
X399805Y-23253D01*
X396806D01*
X402804Y-21254D02*
X403804Y-20254D01*
X405803D01*
X406803Y-21254D01*
Y-22254D01*
X405803Y-23253D01*
X406803Y-24253D01*
Y-25253D01*
X405803Y-26252D01*
X403804D01*
X402804Y-25253D01*
Y-24253D01*
X403804Y-23253D01*
X402804Y-22254D01*
Y-21254D01*
X403804Y-23253D02*
X405803D01*
X409802Y-27252D02*
X410802Y-26252D01*
Y-25253D01*
X409802D01*
Y-26252D01*
X410802D01*
X409802Y-27252D01*
X408802Y-28252D01*
X418799Y-20254D02*
X414800D01*
Y-23253D01*
X416800Y-22254D01*
X417799D01*
X418799Y-23253D01*
Y-25253D01*
X417799Y-26252D01*
X415800D01*
X414800Y-25253D01*
X420798Y-21254D02*
X421798Y-20254D01*
X423797D01*
X424797Y-21254D01*
Y-25253D01*
X423797Y-26252D01*
X421798D01*
X420798Y-25253D01*
Y-21254D01*
X266410Y-34802D02*
X262411D01*
X266410Y-30803D01*
Y-29804D01*
X265410Y-28804D01*
X263411D01*
X262411Y-29804D01*
X269409Y-35802D02*
X270408Y-34802D01*
Y-33803D01*
X269409D01*
Y-34802D01*
X270408D01*
X269409Y-35802D01*
X268409Y-36802D01*
X274407Y-29804D02*
X275407Y-28804D01*
X277406D01*
X278406Y-29804D01*
Y-33803D01*
X277406Y-34802D01*
X275407D01*
X274407Y-33803D01*
Y-29804D01*
X280405D02*
X281405Y-28804D01*
X283404D01*
X284404Y-29804D01*
Y-33803D01*
X283404Y-34802D01*
X281405D01*
X280405Y-33803D01*
Y-29804D01*
X123246Y-20254D02*
X121246Y-21254D01*
X119247Y-23253D01*
Y-25253D01*
X120247Y-26252D01*
X122246D01*
X123246Y-25253D01*
Y-24253D01*
X122246Y-23253D01*
X119247D01*
X125245Y-21254D02*
X126245Y-20254D01*
X128244D01*
X129244Y-21254D01*
Y-22253D01*
X128244Y-23253D01*
X129244Y-24253D01*
Y-25253D01*
X128244Y-26252D01*
X126245D01*
X125245Y-25253D01*
Y-24253D01*
X126245Y-23253D01*
X125245Y-22253D01*
Y-21254D01*
X126245Y-23253D02*
X128244D01*
X132243Y-27252D02*
X133242Y-26252D01*
Y-25253D01*
X132243D01*
Y-26252D01*
X133242D01*
X132243Y-27252D01*
X131243Y-28252D01*
X141240Y-20254D02*
X137241D01*
Y-23253D01*
X139241Y-22253D01*
X140240D01*
X141240Y-23253D01*
Y-25253D01*
X140240Y-26252D01*
X138241D01*
X137241Y-25253D01*
X143239Y-21254D02*
X144239Y-20254D01*
X146238D01*
X147238Y-21254D01*
Y-25253D01*
X146238Y-26252D01*
X144239D01*
X143239Y-25253D01*
Y-21254D01*
X-27974Y121277D02*
X-26974Y119278D01*
X-24975Y117279D01*
X-22976D01*
X-21976Y118278D01*
Y120278D01*
X-22976Y121277D01*
X-23976D01*
X-24975Y120278D01*
Y117279D01*
X-27974Y123277D02*
Y127275D01*
X-26974D01*
X-22976Y123277D01*
X-21976D01*
X-20976Y130274D02*
X-21976Y131274D01*
X-22976D01*
Y130274D01*
X-21976D01*
Y131274D01*
X-20976Y130274D01*
X-19977Y129275D01*
X-27974Y139271D02*
Y135273D01*
X-24975D01*
X-25975Y137272D01*
Y138272D01*
X-24975Y139271D01*
X-22976D01*
X-21976Y138272D01*
Y136272D01*
X-22976Y135273D01*
X-26974Y141271D02*
X-27974Y142271D01*
Y144270D01*
X-26974Y145270D01*
X-22976D01*
X-21976Y144270D01*
Y142271D01*
X-22976Y141271D01*
X-26974D01*
D17*
X1068511Y-229571D02*
Y-190201D01*
X911031Y-150831D02*
X1186622D01*
X911031Y-190201D02*
X1186622D01*
X714181Y-229571D02*
X1186622D01*
X714181Y-111461D02*
X1186622D01*
X714181Y-268941D02*
Y-111461D01*
X911031Y-268941D02*
Y-111461D01*
X-466922Y900350D02*
X1186622D01*
Y-268941D02*
Y900350D01*
X-466922Y-268941D02*
Y900350D01*
Y-268941D02*
X1186622D01*
X924809Y-255164D02*
X920874D01*
Y-258115D01*
X922842D01*
X920874D01*
Y-261067D01*
X926777Y-257131D02*
Y-261067D01*
Y-259099D01*
X927761Y-258115D01*
X928745Y-257131D01*
X929729D01*
X932681Y-261067D02*
X934649D01*
X933665D01*
Y-257131D01*
X932681D01*
X937601Y-256147D02*
X938585Y-255164D01*
X940552D01*
X941536Y-256147D01*
Y-257131D01*
X940552Y-258115D01*
X939568D01*
X940552D01*
X941536Y-259099D01*
Y-260083D01*
X940552Y-261067D01*
X938585D01*
X937601Y-260083D01*
X943504Y-255164D02*
Y-261067D01*
X946456D01*
X947440Y-260083D01*
Y-256147D01*
X946456Y-255164D01*
X943504D01*
X949408Y-262051D02*
X953343D01*
X955311Y-255164D02*
X957279D01*
X956295D01*
Y-261067D01*
X955311D01*
X957279D01*
X960231D02*
Y-255164D01*
X963183D01*
X964167Y-256147D01*
Y-258115D01*
X963183Y-259099D01*
X960231D01*
X962199D02*
X964167Y-261067D01*
X966135D02*
Y-257131D01*
X968102Y-255164D01*
X970070Y-257131D01*
Y-261067D01*
Y-258115D01*
X966135D01*
X972038Y-262051D02*
X975974D01*
X977942Y-256147D02*
X978926Y-255164D01*
X980894D01*
X981878Y-256147D01*
Y-260083D01*
X980894Y-261067D01*
X978926D01*
X977942Y-260083D01*
Y-256147D01*
X983845Y-261067D02*
X985813D01*
X984829D01*
Y-255164D01*
X983845Y-256147D01*
X988765Y-261067D02*
Y-260083D01*
X989749D01*
Y-261067D01*
X988765D01*
X993685D02*
Y-255164D01*
X996637D01*
X997620Y-256147D01*
Y-258115D01*
X996637Y-259099D01*
X993685D01*
X1003524Y-257131D02*
X1000572D01*
X999588Y-258115D01*
Y-260083D01*
X1000572Y-261067D01*
X1003524D01*
X1005492Y-255164D02*
Y-261067D01*
X1008444D01*
X1009428Y-260083D01*
Y-259099D01*
Y-258115D01*
X1008444Y-257131D01*
X1005492D01*
X1011396Y-255164D02*
Y-261067D01*
X1014347D01*
X1015331Y-260083D01*
Y-256147D01*
X1014347Y-255164D01*
X1011396D01*
X1018283Y-261067D02*
X1020251D01*
X1021235Y-260083D01*
Y-258115D01*
X1020251Y-257131D01*
X1018283D01*
X1017299Y-258115D01*
Y-260083D01*
X1018283Y-261067D01*
X1027139Y-257131D02*
X1024187D01*
X1023203Y-258115D01*
Y-260083D01*
X1024187Y-261067D01*
X1027139D01*
D18*
X568898Y484252D02*
X580709D01*
X574803Y478346D02*
Y490157D01*
X568898Y326772D02*
X580709D01*
X574803Y320866D02*
Y332677D01*
X153110Y258032D02*
X156653D01*
X154882Y256260D02*
Y259803D01*
X153110Y248031D02*
X156653D01*
X154882Y246260D02*
Y249803D01*
X173110Y258032D02*
X176654D01*
X174882Y256260D02*
Y259803D01*
X173110Y248031D02*
X176654D01*
X174882Y246260D02*
Y249803D01*
X163110Y258032D02*
X166654D01*
X164882Y256260D02*
Y259803D01*
X163110Y248031D02*
X166654D01*
X164882Y246260D02*
Y249803D01*
X183110Y248031D02*
X186653D01*
X184882Y246260D02*
Y249803D01*
X183110Y258032D02*
X186653D01*
X184882Y256260D02*
Y259803D01*
X193110Y248031D02*
X196653D01*
X194882Y246260D02*
Y249803D01*
X193110Y258032D02*
X196653D01*
X194882Y256260D02*
Y259803D01*
X203110Y248031D02*
X206653D01*
X204882Y246260D02*
Y249803D01*
X203110Y258032D02*
X206653D01*
X204882Y256260D02*
Y259803D01*
X127992Y198031D02*
X131535D01*
X129764Y196260D02*
Y199803D01*
X117992Y198031D02*
X121535D01*
X119764Y196260D02*
Y199803D01*
X117992Y228031D02*
X121535D01*
X119764Y226260D02*
Y229803D01*
X127992Y228031D02*
X131535D01*
X129764Y226260D02*
Y229803D01*
X117992Y218032D02*
X121535D01*
X119764Y216260D02*
Y219803D01*
X127992Y218032D02*
X131535D01*
X129764Y216260D02*
Y219803D01*
X117992Y208032D02*
X121535D01*
X119764Y206260D02*
Y209803D01*
X127992Y208032D02*
X131535D01*
X129764Y206260D02*
Y209803D01*
X27756Y220472D02*
X31299D01*
X29528Y218701D02*
Y222244D01*
X37756Y220472D02*
X41299D01*
X39528Y218701D02*
Y222244D01*
X235591Y131890D02*
X239134D01*
X237362Y130118D02*
Y133661D01*
X225590Y131890D02*
X229134D01*
X227362Y130118D02*
Y133661D01*
X215591Y131890D02*
X219134D01*
X217362Y130118D02*
Y133661D01*
X205591Y131890D02*
X209134D01*
X207362Y130118D02*
Y133661D01*
X568898Y210630D02*
X580709D01*
X574803Y204724D02*
Y216535D01*
X568898Y53150D02*
X580709D01*
X574803Y47244D02*
Y59055D01*
X231968Y36220D02*
X235512D01*
X233740Y34449D02*
Y37992D01*
X221969Y36220D02*
X225512D01*
X223740Y34449D02*
Y37992D01*
X211968Y36220D02*
X215512D01*
X213740Y34449D02*
Y37992D01*
X201969Y36220D02*
X205512D01*
X203740Y34449D02*
Y37992D01*
X191969Y36220D02*
X195512D01*
X193740Y34449D02*
Y37992D01*
X181968Y36220D02*
X185512D01*
X183740Y34449D02*
Y37992D01*
X178347Y133031D02*
X181890D01*
X180118Y131260D02*
Y134803D01*
X178347Y113031D02*
X181890D01*
X180118Y111260D02*
Y114803D01*
X178347Y123031D02*
X181890D01*
X180118Y121260D02*
Y124803D01*
X14764Y54134D02*
X24606D01*
X19685Y49213D02*
Y59055D01*
X26969Y34449D02*
X36811D01*
X31890Y29528D02*
Y39370D01*
X37795Y54134D02*
X50394D01*
X44094Y47835D02*
Y60433D01*
X43110Y18032D02*
X46654D01*
X44882Y16260D02*
Y19803D01*
X43110Y8032D02*
X46654D01*
X44882Y6260D02*
Y9803D01*
X33110Y18032D02*
X36654D01*
X34882Y16260D02*
Y19803D01*
X33110Y8032D02*
X36654D01*
X34882Y6260D02*
Y9803D01*
X52559Y70866D02*
X57677D01*
X55118Y68307D02*
Y73425D01*
X32559Y70866D02*
X37677D01*
X35118Y68307D02*
Y73425D01*
X32559Y70866D02*
X37677D01*
X35118Y68307D02*
Y73425D01*
X52559Y70866D02*
X57677D01*
X55118Y68307D02*
Y73425D01*
X72559Y70866D02*
X77677D01*
X75118Y68307D02*
Y73425D01*
X100787Y111890D02*
X105905D01*
X103347Y109331D02*
Y114449D01*
X100787Y131890D02*
X105905D01*
X103347Y129331D02*
Y134449D01*
X100787Y151890D02*
X105905D01*
X103347Y149331D02*
Y154449D01*
X100787Y131890D02*
X105905D01*
X103347Y129331D02*
Y134449D01*
X100787Y111890D02*
X105905D01*
X103347Y109331D02*
Y114449D01*
X72559Y192913D02*
X77677D01*
X75118Y190354D02*
Y195472D01*
X52559Y192913D02*
X57677D01*
X55118Y190354D02*
Y195472D01*
X32559Y192913D02*
X37677D01*
X35118Y190354D02*
Y195472D01*
X247313Y91811D02*
X249675D01*
X248494Y90630D02*
Y92992D01*
X247313Y57795D02*
X249675D01*
X248494Y56614D02*
Y58976D01*
X263770Y91811D02*
X266132D01*
X264951Y90630D02*
Y92992D01*
X263770Y57795D02*
X266132D01*
X264951Y56614D02*
Y58976D01*
X249303Y86181D02*
X251862D01*
X250583Y84902D02*
Y87461D01*
X249303Y63425D02*
X251862D01*
X250583Y62146D02*
Y64705D01*
X246654Y250984D02*
X259252D01*
X252953Y244685D02*
Y257283D01*
X10433Y250984D02*
X23031D01*
X16732Y244685D02*
Y257283D01*
X10433Y14764D02*
X23031D01*
X16732Y8465D02*
Y21063D01*
X246654Y14764D02*
X259252D01*
X252953Y8465D02*
Y21063D01*
X104528Y255906D02*
X105709D01*
X105118Y255315D02*
Y256496D01*
X90748Y255906D02*
X91929D01*
X91339Y255315D02*
Y256496D01*
X98032Y235236D02*
X99213D01*
X98622Y234646D02*
Y235827D01*
X107480Y235236D02*
X108661D01*
X108071Y234646D02*
Y235827D01*
X217717Y116142D02*
X218898D01*
X218307Y115551D02*
Y116732D01*
X237204Y100393D02*
X238386D01*
X237795Y99803D02*
Y100984D01*
X242323Y111024D02*
X243504D01*
X242913Y110433D02*
Y111614D01*
X72638Y239567D02*
X73819D01*
X73228Y238976D02*
Y240158D01*
X72638Y234449D02*
X73819D01*
X73228Y233858D02*
Y235039D01*
X238583Y3937D02*
X239764D01*
X239173Y3347D02*
Y4528D01*
X264173Y28543D02*
X265354D01*
X264764Y27953D02*
Y29134D01*
X202067Y188583D02*
X203248D01*
X202658Y187992D02*
Y189173D01*
X213287Y200295D02*
X214469D01*
X213878Y199705D02*
Y200886D01*
X167618Y218799D02*
X168799D01*
X168209Y218209D02*
Y219390D01*
X124409Y70571D02*
X125591D01*
X125000Y69980D02*
Y71161D01*
X221063Y142913D02*
X222244D01*
X221654Y142323D02*
Y143504D01*
X226575Y150394D02*
X227756D01*
X227165Y149803D02*
Y150984D01*
X231693Y247410D02*
X232874D01*
X232283Y246819D02*
Y248001D01*
X228346Y247410D02*
X229528D01*
X228937Y246819D02*
Y248001D01*
X93898Y21654D02*
X95079D01*
X94488Y21063D02*
Y22244D01*
X105709Y21654D02*
X106890D01*
X106299Y21063D02*
Y22244D01*
X82087Y21654D02*
X83268D01*
X82677Y21063D02*
Y22244D01*
X93898Y9843D02*
X95079D01*
X94488Y9252D02*
Y10433D01*
X93898Y33465D02*
X95079D01*
X94488Y32874D02*
Y34055D01*
X105709Y33465D02*
X106890D01*
X106299Y32874D02*
Y34055D01*
X105709Y9843D02*
X106890D01*
X106299Y9252D02*
Y10433D01*
X82087Y9843D02*
X83268D01*
X82677Y9252D02*
Y10433D01*
X82087Y33465D02*
X83268D01*
X82677Y32874D02*
Y34055D01*
X238583Y78740D02*
X239764D01*
X239173Y78150D02*
Y79331D01*
X238583Y70866D02*
X239764D01*
X239173Y70276D02*
Y71457D01*
X223819Y53543D02*
X225000D01*
X224410Y52953D02*
Y54134D01*
X164764Y11811D02*
X165945D01*
X165354Y11220D02*
Y12402D01*
X225787Y11811D02*
X226969D01*
X226378Y11220D02*
Y12402D01*
X210039Y11811D02*
X211221D01*
X210630Y11220D02*
Y12402D01*
X180512Y11811D02*
X181693D01*
X181102Y11220D02*
Y12402D01*
X235236Y54724D02*
X236417D01*
X235827Y54134D02*
Y55315D01*
X231693Y54724D02*
X232874D01*
X232283Y54134D02*
Y55315D01*
X251772Y67323D02*
X252953D01*
X252362Y66732D02*
Y67913D01*
X251772Y81890D02*
X252953D01*
X252362Y81299D02*
Y82480D01*
X234646Y166339D02*
X235827D01*
X235236Y165748D02*
Y166929D01*
X212630Y163386D02*
X213811D01*
X213221Y162795D02*
Y163976D01*
X166732Y80709D02*
X167913D01*
X167323Y80118D02*
Y81299D01*
X166732Y66929D02*
X167913D01*
X167323Y66339D02*
Y67520D01*
X178740Y80709D02*
X179921D01*
X179331Y80118D02*
Y81299D01*
X144488Y99409D02*
X145669D01*
X145078Y98819D02*
Y100000D01*
X137598Y117126D02*
X138779D01*
X138189Y116535D02*
Y117716D01*
X137598Y139763D02*
X138779D01*
X138189Y139173D02*
Y140354D01*
X60433Y18110D02*
X61615D01*
X61024Y17519D02*
Y18700D01*
X60433Y25197D02*
X61614D01*
X61023Y24607D02*
Y25788D01*
X140551Y71850D02*
X141732D01*
X141141Y71259D02*
Y72441D01*
X183465Y57087D02*
X184646D01*
X184055Y56496D02*
Y57677D01*
X179528Y57087D02*
X180709D01*
X180118Y56496D02*
Y57677D01*
X178740Y66929D02*
X179921D01*
X179331Y66339D02*
Y67520D01*
X239173Y33464D02*
X240354D01*
X239763Y32874D02*
Y34055D01*
X188385Y121654D02*
X189567D01*
X188976Y121063D02*
Y122244D01*
X138583Y122441D02*
X139764D01*
X139173Y121850D02*
Y123031D01*
X138583Y145079D02*
X139764D01*
X139173Y144488D02*
Y145669D01*
X38169Y239567D02*
X39350D01*
X38760Y238976D02*
Y240158D01*
X70669Y229330D02*
X71850D01*
X71259Y228740D02*
Y229921D01*
X56102Y245275D02*
X57283D01*
X56693Y244685D02*
Y245866D01*
X237630Y151575D02*
X238811D01*
X238221Y150984D02*
Y152165D01*
X237630Y230315D02*
X238811D01*
X238221Y229724D02*
Y230906D01*
X238583Y247047D02*
X239764D01*
X239173Y246457D02*
Y247638D01*
X235630Y247047D02*
X236811D01*
X236221Y246457D02*
Y247638D01*
X212008Y258267D02*
X213189D01*
X212599Y257677D02*
Y258858D01*
M02*
