G04*
G04 #@! TF.GenerationSoftware,Altium Limited,Altium Designer,22.5.1 (42)*
G04*
G04 Layer_Color=2752767*
%FSLAX25Y25*%
%MOIN*%
G70*
G04*
G04 #@! TF.SameCoordinates,ACCA8245-98DC-43B2-872A-CA0FD1B1C5C3*
G04*
G04*
G04 #@! TF.FilePolarity,Positive*
G04*
G01*
G75*
%ADD10C,0.00394*%
%ADD11C,0.00591*%
%ADD13C,0.01575*%
%ADD14C,0.00984*%
%ADD15C,0.01000*%
%ADD16C,0.00600*%
%ADD17C,0.00787*%
%ADD18C,0.00200*%
%ADD19C,0.00945*%
%ADD20C,0.00827*%
G36*
X761965Y-141778D02*
X763683D01*
Y-142065D01*
X764542D01*
Y-142351D01*
X765401D01*
Y-142637D01*
X766260D01*
Y-142924D01*
X766832D01*
Y-143210D01*
X767119D01*
Y-143496D01*
X767691D01*
Y-143783D01*
X767978D01*
Y-144069D01*
X768550D01*
Y-144355D01*
X768837D01*
Y-144641D01*
X769123D01*
Y-144928D01*
X769409D01*
Y-145214D01*
X769696D01*
Y-145501D01*
X769982D01*
Y-145787D01*
X770268D01*
Y-146073D01*
Y-146359D01*
X770554D01*
Y-146646D01*
X770841D01*
Y-146932D01*
Y-147218D01*
X771127D01*
Y-147505D01*
X771414D01*
Y-147791D01*
Y-148077D01*
X771700D01*
Y-148364D01*
Y-148650D01*
Y-148936D01*
X771986D01*
Y-149223D01*
Y-149509D01*
Y-149795D01*
X772272D01*
Y-150082D01*
Y-150368D01*
Y-150654D01*
Y-150940D01*
X772559D01*
Y-151227D01*
Y-151513D01*
Y-151799D01*
Y-152086D01*
Y-152372D01*
X772845D01*
Y-152658D01*
Y-152945D01*
Y-153231D01*
Y-153517D01*
Y-153804D01*
Y-154090D01*
Y-154376D01*
Y-154663D01*
Y-154949D01*
Y-155235D01*
Y-155521D01*
Y-155808D01*
Y-156094D01*
Y-156380D01*
Y-156667D01*
Y-156953D01*
Y-157239D01*
Y-157526D01*
Y-157812D01*
Y-158098D01*
X772559D01*
Y-158385D01*
Y-158671D01*
Y-158957D01*
Y-159244D01*
Y-159530D01*
Y-159816D01*
Y-160102D01*
X772272D01*
Y-160389D01*
Y-160675D01*
Y-160961D01*
Y-161248D01*
Y-161534D01*
X771986D01*
Y-161820D01*
Y-162107D01*
Y-162393D01*
Y-162679D01*
Y-162966D01*
X771700D01*
Y-163252D01*
Y-163538D01*
Y-163824D01*
X771414D01*
Y-164111D01*
Y-164397D01*
Y-164683D01*
Y-164970D01*
X771127D01*
Y-165256D01*
Y-165542D01*
Y-165829D01*
X770841D01*
Y-166115D01*
Y-166401D01*
X770554D01*
Y-166688D01*
Y-166974D01*
Y-167260D01*
X770268D01*
Y-167547D01*
Y-167833D01*
X769982D01*
Y-168119D01*
Y-168405D01*
X769696D01*
Y-168692D01*
Y-168978D01*
X769409D01*
Y-169264D01*
X769123D01*
Y-169551D01*
Y-169837D01*
X768837D01*
Y-170123D01*
X768550D01*
Y-170410D01*
X768264D01*
Y-170696D01*
Y-170982D01*
X767978D01*
Y-171269D01*
X767691D01*
Y-171555D01*
X767405D01*
Y-171841D01*
X767119D01*
Y-172127D01*
X766832D01*
Y-172414D01*
X766260D01*
Y-172700D01*
X765974D01*
Y-172986D01*
X765401D01*
Y-173273D01*
X765115D01*
Y-173559D01*
X764542D01*
Y-173845D01*
X763683D01*
Y-174132D01*
X762824D01*
Y-174418D01*
X761965D01*
Y-174704D01*
X760247D01*
Y-174991D01*
X755094D01*
Y-174704D01*
X752517D01*
Y-174418D01*
X750513D01*
Y-174132D01*
X749081D01*
Y-173845D01*
X747649D01*
Y-173559D01*
X746218D01*
Y-173845D01*
Y-174132D01*
Y-174418D01*
Y-174704D01*
Y-174991D01*
Y-175277D01*
Y-175563D01*
X745932D01*
Y-175850D01*
Y-176136D01*
Y-176422D01*
Y-176709D01*
Y-176995D01*
Y-177281D01*
X745645D01*
Y-177568D01*
Y-177854D01*
Y-178140D01*
Y-178426D01*
Y-178713D01*
Y-178999D01*
X745359D01*
Y-179285D01*
Y-179572D01*
Y-179858D01*
Y-180144D01*
Y-180431D01*
Y-180717D01*
Y-181003D01*
X745073D01*
Y-181290D01*
Y-181576D01*
Y-181862D01*
Y-182149D01*
Y-182435D01*
Y-182721D01*
X744786D01*
Y-183007D01*
Y-183294D01*
Y-183580D01*
Y-183866D01*
Y-184153D01*
Y-184439D01*
X744500D01*
Y-184725D01*
Y-185012D01*
Y-185298D01*
Y-185584D01*
Y-185871D01*
Y-186157D01*
Y-186443D01*
X744214D01*
Y-186730D01*
Y-187016D01*
Y-187302D01*
Y-187588D01*
Y-187875D01*
Y-188161D01*
X743927D01*
Y-188447D01*
Y-188734D01*
Y-189020D01*
Y-189306D01*
Y-189593D01*
Y-189879D01*
X743641D01*
Y-190165D01*
Y-190452D01*
Y-190738D01*
Y-191024D01*
Y-191311D01*
Y-191597D01*
Y-191883D01*
X730184D01*
Y-191597D01*
X730471D01*
Y-191311D01*
Y-191024D01*
Y-190738D01*
Y-190452D01*
Y-190165D01*
X730757D01*
Y-189879D01*
Y-189593D01*
Y-189306D01*
Y-189020D01*
Y-188734D01*
Y-188447D01*
Y-188161D01*
X731043D01*
Y-187875D01*
Y-187588D01*
Y-187302D01*
Y-187016D01*
Y-186730D01*
Y-186443D01*
X731330D01*
Y-186157D01*
Y-185871D01*
Y-185584D01*
Y-185298D01*
Y-185012D01*
Y-184725D01*
X731616D01*
Y-184439D01*
Y-184153D01*
Y-183866D01*
Y-183580D01*
Y-183294D01*
Y-183007D01*
Y-182721D01*
X731902D01*
Y-182435D01*
Y-182149D01*
Y-181862D01*
Y-181576D01*
Y-181290D01*
Y-181003D01*
X732189D01*
Y-180717D01*
Y-180431D01*
Y-180144D01*
Y-179858D01*
Y-179572D01*
Y-179285D01*
X732475D01*
Y-178999D01*
Y-178713D01*
Y-178426D01*
Y-178140D01*
Y-177854D01*
Y-177568D01*
X732761D01*
Y-177281D01*
Y-176995D01*
Y-176709D01*
Y-176422D01*
Y-176136D01*
Y-175850D01*
Y-175563D01*
X733047D01*
Y-175277D01*
Y-174991D01*
Y-174704D01*
Y-174418D01*
Y-174132D01*
Y-173845D01*
X733334D01*
Y-173559D01*
Y-173273D01*
Y-172986D01*
Y-172700D01*
Y-172414D01*
Y-172127D01*
X733620D01*
Y-171841D01*
Y-171555D01*
Y-171269D01*
Y-170982D01*
Y-170696D01*
Y-170410D01*
X733907D01*
Y-170123D01*
Y-169837D01*
Y-169551D01*
Y-169264D01*
Y-168978D01*
Y-168692D01*
Y-168405D01*
X734193D01*
Y-168119D01*
Y-167833D01*
Y-167547D01*
Y-167260D01*
Y-166974D01*
Y-166688D01*
X734479D01*
Y-166401D01*
Y-166115D01*
Y-165829D01*
Y-165542D01*
Y-165256D01*
Y-164970D01*
X734765D01*
Y-164683D01*
Y-164397D01*
Y-164111D01*
Y-163824D01*
Y-163538D01*
Y-163252D01*
Y-162966D01*
X735052D01*
Y-162679D01*
Y-162393D01*
Y-162107D01*
Y-161820D01*
Y-161534D01*
Y-161248D01*
X735338D01*
Y-160961D01*
Y-160675D01*
Y-160389D01*
Y-160102D01*
Y-159816D01*
Y-159530D01*
X735624D01*
Y-159244D01*
Y-158957D01*
Y-158671D01*
Y-158385D01*
Y-158098D01*
Y-157812D01*
X735911D01*
Y-157526D01*
Y-157239D01*
Y-156953D01*
Y-156667D01*
Y-156380D01*
Y-156094D01*
Y-155808D01*
X736197D01*
Y-155521D01*
Y-155235D01*
Y-154949D01*
Y-154663D01*
Y-154376D01*
Y-154090D01*
X736483D01*
Y-153804D01*
Y-153517D01*
Y-153231D01*
Y-152945D01*
Y-152658D01*
Y-152372D01*
X736770D01*
Y-152086D01*
Y-151799D01*
Y-151513D01*
Y-151227D01*
Y-150940D01*
Y-150654D01*
Y-150368D01*
X737056D01*
Y-150082D01*
Y-149795D01*
Y-149509D01*
Y-149223D01*
Y-148936D01*
Y-148650D01*
X737342D01*
Y-148364D01*
Y-148077D01*
Y-147791D01*
Y-147505D01*
Y-147218D01*
Y-146932D01*
X737629D01*
Y-146646D01*
Y-146359D01*
Y-146073D01*
Y-145787D01*
Y-145501D01*
Y-145214D01*
Y-144928D01*
X737915D01*
Y-144641D01*
Y-144355D01*
Y-144069D01*
Y-143783D01*
Y-143496D01*
Y-143210D01*
X738201D01*
Y-142924D01*
Y-142637D01*
Y-142351D01*
Y-142065D01*
Y-141778D01*
Y-141492D01*
X761965D01*
Y-141778D01*
D02*
G37*
G36*
X793173Y-138343D02*
Y-138629D01*
X792887D01*
Y-138915D01*
Y-139202D01*
Y-139488D01*
Y-139774D01*
Y-140060D01*
Y-140347D01*
X792601D01*
Y-140633D01*
Y-140919D01*
Y-141206D01*
Y-141492D01*
Y-141778D01*
Y-142065D01*
X792314D01*
Y-142351D01*
Y-142637D01*
Y-142924D01*
Y-143210D01*
Y-143496D01*
Y-143783D01*
Y-144069D01*
X792028D01*
Y-144355D01*
Y-144641D01*
Y-144928D01*
Y-145214D01*
Y-145501D01*
Y-145787D01*
X791742D01*
Y-146073D01*
Y-146359D01*
Y-146646D01*
Y-146932D01*
Y-147218D01*
Y-147505D01*
X791455D01*
Y-147791D01*
Y-148077D01*
Y-148364D01*
Y-148650D01*
Y-148936D01*
Y-149223D01*
Y-149509D01*
X791169D01*
Y-149795D01*
Y-150082D01*
Y-150368D01*
Y-150654D01*
Y-150940D01*
Y-151227D01*
X790883D01*
Y-151513D01*
Y-151799D01*
Y-152086D01*
Y-152372D01*
Y-152658D01*
Y-152945D01*
X790596D01*
Y-153231D01*
Y-153517D01*
Y-153804D01*
Y-154090D01*
Y-154376D01*
Y-154663D01*
X790310D01*
Y-154949D01*
Y-155235D01*
Y-155521D01*
Y-155808D01*
Y-156094D01*
Y-156380D01*
Y-156667D01*
X790024D01*
Y-156953D01*
Y-157239D01*
Y-157526D01*
Y-157812D01*
Y-158098D01*
Y-158385D01*
X789738D01*
Y-158671D01*
Y-158957D01*
X790310D01*
Y-158671D01*
X790596D01*
Y-158385D01*
X790883D01*
Y-158098D01*
X791455D01*
Y-157812D01*
X791742D01*
Y-157526D01*
X792028D01*
Y-157239D01*
X792601D01*
Y-156953D01*
X793173D01*
Y-156667D01*
X793460D01*
Y-156380D01*
X794032D01*
Y-156094D01*
X794891D01*
Y-155808D01*
X795464D01*
Y-155521D01*
X796323D01*
Y-155235D01*
X797754D01*
Y-154949D01*
X804053D01*
Y-155235D01*
X805198D01*
Y-155521D01*
X806057D01*
Y-155808D01*
X806630D01*
Y-156094D01*
X806916D01*
Y-156380D01*
X807489D01*
Y-156667D01*
X807775D01*
Y-156953D01*
X808062D01*
Y-157239D01*
X808348D01*
Y-157526D01*
X808634D01*
Y-157812D01*
Y-158098D01*
X808920D01*
Y-158385D01*
Y-158671D01*
X809207D01*
Y-158957D01*
Y-159244D01*
Y-159530D01*
X809493D01*
Y-159816D01*
Y-160102D01*
Y-160389D01*
Y-160675D01*
X809779D01*
Y-160961D01*
Y-161248D01*
Y-161534D01*
Y-161820D01*
Y-162107D01*
Y-162393D01*
Y-162679D01*
Y-162966D01*
Y-163252D01*
Y-163538D01*
Y-163824D01*
Y-164111D01*
Y-164397D01*
Y-164683D01*
Y-164970D01*
Y-165256D01*
Y-165542D01*
Y-165829D01*
X809493D01*
Y-166115D01*
Y-166401D01*
Y-166688D01*
Y-166974D01*
Y-167260D01*
Y-167547D01*
Y-167833D01*
X809207D01*
Y-168119D01*
Y-168405D01*
Y-168692D01*
Y-168978D01*
Y-169264D01*
Y-169551D01*
Y-169837D01*
X808920D01*
Y-170123D01*
Y-170410D01*
Y-170696D01*
Y-170982D01*
Y-171269D01*
Y-171555D01*
X808634D01*
Y-171841D01*
Y-172127D01*
Y-172414D01*
Y-172700D01*
Y-172986D01*
Y-173273D01*
X808348D01*
Y-173559D01*
Y-173845D01*
Y-174132D01*
Y-174418D01*
Y-174704D01*
Y-174991D01*
X808062D01*
Y-175277D01*
Y-175563D01*
Y-175850D01*
Y-176136D01*
Y-176422D01*
Y-176709D01*
Y-176995D01*
X807775D01*
Y-177281D01*
Y-177568D01*
Y-177854D01*
Y-178140D01*
Y-178426D01*
Y-178713D01*
X807489D01*
Y-178999D01*
Y-179285D01*
Y-179572D01*
Y-179858D01*
Y-180144D01*
Y-180431D01*
X807203D01*
Y-180717D01*
Y-181003D01*
Y-181290D01*
Y-181576D01*
Y-181862D01*
Y-182149D01*
Y-182435D01*
X806916D01*
Y-182721D01*
Y-183007D01*
Y-183294D01*
Y-183580D01*
Y-183866D01*
Y-184153D01*
X806630D01*
Y-184439D01*
Y-184725D01*
Y-185012D01*
Y-185298D01*
Y-185584D01*
Y-185871D01*
X806344D01*
Y-186157D01*
Y-186443D01*
Y-186730D01*
Y-187016D01*
Y-187302D01*
Y-187588D01*
X806057D01*
Y-187875D01*
Y-188161D01*
Y-188447D01*
Y-188734D01*
Y-189020D01*
Y-189306D01*
Y-189593D01*
X805771D01*
Y-189879D01*
Y-190165D01*
Y-190452D01*
Y-190738D01*
Y-191024D01*
Y-191311D01*
X805485D01*
Y-191597D01*
Y-191883D01*
X792314D01*
Y-191597D01*
Y-191311D01*
X792601D01*
Y-191024D01*
Y-190738D01*
Y-190452D01*
Y-190165D01*
Y-189879D01*
Y-189593D01*
X792887D01*
Y-189306D01*
Y-189020D01*
Y-188734D01*
Y-188447D01*
Y-188161D01*
Y-187875D01*
Y-187588D01*
X793173D01*
Y-187302D01*
Y-187016D01*
Y-186730D01*
Y-186443D01*
Y-186157D01*
Y-185871D01*
X793460D01*
Y-185584D01*
Y-185298D01*
Y-185012D01*
Y-184725D01*
Y-184439D01*
Y-184153D01*
X793746D01*
Y-183866D01*
Y-183580D01*
Y-183294D01*
Y-183007D01*
Y-182721D01*
Y-182435D01*
Y-182149D01*
X794032D01*
Y-181862D01*
Y-181576D01*
Y-181290D01*
Y-181003D01*
Y-180717D01*
Y-180431D01*
X794318D01*
Y-180144D01*
Y-179858D01*
Y-179572D01*
Y-179285D01*
Y-178999D01*
Y-178713D01*
Y-178426D01*
X794605D01*
Y-178140D01*
Y-177854D01*
Y-177568D01*
Y-177281D01*
Y-176995D01*
Y-176709D01*
X794891D01*
Y-176422D01*
Y-176136D01*
Y-175850D01*
Y-175563D01*
Y-175277D01*
Y-174991D01*
X795177D01*
Y-174704D01*
Y-174418D01*
Y-174132D01*
Y-173845D01*
Y-173559D01*
Y-173273D01*
X795464D01*
Y-172986D01*
Y-172700D01*
Y-172414D01*
Y-172127D01*
Y-171841D01*
Y-171555D01*
Y-171269D01*
X795750D01*
Y-170982D01*
Y-170696D01*
Y-170410D01*
Y-170123D01*
Y-169837D01*
Y-169551D01*
X796036D01*
Y-169264D01*
Y-168978D01*
Y-168692D01*
Y-168405D01*
Y-168119D01*
Y-167833D01*
Y-167547D01*
X796323D01*
Y-167260D01*
Y-166974D01*
Y-166688D01*
Y-166401D01*
Y-166115D01*
Y-165829D01*
X796036D01*
Y-165542D01*
Y-165256D01*
X795750D01*
Y-164970D01*
X795464D01*
Y-164683D01*
X794891D01*
Y-164397D01*
X793173D01*
Y-164683D01*
X791742D01*
Y-164970D01*
X790883D01*
Y-165256D01*
X790310D01*
Y-165542D01*
X790024D01*
Y-165829D01*
X789451D01*
Y-166115D01*
X789165D01*
Y-166401D01*
X788878D01*
Y-166688D01*
Y-166974D01*
X788592D01*
Y-167260D01*
Y-167547D01*
Y-167833D01*
X788306D01*
Y-168119D01*
Y-168405D01*
Y-168692D01*
Y-168978D01*
Y-169264D01*
Y-169551D01*
X788020D01*
Y-169837D01*
Y-170123D01*
Y-170410D01*
Y-170696D01*
Y-170982D01*
Y-171269D01*
Y-171555D01*
X787733D01*
Y-171841D01*
Y-172127D01*
Y-172414D01*
Y-172700D01*
Y-172986D01*
Y-173273D01*
X787447D01*
Y-173559D01*
Y-173845D01*
Y-174132D01*
Y-174418D01*
Y-174704D01*
Y-174991D01*
X787161D01*
Y-175277D01*
Y-175563D01*
Y-175850D01*
Y-176136D01*
Y-176422D01*
Y-176709D01*
X786874D01*
Y-176995D01*
Y-177281D01*
Y-177568D01*
Y-177854D01*
Y-178140D01*
Y-178426D01*
Y-178713D01*
X786588D01*
Y-178999D01*
Y-179285D01*
Y-179572D01*
Y-179858D01*
Y-180144D01*
Y-180431D01*
X786302D01*
Y-180717D01*
Y-181003D01*
Y-181290D01*
Y-181576D01*
Y-181862D01*
Y-182149D01*
X786015D01*
Y-182435D01*
Y-182721D01*
Y-183007D01*
Y-183294D01*
Y-183580D01*
Y-183866D01*
Y-184153D01*
X785729D01*
Y-184439D01*
Y-184725D01*
Y-185012D01*
Y-185298D01*
Y-185584D01*
Y-185871D01*
X785443D01*
Y-186157D01*
Y-186443D01*
Y-186730D01*
Y-187016D01*
Y-187302D01*
Y-187588D01*
X785156D01*
Y-187875D01*
Y-188161D01*
Y-188447D01*
Y-188734D01*
Y-189020D01*
Y-189306D01*
X784870D01*
Y-189593D01*
Y-189879D01*
Y-190165D01*
Y-190452D01*
Y-190738D01*
Y-191024D01*
Y-191311D01*
X784584D01*
Y-191597D01*
Y-191883D01*
X771414D01*
Y-191597D01*
Y-191311D01*
X771700D01*
Y-191024D01*
Y-190738D01*
Y-190452D01*
Y-190165D01*
Y-189879D01*
Y-189593D01*
Y-189306D01*
X771986D01*
Y-189020D01*
Y-188734D01*
Y-188447D01*
Y-188161D01*
Y-187875D01*
Y-187588D01*
X772272D01*
Y-187302D01*
Y-187016D01*
Y-186730D01*
Y-186443D01*
Y-186157D01*
Y-185871D01*
X772559D01*
Y-185584D01*
Y-185298D01*
Y-185012D01*
Y-184725D01*
Y-184439D01*
Y-184153D01*
Y-183866D01*
X772845D01*
Y-183580D01*
Y-183294D01*
Y-183007D01*
Y-182721D01*
Y-182435D01*
Y-182149D01*
X773131D01*
Y-181862D01*
Y-181576D01*
Y-181290D01*
Y-181003D01*
Y-180717D01*
Y-180431D01*
X773418D01*
Y-180144D01*
Y-179858D01*
Y-179572D01*
Y-179285D01*
Y-178999D01*
Y-178713D01*
X773704D01*
Y-178426D01*
Y-178140D01*
Y-177854D01*
Y-177568D01*
Y-177281D01*
Y-176995D01*
Y-176709D01*
X773990D01*
Y-176422D01*
Y-176136D01*
Y-175850D01*
Y-175563D01*
Y-175277D01*
Y-174991D01*
X774277D01*
Y-174704D01*
Y-174418D01*
Y-174132D01*
Y-173845D01*
Y-173559D01*
Y-173273D01*
X774563D01*
Y-172986D01*
Y-172700D01*
Y-172414D01*
Y-172127D01*
Y-171841D01*
Y-171555D01*
Y-171269D01*
X774849D01*
Y-170982D01*
Y-170696D01*
Y-170410D01*
Y-170123D01*
Y-169837D01*
Y-169551D01*
X775136D01*
Y-169264D01*
Y-168978D01*
Y-168692D01*
Y-168405D01*
Y-168119D01*
Y-167833D01*
X775422D01*
Y-167547D01*
Y-167260D01*
Y-166974D01*
Y-166688D01*
Y-166401D01*
Y-166115D01*
X775708D01*
Y-165829D01*
Y-165542D01*
Y-165256D01*
Y-164970D01*
Y-164683D01*
Y-164397D01*
Y-164111D01*
X775994D01*
Y-163824D01*
Y-163538D01*
Y-163252D01*
Y-162966D01*
Y-162679D01*
Y-162393D01*
X776281D01*
Y-162107D01*
Y-161820D01*
Y-161534D01*
Y-161248D01*
Y-160961D01*
Y-160675D01*
X776567D01*
Y-160389D01*
Y-160102D01*
Y-159816D01*
Y-159530D01*
Y-159244D01*
Y-158957D01*
X776853D01*
Y-158671D01*
Y-158385D01*
Y-158098D01*
Y-157812D01*
Y-157526D01*
Y-157239D01*
Y-156953D01*
X777140D01*
Y-156667D01*
Y-156380D01*
Y-156094D01*
Y-155808D01*
Y-155521D01*
Y-155235D01*
X777426D01*
Y-154949D01*
Y-154663D01*
Y-154376D01*
Y-154090D01*
Y-153804D01*
Y-153517D01*
X777712D01*
Y-153231D01*
Y-152945D01*
Y-152658D01*
Y-152372D01*
Y-152086D01*
Y-151799D01*
Y-151513D01*
X777999D01*
Y-151227D01*
Y-150940D01*
Y-150654D01*
Y-150368D01*
Y-150082D01*
Y-149795D01*
X778285D01*
Y-149509D01*
Y-149223D01*
Y-148936D01*
Y-148650D01*
Y-148364D01*
Y-148077D01*
X778571D01*
Y-147791D01*
Y-147505D01*
Y-147218D01*
Y-146932D01*
Y-146646D01*
Y-146359D01*
X778858D01*
Y-146073D01*
Y-145787D01*
Y-145501D01*
Y-145214D01*
Y-144928D01*
Y-144641D01*
Y-144355D01*
X779144D01*
Y-144069D01*
Y-143783D01*
Y-143496D01*
Y-143210D01*
Y-142924D01*
Y-142637D01*
X779430D01*
Y-142351D01*
Y-142065D01*
Y-141778D01*
Y-141492D01*
Y-141206D01*
Y-140919D01*
X779716D01*
Y-140633D01*
Y-140347D01*
Y-140060D01*
Y-139774D01*
Y-139488D01*
Y-139202D01*
Y-138915D01*
X780003D01*
Y-138629D01*
Y-138343D01*
Y-138056D01*
X793173D01*
Y-138343D01*
D02*
G37*
G36*
X895101Y-155808D02*
X894814D01*
Y-156094D01*
X894528D01*
Y-156380D01*
Y-156667D01*
X894242D01*
Y-156953D01*
X893955D01*
Y-157239D01*
X893669D01*
Y-157526D01*
Y-157812D01*
X893383D01*
Y-158098D01*
X893096D01*
Y-158385D01*
X892810D01*
Y-158671D01*
X892524D01*
Y-158957D01*
Y-159244D01*
X892237D01*
Y-159530D01*
X891951D01*
Y-159816D01*
X891665D01*
Y-160102D01*
Y-160389D01*
X891378D01*
Y-160675D01*
X891092D01*
Y-160961D01*
X890806D01*
Y-161248D01*
X890520D01*
Y-161534D01*
Y-161820D01*
X890233D01*
Y-162107D01*
X889947D01*
Y-162393D01*
X889661D01*
Y-162679D01*
Y-162966D01*
X889374D01*
Y-163252D01*
X889088D01*
Y-163538D01*
X888802D01*
Y-163824D01*
Y-164111D01*
X888515D01*
Y-164397D01*
X888229D01*
Y-164683D01*
X887943D01*
Y-164970D01*
X887656D01*
Y-165256D01*
Y-165542D01*
X887370D01*
Y-165829D01*
X887084D01*
Y-166115D01*
X886798D01*
Y-166401D01*
Y-166688D01*
X886511D01*
Y-166974D01*
X886225D01*
Y-167260D01*
X885939D01*
Y-167547D01*
Y-167833D01*
X885652D01*
Y-168119D01*
X885366D01*
Y-168405D01*
X885080D01*
Y-168692D01*
X884793D01*
Y-168978D01*
Y-169264D01*
X884507D01*
Y-169551D01*
X884221D01*
Y-169837D01*
X883934D01*
Y-170123D01*
Y-170410D01*
X883648D01*
Y-170696D01*
X883362D01*
Y-170982D01*
X883076D01*
Y-171269D01*
Y-171555D01*
X882789D01*
Y-171841D01*
X882503D01*
Y-172127D01*
X882216D01*
Y-172414D01*
X881930D01*
Y-172700D01*
Y-172986D01*
X881644D01*
Y-173273D01*
X881358D01*
Y-173559D01*
X881071D01*
Y-173845D01*
Y-174132D01*
X880785D01*
Y-174418D01*
X880499D01*
Y-174704D01*
X880212D01*
Y-174991D01*
X879926D01*
Y-175277D01*
Y-175563D01*
X880212D01*
Y-175850D01*
Y-176136D01*
X880499D01*
Y-176422D01*
Y-176709D01*
X880785D01*
Y-176995D01*
X881071D01*
Y-177281D01*
Y-177568D01*
X881358D01*
Y-177854D01*
Y-178140D01*
X881644D01*
Y-178426D01*
Y-178713D01*
X881930D01*
Y-178999D01*
Y-179285D01*
X882216D01*
Y-179572D01*
Y-179858D01*
X882503D01*
Y-180144D01*
Y-180431D01*
X882789D01*
Y-180717D01*
Y-181003D01*
X883076D01*
Y-181290D01*
Y-181576D01*
X883362D01*
Y-181862D01*
X883648D01*
Y-182149D01*
Y-182435D01*
X883934D01*
Y-182721D01*
Y-183007D01*
X884221D01*
Y-183294D01*
Y-183580D01*
X884507D01*
Y-183866D01*
Y-184153D01*
X884793D01*
Y-184439D01*
Y-184725D01*
X885080D01*
Y-185012D01*
Y-185298D01*
X885366D01*
Y-185584D01*
Y-185871D01*
X885652D01*
Y-186157D01*
X885939D01*
Y-186443D01*
Y-186730D01*
X886225D01*
Y-187016D01*
Y-187302D01*
X886511D01*
Y-187588D01*
Y-187875D01*
X886798D01*
Y-188161D01*
Y-188447D01*
X887084D01*
Y-188734D01*
Y-189020D01*
X887370D01*
Y-189306D01*
Y-189593D01*
X887656D01*
Y-189879D01*
Y-190165D01*
X887943D01*
Y-190452D01*
X888229D01*
Y-190738D01*
Y-191024D01*
X888515D01*
Y-191311D01*
Y-191597D01*
X888802D01*
Y-191883D01*
X873627D01*
Y-191597D01*
X873341D01*
Y-191311D01*
Y-191024D01*
Y-190738D01*
X873055D01*
Y-190452D01*
Y-190165D01*
Y-189879D01*
X872768D01*
Y-189593D01*
Y-189306D01*
X872482D01*
Y-189020D01*
Y-188734D01*
Y-188447D01*
X872196D01*
Y-188161D01*
Y-187875D01*
Y-187588D01*
X871909D01*
Y-187302D01*
Y-187016D01*
X871623D01*
Y-186730D01*
Y-186443D01*
Y-186157D01*
X871337D01*
Y-185871D01*
Y-185584D01*
Y-185298D01*
X871050D01*
Y-185012D01*
Y-184725D01*
Y-184439D01*
X870764D01*
Y-184153D01*
X870191D01*
Y-184439D01*
Y-184725D01*
X869905D01*
Y-185012D01*
X869619D01*
Y-185298D01*
Y-185584D01*
X869332D01*
Y-185871D01*
X869046D01*
Y-186157D01*
Y-186443D01*
X868760D01*
Y-186730D01*
X868474D01*
Y-187016D01*
Y-187302D01*
X868187D01*
Y-187588D01*
X867901D01*
Y-187875D01*
X867615D01*
Y-188161D01*
Y-188447D01*
X867328D01*
Y-188734D01*
X867042D01*
Y-189020D01*
Y-189306D01*
X866756D01*
Y-189593D01*
X866469D01*
Y-189879D01*
Y-190165D01*
X866183D01*
Y-190452D01*
X865897D01*
Y-190738D01*
Y-191024D01*
X865610D01*
Y-191311D01*
X865324D01*
Y-191597D01*
Y-191883D01*
X849290D01*
Y-191597D01*
X849577D01*
Y-191311D01*
X849863D01*
Y-191024D01*
X850150D01*
Y-190738D01*
X850436D01*
Y-190452D01*
Y-190165D01*
X850722D01*
Y-189879D01*
X851008D01*
Y-189593D01*
X851295D01*
Y-189306D01*
X851581D01*
Y-189020D01*
Y-188734D01*
X851867D01*
Y-188447D01*
X852154D01*
Y-188161D01*
X852440D01*
Y-187875D01*
Y-187588D01*
X852726D01*
Y-187302D01*
X853013D01*
Y-187016D01*
X853299D01*
Y-186730D01*
X853585D01*
Y-186443D01*
Y-186157D01*
X853872D01*
Y-185871D01*
X854158D01*
Y-185584D01*
X854444D01*
Y-185298D01*
X854731D01*
Y-185012D01*
Y-184725D01*
X855017D01*
Y-184439D01*
X855303D01*
Y-184153D01*
X855589D01*
Y-183866D01*
Y-183580D01*
X855876D01*
Y-183294D01*
X856162D01*
Y-183007D01*
X856448D01*
Y-182721D01*
X856735D01*
Y-182435D01*
Y-182149D01*
X857021D01*
Y-181862D01*
X857307D01*
Y-181576D01*
X857594D01*
Y-181290D01*
Y-181003D01*
X857880D01*
Y-180717D01*
X858166D01*
Y-180431D01*
X858453D01*
Y-180144D01*
X858739D01*
Y-179858D01*
Y-179572D01*
X859025D01*
Y-179285D01*
X859311D01*
Y-178999D01*
X859598D01*
Y-178713D01*
Y-178426D01*
X859884D01*
Y-178140D01*
X860170D01*
Y-177854D01*
X860457D01*
Y-177568D01*
X860743D01*
Y-177281D01*
Y-176995D01*
X861029D01*
Y-176709D01*
X861316D01*
Y-176422D01*
X861602D01*
Y-176136D01*
X861888D01*
Y-175850D01*
Y-175563D01*
X862175D01*
Y-175277D01*
X862461D01*
Y-174991D01*
X862747D01*
Y-174704D01*
Y-174418D01*
X863034D01*
Y-174132D01*
X863320D01*
Y-173845D01*
X863606D01*
Y-173559D01*
X863892D01*
Y-173273D01*
Y-172986D01*
X864179D01*
Y-172700D01*
Y-172414D01*
Y-172127D01*
X863892D01*
Y-171841D01*
X863606D01*
Y-171555D01*
Y-171269D01*
X863320D01*
Y-170982D01*
Y-170696D01*
X863034D01*
Y-170410D01*
Y-170123D01*
X862747D01*
Y-169837D01*
Y-169551D01*
X862461D01*
Y-169264D01*
Y-168978D01*
X862175D01*
Y-168692D01*
Y-168405D01*
X861888D01*
Y-168119D01*
X861602D01*
Y-167833D01*
Y-167547D01*
X861316D01*
Y-167260D01*
Y-166974D01*
X861029D01*
Y-166688D01*
Y-166401D01*
X860743D01*
Y-166115D01*
Y-165829D01*
X860457D01*
Y-165542D01*
Y-165256D01*
X860170D01*
Y-164970D01*
Y-164683D01*
X859884D01*
Y-164397D01*
X859598D01*
Y-164111D01*
Y-163824D01*
X859311D01*
Y-163538D01*
Y-163252D01*
X859025D01*
Y-162966D01*
Y-162679D01*
X858739D01*
Y-162393D01*
Y-162107D01*
X858453D01*
Y-161820D01*
Y-161534D01*
X858166D01*
Y-161248D01*
Y-160961D01*
X857880D01*
Y-160675D01*
Y-160389D01*
X857594D01*
Y-160102D01*
X857307D01*
Y-159816D01*
Y-159530D01*
X857021D01*
Y-159244D01*
Y-158957D01*
X856735D01*
Y-158671D01*
Y-158385D01*
X856448D01*
Y-158098D01*
Y-157812D01*
X856162D01*
Y-157526D01*
Y-157239D01*
X855876D01*
Y-156953D01*
Y-156667D01*
X855589D01*
Y-156380D01*
X855303D01*
Y-156094D01*
Y-155808D01*
X855017D01*
Y-155521D01*
X870764D01*
Y-155808D01*
X871050D01*
Y-156094D01*
Y-156380D01*
Y-156667D01*
X871337D01*
Y-156953D01*
Y-157239D01*
Y-157526D01*
X871623D01*
Y-157812D01*
Y-158098D01*
Y-158385D01*
X871909D01*
Y-158671D01*
Y-158957D01*
Y-159244D01*
X872196D01*
Y-159530D01*
Y-159816D01*
Y-160102D01*
X872482D01*
Y-160389D01*
Y-160675D01*
Y-160961D01*
X872768D01*
Y-161248D01*
Y-161534D01*
Y-161820D01*
X873055D01*
Y-162107D01*
Y-162393D01*
Y-162679D01*
X873341D01*
Y-162966D01*
Y-163252D01*
Y-163538D01*
Y-163824D01*
X873913D01*
Y-163538D01*
X874200D01*
Y-163252D01*
X874486D01*
Y-162966D01*
Y-162679D01*
X874772D01*
Y-162393D01*
X875059D01*
Y-162107D01*
Y-161820D01*
X875345D01*
Y-161534D01*
X875631D01*
Y-161248D01*
Y-160961D01*
X875918D01*
Y-160675D01*
X876204D01*
Y-160389D01*
Y-160102D01*
X876490D01*
Y-159816D01*
X876777D01*
Y-159530D01*
Y-159244D01*
X877063D01*
Y-158957D01*
X877349D01*
Y-158671D01*
Y-158385D01*
X877635D01*
Y-158098D01*
X877922D01*
Y-157812D01*
Y-157526D01*
X878208D01*
Y-157239D01*
X878494D01*
Y-156953D01*
Y-156667D01*
X878781D01*
Y-156380D01*
X879067D01*
Y-156094D01*
Y-155808D01*
X879353D01*
Y-155521D01*
X895101D01*
Y-155808D01*
D02*
G37*
G36*
X851008D02*
Y-156094D01*
Y-156380D01*
Y-156667D01*
Y-156953D01*
Y-157239D01*
Y-157526D01*
Y-157812D01*
Y-158098D01*
Y-158385D01*
Y-158671D01*
Y-158957D01*
Y-159244D01*
Y-159530D01*
Y-159816D01*
Y-160102D01*
Y-160389D01*
Y-160675D01*
Y-160961D01*
Y-161248D01*
Y-161534D01*
X850722D01*
Y-161820D01*
Y-162107D01*
Y-162393D01*
Y-162679D01*
Y-162966D01*
X850436D01*
Y-163252D01*
Y-163538D01*
Y-163824D01*
Y-164111D01*
X850150D01*
Y-164397D01*
Y-164683D01*
Y-164970D01*
Y-165256D01*
X849863D01*
Y-165542D01*
Y-165829D01*
Y-166115D01*
X849577D01*
Y-166401D01*
Y-166688D01*
Y-166974D01*
X849290D01*
Y-167260D01*
Y-167547D01*
Y-167833D01*
X849004D01*
Y-168119D01*
Y-168405D01*
Y-168692D01*
X848718D01*
Y-168978D01*
Y-169264D01*
X848432D01*
Y-169551D01*
Y-169837D01*
X848145D01*
Y-170123D01*
Y-170410D01*
Y-170696D01*
X847859D01*
Y-170982D01*
Y-171269D01*
X847573D01*
Y-171555D01*
Y-171841D01*
Y-172127D01*
X847286D01*
Y-172414D01*
Y-172700D01*
X847000D01*
Y-172986D01*
Y-173273D01*
Y-173559D01*
X846714D01*
Y-173845D01*
Y-174132D01*
X846427D01*
Y-174418D01*
Y-174704D01*
Y-174991D01*
X846141D01*
Y-175277D01*
Y-175563D01*
X845855D01*
Y-175850D01*
Y-176136D01*
Y-176422D01*
X845568D01*
Y-176709D01*
Y-176995D01*
X845282D01*
Y-177281D01*
Y-177568D01*
Y-177854D01*
X844996D01*
Y-178140D01*
Y-178426D01*
X844709D01*
Y-178713D01*
Y-178999D01*
Y-179285D01*
X844423D01*
Y-179572D01*
Y-179858D01*
X844137D01*
Y-180144D01*
Y-180431D01*
Y-180717D01*
X843851D01*
Y-181003D01*
Y-181290D01*
X843564D01*
Y-181576D01*
Y-181862D01*
Y-182149D01*
X843278D01*
Y-182435D01*
Y-182721D01*
X842992D01*
Y-183007D01*
Y-183294D01*
Y-183580D01*
X842705D01*
Y-183866D01*
Y-184153D01*
X842419D01*
Y-184439D01*
Y-184725D01*
Y-185012D01*
X842133D01*
Y-185298D01*
Y-185584D01*
X841846D01*
Y-185871D01*
Y-186157D01*
Y-186443D01*
X841560D01*
Y-186730D01*
Y-187016D01*
X841274D01*
Y-187302D01*
Y-187588D01*
Y-187875D01*
X840987D01*
Y-188161D01*
Y-188447D01*
X840701D01*
Y-188734D01*
Y-189020D01*
Y-189306D01*
X840415D01*
Y-189593D01*
Y-189879D01*
X840129D01*
Y-190165D01*
Y-190452D01*
Y-190738D01*
X839842D01*
Y-191024D01*
Y-191311D01*
X839556D01*
Y-191597D01*
Y-191883D01*
Y-192169D01*
X839270D01*
Y-192456D01*
Y-192742D01*
X838983D01*
Y-193028D01*
Y-193315D01*
X838697D01*
Y-193601D01*
Y-193887D01*
X838411D01*
Y-194174D01*
Y-194460D01*
Y-194746D01*
X838124D01*
Y-195033D01*
X837838D01*
Y-195319D01*
Y-195605D01*
Y-195891D01*
X837552D01*
Y-196178D01*
X837265D01*
Y-196464D01*
Y-196750D01*
X836979D01*
Y-197037D01*
Y-197323D01*
X836693D01*
Y-197609D01*
Y-197896D01*
X836407D01*
Y-198182D01*
Y-198468D01*
X836120D01*
Y-198755D01*
X835834D01*
Y-199041D01*
Y-199327D01*
X835548D01*
Y-199614D01*
Y-199900D01*
X835261D01*
Y-200186D01*
X834975D01*
Y-200472D01*
X834689D01*
Y-200759D01*
Y-201045D01*
X834402D01*
Y-201331D01*
X834116D01*
Y-201618D01*
Y-201904D01*
X833830D01*
Y-202190D01*
X833543D01*
Y-202477D01*
X833257D01*
Y-202763D01*
Y-203049D01*
X832971D01*
Y-203336D01*
X832684D01*
Y-203622D01*
X832398D01*
Y-203908D01*
X832112D01*
Y-204195D01*
X831826D01*
Y-204481D01*
Y-204767D01*
X831539D01*
Y-205053D01*
X831253D01*
Y-205340D01*
X830966D01*
Y-205626D01*
X830680D01*
Y-205912D01*
X830394D01*
Y-206199D01*
X830108D01*
Y-206485D01*
X829821D01*
Y-206771D01*
X829249D01*
Y-207058D01*
X828962D01*
Y-207344D01*
X828676D01*
Y-207630D01*
X828390D01*
Y-207917D01*
X828103D01*
Y-208203D01*
X827531D01*
Y-208489D01*
X827244D01*
Y-208776D01*
X826672D01*
Y-209062D01*
X826385D01*
Y-209348D01*
X825813D01*
Y-209634D01*
X825527D01*
Y-209921D01*
X824954D01*
Y-210207D01*
X824381D01*
Y-210493D01*
X823809D01*
Y-210780D01*
X823236D01*
Y-211066D01*
X822663D01*
Y-211352D01*
X821805D01*
Y-211639D01*
X821232D01*
Y-211925D01*
X820373D01*
Y-212211D01*
X819228D01*
Y-212498D01*
X818082D01*
Y-212784D01*
X816365D01*
Y-213070D01*
X814360D01*
Y-213357D01*
X814074D01*
Y-213070D01*
Y-212784D01*
Y-212498D01*
Y-212211D01*
Y-211925D01*
Y-211639D01*
Y-211352D01*
Y-211066D01*
Y-210780D01*
Y-210493D01*
Y-210207D01*
Y-209921D01*
Y-209634D01*
Y-209348D01*
Y-209062D01*
Y-208776D01*
Y-208489D01*
Y-208203D01*
Y-207917D01*
Y-207630D01*
Y-207344D01*
Y-207058D01*
Y-206771D01*
Y-206485D01*
Y-206199D01*
Y-205912D01*
Y-205626D01*
Y-205340D01*
Y-205053D01*
Y-204767D01*
Y-204481D01*
Y-204195D01*
Y-203908D01*
X814647D01*
Y-203622D01*
X815219D01*
Y-203336D01*
X815792D01*
Y-203049D01*
X816365D01*
Y-202763D01*
X816937D01*
Y-202477D01*
X817510D01*
Y-202190D01*
X817796D01*
Y-201904D01*
X818369D01*
Y-201618D01*
X818655D01*
Y-201331D01*
X819228D01*
Y-201045D01*
X819514D01*
Y-200759D01*
X819800D01*
Y-200472D01*
X820373D01*
Y-200186D01*
X820659D01*
Y-199900D01*
X820946D01*
Y-199614D01*
X821232D01*
Y-199327D01*
X821518D01*
Y-199041D01*
X821805D01*
Y-198755D01*
X822091D01*
Y-198468D01*
X822377D01*
Y-198182D01*
X822663D01*
Y-197896D01*
X822950D01*
Y-197609D01*
X823236D01*
Y-197323D01*
X823522D01*
Y-197037D01*
Y-196750D01*
X823809D01*
Y-196464D01*
X824095D01*
Y-196178D01*
X824381D01*
Y-195891D01*
Y-195605D01*
X824668D01*
Y-195319D01*
X824954D01*
Y-195033D01*
Y-194746D01*
X825240D01*
Y-194460D01*
Y-194174D01*
X825527D01*
Y-193887D01*
X825813D01*
Y-193601D01*
Y-193315D01*
X826099D01*
Y-193028D01*
Y-192742D01*
X826385D01*
Y-192456D01*
Y-192169D01*
X824668D01*
Y-191883D01*
X822663D01*
Y-191597D01*
X821518D01*
Y-191311D01*
X820946D01*
Y-191024D01*
X820087D01*
Y-190738D01*
X819514D01*
Y-190452D01*
X819228D01*
Y-190165D01*
X818655D01*
Y-189879D01*
X818369D01*
Y-189593D01*
X818082D01*
Y-189306D01*
X817796D01*
Y-189020D01*
X817510D01*
Y-188734D01*
X817223D01*
Y-188447D01*
Y-188161D01*
X816937D01*
Y-187875D01*
X816651D01*
Y-187588D01*
Y-187302D01*
X816365D01*
Y-187016D01*
Y-186730D01*
X816078D01*
Y-186443D01*
Y-186157D01*
X815792D01*
Y-185871D01*
Y-185584D01*
Y-185298D01*
X815506D01*
Y-185012D01*
Y-184725D01*
Y-184439D01*
Y-184153D01*
X815219D01*
Y-183866D01*
Y-183580D01*
Y-183294D01*
Y-183007D01*
Y-182721D01*
Y-182435D01*
Y-182149D01*
X814933D01*
Y-181862D01*
Y-181576D01*
Y-181290D01*
Y-181003D01*
Y-180717D01*
Y-180431D01*
Y-180144D01*
Y-179858D01*
Y-179572D01*
Y-179285D01*
Y-178999D01*
Y-178713D01*
Y-178426D01*
Y-178140D01*
Y-177854D01*
X814647D01*
Y-177568D01*
Y-177281D01*
Y-176995D01*
Y-176709D01*
Y-176422D01*
Y-176136D01*
Y-175850D01*
Y-175563D01*
Y-175277D01*
Y-174991D01*
Y-174704D01*
Y-174418D01*
Y-174132D01*
Y-173845D01*
Y-173559D01*
X814360D01*
Y-173273D01*
Y-172986D01*
Y-172700D01*
Y-172414D01*
Y-172127D01*
Y-171841D01*
Y-171555D01*
Y-171269D01*
Y-170982D01*
Y-170696D01*
Y-170410D01*
Y-170123D01*
Y-169837D01*
Y-169551D01*
Y-169264D01*
Y-168978D01*
X814074D01*
Y-168692D01*
Y-168405D01*
Y-168119D01*
Y-167833D01*
Y-167547D01*
Y-167260D01*
Y-166974D01*
Y-166688D01*
Y-166401D01*
Y-166115D01*
Y-165829D01*
Y-165542D01*
Y-165256D01*
Y-164970D01*
Y-164683D01*
Y-164397D01*
X813788D01*
Y-164111D01*
Y-163824D01*
Y-163538D01*
Y-163252D01*
Y-162966D01*
Y-162679D01*
Y-162393D01*
Y-162107D01*
Y-161820D01*
Y-161534D01*
Y-161248D01*
Y-160961D01*
Y-160675D01*
Y-160389D01*
X813501D01*
Y-160102D01*
Y-159816D01*
Y-159530D01*
Y-159244D01*
Y-158957D01*
Y-158671D01*
Y-158385D01*
Y-158098D01*
Y-157812D01*
Y-157526D01*
Y-157239D01*
Y-156953D01*
Y-156667D01*
Y-156380D01*
Y-156094D01*
Y-155808D01*
X813215D01*
Y-155521D01*
X826958D01*
Y-155808D01*
Y-156094D01*
Y-156380D01*
Y-156667D01*
Y-156953D01*
Y-157239D01*
Y-157526D01*
Y-157812D01*
Y-158098D01*
Y-158385D01*
Y-158671D01*
Y-158957D01*
Y-159244D01*
Y-159530D01*
X827244D01*
Y-159816D01*
Y-160102D01*
Y-160389D01*
Y-160675D01*
Y-160961D01*
Y-161248D01*
Y-161534D01*
Y-161820D01*
Y-162107D01*
Y-162393D01*
Y-162679D01*
Y-162966D01*
Y-163252D01*
Y-163538D01*
Y-163824D01*
Y-164111D01*
Y-164397D01*
Y-164683D01*
Y-164970D01*
Y-165256D01*
Y-165542D01*
Y-165829D01*
Y-166115D01*
Y-166401D01*
Y-166688D01*
Y-166974D01*
Y-167260D01*
Y-167547D01*
Y-167833D01*
Y-168119D01*
Y-168405D01*
Y-168692D01*
Y-168978D01*
Y-169264D01*
Y-169551D01*
Y-169837D01*
Y-170123D01*
Y-170410D01*
Y-170696D01*
Y-170982D01*
Y-171269D01*
X827531D01*
Y-171555D01*
X827244D01*
Y-171841D01*
Y-172127D01*
X827531D01*
Y-172414D01*
Y-172700D01*
Y-172986D01*
Y-173273D01*
Y-173559D01*
Y-173845D01*
Y-174132D01*
Y-174418D01*
Y-174704D01*
Y-174991D01*
Y-175277D01*
Y-175563D01*
Y-175850D01*
Y-176136D01*
Y-176422D01*
Y-176709D01*
Y-176995D01*
Y-177281D01*
Y-177568D01*
Y-177854D01*
Y-178140D01*
Y-178426D01*
Y-178713D01*
Y-178999D01*
Y-179285D01*
Y-179572D01*
X827817D01*
Y-179858D01*
Y-180144D01*
Y-180431D01*
X828103D01*
Y-180717D01*
X828390D01*
Y-181003D01*
X828676D01*
Y-181290D01*
X829535D01*
Y-181576D01*
X830394D01*
Y-181290D01*
X830680D01*
Y-181003D01*
Y-180717D01*
Y-180431D01*
X830966D01*
Y-180144D01*
Y-179858D01*
X831253D01*
Y-179572D01*
Y-179285D01*
Y-178999D01*
X831539D01*
Y-178713D01*
Y-178426D01*
Y-178140D01*
X831826D01*
Y-177854D01*
Y-177568D01*
Y-177281D01*
X832112D01*
Y-176995D01*
Y-176709D01*
Y-176422D01*
X832398D01*
Y-176136D01*
Y-175850D01*
X832684D01*
Y-175563D01*
Y-175277D01*
Y-174991D01*
X832971D01*
Y-174704D01*
Y-174418D01*
Y-174132D01*
X833257D01*
Y-173845D01*
Y-173559D01*
Y-173273D01*
X833543D01*
Y-172986D01*
Y-172700D01*
X833830D01*
Y-172414D01*
Y-172127D01*
Y-171841D01*
X834116D01*
Y-171555D01*
Y-171269D01*
Y-170982D01*
X834402D01*
Y-170696D01*
Y-170410D01*
Y-170123D01*
X834689D01*
Y-169837D01*
Y-169551D01*
X834975D01*
Y-169264D01*
Y-168978D01*
Y-168692D01*
X835261D01*
Y-168405D01*
Y-168119D01*
Y-167833D01*
X835548D01*
Y-167547D01*
Y-167260D01*
Y-166974D01*
X835834D01*
Y-166688D01*
Y-166401D01*
X836120D01*
Y-166115D01*
Y-165829D01*
Y-165542D01*
X836407D01*
Y-165256D01*
Y-164970D01*
Y-164683D01*
X836693D01*
Y-164397D01*
Y-164111D01*
Y-163824D01*
X836979D01*
Y-163538D01*
Y-163252D01*
Y-162966D01*
Y-162679D01*
X837265D01*
Y-162393D01*
Y-162107D01*
Y-161820D01*
Y-161534D01*
X837552D01*
Y-161248D01*
Y-160961D01*
Y-160675D01*
Y-160389D01*
Y-160102D01*
X837838D01*
Y-159816D01*
Y-159530D01*
Y-159244D01*
Y-158957D01*
Y-158671D01*
Y-158385D01*
X838124D01*
Y-158098D01*
Y-157812D01*
Y-157526D01*
Y-157239D01*
Y-156953D01*
Y-156667D01*
Y-156380D01*
Y-156094D01*
Y-155808D01*
Y-155521D01*
X851008D01*
Y-155808D01*
D02*
G37*
%LPC*%
G36*
X757670Y-152658D02*
X749654D01*
Y-152945D01*
Y-153231D01*
Y-153517D01*
Y-153804D01*
Y-154090D01*
X749367D01*
Y-154376D01*
Y-154663D01*
Y-154949D01*
Y-155235D01*
Y-155521D01*
Y-155808D01*
X749081D01*
Y-156094D01*
Y-156380D01*
Y-156667D01*
Y-156953D01*
Y-157239D01*
Y-157526D01*
X748795D01*
Y-157812D01*
Y-158098D01*
Y-158385D01*
Y-158671D01*
Y-158957D01*
Y-159244D01*
X748508D01*
Y-159530D01*
Y-159816D01*
Y-160102D01*
Y-160389D01*
Y-160675D01*
Y-160961D01*
Y-161248D01*
X748222D01*
Y-161534D01*
Y-161820D01*
Y-162107D01*
Y-162393D01*
Y-162679D01*
Y-162966D01*
X747936D01*
Y-163252D01*
Y-163538D01*
Y-163824D01*
X755094D01*
Y-163538D01*
X756239D01*
Y-163252D01*
X756812D01*
Y-162966D01*
X757098D01*
Y-162679D01*
X757384D01*
Y-162393D01*
X757670D01*
Y-162107D01*
X757957D01*
Y-161820D01*
Y-161534D01*
X758243D01*
Y-161248D01*
Y-160961D01*
X758529D01*
Y-160675D01*
Y-160389D01*
X758816D01*
Y-160102D01*
Y-159816D01*
Y-159530D01*
Y-159244D01*
X759102D01*
Y-158957D01*
Y-158671D01*
Y-158385D01*
Y-158098D01*
Y-157812D01*
X759388D01*
Y-157526D01*
Y-157239D01*
Y-156953D01*
Y-156667D01*
Y-156380D01*
Y-156094D01*
Y-155808D01*
Y-155521D01*
Y-155235D01*
Y-154949D01*
Y-154663D01*
X759102D01*
Y-154376D01*
Y-154090D01*
X758816D01*
Y-153804D01*
Y-153517D01*
X758529D01*
Y-153231D01*
X758243D01*
Y-152945D01*
X757670D01*
Y-152658D01*
D02*
G37*
%LPD*%
D10*
X82677Y176102D02*
G03*
X77677Y181102I-5000J0D01*
G01*
Y82677D02*
G03*
X82677Y87677I0J5000D01*
G01*
X147638Y14764D02*
G03*
X122047Y14764I-12795J0D01*
G01*
X122047Y250984D02*
G03*
X147638Y250984I12795J0D01*
G01*
X-0Y6890D02*
Y82677D01*
X-0Y181102D02*
Y258858D01*
X0Y6890D02*
X6890Y0D01*
X0Y258858D02*
X6890Y265748D01*
X-0Y82677D02*
X77677Y82677D01*
X-0Y181102D02*
X77677Y181102D01*
X6890Y-0D02*
X122047D01*
X6890Y265748D02*
X122047D01*
X82677Y87677D02*
Y176102D01*
X122047Y-0D02*
Y14764D01*
X122047Y250984D02*
Y265748D01*
X147638Y-0D02*
Y14764D01*
X147638Y250984D02*
Y265748D01*
X147638Y-0D02*
X262795Y-0D01*
X147638Y265748D02*
X262795Y265748D01*
X262795Y265748D02*
X269685Y258858D01*
X262795Y0D02*
X269685Y6890D01*
X269685Y258858D01*
X269685D02*
X269685D01*
D11*
X361640Y667104D02*
G03*
X361640Y667104I-1050J0D01*
G01*
X362340D02*
G03*
X362340Y667104I-1750J0D01*
G01*
Y651356D02*
G03*
X362340Y651356I-1750J0D01*
G01*
X355681Y718110D02*
X886584D01*
X355681Y639370D02*
X886584D01*
X355681Y631496D02*
X886584D01*
Y725984D01*
X355681D02*
X886584D01*
X355681Y631496D02*
Y725984D01*
X812746Y631496D02*
Y725984D01*
X754364Y631496D02*
Y725984D01*
X691784Y631496D02*
Y725984D01*
X652425Y631496D02*
Y725984D01*
X621252Y631496D02*
Y725984D01*
X542404Y631496D02*
Y725984D01*
X503674Y631496D02*
Y725984D01*
X476909Y631496D02*
Y725984D01*
X415378Y631496D02*
Y725984D01*
X384809Y631496D02*
Y725984D01*
X359716Y713473D02*
X360590Y712598D01*
X358841Y713473D02*
X359716D01*
X358841D02*
X359716Y714348D01*
X358841Y715223D02*
X359716Y714348D01*
X358841Y715223D02*
X359716D01*
X360590Y716098D01*
X361465Y715223D01*
X362340D01*
X361465Y714348D02*
X362340Y715223D01*
X361465Y714348D02*
X362340Y713473D01*
X361465D02*
X362340D01*
X360590Y712598D02*
X361465Y713473D01*
X358841Y704724D02*
Y705599D01*
X359716Y706474D01*
X358841Y707349D02*
X359716Y706474D01*
X358841Y707349D02*
Y708224D01*
X359716D01*
X360590Y707349D01*
X361465Y708224D01*
X362340D01*
Y707349D02*
Y708224D01*
X361465Y706474D02*
X362340Y707349D01*
X361465Y706474D02*
X362340Y705599D01*
Y704724D02*
Y705599D01*
X361465Y704724D02*
X362340D01*
X360590Y705599D02*
X361465Y704724D01*
X359716D02*
X360590Y705599D01*
X358841Y704724D02*
X359716D01*
X358841Y698600D02*
X360590Y696850D01*
X362340Y698600D01*
X360590Y700350D02*
X362340Y698600D01*
X358841D02*
X360590Y700350D01*
X358841Y689851D02*
X359716D01*
X358841D02*
Y691601D01*
X359716D01*
Y692476D01*
X361465D01*
Y691601D02*
Y692476D01*
Y691601D02*
X362340D01*
Y689851D02*
Y691601D01*
X361465Y689851D02*
X362340D01*
X361465Y688976D02*
Y689851D01*
X359716Y688976D02*
X361465D01*
X359716D02*
Y689851D01*
X358841Y681102D02*
X360590Y681977D01*
X362340Y681102D01*
X361465Y682852D02*
X362340Y681102D01*
X361465Y682852D02*
X362340Y684602D01*
X360590Y683727D02*
X362340Y684602D01*
X358841D02*
X360590Y683727D01*
X358841Y684602D02*
X359716Y682852D01*
X358841Y681102D02*
X359716Y682852D01*
X359541Y673928D02*
X361640D01*
Y676028D01*
X359541D02*
X361640D01*
X359541Y673928D02*
Y676028D01*
X358841Y673228D02*
X362340D01*
Y676728D01*
X358841D02*
X362340D01*
X358841Y673228D02*
Y676728D01*
X360590Y657480D02*
X362340Y660980D01*
X358841D02*
X362340D01*
X358841D02*
X360590Y657480D01*
X358841Y641732D02*
X362340D01*
Y645232D01*
X358841D02*
X362340D01*
X358841Y641732D02*
Y645232D01*
X815109Y714173D02*
X817208D01*
X815109Y707348D02*
X815633Y707873D01*
X816683D01*
X817208Y707348D01*
Y705249D01*
X816683Y704724D01*
X815633D01*
X815109Y705249D01*
Y707348D01*
X818782Y704200D02*
X819307Y704724D01*
Y705249D01*
X818782D01*
Y704724D01*
X819307D01*
X818782Y704200D01*
X818257Y703675D01*
X823505Y707873D02*
X822455Y707348D01*
X821406Y706299D01*
Y705249D01*
X821931Y704724D01*
X822980D01*
X823505Y705249D01*
Y705774D01*
X822980Y706299D01*
X821406D01*
X824554Y707348D02*
X825079Y707873D01*
X826129D01*
X826653Y707348D01*
Y705249D01*
X826129Y704724D01*
X825079D01*
X824554Y705249D01*
Y707348D01*
X827703D02*
X828228Y707873D01*
X829277D01*
X829802Y707348D01*
Y705249D01*
X829277Y704724D01*
X828228D01*
X827703Y705249D01*
Y707348D01*
X830852Y704724D02*
Y706823D01*
X831376D01*
X831901Y706299D01*
Y704724D01*
Y706299D01*
X832426Y706823D01*
X832951Y706299D01*
Y704724D01*
X834000D02*
Y706823D01*
X834525D01*
X835050Y706299D01*
Y704724D01*
Y706299D01*
X835575Y706823D01*
X836099Y706299D01*
Y704724D01*
X841347D02*
X840297Y705774D01*
Y706823D01*
X841347Y707873D01*
X845020Y704724D02*
X842921D01*
X845020Y706823D01*
Y707348D01*
X844495Y707873D01*
X843446D01*
X842921Y707348D01*
X846070D02*
X846595Y707873D01*
X847644D01*
X848169Y707348D01*
Y706823D01*
X847644Y706299D01*
X847119D01*
X847644D01*
X848169Y705774D01*
Y705249D01*
X847644Y704724D01*
X846595D01*
X846070Y705249D01*
X849743Y704200D02*
X850268Y704724D01*
Y705249D01*
X849743D01*
Y704724D01*
X850268D01*
X849743Y704200D01*
X849218Y703675D01*
X854466Y707873D02*
X853417Y707348D01*
X852367Y706299D01*
Y705249D01*
X852892Y704724D01*
X853941D01*
X854466Y705249D01*
Y705774D01*
X853941Y706299D01*
X852367D01*
X857615Y704724D02*
X855515D01*
X857615Y706823D01*
Y707348D01*
X857090Y707873D01*
X856040D01*
X855515Y707348D01*
X858664Y704724D02*
Y706823D01*
X859189D01*
X859714Y706299D01*
Y704724D01*
Y706299D01*
X860238Y706823D01*
X860763Y706299D01*
Y704724D01*
X861813D02*
X862862D01*
X862337D01*
Y706823D01*
X861813D01*
X864437Y704724D02*
X865486D01*
X864961D01*
Y707873D01*
X864437D01*
X867060Y704724D02*
X868110Y705774D01*
Y706823D01*
X867060Y707873D01*
X815109Y696850D02*
X816158D01*
X815633D01*
Y699999D01*
X815109Y699474D01*
X818257Y696326D02*
X818782Y696850D01*
Y697375D01*
X818257D01*
Y696850D01*
X818782D01*
X818257Y696326D01*
X817733Y695801D01*
X820881Y696850D02*
X821931D01*
X821406D01*
Y699999D01*
X820881Y699474D01*
X823505D02*
X824030Y699999D01*
X825079D01*
X825604Y699474D01*
Y697375D01*
X825079Y696850D01*
X824030D01*
X823505Y697375D01*
Y699474D01*
X826653D02*
X827178Y699999D01*
X828228D01*
X828753Y699474D01*
Y697375D01*
X828228Y696850D01*
X827178D01*
X826653Y697375D01*
Y699474D01*
X829802Y696850D02*
Y698949D01*
X830327D01*
X830852Y698425D01*
Y696850D01*
Y698425D01*
X831376Y698949D01*
X831901Y698425D01*
Y696850D01*
X832951D02*
Y698949D01*
X833475D01*
X834000Y698425D01*
Y696850D01*
Y698425D01*
X834525Y698949D01*
X835050Y698425D01*
Y696850D01*
X840297D02*
X839248Y697900D01*
Y698949D01*
X840297Y699999D01*
X843446Y696850D02*
Y699999D01*
X841872Y698425D01*
X843971D01*
X845020Y699474D02*
X845545Y699999D01*
X846595D01*
X847119Y699474D01*
Y698949D01*
X846595Y698425D01*
X846070D01*
X846595D01*
X847119Y697900D01*
Y697375D01*
X846595Y696850D01*
X845545D01*
X845020Y697375D01*
X848694Y696326D02*
X849218Y696850D01*
Y697375D01*
X848694D01*
Y696850D01*
X849218D01*
X848694Y696326D01*
X848169Y695801D01*
X851317Y699474D02*
X851842Y699999D01*
X852892D01*
X853417Y699474D01*
Y698949D01*
X852892Y698425D01*
X852367D01*
X852892D01*
X853417Y697900D01*
Y697375D01*
X852892Y696850D01*
X851842D01*
X851317Y697375D01*
X854466Y696850D02*
X855516D01*
X854991D01*
Y699999D01*
X854466Y699474D01*
X857090Y696850D02*
Y698949D01*
X857615D01*
X858139Y698425D01*
Y696850D01*
Y698425D01*
X858664Y698949D01*
X859189Y698425D01*
Y696850D01*
X860238D02*
X861288D01*
X860763D01*
Y698949D01*
X860238D01*
X862862Y696850D02*
X863912D01*
X863387D01*
Y699999D01*
X862862D01*
X865486Y696850D02*
X866536Y697900D01*
Y698949D01*
X865486Y699999D01*
X815109Y690551D02*
X817208D01*
X815109Y682677D02*
X817208D01*
X815109Y674803D02*
X817208D01*
X815109Y666929D02*
X817208D01*
X815109Y659055D02*
X817208D01*
X815109Y651181D02*
X817208D01*
X815109Y643307D02*
X817208D01*
X756727Y714173D02*
X758826D01*
X756727Y704724D02*
X757776D01*
X757251D01*
Y707873D01*
X756727Y707348D01*
X759875Y704200D02*
X760400Y704724D01*
Y705249D01*
X759875D01*
Y704724D01*
X760400D01*
X759875Y704200D01*
X759350Y703675D01*
X764598Y704724D02*
X762499D01*
X764598Y706823D01*
Y707348D01*
X764073Y707873D01*
X763024D01*
X762499Y707348D01*
X765648D02*
X766172Y707873D01*
X767222D01*
X767747Y707348D01*
Y705249D01*
X767222Y704724D01*
X766172D01*
X765648Y705249D01*
Y707348D01*
X768796D02*
X769321Y707873D01*
X770370D01*
X770895Y707348D01*
Y705249D01*
X770370Y704724D01*
X769321D01*
X768796Y705249D01*
Y707348D01*
X771945Y704724D02*
Y706823D01*
X772470D01*
X772994Y706299D01*
Y704724D01*
Y706299D01*
X773519Y706823D01*
X774044Y706299D01*
Y704724D01*
X775093D02*
Y706823D01*
X775618D01*
X776143Y706299D01*
Y704724D01*
Y706299D01*
X776668Y706823D01*
X777192Y706299D01*
Y704724D01*
X782440D02*
X781391Y705774D01*
Y706823D01*
X782440Y707873D01*
X785589Y704724D02*
Y707873D01*
X784014Y706299D01*
X786114D01*
X787163Y707873D02*
X789262D01*
Y707348D01*
X787163Y705249D01*
Y704724D01*
X790836Y704200D02*
X791361Y704724D01*
Y705249D01*
X790836D01*
Y704724D01*
X791361D01*
X790836Y704200D01*
X790312Y703675D01*
X795559Y704724D02*
X793460D01*
X795559Y706823D01*
Y707348D01*
X795035Y707873D01*
X793985D01*
X793460Y707348D01*
X798183Y704724D02*
Y707873D01*
X796609Y706299D01*
X798708D01*
X799757Y704724D02*
Y706823D01*
X800282D01*
X800807Y706299D01*
Y704724D01*
Y706299D01*
X801332Y706823D01*
X801856Y706299D01*
Y704724D01*
X802906D02*
X803955D01*
X803431D01*
Y706823D01*
X802906D01*
X805530Y704724D02*
X806579D01*
X806055D01*
Y707873D01*
X805530D01*
X808154Y704724D02*
X809203Y705774D01*
Y706823D01*
X808154Y707873D01*
X756727Y696850D02*
X757776D01*
X757251D01*
Y699999D01*
X756727Y699474D01*
X759875Y696326D02*
X760400Y696850D01*
Y697375D01*
X759875D01*
Y696850D01*
X760400D01*
X759875Y696326D01*
X759350Y695801D01*
X762499Y699999D02*
X764598D01*
Y699474D01*
X762499Y697375D01*
Y696850D01*
X765648Y699474D02*
X766172Y699999D01*
X767222D01*
X767747Y699474D01*
Y697375D01*
X767222Y696850D01*
X766172D01*
X765648Y697375D01*
Y699474D01*
X768796D02*
X769321Y699999D01*
X770370D01*
X770895Y699474D01*
Y697375D01*
X770370Y696850D01*
X769321D01*
X768796Y697375D01*
Y699474D01*
X771945Y696850D02*
Y698949D01*
X772470D01*
X772994Y698425D01*
Y696850D01*
Y698425D01*
X773519Y698949D01*
X774044Y698425D01*
Y696850D01*
X775093D02*
Y698949D01*
X775618D01*
X776143Y698425D01*
Y696850D01*
Y698425D01*
X776668Y698949D01*
X777192Y698425D01*
Y696850D01*
X782440D02*
X781391Y697900D01*
Y698949D01*
X782440Y699999D01*
X786114D02*
X785064Y699474D01*
X784014Y698425D01*
Y697375D01*
X784539Y696850D01*
X785589D01*
X786114Y697375D01*
Y697900D01*
X785589Y698425D01*
X784014D01*
X789262Y699999D02*
X788212Y699474D01*
X787163Y698425D01*
Y697375D01*
X787688Y696850D01*
X788737D01*
X789262Y697375D01*
Y697900D01*
X788737Y698425D01*
X787163D01*
X790836Y696326D02*
X791361Y696850D01*
Y697375D01*
X790836D01*
Y696850D01*
X791361D01*
X790836Y696326D01*
X790312Y695801D01*
X793460Y697375D02*
X793985Y696850D01*
X795035D01*
X795559Y697375D01*
Y699474D01*
X795035Y699999D01*
X793985D01*
X793460Y699474D01*
Y698949D01*
X793985Y698425D01*
X795559D01*
X796609Y699474D02*
X797134Y699999D01*
X798183D01*
X798708Y699474D01*
Y698949D01*
X798183Y698425D01*
X797658D01*
X798183D01*
X798708Y697900D01*
Y697375D01*
X798183Y696850D01*
X797134D01*
X796609Y697375D01*
X799757Y696850D02*
Y698949D01*
X800282D01*
X800807Y698425D01*
Y696850D01*
Y698425D01*
X801332Y698949D01*
X801856Y698425D01*
Y696850D01*
X802906D02*
X803955D01*
X803431D01*
Y698949D01*
X802906D01*
X805530Y696850D02*
X806579D01*
X806055D01*
Y699999D01*
X805530D01*
X808154Y696850D02*
X809203Y697900D01*
Y698949D01*
X808154Y699999D01*
X756727Y690551D02*
X758826D01*
X756727Y682677D02*
X758826D01*
X756727Y674803D02*
X758826D01*
X756727Y666929D02*
X758826D01*
X756727Y659055D02*
X758826D01*
X756727Y651181D02*
X758826D01*
X756727Y643307D02*
X758826D01*
X696246Y714698D02*
X694671D01*
X694146Y714173D01*
Y713123D01*
X694671Y712598D01*
X696246D01*
X699394Y715747D02*
X697295D01*
Y714173D01*
X698345Y714698D01*
X698869D01*
X699394Y714173D01*
Y713123D01*
X698869Y712598D01*
X697820D01*
X697295Y713123D01*
X700444Y715222D02*
X700969Y715747D01*
X702018D01*
X702543Y715222D01*
Y713123D01*
X702018Y712598D01*
X700969D01*
X700444Y713123D01*
Y715222D01*
X703592D02*
X704117Y715747D01*
X705167D01*
X705691Y715222D01*
Y713123D01*
X705167Y712598D01*
X704117D01*
X703592Y713123D01*
Y715222D01*
X706741Y715747D02*
Y712598D01*
Y714173D01*
X707266Y714698D01*
X708315D01*
X708840Y714173D01*
Y712598D01*
X709890Y715222D02*
X710414Y715747D01*
X711464D01*
X711988Y715222D01*
Y714698D01*
X711464Y714173D01*
X710939D01*
X711464D01*
X711988Y713648D01*
Y713123D01*
X711464Y712598D01*
X710414D01*
X709890Y713123D01*
X715137Y712598D02*
X713038D01*
X715137Y714698D01*
Y715222D01*
X714612Y715747D01*
X713563D01*
X713038Y715222D01*
X716187D02*
X716711Y715747D01*
X717761D01*
X718286Y715222D01*
Y713123D01*
X717761Y712598D01*
X716711D01*
X716187Y713123D01*
Y715222D01*
X694146Y706823D02*
Y704724D01*
Y705774D01*
X694671Y706299D01*
X695196Y706823D01*
X695721D01*
X697295Y704724D02*
X698345D01*
X697820D01*
Y707873D01*
X697295Y707348D01*
X699919D02*
X700444Y707873D01*
X701493D01*
X702018Y707348D01*
Y705249D01*
X701493Y704724D01*
X700444D01*
X699919Y705249D01*
Y707348D01*
X703067D02*
X703592Y707873D01*
X704642D01*
X705167Y707348D01*
Y705249D01*
X704642Y704724D01*
X703592D01*
X703067Y705249D01*
Y707348D01*
X706216Y704200D02*
X708315D01*
X709365Y704724D02*
X710414D01*
X709890D01*
Y707873D01*
X709365Y707348D01*
X714088Y707873D02*
X713038Y707348D01*
X711988Y706299D01*
Y705249D01*
X712513Y704724D01*
X713563D01*
X714088Y705249D01*
Y705774D01*
X713563Y706299D01*
X711988D01*
X715137Y707348D02*
X715662Y707873D01*
X716711D01*
X717236Y707348D01*
Y705249D01*
X716711Y704724D01*
X715662D01*
X715137Y705249D01*
Y707348D01*
X718286Y707873D02*
Y704724D01*
Y706299D01*
X718811Y706823D01*
X719860D01*
X720385Y706299D01*
Y704724D01*
X723533Y707873D02*
X722484Y707348D01*
X721434Y706299D01*
Y705249D01*
X721959Y704724D01*
X723009D01*
X723533Y705249D01*
Y705774D01*
X723009Y706299D01*
X721434D01*
X724583Y707348D02*
X725108Y707873D01*
X726157D01*
X726682Y707348D01*
Y705249D01*
X726157Y704724D01*
X725108D01*
X724583Y705249D01*
Y707348D01*
X727732Y704200D02*
X729831D01*
X730880Y704724D02*
X731930D01*
X731405D01*
Y707873D01*
X730880Y707348D01*
X735603Y704724D02*
X733504D01*
X735603Y706823D01*
Y707348D01*
X735078Y707873D01*
X734029D01*
X733504Y707348D01*
X736653D02*
X737177Y707873D01*
X738227D01*
X738752Y707348D01*
Y705249D01*
X738227Y704724D01*
X737177D01*
X736653Y705249D01*
Y707348D01*
X739801Y706823D02*
Y704724D01*
Y705774D01*
X740326Y706299D01*
X740851Y706823D01*
X741375D01*
X742950Y704724D02*
X743999D01*
X743474D01*
Y707873D01*
X742950Y707348D01*
X745574D02*
X746098Y707873D01*
X747148D01*
X747673Y707348D01*
Y705249D01*
X747148Y704724D01*
X746098D01*
X745574Y705249D01*
Y707348D01*
X748722D02*
X749247Y707873D01*
X750296D01*
X750821Y707348D01*
Y705249D01*
X750296Y704724D01*
X749247D01*
X748722Y705249D01*
Y707348D01*
X694146Y698949D02*
Y696850D01*
Y697900D01*
X694671Y698425D01*
X695196Y698949D01*
X695721D01*
X697295Y696850D02*
X698345D01*
X697820D01*
Y699999D01*
X697295Y699474D01*
X699919D02*
X700444Y699999D01*
X701493D01*
X702018Y699474D01*
Y697375D01*
X701493Y696850D01*
X700444D01*
X699919Y697375D01*
Y699474D01*
X703067D02*
X703592Y699999D01*
X704642D01*
X705167Y699474D01*
Y697375D01*
X704642Y696850D01*
X703592D01*
X703067Y697375D01*
Y699474D01*
X706216Y696326D02*
X708315D01*
X711464Y696850D02*
X709365D01*
X711464Y698949D01*
Y699474D01*
X710939Y699999D01*
X709890D01*
X709365Y699474D01*
X712513Y696850D02*
X713563D01*
X713038D01*
Y699999D01*
X712513Y699474D01*
X715137D02*
X715662Y699999D01*
X716711D01*
X717236Y699474D01*
Y697375D01*
X716711Y696850D01*
X715662D01*
X715137Y697375D01*
Y699474D01*
X718286Y699999D02*
Y696850D01*
Y698425D01*
X718811Y698949D01*
X719860D01*
X720385Y698425D01*
Y696850D01*
X723533Y699999D02*
X722484Y699474D01*
X721434Y698425D01*
Y697375D01*
X721959Y696850D01*
X723009D01*
X723533Y697375D01*
Y697900D01*
X723009Y698425D01*
X721434D01*
X724583Y699474D02*
X725108Y699999D01*
X726157D01*
X726682Y699474D01*
Y697375D01*
X726157Y696850D01*
X725108D01*
X724583Y697375D01*
Y699474D01*
X727732Y696326D02*
X729831D01*
X730880Y696850D02*
X731930D01*
X731405D01*
Y699999D01*
X730880Y699474D01*
X733504Y699999D02*
X735603D01*
Y699474D01*
X733504Y697375D01*
Y696850D01*
X736653Y699474D02*
X737177Y699999D01*
X738227D01*
X738752Y699474D01*
Y697375D01*
X738227Y696850D01*
X737177D01*
X736653Y697375D01*
Y699474D01*
X739801Y698949D02*
Y696850D01*
Y697900D01*
X740326Y698425D01*
X740851Y698949D01*
X741375D01*
X742950Y696850D02*
X743999D01*
X743474D01*
Y699999D01*
X742950Y699474D01*
X745574D02*
X746098Y699999D01*
X747148D01*
X747673Y699474D01*
Y697375D01*
X747148Y696850D01*
X746098D01*
X745574Y697375D01*
Y699474D01*
X748722D02*
X749247Y699999D01*
X750296D01*
X750821Y699474D01*
Y697375D01*
X750296Y696850D01*
X749247D01*
X748722Y697375D01*
Y699474D01*
X696246Y691076D02*
X694671D01*
X694146Y690551D01*
Y689501D01*
X694671Y688976D01*
X696246D01*
X699394Y692125D02*
X698345Y691600D01*
X697295Y690551D01*
Y689501D01*
X697820Y688976D01*
X698869D01*
X699394Y689501D01*
Y690026D01*
X698869Y690551D01*
X697295D01*
X702543Y692125D02*
X700444D01*
Y690551D01*
X701493Y691076D01*
X702018D01*
X702543Y690551D01*
Y689501D01*
X702018Y688976D01*
X700969D01*
X700444Y689501D01*
X703592Y692125D02*
Y688976D01*
Y690551D01*
X704117Y691076D01*
X705167D01*
X705691Y690551D01*
Y688976D01*
X706741D02*
Y691076D01*
X708315D01*
X708840Y690551D01*
Y688976D01*
X711988Y692125D02*
X710939Y691600D01*
X709890Y690551D01*
Y689501D01*
X710414Y688976D01*
X711464D01*
X711988Y689501D01*
Y690026D01*
X711464Y690551D01*
X709890D01*
X715137Y692125D02*
X713038D01*
Y690551D01*
X714088Y691076D01*
X714612D01*
X715137Y690551D01*
Y689501D01*
X714612Y688976D01*
X713563D01*
X713038Y689501D01*
X696246Y683202D02*
X694671D01*
X694146Y682677D01*
Y681627D01*
X694671Y681102D01*
X696246D01*
X698869D02*
Y684251D01*
X697295Y682677D01*
X699394D01*
X700444Y683726D02*
X700969Y684251D01*
X702018D01*
X702543Y683726D01*
Y681627D01*
X702018Y681102D01*
X700969D01*
X700444Y681627D01*
Y683726D01*
X703592D02*
X704117Y684251D01*
X705167D01*
X705691Y683726D01*
Y681627D01*
X705167Y681102D01*
X704117D01*
X703592Y681627D01*
Y683726D01*
X706741Y684251D02*
Y681102D01*
Y682677D01*
X707266Y683202D01*
X708315D01*
X708840Y682677D01*
Y681102D01*
X711988D02*
X709890D01*
X711988Y683202D01*
Y683726D01*
X711464Y684251D01*
X710414D01*
X709890Y683726D01*
X715137Y684251D02*
X713038D01*
Y682677D01*
X714088Y683202D01*
X714612D01*
X715137Y682677D01*
Y681627D01*
X714612Y681102D01*
X713563D01*
X713038Y681627D01*
X716187Y683726D02*
X716711Y684251D01*
X717761D01*
X718286Y683726D01*
Y681627D01*
X717761Y681102D01*
X716711D01*
X716187Y681627D01*
Y683726D01*
X696246Y675327D02*
X694671D01*
X694146Y674803D01*
Y673753D01*
X694671Y673228D01*
X696246D01*
X697295Y675852D02*
X697820Y676377D01*
X698869D01*
X699394Y675852D01*
Y673753D01*
X698869Y673228D01*
X697820D01*
X697295Y673753D01*
Y675852D01*
X700444Y676377D02*
Y673228D01*
Y674803D01*
X700969Y675327D01*
X702018D01*
X702543Y674803D01*
Y673228D01*
X703592D02*
Y675327D01*
X705167D01*
X705691Y674803D01*
Y673228D01*
X706741Y675852D02*
X707266Y676377D01*
X708315D01*
X708840Y675852D01*
Y675327D01*
X708315Y674803D01*
X707790D01*
X708315D01*
X708840Y674278D01*
Y673753D01*
X708315Y673228D01*
X707266D01*
X706741Y673753D01*
X709890Y675852D02*
X710414Y676377D01*
X711464D01*
X711988Y675852D01*
Y673753D01*
X711464Y673228D01*
X710414D01*
X709890Y673753D01*
Y675852D01*
X713038D02*
X713563Y676377D01*
X714612D01*
X715137Y675852D01*
Y673753D01*
X714612Y673228D01*
X713563D01*
X713038Y673753D01*
Y675852D01*
X716187Y673228D02*
Y675327D01*
X716711D01*
X717236Y674803D01*
Y673228D01*
Y674803D01*
X717761Y675327D01*
X718286Y674803D01*
Y673228D01*
X719335Y675852D02*
X719860Y676377D01*
X720910D01*
X721434Y675852D01*
Y675327D01*
X720910Y674803D01*
X720385D01*
X720910D01*
X721434Y674278D01*
Y673753D01*
X720910Y673228D01*
X719860D01*
X719335Y673753D01*
X724583Y673228D02*
X722484D01*
X724583Y675327D01*
Y675852D01*
X724058Y676377D01*
X723009D01*
X722484Y675852D01*
X725632D02*
X726157Y676377D01*
X727207D01*
X727732Y675852D01*
Y673753D01*
X727207Y673228D01*
X726157D01*
X725632Y673753D01*
Y675852D01*
X696246Y667453D02*
X694671D01*
X694146Y666929D01*
Y665879D01*
X694671Y665354D01*
X696246D01*
X697295Y667978D02*
X697820Y668503D01*
X698869D01*
X699394Y667978D01*
Y667453D01*
X698869Y666929D01*
X698345D01*
X698869D01*
X699394Y666404D01*
Y665879D01*
X698869Y665354D01*
X697820D01*
X697295Y665879D01*
X702543Y665354D02*
X700444D01*
X702543Y667453D01*
Y667978D01*
X702018Y668503D01*
X700969D01*
X700444Y667978D01*
X703592D02*
X704117Y668503D01*
X705167D01*
X705691Y667978D01*
Y665879D01*
X705167Y665354D01*
X704117D01*
X703592Y665879D01*
Y667978D01*
X706741Y668503D02*
Y665354D01*
Y666929D01*
X707266Y667453D01*
X708315D01*
X708840Y666929D01*
Y665354D01*
X709890D02*
Y667453D01*
X711464D01*
X711988Y666929D01*
Y665354D01*
X713038Y667978D02*
X713563Y668503D01*
X714612D01*
X715137Y667978D01*
Y667453D01*
X714612Y666929D01*
X714088D01*
X714612D01*
X715137Y666404D01*
Y665879D01*
X714612Y665354D01*
X713563D01*
X713038Y665879D01*
X718286Y665354D02*
X716187D01*
X718286Y667453D01*
Y667978D01*
X717761Y668503D01*
X716711D01*
X716187Y667978D01*
X719335D02*
X719860Y668503D01*
X720910D01*
X721434Y667978D01*
Y665879D01*
X720910Y665354D01*
X719860D01*
X719335Y665879D01*
Y667978D01*
X722484Y665354D02*
Y667453D01*
X723009D01*
X723533Y666929D01*
Y665354D01*
Y666929D01*
X724058Y667453D01*
X724583Y666929D01*
Y665354D01*
X727207D02*
Y668503D01*
X725632Y666929D01*
X727732D01*
X728781Y668503D02*
X730880D01*
Y667978D01*
X728781Y665879D01*
Y665354D01*
X731930Y667978D02*
X732454Y668503D01*
X733504D01*
X734029Y667978D01*
Y665879D01*
X733504Y665354D01*
X732454D01*
X731930Y665879D01*
Y667978D01*
X695196Y657480D02*
X694146Y658530D01*
Y659579D01*
X695196Y660629D01*
X696770Y657480D02*
Y660629D01*
X697820Y659579D01*
X698869Y660629D01*
Y657480D01*
X699919D02*
X700969D01*
X700444D01*
Y659579D01*
X699919D01*
X702543D02*
X704642Y657480D01*
X703592Y658530D01*
X704642Y659579D01*
X702543Y657480D01*
X707266D02*
X706216D01*
X705691Y658005D01*
Y659055D01*
X706216Y659579D01*
X707266D01*
X707790Y659055D01*
Y658530D01*
X705691D01*
X710939Y660629D02*
Y657480D01*
X709365D01*
X708840Y658005D01*
Y659055D01*
X709365Y659579D01*
X710939D01*
X711988Y657480D02*
X713038Y658530D01*
Y659579D01*
X711988Y660629D01*
X695196Y649606D02*
X694146Y650656D01*
Y651705D01*
X695196Y652755D01*
X696770Y649606D02*
Y652755D01*
X697820Y651705D01*
X698869Y652755D01*
Y649606D01*
X699919D02*
X700969D01*
X700444D01*
Y651705D01*
X699919D01*
X702543D02*
X704642Y649606D01*
X703592Y650656D01*
X704642Y651705D01*
X702543Y649606D01*
X707266D02*
X706216D01*
X705691Y650131D01*
Y651181D01*
X706216Y651705D01*
X707266D01*
X707790Y651181D01*
Y650656D01*
X705691D01*
X710939Y652755D02*
Y649606D01*
X709365D01*
X708840Y650131D01*
Y651181D01*
X709365Y651705D01*
X710939D01*
X711988Y649606D02*
X713038Y650656D01*
Y651705D01*
X711988Y652755D01*
X694146Y643831D02*
X695196Y641732D01*
X696246Y643831D01*
X697295Y644881D02*
X699394D01*
Y644356D01*
X697295Y642257D01*
Y641732D01*
X700444Y644356D02*
X700969Y644881D01*
X702018D01*
X702543Y644356D01*
Y642257D01*
X702018Y641732D01*
X700969D01*
X700444Y642257D01*
Y644356D01*
X703592Y644881D02*
Y641732D01*
Y643307D01*
X704117Y643831D01*
X705167D01*
X705691Y643307D01*
Y641732D01*
X706741Y644356D02*
X707266Y644881D01*
X708315D01*
X708840Y644356D01*
Y643831D01*
X708315Y643307D01*
X707790D01*
X708315D01*
X708840Y642782D01*
Y642257D01*
X708315Y641732D01*
X707266D01*
X706741Y642257D01*
X709890Y644356D02*
X710414Y644881D01*
X711464D01*
X711988Y644356D01*
Y642257D01*
X711464Y641732D01*
X710414D01*
X709890Y642257D01*
Y644356D01*
X713038Y641732D02*
Y643831D01*
X713563D01*
X714088Y643307D01*
Y641732D01*
Y643307D01*
X714612Y643831D01*
X715137Y643307D01*
Y641732D01*
X716187Y644356D02*
X716711Y644881D01*
X717761D01*
X718286Y644356D01*
Y642257D01*
X717761Y641732D01*
X716711D01*
X716187Y642257D01*
Y644356D01*
X719335Y641732D02*
Y643831D01*
X719860D01*
X720385Y643307D01*
Y641732D01*
Y643307D01*
X720910Y643831D01*
X721434Y643307D01*
Y641732D01*
X722484Y643831D02*
X724583Y641732D01*
X723533Y642782D01*
X724583Y643831D01*
X722484Y641732D01*
X727732Y644881D02*
X726682Y644356D01*
X725632Y643307D01*
Y642257D01*
X726157Y641732D01*
X727207D01*
X727732Y642257D01*
Y642782D01*
X727207Y643307D01*
X725632D01*
X728781Y644356D02*
X729306Y644881D01*
X730355D01*
X730880Y644356D01*
Y642257D01*
X730355Y641732D01*
X729306D01*
X728781Y642257D01*
Y644356D01*
X654787Y712598D02*
Y715747D01*
X656361D01*
X656886Y715222D01*
Y714173D01*
X656361Y713648D01*
X654787D01*
X655836D02*
X656886Y712598D01*
X658460D02*
X659510D01*
X660035Y713123D01*
Y714173D01*
X659510Y714698D01*
X658460D01*
X657936Y714173D01*
Y713123D01*
X658460Y712598D01*
X661084Y714698D02*
Y713123D01*
X661609Y712598D01*
X663183D01*
Y714698D01*
X664233Y712598D02*
Y714698D01*
X665807D01*
X666332Y714173D01*
Y712598D01*
X669480Y715747D02*
Y712598D01*
X667906D01*
X667381Y713123D01*
Y714173D01*
X667906Y714698D01*
X669480D01*
X672104Y712598D02*
X671055D01*
X670530Y713123D01*
Y714173D01*
X671055Y714698D01*
X672104D01*
X672629Y714173D01*
Y713648D01*
X670530D01*
X675778Y715747D02*
Y712598D01*
X674203D01*
X673678Y713123D01*
Y714173D01*
X674203Y714698D01*
X675778D01*
X654787Y704724D02*
Y707873D01*
X656361D01*
X656886Y707348D01*
Y706299D01*
X656361Y705774D01*
X654787D01*
X655836D02*
X656886Y704724D01*
X658460D02*
X659510D01*
X660035Y705249D01*
Y706299D01*
X659510Y706823D01*
X658460D01*
X657936Y706299D01*
Y705249D01*
X658460Y704724D01*
X661084Y706823D02*
Y705249D01*
X661609Y704724D01*
X663183D01*
Y706823D01*
X664233Y704724D02*
Y706823D01*
X665807D01*
X666332Y706299D01*
Y704724D01*
X669480Y707873D02*
Y704724D01*
X667906D01*
X667381Y705249D01*
Y706299D01*
X667906Y706823D01*
X669480D01*
X672104Y704724D02*
X671055D01*
X670530Y705249D01*
Y706299D01*
X671055Y706823D01*
X672104D01*
X672629Y706299D01*
Y705774D01*
X670530D01*
X675778Y707873D02*
Y704724D01*
X674203D01*
X673678Y705249D01*
Y706299D01*
X674203Y706823D01*
X675778D01*
X654787Y696850D02*
Y699999D01*
X656361D01*
X656886Y699474D01*
Y698425D01*
X656361Y697900D01*
X654787D01*
X655836D02*
X656886Y696850D01*
X658460D02*
X659510D01*
X660035Y697375D01*
Y698425D01*
X659510Y698949D01*
X658460D01*
X657936Y698425D01*
Y697375D01*
X658460Y696850D01*
X661084Y698949D02*
Y697375D01*
X661609Y696850D01*
X663183D01*
Y698949D01*
X664233Y696850D02*
Y698949D01*
X665807D01*
X666332Y698425D01*
Y696850D01*
X669480Y699999D02*
Y696850D01*
X667906D01*
X667381Y697375D01*
Y698425D01*
X667906Y698949D01*
X669480D01*
X672104Y696850D02*
X671055D01*
X670530Y697375D01*
Y698425D01*
X671055Y698949D01*
X672104D01*
X672629Y698425D01*
Y697900D01*
X670530D01*
X675778Y699999D02*
Y696850D01*
X674203D01*
X673678Y697375D01*
Y698425D01*
X674203Y698949D01*
X675778D01*
X654787Y688976D02*
Y692125D01*
X656361D01*
X656886Y691600D01*
Y690551D01*
X656361Y690026D01*
X654787D01*
X655836D02*
X656886Y688976D01*
X658460D02*
X659510D01*
X660035Y689501D01*
Y690551D01*
X659510Y691076D01*
X658460D01*
X657936Y690551D01*
Y689501D01*
X658460Y688976D01*
X661084Y691076D02*
Y689501D01*
X661609Y688976D01*
X663183D01*
Y691076D01*
X664233Y688976D02*
Y691076D01*
X665807D01*
X666332Y690551D01*
Y688976D01*
X669480Y692125D02*
Y688976D01*
X667906D01*
X667381Y689501D01*
Y690551D01*
X667906Y691076D01*
X669480D01*
X672104Y688976D02*
X671055D01*
X670530Y689501D01*
Y690551D01*
X671055Y691076D01*
X672104D01*
X672629Y690551D01*
Y690026D01*
X670530D01*
X675778Y692125D02*
Y688976D01*
X674203D01*
X673678Y689501D01*
Y690551D01*
X674203Y691076D01*
X675778D01*
X654787Y681102D02*
Y684251D01*
X656361D01*
X656886Y683726D01*
Y682677D01*
X656361Y682152D01*
X654787D01*
X655836D02*
X656886Y681102D01*
X658460D02*
X659510D01*
X660035Y681627D01*
Y682677D01*
X659510Y683202D01*
X658460D01*
X657936Y682677D01*
Y681627D01*
X658460Y681102D01*
X661084Y683202D02*
Y681627D01*
X661609Y681102D01*
X663183D01*
Y683202D01*
X664233Y681102D02*
Y683202D01*
X665807D01*
X666332Y682677D01*
Y681102D01*
X669480Y684251D02*
Y681102D01*
X667906D01*
X667381Y681627D01*
Y682677D01*
X667906Y683202D01*
X669480D01*
X672104Y681102D02*
X671055D01*
X670530Y681627D01*
Y682677D01*
X671055Y683202D01*
X672104D01*
X672629Y682677D01*
Y682152D01*
X670530D01*
X675778Y684251D02*
Y681102D01*
X674203D01*
X673678Y681627D01*
Y682677D01*
X674203Y683202D01*
X675778D01*
X654787Y673228D02*
Y676377D01*
X656361D01*
X656886Y675852D01*
Y674803D01*
X656361Y674278D01*
X654787D01*
X655836D02*
X656886Y673228D01*
X658460D02*
X659510D01*
X660035Y673753D01*
Y674803D01*
X659510Y675327D01*
X658460D01*
X657936Y674803D01*
Y673753D01*
X658460Y673228D01*
X661084Y675327D02*
Y673753D01*
X661609Y673228D01*
X663183D01*
Y675327D01*
X664233Y673228D02*
Y675327D01*
X665807D01*
X666332Y674803D01*
Y673228D01*
X669480Y676377D02*
Y673228D01*
X667906D01*
X667381Y673753D01*
Y674803D01*
X667906Y675327D01*
X669480D01*
X672104Y673228D02*
X671055D01*
X670530Y673753D01*
Y674803D01*
X671055Y675327D01*
X672104D01*
X672629Y674803D01*
Y674278D01*
X670530D01*
X675778Y676377D02*
Y673228D01*
X674203D01*
X673678Y673753D01*
Y674803D01*
X674203Y675327D01*
X675778D01*
X654787Y665354D02*
Y668503D01*
X656361D01*
X656886Y667978D01*
Y666929D01*
X656361Y666404D01*
X654787D01*
X655836D02*
X656886Y665354D01*
X658460D02*
X659510D01*
X660035Y665879D01*
Y666929D01*
X659510Y667453D01*
X658460D01*
X657936Y666929D01*
Y665879D01*
X658460Y665354D01*
X661084Y667453D02*
Y665879D01*
X661609Y665354D01*
X663183D01*
Y667453D01*
X664233Y665354D02*
Y667453D01*
X665807D01*
X666332Y666929D01*
Y665354D01*
X669480Y668503D02*
Y665354D01*
X667906D01*
X667381Y665879D01*
Y666929D01*
X667906Y667453D01*
X669480D01*
X672104Y665354D02*
X671055D01*
X670530Y665879D01*
Y666929D01*
X671055Y667453D01*
X672104D01*
X672629Y666929D01*
Y666404D01*
X670530D01*
X675778Y668503D02*
Y665354D01*
X674203D01*
X673678Y665879D01*
Y666929D01*
X674203Y667453D01*
X675778D01*
X655836Y657480D02*
X654787Y658530D01*
Y659579D01*
X655836Y660629D01*
X657411Y657480D02*
Y660629D01*
X658460Y659579D01*
X659510Y660629D01*
Y657480D01*
X660559D02*
X661609D01*
X661084D01*
Y659579D01*
X660559D01*
X663183D02*
X665282Y657480D01*
X664233Y658530D01*
X665282Y659579D01*
X663183Y657480D01*
X667906D02*
X666857D01*
X666332Y658005D01*
Y659055D01*
X666857Y659579D01*
X667906D01*
X668431Y659055D01*
Y658530D01*
X666332D01*
X671580Y660629D02*
Y657480D01*
X670005D01*
X669480Y658005D01*
Y659055D01*
X670005Y659579D01*
X671580D01*
X672629Y657480D02*
X673678Y658530D01*
Y659579D01*
X672629Y660629D01*
X655836Y649606D02*
X654787Y650656D01*
Y651705D01*
X655836Y652755D01*
X657411Y649606D02*
Y652755D01*
X658460Y651705D01*
X659510Y652755D01*
Y649606D01*
X660559D02*
X661609D01*
X661084D01*
Y651705D01*
X660559D01*
X663183D02*
X665282Y649606D01*
X664233Y650656D01*
X665282Y651705D01*
X663183Y649606D01*
X667906D02*
X666857D01*
X666332Y650131D01*
Y651181D01*
X666857Y651705D01*
X667906D01*
X668431Y651181D01*
Y650656D01*
X666332D01*
X671580Y652755D02*
Y649606D01*
X670005D01*
X669480Y650131D01*
Y651181D01*
X670005Y651705D01*
X671580D01*
X672629Y649606D02*
X673678Y650656D01*
Y651705D01*
X672629Y652755D01*
X654787Y641732D02*
Y644881D01*
X656361D01*
X656886Y644356D01*
Y643307D01*
X656361Y642782D01*
X654787D01*
X655836D02*
X656886Y641732D01*
X658460D02*
X659510D01*
X660035Y642257D01*
Y643307D01*
X659510Y643831D01*
X658460D01*
X657936Y643307D01*
Y642257D01*
X658460Y641732D01*
X661084Y643831D02*
Y642257D01*
X661609Y641732D01*
X663183D01*
Y643831D01*
X664233Y641732D02*
Y643831D01*
X665807D01*
X666332Y643307D01*
Y641732D01*
X669480Y644881D02*
Y641732D01*
X667906D01*
X667381Y642257D01*
Y643307D01*
X667906Y643831D01*
X669480D01*
X672104Y641732D02*
X671055D01*
X670530Y642257D01*
Y643307D01*
X671055Y643831D01*
X672104D01*
X672629Y643307D01*
Y642782D01*
X670530D01*
X675778Y644881D02*
Y641732D01*
X674203D01*
X673678Y642257D01*
Y643307D01*
X674203Y643831D01*
X675778D01*
X623614Y712598D02*
Y715747D01*
X625188D01*
X625713Y715222D01*
Y714173D01*
X625188Y713648D01*
X623614D01*
X627287Y714698D02*
X628337D01*
X628862Y714173D01*
Y712598D01*
X627287D01*
X626762Y713123D01*
X627287Y713648D01*
X628862D01*
X632010Y715747D02*
Y712598D01*
X630436D01*
X629911Y713123D01*
Y714173D01*
X630436Y714698D01*
X632010D01*
X623614Y704724D02*
Y707873D01*
X625188D01*
X625713Y707348D01*
Y706299D01*
X625188Y705774D01*
X623614D01*
X627287Y706823D02*
X628337D01*
X628862Y706299D01*
Y704724D01*
X627287D01*
X626762Y705249D01*
X627287Y705774D01*
X628862D01*
X632010Y707873D02*
Y704724D01*
X630436D01*
X629911Y705249D01*
Y706299D01*
X630436Y706823D01*
X632010D01*
X623614Y696850D02*
Y699999D01*
X625188D01*
X625713Y699474D01*
Y698425D01*
X625188Y697900D01*
X623614D01*
X627287Y698949D02*
X628337D01*
X628862Y698425D01*
Y696850D01*
X627287D01*
X626762Y697375D01*
X627287Y697900D01*
X628862D01*
X632010Y699999D02*
Y696850D01*
X630436D01*
X629911Y697375D01*
Y698425D01*
X630436Y698949D01*
X632010D01*
X623614Y688976D02*
Y692125D01*
X625188D01*
X625713Y691600D01*
Y690551D01*
X625188Y690026D01*
X623614D01*
X627287Y691076D02*
X628337D01*
X628862Y690551D01*
Y688976D01*
X627287D01*
X626762Y689501D01*
X627287Y690026D01*
X628862D01*
X632010Y692125D02*
Y688976D01*
X630436D01*
X629911Y689501D01*
Y690551D01*
X630436Y691076D01*
X632010D01*
X623614Y681102D02*
Y684251D01*
X625188D01*
X625713Y683726D01*
Y682677D01*
X625188Y682152D01*
X623614D01*
X627287Y683202D02*
X628337D01*
X628862Y682677D01*
Y681102D01*
X627287D01*
X626762Y681627D01*
X627287Y682152D01*
X628862D01*
X632010Y684251D02*
Y681102D01*
X630436D01*
X629911Y681627D01*
Y682677D01*
X630436Y683202D01*
X632010D01*
X623614Y673228D02*
Y676377D01*
X625188D01*
X625713Y675852D01*
Y674803D01*
X625188Y674278D01*
X623614D01*
X627287Y675327D02*
X628337D01*
X628862Y674803D01*
Y673228D01*
X627287D01*
X626762Y673753D01*
X627287Y674278D01*
X628862D01*
X632010Y676377D02*
Y673228D01*
X630436D01*
X629911Y673753D01*
Y674803D01*
X630436Y675327D01*
X632010D01*
X623614Y665354D02*
Y668503D01*
X625188D01*
X625713Y667978D01*
Y666929D01*
X625188Y666404D01*
X623614D01*
X627287Y667453D02*
X628337D01*
X628862Y666929D01*
Y665354D01*
X627287D01*
X626762Y665879D01*
X627287Y666404D01*
X628862D01*
X632010Y668503D02*
Y665354D01*
X630436D01*
X629911Y665879D01*
Y666929D01*
X630436Y667453D01*
X632010D01*
X623614Y657480D02*
Y660629D01*
X625188D01*
X625713Y660104D01*
Y659055D01*
X625188Y658530D01*
X623614D01*
X627287Y659579D02*
X628337D01*
X628862Y659055D01*
Y657480D01*
X627287D01*
X626762Y658005D01*
X627287Y658530D01*
X628862D01*
X632010Y660629D02*
Y657480D01*
X630436D01*
X629911Y658005D01*
Y659055D01*
X630436Y659579D01*
X632010D01*
X623614Y649606D02*
Y652755D01*
X625188D01*
X625713Y652230D01*
Y651181D01*
X625188Y650656D01*
X623614D01*
X627287Y651705D02*
X628337D01*
X628862Y651181D01*
Y649606D01*
X627287D01*
X626762Y650131D01*
X627287Y650656D01*
X628862D01*
X632010Y652755D02*
Y649606D01*
X630436D01*
X629911Y650131D01*
Y651181D01*
X630436Y651705D01*
X632010D01*
X623614Y644881D02*
Y642782D01*
X624663Y641732D01*
X625713Y642782D01*
Y644881D01*
X626762Y641732D02*
X627812D01*
X627287D01*
Y643831D01*
X626762D01*
X629911D02*
X630961D01*
X631485Y643307D01*
Y641732D01*
X629911D01*
X629386Y642257D01*
X629911Y642782D01*
X631485D01*
X544766Y715747D02*
X546865D01*
X545816D01*
Y712598D01*
X548439D02*
X549489D01*
X550014Y713123D01*
Y714173D01*
X549489Y714698D01*
X548439D01*
X547915Y714173D01*
Y713123D01*
X548439Y712598D01*
X551063Y711549D02*
Y714698D01*
X552637D01*
X553162Y714173D01*
Y713123D01*
X552637Y712598D01*
X551063D01*
X557360Y715747D02*
Y712598D01*
X559459D01*
X561034Y714698D02*
X562083D01*
X562608Y714173D01*
Y712598D01*
X561034D01*
X560509Y713123D01*
X561034Y713648D01*
X562608D01*
X563658Y714698D02*
Y713123D01*
X564182Y712598D01*
X565757D01*
Y712074D01*
X565232Y711549D01*
X564707D01*
X565757Y712598D02*
Y714698D01*
X568380Y712598D02*
X567331D01*
X566806Y713123D01*
Y714173D01*
X567331Y714698D01*
X568380D01*
X568905Y714173D01*
Y713648D01*
X566806D01*
X569955Y714698D02*
Y712598D01*
Y713648D01*
X570479Y714173D01*
X571004Y714698D01*
X571529D01*
X576252Y714173D02*
X578351D01*
X582549Y715747D02*
Y712598D01*
X584123D01*
X584648Y713123D01*
Y713648D01*
X584123Y714173D01*
X582549D01*
X584123D01*
X584648Y714698D01*
Y715222D01*
X584123Y715747D01*
X582549D01*
X586222Y712598D02*
X587272D01*
X587797Y713123D01*
Y714173D01*
X587272Y714698D01*
X586222D01*
X585698Y714173D01*
Y713123D01*
X586222Y712598D01*
X589371Y715222D02*
Y714698D01*
X588846D01*
X589896D01*
X589371D01*
Y713123D01*
X589896Y712598D01*
X591995Y715222D02*
Y714698D01*
X591470D01*
X592520D01*
X591995D01*
Y713123D01*
X592520Y712598D01*
X594619D02*
X595668D01*
X596193Y713123D01*
Y714173D01*
X595668Y714698D01*
X594619D01*
X594094Y714173D01*
Y713123D01*
X594619Y712598D01*
X597242D02*
Y714698D01*
X597767D01*
X598292Y714173D01*
Y712598D01*
Y714173D01*
X598817Y714698D01*
X599342Y714173D01*
Y712598D01*
X603540Y715747D02*
Y712598D01*
X605639D01*
X607213Y714698D02*
X608263D01*
X608787Y714173D01*
Y712598D01*
X607213D01*
X606688Y713123D01*
X607213Y713648D01*
X608787D01*
X609837Y714698D02*
Y713123D01*
X610362Y712598D01*
X611936D01*
Y712074D01*
X611411Y711549D01*
X610886D01*
X611936Y712598D02*
Y714698D01*
X614560Y712598D02*
X613510D01*
X612986Y713123D01*
Y714173D01*
X613510Y714698D01*
X614560D01*
X615085Y714173D01*
Y713648D01*
X612986D01*
X616134Y714698D02*
Y712598D01*
Y713648D01*
X616659Y714173D01*
X617184Y714698D01*
X617708D01*
X544766Y707873D02*
X546865D01*
X545816D01*
Y704724D01*
X548439D02*
X549489D01*
X550014Y705249D01*
Y706299D01*
X549489Y706823D01*
X548439D01*
X547915Y706299D01*
Y705249D01*
X548439Y704724D01*
X551063Y703675D02*
Y706823D01*
X552637D01*
X553162Y706299D01*
Y705249D01*
X552637Y704724D01*
X551063D01*
X557360Y707873D02*
Y704724D01*
X559459D01*
X561034Y706823D02*
X562083D01*
X562608Y706299D01*
Y704724D01*
X561034D01*
X560509Y705249D01*
X561034Y705774D01*
X562608D01*
X563658Y706823D02*
Y705249D01*
X564182Y704724D01*
X565757D01*
Y704200D01*
X565232Y703675D01*
X564707D01*
X565757Y704724D02*
Y706823D01*
X568380Y704724D02*
X567331D01*
X566806Y705249D01*
Y706299D01*
X567331Y706823D01*
X568380D01*
X568905Y706299D01*
Y705774D01*
X566806D01*
X569955Y706823D02*
Y704724D01*
Y705774D01*
X570479Y706299D01*
X571004Y706823D01*
X571529D01*
X576252Y706299D02*
X578351D01*
X582549Y707873D02*
Y704724D01*
X584123D01*
X584648Y705249D01*
Y705774D01*
X584123Y706299D01*
X582549D01*
X584123D01*
X584648Y706823D01*
Y707348D01*
X584123Y707873D01*
X582549D01*
X586222Y704724D02*
X587272D01*
X587797Y705249D01*
Y706299D01*
X587272Y706823D01*
X586222D01*
X585698Y706299D01*
Y705249D01*
X586222Y704724D01*
X589371Y707348D02*
Y706823D01*
X588846D01*
X589896D01*
X589371D01*
Y705249D01*
X589896Y704724D01*
X591995Y707348D02*
Y706823D01*
X591470D01*
X592520D01*
X591995D01*
Y705249D01*
X592520Y704724D01*
X594619D02*
X595668D01*
X596193Y705249D01*
Y706299D01*
X595668Y706823D01*
X594619D01*
X594094Y706299D01*
Y705249D01*
X594619Y704724D01*
X597242D02*
Y706823D01*
X597767D01*
X598292Y706299D01*
Y704724D01*
Y706299D01*
X598817Y706823D01*
X599342Y706299D01*
Y704724D01*
X603540Y707873D02*
Y704724D01*
X605639D01*
X607213Y706823D02*
X608263D01*
X608787Y706299D01*
Y704724D01*
X607213D01*
X606688Y705249D01*
X607213Y705774D01*
X608787D01*
X609837Y706823D02*
Y705249D01*
X610362Y704724D01*
X611936D01*
Y704200D01*
X611411Y703675D01*
X610886D01*
X611936Y704724D02*
Y706823D01*
X614560Y704724D02*
X613510D01*
X612986Y705249D01*
Y706299D01*
X613510Y706823D01*
X614560D01*
X615085Y706299D01*
Y705774D01*
X612986D01*
X616134Y706823D02*
Y704724D01*
Y705774D01*
X616659Y706299D01*
X617184Y706823D01*
X617708D01*
X544766Y699999D02*
X546865D01*
X545816D01*
Y696850D01*
X548439D02*
X549489D01*
X550014Y697375D01*
Y698425D01*
X549489Y698949D01*
X548439D01*
X547915Y698425D01*
Y697375D01*
X548439Y696850D01*
X551063Y695801D02*
Y698949D01*
X552637D01*
X553162Y698425D01*
Y697375D01*
X552637Y696850D01*
X551063D01*
X557360Y699999D02*
Y696850D01*
X559459D01*
X561034Y698949D02*
X562083D01*
X562608Y698425D01*
Y696850D01*
X561034D01*
X560509Y697375D01*
X561034Y697900D01*
X562608D01*
X563658Y698949D02*
Y697375D01*
X564182Y696850D01*
X565757D01*
Y696326D01*
X565232Y695801D01*
X564707D01*
X565757Y696850D02*
Y698949D01*
X568380Y696850D02*
X567331D01*
X566806Y697375D01*
Y698425D01*
X567331Y698949D01*
X568380D01*
X568905Y698425D01*
Y697900D01*
X566806D01*
X569955Y698949D02*
Y696850D01*
Y697900D01*
X570479Y698425D01*
X571004Y698949D01*
X571529D01*
X576252Y698425D02*
X578351D01*
X582549Y699999D02*
Y696850D01*
X584123D01*
X584648Y697375D01*
Y697900D01*
X584123Y698425D01*
X582549D01*
X584123D01*
X584648Y698949D01*
Y699474D01*
X584123Y699999D01*
X582549D01*
X586222Y696850D02*
X587272D01*
X587797Y697375D01*
Y698425D01*
X587272Y698949D01*
X586222D01*
X585698Y698425D01*
Y697375D01*
X586222Y696850D01*
X589371Y699474D02*
Y698949D01*
X588846D01*
X589896D01*
X589371D01*
Y697375D01*
X589896Y696850D01*
X591995Y699474D02*
Y698949D01*
X591470D01*
X592520D01*
X591995D01*
Y697375D01*
X592520Y696850D01*
X594619D02*
X595668D01*
X596193Y697375D01*
Y698425D01*
X595668Y698949D01*
X594619D01*
X594094Y698425D01*
Y697375D01*
X594619Y696850D01*
X597242D02*
Y698949D01*
X597767D01*
X598292Y698425D01*
Y696850D01*
Y698425D01*
X598817Y698949D01*
X599342Y698425D01*
Y696850D01*
X603540Y699999D02*
Y696850D01*
X605639D01*
X607213Y698949D02*
X608263D01*
X608787Y698425D01*
Y696850D01*
X607213D01*
X606688Y697375D01*
X607213Y697900D01*
X608787D01*
X609837Y698949D02*
Y697375D01*
X610362Y696850D01*
X611936D01*
Y696326D01*
X611411Y695801D01*
X610886D01*
X611936Y696850D02*
Y698949D01*
X614560Y696850D02*
X613510D01*
X612986Y697375D01*
Y698425D01*
X613510Y698949D01*
X614560D01*
X615085Y698425D01*
Y697900D01*
X612986D01*
X616134Y698949D02*
Y696850D01*
Y697900D01*
X616659Y698425D01*
X617184Y698949D01*
X617708D01*
X544766Y692125D02*
X546865D01*
X545816D01*
Y688976D01*
X548439D02*
X549489D01*
X550014Y689501D01*
Y690551D01*
X549489Y691076D01*
X548439D01*
X547915Y690551D01*
Y689501D01*
X548439Y688976D01*
X551063Y687927D02*
Y691076D01*
X552637D01*
X553162Y690551D01*
Y689501D01*
X552637Y688976D01*
X551063D01*
X557360Y692125D02*
Y688976D01*
X559459D01*
X561034Y691076D02*
X562083D01*
X562608Y690551D01*
Y688976D01*
X561034D01*
X560509Y689501D01*
X561034Y690026D01*
X562608D01*
X563658Y691076D02*
Y689501D01*
X564182Y688976D01*
X565757D01*
Y688452D01*
X565232Y687927D01*
X564707D01*
X565757Y688976D02*
Y691076D01*
X568380Y688976D02*
X567331D01*
X566806Y689501D01*
Y690551D01*
X567331Y691076D01*
X568380D01*
X568905Y690551D01*
Y690026D01*
X566806D01*
X569955Y691076D02*
Y688976D01*
Y690026D01*
X570479Y690551D01*
X571004Y691076D01*
X571529D01*
X576252Y690551D02*
X578351D01*
X582549Y692125D02*
Y688976D01*
X584123D01*
X584648Y689501D01*
Y690026D01*
X584123Y690551D01*
X582549D01*
X584123D01*
X584648Y691076D01*
Y691600D01*
X584123Y692125D01*
X582549D01*
X586222Y688976D02*
X587272D01*
X587797Y689501D01*
Y690551D01*
X587272Y691076D01*
X586222D01*
X585698Y690551D01*
Y689501D01*
X586222Y688976D01*
X589371Y691600D02*
Y691076D01*
X588846D01*
X589896D01*
X589371D01*
Y689501D01*
X589896Y688976D01*
X591995Y691600D02*
Y691076D01*
X591470D01*
X592520D01*
X591995D01*
Y689501D01*
X592520Y688976D01*
X594619D02*
X595668D01*
X596193Y689501D01*
Y690551D01*
X595668Y691076D01*
X594619D01*
X594094Y690551D01*
Y689501D01*
X594619Y688976D01*
X597242D02*
Y691076D01*
X597767D01*
X598292Y690551D01*
Y688976D01*
Y690551D01*
X598817Y691076D01*
X599342Y690551D01*
Y688976D01*
X603540Y692125D02*
Y688976D01*
X605639D01*
X607213Y691076D02*
X608263D01*
X608787Y690551D01*
Y688976D01*
X607213D01*
X606688Y689501D01*
X607213Y690026D01*
X608787D01*
X609837Y691076D02*
Y689501D01*
X610362Y688976D01*
X611936D01*
Y688452D01*
X611411Y687927D01*
X610886D01*
X611936Y688976D02*
Y691076D01*
X614560Y688976D02*
X613510D01*
X612986Y689501D01*
Y690551D01*
X613510Y691076D01*
X614560D01*
X615085Y690551D01*
Y690026D01*
X612986D01*
X616134Y691076D02*
Y688976D01*
Y690026D01*
X616659Y690551D01*
X617184Y691076D01*
X617708D01*
X544766Y684251D02*
X546865D01*
X545816D01*
Y681102D01*
X548439D02*
X549489D01*
X550014Y681627D01*
Y682677D01*
X549489Y683202D01*
X548439D01*
X547915Y682677D01*
Y681627D01*
X548439Y681102D01*
X551063Y680053D02*
Y683202D01*
X552637D01*
X553162Y682677D01*
Y681627D01*
X552637Y681102D01*
X551063D01*
X557360Y684251D02*
Y681102D01*
X559459D01*
X561034Y683202D02*
X562083D01*
X562608Y682677D01*
Y681102D01*
X561034D01*
X560509Y681627D01*
X561034Y682152D01*
X562608D01*
X563658Y683202D02*
Y681627D01*
X564182Y681102D01*
X565757D01*
Y680578D01*
X565232Y680053D01*
X564707D01*
X565757Y681102D02*
Y683202D01*
X568380Y681102D02*
X567331D01*
X566806Y681627D01*
Y682677D01*
X567331Y683202D01*
X568380D01*
X568905Y682677D01*
Y682152D01*
X566806D01*
X569955Y683202D02*
Y681102D01*
Y682152D01*
X570479Y682677D01*
X571004Y683202D01*
X571529D01*
X576252Y682677D02*
X578351D01*
X582549Y684251D02*
Y681102D01*
X584123D01*
X584648Y681627D01*
Y682152D01*
X584123Y682677D01*
X582549D01*
X584123D01*
X584648Y683202D01*
Y683726D01*
X584123Y684251D01*
X582549D01*
X586222Y681102D02*
X587272D01*
X587797Y681627D01*
Y682677D01*
X587272Y683202D01*
X586222D01*
X585698Y682677D01*
Y681627D01*
X586222Y681102D01*
X589371Y683726D02*
Y683202D01*
X588846D01*
X589896D01*
X589371D01*
Y681627D01*
X589896Y681102D01*
X591995Y683726D02*
Y683202D01*
X591470D01*
X592520D01*
X591995D01*
Y681627D01*
X592520Y681102D01*
X594619D02*
X595668D01*
X596193Y681627D01*
Y682677D01*
X595668Y683202D01*
X594619D01*
X594094Y682677D01*
Y681627D01*
X594619Y681102D01*
X597242D02*
Y683202D01*
X597767D01*
X598292Y682677D01*
Y681102D01*
Y682677D01*
X598817Y683202D01*
X599342Y682677D01*
Y681102D01*
X603540Y684251D02*
Y681102D01*
X605639D01*
X607213Y683202D02*
X608263D01*
X608787Y682677D01*
Y681102D01*
X607213D01*
X606688Y681627D01*
X607213Y682152D01*
X608787D01*
X609837Y683202D02*
Y681627D01*
X610362Y681102D01*
X611936D01*
Y680578D01*
X611411Y680053D01*
X610886D01*
X611936Y681102D02*
Y683202D01*
X614560Y681102D02*
X613510D01*
X612986Y681627D01*
Y682677D01*
X613510Y683202D01*
X614560D01*
X615085Y682677D01*
Y682152D01*
X612986D01*
X616134Y683202D02*
Y681102D01*
Y682152D01*
X616659Y682677D01*
X617184Y683202D01*
X617708D01*
X544766Y676377D02*
X546865D01*
X545816D01*
Y673228D01*
X548439D02*
X549489D01*
X550014Y673753D01*
Y674803D01*
X549489Y675327D01*
X548439D01*
X547915Y674803D01*
Y673753D01*
X548439Y673228D01*
X551063Y672179D02*
Y675327D01*
X552637D01*
X553162Y674803D01*
Y673753D01*
X552637Y673228D01*
X551063D01*
X557360Y676377D02*
Y673228D01*
X559459D01*
X561034Y675327D02*
X562083D01*
X562608Y674803D01*
Y673228D01*
X561034D01*
X560509Y673753D01*
X561034Y674278D01*
X562608D01*
X563658Y675327D02*
Y673753D01*
X564182Y673228D01*
X565757D01*
Y672704D01*
X565232Y672179D01*
X564707D01*
X565757Y673228D02*
Y675327D01*
X568380Y673228D02*
X567331D01*
X566806Y673753D01*
Y674803D01*
X567331Y675327D01*
X568380D01*
X568905Y674803D01*
Y674278D01*
X566806D01*
X569955Y675327D02*
Y673228D01*
Y674278D01*
X570479Y674803D01*
X571004Y675327D01*
X571529D01*
X576252Y674803D02*
X578351D01*
X582549Y676377D02*
Y673228D01*
X584123D01*
X584648Y673753D01*
Y674278D01*
X584123Y674803D01*
X582549D01*
X584123D01*
X584648Y675327D01*
Y675852D01*
X584123Y676377D01*
X582549D01*
X586222Y673228D02*
X587272D01*
X587797Y673753D01*
Y674803D01*
X587272Y675327D01*
X586222D01*
X585698Y674803D01*
Y673753D01*
X586222Y673228D01*
X589371Y675852D02*
Y675327D01*
X588846D01*
X589896D01*
X589371D01*
Y673753D01*
X589896Y673228D01*
X591995Y675852D02*
Y675327D01*
X591470D01*
X592520D01*
X591995D01*
Y673753D01*
X592520Y673228D01*
X594619D02*
X595668D01*
X596193Y673753D01*
Y674803D01*
X595668Y675327D01*
X594619D01*
X594094Y674803D01*
Y673753D01*
X594619Y673228D01*
X597242D02*
Y675327D01*
X597767D01*
X598292Y674803D01*
Y673228D01*
Y674803D01*
X598817Y675327D01*
X599342Y674803D01*
Y673228D01*
X603540Y676377D02*
Y673228D01*
X605639D01*
X607213Y675327D02*
X608263D01*
X608787Y674803D01*
Y673228D01*
X607213D01*
X606688Y673753D01*
X607213Y674278D01*
X608787D01*
X609837Y675327D02*
Y673753D01*
X610362Y673228D01*
X611936D01*
Y672704D01*
X611411Y672179D01*
X610886D01*
X611936Y673228D02*
Y675327D01*
X614560Y673228D02*
X613510D01*
X612986Y673753D01*
Y674803D01*
X613510Y675327D01*
X614560D01*
X615085Y674803D01*
Y674278D01*
X612986D01*
X616134Y675327D02*
Y673228D01*
Y674278D01*
X616659Y674803D01*
X617184Y675327D01*
X617708D01*
X544766Y668503D02*
X546865D01*
X545816D01*
Y665354D01*
X548439D02*
X549489D01*
X550014Y665879D01*
Y666929D01*
X549489Y667453D01*
X548439D01*
X547915Y666929D01*
Y665879D01*
X548439Y665354D01*
X551063Y664305D02*
Y667453D01*
X552637D01*
X553162Y666929D01*
Y665879D01*
X552637Y665354D01*
X551063D01*
X557360Y668503D02*
Y665354D01*
X559459D01*
X561034Y667453D02*
X562083D01*
X562608Y666929D01*
Y665354D01*
X561034D01*
X560509Y665879D01*
X561034Y666404D01*
X562608D01*
X563658Y667453D02*
Y665879D01*
X564182Y665354D01*
X565757D01*
Y664830D01*
X565232Y664305D01*
X564707D01*
X565757Y665354D02*
Y667453D01*
X568380Y665354D02*
X567331D01*
X566806Y665879D01*
Y666929D01*
X567331Y667453D01*
X568380D01*
X568905Y666929D01*
Y666404D01*
X566806D01*
X569955Y667453D02*
Y665354D01*
Y666404D01*
X570479Y666929D01*
X571004Y667453D01*
X571529D01*
X576252Y666929D02*
X578351D01*
X582549Y668503D02*
Y665354D01*
X584123D01*
X584648Y665879D01*
Y666404D01*
X584123Y666929D01*
X582549D01*
X584123D01*
X584648Y667453D01*
Y667978D01*
X584123Y668503D01*
X582549D01*
X586222Y665354D02*
X587272D01*
X587797Y665879D01*
Y666929D01*
X587272Y667453D01*
X586222D01*
X585698Y666929D01*
Y665879D01*
X586222Y665354D01*
X589371Y667978D02*
Y667453D01*
X588846D01*
X589896D01*
X589371D01*
Y665879D01*
X589896Y665354D01*
X591995Y667978D02*
Y667453D01*
X591470D01*
X592520D01*
X591995D01*
Y665879D01*
X592520Y665354D01*
X594619D02*
X595668D01*
X596193Y665879D01*
Y666929D01*
X595668Y667453D01*
X594619D01*
X594094Y666929D01*
Y665879D01*
X594619Y665354D01*
X597242D02*
Y667453D01*
X597767D01*
X598292Y666929D01*
Y665354D01*
Y666929D01*
X598817Y667453D01*
X599342Y666929D01*
Y665354D01*
X603540Y668503D02*
Y665354D01*
X605639D01*
X607213Y667453D02*
X608263D01*
X608787Y666929D01*
Y665354D01*
X607213D01*
X606688Y665879D01*
X607213Y666404D01*
X608787D01*
X609837Y667453D02*
Y665879D01*
X610362Y665354D01*
X611936D01*
Y664830D01*
X611411Y664305D01*
X610886D01*
X611936Y665354D02*
Y667453D01*
X614560Y665354D02*
X613510D01*
X612986Y665879D01*
Y666929D01*
X613510Y667453D01*
X614560D01*
X615085Y666929D01*
Y666404D01*
X612986D01*
X616134Y667453D02*
Y665354D01*
Y666404D01*
X616659Y666929D01*
X617184Y667453D01*
X617708D01*
X544766Y660629D02*
X546865D01*
X545816D01*
Y657480D01*
X548439D02*
X549489D01*
X550014Y658005D01*
Y659055D01*
X549489Y659579D01*
X548439D01*
X547915Y659055D01*
Y658005D01*
X548439Y657480D01*
X551063Y656431D02*
Y659579D01*
X552637D01*
X553162Y659055D01*
Y658005D01*
X552637Y657480D01*
X551063D01*
X557360Y660629D02*
Y657480D01*
X559459D01*
X561034Y659579D02*
X562083D01*
X562608Y659055D01*
Y657480D01*
X561034D01*
X560509Y658005D01*
X561034Y658530D01*
X562608D01*
X563658Y659579D02*
Y658005D01*
X564182Y657480D01*
X565757D01*
Y656956D01*
X565232Y656431D01*
X564707D01*
X565757Y657480D02*
Y659579D01*
X568380Y657480D02*
X567331D01*
X566806Y658005D01*
Y659055D01*
X567331Y659579D01*
X568380D01*
X568905Y659055D01*
Y658530D01*
X566806D01*
X569955Y659579D02*
Y657480D01*
Y658530D01*
X570479Y659055D01*
X571004Y659579D01*
X571529D01*
X576252Y659055D02*
X578351D01*
X582549Y660629D02*
Y657480D01*
X584123D01*
X584648Y658005D01*
Y658530D01*
X584123Y659055D01*
X582549D01*
X584123D01*
X584648Y659579D01*
Y660104D01*
X584123Y660629D01*
X582549D01*
X586222Y657480D02*
X587272D01*
X587797Y658005D01*
Y659055D01*
X587272Y659579D01*
X586222D01*
X585698Y659055D01*
Y658005D01*
X586222Y657480D01*
X589371Y660104D02*
Y659579D01*
X588846D01*
X589896D01*
X589371D01*
Y658005D01*
X589896Y657480D01*
X591995Y660104D02*
Y659579D01*
X591470D01*
X592520D01*
X591995D01*
Y658005D01*
X592520Y657480D01*
X594619D02*
X595668D01*
X596193Y658005D01*
Y659055D01*
X595668Y659579D01*
X594619D01*
X594094Y659055D01*
Y658005D01*
X594619Y657480D01*
X597242D02*
Y659579D01*
X597767D01*
X598292Y659055D01*
Y657480D01*
Y659055D01*
X598817Y659579D01*
X599342Y659055D01*
Y657480D01*
X603540Y660629D02*
Y657480D01*
X605639D01*
X607213Y659579D02*
X608263D01*
X608787Y659055D01*
Y657480D01*
X607213D01*
X606688Y658005D01*
X607213Y658530D01*
X608787D01*
X609837Y659579D02*
Y658005D01*
X610362Y657480D01*
X611936D01*
Y656956D01*
X611411Y656431D01*
X610886D01*
X611936Y657480D02*
Y659579D01*
X614560Y657480D02*
X613510D01*
X612986Y658005D01*
Y659055D01*
X613510Y659579D01*
X614560D01*
X615085Y659055D01*
Y658530D01*
X612986D01*
X616134Y659579D02*
Y657480D01*
Y658530D01*
X616659Y659055D01*
X617184Y659579D01*
X617708D01*
X544766Y652755D02*
X546865D01*
X545816D01*
Y649606D01*
X548439D02*
X549489D01*
X550014Y650131D01*
Y651181D01*
X549489Y651705D01*
X548439D01*
X547915Y651181D01*
Y650131D01*
X548439Y649606D01*
X551063Y648557D02*
Y651705D01*
X552637D01*
X553162Y651181D01*
Y650131D01*
X552637Y649606D01*
X551063D01*
X557360Y652755D02*
Y649606D01*
X559459D01*
X561034Y651705D02*
X562083D01*
X562608Y651181D01*
Y649606D01*
X561034D01*
X560509Y650131D01*
X561034Y650656D01*
X562608D01*
X563658Y651705D02*
Y650131D01*
X564182Y649606D01*
X565757D01*
Y649082D01*
X565232Y648557D01*
X564707D01*
X565757Y649606D02*
Y651705D01*
X568380Y649606D02*
X567331D01*
X566806Y650131D01*
Y651181D01*
X567331Y651705D01*
X568380D01*
X568905Y651181D01*
Y650656D01*
X566806D01*
X569955Y651705D02*
Y649606D01*
Y650656D01*
X570479Y651181D01*
X571004Y651705D01*
X571529D01*
X576252Y651181D02*
X578351D01*
X582549Y652755D02*
Y649606D01*
X584123D01*
X584648Y650131D01*
Y650656D01*
X584123Y651181D01*
X582549D01*
X584123D01*
X584648Y651705D01*
Y652230D01*
X584123Y652755D01*
X582549D01*
X586222Y649606D02*
X587272D01*
X587797Y650131D01*
Y651181D01*
X587272Y651705D01*
X586222D01*
X585698Y651181D01*
Y650131D01*
X586222Y649606D01*
X589371Y652230D02*
Y651705D01*
X588846D01*
X589896D01*
X589371D01*
Y650131D01*
X589896Y649606D01*
X591995Y652230D02*
Y651705D01*
X591470D01*
X592520D01*
X591995D01*
Y650131D01*
X592520Y649606D01*
X594619D02*
X595668D01*
X596193Y650131D01*
Y651181D01*
X595668Y651705D01*
X594619D01*
X594094Y651181D01*
Y650131D01*
X594619Y649606D01*
X597242D02*
Y651705D01*
X597767D01*
X598292Y651181D01*
Y649606D01*
Y651181D01*
X598817Y651705D01*
X599342Y651181D01*
Y649606D01*
X603540Y652755D02*
Y649606D01*
X605639D01*
X607213Y651705D02*
X608263D01*
X608787Y651181D01*
Y649606D01*
X607213D01*
X606688Y650131D01*
X607213Y650656D01*
X608787D01*
X609837Y651705D02*
Y650131D01*
X610362Y649606D01*
X611936D01*
Y649082D01*
X611411Y648557D01*
X610886D01*
X611936Y649606D02*
Y651705D01*
X614560Y649606D02*
X613510D01*
X612986Y650131D01*
Y651181D01*
X613510Y651705D01*
X614560D01*
X615085Y651181D01*
Y650656D01*
X612986D01*
X616134Y651705D02*
Y649606D01*
Y650656D01*
X616659Y651181D01*
X617184Y651705D01*
X617708D01*
X544766Y644881D02*
X546865D01*
X545816D01*
Y641732D01*
X548439D02*
X549489D01*
X550014Y642257D01*
Y643307D01*
X549489Y643831D01*
X548439D01*
X547915Y643307D01*
Y642257D01*
X548439Y641732D01*
X551063Y640683D02*
Y643831D01*
X552637D01*
X553162Y643307D01*
Y642257D01*
X552637Y641732D01*
X551063D01*
X557360Y644881D02*
Y641732D01*
X559459D01*
X561034Y643831D02*
X562083D01*
X562608Y643307D01*
Y641732D01*
X561034D01*
X560509Y642257D01*
X561034Y642782D01*
X562608D01*
X563658Y643831D02*
Y642257D01*
X564182Y641732D01*
X565757D01*
Y641208D01*
X565232Y640683D01*
X564707D01*
X565757Y641732D02*
Y643831D01*
X568380Y641732D02*
X567331D01*
X566806Y642257D01*
Y643307D01*
X567331Y643831D01*
X568380D01*
X568905Y643307D01*
Y642782D01*
X566806D01*
X569955Y643831D02*
Y641732D01*
Y642782D01*
X570479Y643307D01*
X571004Y643831D01*
X571529D01*
X576252Y643307D02*
X578351D01*
X582549Y644881D02*
Y641732D01*
X584123D01*
X584648Y642257D01*
Y642782D01*
X584123Y643307D01*
X582549D01*
X584123D01*
X584648Y643831D01*
Y644356D01*
X584123Y644881D01*
X582549D01*
X586222Y641732D02*
X587272D01*
X587797Y642257D01*
Y643307D01*
X587272Y643831D01*
X586222D01*
X585698Y643307D01*
Y642257D01*
X586222Y641732D01*
X589371Y644356D02*
Y643831D01*
X588846D01*
X589896D01*
X589371D01*
Y642257D01*
X589896Y641732D01*
X591995Y644356D02*
Y643831D01*
X591470D01*
X592520D01*
X591995D01*
Y642257D01*
X592520Y641732D01*
X594619D02*
X595668D01*
X596193Y642257D01*
Y643307D01*
X595668Y643831D01*
X594619D01*
X594094Y643307D01*
Y642257D01*
X594619Y641732D01*
X597242D02*
Y643831D01*
X597767D01*
X598292Y643307D01*
Y641732D01*
Y643307D01*
X598817Y643831D01*
X599342Y643307D01*
Y641732D01*
X603540Y644881D02*
Y641732D01*
X605639D01*
X607213Y643831D02*
X608263D01*
X608787Y643307D01*
Y641732D01*
X607213D01*
X606688Y642257D01*
X607213Y642782D01*
X608787D01*
X609837Y643831D02*
Y642257D01*
X610362Y641732D01*
X611936D01*
Y641208D01*
X611411Y640683D01*
X610886D01*
X611936Y641732D02*
Y643831D01*
X614560Y641732D02*
X613510D01*
X612986Y642257D01*
Y643307D01*
X613510Y643831D01*
X614560D01*
X615085Y643307D01*
Y642782D01*
X612986D01*
X616134Y643831D02*
Y641732D01*
Y642782D01*
X616659Y643307D01*
X617184Y643831D01*
X617708D01*
X506036Y712598D02*
Y715747D01*
X507611D01*
X508135Y715222D01*
Y714173D01*
X507611Y713648D01*
X506036D01*
X507086D02*
X508135Y712598D01*
X509710D02*
X510759D01*
X511284Y713123D01*
Y714173D01*
X510759Y714698D01*
X509710D01*
X509185Y714173D01*
Y713123D01*
X509710Y712598D01*
X512333Y714698D02*
Y713123D01*
X512858Y712598D01*
X514432D01*
Y714698D01*
X515482Y712598D02*
Y714698D01*
X517056D01*
X517581Y714173D01*
Y712598D01*
X520730Y715747D02*
Y712598D01*
X519155D01*
X518631Y713123D01*
Y714173D01*
X519155Y714698D01*
X520730D01*
X508135Y707348D02*
X507611Y707873D01*
X506561D01*
X506036Y707348D01*
Y706823D01*
X506561Y706299D01*
X507611D01*
X508135Y705774D01*
Y705249D01*
X507611Y704724D01*
X506561D01*
X506036Y705249D01*
X509185Y704724D02*
X510234D01*
X509710D01*
Y707873D01*
X509185D01*
X512333Y704724D02*
X513383D01*
X513908Y705249D01*
Y706299D01*
X513383Y706823D01*
X512333D01*
X511809Y706299D01*
Y705249D01*
X512333Y704724D01*
X515482Y707348D02*
Y706823D01*
X514957D01*
X516007D01*
X515482D01*
Y705249D01*
X516007Y704724D01*
X508135Y699474D02*
X507611Y699999D01*
X506561D01*
X506036Y699474D01*
Y698949D01*
X506561Y698425D01*
X507611D01*
X508135Y697900D01*
Y697375D01*
X507611Y696850D01*
X506561D01*
X506036Y697375D01*
X509185Y696850D02*
X510234D01*
X509710D01*
Y699999D01*
X509185D01*
X512333Y696850D02*
X513383D01*
X513908Y697375D01*
Y698425D01*
X513383Y698949D01*
X512333D01*
X511809Y698425D01*
Y697375D01*
X512333Y696850D01*
X515482Y699474D02*
Y698949D01*
X514957D01*
X516007D01*
X515482D01*
Y697375D01*
X516007Y696850D01*
X506036Y688976D02*
Y692125D01*
X507611D01*
X508135Y691600D01*
Y690551D01*
X507611Y690026D01*
X506036D01*
X507086D02*
X508135Y688976D01*
X509710D02*
X510759D01*
X511284Y689501D01*
Y690551D01*
X510759Y691076D01*
X509710D01*
X509185Y690551D01*
Y689501D01*
X509710Y688976D01*
X512333Y691076D02*
Y689501D01*
X512858Y688976D01*
X514432D01*
Y691076D01*
X515482Y688976D02*
Y691076D01*
X517056D01*
X517581Y690551D01*
Y688976D01*
X520730Y692125D02*
Y688976D01*
X519155D01*
X518631Y689501D01*
Y690551D01*
X519155Y691076D01*
X520730D01*
X506036Y681102D02*
Y684251D01*
X507611D01*
X508135Y683726D01*
Y682677D01*
X507611Y682152D01*
X506036D01*
X507086D02*
X508135Y681102D01*
X509710D02*
X510759D01*
X511284Y681627D01*
Y682677D01*
X510759Y683202D01*
X509710D01*
X509185Y682677D01*
Y681627D01*
X509710Y681102D01*
X512333Y683202D02*
Y681627D01*
X512858Y681102D01*
X514432D01*
Y683202D01*
X515482Y681102D02*
Y683202D01*
X517056D01*
X517581Y682677D01*
Y681102D01*
X520730Y684251D02*
Y681102D01*
X519155D01*
X518631Y681627D01*
Y682677D01*
X519155Y683202D01*
X520730D01*
X506036Y673228D02*
Y676377D01*
X507611D01*
X508135Y675852D01*
Y674803D01*
X507611Y674278D01*
X506036D01*
X507086D02*
X508135Y673228D01*
X509710D02*
X510759D01*
X511284Y673753D01*
Y674803D01*
X510759Y675327D01*
X509710D01*
X509185Y674803D01*
Y673753D01*
X509710Y673228D01*
X512333Y675327D02*
Y673753D01*
X512858Y673228D01*
X514432D01*
Y675327D01*
X515482Y673228D02*
Y675327D01*
X517056D01*
X517581Y674803D01*
Y673228D01*
X520730Y676377D02*
Y673228D01*
X519155D01*
X518631Y673753D01*
Y674803D01*
X519155Y675327D01*
X520730D01*
X506036Y665354D02*
Y668503D01*
X507611D01*
X508135Y667978D01*
Y666929D01*
X507611Y666404D01*
X506036D01*
X507086D02*
X508135Y665354D01*
X509710D02*
X510759D01*
X511284Y665879D01*
Y666929D01*
X510759Y667453D01*
X509710D01*
X509185Y666929D01*
Y665879D01*
X509710Y665354D01*
X512333Y667453D02*
Y665879D01*
X512858Y665354D01*
X514432D01*
Y667453D01*
X515482Y665354D02*
Y667453D01*
X517056D01*
X517581Y666929D01*
Y665354D01*
X520730Y668503D02*
Y665354D01*
X519155D01*
X518631Y665879D01*
Y666929D01*
X519155Y667453D01*
X520730D01*
X506036Y657480D02*
Y660629D01*
X507611D01*
X508135Y660104D01*
Y659055D01*
X507611Y658530D01*
X506036D01*
X507086D02*
X508135Y657480D01*
X509710D02*
X510759D01*
X511284Y658005D01*
Y659055D01*
X510759Y659579D01*
X509710D01*
X509185Y659055D01*
Y658005D01*
X509710Y657480D01*
X512333Y659579D02*
Y658005D01*
X512858Y657480D01*
X514432D01*
Y659579D01*
X515482Y657480D02*
Y659579D01*
X517056D01*
X517581Y659055D01*
Y657480D01*
X520730Y660629D02*
Y657480D01*
X519155D01*
X518631Y658005D01*
Y659055D01*
X519155Y659579D01*
X520730D01*
X506036Y649606D02*
Y652755D01*
X507611D01*
X508135Y652230D01*
Y651181D01*
X507611Y650656D01*
X506036D01*
X507086D02*
X508135Y649606D01*
X509710D02*
X510759D01*
X511284Y650131D01*
Y651181D01*
X510759Y651705D01*
X509710D01*
X509185Y651181D01*
Y650131D01*
X509710Y649606D01*
X512333Y651705D02*
Y650131D01*
X512858Y649606D01*
X514432D01*
Y651705D01*
X515482Y649606D02*
Y651705D01*
X517056D01*
X517581Y651181D01*
Y649606D01*
X520730Y652755D02*
Y649606D01*
X519155D01*
X518631Y650131D01*
Y651181D01*
X519155Y651705D01*
X520730D01*
X506036Y641732D02*
Y644881D01*
X507611D01*
X508135Y644356D01*
Y643307D01*
X507611Y642782D01*
X506036D01*
X507086D02*
X508135Y641732D01*
X509710D02*
X510759D01*
X511284Y642257D01*
Y643307D01*
X510759Y643831D01*
X509710D01*
X509185Y643307D01*
Y642257D01*
X509710Y641732D01*
X512333Y643831D02*
Y642257D01*
X512858Y641732D01*
X514432D01*
Y643831D01*
X515482Y641732D02*
Y643831D01*
X517056D01*
X517581Y643307D01*
Y641732D01*
X520730Y644881D02*
Y641732D01*
X519155D01*
X518631Y642257D01*
Y643307D01*
X519155Y643831D01*
X520730D01*
X479271Y712598D02*
Y715747D01*
X480845D01*
X481370Y715222D01*
Y714173D01*
X480845Y713648D01*
X479271D01*
X482420Y715747D02*
X484519D01*
X483469D01*
Y712598D01*
X485568Y715747D02*
Y712598D01*
Y714173D01*
X487667D01*
Y715747D01*
Y712598D01*
X479271Y704724D02*
Y707873D01*
X480845D01*
X481370Y707348D01*
Y706299D01*
X480845Y705774D01*
X479271D01*
X482420Y707873D02*
X484519D01*
X483469D01*
Y704724D01*
X485568Y707873D02*
Y704724D01*
Y706299D01*
X487667D01*
Y707873D01*
Y704724D01*
X479271Y696850D02*
Y699999D01*
X480845D01*
X481370Y699474D01*
Y698425D01*
X480845Y697900D01*
X479271D01*
X482420Y699999D02*
X484519D01*
X483469D01*
Y696850D01*
X485568Y699999D02*
Y696850D01*
Y698425D01*
X487667D01*
Y699999D01*
Y696850D01*
X479271Y688976D02*
Y692125D01*
X481370Y688976D01*
Y692125D01*
X482420Y688976D02*
Y692125D01*
X483994D01*
X484519Y691600D01*
Y690551D01*
X483994Y690026D01*
X482420D01*
X485568Y692125D02*
X487667D01*
X486618D01*
Y688976D01*
X488717Y692125D02*
Y688976D01*
Y690551D01*
X490816D01*
Y692125D01*
Y688976D01*
X479271Y681102D02*
Y684251D01*
X480845D01*
X481370Y683726D01*
Y682677D01*
X480845Y682152D01*
X479271D01*
X482420Y684251D02*
X484519D01*
X483469D01*
Y681102D01*
X485568Y684251D02*
Y681102D01*
Y682677D01*
X487667D01*
Y684251D01*
Y681102D01*
X479271Y673228D02*
Y676377D01*
X481370Y673228D01*
Y676377D01*
X482420Y673228D02*
Y676377D01*
X483994D01*
X484519Y675852D01*
Y674803D01*
X483994Y674278D01*
X482420D01*
X485568Y676377D02*
X487667D01*
X486618D01*
Y673228D01*
X488717Y676377D02*
Y673228D01*
Y674803D01*
X490816D01*
Y676377D01*
Y673228D01*
X479271Y665354D02*
Y668503D01*
X481370Y665354D01*
Y668503D01*
X482420Y665354D02*
Y668503D01*
X483994D01*
X484519Y667978D01*
Y666929D01*
X483994Y666404D01*
X482420D01*
X485568Y668503D02*
X487667D01*
X486618D01*
Y665354D01*
X488717Y668503D02*
Y665354D01*
Y666929D01*
X490816D01*
Y668503D01*
Y665354D01*
X479271Y657480D02*
Y660629D01*
X480845D01*
X481370Y660104D01*
Y659055D01*
X480845Y658530D01*
X479271D01*
X482420Y660629D02*
X484519D01*
X483469D01*
Y657480D01*
X485568Y660629D02*
Y657480D01*
Y659055D01*
X487667D01*
Y660629D01*
Y657480D01*
X479271Y649606D02*
Y652755D01*
X480845D01*
X481370Y652230D01*
Y651181D01*
X480845Y650656D01*
X479271D01*
X482420Y652755D02*
X484519D01*
X483469D01*
Y649606D01*
X485568Y652755D02*
Y649606D01*
Y651181D01*
X487667D01*
Y652755D01*
Y649606D01*
X479271Y641732D02*
Y644881D01*
X480845D01*
X481370Y644356D01*
Y643307D01*
X480845Y642782D01*
X479271D01*
X482420Y644881D02*
X484519D01*
X483469D01*
Y641732D01*
X485568Y644881D02*
Y641732D01*
Y643307D01*
X487667D01*
Y644881D01*
Y641732D01*
X417740Y715222D02*
X418265Y715747D01*
X419315D01*
X419839Y715222D01*
Y714698D01*
X419315Y714173D01*
X418790D01*
X419315D01*
X419839Y713648D01*
Y713123D01*
X419315Y712598D01*
X418265D01*
X417740Y713123D01*
X421414Y712074D02*
X421939Y712598D01*
Y713123D01*
X421414D01*
Y712598D01*
X421939D01*
X421414Y712074D01*
X420889Y711549D01*
X426137Y712598D02*
X424038D01*
X426137Y714698D01*
Y715222D01*
X425612Y715747D01*
X424562D01*
X424038Y715222D01*
X427186D02*
X427711Y715747D01*
X428760D01*
X429285Y715222D01*
Y713123D01*
X428760Y712598D01*
X427711D01*
X427186Y713123D01*
Y715222D01*
X430335D02*
X430860Y715747D01*
X431909D01*
X432434Y715222D01*
Y713123D01*
X431909Y712598D01*
X430860D01*
X430335Y713123D01*
Y715222D01*
X433483Y712598D02*
Y714698D01*
X434008D01*
X434533Y714173D01*
Y712598D01*
Y714173D01*
X435058Y714698D01*
X435582Y714173D01*
Y712598D01*
X436632D02*
Y714698D01*
X437157D01*
X437681Y714173D01*
Y712598D01*
Y714173D01*
X438206Y714698D01*
X438731Y714173D01*
Y712598D01*
X443979D02*
X442929Y713648D01*
Y714698D01*
X443979Y715747D01*
X445553Y712598D02*
X446603D01*
X446078D01*
Y715747D01*
X445553Y715222D01*
X450276Y712598D02*
X448177D01*
X450276Y714698D01*
Y715222D01*
X449751Y715747D01*
X448702D01*
X448177Y715222D01*
X453425Y715747D02*
X451326D01*
Y714173D01*
X452375Y714698D01*
X452900D01*
X453425Y714173D01*
Y713123D01*
X452900Y712598D01*
X451850D01*
X451326Y713123D01*
X454999Y712074D02*
X455524Y712598D01*
Y713123D01*
X454999D01*
Y712598D01*
X455524D01*
X454999Y712074D01*
X454474Y711549D01*
X457623Y713123D02*
X458147Y712598D01*
X459197D01*
X459722Y713123D01*
Y715222D01*
X459197Y715747D01*
X458147D01*
X457623Y715222D01*
Y714698D01*
X458147Y714173D01*
X459722D01*
X460771Y715222D02*
X461296Y715747D01*
X462346D01*
X462870Y715222D01*
Y714698D01*
X462346Y714173D01*
X462870Y713648D01*
Y713123D01*
X462346Y712598D01*
X461296D01*
X460771Y713123D01*
Y713648D01*
X461296Y714173D01*
X460771Y714698D01*
Y715222D01*
X461296Y714173D02*
X462346D01*
X463920Y712598D02*
Y714698D01*
X464445D01*
X464969Y714173D01*
Y712598D01*
Y714173D01*
X465494Y714698D01*
X466019Y714173D01*
Y712598D01*
X467068D02*
X468118D01*
X467593D01*
Y714698D01*
X467068D01*
X469692Y712598D02*
X470742D01*
X470217D01*
Y715747D01*
X469692D01*
X472316Y712598D02*
X473366Y713648D01*
Y714698D01*
X472316Y715747D01*
X417740Y707348D02*
X418265Y707873D01*
X419315D01*
X419839Y707348D01*
Y705249D01*
X419315Y704724D01*
X418265D01*
X417740Y705249D01*
Y707348D01*
X421414Y704200D02*
X421939Y704724D01*
Y705249D01*
X421414D01*
Y704724D01*
X421939D01*
X421414Y704200D01*
X420889Y703675D01*
X426137Y707873D02*
X425087Y707348D01*
X424038Y706299D01*
Y705249D01*
X424562Y704724D01*
X425612D01*
X426137Y705249D01*
Y705774D01*
X425612Y706299D01*
X424038D01*
X427186Y707348D02*
X427711Y707873D01*
X428760D01*
X429285Y707348D01*
Y705249D01*
X428760Y704724D01*
X427711D01*
X427186Y705249D01*
Y707348D01*
X430335D02*
X430860Y707873D01*
X431909D01*
X432434Y707348D01*
Y705249D01*
X431909Y704724D01*
X430860D01*
X430335Y705249D01*
Y707348D01*
X433483Y704724D02*
Y706823D01*
X434008D01*
X434533Y706299D01*
Y704724D01*
Y706299D01*
X435058Y706823D01*
X435582Y706299D01*
Y704724D01*
X436632D02*
Y706823D01*
X437157D01*
X437681Y706299D01*
Y704724D01*
Y706299D01*
X438206Y706823D01*
X438731Y706299D01*
Y704724D01*
X443979D02*
X442929Y705774D01*
Y706823D01*
X443979Y707873D01*
X447652Y704724D02*
X445553D01*
X447652Y706823D01*
Y707348D01*
X447127Y707873D01*
X446078D01*
X445553Y707348D01*
X448702D02*
X449226Y707873D01*
X450276D01*
X450801Y707348D01*
Y706823D01*
X450276Y706299D01*
X449751D01*
X450276D01*
X450801Y705774D01*
Y705249D01*
X450276Y704724D01*
X449226D01*
X448702Y705249D01*
X452375Y704200D02*
X452900Y704724D01*
Y705249D01*
X452375D01*
Y704724D01*
X452900D01*
X452375Y704200D01*
X451850Y703675D01*
X457098Y707873D02*
X456048Y707348D01*
X454999Y706299D01*
Y705249D01*
X455524Y704724D01*
X456573D01*
X457098Y705249D01*
Y705774D01*
X456573Y706299D01*
X454999D01*
X460247Y704724D02*
X458147D01*
X460247Y706823D01*
Y707348D01*
X459722Y707873D01*
X458672D01*
X458147Y707348D01*
X461296Y704724D02*
Y706823D01*
X461821D01*
X462346Y706299D01*
Y704724D01*
Y706299D01*
X462870Y706823D01*
X463395Y706299D01*
Y704724D01*
X464445D02*
X465494D01*
X464969D01*
Y706823D01*
X464445D01*
X467068Y704724D02*
X468118D01*
X467593D01*
Y707873D01*
X467068D01*
X469692Y704724D02*
X470742Y705774D01*
Y706823D01*
X469692Y707873D01*
X417740Y699474D02*
X418265Y699999D01*
X419315D01*
X419839Y699474D01*
Y697375D01*
X419315Y696850D01*
X418265D01*
X417740Y697375D01*
Y699474D01*
X421414Y696326D02*
X421939Y696850D01*
Y697375D01*
X421414D01*
Y696850D01*
X421939D01*
X421414Y696326D01*
X420889Y695801D01*
X426137Y699999D02*
X425087Y699474D01*
X424038Y698425D01*
Y697375D01*
X424562Y696850D01*
X425612D01*
X426137Y697375D01*
Y697900D01*
X425612Y698425D01*
X424038D01*
X427186Y699474D02*
X427711Y699999D01*
X428760D01*
X429285Y699474D01*
Y697375D01*
X428760Y696850D01*
X427711D01*
X427186Y697375D01*
Y699474D01*
X430335D02*
X430860Y699999D01*
X431909D01*
X432434Y699474D01*
Y697375D01*
X431909Y696850D01*
X430860D01*
X430335Y697375D01*
Y699474D01*
X433483Y696850D02*
Y698949D01*
X434008D01*
X434533Y698425D01*
Y696850D01*
Y698425D01*
X435058Y698949D01*
X435582Y698425D01*
Y696850D01*
X436632D02*
Y698949D01*
X437157D01*
X437681Y698425D01*
Y696850D01*
Y698425D01*
X438206Y698949D01*
X438731Y698425D01*
Y696850D01*
X443979D02*
X442929Y697900D01*
Y698949D01*
X443979Y699999D01*
X447652Y696850D02*
X445553D01*
X447652Y698949D01*
Y699474D01*
X447127Y699999D01*
X446078D01*
X445553Y699474D01*
X448702D02*
X449226Y699999D01*
X450276D01*
X450801Y699474D01*
Y698949D01*
X450276Y698425D01*
X449751D01*
X450276D01*
X450801Y697900D01*
Y697375D01*
X450276Y696850D01*
X449226D01*
X448702Y697375D01*
X452375Y696326D02*
X452900Y696850D01*
Y697375D01*
X452375D01*
Y696850D01*
X452900D01*
X452375Y696326D01*
X451850Y695801D01*
X457098Y699999D02*
X456048Y699474D01*
X454999Y698425D01*
Y697375D01*
X455524Y696850D01*
X456573D01*
X457098Y697375D01*
Y697900D01*
X456573Y698425D01*
X454999D01*
X460247Y696850D02*
X458147D01*
X460247Y698949D01*
Y699474D01*
X459722Y699999D01*
X458672D01*
X458147Y699474D01*
X461296Y696850D02*
Y698949D01*
X461821D01*
X462346Y698425D01*
Y696850D01*
Y698425D01*
X462870Y698949D01*
X463395Y698425D01*
Y696850D01*
X464445D02*
X465494D01*
X464969D01*
Y698949D01*
X464445D01*
X467068Y696850D02*
X468118D01*
X467593D01*
Y699999D01*
X467068D01*
X469692Y696850D02*
X470742Y697900D01*
Y698949D01*
X469692Y699999D01*
X417740Y691600D02*
X418265Y692125D01*
X419315D01*
X419839Y691600D01*
Y689501D01*
X419315Y688976D01*
X418265D01*
X417740Y689501D01*
Y691600D01*
X421414Y688452D02*
X421939Y688976D01*
Y689501D01*
X421414D01*
Y688976D01*
X421939D01*
X421414Y688452D01*
X420889Y687927D01*
X426137Y692125D02*
X425087Y691600D01*
X424038Y690551D01*
Y689501D01*
X424562Y688976D01*
X425612D01*
X426137Y689501D01*
Y690026D01*
X425612Y690551D01*
X424038D01*
X429285Y692125D02*
X427186D01*
Y690551D01*
X428236Y691076D01*
X428760D01*
X429285Y690551D01*
Y689501D01*
X428760Y688976D01*
X427711D01*
X427186Y689501D01*
X430335Y691600D02*
X430860Y692125D01*
X431909D01*
X432434Y691600D01*
Y689501D01*
X431909Y688976D01*
X430860D01*
X430335Y689501D01*
Y691600D01*
X433483Y688976D02*
Y691076D01*
X434008D01*
X434533Y690551D01*
Y688976D01*
Y690551D01*
X435058Y691076D01*
X435582Y690551D01*
Y688976D01*
X436632D02*
Y691076D01*
X437157D01*
X437681Y690551D01*
Y688976D01*
Y690551D01*
X438206Y691076D01*
X438731Y690551D01*
Y688976D01*
X443979D02*
X442929Y690026D01*
Y691076D01*
X443979Y692125D01*
X447652Y688976D02*
X445553D01*
X447652Y691076D01*
Y691600D01*
X447127Y692125D01*
X446078D01*
X445553Y691600D01*
X450801Y692125D02*
X448702D01*
Y690551D01*
X449751Y691076D01*
X450276D01*
X450801Y690551D01*
Y689501D01*
X450276Y688976D01*
X449226D01*
X448702Y689501D01*
X452375Y688452D02*
X452900Y688976D01*
Y689501D01*
X452375D01*
Y688976D01*
X452900D01*
X452375Y688452D01*
X451850Y687927D01*
X457098Y692125D02*
X454999D01*
Y690551D01*
X456048Y691076D01*
X456573D01*
X457098Y690551D01*
Y689501D01*
X456573Y688976D01*
X455524D01*
X454999Y689501D01*
X458147D02*
X458672Y688976D01*
X459722D01*
X460247Y689501D01*
Y691600D01*
X459722Y692125D01*
X458672D01*
X458147Y691600D01*
Y691076D01*
X458672Y690551D01*
X460247D01*
X461296Y688976D02*
Y691076D01*
X461821D01*
X462346Y690551D01*
Y688976D01*
Y690551D01*
X462870Y691076D01*
X463395Y690551D01*
Y688976D01*
X464445D02*
X465494D01*
X464969D01*
Y691076D01*
X464445D01*
X467068Y688976D02*
X468118D01*
X467593D01*
Y692125D01*
X467068D01*
X469692Y688976D02*
X470742Y690026D01*
Y691076D01*
X469692Y692125D01*
X419839Y681102D02*
X417740D01*
X419839Y683202D01*
Y683726D01*
X419315Y684251D01*
X418265D01*
X417740Y683726D01*
X421414Y680578D02*
X421939Y681102D01*
Y681627D01*
X421414D01*
Y681102D01*
X421939D01*
X421414Y680578D01*
X420889Y680053D01*
X426137Y684251D02*
X424038D01*
Y682677D01*
X425087Y683202D01*
X425612D01*
X426137Y682677D01*
Y681627D01*
X425612Y681102D01*
X424562D01*
X424038Y681627D01*
X427186Y683726D02*
X427711Y684251D01*
X428760D01*
X429285Y683726D01*
Y681627D01*
X428760Y681102D01*
X427711D01*
X427186Y681627D01*
Y683726D01*
X430335D02*
X430860Y684251D01*
X431909D01*
X432434Y683726D01*
Y681627D01*
X431909Y681102D01*
X430860D01*
X430335Y681627D01*
Y683726D01*
X433483Y681102D02*
Y683202D01*
X434008D01*
X434533Y682677D01*
Y681102D01*
Y682677D01*
X435058Y683202D01*
X435582Y682677D01*
Y681102D01*
X436632D02*
Y683202D01*
X437157D01*
X437681Y682677D01*
Y681102D01*
Y682677D01*
X438206Y683202D01*
X438731Y682677D01*
Y681102D01*
X443979D02*
X442929Y682152D01*
Y683202D01*
X443979Y684251D01*
X445553Y681627D02*
X446078Y681102D01*
X447127D01*
X447652Y681627D01*
Y683726D01*
X447127Y684251D01*
X446078D01*
X445553Y683726D01*
Y683202D01*
X446078Y682677D01*
X447652D01*
X448702Y683726D02*
X449226Y684251D01*
X450276D01*
X450801Y683726D01*
Y683202D01*
X450276Y682677D01*
X450801Y682152D01*
Y681627D01*
X450276Y681102D01*
X449226D01*
X448702Y681627D01*
Y682152D01*
X449226Y682677D01*
X448702Y683202D01*
Y683726D01*
X449226Y682677D02*
X450276D01*
X452375Y680578D02*
X452900Y681102D01*
Y681627D01*
X452375D01*
Y681102D01*
X452900D01*
X452375Y680578D01*
X451850Y680053D01*
X456573Y681102D02*
Y684251D01*
X454999Y682677D01*
X457098D01*
X458147Y683726D02*
X458672Y684251D01*
X459722D01*
X460247Y683726D01*
Y683202D01*
X459722Y682677D01*
X459197D01*
X459722D01*
X460247Y682152D01*
Y681627D01*
X459722Y681102D01*
X458672D01*
X458147Y681627D01*
X461296Y681102D02*
Y683202D01*
X461821D01*
X462346Y682677D01*
Y681102D01*
Y682677D01*
X462870Y683202D01*
X463395Y682677D01*
Y681102D01*
X464445D02*
X465494D01*
X464969D01*
Y683202D01*
X464445D01*
X467068Y681102D02*
X468118D01*
X467593D01*
Y684251D01*
X467068D01*
X469692Y681102D02*
X470742Y682152D01*
Y683202D01*
X469692Y684251D01*
X417740Y675852D02*
X418265Y676377D01*
X419315D01*
X419839Y675852D01*
Y675327D01*
X419315Y674803D01*
X418790D01*
X419315D01*
X419839Y674278D01*
Y673753D01*
X419315Y673228D01*
X418265D01*
X417740Y673753D01*
X421414Y672704D02*
X421939Y673228D01*
Y673753D01*
X421414D01*
Y673228D01*
X421939D01*
X421414Y672704D01*
X420889Y672179D01*
X424038Y675852D02*
X424562Y676377D01*
X425612D01*
X426137Y675852D01*
Y673753D01*
X425612Y673228D01*
X424562D01*
X424038Y673753D01*
Y675852D01*
X427186D02*
X427711Y676377D01*
X428760D01*
X429285Y675852D01*
Y673753D01*
X428760Y673228D01*
X427711D01*
X427186Y673753D01*
Y675852D01*
X430335D02*
X430860Y676377D01*
X431909D01*
X432434Y675852D01*
Y673753D01*
X431909Y673228D01*
X430860D01*
X430335Y673753D01*
Y675852D01*
X433483Y673228D02*
Y675327D01*
X434008D01*
X434533Y674803D01*
Y673228D01*
Y674803D01*
X435058Y675327D01*
X435582Y674803D01*
Y673228D01*
X436632D02*
Y675327D01*
X437157D01*
X437681Y674803D01*
Y673228D01*
Y674803D01*
X438206Y675327D01*
X438731Y674803D01*
Y673228D01*
X443979D02*
X442929Y674278D01*
Y675327D01*
X443979Y676377D01*
X445553Y673228D02*
X446603D01*
X446078D01*
Y676377D01*
X445553Y675852D01*
X448177Y673228D02*
X449226D01*
X448702D01*
Y676377D01*
X448177Y675852D01*
X450801D02*
X451326Y676377D01*
X452375D01*
X452900Y675852D01*
Y675327D01*
X452375Y674803D01*
X452900Y674278D01*
Y673753D01*
X452375Y673228D01*
X451326D01*
X450801Y673753D01*
Y674278D01*
X451326Y674803D01*
X450801Y675327D01*
Y675852D01*
X451326Y674803D02*
X452375D01*
X454474Y672704D02*
X454999Y673228D01*
Y673753D01*
X454474D01*
Y673228D01*
X454999D01*
X454474Y672704D01*
X453949Y672179D01*
X457098Y673228D02*
X458147D01*
X457623D01*
Y676377D01*
X457098Y675852D01*
X459722Y673228D02*
X460771D01*
X460247D01*
Y676377D01*
X459722Y675852D01*
X462346Y673228D02*
Y675327D01*
X462870D01*
X463395Y674803D01*
Y673228D01*
Y674803D01*
X463920Y675327D01*
X464445Y674803D01*
Y673228D01*
X465494D02*
X466544D01*
X466019D01*
Y675327D01*
X465494D01*
X468118Y673228D02*
X469168D01*
X468643D01*
Y676377D01*
X468118D01*
X470742Y673228D02*
X471791Y674278D01*
Y675327D01*
X470742Y676377D01*
X417740Y667978D02*
X418265Y668503D01*
X419315D01*
X419839Y667978D01*
Y667453D01*
X419315Y666929D01*
X418790D01*
X419315D01*
X419839Y666404D01*
Y665879D01*
X419315Y665354D01*
X418265D01*
X417740Y665879D01*
X421414Y664830D02*
X421939Y665354D01*
Y665879D01*
X421414D01*
Y665354D01*
X421939D01*
X421414Y664830D01*
X420889Y664305D01*
X426137Y665354D02*
X424038D01*
X426137Y667453D01*
Y667978D01*
X425612Y668503D01*
X424562D01*
X424038Y667978D01*
X427186D02*
X427711Y668503D01*
X428760D01*
X429285Y667978D01*
Y665879D01*
X428760Y665354D01*
X427711D01*
X427186Y665879D01*
Y667978D01*
X430335D02*
X430860Y668503D01*
X431909D01*
X432434Y667978D01*
Y665879D01*
X431909Y665354D01*
X430860D01*
X430335Y665879D01*
Y667978D01*
X433483Y665354D02*
Y667453D01*
X434008D01*
X434533Y666929D01*
Y665354D01*
Y666929D01*
X435058Y667453D01*
X435582Y666929D01*
Y665354D01*
X436632D02*
Y667453D01*
X437157D01*
X437681Y666929D01*
Y665354D01*
Y666929D01*
X438206Y667453D01*
X438731Y666929D01*
Y665354D01*
X443979D02*
X442929Y666404D01*
Y667453D01*
X443979Y668503D01*
X445553Y665354D02*
X446603D01*
X446078D01*
Y668503D01*
X445553Y667978D01*
X450276Y665354D02*
X448177D01*
X450276Y667453D01*
Y667978D01*
X449751Y668503D01*
X448702D01*
X448177Y667978D01*
X453425Y668503D02*
X451326D01*
Y666929D01*
X452375Y667453D01*
X452900D01*
X453425Y666929D01*
Y665879D01*
X452900Y665354D01*
X451850D01*
X451326Y665879D01*
X454999Y664830D02*
X455524Y665354D01*
Y665879D01*
X454999D01*
Y665354D01*
X455524D01*
X454999Y664830D01*
X454474Y664305D01*
X457623Y665879D02*
X458147Y665354D01*
X459197D01*
X459722Y665879D01*
Y667978D01*
X459197Y668503D01*
X458147D01*
X457623Y667978D01*
Y667453D01*
X458147Y666929D01*
X459722D01*
X460771Y667978D02*
X461296Y668503D01*
X462346D01*
X462870Y667978D01*
Y667453D01*
X462346Y666929D01*
X462870Y666404D01*
Y665879D01*
X462346Y665354D01*
X461296D01*
X460771Y665879D01*
Y666404D01*
X461296Y666929D01*
X460771Y667453D01*
Y667978D01*
X461296Y666929D02*
X462346D01*
X463920Y665354D02*
Y667453D01*
X464445D01*
X464969Y666929D01*
Y665354D01*
Y666929D01*
X465494Y667453D01*
X466019Y666929D01*
Y665354D01*
X467068D02*
X468118D01*
X467593D01*
Y667453D01*
X467068D01*
X469692Y665354D02*
X470742D01*
X470217D01*
Y668503D01*
X469692D01*
X472316Y665354D02*
X473366Y666404D01*
Y667453D01*
X472316Y668503D01*
X417740Y657480D02*
X418790D01*
X418265D01*
Y660629D01*
X417740Y660104D01*
X420889Y656956D02*
X421414Y657480D01*
Y658005D01*
X420889D01*
Y657480D01*
X421414D01*
X420889Y656956D01*
X420364Y656431D01*
X423513Y660104D02*
X424038Y660629D01*
X425087D01*
X425612Y660104D01*
Y659579D01*
X425087Y659055D01*
X424562D01*
X425087D01*
X425612Y658530D01*
Y658005D01*
X425087Y657480D01*
X424038D01*
X423513Y658005D01*
X426661Y660104D02*
X427186Y660629D01*
X428236D01*
X428760Y660104D01*
Y658005D01*
X428236Y657480D01*
X427186D01*
X426661Y658005D01*
Y660104D01*
X429810D02*
X430335Y660629D01*
X431384D01*
X431909Y660104D01*
Y658005D01*
X431384Y657480D01*
X430335D01*
X429810Y658005D01*
Y660104D01*
X432959Y657480D02*
Y659579D01*
X433483D01*
X434008Y659055D01*
Y657480D01*
Y659055D01*
X434533Y659579D01*
X435058Y659055D01*
Y657480D01*
X436107D02*
Y659579D01*
X436632D01*
X437157Y659055D01*
Y657480D01*
Y659055D01*
X437682Y659579D01*
X438206Y659055D01*
Y657480D01*
X443454D02*
X442404Y658530D01*
Y659579D01*
X443454Y660629D01*
X447127D02*
X445028D01*
Y659055D01*
X446078Y659579D01*
X446603D01*
X447127Y659055D01*
Y658005D01*
X446603Y657480D01*
X445553D01*
X445028Y658005D01*
X448177Y657480D02*
X449226D01*
X448702D01*
Y660629D01*
X448177Y660104D01*
X451326Y656956D02*
X451850Y657480D01*
Y658005D01*
X451326D01*
Y657480D01*
X451850D01*
X451326Y656956D01*
X450801Y656431D01*
X453949Y657480D02*
X454999D01*
X454474D01*
Y660629D01*
X453949Y660104D01*
X456573D02*
X457098Y660629D01*
X458147D01*
X458672Y660104D01*
Y659579D01*
X458147Y659055D01*
X458672Y658530D01*
Y658005D01*
X458147Y657480D01*
X457098D01*
X456573Y658005D01*
Y658530D01*
X457098Y659055D01*
X456573Y659579D01*
Y660104D01*
X457098Y659055D02*
X458147D01*
X459722Y657480D02*
Y659579D01*
X460247D01*
X460771Y659055D01*
Y657480D01*
Y659055D01*
X461296Y659579D01*
X461821Y659055D01*
Y657480D01*
X462870D02*
X463920D01*
X463395D01*
Y659579D01*
X462870D01*
X465494Y657480D02*
X466544D01*
X466019D01*
Y660629D01*
X465494D01*
X468118Y657480D02*
X469168Y658530D01*
Y659579D01*
X468118Y660629D01*
X417740Y652230D02*
X418265Y652755D01*
X419315D01*
X419839Y652230D01*
Y650131D01*
X419315Y649606D01*
X418265D01*
X417740Y650131D01*
Y652230D01*
X421414Y649082D02*
X421939Y649606D01*
Y650131D01*
X421414D01*
Y649606D01*
X421939D01*
X421414Y649082D01*
X420889Y648557D01*
X424038Y650131D02*
X424562Y649606D01*
X425612D01*
X426137Y650131D01*
Y652230D01*
X425612Y652755D01*
X424562D01*
X424038Y652230D01*
Y651705D01*
X424562Y651181D01*
X426137D01*
X427186Y652230D02*
X427711Y652755D01*
X428760D01*
X429285Y652230D01*
Y650131D01*
X428760Y649606D01*
X427711D01*
X427186Y650131D01*
Y652230D01*
X430335D02*
X430860Y652755D01*
X431909D01*
X432434Y652230D01*
Y650131D01*
X431909Y649606D01*
X430860D01*
X430335Y650131D01*
Y652230D01*
X433483Y649606D02*
Y651705D01*
X434008D01*
X434533Y651181D01*
Y649606D01*
Y651181D01*
X435058Y651705D01*
X435582Y651181D01*
Y649606D01*
X436632D02*
Y651705D01*
X437157D01*
X437681Y651181D01*
Y649606D01*
Y651181D01*
X438206Y651705D01*
X438731Y651181D01*
Y649606D01*
X443979D02*
X442929Y650656D01*
Y651705D01*
X443979Y652755D01*
X445553Y652230D02*
X446078Y652755D01*
X447127D01*
X447652Y652230D01*
Y651705D01*
X447127Y651181D01*
X446603D01*
X447127D01*
X447652Y650656D01*
Y650131D01*
X447127Y649606D01*
X446078D01*
X445553Y650131D01*
X450801Y652755D02*
X448702D01*
Y651181D01*
X449751Y651705D01*
X450276D01*
X450801Y651181D01*
Y650131D01*
X450276Y649606D01*
X449226D01*
X448702Y650131D01*
X452375Y649082D02*
X452900Y649606D01*
Y650131D01*
X452375D01*
Y649606D01*
X452900D01*
X452375Y649082D01*
X451850Y648557D01*
X456573Y649606D02*
Y652755D01*
X454999Y651181D01*
X457098D01*
X458147Y652230D02*
X458672Y652755D01*
X459722D01*
X460247Y652230D01*
Y651705D01*
X459722Y651181D01*
X459197D01*
X459722D01*
X460247Y650656D01*
Y650131D01*
X459722Y649606D01*
X458672D01*
X458147Y650131D01*
X461296Y649606D02*
Y651705D01*
X461821D01*
X462346Y651181D01*
Y649606D01*
Y651181D01*
X462870Y651705D01*
X463395Y651181D01*
Y649606D01*
X464445D02*
X465494D01*
X464969D01*
Y651705D01*
X464445D01*
X467068Y649606D02*
X468118D01*
X467593D01*
Y652755D01*
X467068D01*
X469692Y649606D02*
X470742Y650656D01*
Y651705D01*
X469692Y652755D01*
X417740Y644356D02*
X418265Y644881D01*
X419315D01*
X419839Y644356D01*
Y642257D01*
X419315Y641732D01*
X418265D01*
X417740Y642257D01*
Y644356D01*
X421414Y641208D02*
X421939Y641732D01*
Y642257D01*
X421414D01*
Y641732D01*
X421939D01*
X421414Y641208D01*
X420889Y640683D01*
X424038Y644356D02*
X424562Y644881D01*
X425612D01*
X426137Y644356D01*
Y643831D01*
X425612Y643307D01*
X425087D01*
X425612D01*
X426137Y642782D01*
Y642257D01*
X425612Y641732D01*
X424562D01*
X424038Y642257D01*
X427186Y644356D02*
X427711Y644881D01*
X428760D01*
X429285Y644356D01*
Y642257D01*
X428760Y641732D01*
X427711D01*
X427186Y642257D01*
Y644356D01*
X430335D02*
X430860Y644881D01*
X431909D01*
X432434Y644356D01*
Y642257D01*
X431909Y641732D01*
X430860D01*
X430335Y642257D01*
Y644356D01*
X433483Y641732D02*
Y643831D01*
X434008D01*
X434533Y643307D01*
Y641732D01*
Y643307D01*
X435058Y643831D01*
X435582Y643307D01*
Y641732D01*
X436632D02*
Y643831D01*
X437157D01*
X437681Y643307D01*
Y641732D01*
Y643307D01*
X438206Y643831D01*
X438731Y643307D01*
Y641732D01*
X443979D02*
X442929Y642782D01*
Y643831D01*
X443979Y644881D01*
X445553Y641732D02*
X446603D01*
X446078D01*
Y644881D01*
X445553Y644356D01*
X448177Y641732D02*
X449226D01*
X448702D01*
Y644881D01*
X448177Y644356D01*
X451326Y641208D02*
X451850Y641732D01*
Y642257D01*
X451326D01*
Y641732D01*
X451850D01*
X451326Y641208D01*
X450801Y640683D01*
X453949Y644356D02*
X454474Y644881D01*
X455524D01*
X456048Y644356D01*
Y643831D01*
X455524Y643307D01*
X456048Y642782D01*
Y642257D01*
X455524Y641732D01*
X454474D01*
X453949Y642257D01*
Y642782D01*
X454474Y643307D01*
X453949Y643831D01*
Y644356D01*
X454474Y643307D02*
X455524D01*
X457098Y641732D02*
X458147D01*
X457623D01*
Y644881D01*
X457098Y644356D01*
X459722Y641732D02*
Y643831D01*
X460247D01*
X460771Y643307D01*
Y641732D01*
Y643307D01*
X461296Y643831D01*
X461821Y643307D01*
Y641732D01*
X462870D02*
X463920D01*
X463395D01*
Y643831D01*
X462870D01*
X465494Y641732D02*
X466544D01*
X466019D01*
Y644881D01*
X465494D01*
X468118Y641732D02*
X469168Y642782D01*
Y643831D01*
X468118Y644881D01*
X387171Y633858D02*
X388221D01*
X387696D01*
Y637007D01*
X387171Y636482D01*
X389795D02*
X390320Y637007D01*
X391369D01*
X391894Y636482D01*
Y635957D01*
X391369Y635433D01*
X390844D01*
X391369D01*
X391894Y634908D01*
Y634383D01*
X391369Y633858D01*
X390320D01*
X389795Y634383D01*
X392943Y633858D02*
X393993D01*
X393468D01*
Y637007D01*
X392943Y636482D01*
X398716Y637007D02*
X400815D01*
X399765D01*
Y633858D01*
X402389D02*
X403439D01*
X403964Y634383D01*
Y635433D01*
X403439Y635957D01*
X402389D01*
X401864Y635433D01*
Y634383D01*
X402389Y633858D01*
X405538Y636482D02*
Y635957D01*
X405013D01*
X406063D01*
X405538D01*
Y634383D01*
X406063Y633858D01*
X408162Y635957D02*
X409211D01*
X409736Y635433D01*
Y633858D01*
X408162D01*
X407637Y634383D01*
X408162Y634908D01*
X409736D01*
X410785Y633858D02*
X411835D01*
X411310D01*
Y637007D01*
X410785D01*
X387171Y712598D02*
X388221D01*
X387696D01*
Y715747D01*
X387171Y715222D01*
X389270Y704724D02*
X387171D01*
X389270Y706823D01*
Y707348D01*
X388745Y707873D01*
X387696D01*
X387171Y707348D01*
X389270Y696850D02*
X387171D01*
X389270Y698949D01*
Y699474D01*
X388745Y699999D01*
X387696D01*
X387171Y699474D01*
X389270Y688976D02*
X387171D01*
X389270Y691076D01*
Y691600D01*
X388745Y692125D01*
X387696D01*
X387171Y691600D01*
X389270Y681102D02*
X387171D01*
X389270Y683202D01*
Y683726D01*
X388745Y684251D01*
X387696D01*
X387171Y683726D01*
X388745Y673228D02*
Y676377D01*
X387171Y674803D01*
X389270D01*
X388745Y665354D02*
Y668503D01*
X387171Y666929D01*
X389270D01*
X387171Y657480D02*
X388221D01*
X387696D01*
Y660629D01*
X387171Y660104D01*
X389795D02*
X390320Y660629D01*
X391369D01*
X391894Y660104D01*
Y658005D01*
X391369Y657480D01*
X390320D01*
X389795Y658005D01*
Y660104D01*
X387171Y652230D02*
X387696Y652755D01*
X388745D01*
X389270Y652230D01*
Y651705D01*
X388745Y651181D01*
X388221D01*
X388745D01*
X389270Y650656D01*
Y650131D01*
X388745Y649606D01*
X387696D01*
X387171Y650131D01*
X390320D02*
X390844Y649606D01*
X391894D01*
X392419Y650131D01*
Y652230D01*
X391894Y652755D01*
X390844D01*
X390320Y652230D01*
Y651705D01*
X390844Y651181D01*
X392419D01*
X389270Y644881D02*
X388221Y644356D01*
X387171Y643307D01*
Y642257D01*
X387696Y641732D01*
X388745D01*
X389270Y642257D01*
Y642782D01*
X388745Y643307D01*
X387171D01*
X392419Y644881D02*
X390320D01*
Y643307D01*
X391369Y643831D01*
X391894D01*
X392419Y643307D01*
Y642257D01*
X391894Y641732D01*
X390844D01*
X390320Y642257D01*
X454499Y621787D02*
X456598D01*
X454499Y622837D02*
X456598D01*
X460796Y620738D02*
Y623886D01*
X462370D01*
X462895Y623362D01*
Y622312D01*
X462370Y621787D01*
X460796D01*
X461845D02*
X462895Y620738D01*
X464469D02*
X465519D01*
X466044Y621263D01*
Y622312D01*
X465519Y622837D01*
X464469D01*
X463945Y622312D01*
Y621263D01*
X464469Y620738D01*
X467093Y622837D02*
Y621263D01*
X467618Y620738D01*
X469192D01*
Y622837D01*
X470767Y623362D02*
Y622837D01*
X470242D01*
X471291D01*
X470767D01*
Y621263D01*
X471291Y620738D01*
X474440D02*
X473390D01*
X472866Y621263D01*
Y622312D01*
X473390Y622837D01*
X474440D01*
X474965Y622312D01*
Y621787D01*
X472866D01*
X478113Y623886D02*
Y620738D01*
X476539D01*
X476014Y621263D01*
Y622312D01*
X476539Y622837D01*
X478113D01*
X482311Y620738D02*
Y623886D01*
X483886D01*
X484410Y623362D01*
Y622312D01*
X483886Y621787D01*
X482311D01*
X485985Y622837D02*
X487034D01*
X487559Y622312D01*
Y620738D01*
X485985D01*
X485460Y621263D01*
X485985Y621787D01*
X487559D01*
X489133Y623362D02*
Y622837D01*
X488609D01*
X489658D01*
X489133D01*
Y621263D01*
X489658Y620738D01*
X491232Y623886D02*
Y620738D01*
Y622312D01*
X491757Y622837D01*
X492807D01*
X493331Y622312D01*
Y620738D01*
X497530Y623886D02*
Y620738D01*
X499629D01*
X502252D02*
X501203D01*
X500678Y621263D01*
Y622312D01*
X501203Y622837D01*
X502252D01*
X502777Y622312D01*
Y621787D01*
X500678D01*
X503827Y620738D02*
Y622837D01*
X505401D01*
X505926Y622312D01*
Y620738D01*
X508025Y619688D02*
X508550D01*
X509074Y620213D01*
Y622837D01*
X507500D01*
X506975Y622312D01*
Y621263D01*
X507500Y620738D01*
X509074D01*
X510649Y623362D02*
Y622837D01*
X510124D01*
X511173D01*
X510649D01*
Y621263D01*
X511173Y620738D01*
X512748Y623886D02*
Y620738D01*
Y622312D01*
X513272Y622837D01*
X514322D01*
X514847Y622312D01*
Y620738D01*
X519045Y622312D02*
X521144D01*
X520094Y623362D02*
Y621263D01*
X525342Y623886D02*
X527441D01*
X526392D01*
Y620738D01*
X529015D02*
X530065D01*
X530590Y621263D01*
Y622312D01*
X530065Y622837D01*
X529015D01*
X528491Y622312D01*
Y621263D01*
X529015Y620738D01*
X532164D02*
X533214D01*
X533738Y621263D01*
Y622312D01*
X533214Y622837D01*
X532164D01*
X531639Y622312D01*
Y621263D01*
X532164Y620738D01*
X534788D02*
X535837D01*
X535313D01*
Y623886D01*
X534788D01*
X542659Y623362D02*
X542135Y623886D01*
X541085D01*
X540560Y623362D01*
Y622837D01*
X541085Y622312D01*
X542135D01*
X542659Y621787D01*
Y621263D01*
X542135Y620738D01*
X541085D01*
X540560Y621263D01*
X543709Y620738D02*
X544758D01*
X544234D01*
Y622837D01*
X543709D01*
X546333D02*
X548432D01*
X546333Y620738D01*
X548432D01*
X551056D02*
X550006D01*
X549481Y621263D01*
Y622312D01*
X550006Y622837D01*
X551056D01*
X551580Y622312D01*
Y621787D01*
X549481D01*
X555779D02*
X557878D01*
X555779Y622837D02*
X557878D01*
X564175Y623362D02*
X563650Y623886D01*
X562601D01*
X562076Y623362D01*
Y622837D01*
X562601Y622312D01*
X563650D01*
X564175Y621787D01*
Y621263D01*
X563650Y620738D01*
X562601D01*
X562076Y621263D01*
X565224Y620738D02*
X566274D01*
X565749D01*
Y623886D01*
X565224D01*
X568373Y620738D02*
X569422D01*
X569947Y621263D01*
Y622312D01*
X569422Y622837D01*
X568373D01*
X567848Y622312D01*
Y621263D01*
X568373Y620738D01*
X571522Y623362D02*
Y622837D01*
X570997D01*
X572046D01*
X571522D01*
Y621263D01*
X572046Y620738D01*
X576769D02*
X577819D01*
X577294D01*
Y623886D01*
X576769D01*
X580967Y620738D02*
X579918D01*
X579393Y621263D01*
Y622312D01*
X579918Y622837D01*
X580967D01*
X581492Y622312D01*
Y621787D01*
X579393D01*
X582542Y620738D02*
Y622837D01*
X584116D01*
X584641Y622312D01*
Y620738D01*
X586740Y619688D02*
X587264D01*
X587789Y620213D01*
Y622837D01*
X586215D01*
X585690Y622312D01*
Y621263D01*
X586215Y620738D01*
X587789D01*
X589363Y623362D02*
Y622837D01*
X588839D01*
X589888D01*
X589363D01*
Y621263D01*
X589888Y620738D01*
X591463Y623886D02*
Y620738D01*
Y622312D01*
X591987Y622837D01*
X593037D01*
X593562Y622312D01*
Y620738D01*
X598284Y622837D02*
X599334D01*
X599859Y622312D01*
Y620738D01*
X598284D01*
X597760Y621263D01*
X598284Y621787D01*
X599859D01*
X600908Y620738D02*
X602483D01*
X603007Y621263D01*
X602483Y621787D01*
X601433D01*
X600908Y622312D01*
X601433Y622837D01*
X603007D01*
X609305Y623886D02*
Y620738D01*
X607730D01*
X607205Y621263D01*
Y622312D01*
X607730Y622837D01*
X609305D01*
X611928Y620738D02*
X610879D01*
X610354Y621263D01*
Y622312D01*
X610879Y622837D01*
X611928D01*
X612453Y622312D01*
Y621787D01*
X610354D01*
X614027Y620738D02*
Y623362D01*
Y622312D01*
X613503D01*
X614552D01*
X614027D01*
Y623362D01*
X614552Y623886D01*
X616126Y620738D02*
X617176D01*
X616651D01*
Y622837D01*
X616126D01*
X618750Y620738D02*
Y622837D01*
X620325D01*
X620849Y622312D01*
Y620738D01*
X623473D02*
X622424D01*
X621899Y621263D01*
Y622312D01*
X622424Y622837D01*
X623473D01*
X623998Y622312D01*
Y621787D01*
X621899D01*
X627147Y623886D02*
Y620738D01*
X625572D01*
X625047Y621263D01*
Y622312D01*
X625572Y622837D01*
X627147D01*
X631345Y620738D02*
X632394D01*
X631870D01*
Y622837D01*
X631345D01*
X633968Y620738D02*
Y622837D01*
X635543D01*
X636068Y622312D01*
Y620738D01*
X640791Y623362D02*
Y622837D01*
X640266D01*
X641315D01*
X640791D01*
Y621263D01*
X641315Y620738D01*
X642889Y623886D02*
Y620738D01*
Y622312D01*
X643414Y622837D01*
X644464D01*
X644989Y622312D01*
Y620738D01*
X647612D02*
X646563D01*
X646038Y621263D01*
Y622312D01*
X646563Y622837D01*
X647612D01*
X648137Y622312D01*
Y621787D01*
X646038D01*
X652335Y620738D02*
Y623886D01*
X653910D01*
X654434Y623362D01*
Y622312D01*
X653910Y621787D01*
X652335D01*
X657583Y623362D02*
X657058Y623886D01*
X656009D01*
X655484Y623362D01*
Y621263D01*
X656009Y620738D01*
X657058D01*
X657583Y621263D01*
X658633Y623886D02*
Y620738D01*
X660207D01*
X660732Y621263D01*
Y621787D01*
X660207Y622312D01*
X658633D01*
X660207D01*
X660732Y622837D01*
Y623362D01*
X660207Y623886D01*
X658633D01*
X664930Y620738D02*
X665979D01*
X665454D01*
Y623886D01*
X664930D01*
X668078Y622837D02*
X669128D01*
X669653Y622312D01*
Y620738D01*
X668078D01*
X667554Y621263D01*
X668078Y621787D01*
X669653D01*
X670702Y622837D02*
Y621263D01*
X671227Y620738D01*
X672801D01*
Y620213D01*
X672276Y619688D01*
X671752D01*
X672801Y620738D02*
Y622837D01*
X674375Y620738D02*
X675425D01*
X675950Y621263D01*
Y622312D01*
X675425Y622837D01*
X674375D01*
X673851Y622312D01*
Y621263D01*
X674375Y620738D01*
X676999Y622837D02*
Y621263D01*
X677524Y620738D01*
X679098D01*
Y622837D01*
X680673Y623362D02*
Y622837D01*
X680148D01*
X681197D01*
X680673D01*
Y621263D01*
X681197Y620738D01*
X472866Y627167D02*
X474965D01*
X472866Y628216D02*
X474965D01*
X481262Y628741D02*
X480737Y629265D01*
X479688D01*
X479163Y628741D01*
Y626642D01*
X479688Y626117D01*
X480737D01*
X481262Y626642D01*
X482836Y628216D02*
X483886D01*
X484410Y627691D01*
Y626117D01*
X482836D01*
X482311Y626642D01*
X482836Y627167D01*
X484410D01*
X485460Y626117D02*
X486510D01*
X485985D01*
Y629265D01*
X485460D01*
X490183Y628216D02*
X488609D01*
X488084Y627691D01*
Y626642D01*
X488609Y626117D01*
X490183D01*
X491232Y628216D02*
Y626642D01*
X491757Y626117D01*
X493331D01*
Y628216D01*
X494381Y626117D02*
X495431D01*
X494906D01*
Y629265D01*
X494381D01*
X497530Y628216D02*
X498579D01*
X499104Y627691D01*
Y626117D01*
X497530D01*
X497005Y626642D01*
X497530Y627167D01*
X499104D01*
X500678Y628741D02*
Y628216D01*
X500153D01*
X501203D01*
X500678D01*
Y626642D01*
X501203Y626117D01*
X504352D02*
X503302D01*
X502777Y626642D01*
Y627691D01*
X503302Y628216D01*
X504352D01*
X504876Y627691D01*
Y627167D01*
X502777D01*
X508025Y629265D02*
Y626117D01*
X506451D01*
X505926Y626642D01*
Y627691D01*
X506451Y628216D01*
X508025D01*
X512748Y626117D02*
Y628741D01*
Y627691D01*
X512223D01*
X513272D01*
X512748D01*
Y628741D01*
X513272Y629265D01*
X514847Y628216D02*
Y626117D01*
Y627167D01*
X515372Y627691D01*
X515896Y628216D01*
X516421D01*
X518520Y626117D02*
X519570D01*
X520094Y626642D01*
Y627691D01*
X519570Y628216D01*
X518520D01*
X517995Y627691D01*
Y626642D01*
X518520Y626117D01*
X521144D02*
Y628216D01*
X521669D01*
X522193Y627691D01*
Y626117D01*
Y627691D01*
X522718Y628216D01*
X523243Y627691D01*
Y626117D01*
X527966Y628741D02*
Y628216D01*
X527441D01*
X528491D01*
X527966D01*
Y626642D01*
X528491Y626117D01*
X530590D02*
X531639D01*
X532164Y626642D01*
Y627691D01*
X531639Y628216D01*
X530590D01*
X530065Y627691D01*
Y626642D01*
X530590Y626117D01*
X533738D02*
X534788D01*
X535313Y626642D01*
Y627691D01*
X534788Y628216D01*
X533738D01*
X533214Y627691D01*
Y626642D01*
X533738Y626117D01*
X536362D02*
X537412D01*
X536887D01*
Y629265D01*
X536362D01*
X542135Y626117D02*
X543709D01*
X544234Y626642D01*
X543709Y627167D01*
X542659D01*
X542135Y627691D01*
X542659Y628216D01*
X544234D01*
X545808Y628741D02*
Y628216D01*
X545283D01*
X546333D01*
X545808D01*
Y626642D01*
X546333Y626117D01*
X548432Y628216D02*
X549481D01*
X550006Y627691D01*
Y626117D01*
X548432D01*
X547907Y626642D01*
X548432Y627167D01*
X550006D01*
X551056Y628216D02*
Y626117D01*
Y627167D01*
X551580Y627691D01*
X552105Y628216D01*
X552630D01*
X554729Y628741D02*
Y628216D01*
X554204D01*
X555254D01*
X554729D01*
Y626642D01*
X555254Y626117D01*
X562076Y628216D02*
X560501D01*
X559977Y627691D01*
Y626642D01*
X560501Y626117D01*
X562076D01*
X564700D02*
X563650D01*
X563125Y626642D01*
Y627691D01*
X563650Y628216D01*
X564700D01*
X565224Y627691D01*
Y627167D01*
X563125D01*
X566274Y626117D02*
Y628216D01*
X567848D01*
X568373Y627691D01*
Y626117D01*
X569947Y628741D02*
Y628216D01*
X569422D01*
X570472D01*
X569947D01*
Y626642D01*
X570472Y626117D01*
X572046Y628216D02*
Y626117D01*
Y627167D01*
X572571Y627691D01*
X573096Y628216D01*
X573621D01*
X576769Y626117D02*
X575720D01*
X575195Y626642D01*
Y627691D01*
X575720Y628216D01*
X576769D01*
X577294Y627691D01*
Y627167D01*
X575195D01*
X581492Y625067D02*
Y628216D01*
X583066D01*
X583591Y627691D01*
Y626642D01*
X583066Y626117D01*
X581492D01*
X585165D02*
X586215D01*
X586740Y626642D01*
Y627691D01*
X586215Y628216D01*
X585165D01*
X584641Y627691D01*
Y626642D01*
X585165Y626117D01*
X587789D02*
X589363D01*
X589888Y626642D01*
X589363Y627167D01*
X588314D01*
X587789Y627691D01*
X588314Y628216D01*
X589888D01*
X590938Y626117D02*
X591987D01*
X591463D01*
Y628216D01*
X590938D01*
X594086Y628741D02*
Y628216D01*
X593562D01*
X594611D01*
X594086D01*
Y626642D01*
X594611Y626117D01*
X596185D02*
X597235D01*
X596710D01*
Y628216D01*
X596185D01*
X599334Y626117D02*
X600384D01*
X600908Y626642D01*
Y627691D01*
X600384Y628216D01*
X599334D01*
X598809Y627691D01*
Y626642D01*
X599334Y626117D01*
X601958D02*
Y628216D01*
X603532D01*
X604057Y627691D01*
Y626117D01*
X608780Y628741D02*
Y628216D01*
X608255D01*
X609305D01*
X608780D01*
Y626642D01*
X609305Y626117D01*
X611404D02*
X612453D01*
X612978Y626642D01*
Y627691D01*
X612453Y628216D01*
X611404D01*
X610879Y627691D01*
Y626642D01*
X611404Y626117D01*
X617701Y628741D02*
Y628216D01*
X617176D01*
X618226D01*
X617701D01*
Y626642D01*
X618226Y626117D01*
X620325D02*
X621374D01*
X621899Y626642D01*
Y627691D01*
X621374Y628216D01*
X620325D01*
X619800Y627691D01*
Y626642D01*
X620325Y626117D01*
X623473D02*
X624523D01*
X625047Y626642D01*
Y627691D01*
X624523Y628216D01*
X623473D01*
X622949Y627691D01*
Y626642D01*
X623473Y626117D01*
X626097D02*
X627147D01*
X626622D01*
Y629265D01*
X626097D01*
X633444Y626117D02*
X632394D01*
X631870Y626642D01*
Y627691D01*
X632394Y628216D01*
X633444D01*
X633968Y627691D01*
Y627167D01*
X631870D01*
X635018Y626117D02*
Y628216D01*
X636592D01*
X637117Y627691D01*
Y626117D01*
X640266Y629265D02*
Y626117D01*
X638691D01*
X638167Y626642D01*
Y627691D01*
X638691Y628216D01*
X640266D01*
X646563D02*
X644989D01*
X644464Y627691D01*
Y626642D01*
X644989Y626117D01*
X646563D01*
X649187D02*
X648137D01*
X647612Y626642D01*
Y627691D01*
X648137Y628216D01*
X649187D01*
X649712Y627691D01*
Y627167D01*
X647612D01*
X650761Y626117D02*
Y628216D01*
X652335D01*
X652860Y627691D01*
Y626117D01*
X654434Y628741D02*
Y628216D01*
X653910D01*
X654959D01*
X654434D01*
Y626642D01*
X654959Y626117D01*
X656533Y628216D02*
Y626117D01*
Y627167D01*
X657058Y627691D01*
X657583Y628216D01*
X658108D01*
X661256Y626117D02*
X660207D01*
X659682Y626642D01*
Y627691D01*
X660207Y628216D01*
X661256D01*
X661781Y627691D01*
Y627167D01*
X659682D01*
X665979Y625067D02*
Y628216D01*
X667554D01*
X668078Y627691D01*
Y626642D01*
X667554Y626117D01*
X665979D01*
X669653D02*
X670702D01*
X671227Y626642D01*
Y627691D01*
X670702Y628216D01*
X669653D01*
X669128Y627691D01*
Y626642D01*
X669653Y626117D01*
X672276D02*
X673851D01*
X674375Y626642D01*
X673851Y627167D01*
X672801D01*
X672276Y627691D01*
X672801Y628216D01*
X674375D01*
X675425Y626117D02*
X676475D01*
X675950D01*
Y628216D01*
X675425D01*
X678574Y628741D02*
Y628216D01*
X678049D01*
X679098D01*
X678574D01*
Y626642D01*
X679098Y626117D01*
X680673D02*
X681722D01*
X681197D01*
Y628216D01*
X680673D01*
X683821Y626117D02*
X684871D01*
X685395Y626642D01*
Y627691D01*
X684871Y628216D01*
X683821D01*
X683296Y627691D01*
Y626642D01*
X683821Y626117D01*
X686445D02*
Y628216D01*
X688019D01*
X688544Y627691D01*
Y626117D01*
X689594D02*
Y626642D01*
X690118D01*
Y626117D01*
X689594D01*
D13*
X1028482Y-168552D02*
X1019299D01*
Y-175439D01*
X1023891D01*
X1019299D01*
Y-182327D01*
X1035370Y-173143D02*
X1039962D01*
X1042257Y-175439D01*
Y-182327D01*
X1035370D01*
X1033074Y-180031D01*
X1035370Y-177735D01*
X1042257D01*
X1046849Y-168552D02*
Y-182327D01*
X1053737D01*
X1056032Y-180031D01*
Y-177735D01*
Y-175439D01*
X1053737Y-173143D01*
X1046849D01*
X1060624D02*
Y-182327D01*
Y-177735D01*
X1062920Y-175439D01*
X1065216Y-173143D01*
X1067512D01*
X1074399Y-182327D02*
X1078991D01*
X1076695D01*
Y-173143D01*
X1074399D01*
X1095062D02*
X1088174D01*
X1085878Y-175439D01*
Y-180031D01*
X1088174Y-182327D01*
X1095062D01*
X1101949Y-173143D02*
X1106541D01*
X1108837Y-175439D01*
Y-182327D01*
X1101949D01*
X1099654Y-180031D01*
X1101949Y-177735D01*
X1108837D01*
X1115724Y-170848D02*
Y-173143D01*
X1113429D01*
X1118020D01*
X1115724D01*
Y-180031D01*
X1118020Y-182327D01*
X1124908D02*
X1129500D01*
X1127204D01*
Y-173143D01*
X1124908D01*
X1138683Y-182327D02*
X1143275D01*
X1145570Y-180031D01*
Y-175439D01*
X1143275Y-173143D01*
X1138683D01*
X1136387Y-175439D01*
Y-180031D01*
X1138683Y-182327D01*
X1150162D02*
Y-173143D01*
X1157050D01*
X1159346Y-175439D01*
Y-182327D01*
X735834Y-247293D02*
Y-263036D01*
X741082Y-257788D01*
X746330Y-263036D01*
Y-247293D01*
X751577Y-263036D02*
X756825D01*
X754201D01*
Y-252540D01*
X751577D01*
X764696Y-263036D02*
Y-252540D01*
X767320D01*
X769944Y-255164D01*
Y-263036D01*
Y-255164D01*
X772568Y-252540D01*
X775192Y-255164D01*
Y-263036D01*
X780439Y-247293D02*
Y-257788D01*
X785687Y-263036D01*
X790935Y-257788D01*
Y-247293D01*
X806678Y-249917D02*
X804054Y-247293D01*
X798806D01*
X796182Y-249917D01*
Y-260412D01*
X798806Y-263036D01*
X804054D01*
X806678Y-260412D01*
Y-255164D01*
X801430D01*
X1090165Y-210546D02*
X1092789Y-207923D01*
X1098036D01*
X1100660Y-210546D01*
Y-221042D01*
X1098036Y-223665D01*
X1092789D01*
X1090165Y-221042D01*
Y-210546D01*
X1105908Y-223665D02*
X1111156D01*
X1108532D01*
Y-207923D01*
X1105908Y-210546D01*
X926779Y-212186D02*
X929075Y-209890D01*
X933667D01*
X935963Y-212186D01*
Y-221370D01*
X933667Y-223665D01*
X929075D01*
X926779Y-221370D01*
Y-212186D01*
X940554Y-223665D02*
X945146D01*
X942850D01*
Y-209890D01*
X940554Y-212186D01*
X952034Y-223665D02*
X961217Y-214482D01*
X965809Y-212186D02*
X968104Y-209890D01*
X972696D01*
X974992Y-212186D01*
Y-221370D01*
X972696Y-223665D01*
X968104D01*
X965809Y-221370D01*
Y-212186D01*
X988767Y-209890D02*
X984175Y-212186D01*
X979584Y-216778D01*
Y-221370D01*
X981880Y-223665D01*
X986471D01*
X988767Y-221370D01*
Y-219074D01*
X986471Y-216778D01*
X979584D01*
X993359Y-223665D02*
X1002542Y-214482D01*
X1016317Y-223665D02*
X1007134D01*
X1016317Y-214482D01*
Y-212186D01*
X1014021Y-209890D01*
X1009430D01*
X1007134Y-212186D01*
X1020909D02*
X1023205Y-209890D01*
X1027796D01*
X1030092Y-212186D01*
Y-221370D01*
X1027796Y-223665D01*
X1023205D01*
X1020909Y-221370D01*
Y-212186D01*
X1043867Y-223665D02*
X1034684D01*
X1043867Y-214482D01*
Y-212186D01*
X1041572Y-209890D01*
X1036980D01*
X1034684Y-212186D01*
X1057642Y-223665D02*
X1048459D01*
X1057642Y-214482D01*
Y-212186D01*
X1055347Y-209890D01*
X1050755D01*
X1048459Y-212186D01*
X929270Y-132331D02*
X920874D01*
Y-138628D01*
X925072D01*
X920874D01*
Y-144925D01*
X933468Y-136529D02*
Y-144925D01*
Y-140727D01*
X935567Y-138628D01*
X937666Y-136529D01*
X939765D01*
X946062Y-144925D02*
X950261D01*
X948162D01*
Y-136529D01*
X946062D01*
X956558Y-134430D02*
X958657Y-132331D01*
X962855D01*
X964954Y-134430D01*
Y-136529D01*
X962855Y-138628D01*
X960756D01*
X962855D01*
X964954Y-140727D01*
Y-142826D01*
X962855Y-144925D01*
X958657D01*
X956558Y-142826D01*
X969152Y-132331D02*
Y-144925D01*
X975449D01*
X977548Y-142826D01*
Y-134430D01*
X975449Y-132331D01*
X969152D01*
X994341D02*
X998539D01*
X996440D01*
Y-144925D01*
X994341D01*
X998539D01*
X1004836Y-136529D02*
Y-144925D01*
Y-140727D01*
X1006935Y-138628D01*
X1009034Y-136529D01*
X1011133D01*
X1019530D02*
X1023728D01*
X1025827Y-138628D01*
Y-144925D01*
X1019530D01*
X1017430Y-142826D01*
X1019530Y-140727D01*
X1025827D01*
X1051015Y-144925D02*
X1042619D01*
X1051015Y-136529D01*
Y-134430D01*
X1048916Y-132331D01*
X1044718D01*
X1042619Y-134430D01*
X1055214D02*
X1057313Y-132331D01*
X1061511D01*
X1063610Y-134430D01*
Y-142826D01*
X1061511Y-144925D01*
X1057313D01*
X1055214Y-142826D01*
Y-134430D01*
X1076204Y-144925D02*
X1067808D01*
X1076204Y-136529D01*
Y-134430D01*
X1074105Y-132331D01*
X1069907D01*
X1067808Y-134430D01*
X1088799Y-144925D02*
X1080402D01*
X1088799Y-136529D01*
Y-134430D01*
X1086699Y-132331D01*
X1082501D01*
X1080402Y-134430D01*
X932685Y-168552D02*
Y-182327D01*
X939572D01*
X941868Y-180031D01*
Y-170848D01*
X939572Y-168552D01*
X932685D01*
X946460Y-173143D02*
Y-182327D01*
Y-177735D01*
X948756Y-175439D01*
X951052Y-173143D01*
X953347D01*
X960235Y-182327D02*
X964827D01*
X962531D01*
Y-173143D01*
X960235D01*
X971714Y-182327D02*
X976306D01*
X974010D01*
Y-168552D01*
X971714D01*
X983193Y-182327D02*
X987785D01*
X985489D01*
Y-168552D01*
X983193D01*
X1008448D02*
Y-182327D01*
X1015335D01*
X1017631Y-180031D01*
Y-170848D01*
X1015335Y-168552D01*
X1008448D01*
X1022223Y-173143D02*
Y-182327D01*
Y-177735D01*
X1024519Y-175439D01*
X1026814Y-173143D01*
X1029110D01*
X1038294D02*
X1042885D01*
X1045181Y-175439D01*
Y-182327D01*
X1038294D01*
X1035998Y-180031D01*
X1038294Y-177735D01*
X1045181D01*
X1049773Y-173143D02*
Y-180031D01*
X1052069Y-182327D01*
X1054365Y-180031D01*
X1056660Y-182327D01*
X1058956Y-180031D01*
Y-173143D01*
X1063548Y-182327D02*
X1068140D01*
X1065844D01*
Y-173143D01*
X1063548D01*
X1075027Y-182327D02*
Y-173143D01*
X1081915D01*
X1084211Y-175439D01*
Y-182327D01*
X1093394Y-186919D02*
X1095690D01*
X1097986Y-184623D01*
Y-173143D01*
X1091098D01*
X1088802Y-175439D01*
Y-180031D01*
X1091098Y-182327D01*
X1097986D01*
D14*
X-51181Y273622D02*
X-47244Y269685D01*
X-51181Y265748D02*
X-47244Y269685D01*
X-66929Y269685D02*
X-47244Y269685D01*
X273622Y557087D02*
X273622Y537402D01*
X269685Y541339D02*
X273622Y537402D01*
X277559Y541339D01*
X547244Y537402D02*
X551181Y541339D01*
X543307D02*
X547244Y537402D01*
X547244Y557087D02*
X547244Y537402D01*
X-232283Y-92520D02*
X-230316D01*
X-231299D01*
Y-86616D01*
X-232283Y-87600D01*
X-227364Y-92520D02*
Y-91536D01*
X-226380D01*
Y-92520D01*
X-227364D01*
X-218508Y-86616D02*
X-220476Y-87600D01*
X-222444Y-89568D01*
Y-91536D01*
X-221460Y-92520D01*
X-219492D01*
X-218508Y-91536D01*
Y-90552D01*
X-219492Y-89568D01*
X-222444D01*
X-216541Y-92520D02*
Y-88584D01*
X-215557D01*
X-214573Y-89568D01*
Y-92520D01*
Y-89568D01*
X-213589Y-88584D01*
X-212605Y-89568D01*
Y-92520D01*
X-210637D02*
Y-88584D01*
X-209653D01*
X-208669Y-89568D01*
Y-92520D01*
Y-89568D01*
X-207685Y-88584D01*
X-206701Y-89568D01*
Y-92520D01*
X-198830Y-86616D02*
X-194894D01*
X-196862D01*
Y-92520D01*
X-192926Y-86616D02*
Y-92520D01*
Y-89568D01*
X-191942Y-88584D01*
X-189974D01*
X-188990Y-89568D01*
Y-92520D01*
X-187022D02*
X-185055D01*
X-186039D01*
Y-88584D01*
X-187022D01*
X-178167D02*
X-181119D01*
X-182103Y-89568D01*
Y-91536D01*
X-181119Y-92520D01*
X-178167D01*
X-176199D02*
Y-86616D01*
Y-90552D02*
X-173248Y-88584D01*
X-176199Y-90552D02*
X-173248Y-92520D01*
X-170296D02*
Y-88584D01*
X-167344D01*
X-166360Y-89568D01*
Y-92520D01*
X-161440D02*
X-163408D01*
X-164392Y-91536D01*
Y-89568D01*
X-163408Y-88584D01*
X-161440D01*
X-160456Y-89568D01*
Y-90552D01*
X-164392D01*
X-158489Y-92520D02*
X-155537D01*
X-154553Y-91536D01*
X-155537Y-90552D01*
X-157504D01*
X-158489Y-89568D01*
X-157504Y-88584D01*
X-154553D01*
X-152585Y-92520D02*
X-149633D01*
X-148649Y-91536D01*
X-149633Y-90552D01*
X-151601D01*
X-152585Y-89568D01*
X-151601Y-88584D01*
X-148649D01*
X1072449Y-202012D02*
Y-194141D01*
X1076384D01*
X1077696Y-195452D01*
Y-198076D01*
X1076384Y-199388D01*
X1072449D01*
X1075072D02*
X1077696Y-202012D01*
X1084256D02*
X1081632D01*
X1080320Y-200700D01*
Y-198076D01*
X1081632Y-196764D01*
X1084256D01*
X1085568Y-198076D01*
Y-199388D01*
X1080320D01*
X1088192Y-196764D02*
X1090815Y-202012D01*
X1093439Y-196764D01*
X718118Y-233511D02*
Y-241382D01*
X722053D01*
X723365Y-240070D01*
Y-234823D01*
X722053Y-233511D01*
X718118D01*
X729925Y-241382D02*
X727301D01*
X725989Y-240070D01*
Y-237446D01*
X727301Y-236134D01*
X729925D01*
X731237Y-237446D01*
Y-238758D01*
X725989D01*
X733861Y-241382D02*
X737796D01*
X739108Y-240070D01*
X737796Y-238758D01*
X735173D01*
X733861Y-237446D01*
X735173Y-236134D01*
X739108D01*
X744356Y-244006D02*
X745668D01*
X746980Y-242694D01*
Y-236134D01*
X743044D01*
X741732Y-237446D01*
Y-240070D01*
X743044Y-241382D01*
X746980D01*
X749604D02*
X752227D01*
X750916D01*
Y-236134D01*
X749604D01*
X756163Y-241382D02*
Y-236134D01*
X760099D01*
X761411Y-237446D01*
Y-241382D01*
X767971D02*
X765347D01*
X764035Y-240070D01*
Y-237446D01*
X765347Y-236134D01*
X767971D01*
X769282Y-237446D01*
Y-238758D01*
X764035D01*
X771906Y-236134D02*
Y-241382D01*
Y-238758D01*
X773218Y-237446D01*
X774530Y-236134D01*
X775842D01*
X914968Y-115400D02*
Y-123272D01*
X918904D01*
X920216Y-121960D01*
Y-116712D01*
X918904Y-115400D01*
X914968D01*
X924152Y-123272D02*
X926775D01*
X928087Y-121960D01*
Y-119336D01*
X926775Y-118024D01*
X924152D01*
X922840Y-119336D01*
Y-121960D01*
X924152Y-123272D01*
X935959Y-118024D02*
X932023D01*
X930711Y-119336D01*
Y-121960D01*
X932023Y-123272D01*
X935959D01*
X938583Y-118024D02*
Y-121960D01*
X939894Y-123272D01*
X943830D01*
Y-118024D01*
X946454Y-123272D02*
Y-118024D01*
X947766D01*
X949078Y-119336D01*
Y-123272D01*
Y-119336D01*
X950390Y-118024D01*
X951702Y-119336D01*
Y-123272D01*
X958261D02*
X955637D01*
X954326Y-121960D01*
Y-119336D01*
X955637Y-118024D01*
X958261D01*
X959573Y-119336D01*
Y-120648D01*
X954326D01*
X962197Y-123272D02*
Y-118024D01*
X966133D01*
X967445Y-119336D01*
Y-123272D01*
X971381Y-116712D02*
Y-118024D01*
X970068D01*
X972692D01*
X971381D01*
Y-121960D01*
X972692Y-123272D01*
X914968Y-154770D02*
Y-162642D01*
X920216D01*
X924152Y-157394D02*
X926775D01*
X928087Y-158706D01*
Y-162642D01*
X924152D01*
X922840Y-161330D01*
X924152Y-160018D01*
X928087D01*
X930711Y-157394D02*
Y-161330D01*
X932023Y-162642D01*
X935959D01*
Y-163954D01*
X934647Y-165266D01*
X933335D01*
X935959Y-162642D02*
Y-157394D01*
X942518Y-162642D02*
X939894D01*
X938583Y-161330D01*
Y-158706D01*
X939894Y-157394D01*
X942518D01*
X943830Y-158706D01*
Y-160018D01*
X938583D01*
X946454Y-157394D02*
Y-162642D01*
Y-160018D01*
X947766Y-158706D01*
X949078Y-157394D01*
X950390D01*
X962197Y-162642D02*
Y-154770D01*
X967445Y-162642D01*
Y-154770D01*
X971381Y-157394D02*
X974004D01*
X975316Y-158706D01*
Y-162642D01*
X971381D01*
X970068Y-161330D01*
X971381Y-160018D01*
X975316D01*
X977940Y-162642D02*
Y-157394D01*
X979252D01*
X980564Y-158706D01*
Y-162642D01*
Y-158706D01*
X981876Y-157394D01*
X983188Y-158706D01*
Y-162642D01*
X989747D02*
X987123D01*
X985812Y-161330D01*
Y-158706D01*
X987123Y-157394D01*
X989747D01*
X991059Y-158706D01*
Y-160018D01*
X985812D01*
X914968Y-194141D02*
Y-202012D01*
X918904D01*
X920216Y-200700D01*
Y-195452D01*
X918904Y-194141D01*
X914968D01*
X924152Y-196764D02*
X926775D01*
X928087Y-198076D01*
Y-202012D01*
X924152D01*
X922840Y-200700D01*
X924152Y-199388D01*
X928087D01*
X932023Y-195452D02*
Y-196764D01*
X930711D01*
X933335D01*
X932023D01*
Y-200700D01*
X933335Y-202012D01*
X941206D02*
X938583D01*
X937271Y-200700D01*
Y-198076D01*
X938583Y-196764D01*
X941206D01*
X942518Y-198076D01*
Y-199388D01*
X937271D01*
X914968Y-233511D02*
Y-241382D01*
X918904D01*
X920216Y-240070D01*
Y-234823D01*
X918904Y-233511D01*
X914968D01*
X924152Y-241382D02*
X926775D01*
X928087Y-240070D01*
Y-237446D01*
X926775Y-236134D01*
X924152D01*
X922840Y-237446D01*
Y-240070D01*
X924152Y-241382D01*
X935959Y-236134D02*
X932023D01*
X930711Y-237446D01*
Y-240070D01*
X932023Y-241382D01*
X935959D01*
X938583Y-236134D02*
Y-240070D01*
X939894Y-241382D01*
X943830D01*
Y-236134D01*
X946454Y-241382D02*
Y-236134D01*
X947766D01*
X949078Y-237446D01*
Y-241382D01*
Y-237446D01*
X950390Y-236134D01*
X951702Y-237446D01*
Y-241382D01*
X958261D02*
X955637D01*
X954326Y-240070D01*
Y-237446D01*
X955637Y-236134D01*
X958261D01*
X959573Y-237446D01*
Y-238758D01*
X954326D01*
X962197Y-241382D02*
Y-236134D01*
X966133D01*
X967445Y-237446D01*
Y-241382D01*
X971381Y-234823D02*
Y-236134D01*
X970068D01*
X972692D01*
X971381D01*
Y-240070D01*
X972692Y-241382D01*
D15*
X-26575Y539370D02*
X-24575Y533370D01*
X-28575D02*
X-26575Y539370D01*
X-28575Y279622D02*
X-26575Y273622D01*
X-24575Y279622D01*
X-26575Y420492D02*
Y539370D01*
Y273622D02*
Y389301D01*
X-27575Y539370D02*
X-5118D01*
X-27575Y273622D02*
X-5118D01*
X-26575Y265748D02*
X-24575Y259748D01*
X-28575D02*
X-26575Y265748D01*
X-28575Y279622D02*
X-26575Y273622D01*
X-24575Y279622D01*
X-26575Y255748D02*
Y265748D01*
Y273622D02*
Y283622D01*
X-27575Y273622D02*
X-5118D01*
X-27575Y265748D02*
X-5118D01*
X547244Y-21654D02*
X553244Y-19654D01*
X547244Y-21654D02*
X553244Y-23654D01*
X580614D02*
X586614Y-21654D01*
X580614Y-19654D02*
X586614Y-21654D01*
X547244D02*
X566929D01*
X586614D01*
X547244Y-22654D02*
Y-9154D01*
X586614Y-22654D02*
Y6890D01*
X277559Y-21654D02*
X283559Y-19654D01*
X277559Y-21654D02*
X283559Y-23654D01*
X541244D02*
X547244Y-21654D01*
X541244Y-19654D02*
X547244Y-21654D01*
X277559D02*
X395206D01*
X426397D02*
X547244D01*
X277559Y-22654D02*
Y-9055D01*
X547244Y-22654D02*
Y-9154D01*
X271559Y-23653D02*
X277559Y-21654D01*
X271559Y-19654D02*
X277559Y-21654D01*
X269685D02*
X275685Y-19654D01*
X269685Y-21654D02*
X275685Y-23653D01*
X273622Y-21654D02*
X277559D01*
X269685D02*
X273622D01*
X277559Y-22654D02*
Y-9055D01*
X269685Y-22654D02*
Y-9055D01*
X-0Y-21654D02*
X6000Y-19654D01*
X-0Y-21654D02*
X6000Y-23653D01*
X263685D02*
X269685Y-21654D01*
X263685Y-19654D02*
X269685Y-21654D01*
X-0D02*
X117647D01*
X148838D02*
X269685D01*
X-0Y-22654D02*
Y-9055D01*
X269685Y-22654D02*
Y-9055D01*
X-26575Y265748D02*
X-24575Y259748D01*
X-28575D02*
X-26575Y265748D01*
X-28575Y6000D02*
X-26575Y-0D01*
X-24575Y6000D01*
X-26575Y146870D02*
Y265748D01*
Y-0D02*
Y115679D01*
X-27575Y265748D02*
X-5118D01*
X-27575Y-0D02*
X-5118D01*
X-150575Y271715D02*
X-148576D01*
X-147576Y270715D01*
Y267717D01*
X-150575D01*
X-151575Y268716D01*
X-150575Y269716D01*
X-147576D01*
X-141578Y273714D02*
Y267717D01*
X-144577D01*
X-145577Y268716D01*
Y270715D01*
X-144577Y271715D01*
X-141578D01*
X-135580Y273714D02*
Y267717D01*
X-138579D01*
X-139579Y268716D01*
Y270715D01*
X-138579Y271715D01*
X-135580D01*
X-127583Y267717D02*
Y271715D01*
X-126583D01*
X-125583Y270715D01*
Y267717D01*
Y270715D01*
X-124583Y271715D01*
X-123584Y270715D01*
Y267717D01*
X-120585D02*
X-118585D01*
X-117586Y268716D01*
Y270715D01*
X-118585Y271715D01*
X-120585D01*
X-121584Y270715D01*
Y268716D01*
X-120585Y267717D01*
X-115586Y271715D02*
Y268716D01*
X-114587Y267717D01*
X-111588D01*
Y271715D01*
X-109588Y267717D02*
X-106589D01*
X-105590Y268716D01*
X-106589Y269716D01*
X-108589D01*
X-109588Y270715D01*
X-108589Y271715D01*
X-105590D01*
X-100591Y267717D02*
X-102591D01*
X-103590Y268716D01*
Y270715D01*
X-102591Y271715D01*
X-100591D01*
X-99592Y270715D01*
Y269716D01*
X-103590D01*
X-97592Y273714D02*
Y267717D01*
X-94593D01*
X-93594Y268716D01*
Y269716D01*
Y270715D01*
X-94593Y271715D01*
X-97592D01*
X-91594Y267717D02*
X-89595D01*
X-90595D01*
Y271715D01*
X-91594D01*
X-85596Y272715D02*
Y271715D01*
X-86596D01*
X-84597D01*
X-85596D01*
Y268716D01*
X-84597Y267717D01*
X-78598D02*
X-80598D01*
X-81597Y268716D01*
Y270715D01*
X-80598Y271715D01*
X-78598D01*
X-77599Y270715D01*
Y269716D01*
X-81597D01*
X-75599Y267717D02*
X-72600D01*
X-71601Y268716D01*
X-72600Y269716D01*
X-74600D01*
X-75599Y270715D01*
X-74600Y271715D01*
X-71601D01*
X275652Y640733D02*
Y638733D01*
X274653Y637734D01*
X271654D01*
Y640733D01*
X272653Y641732D01*
X273653Y640733D01*
Y637734D01*
X277652Y631736D02*
X271654D01*
Y634734D01*
X272653Y635734D01*
X274653D01*
X275652Y634734D01*
Y631736D01*
X277652Y625737D02*
X271654D01*
Y628736D01*
X272653Y629736D01*
X274653D01*
X275652Y628736D01*
Y625737D01*
X271654Y617740D02*
X275652D01*
Y616740D01*
X274653Y615741D01*
X271654D01*
X274653D01*
X275652Y614741D01*
X274653Y613741D01*
X271654D01*
Y610742D02*
Y608743D01*
X272653Y607743D01*
X274653D01*
X275652Y608743D01*
Y610742D01*
X274653Y611742D01*
X272653D01*
X271654Y610742D01*
X275652Y605744D02*
X272653D01*
X271654Y604744D01*
Y601745D01*
X275652D01*
X271654Y599746D02*
Y596747D01*
X272653Y595747D01*
X273653Y596747D01*
Y598746D01*
X274653Y599746D01*
X275652Y598746D01*
Y595747D01*
X271654Y590749D02*
Y592748D01*
X272653Y593748D01*
X274653D01*
X275652Y592748D01*
Y590749D01*
X274653Y589749D01*
X273653D01*
Y593748D01*
X277652Y587750D02*
X271654D01*
Y584751D01*
X272653Y583751D01*
X273653D01*
X274653D01*
X275652Y584751D01*
Y587750D01*
X271654Y581752D02*
Y579752D01*
Y580752D01*
X275652D01*
Y581752D01*
X276652Y575754D02*
X275652D01*
Y576753D01*
Y574754D01*
Y575754D01*
X272653D01*
X271654Y574754D01*
Y568756D02*
Y570755D01*
X272653Y571755D01*
X274653D01*
X275652Y570755D01*
Y568756D01*
X274653Y567756D01*
X273653D01*
Y571755D01*
X271654Y565757D02*
Y562758D01*
X272653Y561758D01*
X273653Y562758D01*
Y564757D01*
X274653Y565757D01*
X275652Y564757D01*
Y561758D01*
X549305Y591535D02*
X545306D01*
X543307Y589536D01*
X545306Y587537D01*
X549305D01*
X546306Y585537D02*
Y581539D01*
X548306Y575541D02*
X549305Y576540D01*
Y578540D01*
X548306Y579539D01*
X544307D01*
X543307Y578540D01*
Y576540D01*
X544307Y575541D01*
X549305Y573541D02*
X544307D01*
X543307Y572542D01*
Y570542D01*
X544307Y569543D01*
X549305D01*
Y567543D02*
Y563545D01*
Y565544D01*
X543307D01*
D16*
X-27974Y394899D02*
X-26974Y392900D01*
X-24975Y390901D01*
X-22976D01*
X-21976Y391900D01*
Y393900D01*
X-22976Y394899D01*
X-23975D01*
X-24975Y393900D01*
Y390901D01*
X-27974Y396899D02*
Y400897D01*
X-26974D01*
X-22976Y396899D01*
X-21976D01*
X-20976Y403896D02*
X-21976Y404896D01*
X-22976D01*
Y403896D01*
X-21976D01*
Y404896D01*
X-20976Y403896D01*
X-19977Y402897D01*
X-27974Y412893D02*
Y408895D01*
X-24975D01*
X-25975Y410894D01*
Y411894D01*
X-24975Y412893D01*
X-22976D01*
X-21976Y411894D01*
Y409895D01*
X-22976Y408895D01*
X-26974Y414893D02*
X-27974Y415893D01*
Y417892D01*
X-26974Y418892D01*
X-22976D01*
X-21976Y417892D01*
Y415893D01*
X-22976Y414893D01*
X-26974D01*
X-35772Y261087D02*
Y257089D01*
X-39771Y261087D01*
X-40771D01*
X-41770Y260088D01*
Y258088D01*
X-40771Y257089D01*
X-34773Y264086D02*
X-35772Y265086D01*
X-36772D01*
Y264086D01*
X-35772D01*
Y265086D01*
X-34773Y264086D01*
X-33773Y263087D01*
X-40771Y269085D02*
X-41770Y270084D01*
Y272084D01*
X-40771Y273083D01*
X-36772D01*
X-35772Y272084D01*
Y270084D01*
X-36772Y269085D01*
X-40771D01*
Y275083D02*
X-41770Y276082D01*
Y278082D01*
X-40771Y279082D01*
X-36772D01*
X-35772Y278082D01*
Y276082D01*
X-36772Y275083D01*
X-40771D01*
X551781Y-36771D02*
X553781D01*
X552781D01*
Y-30773D01*
X551781Y-31772D01*
X556779D02*
X557779Y-30773D01*
X559778D01*
X560778Y-31772D01*
Y-35771D01*
X559778Y-36771D01*
X557779D01*
X556779Y-35771D01*
Y-31772D01*
X563777Y-37770D02*
X564777Y-36771D01*
Y-35771D01*
X563777D01*
Y-36771D01*
X564777D01*
X563777Y-37770D01*
X562778Y-38770D01*
X568776Y-31772D02*
X569775Y-30773D01*
X571775D01*
X572774Y-31772D01*
Y-35771D01*
X571775Y-36771D01*
X569775D01*
X568776Y-35771D01*
Y-31772D01*
X574774D02*
X575773Y-30773D01*
X577773D01*
X578772Y-31772D01*
Y-35771D01*
X577773Y-36771D01*
X575773D01*
X574774Y-35771D01*
Y-31772D01*
X400805Y-20254D02*
X398805Y-21254D01*
X396806Y-23253D01*
Y-25253D01*
X397806Y-26252D01*
X399805D01*
X400805Y-25253D01*
Y-24253D01*
X399805Y-23253D01*
X396806D01*
X402804Y-21254D02*
X403804Y-20254D01*
X405803D01*
X406803Y-21254D01*
Y-22254D01*
X405803Y-23253D01*
X406803Y-24253D01*
Y-25253D01*
X405803Y-26252D01*
X403804D01*
X402804Y-25253D01*
Y-24253D01*
X403804Y-23253D01*
X402804Y-22254D01*
Y-21254D01*
X403804Y-23253D02*
X405803D01*
X409802Y-27252D02*
X410802Y-26252D01*
Y-25253D01*
X409802D01*
Y-26252D01*
X410802D01*
X409802Y-27252D01*
X408802Y-28252D01*
X418799Y-20254D02*
X414800D01*
Y-23253D01*
X416800Y-22254D01*
X417799D01*
X418799Y-23253D01*
Y-25253D01*
X417799Y-26252D01*
X415800D01*
X414800Y-25253D01*
X420798Y-21254D02*
X421798Y-20254D01*
X423797D01*
X424797Y-21254D01*
Y-25253D01*
X423797Y-26252D01*
X421798D01*
X420798Y-25253D01*
Y-21254D01*
X266410Y-34802D02*
X262411D01*
X266410Y-30803D01*
Y-29804D01*
X265410Y-28804D01*
X263411D01*
X262411Y-29804D01*
X269409Y-35802D02*
X270408Y-34802D01*
Y-33803D01*
X269409D01*
Y-34802D01*
X270408D01*
X269409Y-35802D01*
X268409Y-36802D01*
X274407Y-29804D02*
X275407Y-28804D01*
X277406D01*
X278406Y-29804D01*
Y-33803D01*
X277406Y-34802D01*
X275407D01*
X274407Y-33803D01*
Y-29804D01*
X280405D02*
X281405Y-28804D01*
X283404D01*
X284404Y-29804D01*
Y-33803D01*
X283404Y-34802D01*
X281405D01*
X280405Y-33803D01*
Y-29804D01*
X123246Y-20254D02*
X121246Y-21254D01*
X119247Y-23253D01*
Y-25253D01*
X120247Y-26252D01*
X122246D01*
X123246Y-25253D01*
Y-24253D01*
X122246Y-23253D01*
X119247D01*
X125245Y-21254D02*
X126245Y-20254D01*
X128244D01*
X129244Y-21254D01*
Y-22253D01*
X128244Y-23253D01*
X129244Y-24253D01*
Y-25253D01*
X128244Y-26252D01*
X126245D01*
X125245Y-25253D01*
Y-24253D01*
X126245Y-23253D01*
X125245Y-22253D01*
Y-21254D01*
X126245Y-23253D02*
X128244D01*
X132243Y-27252D02*
X133242Y-26252D01*
Y-25253D01*
X132243D01*
Y-26252D01*
X133242D01*
X132243Y-27252D01*
X131243Y-28252D01*
X141240Y-20254D02*
X137241D01*
Y-23253D01*
X139241Y-22253D01*
X140240D01*
X141240Y-23253D01*
Y-25253D01*
X140240Y-26252D01*
X138241D01*
X137241Y-25253D01*
X143239Y-21254D02*
X144239Y-20254D01*
X146238D01*
X147238Y-21254D01*
Y-25253D01*
X146238Y-26252D01*
X144239D01*
X143239Y-25253D01*
Y-21254D01*
X-27974Y121277D02*
X-26974Y119278D01*
X-24975Y117279D01*
X-22976D01*
X-21976Y118278D01*
Y120278D01*
X-22976Y121277D01*
X-23976D01*
X-24975Y120278D01*
Y117279D01*
X-27974Y123277D02*
Y127275D01*
X-26974D01*
X-22976Y123277D01*
X-21976D01*
X-20976Y130274D02*
X-21976Y131274D01*
X-22976D01*
Y130274D01*
X-21976D01*
Y131274D01*
X-20976Y130274D01*
X-19977Y129275D01*
X-27974Y139271D02*
Y135273D01*
X-24975D01*
X-25975Y137272D01*
Y138272D01*
X-24975Y139271D01*
X-22976D01*
X-21976Y138272D01*
Y136272D01*
X-22976Y135273D01*
X-26974Y141271D02*
X-27974Y142271D01*
Y144270D01*
X-26974Y145270D01*
X-22976D01*
X-21976Y144270D01*
Y142271D01*
X-22976Y141271D01*
X-26974D01*
D17*
X1068511Y-229571D02*
Y-190201D01*
X911031Y-150831D02*
X1186622D01*
X911031Y-190201D02*
X1186622D01*
X714181Y-229571D02*
X1186622D01*
X714181Y-111461D02*
X1186622D01*
X714181Y-268941D02*
Y-111461D01*
X911031Y-268941D02*
Y-111461D01*
X-466922Y900350D02*
X1186622D01*
Y-268941D02*
Y900350D01*
X-466922Y-268941D02*
Y900350D01*
Y-268941D02*
X1186622D01*
X924809Y-255164D02*
X920874D01*
Y-258115D01*
X922842D01*
X920874D01*
Y-261067D01*
X926777Y-257131D02*
Y-261067D01*
Y-259099D01*
X927761Y-258115D01*
X928745Y-257131D01*
X929729D01*
X932681Y-261067D02*
X934649D01*
X933665D01*
Y-257131D01*
X932681D01*
X937601Y-256147D02*
X938585Y-255164D01*
X940552D01*
X941536Y-256147D01*
Y-257131D01*
X940552Y-258115D01*
X939568D01*
X940552D01*
X941536Y-259099D01*
Y-260083D01*
X940552Y-261067D01*
X938585D01*
X937601Y-260083D01*
X943504Y-255164D02*
Y-261067D01*
X946456D01*
X947440Y-260083D01*
Y-256147D01*
X946456Y-255164D01*
X943504D01*
X949408Y-262051D02*
X953343D01*
X955311Y-255164D02*
X957279D01*
X956295D01*
Y-261067D01*
X955311D01*
X957279D01*
X960231D02*
Y-255164D01*
X963183D01*
X964167Y-256147D01*
Y-258115D01*
X963183Y-259099D01*
X960231D01*
X962199D02*
X964167Y-261067D01*
X966135D02*
Y-257131D01*
X968102Y-255164D01*
X970070Y-257131D01*
Y-261067D01*
Y-258115D01*
X966135D01*
X972038Y-262051D02*
X975974D01*
X977942Y-256147D02*
X978926Y-255164D01*
X980894D01*
X981878Y-256147D01*
Y-260083D01*
X980894Y-261067D01*
X978926D01*
X977942Y-260083D01*
Y-256147D01*
X983845Y-261067D02*
X985813D01*
X984829D01*
Y-255164D01*
X983845Y-256147D01*
X988765Y-261067D02*
Y-260083D01*
X989749D01*
Y-261067D01*
X988765D01*
X993685D02*
Y-255164D01*
X996637D01*
X997620Y-256147D01*
Y-258115D01*
X996637Y-259099D01*
X993685D01*
X1003524Y-257131D02*
X1000572D01*
X999588Y-258115D01*
Y-260083D01*
X1000572Y-261067D01*
X1003524D01*
X1005492Y-255164D02*
Y-261067D01*
X1008444D01*
X1009428Y-260083D01*
Y-259099D01*
Y-258115D01*
X1008444Y-257131D01*
X1005492D01*
X1011396Y-255164D02*
Y-261067D01*
X1014347D01*
X1015331Y-260083D01*
Y-256147D01*
X1014347Y-255164D01*
X1011396D01*
X1018283Y-261067D02*
X1020251D01*
X1021235Y-260083D01*
Y-258115D01*
X1020251Y-257131D01*
X1018283D01*
X1017299Y-258115D01*
Y-260083D01*
X1018283Y-261067D01*
X1027139Y-257131D02*
X1024187D01*
X1023203Y-258115D01*
Y-260083D01*
X1024187Y-261067D01*
X1027139D01*
D18*
X253553Y14764D02*
G03*
X253553Y14764I-600J0D01*
G01*
X253953D02*
G03*
X253953Y14764I-1000J0D01*
G01*
X17332Y14764D02*
G03*
X17332Y14764I-600J0D01*
G01*
X17732D02*
G03*
X17732Y14764I-1000J0D01*
G01*
X17332Y250984D02*
G03*
X17332Y250984I-600J0D01*
G01*
X17732D02*
G03*
X17732Y250984I-1000J0D01*
G01*
X253553Y250984D02*
G03*
X253553Y250984I-600J0D01*
G01*
X253953D02*
G03*
X253953Y250984I-1000J0D01*
G01*
X35882Y8032D02*
G03*
X35882Y8032I-1000J0D01*
G01*
Y18032D02*
G03*
X35882Y18032I-1000J0D01*
G01*
X45882Y8032D02*
G03*
X45882Y8032I-1000J0D01*
G01*
Y18032D02*
G03*
X45882Y18032I-1000J0D01*
G01*
X181118Y123031D02*
G03*
X181118Y123031I-1000J0D01*
G01*
Y113031D02*
G03*
X181118Y113031I-1000J0D01*
G01*
Y133031D02*
G03*
X181118Y133031I-1000J0D01*
G01*
X184740Y36220D02*
G03*
X184740Y36220I-1000J0D01*
G01*
X194740D02*
G03*
X194740Y36220I-1000J0D01*
G01*
X204740D02*
G03*
X204740Y36220I-1000J0D01*
G01*
X214740D02*
G03*
X214740Y36220I-1000J0D01*
G01*
X224740D02*
G03*
X224740Y36220I-1000J0D01*
G01*
X234740D02*
G03*
X234740Y36220I-1000J0D01*
G01*
X208362Y131890D02*
G03*
X208362Y131890I-1000J0D01*
G01*
X218362D02*
G03*
X218362Y131890I-1000J0D01*
G01*
X228362D02*
G03*
X228362Y131890I-1000J0D01*
G01*
X238362D02*
G03*
X238362Y131890I-1000J0D01*
G01*
X40528Y220472D02*
G03*
X40528Y220472I-1000J0D01*
G01*
X30528D02*
G03*
X30528Y220472I-1000J0D01*
G01*
X130764Y208032D02*
G03*
X130764Y208032I-1000J0D01*
G01*
X120764D02*
G03*
X120764Y208032I-1000J0D01*
G01*
X130764Y218032D02*
G03*
X130764Y218032I-1000J0D01*
G01*
X120764D02*
G03*
X120764Y218032I-1000J0D01*
G01*
X130764Y228031D02*
G03*
X130764Y228031I-1000J0D01*
G01*
X120764D02*
G03*
X120764Y228031I-1000J0D01*
G01*
Y198031D02*
G03*
X120764Y198031I-1000J0D01*
G01*
X130764Y198031D02*
G03*
X130764Y198031I-1000J0D01*
G01*
X205882Y258032D02*
G03*
X205882Y258032I-1000J0D01*
G01*
Y248031D02*
G03*
X205882Y248031I-1000J0D01*
G01*
X195882Y258032D02*
G03*
X195882Y258032I-1000J0D01*
G01*
Y248031D02*
G03*
X195882Y248031I-1000J0D01*
G01*
X185882Y258032D02*
G03*
X185882Y258032I-1000J0D01*
G01*
Y248031D02*
G03*
X185882Y248031I-1000J0D01*
G01*
X165882D02*
G03*
X165882Y248031I-1000J0D01*
G01*
Y258032D02*
G03*
X165882Y258032I-1000J0D01*
G01*
X175882Y248031D02*
G03*
X175882Y248031I-1000J0D01*
G01*
Y258032D02*
G03*
X175882Y258032I-1000J0D01*
G01*
X155882Y248031D02*
G03*
X155882Y248031I-1000J0D01*
G01*
Y258032D02*
G03*
X155882Y258032I-1000J0D01*
G01*
X211599Y257267D02*
X213599D01*
Y259267D01*
X211599D02*
X213599D01*
X211599Y257267D02*
Y259267D01*
X235221Y246047D02*
X237221D01*
Y248047D01*
X235221D02*
X237221D01*
X235221Y246047D02*
Y248047D01*
X238173Y246047D02*
X240173D01*
Y248047D01*
X238173D02*
X240173D01*
X238173Y246047D02*
Y248047D01*
X237221Y229315D02*
X239220D01*
Y231315D01*
X237221D02*
X239220D01*
X237221Y229315D02*
Y231315D01*
X237221Y150575D02*
X239220D01*
Y152575D01*
X237221D02*
X239220D01*
X237221Y150575D02*
Y152575D01*
X55693Y244275D02*
X57693D01*
Y246275D01*
X55693D02*
X57693D01*
X55693Y244275D02*
Y246275D01*
X70259Y228330D02*
X72259D01*
Y230330D01*
X70259D02*
X72259D01*
X70259Y228330D02*
Y230330D01*
X37760Y238567D02*
X39760D01*
Y240567D01*
X37760D02*
X39760D01*
X37760Y238567D02*
Y240567D01*
X138173Y144079D02*
X140173D01*
Y146079D01*
X138173D02*
X140173D01*
X138173Y144079D02*
Y146079D01*
X138173Y121441D02*
X140173D01*
Y123441D01*
X138173D02*
X140173D01*
X138173Y121441D02*
Y123441D01*
X187976Y120654D02*
X189976D01*
Y122654D01*
X187976D02*
X189976D01*
X187976Y120654D02*
Y122654D01*
X238763Y32464D02*
X240763D01*
Y34464D01*
X238763D02*
X240763D01*
X238763Y32464D02*
Y34464D01*
X178331Y65929D02*
X180331D01*
Y67929D01*
X178331D02*
X180331D01*
X178331Y65929D02*
Y67929D01*
X179118Y56087D02*
X181118D01*
Y58087D01*
X179118D02*
X181118D01*
X179118Y56087D02*
Y58087D01*
X183055Y56087D02*
X185055D01*
Y58087D01*
X183055D02*
X185055D01*
X183055Y56087D02*
Y58087D01*
X140141Y70850D02*
X142141D01*
Y72850D01*
X140141D02*
X142141D01*
X140141Y70850D02*
Y72850D01*
X60023Y24197D02*
X62023D01*
Y26197D01*
X60023D02*
X62023D01*
X60023Y24197D02*
Y26197D01*
X60024Y17110D02*
X62024D01*
Y19110D01*
X60024D02*
X62024D01*
X60024Y17110D02*
Y19110D01*
X137189Y138763D02*
X139189D01*
Y140763D01*
X137189D02*
X139189D01*
X137189Y138763D02*
Y140763D01*
X137189Y116126D02*
X139189D01*
Y118126D01*
X137189D02*
X139189D01*
X137189Y116126D02*
Y118126D01*
X144078Y98409D02*
X146078D01*
Y100409D01*
X144078D02*
X146078D01*
X144078Y98409D02*
Y100409D01*
X178331Y79709D02*
X180331D01*
Y81709D01*
X178331D02*
X180331D01*
X178331Y79709D02*
Y81709D01*
X166323Y65929D02*
X168323D01*
Y67929D01*
X166323D02*
X168323D01*
X166323Y65929D02*
Y67929D01*
Y79709D02*
X168323D01*
Y81709D01*
X166323D02*
X168323D01*
X166323Y79709D02*
Y81709D01*
X212221Y162386D02*
X214220D01*
Y164386D01*
X212221D02*
X214220D01*
X212221Y162386D02*
Y164386D01*
X234236Y165339D02*
X236236D01*
Y167339D01*
X234236D02*
X236236D01*
X234236Y165339D02*
Y167339D01*
X251362Y80890D02*
X253362D01*
Y82890D01*
X251362D02*
X253362D01*
X251362Y80890D02*
Y82890D01*
Y66323D02*
X253362D01*
Y68323D01*
X251362D02*
X253362D01*
X251362Y66323D02*
Y68323D01*
X231283Y53724D02*
X233283D01*
Y55724D01*
X231283D02*
X233283D01*
X231283Y53724D02*
Y55724D01*
X234827Y53724D02*
X236827D01*
Y55724D01*
X234827D02*
X236827D01*
X234827Y53724D02*
Y55724D01*
X180102Y10811D02*
X182102D01*
Y12811D01*
X180102D02*
X182102D01*
X180102Y10811D02*
Y12811D01*
X209630Y10811D02*
X211630D01*
Y12811D01*
X209630D02*
X211630D01*
X209630Y10811D02*
Y12811D01*
X225378Y10811D02*
X227378D01*
Y12811D01*
X225378D02*
X227378D01*
X225378Y10811D02*
Y12811D01*
X164354Y10811D02*
X166354D01*
Y12811D01*
X164354D02*
X166354D01*
X164354Y10811D02*
Y12811D01*
X223410Y52543D02*
X225410D01*
Y54543D01*
X223410D02*
X225410D01*
X223410Y52543D02*
Y54543D01*
X238173Y69866D02*
X240173D01*
Y71866D01*
X238173D02*
X240173D01*
X238173Y69866D02*
Y71866D01*
Y77740D02*
X240173D01*
Y79740D01*
X238173D02*
X240173D01*
X238173Y77740D02*
Y79740D01*
X81677Y32465D02*
X83677D01*
Y34465D01*
X81677D02*
X83677D01*
X81677Y32465D02*
Y34465D01*
Y8843D02*
X83677D01*
Y10842D01*
X81677D02*
X83677D01*
X81677Y8843D02*
Y10842D01*
X105299Y8843D02*
X107299D01*
Y10842D01*
X105299D02*
X107299D01*
X105299Y8843D02*
Y10842D01*
Y32465D02*
X107299D01*
Y34465D01*
X105299D02*
X107299D01*
X105299Y32465D02*
Y34465D01*
X93488Y32465D02*
X95488D01*
Y34465D01*
X93488D02*
X95488D01*
X93488Y32465D02*
Y34465D01*
Y8843D02*
X95488D01*
Y10842D01*
X93488D02*
X95488D01*
X93488Y8843D02*
Y10842D01*
X81677Y20653D02*
X83677D01*
Y22654D01*
X81677D02*
X83677D01*
X81677Y20653D02*
Y22654D01*
X105299Y20653D02*
X107299D01*
Y22654D01*
X105299D02*
X107299D01*
X105299Y20653D02*
Y22654D01*
X93488Y20653D02*
X95488D01*
Y22654D01*
X93488D02*
X95488D01*
X93488Y20653D02*
Y22654D01*
X227937Y246410D02*
X229937D01*
Y248410D01*
X227937D02*
X229937D01*
X227937Y246410D02*
Y248410D01*
X231283Y246410D02*
X233283D01*
Y248410D01*
X231283D02*
X233283D01*
X231283Y246410D02*
Y248410D01*
X226165Y149394D02*
X228165D01*
Y151394D01*
X226165D02*
X228165D01*
X226165Y149394D02*
Y151394D01*
X220654Y141913D02*
X222654D01*
Y143913D01*
X220654D02*
X222654D01*
X220654Y141913D02*
Y143913D01*
X124000Y69571D02*
X126000D01*
Y71571D01*
X124000D02*
X126000D01*
X124000Y69571D02*
Y71571D01*
X167209Y217799D02*
X169209D01*
Y219799D01*
X167209D02*
X169209D01*
X167209Y217799D02*
Y219799D01*
X212878Y199295D02*
X214878D01*
Y201295D01*
X212878D02*
X214878D01*
X212878Y199295D02*
Y201295D01*
X201658Y187583D02*
X203658D01*
Y189583D01*
X201658D02*
X203658D01*
X201658Y187583D02*
Y189583D01*
X263764Y27543D02*
X265764D01*
Y29543D01*
X263764D02*
X265764D01*
X263764Y27543D02*
Y29543D01*
X238173Y2937D02*
X240173D01*
Y4937D01*
X238173D02*
X240173D01*
X238173Y2937D02*
Y4937D01*
X72228Y233449D02*
X74228D01*
Y235449D01*
X72228D02*
X74228D01*
X72228Y233449D02*
Y235449D01*
Y238567D02*
X74228D01*
Y240567D01*
X72228D02*
X74228D01*
X72228Y238567D02*
Y240567D01*
X241913Y110024D02*
X243913D01*
Y112024D01*
X241913D02*
X243913D01*
X241913Y110024D02*
Y112024D01*
X236795Y99393D02*
X238795D01*
Y101393D01*
X236795D02*
X238795D01*
X236795Y99393D02*
Y101393D01*
X217307Y115142D02*
X219307D01*
Y117142D01*
X217307D02*
X219307D01*
X217307Y115142D02*
Y117142D01*
X107071Y234236D02*
X109071D01*
Y236236D01*
X107071D02*
X109071D01*
X107071Y234236D02*
Y236236D01*
X97622Y234236D02*
X99622D01*
Y236236D01*
X97622D02*
X99622D01*
X97622Y234236D02*
Y236236D01*
X90339Y254906D02*
X92339D01*
Y256906D01*
X90339D02*
X92339D01*
X90339Y254906D02*
Y256906D01*
X104118Y254906D02*
X106118D01*
Y256906D01*
X104118D02*
X106118D01*
X104118Y254906D02*
Y256906D01*
X249583Y62925D02*
X250083D01*
X249583D02*
Y63925D01*
X250083D01*
Y64425D01*
X251083D01*
Y63925D02*
Y64425D01*
Y63925D02*
X251583D01*
Y62925D02*
Y63925D01*
X251083Y62925D02*
X251583D01*
X251083Y62425D02*
Y62925D01*
X250083Y62425D02*
X251083D01*
X250083D02*
Y62925D01*
X249583Y85681D02*
X250083D01*
X249583D02*
Y86681D01*
X250083D01*
Y87181D01*
X251083D01*
Y86681D02*
Y87181D01*
Y86681D02*
X251583D01*
Y85681D02*
Y86681D01*
X251083Y85681D02*
X251583D01*
X251083Y85181D02*
Y85681D01*
X250083Y85181D02*
X251083D01*
X250083D02*
Y85681D01*
X263951Y56795D02*
Y57295D01*
X264451Y57795D01*
X263951Y58295D02*
X264451Y57795D01*
X263951Y58295D02*
Y58795D01*
X264451D01*
X264951Y58295D01*
X265451Y58795D01*
X265951D01*
Y58295D02*
Y58795D01*
X265451Y57795D02*
X265951Y58295D01*
X265451Y57795D02*
X265951Y57295D01*
Y56795D02*
Y57295D01*
X265451Y56795D02*
X265951D01*
X264951Y57295D02*
X265451Y56795D01*
X264451D02*
X264951Y57295D01*
X263951Y56795D02*
X264451D01*
X263951Y90811D02*
Y91311D01*
X264451Y91811D01*
X263951Y92311D02*
X264451Y91811D01*
X263951Y92311D02*
Y92811D01*
X264451D01*
X264951Y92311D01*
X265451Y92811D01*
X265951D01*
Y92311D02*
Y92811D01*
X265451Y91811D02*
X265951Y92311D01*
X265451Y91811D02*
X265951Y91311D01*
Y90811D02*
Y91311D01*
X265451Y90811D02*
X265951D01*
X264951Y91311D02*
X265451Y90811D01*
X264451D02*
X264951Y91311D01*
X263951Y90811D02*
X264451D01*
X247494Y57795D02*
X248494Y56795D01*
X249494Y57795D01*
X248494Y58795D02*
X249494Y57795D01*
X247494D02*
X248494Y58795D01*
X247494Y91811D02*
X248494Y90811D01*
X249494Y91811D01*
X248494Y92811D02*
X249494Y91811D01*
X247494D02*
X248494Y92811D01*
X35118Y191913D02*
X36118Y193913D01*
X34118D02*
X36118D01*
X34118D02*
X35118Y191913D01*
X55118D02*
X56118Y193913D01*
X54118D02*
X56118D01*
X54118D02*
X55118Y191913D01*
X75118D02*
X76118Y193913D01*
X74118D02*
X76118D01*
X74118D02*
X75118Y191913D01*
X103347Y130890D02*
X104347Y132890D01*
X102347D02*
X104347D01*
X102347D02*
X103347Y130890D01*
Y150890D02*
X104347Y152890D01*
X102347D02*
X104347D01*
X102347D02*
X103347Y150890D01*
Y130890D02*
X104347Y132890D01*
X102347D02*
X104347D01*
X102347D02*
X103347Y130890D01*
Y110890D02*
X104347Y112890D01*
X102347D02*
X104347D01*
X102347D02*
X103347Y110890D01*
X75118Y69866D02*
X76118Y71866D01*
X74118D02*
X76118D01*
X74118D02*
X75118Y69866D01*
X35118D02*
X36118Y71866D01*
X34118D02*
X36118D01*
X34118D02*
X35118Y69866D01*
X55118D02*
X56118Y71866D01*
X54118D02*
X56118D01*
X54118D02*
X55118Y69866D01*
X43595Y53634D02*
X44094Y53134D01*
X43095Y53634D02*
X43595D01*
X43095D02*
X43595Y54134D01*
X43095Y54634D02*
X43595Y54134D01*
X43095Y54634D02*
X43595D01*
X44094Y55134D01*
X44594Y54634D01*
X45094D01*
X44594Y54134D02*
X45094Y54634D01*
X44594Y54134D02*
X45094Y53634D01*
X44594D02*
X45094D01*
X44094Y53134D02*
X44594Y53634D01*
X30890Y33449D02*
X31890Y33949D01*
X32890Y33449D01*
X32390Y34449D02*
X32890Y33449D01*
X32390Y34449D02*
X32890Y35449D01*
X31890Y34949D02*
X32890Y35449D01*
X30890D02*
X31890Y34949D01*
X30890Y35449D02*
X31390Y34449D01*
X30890Y33449D02*
X31390Y34449D01*
X18685Y53134D02*
X19685Y53634D01*
X20685Y53134D01*
X20185Y54134D02*
X20685Y53134D01*
X20185Y54134D02*
X20685Y55134D01*
X19685Y54634D02*
X20685Y55134D01*
X18685D02*
X19685Y54634D01*
X18685Y55134D02*
X19185Y54134D01*
X18685Y53134D02*
X19185Y54134D01*
X574203Y52550D02*
X575403D01*
Y53750D01*
X574203D02*
X575403D01*
X574203Y52550D02*
Y53750D01*
X573803Y52150D02*
X575803D01*
Y54150D01*
X573803D02*
X575803D01*
X573803Y52150D02*
Y54150D01*
X574203Y210030D02*
X575403D01*
Y211230D01*
X574203D02*
X575403D01*
X574203Y210030D02*
Y211230D01*
X573803Y209630D02*
X575803D01*
Y211630D01*
X573803D02*
X575803D01*
X573803Y209630D02*
Y211630D01*
X574203Y326172D02*
X575403D01*
Y327372D01*
X574203D02*
X575403D01*
X574203Y326172D02*
Y327372D01*
X573803Y325772D02*
X575803D01*
Y327772D01*
X573803D02*
X575803D01*
X573803Y325772D02*
Y327772D01*
X574203Y483652D02*
X575403D01*
Y484852D01*
X574203D02*
X575403D01*
X574203Y483652D02*
Y484852D01*
X573803Y483252D02*
X575803D01*
Y485252D01*
X573803D02*
X575803D01*
X573803Y483252D02*
Y485252D01*
D19*
X815109Y720472D02*
Y724251D01*
X816998D01*
X817628Y723621D01*
Y722362D01*
X816998Y721732D01*
X815109D01*
X816368D02*
X817628Y720472D01*
X819517D02*
X820776D01*
X821406Y721102D01*
Y722362D01*
X820776Y722991D01*
X819517D01*
X818887Y722362D01*
Y721102D01*
X819517Y720472D01*
X822665Y722991D02*
Y721102D01*
X823295Y720472D01*
X825184D01*
Y722991D01*
X827073Y723621D02*
Y722991D01*
X826444D01*
X827703D01*
X827073D01*
Y721102D01*
X827703Y720472D01*
X831481D02*
X830222D01*
X829592Y721102D01*
Y722362D01*
X830222Y722991D01*
X831481D01*
X832111Y722362D01*
Y721732D01*
X829592D01*
X835889Y724251D02*
Y720472D01*
X834000D01*
X833370Y721102D01*
Y722362D01*
X834000Y722991D01*
X835889D01*
X840927Y720472D02*
Y724251D01*
X842816D01*
X843446Y723621D01*
Y722362D01*
X842816Y721732D01*
X840927D01*
X845335Y722991D02*
X846595D01*
X847224Y722362D01*
Y720472D01*
X845335D01*
X844705Y721102D01*
X845335Y721732D01*
X847224D01*
X849113Y723621D02*
Y722991D01*
X848484D01*
X849743D01*
X849113D01*
Y721102D01*
X849743Y720472D01*
X851632Y724251D02*
Y720472D01*
Y722362D01*
X852262Y722991D01*
X853521D01*
X854151Y722362D01*
Y720472D01*
X859189Y724251D02*
Y720472D01*
X861708D01*
X864856D02*
X863597D01*
X862967Y721102D01*
Y722362D01*
X863597Y722991D01*
X864856D01*
X865486Y722362D01*
Y721732D01*
X862967D01*
X866745Y720472D02*
Y722991D01*
X868635D01*
X869264Y722362D01*
Y720472D01*
X871783Y719213D02*
X872413D01*
X873043Y719843D01*
Y722991D01*
X871154D01*
X870524Y722362D01*
Y721102D01*
X871154Y720472D01*
X873043D01*
X874932Y723621D02*
Y722991D01*
X874302D01*
X875562D01*
X874932D01*
Y721102D01*
X875562Y720472D01*
X877451Y724251D02*
Y720472D01*
Y722362D01*
X878080Y722991D01*
X879340D01*
X879970Y722362D01*
Y720472D01*
X756727Y724251D02*
Y720472D01*
Y722362D01*
X759245D01*
Y724251D01*
Y720472D01*
X761135D02*
X762394D01*
X763024Y721102D01*
Y722362D01*
X762394Y722991D01*
X761135D01*
X760505Y722362D01*
Y721102D01*
X761135Y720472D01*
X764283D02*
X765543D01*
X764913D01*
Y724251D01*
X764283D01*
X769321Y720472D02*
X768062D01*
X767432Y721102D01*
Y722362D01*
X768062Y722991D01*
X769321D01*
X769951Y722362D01*
Y721732D01*
X767432D01*
X774989Y724251D02*
Y720472D01*
X777507D01*
X780656D02*
X779396D01*
X778767Y721102D01*
Y722362D01*
X779396Y722991D01*
X780656D01*
X781286Y722362D01*
Y721732D01*
X778767D01*
X782545Y720472D02*
Y722991D01*
X784434D01*
X785064Y722362D01*
Y720472D01*
X787583Y719213D02*
X788212D01*
X788842Y719843D01*
Y722991D01*
X786953D01*
X786323Y722362D01*
Y721102D01*
X786953Y720472D01*
X788842D01*
X790731Y723621D02*
Y722991D01*
X790102D01*
X791361D01*
X790731D01*
Y721102D01*
X791361Y720472D01*
X793250Y724251D02*
Y720472D01*
Y722362D01*
X793880Y722991D01*
X795139D01*
X795769Y722362D01*
Y720472D01*
X694146Y724251D02*
X696665D01*
X695406D01*
Y720472D01*
X699814D02*
X698555D01*
X697925Y721102D01*
Y722362D01*
X698555Y722991D01*
X699814D01*
X700444Y722362D01*
Y721732D01*
X697925D01*
X701703Y720472D02*
Y722991D01*
X702333D01*
X702963Y722362D01*
Y720472D01*
Y722362D01*
X703592Y722991D01*
X704222Y722362D01*
Y720472D01*
X705481Y719213D02*
Y722991D01*
X707371D01*
X708000Y722362D01*
Y721102D01*
X707371Y720472D01*
X705481D01*
X709260D02*
X710519D01*
X709890D01*
Y724251D01*
X709260D01*
X713038Y722991D02*
X714297D01*
X714927Y722362D01*
Y720472D01*
X713038D01*
X712408Y721102D01*
X713038Y721732D01*
X714927D01*
X716816Y723621D02*
Y722991D01*
X716187D01*
X717446D01*
X716816D01*
Y721102D01*
X717446Y720472D01*
X721224D02*
X719965D01*
X719335Y721102D01*
Y722362D01*
X719965Y722991D01*
X721224D01*
X721854Y722362D01*
Y721732D01*
X719335D01*
X654787Y720472D02*
Y724251D01*
X656676D01*
X657306Y723621D01*
Y722362D01*
X656676Y721732D01*
X654787D01*
X659195Y722991D02*
X660455D01*
X661084Y722362D01*
Y720472D01*
X659195D01*
X658565Y721102D01*
X659195Y721732D01*
X661084D01*
X664862Y724251D02*
Y720472D01*
X662973D01*
X662344Y721102D01*
Y722362D01*
X662973Y722991D01*
X664862D01*
X672419Y723621D02*
X671789Y724251D01*
X670530D01*
X669900Y723621D01*
Y722991D01*
X670530Y722362D01*
X671789D01*
X672419Y721732D01*
Y721102D01*
X671789Y720472D01*
X670530D01*
X669900Y721102D01*
X673678Y724251D02*
Y720472D01*
Y722362D01*
X674308Y722991D01*
X675568D01*
X676197Y722362D01*
Y720472D01*
X678087Y722991D02*
X679346D01*
X679976Y722362D01*
Y720472D01*
X678087D01*
X677457Y721102D01*
X678087Y721732D01*
X679976D01*
X681235Y719213D02*
Y722991D01*
X683124D01*
X683754Y722362D01*
Y721102D01*
X683124Y720472D01*
X681235D01*
X686903D02*
X685643D01*
X685013Y721102D01*
Y722362D01*
X685643Y722991D01*
X686903D01*
X687532Y722362D01*
Y721732D01*
X685013D01*
X623614Y724251D02*
Y721732D01*
X624873Y720472D01*
X626133Y721732D01*
Y724251D01*
X627392Y720472D02*
X628652D01*
X628022D01*
Y722991D01*
X627392D01*
X631170D02*
X632430D01*
X633060Y722362D01*
Y720472D01*
X631170D01*
X630541Y721102D01*
X631170Y721732D01*
X633060D01*
X634319Y720472D02*
X636838Y722991D01*
X638097Y720472D02*
Y724251D01*
X639987D01*
X640616Y723621D01*
Y722362D01*
X639987Y721732D01*
X638097D01*
X642505Y722991D02*
X643765D01*
X644394Y722362D01*
Y720472D01*
X642505D01*
X641876Y721102D01*
X642505Y721732D01*
X644394D01*
X648173Y724251D02*
Y720472D01*
X646284D01*
X645654Y721102D01*
Y722362D01*
X646284Y722991D01*
X648173D01*
X544766Y724251D02*
Y720472D01*
X546655D01*
X547285Y721102D01*
Y723621D01*
X546655Y724251D01*
X544766D01*
X548544Y722991D02*
Y720472D01*
Y721732D01*
X549174Y722362D01*
X549804Y722991D01*
X550433D01*
X552323Y720472D02*
X553582D01*
X552952D01*
Y722991D01*
X552323D01*
X555471Y720472D02*
X556731D01*
X556101D01*
Y724251D01*
X555471D01*
X558620Y720472D02*
X559879D01*
X559249D01*
Y724251D01*
X558620D01*
X565547D02*
Y720472D01*
X568066D01*
X569955Y722991D02*
X571214D01*
X571844Y722362D01*
Y720472D01*
X569955D01*
X569325Y721102D01*
X569955Y721732D01*
X571844D01*
X573103Y722991D02*
Y721102D01*
X573733Y720472D01*
X575622D01*
Y719843D01*
X574993Y719213D01*
X574363D01*
X575622Y720472D02*
Y722991D01*
X578771Y720472D02*
X577511D01*
X576882Y721102D01*
Y722362D01*
X577511Y722991D01*
X578771D01*
X579400Y722362D01*
Y721732D01*
X576882D01*
X580660Y722991D02*
Y720472D01*
Y721732D01*
X581290Y722362D01*
X581919Y722991D01*
X582549D01*
X588217Y720472D02*
Y724251D01*
X590106D01*
X590735Y723621D01*
Y722362D01*
X590106Y721732D01*
X588217D01*
X592625Y722991D02*
X593884D01*
X594514Y722362D01*
Y720472D01*
X592625D01*
X591995Y721102D01*
X592625Y721732D01*
X594514D01*
X595773Y720472D02*
X597033D01*
X596403D01*
Y722991D01*
X595773D01*
X598922D02*
Y720472D01*
Y721732D01*
X599551Y722362D01*
X600181Y722991D01*
X600811D01*
X506036Y724251D02*
Y720472D01*
Y722362D01*
X508555D01*
Y724251D01*
Y720472D01*
X510444D02*
X511704D01*
X512333Y721102D01*
Y722362D01*
X511704Y722991D01*
X510444D01*
X509815Y722362D01*
Y721102D01*
X510444Y720472D01*
X513593D02*
X514852D01*
X514222D01*
Y724251D01*
X513593D01*
X518631Y720472D02*
X517371D01*
X516741Y721102D01*
Y722362D01*
X517371Y722991D01*
X518631D01*
X519260Y722362D01*
Y721732D01*
X516741D01*
X524298Y724251D02*
X526817D01*
X525558D01*
Y720472D01*
X528076Y722991D02*
Y721102D01*
X528706Y720472D01*
X530595D01*
Y719843D01*
X529965Y719213D01*
X529336D01*
X530595Y720472D02*
Y722991D01*
X531855Y719213D02*
Y722991D01*
X533744D01*
X534374Y722362D01*
Y721102D01*
X533744Y720472D01*
X531855D01*
X537522D02*
X536263D01*
X535633Y721102D01*
Y722362D01*
X536263Y722991D01*
X537522D01*
X538152Y722362D01*
Y721732D01*
X535633D01*
X479271Y720472D02*
Y724251D01*
X481160D01*
X481790Y723621D01*
Y722362D01*
X481160Y721732D01*
X479271D01*
X483049Y720472D02*
X484309D01*
X483679D01*
Y724251D01*
X483049D01*
X486828Y722991D02*
X488087D01*
X488717Y722362D01*
Y720472D01*
X486828D01*
X486198Y721102D01*
X486828Y721732D01*
X488717D01*
X490606Y723621D02*
Y722991D01*
X489976D01*
X491236D01*
X490606D01*
Y721102D01*
X491236Y720472D01*
X495014D02*
X493755D01*
X493125Y721102D01*
Y722362D01*
X493755Y722991D01*
X495014D01*
X495644Y722362D01*
Y721732D01*
X493125D01*
X499422Y724251D02*
Y720472D01*
X497533D01*
X496903Y721102D01*
Y722362D01*
X497533Y722991D01*
X499422D01*
X417740Y724251D02*
Y720472D01*
Y722362D01*
X420259D01*
Y724251D01*
Y720472D01*
X422149D02*
X423408D01*
X424038Y721102D01*
Y722362D01*
X423408Y722991D01*
X422149D01*
X421519Y722362D01*
Y721102D01*
X422149Y720472D01*
X425297D02*
X426556D01*
X425927D01*
Y724251D01*
X425297D01*
X430335Y720472D02*
X429075D01*
X428446Y721102D01*
Y722362D01*
X429075Y722991D01*
X430335D01*
X430965Y722362D01*
Y721732D01*
X428446D01*
X438521Y723621D02*
X437891Y724251D01*
X436632D01*
X436002Y723621D01*
Y722991D01*
X436632Y722362D01*
X437891D01*
X438521Y721732D01*
Y721102D01*
X437891Y720472D01*
X436632D01*
X436002Y721102D01*
X439781Y720472D02*
X441040D01*
X440410D01*
Y722991D01*
X439781D01*
X442929D02*
X445448D01*
X442929Y720472D01*
X445448D01*
X448597D02*
X447337D01*
X446707Y721102D01*
Y722362D01*
X447337Y722991D01*
X448597D01*
X449226Y722362D01*
Y721732D01*
X446707D01*
X389690Y723621D02*
X389060Y724251D01*
X387801D01*
X387171Y723621D01*
Y721102D01*
X387801Y720472D01*
X389060D01*
X389690Y721102D01*
X391579Y720472D02*
X392839D01*
X393468Y721102D01*
Y722362D01*
X392839Y722991D01*
X391579D01*
X390949Y722362D01*
Y721102D01*
X391579Y720472D01*
X394728Y722991D02*
Y721102D01*
X395357Y720472D01*
X397247D01*
Y722991D01*
X398506Y720472D02*
Y722991D01*
X400395D01*
X401025Y722362D01*
Y720472D01*
X402914Y723621D02*
Y722991D01*
X402284D01*
X403544D01*
X402914D01*
Y721102D01*
X403544Y720472D01*
X362925Y723621D02*
X362295Y724251D01*
X361036D01*
X360406Y723621D01*
Y722991D01*
X361036Y722362D01*
X362295D01*
X362925Y721732D01*
Y721102D01*
X362295Y720472D01*
X361036D01*
X360406Y721102D01*
X364184Y722991D02*
Y721102D01*
X364814Y720472D01*
X366703D01*
Y719843D01*
X366073Y719213D01*
X365444D01*
X366703Y720472D02*
Y722991D01*
X367963Y720472D02*
Y722991D01*
X368592D01*
X369222Y722362D01*
Y720472D01*
Y722362D01*
X369852Y722991D01*
X370481Y722362D01*
Y720472D01*
X371741Y724251D02*
Y720472D01*
X373630D01*
X374260Y721102D01*
Y721732D01*
Y722362D01*
X373630Y722991D01*
X371741D01*
X376149Y720472D02*
X377408D01*
X378038Y721102D01*
Y722362D01*
X377408Y722991D01*
X376149D01*
X375519Y722362D01*
Y721102D01*
X376149Y720472D01*
X379297D02*
X380557D01*
X379927D01*
Y724251D01*
X379297D01*
D20*
X414799Y623886D02*
Y620738D01*
Y622312D01*
X416898D01*
Y623886D01*
Y620738D01*
X418472D02*
X419522D01*
X420047Y621263D01*
Y622312D01*
X419522Y622837D01*
X418472D01*
X417948Y622312D01*
Y621263D01*
X418472Y620738D01*
X421096D02*
X422146D01*
X421621D01*
Y623886D01*
X421096D01*
X425294Y620738D02*
X424245D01*
X423720Y621263D01*
Y622312D01*
X424245Y622837D01*
X425294D01*
X425819Y622312D01*
Y621787D01*
X423720D01*
X430017Y623886D02*
Y620738D01*
X432116D01*
X434740D02*
X433691D01*
X433166Y621263D01*
Y622312D01*
X433691Y622837D01*
X434740D01*
X435265Y622312D01*
Y621787D01*
X433166D01*
X436314Y620738D02*
Y622837D01*
X437889D01*
X438413Y622312D01*
Y620738D01*
X440513Y619688D02*
X441037D01*
X441562Y620213D01*
Y622837D01*
X439988D01*
X439463Y622312D01*
Y621263D01*
X439988Y620738D01*
X441562D01*
X443136Y623362D02*
Y622837D01*
X442612D01*
X443661D01*
X443136D01*
Y621263D01*
X443661Y620738D01*
X445235Y623886D02*
Y620738D01*
Y622312D01*
X445760Y622837D01*
X446810D01*
X447334Y622312D01*
Y620738D01*
X414799Y626117D02*
Y629265D01*
X416373D01*
X416898Y628741D01*
Y627691D01*
X416373Y627167D01*
X414799D01*
X415849D02*
X416898Y626117D01*
X418472D02*
X419522D01*
X420047Y626642D01*
Y627691D01*
X419522Y628216D01*
X418472D01*
X417948Y627691D01*
Y626642D01*
X418472Y626117D01*
X421096Y628216D02*
Y626642D01*
X421621Y626117D01*
X423195D01*
Y628216D01*
X424770Y628741D02*
Y628216D01*
X424245D01*
X425294D01*
X424770D01*
Y626642D01*
X425294Y626117D01*
X428443D02*
X427393D01*
X426869Y626642D01*
Y627691D01*
X427393Y628216D01*
X428443D01*
X428968Y627691D01*
Y627167D01*
X426869D01*
X432116Y629265D02*
Y626117D01*
X430542D01*
X430017Y626642D01*
Y627691D01*
X430542Y628216D01*
X432116D01*
X436314Y626117D02*
Y629265D01*
X437889D01*
X438413Y628741D01*
Y627691D01*
X437889Y627167D01*
X436314D01*
X439988Y628216D02*
X441037D01*
X441562Y627691D01*
Y626117D01*
X439988D01*
X439463Y626642D01*
X439988Y627167D01*
X441562D01*
X443136Y628741D02*
Y628216D01*
X442612D01*
X443661D01*
X443136D01*
Y626642D01*
X443661Y626117D01*
X445235Y629265D02*
Y626117D01*
Y627691D01*
X445760Y628216D01*
X446810D01*
X447334Y627691D01*
Y626117D01*
X451533Y629265D02*
Y626117D01*
X453632D01*
X456255D02*
X455206D01*
X454681Y626642D01*
Y627691D01*
X455206Y628216D01*
X456255D01*
X456780Y627691D01*
Y627167D01*
X454681D01*
X457830Y626117D02*
Y628216D01*
X459404D01*
X459929Y627691D01*
Y626117D01*
X462028Y625067D02*
X462553D01*
X463077Y625592D01*
Y628216D01*
X461503D01*
X460978Y627691D01*
Y626642D01*
X461503Y626117D01*
X463077D01*
X464652Y628741D02*
Y628216D01*
X464127D01*
X465176D01*
X464652D01*
Y626642D01*
X465176Y626117D01*
X466751Y629265D02*
Y626117D01*
Y627691D01*
X467276Y628216D01*
X468325D01*
X468850Y627691D01*
Y626117D01*
X362505Y628741D02*
X361980Y629265D01*
X360931D01*
X360406Y628741D01*
Y628216D01*
X360931Y627691D01*
X361980D01*
X362505Y627167D01*
Y626642D01*
X361980Y626117D01*
X360931D01*
X360406Y626642D01*
X363555Y626117D02*
X364604D01*
X364079D01*
Y629265D01*
X363555D01*
X366703Y626117D02*
X367753D01*
X368277Y626642D01*
Y627691D01*
X367753Y628216D01*
X366703D01*
X366178Y627691D01*
Y626642D01*
X366703Y626117D01*
X369852Y628741D02*
Y628216D01*
X369327D01*
X370376D01*
X369852D01*
Y626642D01*
X370376Y626117D01*
X377198Y629265D02*
Y626117D01*
X375624D01*
X375099Y626642D01*
Y627691D01*
X375624Y628216D01*
X377198D01*
X379822Y626117D02*
X378773D01*
X378248Y626642D01*
Y627691D01*
X378773Y628216D01*
X379822D01*
X380347Y627691D01*
Y627167D01*
X378248D01*
X381921Y626117D02*
Y628741D01*
Y627691D01*
X381397D01*
X382446D01*
X381921D01*
Y628741D01*
X382446Y629265D01*
X384020Y626117D02*
X385070D01*
X384545D01*
Y628216D01*
X384020D01*
X386644Y626117D02*
Y628216D01*
X388218D01*
X388743Y627691D01*
Y626117D01*
X389793D02*
X390842D01*
X390318D01*
Y628216D01*
X389793D01*
X392941Y628741D02*
Y628216D01*
X392417D01*
X393466D01*
X392941D01*
Y626642D01*
X393466Y626117D01*
X395040D02*
X396090D01*
X395565D01*
Y628216D01*
X395040D01*
X398189Y626117D02*
X399238D01*
X399763Y626642D01*
Y627691D01*
X399238Y628216D01*
X398189D01*
X397664Y627691D01*
Y626642D01*
X398189Y626117D01*
X400813D02*
Y628216D01*
X402387D01*
X402912Y627691D01*
Y626117D01*
X403961D02*
X405536D01*
X406061Y626642D01*
X405536Y627167D01*
X404486D01*
X403961Y627691D01*
X404486Y628216D01*
X406061D01*
X410259D02*
X410783D01*
Y627691D01*
X410259D01*
Y628216D01*
Y626642D02*
X410783D01*
Y626117D01*
X410259D01*
Y626642D01*
M02*
