G04*
G04 #@! TF.GenerationSoftware,Altium Limited,Altium Designer,22.5.1 (42)*
G04*
G04 Layer_Color=8421504*
%FSLAX25Y25*%
%MOIN*%
G70*
G04*
G04 #@! TF.SameCoordinates,D5CF9FB8-1D52-47B6-8917-E4D5EB827EA2*
G04*
G04*
G04 #@! TF.FilePolarity,Positive*
G04*
G01*
G75*
%ADD10C,0.01575*%
%ADD11R,0.07874X0.07874*%
%ADD12C,0.00591*%
%ADD13R,0.05000X0.03937*%
%ADD14R,0.12205X0.03937*%
%ADD15R,0.03937X0.04331*%
%ADD16R,0.03543X0.01575*%
%ADD17R,0.05118X0.03937*%
%ADD18R,0.05906X0.03150*%
%ADD19R,0.04331X0.03937*%
%ADD20O,0.02362X0.08661*%
%ADD21R,0.06299X0.07087*%
%ADD22R,0.06102X0.02362*%
%ADD23R,0.07874X0.04724*%
%ADD24R,0.03347X0.03937*%
%ADD25R,0.03347X0.03937*%
%ADD26R,0.05118X0.05906*%
%ADD27R,0.03937X0.05118*%
%ADD28O,0.08661X0.02362*%
%ADD29R,0.03937X0.03347*%
%ADD30R,0.03937X0.03347*%
%ADD31R,0.05906X0.05118*%
%ADD32R,0.07874X0.05512*%
%ADD33R,0.02362X0.04528*%
%ADD34R,0.10236X0.06693*%
%ADD35R,0.09843X0.05906*%
%ADD36R,0.27559X0.27559*%
%ADD37R,0.04331X0.07677*%
G04:AMPARAMS|DCode=38|XSize=43.31mil|YSize=76.77mil|CornerRadius=10.83mil|HoleSize=0mil|Usage=FLASHONLY|Rotation=0.000|XOffset=0mil|YOffset=0mil|HoleType=Round|Shape=RoundedRectangle|*
%AMROUNDEDRECTD38*
21,1,0.04331,0.05512,0,0,0.0*
21,1,0.02165,0.07677,0,0,0.0*
1,1,0.02165,0.01083,-0.02756*
1,1,0.02165,-0.01083,-0.02756*
1,1,0.02165,-0.01083,0.02756*
1,1,0.02165,0.01083,0.02756*
%
%ADD38ROUNDEDRECTD38*%
%ADD39R,0.05709X0.01181*%
%ADD40R,0.02165X0.03150*%
%ADD41R,0.03543X0.07874*%
G36*
X224410Y529724D02*
X220473D01*
Y534055D01*
X224410D01*
Y529724D01*
D02*
G37*
G36*
X218504D02*
X214567D01*
Y534055D01*
X218504D01*
Y529724D01*
D02*
G37*
G36*
X501969Y529724D02*
X498032D01*
Y534055D01*
X501969D01*
Y529724D01*
D02*
G37*
G36*
X496064D02*
X492127D01*
Y534055D01*
X496064D01*
Y529724D01*
D02*
G37*
G36*
X69489Y527559D02*
X65158D01*
Y531496D01*
X69489D01*
Y527559D01*
D02*
G37*
G36*
X62796D02*
X58465D01*
Y531496D01*
X62796D01*
Y527559D01*
D02*
G37*
G36*
X347048Y527559D02*
X342717D01*
Y531496D01*
X347048D01*
Y527559D01*
D02*
G37*
G36*
X340355D02*
X336024D01*
Y531496D01*
X340355D01*
Y527559D01*
D02*
G37*
G36*
X224410Y523031D02*
X220473D01*
Y527362D01*
X224410D01*
Y523031D01*
D02*
G37*
G36*
X218504D02*
X214567D01*
Y527362D01*
X218504D01*
Y523031D01*
D02*
G37*
G36*
X501969Y523031D02*
X498032D01*
Y527362D01*
X501969D01*
Y523031D01*
D02*
G37*
G36*
X496064D02*
X492127D01*
Y527362D01*
X496064D01*
Y523031D01*
D02*
G37*
G36*
X69489Y522244D02*
X65158D01*
Y526181D01*
X69489D01*
Y522244D01*
D02*
G37*
G36*
X62796Y522244D02*
X58465D01*
Y526181D01*
X62796D01*
Y522244D01*
D02*
G37*
G36*
X347048Y522244D02*
X342717D01*
Y526181D01*
X347048D01*
Y522244D01*
D02*
G37*
G36*
X340355Y522244D02*
X336024D01*
Y526181D01*
X340355D01*
Y522244D01*
D02*
G37*
G36*
X54221Y530443D02*
X54611Y530182D01*
X54873Y529791D01*
X54964Y529331D01*
X54941Y523031D01*
X54964D01*
X54873Y522571D01*
X54611Y522180D01*
X54221Y521919D01*
X53760Y521827D01*
X53299Y521919D01*
X52908Y522180D01*
X52647Y522571D01*
X52556Y523031D01*
X52579D01*
Y529331D01*
X52556D01*
X52647Y529791D01*
X52908Y530182D01*
X53299Y530443D01*
X53760Y530535D01*
X54221Y530443D01*
D02*
G37*
G36*
X49221D02*
X49611Y530182D01*
X49872Y529791D01*
X49964Y529331D01*
X49941Y523031D01*
X49964D01*
X49872Y522571D01*
X49611Y522180D01*
X49221Y521919D01*
X48760Y521827D01*
X48299Y521919D01*
X47908Y522180D01*
X47647Y522571D01*
X47556Y523031D01*
X47579D01*
Y529331D01*
X47556D01*
X47647Y529791D01*
X47908Y530182D01*
X48299Y530443D01*
X48760Y530535D01*
X49221Y530443D01*
D02*
G37*
G36*
X44221D02*
X44611Y530182D01*
X44872Y529791D01*
X44964Y529331D01*
X44941Y523031D01*
X44964D01*
X44872Y522571D01*
X44611Y522180D01*
X44221Y521919D01*
X43760Y521827D01*
X43299Y521919D01*
X42908Y522180D01*
X42647Y522571D01*
X42556Y523031D01*
X42579D01*
Y529331D01*
X42556D01*
X42647Y529791D01*
X42908Y530182D01*
X43299Y530443D01*
X43760Y530535D01*
X44221Y530443D01*
D02*
G37*
G36*
X39221D02*
X39611Y530182D01*
X39873Y529791D01*
X39964Y529331D01*
X39941Y523031D01*
X39964D01*
X39873Y522571D01*
X39611Y522180D01*
X39221Y521919D01*
X38760Y521827D01*
X38299Y521919D01*
X37908Y522180D01*
X37647Y522571D01*
X37556Y523031D01*
X37579D01*
Y529331D01*
X37556D01*
X37647Y529791D01*
X37908Y530182D01*
X38299Y530443D01*
X38760Y530535D01*
X39221Y530443D01*
D02*
G37*
G36*
X331780Y530443D02*
X332171Y530182D01*
X332432Y529791D01*
X332523Y529330D01*
X332500Y523031D01*
X332523D01*
X332432Y522570D01*
X332171Y522180D01*
X331780Y521919D01*
X331319Y521827D01*
X330858Y521919D01*
X330468Y522180D01*
X330206Y522570D01*
X330115Y523031D01*
X330138D01*
Y529330D01*
X330115D01*
X330206Y529791D01*
X330468Y530182D01*
X330858Y530443D01*
X331319Y530535D01*
X331780Y530443D01*
D02*
G37*
G36*
X326780D02*
X327171Y530182D01*
X327432Y529791D01*
X327523Y529330D01*
X327500Y523031D01*
X327523D01*
X327432Y522570D01*
X327171Y522180D01*
X326780Y521919D01*
X326319Y521827D01*
X325858Y521919D01*
X325467Y522180D01*
X325206Y522570D01*
X325115Y523031D01*
X325138D01*
Y529330D01*
X325115D01*
X325206Y529791D01*
X325467Y530182D01*
X325858Y530443D01*
X326319Y530535D01*
X326780Y530443D01*
D02*
G37*
G36*
X321780D02*
X322171Y530182D01*
X322432Y529791D01*
X322523Y529330D01*
X322500Y523031D01*
X322523D01*
X322432Y522570D01*
X322171Y522180D01*
X321780Y521919D01*
X321319Y521827D01*
X320858Y521919D01*
X320467Y522180D01*
X320206Y522570D01*
X320115Y523031D01*
X320138D01*
Y529330D01*
X320115D01*
X320206Y529791D01*
X320467Y530182D01*
X320858Y530443D01*
X321319Y530535D01*
X321780Y530443D01*
D02*
G37*
G36*
X316780D02*
X317171Y530182D01*
X317432Y529791D01*
X317523Y529330D01*
X317500Y523031D01*
X317523D01*
X317432Y522570D01*
X317171Y522180D01*
X316780Y521919D01*
X316319Y521827D01*
X315858Y521919D01*
X315468Y522180D01*
X315206Y522570D01*
X315115Y523031D01*
X315138D01*
Y529330D01*
X315115D01*
X315206Y529791D01*
X315468Y530182D01*
X315858Y530443D01*
X316319Y530535D01*
X316780Y530443D01*
D02*
G37*
G36*
X69488Y516929D02*
X65157D01*
Y520866D01*
X69488D01*
Y516929D01*
D02*
G37*
G36*
X62795D02*
X58464D01*
Y520866D01*
X62795D01*
Y516929D01*
D02*
G37*
G36*
X347047Y516929D02*
X342716D01*
Y520866D01*
X347047D01*
Y516929D01*
D02*
G37*
G36*
X340354D02*
X336023D01*
Y520866D01*
X340354D01*
Y516929D01*
D02*
G37*
G36*
X233071Y512795D02*
X227953D01*
Y518701D01*
X233071D01*
Y512795D01*
D02*
G37*
G36*
X240551Y512795D02*
X235433D01*
Y518701D01*
X240551D01*
Y512795D01*
D02*
G37*
G36*
X510630Y512795D02*
X505512D01*
Y518701D01*
X510630D01*
Y512795D01*
D02*
G37*
G36*
X518110Y512795D02*
X512992D01*
Y518701D01*
X518110D01*
Y512795D01*
D02*
G37*
G36*
X71063Y512401D02*
X67520D01*
Y513976D01*
X71063D01*
Y512401D01*
D02*
G37*
G36*
X62402D02*
X58858D01*
Y513976D01*
X62402D01*
Y512401D01*
D02*
G37*
G36*
X348622Y512401D02*
X345079D01*
Y513976D01*
X348622D01*
Y512401D01*
D02*
G37*
G36*
X339961D02*
X336418D01*
Y513976D01*
X339961D01*
Y512401D01*
D02*
G37*
G36*
X83858Y511811D02*
X79921D01*
Y516142D01*
X83858D01*
Y511811D01*
D02*
G37*
G36*
X361417Y511811D02*
X357480D01*
Y516142D01*
X361417D01*
Y511811D01*
D02*
G37*
G36*
X225394Y511023D02*
X221457D01*
Y515354D01*
X225394D01*
Y511023D01*
D02*
G37*
G36*
X219489D02*
X215552D01*
Y515354D01*
X219489D01*
Y511023D01*
D02*
G37*
G36*
X213583D02*
X209646D01*
Y515354D01*
X213583D01*
Y511023D01*
D02*
G37*
G36*
X207678D02*
X203741D01*
Y515354D01*
X207678D01*
Y511023D01*
D02*
G37*
G36*
X502953Y511023D02*
X499016D01*
Y515354D01*
X502953D01*
Y511023D01*
D02*
G37*
G36*
X497048D02*
X493111D01*
Y515354D01*
X497048D01*
Y511023D01*
D02*
G37*
G36*
X491142D02*
X487205D01*
Y515354D01*
X491142D01*
Y511023D01*
D02*
G37*
G36*
X485237D02*
X481300D01*
Y515354D01*
X485237D01*
Y511023D01*
D02*
G37*
G36*
X71063Y509842D02*
X67520D01*
Y511417D01*
X71063D01*
Y509842D01*
D02*
G37*
G36*
X348622Y509842D02*
X345079D01*
Y511417D01*
X348622D01*
Y509842D01*
D02*
G37*
G36*
X71063Y507283D02*
X67520D01*
Y508858D01*
X71063D01*
Y507283D01*
D02*
G37*
G36*
X62402D02*
X58858D01*
Y508858D01*
X62402D01*
Y507283D01*
D02*
G37*
G36*
X348622Y507283D02*
X345079D01*
Y508858D01*
X348622D01*
Y507283D01*
D02*
G37*
G36*
X339961D02*
X336418D01*
Y508858D01*
X339961D01*
Y507283D01*
D02*
G37*
G36*
X239763Y505905D02*
X235433D01*
Y509842D01*
X239763D01*
Y505905D01*
D02*
G37*
G36*
X233071D02*
X228740D01*
Y509842D01*
X233071D01*
Y505905D01*
D02*
G37*
G36*
X517323Y505905D02*
X512992D01*
Y509842D01*
X517323D01*
Y505905D01*
D02*
G37*
G36*
X510630D02*
X506299D01*
Y509842D01*
X510630D01*
Y505905D01*
D02*
G37*
G36*
X83858Y505118D02*
X79921D01*
Y509449D01*
X83858D01*
Y505118D01*
D02*
G37*
G36*
X361417Y505118D02*
X357480D01*
Y509449D01*
X361417D01*
Y505118D01*
D02*
G37*
G36*
X225394Y504330D02*
X221457D01*
Y508661D01*
X225394D01*
Y504330D01*
D02*
G37*
G36*
X219489D02*
X215552D01*
Y508661D01*
X219489D01*
Y504330D01*
D02*
G37*
G36*
X213583D02*
X209646D01*
Y508661D01*
X213583D01*
Y504330D01*
D02*
G37*
G36*
X207678D02*
X203741D01*
Y508661D01*
X207678D01*
Y504330D01*
D02*
G37*
G36*
X502953Y504330D02*
X499016D01*
Y508661D01*
X502953D01*
Y504330D01*
D02*
G37*
G36*
X497048D02*
X493111D01*
Y508661D01*
X497048D01*
Y504330D01*
D02*
G37*
G36*
X491142D02*
X487205D01*
Y508661D01*
X491142D01*
Y504330D01*
D02*
G37*
G36*
X485237D02*
X481300D01*
Y508661D01*
X485237D01*
Y504330D01*
D02*
G37*
G36*
X54221Y511546D02*
X54611Y511284D01*
X54873Y510894D01*
X54964Y510433D01*
X54941Y504134D01*
X54964D01*
X54873Y503673D01*
X54611Y503282D01*
X54221Y503021D01*
X53760Y502929D01*
X53299Y503021D01*
X52908Y503282D01*
X52647Y503673D01*
X52556Y504134D01*
X52579D01*
Y510433D01*
X52556D01*
X52647Y510894D01*
X52908Y511284D01*
X53299Y511546D01*
X53760Y511637D01*
X54221Y511546D01*
D02*
G37*
G36*
X49221D02*
X49611Y511284D01*
X49872Y510894D01*
X49964Y510433D01*
X49941Y504134D01*
X49964D01*
X49872Y503673D01*
X49611Y503282D01*
X49221Y503021D01*
X48760Y502929D01*
X48299Y503021D01*
X47908Y503282D01*
X47647Y503673D01*
X47556Y504134D01*
X47579D01*
Y510433D01*
X47556D01*
X47647Y510894D01*
X47908Y511284D01*
X48299Y511546D01*
X48760Y511637D01*
X49221Y511546D01*
D02*
G37*
G36*
X44221D02*
X44611Y511284D01*
X44872Y510894D01*
X44964Y510433D01*
X44941Y504134D01*
X44964D01*
X44872Y503673D01*
X44611Y503282D01*
X44221Y503021D01*
X43760Y502929D01*
X43299Y503021D01*
X42908Y503282D01*
X42647Y503673D01*
X42556Y504134D01*
X42579D01*
Y510433D01*
X42556D01*
X42647Y510894D01*
X42908Y511284D01*
X43299Y511546D01*
X43760Y511637D01*
X44221Y511546D01*
D02*
G37*
G36*
X39221D02*
X39611Y511284D01*
X39873Y510894D01*
X39964Y510433D01*
X39941Y504134D01*
X39964D01*
X39873Y503673D01*
X39611Y503282D01*
X39221Y503021D01*
X38760Y502929D01*
X38299Y503021D01*
X37908Y503282D01*
X37647Y503673D01*
X37556Y504134D01*
X37579D01*
Y510433D01*
X37556D01*
X37647Y510894D01*
X37908Y511284D01*
X38299Y511546D01*
X38760Y511637D01*
X39221Y511546D01*
D02*
G37*
G36*
X331780Y511545D02*
X332171Y511284D01*
X332432Y510894D01*
X332523Y510433D01*
X332500Y504134D01*
X332523D01*
X332432Y503673D01*
X332171Y503282D01*
X331780Y503021D01*
X331319Y502929D01*
X330858Y503021D01*
X330468Y503282D01*
X330206Y503673D01*
X330115Y504134D01*
X330138D01*
Y510433D01*
X330115D01*
X330206Y510894D01*
X330468Y511284D01*
X330858Y511545D01*
X331319Y511637D01*
X331780Y511545D01*
D02*
G37*
G36*
X326780D02*
X327171Y511284D01*
X327432Y510894D01*
X327523Y510433D01*
X327500Y504134D01*
X327523D01*
X327432Y503673D01*
X327171Y503282D01*
X326780Y503021D01*
X326319Y502929D01*
X325858Y503021D01*
X325467Y503282D01*
X325206Y503673D01*
X325115Y504134D01*
X325138D01*
Y510433D01*
X325115D01*
X325206Y510894D01*
X325467Y511284D01*
X325858Y511545D01*
X326319Y511637D01*
X326780Y511545D01*
D02*
G37*
G36*
X321780D02*
X322171Y511284D01*
X322432Y510894D01*
X322523Y510433D01*
X322500Y504134D01*
X322523D01*
X322432Y503673D01*
X322171Y503282D01*
X321780Y503021D01*
X321319Y502929D01*
X320858Y503021D01*
X320467Y503282D01*
X320206Y503673D01*
X320115Y504134D01*
X320138D01*
Y510433D01*
X320115D01*
X320206Y510894D01*
X320467Y511284D01*
X320858Y511545D01*
X321319Y511637D01*
X321780Y511545D01*
D02*
G37*
G36*
X316780D02*
X317171Y511284D01*
X317432Y510894D01*
X317523Y510433D01*
X317500Y504134D01*
X317523D01*
X317432Y503673D01*
X317171Y503282D01*
X316780Y503021D01*
X316319Y502929D01*
X315858Y503021D01*
X315468Y503282D01*
X315206Y503673D01*
X315115Y504134D01*
X315138D01*
Y510433D01*
X315115D01*
X315206Y510894D01*
X315468Y511284D01*
X315858Y511545D01*
X316319Y511637D01*
X316780Y511545D01*
D02*
G37*
G36*
X69488Y500984D02*
X65157D01*
Y504921D01*
X69488D01*
Y500984D01*
D02*
G37*
G36*
X62795Y500984D02*
X58464D01*
Y504921D01*
X62795D01*
Y500984D01*
D02*
G37*
G36*
X347047Y500984D02*
X342716D01*
Y504921D01*
X347047D01*
Y500984D01*
D02*
G37*
G36*
X340354Y500984D02*
X336023D01*
Y504921D01*
X340354D01*
Y500984D01*
D02*
G37*
G36*
X141535Y499685D02*
X129331D01*
Y503622D01*
X141535D01*
Y499685D01*
D02*
G37*
G36*
X120276D02*
X108071D01*
Y503622D01*
X120276D01*
Y499685D01*
D02*
G37*
G36*
X419095Y499685D02*
X406890D01*
Y503622D01*
X419095D01*
Y499685D01*
D02*
G37*
G36*
X397835D02*
X385630D01*
Y503622D01*
X397835D01*
Y499685D01*
D02*
G37*
G36*
X239992Y494094D02*
X236449D01*
Y501968D01*
X239992D01*
Y494094D01*
D02*
G37*
G36*
X214992D02*
X211449D01*
Y501968D01*
X214992D01*
Y494094D01*
D02*
G37*
G36*
X189992D02*
X186449D01*
Y501968D01*
X189992D01*
Y494094D01*
D02*
G37*
G36*
X234992Y494094D02*
X231449D01*
Y501968D01*
X234992D01*
Y494094D01*
D02*
G37*
G36*
X229992D02*
X226449D01*
Y501968D01*
X229992D01*
Y494094D01*
D02*
G37*
G36*
X224992D02*
X221449D01*
Y501968D01*
X224992D01*
Y494094D01*
D02*
G37*
G36*
X219992D02*
X216449D01*
Y501968D01*
X219992D01*
Y494094D01*
D02*
G37*
G36*
X209992D02*
X206449D01*
Y501968D01*
X209992D01*
Y494094D01*
D02*
G37*
G36*
X204992D02*
X201449D01*
Y501968D01*
X204992D01*
Y494094D01*
D02*
G37*
G36*
X199992D02*
X196449D01*
Y501968D01*
X199992D01*
Y494094D01*
D02*
G37*
G36*
X194992D02*
X191449D01*
Y501968D01*
X194992D01*
Y494094D01*
D02*
G37*
G36*
X184992D02*
X181449D01*
Y501968D01*
X184992D01*
Y494094D01*
D02*
G37*
G36*
X179992D02*
X176449D01*
Y501968D01*
X179992D01*
Y494094D01*
D02*
G37*
G36*
X174992D02*
X171449D01*
Y501968D01*
X174992D01*
Y494094D01*
D02*
G37*
G36*
X169992D02*
X166449D01*
Y501968D01*
X169992D01*
Y494094D01*
D02*
G37*
G36*
X165000D02*
X161457D01*
Y501968D01*
X165000D01*
Y494094D01*
D02*
G37*
G36*
X160000D02*
X156457D01*
Y501968D01*
X160000D01*
Y494094D01*
D02*
G37*
G36*
X155000D02*
X151457D01*
Y501968D01*
X155000D01*
Y494094D01*
D02*
G37*
G36*
X150000D02*
X146457D01*
Y501968D01*
X150000D01*
Y494094D01*
D02*
G37*
G36*
X517551Y494094D02*
X514008D01*
Y501968D01*
X517551D01*
Y494094D01*
D02*
G37*
G36*
X492551D02*
X489008D01*
Y501968D01*
X492551D01*
Y494094D01*
D02*
G37*
G36*
X467551D02*
X464008D01*
Y501968D01*
X467551D01*
Y494094D01*
D02*
G37*
G36*
X512551Y494094D02*
X509008D01*
Y501968D01*
X512551D01*
Y494094D01*
D02*
G37*
G36*
X507551D02*
X504008D01*
Y501968D01*
X507551D01*
Y494094D01*
D02*
G37*
G36*
X502551D02*
X499008D01*
Y501968D01*
X502551D01*
Y494094D01*
D02*
G37*
G36*
X497551D02*
X494008D01*
Y501968D01*
X497551D01*
Y494094D01*
D02*
G37*
G36*
X487551D02*
X484008D01*
Y501968D01*
X487551D01*
Y494094D01*
D02*
G37*
G36*
X482551D02*
X479008D01*
Y501968D01*
X482551D01*
Y494094D01*
D02*
G37*
G36*
X477551D02*
X474008D01*
Y501968D01*
X477551D01*
Y494094D01*
D02*
G37*
G36*
X472551D02*
X469008D01*
Y501968D01*
X472551D01*
Y494094D01*
D02*
G37*
G36*
X462551D02*
X459008D01*
Y501968D01*
X462551D01*
Y494094D01*
D02*
G37*
G36*
X457551D02*
X454008D01*
Y501968D01*
X457551D01*
Y494094D01*
D02*
G37*
G36*
X452551D02*
X449008D01*
Y501968D01*
X452551D01*
Y494094D01*
D02*
G37*
G36*
X447551D02*
X444008D01*
Y501968D01*
X447551D01*
Y494094D01*
D02*
G37*
G36*
X442559D02*
X439016D01*
Y501968D01*
X442559D01*
Y494094D01*
D02*
G37*
G36*
X437559D02*
X434016D01*
Y501968D01*
X437559D01*
Y494094D01*
D02*
G37*
G36*
X432559D02*
X429016D01*
Y501968D01*
X432559D01*
Y494094D01*
D02*
G37*
G36*
X427559D02*
X424016D01*
Y501968D01*
X427559D01*
Y494094D01*
D02*
G37*
G36*
X63780Y490551D02*
X57480D01*
Y497638D01*
X63780D01*
Y490551D01*
D02*
G37*
G36*
X52756D02*
X46457D01*
Y497638D01*
X52756D01*
Y490551D01*
D02*
G37*
G36*
X341339Y490551D02*
X335039D01*
Y497638D01*
X341339D01*
Y490551D01*
D02*
G37*
G36*
X330315D02*
X324016D01*
Y497638D01*
X330315D01*
Y490551D01*
D02*
G37*
G36*
X141535Y489685D02*
X129331D01*
Y493622D01*
X141535D01*
Y489685D01*
D02*
G37*
G36*
X120276D02*
X108071D01*
Y493622D01*
X120276D01*
Y489685D01*
D02*
G37*
G36*
X419095Y489685D02*
X406890D01*
Y493622D01*
X419095D01*
Y489685D01*
D02*
G37*
G36*
X397835D02*
X385630D01*
Y493622D01*
X397835D01*
Y489685D01*
D02*
G37*
G36*
X141535Y479685D02*
X129331D01*
Y483622D01*
X141535D01*
Y479685D01*
D02*
G37*
G36*
X120276D02*
X108071D01*
Y483622D01*
X120276D01*
Y479685D01*
D02*
G37*
G36*
X419095Y479685D02*
X406890D01*
Y483622D01*
X419095D01*
Y479685D01*
D02*
G37*
G36*
X397835D02*
X385630D01*
Y483622D01*
X397835D01*
Y479685D01*
D02*
G37*
G36*
X695784Y493716D02*
X697576Y492974D01*
X699188Y491897D01*
X700559Y490526D01*
X701636Y488914D01*
X702378Y487123D01*
X702756Y485221D01*
Y484252D01*
Y483283D01*
X702378Y481381D01*
X701636Y479590D01*
X700559Y477978D01*
X699188Y476607D01*
X697576Y475530D01*
X695784Y474788D01*
X693883Y474409D01*
X691944D01*
X690042Y474788D01*
X688251Y475530D01*
X686639Y476607D01*
X685268Y477978D01*
X684191Y479590D01*
X683449Y481381D01*
X683071Y483283D01*
Y484252D01*
Y485221D01*
X683449Y487123D01*
X684191Y488914D01*
X685268Y490526D01*
X686639Y491897D01*
X688251Y492974D01*
X690042Y493716D01*
X691944Y494094D01*
X693883D01*
X695784Y493716D01*
D02*
G37*
G36*
X141535Y469685D02*
X129331D01*
Y473622D01*
X141535D01*
Y469685D01*
D02*
G37*
G36*
X120276D02*
X108071D01*
Y473622D01*
X120276D01*
Y469685D01*
D02*
G37*
G36*
X419095Y469685D02*
X406890D01*
Y473622D01*
X419095D01*
Y469685D01*
D02*
G37*
G36*
X397835D02*
X385630D01*
Y473622D01*
X397835D01*
Y469685D01*
D02*
G37*
G36*
X207911Y469292D02*
X200037D01*
Y477166D01*
X207911D01*
Y469292D01*
D02*
G37*
G36*
X485470Y469291D02*
X477596D01*
Y477166D01*
X485470D01*
Y469291D01*
D02*
G37*
G36*
X217361Y469290D02*
X209487D01*
Y477164D01*
X217361D01*
Y469290D01*
D02*
G37*
G36*
X494920Y469290D02*
X487046D01*
Y477164D01*
X494920D01*
Y469290D01*
D02*
G37*
G36*
X217358Y459842D02*
X209484D01*
Y467716D01*
X217358D01*
Y459842D01*
D02*
G37*
G36*
X494917Y459841D02*
X487044D01*
Y467716D01*
X494917D01*
Y459841D01*
D02*
G37*
G36*
X207911Y459840D02*
X200037D01*
Y467714D01*
X207911D01*
Y459840D01*
D02*
G37*
G36*
X485470Y459840D02*
X477596D01*
Y467714D01*
X485470D01*
Y459840D01*
D02*
G37*
G36*
X239992Y427165D02*
X236449D01*
Y435039D01*
X239992D01*
Y427165D01*
D02*
G37*
G36*
X234992D02*
X231449D01*
Y435039D01*
X234992D01*
Y427165D01*
D02*
G37*
G36*
X229992D02*
X226449D01*
Y435039D01*
X229992D01*
Y427165D01*
D02*
G37*
G36*
X224992D02*
X221449D01*
Y435039D01*
X224992D01*
Y427165D01*
D02*
G37*
G36*
X214992D02*
X211449D01*
Y435039D01*
X214992D01*
Y427165D01*
D02*
G37*
G36*
X209992D02*
X206449D01*
Y435039D01*
X209992D01*
Y427165D01*
D02*
G37*
G36*
X204992D02*
X201449D01*
Y435039D01*
X204992D01*
Y427165D01*
D02*
G37*
G36*
X199992D02*
X196449D01*
Y435039D01*
X199992D01*
Y427165D01*
D02*
G37*
G36*
X189992D02*
X186449D01*
Y435039D01*
X189992D01*
Y427165D01*
D02*
G37*
G36*
X184992D02*
X181449D01*
Y435039D01*
X184992D01*
Y427165D01*
D02*
G37*
G36*
X179992D02*
X176449D01*
Y435039D01*
X179992D01*
Y427165D01*
D02*
G37*
G36*
X174992D02*
X171449D01*
Y435039D01*
X174992D01*
Y427165D01*
D02*
G37*
G36*
X165000D02*
X161457D01*
Y435039D01*
X165000D01*
Y427165D01*
D02*
G37*
G36*
X160000D02*
X156457D01*
Y435039D01*
X160000D01*
Y427165D01*
D02*
G37*
G36*
X155000D02*
X151457D01*
Y435039D01*
X155000D01*
Y427165D01*
D02*
G37*
G36*
X219992Y427165D02*
X216449D01*
Y435039D01*
X219992D01*
Y427165D01*
D02*
G37*
G36*
X194992D02*
X191449D01*
Y435039D01*
X194992D01*
Y427165D01*
D02*
G37*
G36*
X169992D02*
X166449D01*
Y435039D01*
X169992D01*
Y427165D01*
D02*
G37*
G36*
X150000D02*
X146457D01*
Y435039D01*
X150000D01*
Y427165D01*
D02*
G37*
G36*
X517551Y427165D02*
X514008D01*
Y435039D01*
X517551D01*
Y427165D01*
D02*
G37*
G36*
X512551D02*
X509008D01*
Y435039D01*
X512551D01*
Y427165D01*
D02*
G37*
G36*
X507551D02*
X504008D01*
Y435039D01*
X507551D01*
Y427165D01*
D02*
G37*
G36*
X502551D02*
X499008D01*
Y435039D01*
X502551D01*
Y427165D01*
D02*
G37*
G36*
X492551D02*
X489008D01*
Y435039D01*
X492551D01*
Y427165D01*
D02*
G37*
G36*
X487551D02*
X484008D01*
Y435039D01*
X487551D01*
Y427165D01*
D02*
G37*
G36*
X482551D02*
X479008D01*
Y435039D01*
X482551D01*
Y427165D01*
D02*
G37*
G36*
X477551D02*
X474008D01*
Y435039D01*
X477551D01*
Y427165D01*
D02*
G37*
G36*
X467551D02*
X464008D01*
Y435039D01*
X467551D01*
Y427165D01*
D02*
G37*
G36*
X462551D02*
X459008D01*
Y435039D01*
X462551D01*
Y427165D01*
D02*
G37*
G36*
X457551D02*
X454008D01*
Y435039D01*
X457551D01*
Y427165D01*
D02*
G37*
G36*
X452551D02*
X449008D01*
Y435039D01*
X452551D01*
Y427165D01*
D02*
G37*
G36*
X442559D02*
X439016D01*
Y435039D01*
X442559D01*
Y427165D01*
D02*
G37*
G36*
X437559D02*
X434016D01*
Y435039D01*
X437559D01*
Y427165D01*
D02*
G37*
G36*
X432559D02*
X429016D01*
Y435039D01*
X432559D01*
Y427165D01*
D02*
G37*
G36*
X497551Y427165D02*
X494008D01*
Y435039D01*
X497551D01*
Y427165D01*
D02*
G37*
G36*
X472551D02*
X469008D01*
Y435039D01*
X472551D01*
Y427165D01*
D02*
G37*
G36*
X447551D02*
X444008D01*
Y435039D01*
X447551D01*
Y427165D01*
D02*
G37*
G36*
X427559D02*
X424016D01*
Y435039D01*
X427559D01*
Y427165D01*
D02*
G37*
G36*
X136417Y427165D02*
X132086D01*
Y431102D01*
X136417D01*
Y427165D01*
D02*
G37*
G36*
X129724D02*
X125393D01*
Y431102D01*
X129724D01*
Y427165D01*
D02*
G37*
G36*
X413976Y427165D02*
X409646D01*
Y431102D01*
X413976D01*
Y427165D01*
D02*
G37*
G36*
X407283D02*
X402953D01*
Y431102D01*
X407283D01*
Y427165D01*
D02*
G37*
G36*
X137008Y423031D02*
X133465D01*
Y424606D01*
X137008D01*
Y423031D01*
D02*
G37*
G36*
X128347D02*
X124803D01*
Y424606D01*
X128347D01*
Y423031D01*
D02*
G37*
G36*
X414567Y423031D02*
X411024D01*
Y424606D01*
X414567D01*
Y423031D01*
D02*
G37*
G36*
X405906D02*
X402362D01*
Y424606D01*
X405906D01*
Y423031D01*
D02*
G37*
G36*
X175197Y420473D02*
X171260D01*
Y424803D01*
X175197D01*
Y420473D01*
D02*
G37*
G36*
X165354D02*
X161417D01*
Y424803D01*
X165354D01*
Y420473D01*
D02*
G37*
G36*
X452756Y420472D02*
X448819D01*
Y424803D01*
X452756D01*
Y420472D01*
D02*
G37*
G36*
X442913D02*
X438976D01*
Y424803D01*
X442913D01*
Y420472D01*
D02*
G37*
G36*
X159055Y420472D02*
X153937D01*
Y424409D01*
X159055D01*
Y420472D01*
D02*
G37*
G36*
X137008Y420472D02*
X133465D01*
Y422047D01*
X137008D01*
Y420472D01*
D02*
G37*
G36*
X436614Y420472D02*
X431496D01*
Y424409D01*
X436614D01*
Y420472D01*
D02*
G37*
G36*
X414567Y420472D02*
X411024D01*
Y422047D01*
X414567D01*
Y420472D01*
D02*
G37*
G36*
X137008Y417913D02*
X133465D01*
Y419488D01*
X137008D01*
Y417913D01*
D02*
G37*
G36*
X128347D02*
X124803D01*
Y419488D01*
X128347D01*
Y417913D01*
D02*
G37*
G36*
X414567Y417913D02*
X411024D01*
Y419488D01*
X414567D01*
Y417913D01*
D02*
G37*
G36*
X405906D02*
X402362D01*
Y419488D01*
X405906D01*
Y417913D01*
D02*
G37*
G36*
X165354Y413780D02*
X161417D01*
Y418110D01*
X165354D01*
Y413780D01*
D02*
G37*
G36*
X175197Y413780D02*
X171260D01*
Y418110D01*
X175197D01*
Y413780D01*
D02*
G37*
G36*
X442913Y413780D02*
X438976D01*
Y418110D01*
X442913D01*
Y413780D01*
D02*
G37*
G36*
X452756Y413780D02*
X448819D01*
Y418110D01*
X452756D01*
Y413780D01*
D02*
G37*
G36*
X218111Y412402D02*
X213780D01*
Y416339D01*
X218111D01*
Y412402D01*
D02*
G37*
G36*
X211418Y412402D02*
X207087D01*
Y416339D01*
X211418D01*
Y412402D01*
D02*
G37*
G36*
X495670Y412402D02*
X491339D01*
Y416339D01*
X495670D01*
Y412402D01*
D02*
G37*
G36*
X488977Y412402D02*
X484646D01*
Y416339D01*
X488977D01*
Y412402D01*
D02*
G37*
G36*
X237795Y412401D02*
X233464D01*
Y416338D01*
X237795D01*
Y412401D01*
D02*
G37*
G36*
X231102D02*
X226771D01*
Y416338D01*
X231102D01*
Y412401D01*
D02*
G37*
G36*
X515354Y412401D02*
X511023D01*
Y416338D01*
X515354D01*
Y412401D01*
D02*
G37*
G36*
X508661D02*
X504330D01*
Y416338D01*
X508661D01*
Y412401D01*
D02*
G37*
G36*
X159055Y412205D02*
X153937D01*
Y416142D01*
X159055D01*
Y412205D01*
D02*
G37*
G36*
X436614Y412205D02*
X431496D01*
Y416142D01*
X436614D01*
Y412205D01*
D02*
G37*
G36*
X136417Y411417D02*
X132086D01*
Y415354D01*
X136417D01*
Y411417D01*
D02*
G37*
G36*
X129724D02*
X125393D01*
Y415354D01*
X129724D01*
Y411417D01*
D02*
G37*
G36*
X413976Y411417D02*
X409646D01*
Y415354D01*
X413976D01*
Y411417D01*
D02*
G37*
G36*
X407283D02*
X402953D01*
Y415354D01*
X407283D01*
Y411417D01*
D02*
G37*
G36*
X136417Y404527D02*
X132086D01*
Y408464D01*
X136417D01*
Y404527D01*
D02*
G37*
G36*
X129724D02*
X125393D01*
Y408464D01*
X129724D01*
Y404527D01*
D02*
G37*
G36*
X413976Y404527D02*
X409646D01*
Y408464D01*
X413976D01*
Y404527D01*
D02*
G37*
G36*
X407283D02*
X402953D01*
Y408464D01*
X407283D01*
Y404527D01*
D02*
G37*
G36*
X190945Y403740D02*
X187008D01*
Y408071D01*
X190945D01*
Y403740D01*
D02*
G37*
G36*
X468504Y403740D02*
X464567D01*
Y408071D01*
X468504D01*
Y403740D01*
D02*
G37*
G36*
X137008Y400393D02*
X133465D01*
Y401968D01*
X137008D01*
Y400393D01*
D02*
G37*
G36*
X128347D02*
X124803D01*
Y401968D01*
X128347D01*
Y400393D01*
D02*
G37*
G36*
X414567Y400393D02*
X411024D01*
Y401968D01*
X414567D01*
Y400393D01*
D02*
G37*
G36*
X405906D02*
X402362D01*
Y401968D01*
X405906D01*
Y400393D01*
D02*
G37*
G36*
X176181Y400079D02*
X170276D01*
Y403228D01*
X176181D01*
Y400079D01*
D02*
G37*
G36*
X453740Y400078D02*
X447835D01*
Y403228D01*
X453740D01*
Y400078D01*
D02*
G37*
G36*
X266732Y399212D02*
X258858D01*
Y403937D01*
X266732D01*
Y399212D01*
D02*
G37*
G36*
X137008Y397834D02*
X133465D01*
Y399409D01*
X137008D01*
Y397834D01*
D02*
G37*
G36*
X414567Y397834D02*
X411024D01*
Y399409D01*
X414567D01*
Y397834D01*
D02*
G37*
G36*
X190945Y397047D02*
X187008D01*
Y401378D01*
X190945D01*
Y397047D01*
D02*
G37*
G36*
X468504Y397047D02*
X464567D01*
Y401378D01*
X468504D01*
Y397047D01*
D02*
G37*
G36*
X137008Y395275D02*
X133465D01*
Y396850D01*
X137008D01*
Y395275D01*
D02*
G37*
G36*
X128347D02*
X124803D01*
Y396850D01*
X128347D01*
Y395275D01*
D02*
G37*
G36*
X250984Y395275D02*
X244882D01*
Y397638D01*
X250984D01*
Y395275D01*
D02*
G37*
G36*
X414567Y395275D02*
X411024D01*
Y396850D01*
X414567D01*
Y395275D01*
D02*
G37*
G36*
X405906D02*
X402362D01*
Y396850D01*
X405906D01*
Y395275D01*
D02*
G37*
G36*
X176181Y395079D02*
X170276D01*
Y398228D01*
X176181D01*
Y395079D01*
D02*
G37*
G36*
X453740Y395078D02*
X447835D01*
Y398228D01*
X453740D01*
Y395078D01*
D02*
G37*
G36*
X238327Y392795D02*
X233327D01*
Y396732D01*
X238327D01*
Y392795D01*
D02*
G37*
G36*
X225728D02*
X220728D01*
Y396732D01*
X225728D01*
Y392795D01*
D02*
G37*
G36*
X515886Y392795D02*
X510886D01*
Y396732D01*
X515886D01*
Y392795D01*
D02*
G37*
G36*
X503288D02*
X498288D01*
Y396732D01*
X503288D01*
Y392795D01*
D02*
G37*
G36*
X250984Y391338D02*
X244882D01*
Y393701D01*
X250984D01*
Y391338D01*
D02*
G37*
G36*
X176181Y390079D02*
X170276D01*
Y393228D01*
X176181D01*
Y390079D01*
D02*
G37*
G36*
X453740Y390078D02*
X447835D01*
Y393228D01*
X453740D01*
Y390078D01*
D02*
G37*
G36*
X129724Y388779D02*
X125393D01*
Y392716D01*
X129724D01*
Y388779D01*
D02*
G37*
G36*
X136417Y388779D02*
X132086D01*
Y392716D01*
X136417D01*
Y388779D01*
D02*
G37*
G36*
X407283Y388779D02*
X402953D01*
Y392716D01*
X407283D01*
Y388779D01*
D02*
G37*
G36*
X413976Y388779D02*
X409646D01*
Y392716D01*
X413976D01*
Y388779D01*
D02*
G37*
G36*
X238327Y387795D02*
X233327D01*
Y391732D01*
X238327D01*
Y387795D01*
D02*
G37*
G36*
X225728Y387795D02*
X220728D01*
Y391732D01*
X225728D01*
Y387795D01*
D02*
G37*
G36*
X515886Y387795D02*
X510886D01*
Y391732D01*
X515886D01*
Y387795D01*
D02*
G37*
G36*
X503288Y387795D02*
X498288D01*
Y391732D01*
X503288D01*
Y387795D01*
D02*
G37*
G36*
X250984Y387401D02*
X244882D01*
Y389764D01*
X250984D01*
Y387401D01*
D02*
G37*
G36*
Y383464D02*
X244882D01*
Y385827D01*
X250984D01*
Y383464D01*
D02*
G37*
G36*
X238327Y382795D02*
X233327D01*
Y386732D01*
X238327D01*
Y382795D01*
D02*
G37*
G36*
X225728D02*
X220728D01*
Y386732D01*
X225728D01*
Y382795D01*
D02*
G37*
G36*
X515886Y382795D02*
X510886D01*
Y386732D01*
X515886D01*
Y382795D01*
D02*
G37*
G36*
X503288D02*
X498288D01*
Y386732D01*
X503288D01*
Y382795D01*
D02*
G37*
G36*
X266732Y377165D02*
X258858D01*
Y381890D01*
X266732D01*
Y377165D01*
D02*
G37*
G36*
X235039Y372047D02*
X230708D01*
Y375984D01*
X235039D01*
Y372047D01*
D02*
G37*
G36*
X228346D02*
X224015D01*
Y375984D01*
X228346D01*
Y372047D01*
D02*
G37*
G36*
X512598Y372047D02*
X508267D01*
Y375984D01*
X512598D01*
Y372047D01*
D02*
G37*
G36*
X505905D02*
X501575D01*
Y375984D01*
X505905D01*
Y372047D01*
D02*
G37*
G36*
X143307Y371062D02*
X138976D01*
Y374999D01*
X143307D01*
Y371062D01*
D02*
G37*
G36*
X136614D02*
X132283D01*
Y374999D01*
X136614D01*
Y371062D01*
D02*
G37*
G36*
X420866Y371062D02*
X416535D01*
Y374999D01*
X420866D01*
Y371062D01*
D02*
G37*
G36*
X414173D02*
X409842D01*
Y374999D01*
X414173D01*
Y371062D01*
D02*
G37*
G36*
X266536Y370866D02*
X262205D01*
Y374803D01*
X266536D01*
Y370866D01*
D02*
G37*
G36*
X259843Y370866D02*
X255512D01*
Y374803D01*
X259843D01*
Y370866D01*
D02*
G37*
G36*
X253543Y370866D02*
X249212D01*
Y374803D01*
X253543D01*
Y370866D01*
D02*
G37*
G36*
X246850D02*
X242519D01*
Y374803D01*
X246850D01*
Y370866D01*
D02*
G37*
G36*
X220737Y365069D02*
X221127Y364808D01*
X221388Y364417D01*
X221480Y363957D01*
X221388Y363496D01*
X221127Y363105D01*
X220737Y362844D01*
X220276Y362752D01*
X213976Y362775D01*
Y362752D01*
X213516Y362844D01*
X213125Y363105D01*
X212864Y363496D01*
X212772Y363957D01*
X212864Y364417D01*
X213125Y364808D01*
X213516Y365069D01*
X213976Y365161D01*
Y365138D01*
X220276D01*
Y365161D01*
X220737Y365069D01*
D02*
G37*
G36*
X201839D02*
X202230Y364808D01*
X202491Y364417D01*
X202582Y363957D01*
X202491Y363496D01*
X202230Y363105D01*
X201839Y362844D01*
X201378Y362752D01*
X195079Y362775D01*
Y362752D01*
X194618Y362844D01*
X194227Y363105D01*
X193966Y363496D01*
X193875Y363957D01*
X193966Y364417D01*
X194227Y364808D01*
X194618Y365069D01*
X195079Y365161D01*
Y365138D01*
X201378D01*
Y365161D01*
X201839Y365069D01*
D02*
G37*
G36*
X135236Y363582D02*
X132874D01*
Y368110D01*
X135236D01*
Y363582D01*
D02*
G37*
G36*
X142717Y363582D02*
X140354D01*
Y368110D01*
X142717D01*
Y363582D01*
D02*
G37*
G36*
X412795Y363582D02*
X410433D01*
Y368110D01*
X412795D01*
Y363582D01*
D02*
G37*
G36*
X420276Y363582D02*
X417913D01*
Y368110D01*
X420276D01*
Y363582D01*
D02*
G37*
G36*
X122244Y362598D02*
X117913D01*
Y370275D01*
X122244D01*
Y362598D01*
D02*
G37*
G36*
X112402D02*
X108071D01*
Y370275D01*
X112402D01*
Y362598D01*
D02*
G37*
G36*
X102559D02*
X98228D01*
Y370275D01*
X102559D01*
Y362598D01*
D02*
G37*
G36*
X220737Y360069D02*
X221127Y359808D01*
X221388Y359417D01*
X221480Y358957D01*
X221388Y358496D01*
X221127Y358105D01*
X220737Y357844D01*
X220276Y357752D01*
X213976Y357775D01*
Y357752D01*
X213516Y357844D01*
X213125Y358105D01*
X212864Y358496D01*
X212772Y358957D01*
X212864Y359417D01*
X213125Y359808D01*
X213516Y360069D01*
X213976Y360161D01*
Y360138D01*
X220276D01*
Y360161D01*
X220737Y360069D01*
D02*
G37*
G36*
X201839D02*
X202229Y359808D01*
X202491Y359417D01*
X202582Y358957D01*
X202491Y358496D01*
X202229Y358105D01*
X201839Y357844D01*
X201378Y357752D01*
X195079Y357775D01*
Y357752D01*
X194618Y357844D01*
X194227Y358105D01*
X193966Y358496D01*
X193875Y358957D01*
X193966Y359417D01*
X194227Y359808D01*
X194618Y360069D01*
X195079Y360161D01*
Y360138D01*
X201378D01*
Y360161D01*
X201839Y360069D01*
D02*
G37*
G36*
X247746Y361122D02*
X247746D01*
Y359941D01*
X242038D01*
Y361122D01*
X242038D01*
Y362303D01*
X247746D01*
Y361122D01*
D02*
G37*
G36*
X247746Y357874D02*
X242038D01*
Y359055D01*
X247746D01*
Y357874D01*
D02*
G37*
G36*
X247746Y356693D02*
X242038D01*
Y357874D01*
X247746D01*
Y356693D01*
D02*
G37*
G36*
X220737Y355069D02*
X221127Y354808D01*
X221388Y354417D01*
X221480Y353957D01*
X221388Y353496D01*
X221127Y353105D01*
X220737Y352844D01*
X220276Y352752D01*
X213976Y352776D01*
Y352752D01*
X213516Y352844D01*
X213125Y353105D01*
X212864Y353496D01*
X212772Y353957D01*
X212864Y354417D01*
X213125Y354808D01*
X213516Y355069D01*
X213976Y355161D01*
Y355138D01*
X220276D01*
Y355161D01*
X220737Y355069D01*
D02*
G37*
G36*
X201839D02*
X202229Y354808D01*
X202491Y354417D01*
X202582Y353957D01*
X202491Y353496D01*
X202229Y353105D01*
X201839Y352844D01*
X201378Y352752D01*
X195079Y352776D01*
Y352752D01*
X194618Y352844D01*
X194227Y353105D01*
X193966Y353496D01*
X193875Y353957D01*
X193966Y354417D01*
X194227Y354808D01*
X194618Y355069D01*
X195079Y355161D01*
Y355138D01*
X201378D01*
Y355161D01*
X201839Y355069D01*
D02*
G37*
G36*
X247746Y354724D02*
X242038D01*
Y355905D01*
X247746D01*
Y354724D01*
D02*
G37*
G36*
X236122Y354527D02*
X233957D01*
Y357677D01*
X236122D01*
Y354527D01*
D02*
G37*
G36*
X232382D02*
X230217D01*
Y357677D01*
X232382D01*
Y354527D01*
D02*
G37*
G36*
X228642D02*
X226477D01*
Y357677D01*
X228642D01*
Y354527D01*
D02*
G37*
G36*
X142717Y354330D02*
X140354D01*
Y358858D01*
X142717D01*
Y354330D01*
D02*
G37*
G36*
X138976D02*
X136614D01*
Y358858D01*
X138976D01*
Y354330D01*
D02*
G37*
G36*
X135236D02*
X132874D01*
Y358858D01*
X135236D01*
Y354330D01*
D02*
G37*
G36*
X420276Y354330D02*
X417913D01*
Y358858D01*
X420276D01*
Y354330D01*
D02*
G37*
G36*
X416536D02*
X414173D01*
Y358858D01*
X416536D01*
Y354330D01*
D02*
G37*
G36*
X412795D02*
X410433D01*
Y358858D01*
X412795D01*
Y354330D01*
D02*
G37*
G36*
X247746Y352756D02*
X242038D01*
Y353937D01*
X247746D01*
Y352756D01*
D02*
G37*
G36*
X190748Y352460D02*
X186811D01*
Y355807D01*
X190748D01*
Y352460D01*
D02*
G37*
G36*
X247746Y350787D02*
X242038D01*
Y351968D01*
X247746D01*
Y350787D01*
D02*
G37*
G36*
X220737Y350069D02*
X221127Y349808D01*
X221388Y349417D01*
X221480Y348956D01*
X221388Y348496D01*
X221127Y348105D01*
X220737Y347844D01*
X220276Y347752D01*
X213976Y347775D01*
Y347752D01*
X213516Y347844D01*
X213125Y348105D01*
X212864Y348496D01*
X212772Y348956D01*
X212864Y349417D01*
X213125Y349808D01*
X213516Y350069D01*
X213976Y350161D01*
Y350138D01*
X220276D01*
Y350161D01*
X220737Y350069D01*
D02*
G37*
G36*
X201839D02*
X202229Y349808D01*
X202491Y349417D01*
X202582Y348956D01*
X202491Y348496D01*
X202229Y348105D01*
X201839Y347844D01*
X201378Y347752D01*
X195079Y347775D01*
Y347752D01*
X194618Y347844D01*
X194227Y348105D01*
X193966Y348496D01*
X193875Y348956D01*
X193966Y349417D01*
X194227Y349808D01*
X194618Y350069D01*
X195079Y350161D01*
Y350138D01*
X201378D01*
Y350161D01*
X201839Y350069D01*
D02*
G37*
G36*
X247746Y348819D02*
X242038D01*
Y350000D01*
X247746D01*
Y348819D01*
D02*
G37*
G36*
X181299Y348720D02*
X177362D01*
Y352067D01*
X181299D01*
Y348720D01*
D02*
G37*
G36*
X101899Y347969D02*
X102257Y347729D01*
X102496Y347371D01*
X102580Y346949D01*
X102559Y341437D01*
X102580D01*
X102496Y341014D01*
X102257Y340656D01*
X101899Y340417D01*
X101476Y340333D01*
X99311Y340354D01*
Y340333D01*
X98889Y340417D01*
X98531Y340656D01*
X98291Y341014D01*
X98207Y341437D01*
X98228Y346949D01*
X98207Y346949D01*
Y346949D01*
X98291Y347371D01*
X98531Y347729D01*
X98889Y347969D01*
X99311Y348053D01*
X99311Y348031D01*
X101476D01*
Y348053D01*
X101899Y347969D01*
D02*
G37*
G36*
X143307Y347441D02*
X138976D01*
Y351378D01*
X143307D01*
Y347441D01*
D02*
G37*
G36*
X136614D02*
X132283D01*
Y351378D01*
X136614D01*
Y347441D01*
D02*
G37*
G36*
X420866Y347440D02*
X416535D01*
Y351377D01*
X420866D01*
Y347440D01*
D02*
G37*
G36*
X414173D02*
X409842D01*
Y351377D01*
X414173D01*
Y347440D01*
D02*
G37*
G36*
X247746Y346850D02*
X242038D01*
Y348031D01*
X247746D01*
Y346850D01*
D02*
G37*
G36*
X201839Y345069D02*
X202230Y344808D01*
X202491Y344417D01*
X202582Y343956D01*
X202491Y343496D01*
X202230Y343105D01*
X201839Y342844D01*
X201378Y342752D01*
X195079Y342775D01*
Y342752D01*
X194618Y342844D01*
X194227Y343105D01*
X193966Y343496D01*
X193875Y343956D01*
X193966Y344417D01*
X194227Y344808D01*
X194618Y345069D01*
X195079Y345161D01*
Y345138D01*
X201378D01*
Y345161D01*
X201839Y345069D01*
D02*
G37*
G36*
X220737Y345069D02*
X221127Y344808D01*
X221388Y344417D01*
X221480Y343956D01*
X221388Y343496D01*
X221127Y343105D01*
X220737Y342844D01*
X220276Y342752D01*
X213976Y342775D01*
Y342752D01*
X213516Y342844D01*
X213125Y343105D01*
X212864Y343496D01*
X212772Y343956D01*
X212864Y344417D01*
X213125Y344808D01*
X213516Y345069D01*
X213976Y345161D01*
Y345138D01*
X220276D01*
Y345161D01*
X220737Y345069D01*
D02*
G37*
G36*
X236122Y345079D02*
X233957D01*
Y348228D01*
X236122D01*
Y345079D01*
D02*
G37*
G36*
X232382D02*
X230217D01*
Y348228D01*
X232382D01*
Y345079D01*
D02*
G37*
G36*
X228642D02*
X226477D01*
Y348228D01*
X228642D01*
Y345079D01*
D02*
G37*
G36*
X190748Y344980D02*
X186811D01*
Y348327D01*
X190748D01*
Y344980D01*
D02*
G37*
G36*
X247746Y344882D02*
X242038D01*
Y346063D01*
X247746D01*
Y344882D01*
D02*
G37*
G36*
Y342913D02*
X242038D01*
Y344094D01*
X247746D01*
Y342913D01*
D02*
G37*
G36*
Y340945D02*
X242038D01*
Y342126D01*
X247746D01*
Y340945D01*
D02*
G37*
G36*
X122244Y340354D02*
X117913D01*
Y348031D01*
X122244D01*
Y340354D01*
D02*
G37*
G36*
X112402D02*
X108071D01*
Y348031D01*
X112402D01*
Y340354D01*
D02*
G37*
G36*
X201839Y340069D02*
X202229Y339808D01*
X202491Y339417D01*
X202582Y338956D01*
X202491Y338496D01*
X202229Y338105D01*
X201839Y337844D01*
X201378Y337752D01*
X195079Y337775D01*
Y337752D01*
X194618Y337844D01*
X194227Y338105D01*
X193966Y338496D01*
X193875Y338956D01*
X193966Y339417D01*
X194227Y339808D01*
X194618Y340069D01*
X195079Y340161D01*
Y340138D01*
X201378D01*
Y340161D01*
X201839Y340069D01*
D02*
G37*
G36*
X220737Y340069D02*
X221127Y339808D01*
X221388Y339417D01*
X221480Y338956D01*
X221388Y338496D01*
X221127Y338105D01*
X220737Y337844D01*
X220276Y337752D01*
X213976Y337775D01*
Y337752D01*
X213516Y337844D01*
X213125Y338105D01*
X212864Y338496D01*
X212772Y338956D01*
X212864Y339417D01*
X213125Y339808D01*
X213516Y340069D01*
X213976Y340161D01*
Y340138D01*
X220276D01*
Y340161D01*
X220737Y340069D01*
D02*
G37*
G36*
X247746Y338976D02*
X242038D01*
Y340157D01*
X247746D01*
Y338976D01*
D02*
G37*
G36*
X190748Y338681D02*
X186811D01*
Y342027D01*
X190748D01*
Y338681D01*
D02*
G37*
G36*
X234842Y338582D02*
X230511D01*
Y342519D01*
X234842D01*
Y338582D01*
D02*
G37*
G36*
X228149D02*
X223819D01*
Y342519D01*
X228149D01*
Y338582D01*
D02*
G37*
G36*
X247746Y337795D02*
X242038D01*
Y338976D01*
X247746D01*
Y337795D01*
D02*
G37*
G36*
Y335728D02*
X242038D01*
Y336909D01*
X247746D01*
Y335728D01*
D02*
G37*
G36*
X220737Y335069D02*
X221127Y334808D01*
X221388Y334417D01*
X221480Y333957D01*
X221388Y333496D01*
X221127Y333105D01*
X220737Y332844D01*
X220276Y332752D01*
X213976Y332775D01*
Y332752D01*
X213516Y332844D01*
X213125Y333105D01*
X212864Y333496D01*
X212772Y333957D01*
X212864Y334417D01*
X213125Y334808D01*
X213516Y335069D01*
X213976Y335161D01*
Y335138D01*
X220276D01*
Y335161D01*
X220737Y335069D01*
D02*
G37*
G36*
X201839D02*
X202229Y334808D01*
X202491Y334417D01*
X202582Y333957D01*
X202491Y333496D01*
X202229Y333105D01*
X201839Y332844D01*
X201378Y332752D01*
X195079Y332775D01*
Y332752D01*
X194618Y332844D01*
X194227Y333105D01*
X193966Y333496D01*
X193875Y333957D01*
X193966Y334417D01*
X194227Y334808D01*
X194618Y335069D01*
X195079Y335161D01*
Y335138D01*
X201378D01*
Y335161D01*
X201839Y335069D01*
D02*
G37*
G36*
X181299Y334941D02*
X177362D01*
Y338287D01*
X181299D01*
Y334941D01*
D02*
G37*
G36*
X247746Y334547D02*
X242038D01*
Y335728D01*
X247746D01*
Y334547D01*
D02*
G37*
G36*
X96456Y333858D02*
X92519D01*
Y338189D01*
X96456D01*
Y333858D01*
D02*
G37*
G36*
X110728Y333464D02*
X107382D01*
Y337401D01*
X110728D01*
Y333464D01*
D02*
G37*
G36*
X103248D02*
X99902D01*
Y337401D01*
X103248D01*
Y333464D01*
D02*
G37*
G36*
X190748Y331201D02*
X186811D01*
Y334547D01*
X190748D01*
Y331201D01*
D02*
G37*
G36*
X236614Y330709D02*
X231496D01*
Y336614D01*
X236614D01*
Y330709D01*
D02*
G37*
G36*
X229134D02*
X224016D01*
Y336614D01*
X229134D01*
Y330709D01*
D02*
G37*
G36*
X201839Y330069D02*
X202229Y329808D01*
X202491Y329417D01*
X202582Y328957D01*
X202491Y328496D01*
X202229Y328105D01*
X201839Y327844D01*
X201378Y327752D01*
X195079Y327775D01*
Y327752D01*
X194618Y327844D01*
X194227Y328105D01*
X193966Y328496D01*
X193875Y328957D01*
X193966Y329417D01*
X194227Y329808D01*
X194618Y330069D01*
X195079Y330161D01*
Y330138D01*
X201378D01*
Y330161D01*
X201839Y330069D01*
D02*
G37*
G36*
X220737Y330069D02*
X221127Y329808D01*
X221388Y329417D01*
X221480Y328957D01*
X221388Y328496D01*
X221127Y328105D01*
X220737Y327844D01*
X220276Y327752D01*
X213976Y327775D01*
Y327752D01*
X213516Y327844D01*
X213125Y328105D01*
X212864Y328496D01*
X212772Y328957D01*
X212864Y329417D01*
X213125Y329808D01*
X213516Y330069D01*
X213976Y330161D01*
Y330138D01*
X220276D01*
Y330161D01*
X220737Y330069D01*
D02*
G37*
G36*
X140157Y328346D02*
X129921D01*
Y335039D01*
X140157D01*
Y328346D01*
D02*
G37*
G36*
X124016D02*
X113780D01*
Y335039D01*
X124016D01*
Y328346D01*
D02*
G37*
G36*
X96456Y327166D02*
X92519D01*
Y331496D01*
X96456D01*
Y327166D01*
D02*
G37*
G36*
X190552Y324409D02*
X186615D01*
Y328740D01*
X190552D01*
Y324409D01*
D02*
G37*
G36*
X184843Y324016D02*
X178937D01*
Y329134D01*
X184843D01*
Y324016D01*
D02*
G37*
G36*
X106988Y324016D02*
X103642D01*
Y327953D01*
X106988D01*
Y324016D01*
D02*
G37*
G36*
X252559Y320866D02*
X248228D01*
Y324803D01*
X252559D01*
Y320866D01*
D02*
G37*
G36*
X245866D02*
X241535D01*
Y324803D01*
X245866D01*
Y320866D01*
D02*
G37*
G36*
X266929Y320275D02*
X262992D01*
Y325394D01*
X266929D01*
Y320275D01*
D02*
G37*
G36*
X258662D02*
X254725D01*
Y325394D01*
X258662D01*
Y320275D01*
D02*
G37*
G36*
X213386Y318898D02*
X209055D01*
Y322835D01*
X213386D01*
Y318898D01*
D02*
G37*
G36*
X220079Y318898D02*
X215748D01*
Y322835D01*
X220079D01*
Y318898D01*
D02*
G37*
G36*
X205315Y318897D02*
X200984D01*
Y322834D01*
X205315D01*
Y318897D01*
D02*
G37*
G36*
X198622D02*
X194291D01*
Y322834D01*
X198622D01*
Y318897D01*
D02*
G37*
G36*
X190552Y317716D02*
X186615D01*
Y322047D01*
X190552D01*
Y317716D01*
D02*
G37*
G36*
X114862Y317519D02*
X111516D01*
Y321457D01*
X114862D01*
Y317519D01*
D02*
G37*
G36*
X122343Y317519D02*
X118996D01*
Y321457D01*
X122343D01*
Y317519D01*
D02*
G37*
G36*
X695784Y336236D02*
X697576Y335494D01*
X699188Y334417D01*
X700559Y333046D01*
X701636Y331434D01*
X702378Y329643D01*
X702756Y327741D01*
Y326772D01*
Y325802D01*
X702378Y323901D01*
X701636Y322109D01*
X700559Y320497D01*
X699188Y319126D01*
X697576Y318049D01*
X695784Y317307D01*
X693883Y316929D01*
X691944D01*
X690042Y317307D01*
X688251Y318049D01*
X686639Y319126D01*
X685268Y320497D01*
X684191Y322109D01*
X683449Y323901D01*
X683071Y325802D01*
Y326772D01*
Y327741D01*
X683449Y329643D01*
X684191Y331434D01*
X685268Y333046D01*
X686639Y334417D01*
X688251Y335494D01*
X690042Y336236D01*
X691944Y336614D01*
X693883D01*
X695784Y336236D01*
D02*
G37*
G36*
X184843Y316535D02*
X178937D01*
Y321653D01*
X184843D01*
Y316535D01*
D02*
G37*
G36*
X82087Y313582D02*
X71851D01*
Y320275D01*
X82087D01*
Y313582D01*
D02*
G37*
G36*
X65945D02*
X55709D01*
Y320275D01*
X65945D01*
Y313582D01*
D02*
G37*
G36*
X252559Y312992D02*
X248228D01*
Y316929D01*
X252559D01*
Y312992D01*
D02*
G37*
G36*
X245866D02*
X241535D01*
Y316929D01*
X245866D01*
Y312992D01*
D02*
G37*
G36*
X109252Y312402D02*
X104922D01*
Y316339D01*
X109252D01*
Y312402D01*
D02*
G37*
G36*
X102559Y312402D02*
X98229D01*
Y316339D01*
X102559D01*
Y312402D01*
D02*
G37*
G36*
X386811Y312402D02*
X382481D01*
Y316339D01*
X386811D01*
Y312402D01*
D02*
G37*
G36*
X380119Y312402D02*
X375788D01*
Y316339D01*
X380119D01*
Y312402D01*
D02*
G37*
G36*
X266929Y312401D02*
X262992D01*
Y317519D01*
X266929D01*
Y312401D01*
D02*
G37*
G36*
X258662D02*
X254725D01*
Y317519D01*
X258662D01*
Y312401D01*
D02*
G37*
G36*
X118602Y308071D02*
X115256D01*
Y312008D01*
X118602D01*
Y308071D01*
D02*
G37*
G36*
X252559Y305118D02*
X248228D01*
Y309055D01*
X252559D01*
Y305118D01*
D02*
G37*
G36*
X245866Y305118D02*
X241535D01*
Y309055D01*
X245866D01*
Y305118D01*
D02*
G37*
G36*
X530118Y305118D02*
X525787D01*
Y309055D01*
X530118D01*
Y305118D01*
D02*
G37*
G36*
X523425Y305118D02*
X519094D01*
Y309055D01*
X523425D01*
Y305118D01*
D02*
G37*
G36*
X266929Y304527D02*
X262992D01*
Y309646D01*
X266929D01*
Y304527D01*
D02*
G37*
G36*
X258662D02*
X254725D01*
Y309646D01*
X258662D01*
Y304527D01*
D02*
G37*
G36*
X544488Y304527D02*
X540551D01*
Y309645D01*
X544488D01*
Y304527D01*
D02*
G37*
G36*
X536221D02*
X532284D01*
Y309645D01*
X536221D01*
Y304527D01*
D02*
G37*
G36*
X59055Y303347D02*
X55118D01*
Y307677D01*
X59055D01*
Y303347D01*
D02*
G37*
G36*
X72244Y301378D02*
X62402D01*
Y307283D01*
X72244D01*
Y301378D01*
D02*
G37*
G36*
X59055Y296654D02*
X55118D01*
Y300984D01*
X59055D01*
Y296654D01*
D02*
G37*
G36*
X236221Y294488D02*
X228346D01*
Y300000D01*
X236221D01*
Y294488D01*
D02*
G37*
G36*
X208662D02*
X200787D01*
Y300000D01*
X208662D01*
Y294488D01*
D02*
G37*
G36*
X190945D02*
X183071D01*
Y300000D01*
X190945D01*
Y294488D01*
D02*
G37*
G36*
X163386D02*
X155512D01*
Y300000D01*
X163386D01*
Y294488D01*
D02*
G37*
G36*
X513780Y294488D02*
X505906D01*
Y300000D01*
X513780D01*
Y294488D01*
D02*
G37*
G36*
X486221D02*
X478347D01*
Y300000D01*
X486221D01*
Y294488D01*
D02*
G37*
G36*
X468504D02*
X460630D01*
Y300000D01*
X468504D01*
Y294488D01*
D02*
G37*
G36*
X440945D02*
X433071D01*
Y300000D01*
X440945D01*
Y294488D01*
D02*
G37*
G36*
X59056Y289566D02*
X55119D01*
Y293897D01*
X59056D01*
Y289566D01*
D02*
G37*
G36*
X72244Y283267D02*
X62402D01*
Y289173D01*
X72244D01*
Y283267D01*
D02*
G37*
G36*
X59056Y282874D02*
X55119D01*
Y287204D01*
X59056D01*
Y282874D01*
D02*
G37*
G36*
X236221Y282677D02*
X228346D01*
Y288189D01*
X236221D01*
Y282677D01*
D02*
G37*
G36*
X208662D02*
X200787D01*
Y288189D01*
X208662D01*
Y282677D01*
D02*
G37*
G36*
X190945D02*
X183071D01*
Y288189D01*
X190945D01*
Y282677D01*
D02*
G37*
G36*
X163386D02*
X155512D01*
Y288189D01*
X163386D01*
Y282677D01*
D02*
G37*
G36*
X513780Y282677D02*
X505906D01*
Y288189D01*
X513780D01*
Y282677D01*
D02*
G37*
G36*
X486221D02*
X478347D01*
Y288189D01*
X486221D01*
Y282677D01*
D02*
G37*
G36*
X468504D02*
X460630D01*
Y288189D01*
X468504D01*
Y282677D01*
D02*
G37*
G36*
X440945D02*
X433071D01*
Y288189D01*
X440945D01*
Y282677D01*
D02*
G37*
G36*
X108268Y281496D02*
X80709D01*
Y309055D01*
X108268D01*
Y281496D01*
D02*
G37*
G36*
X501969Y256102D02*
X498032D01*
Y260433D01*
X501969D01*
Y256102D01*
D02*
G37*
G36*
X496064D02*
X492127D01*
Y260433D01*
X496064D01*
Y256102D01*
D02*
G37*
G36*
X347048Y253937D02*
X342717D01*
Y257874D01*
X347048D01*
Y253937D01*
D02*
G37*
G36*
X340355D02*
X336024D01*
Y257874D01*
X340355D01*
Y253937D01*
D02*
G37*
G36*
X501969Y249409D02*
X498032D01*
Y253740D01*
X501969D01*
Y249409D01*
D02*
G37*
G36*
X496064D02*
X492127D01*
Y253740D01*
X496064D01*
Y249409D01*
D02*
G37*
G36*
X347048Y248622D02*
X342717D01*
Y252559D01*
X347048D01*
Y248622D01*
D02*
G37*
G36*
X340355Y248622D02*
X336024D01*
Y252559D01*
X340355D01*
Y248622D01*
D02*
G37*
G36*
X331780Y256821D02*
X332171Y256560D01*
X332432Y256169D01*
X332523Y255708D01*
X332500Y249409D01*
X332523D01*
X332432Y248948D01*
X332171Y248558D01*
X331780Y248297D01*
X331319Y248205D01*
X330858Y248297D01*
X330468Y248558D01*
X330206Y248948D01*
X330115Y249409D01*
X330138D01*
Y255708D01*
X330115D01*
X330206Y256169D01*
X330468Y256560D01*
X330858Y256821D01*
X331319Y256913D01*
X331780Y256821D01*
D02*
G37*
G36*
X326780D02*
X327171Y256560D01*
X327432Y256169D01*
X327523Y255708D01*
X327500Y249409D01*
X327523D01*
X327432Y248948D01*
X327171Y248558D01*
X326780Y248297D01*
X326319Y248205D01*
X325858Y248297D01*
X325467Y248558D01*
X325206Y248948D01*
X325115Y249409D01*
X325138D01*
Y255708D01*
X325115D01*
X325206Y256169D01*
X325467Y256560D01*
X325858Y256821D01*
X326319Y256913D01*
X326780Y256821D01*
D02*
G37*
G36*
X321780D02*
X322171Y256560D01*
X322432Y256169D01*
X322523Y255708D01*
X322500Y249409D01*
X322523D01*
X322432Y248948D01*
X322171Y248558D01*
X321780Y248297D01*
X321319Y248205D01*
X320858Y248297D01*
X320467Y248558D01*
X320206Y248948D01*
X320115Y249409D01*
X320138D01*
Y255708D01*
X320115D01*
X320206Y256169D01*
X320467Y256560D01*
X320858Y256821D01*
X321319Y256913D01*
X321780Y256821D01*
D02*
G37*
G36*
X316780D02*
X317171Y256560D01*
X317432Y256169D01*
X317523Y255708D01*
X317500Y249409D01*
X317523D01*
X317432Y248948D01*
X317171Y248558D01*
X316780Y248297D01*
X316319Y248205D01*
X315858Y248297D01*
X315468Y248558D01*
X315206Y248948D01*
X315115Y249409D01*
X315138D01*
Y255708D01*
X315115D01*
X315206Y256169D01*
X315468Y256560D01*
X315858Y256821D01*
X316319Y256913D01*
X316780Y256821D01*
D02*
G37*
G36*
X347047Y243306D02*
X342716D01*
Y247244D01*
X347047D01*
Y243306D01*
D02*
G37*
G36*
X340354D02*
X336023D01*
Y247243D01*
X340354D01*
Y243306D01*
D02*
G37*
G36*
X510630Y239173D02*
X505512D01*
Y245078D01*
X510630D01*
Y239173D01*
D02*
G37*
G36*
X518110Y239173D02*
X512992D01*
Y245078D01*
X518110D01*
Y239173D01*
D02*
G37*
G36*
X348622Y238779D02*
X345079D01*
Y240354D01*
X348622D01*
Y238779D01*
D02*
G37*
G36*
X339961D02*
X336418D01*
Y240354D01*
X339961D01*
Y238779D01*
D02*
G37*
G36*
X361417Y238189D02*
X357480D01*
Y242520D01*
X361417D01*
Y238189D01*
D02*
G37*
G36*
X502953Y237401D02*
X499016D01*
Y241732D01*
X502953D01*
Y237401D01*
D02*
G37*
G36*
X497048D02*
X493111D01*
Y241732D01*
X497048D01*
Y237401D01*
D02*
G37*
G36*
X491142D02*
X487205D01*
Y241732D01*
X491142D01*
Y237401D01*
D02*
G37*
G36*
X485237D02*
X481300D01*
Y241732D01*
X485237D01*
Y237401D01*
D02*
G37*
G36*
X348622Y236220D02*
X345079D01*
Y237795D01*
X348622D01*
Y236220D01*
D02*
G37*
G36*
X348622Y233661D02*
X345079D01*
Y235236D01*
X348622D01*
Y233661D01*
D02*
G37*
G36*
X339961D02*
X336418D01*
Y235236D01*
X339961D01*
Y233661D01*
D02*
G37*
G36*
X517323Y232283D02*
X512992D01*
Y236220D01*
X517323D01*
Y232283D01*
D02*
G37*
G36*
X510630D02*
X506299D01*
Y236220D01*
X510630D01*
Y232283D01*
D02*
G37*
G36*
X361417Y231496D02*
X357480D01*
Y235827D01*
X361417D01*
Y231496D01*
D02*
G37*
G36*
X502953Y230708D02*
X499016D01*
Y235039D01*
X502953D01*
Y230708D01*
D02*
G37*
G36*
X497048D02*
X493111D01*
Y235039D01*
X497048D01*
Y230708D01*
D02*
G37*
G36*
X491142D02*
X487205D01*
Y235039D01*
X491142D01*
Y230708D01*
D02*
G37*
G36*
X485237D02*
X481300D01*
Y235039D01*
X485237D01*
Y230708D01*
D02*
G37*
G36*
X331780Y237923D02*
X332171Y237662D01*
X332432Y237272D01*
X332523Y236811D01*
X332500Y230512D01*
X332523D01*
X332432Y230051D01*
X332171Y229660D01*
X331780Y229399D01*
X331319Y229307D01*
X330858Y229399D01*
X330468Y229660D01*
X330206Y230051D01*
X330115Y230512D01*
X330138D01*
Y236811D01*
X330115D01*
X330206Y237272D01*
X330468Y237662D01*
X330858Y237923D01*
X331319Y238015D01*
X331780Y237923D01*
D02*
G37*
G36*
X326780D02*
X327171Y237662D01*
X327432Y237272D01*
X327523Y236811D01*
X327500Y230512D01*
X327523D01*
X327432Y230051D01*
X327171Y229660D01*
X326780Y229399D01*
X326319Y229307D01*
X325858Y229399D01*
X325467Y229660D01*
X325206Y230051D01*
X325115Y230512D01*
X325138D01*
Y236811D01*
X325115D01*
X325206Y237272D01*
X325467Y237662D01*
X325858Y237923D01*
X326319Y238015D01*
X326780Y237923D01*
D02*
G37*
G36*
X321780D02*
X322171Y237662D01*
X322432Y237272D01*
X322523Y236811D01*
X322500Y230512D01*
X322523D01*
X322432Y230051D01*
X322171Y229660D01*
X321780Y229399D01*
X321319Y229307D01*
X320858Y229399D01*
X320467Y229660D01*
X320206Y230051D01*
X320115Y230512D01*
X320138D01*
Y236811D01*
X320115D01*
X320206Y237272D01*
X320467Y237662D01*
X320858Y237923D01*
X321319Y238015D01*
X321780Y237923D01*
D02*
G37*
G36*
X316780D02*
X317171Y237662D01*
X317432Y237272D01*
X317523Y236811D01*
X317500Y230512D01*
X317523D01*
X317432Y230051D01*
X317171Y229660D01*
X316780Y229399D01*
X316319Y229307D01*
X315858Y229399D01*
X315468Y229660D01*
X315206Y230051D01*
X315115Y230512D01*
X315138D01*
Y236811D01*
X315115D01*
X315206Y237272D01*
X315468Y237662D01*
X315858Y237923D01*
X316319Y238015D01*
X316780Y237923D01*
D02*
G37*
G36*
X347047Y227362D02*
X342716D01*
Y231299D01*
X347047D01*
Y227362D01*
D02*
G37*
G36*
X340354Y227362D02*
X336023D01*
Y231299D01*
X340354D01*
Y227362D01*
D02*
G37*
G36*
X419095Y226063D02*
X406890D01*
Y230000D01*
X419095D01*
Y226063D01*
D02*
G37*
G36*
X397835D02*
X385630D01*
Y230000D01*
X397835D01*
Y226063D01*
D02*
G37*
G36*
X517551Y220472D02*
X514008D01*
Y228346D01*
X517551D01*
Y220472D01*
D02*
G37*
G36*
X492551D02*
X489008D01*
Y228346D01*
X492551D01*
Y220472D01*
D02*
G37*
G36*
X467551D02*
X464008D01*
Y228346D01*
X467551D01*
Y220472D01*
D02*
G37*
G36*
X512551Y220472D02*
X509008D01*
Y228346D01*
X512551D01*
Y220472D01*
D02*
G37*
G36*
X507551D02*
X504008D01*
Y228346D01*
X507551D01*
Y220472D01*
D02*
G37*
G36*
X502551D02*
X499008D01*
Y228346D01*
X502551D01*
Y220472D01*
D02*
G37*
G36*
X497551D02*
X494008D01*
Y228346D01*
X497551D01*
Y220472D01*
D02*
G37*
G36*
X487551D02*
X484008D01*
Y228346D01*
X487551D01*
Y220472D01*
D02*
G37*
G36*
X482551D02*
X479008D01*
Y228346D01*
X482551D01*
Y220472D01*
D02*
G37*
G36*
X477551D02*
X474008D01*
Y228346D01*
X477551D01*
Y220472D01*
D02*
G37*
G36*
X472551D02*
X469008D01*
Y228346D01*
X472551D01*
Y220472D01*
D02*
G37*
G36*
X462551D02*
X459008D01*
Y228346D01*
X462551D01*
Y220472D01*
D02*
G37*
G36*
X457551D02*
X454008D01*
Y228346D01*
X457551D01*
Y220472D01*
D02*
G37*
G36*
X452551D02*
X449008D01*
Y228346D01*
X452551D01*
Y220472D01*
D02*
G37*
G36*
X447551D02*
X444008D01*
Y228346D01*
X447551D01*
Y220472D01*
D02*
G37*
G36*
X442559D02*
X439016D01*
Y228346D01*
X442559D01*
Y220472D01*
D02*
G37*
G36*
X437559D02*
X434016D01*
Y228346D01*
X437559D01*
Y220472D01*
D02*
G37*
G36*
X432559D02*
X429016D01*
Y228346D01*
X432559D01*
Y220472D01*
D02*
G37*
G36*
X427559D02*
X424016D01*
Y228346D01*
X427559D01*
Y220472D01*
D02*
G37*
G36*
X341339Y216929D02*
X335039D01*
Y224015D01*
X341339D01*
Y216929D01*
D02*
G37*
G36*
X330315D02*
X324016D01*
Y224015D01*
X330315D01*
Y216929D01*
D02*
G37*
G36*
X419095Y216063D02*
X406890D01*
Y220000D01*
X419095D01*
Y216063D01*
D02*
G37*
G36*
X397835D02*
X385630D01*
Y220000D01*
X397835D01*
Y216063D01*
D02*
G37*
G36*
X419095Y206063D02*
X406890D01*
Y210000D01*
X419095D01*
Y206063D01*
D02*
G37*
G36*
X397835D02*
X385630D01*
Y210000D01*
X397835D01*
Y206063D01*
D02*
G37*
G36*
X695784Y220094D02*
X697576Y219352D01*
X699188Y218275D01*
X700559Y216904D01*
X701636Y215292D01*
X702378Y213501D01*
X702756Y211599D01*
Y210630D01*
Y209660D01*
X702378Y207759D01*
X701636Y205968D01*
X700559Y204356D01*
X699188Y202985D01*
X697576Y201907D01*
X695784Y201166D01*
X693883Y200787D01*
X691944D01*
X690042Y201166D01*
X688251Y201907D01*
X686639Y202985D01*
X685268Y204356D01*
X684191Y205968D01*
X683449Y207759D01*
X683071Y209660D01*
Y210630D01*
Y211599D01*
X683449Y213501D01*
X684191Y215292D01*
X685268Y216904D01*
X686639Y218275D01*
X688251Y219352D01*
X690042Y220094D01*
X691944Y220472D01*
X693883D01*
X695784Y220094D01*
D02*
G37*
G36*
X419095Y196063D02*
X406890D01*
Y200000D01*
X419095D01*
Y196063D01*
D02*
G37*
G36*
X397835D02*
X385630D01*
Y200000D01*
X397835D01*
Y196063D01*
D02*
G37*
G36*
X485470Y195669D02*
X477596D01*
Y203543D01*
X485470D01*
Y195669D01*
D02*
G37*
G36*
X494920Y195668D02*
X487046D01*
Y203542D01*
X494920D01*
Y195668D01*
D02*
G37*
G36*
X494917Y186220D02*
X487044D01*
Y194094D01*
X494917D01*
Y186220D01*
D02*
G37*
G36*
X485470Y186218D02*
X477596D01*
Y194092D01*
X485470D01*
Y186218D01*
D02*
G37*
G36*
X517551Y153543D02*
X514008D01*
Y161417D01*
X517551D01*
Y153543D01*
D02*
G37*
G36*
X512551D02*
X509008D01*
Y161417D01*
X512551D01*
Y153543D01*
D02*
G37*
G36*
X507551D02*
X504008D01*
Y161417D01*
X507551D01*
Y153543D01*
D02*
G37*
G36*
X502551D02*
X499008D01*
Y161417D01*
X502551D01*
Y153543D01*
D02*
G37*
G36*
X492551D02*
X489008D01*
Y161417D01*
X492551D01*
Y153543D01*
D02*
G37*
G36*
X487551D02*
X484008D01*
Y161417D01*
X487551D01*
Y153543D01*
D02*
G37*
G36*
X482551D02*
X479008D01*
Y161417D01*
X482551D01*
Y153543D01*
D02*
G37*
G36*
X477551D02*
X474008D01*
Y161417D01*
X477551D01*
Y153543D01*
D02*
G37*
G36*
X467551D02*
X464008D01*
Y161417D01*
X467551D01*
Y153543D01*
D02*
G37*
G36*
X462551D02*
X459008D01*
Y161417D01*
X462551D01*
Y153543D01*
D02*
G37*
G36*
X457551D02*
X454008D01*
Y161417D01*
X457551D01*
Y153543D01*
D02*
G37*
G36*
X452551D02*
X449008D01*
Y161417D01*
X452551D01*
Y153543D01*
D02*
G37*
G36*
X442559D02*
X439016D01*
Y161417D01*
X442559D01*
Y153543D01*
D02*
G37*
G36*
X437559D02*
X434016D01*
Y161417D01*
X437559D01*
Y153543D01*
D02*
G37*
G36*
X432559D02*
X429016D01*
Y161417D01*
X432559D01*
Y153543D01*
D02*
G37*
G36*
X497551Y153543D02*
X494008D01*
Y161417D01*
X497551D01*
Y153543D01*
D02*
G37*
G36*
X472551D02*
X469008D01*
Y161417D01*
X472551D01*
Y153543D01*
D02*
G37*
G36*
X447551D02*
X444008D01*
Y161417D01*
X447551D01*
Y153543D01*
D02*
G37*
G36*
X427559D02*
X424016D01*
Y161417D01*
X427559D01*
Y153543D01*
D02*
G37*
G36*
X413976Y153543D02*
X409646D01*
Y157480D01*
X413976D01*
Y153543D01*
D02*
G37*
G36*
X407283D02*
X402953D01*
Y157480D01*
X407283D01*
Y153543D01*
D02*
G37*
G36*
X414567Y149409D02*
X411024D01*
Y150984D01*
X414567D01*
Y149409D01*
D02*
G37*
G36*
X405906D02*
X402362D01*
Y150984D01*
X405906D01*
Y149409D01*
D02*
G37*
G36*
X452756Y146851D02*
X448819D01*
Y151181D01*
X452756D01*
Y146851D01*
D02*
G37*
G36*
X442913D02*
X438976D01*
Y151181D01*
X442913D01*
Y146851D01*
D02*
G37*
G36*
X436614Y146850D02*
X431496D01*
Y150787D01*
X436614D01*
Y146850D01*
D02*
G37*
G36*
X414567Y146850D02*
X411024D01*
Y148425D01*
X414567D01*
Y146850D01*
D02*
G37*
G36*
Y144291D02*
X411024D01*
Y145866D01*
X414567D01*
Y144291D01*
D02*
G37*
G36*
X405906D02*
X402362D01*
Y145866D01*
X405906D01*
Y144291D01*
D02*
G37*
G36*
X442913Y140158D02*
X438976D01*
Y144488D01*
X442913D01*
Y140158D01*
D02*
G37*
G36*
X452756Y140158D02*
X448819D01*
Y144488D01*
X452756D01*
Y140158D01*
D02*
G37*
G36*
X495670Y138780D02*
X491339D01*
Y142717D01*
X495670D01*
Y138780D01*
D02*
G37*
G36*
X488977Y138780D02*
X484646D01*
Y142717D01*
X488977D01*
Y138780D01*
D02*
G37*
G36*
X515354Y138779D02*
X511023D01*
Y142716D01*
X515354D01*
Y138779D01*
D02*
G37*
G36*
X508661D02*
X504330D01*
Y142716D01*
X508661D01*
Y138779D01*
D02*
G37*
G36*
X436614Y138583D02*
X431496D01*
Y142519D01*
X436614D01*
Y138583D01*
D02*
G37*
G36*
X413976Y137795D02*
X409646D01*
Y141732D01*
X413976D01*
Y137795D01*
D02*
G37*
G36*
X407283D02*
X402953D01*
Y141732D01*
X407283D01*
Y137795D01*
D02*
G37*
G36*
X413976Y130905D02*
X409646D01*
Y134842D01*
X413976D01*
Y130905D01*
D02*
G37*
G36*
X407283D02*
X402953D01*
Y134842D01*
X407283D01*
Y130905D01*
D02*
G37*
G36*
X468504Y130118D02*
X464567D01*
Y134449D01*
X468504D01*
Y130118D01*
D02*
G37*
G36*
X414567Y126771D02*
X411024D01*
Y128346D01*
X414567D01*
Y126771D01*
D02*
G37*
G36*
X405906D02*
X402362D01*
Y128346D01*
X405906D01*
Y126771D01*
D02*
G37*
G36*
X453740Y126456D02*
X447835D01*
Y129606D01*
X453740D01*
Y126456D01*
D02*
G37*
G36*
X414567Y124212D02*
X411024D01*
Y125787D01*
X414567D01*
Y124212D01*
D02*
G37*
G36*
X468504Y123425D02*
X464567D01*
Y127756D01*
X468504D01*
Y123425D01*
D02*
G37*
G36*
X414567Y121653D02*
X411024D01*
Y123228D01*
X414567D01*
Y121653D01*
D02*
G37*
G36*
X405906D02*
X402362D01*
Y123228D01*
X405906D01*
Y121653D01*
D02*
G37*
G36*
X453740Y121457D02*
X447835D01*
Y124606D01*
X453740D01*
Y121457D01*
D02*
G37*
G36*
X515886Y119173D02*
X510886D01*
Y123110D01*
X515886D01*
Y119173D01*
D02*
G37*
G36*
X503288D02*
X498287D01*
Y123110D01*
X503288D01*
Y119173D01*
D02*
G37*
G36*
X453740Y116456D02*
X447835D01*
Y119606D01*
X453740D01*
Y116456D01*
D02*
G37*
G36*
X407283Y115157D02*
X402953D01*
Y119094D01*
X407283D01*
Y115157D01*
D02*
G37*
G36*
X413976Y115157D02*
X409646D01*
Y119094D01*
X413976D01*
Y115157D01*
D02*
G37*
G36*
X515886Y114173D02*
X510886D01*
Y118110D01*
X515886D01*
Y114173D01*
D02*
G37*
G36*
X503288Y114173D02*
X498287D01*
Y118110D01*
X503288D01*
Y114173D01*
D02*
G37*
G36*
X515886Y109173D02*
X510886D01*
Y113110D01*
X515886D01*
Y109173D01*
D02*
G37*
G36*
X503288D02*
X498287D01*
Y113110D01*
X503288D01*
Y109173D01*
D02*
G37*
G36*
X512598Y98425D02*
X508267D01*
Y102362D01*
X512598D01*
Y98425D01*
D02*
G37*
G36*
X505905D02*
X501575D01*
Y102362D01*
X505905D01*
Y98425D01*
D02*
G37*
G36*
X420866Y97440D02*
X416535D01*
Y101377D01*
X420866D01*
Y97440D01*
D02*
G37*
G36*
X414173D02*
X409842D01*
Y101377D01*
X414173D01*
Y97440D01*
D02*
G37*
G36*
X412795Y89960D02*
X410433D01*
Y94488D01*
X412795D01*
Y89960D01*
D02*
G37*
G36*
X420276Y89960D02*
X417913D01*
Y94488D01*
X420276D01*
Y89960D01*
D02*
G37*
G36*
Y80708D02*
X417913D01*
Y85236D01*
X420276D01*
Y80708D01*
D02*
G37*
G36*
X416536D02*
X414173D01*
Y85236D01*
X416536D01*
Y80708D01*
D02*
G37*
G36*
X412795D02*
X410433D01*
Y85236D01*
X412795D01*
Y80708D01*
D02*
G37*
G36*
X420866Y73818D02*
X416535D01*
Y77755D01*
X420866D01*
Y73818D01*
D02*
G37*
G36*
X414173D02*
X409842D01*
Y77755D01*
X414173D01*
Y73818D01*
D02*
G37*
G36*
X695784Y62614D02*
X697576Y61872D01*
X699188Y60795D01*
X700559Y59424D01*
X701636Y57812D01*
X702378Y56020D01*
X702756Y54119D01*
Y53150D01*
Y52180D01*
X702378Y50279D01*
X701636Y48487D01*
X700559Y46875D01*
X699188Y45504D01*
X697576Y44427D01*
X695784Y43685D01*
X693883Y43307D01*
X691944D01*
X690042Y43685D01*
X688251Y44427D01*
X686639Y45504D01*
X685268Y46875D01*
X684191Y48487D01*
X683449Y50279D01*
X683071Y52180D01*
Y53150D01*
Y54119D01*
X683449Y56020D01*
X684191Y57812D01*
X685268Y59424D01*
X686639Y60795D01*
X688251Y61872D01*
X690042Y62614D01*
X691944Y62992D01*
X693883D01*
X695784Y62614D01*
D02*
G37*
G36*
X386811Y38780D02*
X382481D01*
Y42717D01*
X386811D01*
Y38780D01*
D02*
G37*
G36*
X380119Y38780D02*
X375788D01*
Y42717D01*
X380119D01*
Y38780D01*
D02*
G37*
G36*
X530118Y31495D02*
X525787D01*
Y35432D01*
X530118D01*
Y31495D01*
D02*
G37*
G36*
X523425Y31495D02*
X519094D01*
Y35432D01*
X523425D01*
Y31495D01*
D02*
G37*
G36*
X544488Y30905D02*
X540551D01*
Y36023D01*
X544488D01*
Y30905D01*
D02*
G37*
G36*
X536221D02*
X532284D01*
Y36023D01*
X536221D01*
Y30905D01*
D02*
G37*
G36*
X513780Y20866D02*
X505906D01*
Y26378D01*
X513780D01*
Y20866D01*
D02*
G37*
G36*
X486221D02*
X478347D01*
Y26378D01*
X486221D01*
Y20866D01*
D02*
G37*
G36*
X468504D02*
X460630D01*
Y26378D01*
X468504D01*
Y20866D01*
D02*
G37*
G36*
X440945D02*
X433071D01*
Y26378D01*
X440945D01*
Y20866D01*
D02*
G37*
G36*
X513780Y9055D02*
X505906D01*
Y14567D01*
X513780D01*
Y9055D01*
D02*
G37*
G36*
X486221D02*
X478347D01*
Y14567D01*
X486221D01*
Y9055D01*
D02*
G37*
G36*
X468504D02*
X460630D01*
Y14567D01*
X468504D01*
Y9055D01*
D02*
G37*
G36*
X440945D02*
X433071D01*
Y14567D01*
X440945D01*
Y9055D01*
D02*
G37*
D10*
X932685Y-168552D02*
X941868D01*
X937276D01*
Y-182327D01*
X948756D02*
X953347D01*
X955643Y-180031D01*
Y-175439D01*
X953347Y-173144D01*
X948756D01*
X946460Y-175439D01*
Y-180031D01*
X948756Y-182327D01*
X960235Y-186919D02*
Y-173144D01*
X967122D01*
X969418Y-175439D01*
Y-180031D01*
X967122Y-182327D01*
X960235D01*
X987785D02*
Y-168552D01*
X994673D01*
X996968Y-170848D01*
Y-175439D01*
X994673Y-177735D01*
X987785D01*
X1003856Y-173144D02*
X1008448D01*
X1010744Y-175439D01*
Y-182327D01*
X1003856D01*
X1001560Y-180031D01*
X1003856Y-177735D01*
X1010744D01*
X1015335Y-182327D02*
X1022223D01*
X1024519Y-180031D01*
X1022223Y-177735D01*
X1017631D01*
X1015335Y-175439D01*
X1017631Y-173144D01*
X1024519D01*
X1031406Y-170848D02*
Y-173144D01*
X1029110D01*
X1033702D01*
X1031406D01*
Y-180031D01*
X1033702Y-182327D01*
X1047477D02*
X1042885D01*
X1040590Y-180031D01*
Y-175439D01*
X1042885Y-173144D01*
X1047477D01*
X1049773Y-175439D01*
Y-177735D01*
X1040590D01*
D11*
X203974Y199607D02*
D03*
X203974Y190155D02*
D03*
X213421Y190157D02*
D03*
X213424Y199605D02*
D03*
D12*
X-112205Y-96457D02*
X-112205Y612205D01*
Y612205D02*
X767717Y612205D01*
X-112205Y-96457D02*
X767717Y-96457D01*
X767717Y612205D02*
X767717Y-96457D01*
D13*
X223228Y111142D02*
D03*
Y116142D02*
D03*
Y121142D02*
D03*
X235827D02*
D03*
Y116142D02*
D03*
Y111142D02*
D03*
D14*
X114173Y198031D02*
D03*
X135433D02*
D03*
X114173Y228031D02*
D03*
X135433D02*
D03*
X114173Y218032D02*
D03*
Y208032D02*
D03*
X135433Y218032D02*
D03*
X135433Y208032D02*
D03*
D15*
X81889Y240355D02*
D03*
X81889Y233662D02*
D03*
X188583Y46259D02*
D03*
X188583Y52952D02*
D03*
X211614Y239567D02*
D03*
X211614Y232874D02*
D03*
X223426Y239567D02*
D03*
X223426Y232874D02*
D03*
X217520Y239567D02*
D03*
Y232874D02*
D03*
X205709Y239567D02*
D03*
X205709Y232874D02*
D03*
X173228Y142323D02*
D03*
Y149016D02*
D03*
X163385Y142323D02*
D03*
X163385Y149016D02*
D03*
X188976Y132284D02*
D03*
X188976Y125591D02*
D03*
X94488Y62402D02*
D03*
X94488Y55709D02*
D03*
X57087Y11417D02*
D03*
Y18110D02*
D03*
X57086Y31890D02*
D03*
Y25197D02*
D03*
X222441Y258267D02*
D03*
Y251574D02*
D03*
X216536D02*
D03*
X216536Y258267D02*
D03*
D16*
X60630Y234449D02*
D03*
Y239567D02*
D03*
X69291D02*
D03*
X69291Y237008D02*
D03*
X69291Y234449D02*
D03*
X135236Y145079D02*
D03*
X135236Y147638D02*
D03*
X135236Y150197D02*
D03*
X126575D02*
D03*
Y145079D02*
D03*
X135236Y122441D02*
D03*
X135236Y125000D02*
D03*
X135236Y127559D02*
D03*
X126575D02*
D03*
Y122441D02*
D03*
D17*
X156496Y140551D02*
D03*
Y148819D02*
D03*
D18*
X173228Y128032D02*
D03*
Y123031D02*
D03*
Y118032D02*
D03*
D19*
X257678Y99213D02*
D03*
X264370Y99213D02*
D03*
X60630Y255906D02*
D03*
X67323Y255906D02*
D03*
X60630Y250591D02*
D03*
X67323Y250591D02*
D03*
X67322Y245275D02*
D03*
X60630Y245275D02*
D03*
X60630Y229330D02*
D03*
X67322Y229330D02*
D03*
X215945Y140748D02*
D03*
X209252Y140748D02*
D03*
X228937Y140748D02*
D03*
X235630Y140748D02*
D03*
X226181Y100393D02*
D03*
X232874Y100393D02*
D03*
X196456Y47244D02*
D03*
X203149D02*
D03*
X217914Y47244D02*
D03*
X211221Y47244D02*
D03*
X243701Y49212D02*
D03*
X250393D02*
D03*
X243701Y33464D02*
D03*
X250393Y33464D02*
D03*
X243701Y41338D02*
D03*
X250393D02*
D03*
X134252Y155511D02*
D03*
X127559D02*
D03*
Y139763D02*
D03*
X134252Y139763D02*
D03*
X134252Y132874D02*
D03*
X127559D02*
D03*
X127559Y117126D02*
D03*
X134252Y117126D02*
D03*
X134449Y99409D02*
D03*
X141141D02*
D03*
X134449Y75787D02*
D03*
X141141D02*
D03*
X107087Y40748D02*
D03*
X100394Y40748D02*
D03*
X225984Y66929D02*
D03*
X232677D02*
D03*
X244685Y99212D02*
D03*
X251378D02*
D03*
X230905Y234252D02*
D03*
X237598D02*
D03*
D20*
X53760Y252559D02*
D03*
X48760D02*
D03*
X43760D02*
D03*
X38760D02*
D03*
X53760Y233661D02*
D03*
X48760D02*
D03*
X43760D02*
D03*
X38760D02*
D03*
D21*
X49606Y220472D02*
D03*
X60630D02*
D03*
D22*
X247933Y118898D02*
D03*
Y111024D02*
D03*
Y114961D02*
D03*
Y122835D02*
D03*
D23*
X262795Y105905D02*
D03*
X262795Y127953D02*
D03*
D24*
X120669Y45866D02*
D03*
X116929Y36417D02*
D03*
X105315Y52362D02*
D03*
X109055Y61811D02*
D03*
D25*
X113189Y45866D02*
D03*
X101575Y61811D02*
D03*
D26*
X230512Y242126D02*
D03*
X237992Y242126D02*
D03*
X226575Y60039D02*
D03*
X234055D02*
D03*
D27*
X264961Y49213D02*
D03*
X256693D02*
D03*
Y33465D02*
D03*
X264961D02*
D03*
X256693Y41339D02*
D03*
X264961D02*
D03*
D28*
X198228Y60335D02*
D03*
Y55335D02*
D03*
Y65335D02*
D03*
X198228Y70335D02*
D03*
X198228Y75335D02*
D03*
Y80335D02*
D03*
X198228Y90335D02*
D03*
X198228Y85335D02*
D03*
X217126Y90335D02*
D03*
Y75335D02*
D03*
Y80335D02*
D03*
Y85335D02*
D03*
Y70335D02*
D03*
Y65335D02*
D03*
Y60335D02*
D03*
X217126Y55335D02*
D03*
D29*
X179331Y76772D02*
D03*
X188779Y73032D02*
D03*
X179331Y62992D02*
D03*
X188779Y59252D02*
D03*
D30*
X188779Y80512D02*
D03*
Y66732D02*
D03*
D31*
X181890Y45472D02*
D03*
Y52953D02*
D03*
D32*
X204724Y23622D02*
D03*
X232283D02*
D03*
X204724Y11811D02*
D03*
X232283D02*
D03*
X159449Y23622D02*
D03*
X187008D02*
D03*
X159449Y11811D02*
D03*
X187008D02*
D03*
D33*
X134055Y92224D02*
D03*
X141535Y92224D02*
D03*
Y82973D02*
D03*
X137795D02*
D03*
X134055D02*
D03*
D34*
X118898Y58071D02*
D03*
X135039D02*
D03*
X60827Y43307D02*
D03*
X76968D02*
D03*
D35*
X67323Y30709D02*
D03*
Y12598D02*
D03*
D36*
X94488Y21654D02*
D03*
D37*
X100394Y92815D02*
D03*
X120079D02*
D03*
X110236D02*
D03*
Y70571D02*
D03*
X120079D02*
D03*
D38*
X100394D02*
D03*
D39*
X244892Y61516D02*
D03*
X244892Y62697D02*
D03*
X244892Y86910D02*
D03*
X244892Y88091D02*
D03*
X244892Y84842D02*
D03*
X244892Y83661D02*
D03*
Y81693D02*
D03*
X244892Y79724D02*
D03*
Y77756D02*
D03*
Y75787D02*
D03*
Y73819D02*
D03*
Y71850D02*
D03*
Y69882D02*
D03*
Y67913D02*
D03*
Y65945D02*
D03*
X244892Y64764D02*
D03*
D40*
X235039Y73032D02*
D03*
X231299D02*
D03*
X227559D02*
D03*
Y82480D02*
D03*
X231299D02*
D03*
X235039D02*
D03*
D41*
X148228Y157480D02*
D03*
X153228Y157480D02*
D03*
X158228D02*
D03*
X163228D02*
D03*
X168220Y157480D02*
D03*
X238221Y157480D02*
D03*
X233221D02*
D03*
X228221D02*
D03*
X223220D02*
D03*
X218220Y157480D02*
D03*
X213221Y157480D02*
D03*
X208221D02*
D03*
X203221D02*
D03*
X198221D02*
D03*
X193220Y157480D02*
D03*
X188221Y157480D02*
D03*
X183221D02*
D03*
X178220D02*
D03*
X173221D02*
D03*
X168220Y224410D02*
D03*
X163228D02*
D03*
X158228D02*
D03*
X153228D02*
D03*
X148228D02*
D03*
X173221D02*
D03*
X178220D02*
D03*
X183221D02*
D03*
X188221Y224410D02*
D03*
X193220Y224410D02*
D03*
X198221D02*
D03*
X203221D02*
D03*
X208221D02*
D03*
X213221Y224410D02*
D03*
X218220Y224410D02*
D03*
X223220D02*
D03*
X228221D02*
D03*
X233221D02*
D03*
X238221Y224410D02*
D03*
M02*
